<?plantuml 1.2026.0?><svg xmlns="http://www.w3.org/2000/svg" xmlns:xlink="http://www.w3.org/1999/xlink" contentStyleType="text/css" data-diagram-type="CLASS" height="463px" preserveAspectRatio="none" style="width:637px;height:463px;background:#FFFFFF;" version="1.1" viewBox="0 0 637 463" width="637px" zoomAndPan="magnify"><defs/><g><!--cluster Patrones Temporales y Estructurales--><g class="cluster" data-qualified-name="Patrones Temporales y Estructurales" data-source-line="2" id="ent0002"><path d="M8.5,6.602 L265.853,6.602 A3.75,3.75 0 0 1 268.353,9.102 L275.353,31.6699 L627.5,31.6699 A2.5,2.5 0 0 1 630,34.1699 L630,453.922 A2.5,2.5 0 0 1 627.5,456.422 L8.5,456.422 A2.5,2.5 0 0 1 6,453.922 L6,9.102 A2.5,2.5 0 0 1 8.5,6.602" fill="none" style="stroke:#000000;stroke-width:1.5;"/><line style="stroke:#000000;stroke-width:1.5;" x1="6" x2="275.353" y1="31.6699" y2="31.6699"/><text fill="#000000" font-family="sans-serif" font-size="14" font-weight="bold" lengthAdjust="spacing" textLength="256.353" x="10" y="23.5679">Patrones Temporales y Estructurales</text></g><!--class Secuencial--><g class="entity" data-qualified-name="Patrones Temporales y Estructurales.Secuencial" data-source-line="4" id="ent0003"><rect fill="#F1F1F1" height="86.1358" rx="2.5" ry="2.5" style="stroke:#181818;stroke-width:0.5;" width="163.8155" x="450.09" y="54.132"/><ellipse cx="493.2221" cy="70.132" fill="#ADD1B2" rx="11" ry="11" style="stroke:#181818;stroke-width:1;"/><path d="M492.6908,77.0539 Q490.9408,77.0539 489.8002,76.3195 Q488.6752,75.5695 488.1127,74.2257 Q487.5658,72.8664 487.5658,71.0695 Q487.5658,69.0382 488.2221,67.5851 Q488.8783,66.132 490.1596,65.3507 Q491.4408,64.5695 493.3158,64.5695 Q494.2065,64.5695 494.8783,64.757 Q495.5502,64.9289 496.2377,65.2726 L495.4252,67.2882 Q494.8002,66.9757 494.2533,66.8507 Q493.7221,66.7257 493.2377,66.7257 Q492.0658,66.7257 491.3627,67.257 Q490.6596,67.7882 490.3627,68.7414 Q490.0658,69.6945 490.0658,70.9601 Q490.0658,72.9757 490.7846,73.9445 Q491.5033,74.8976 493.0971,74.8976 Q493.6908,74.8976 494.3158,74.7414 Q494.9408,74.5851 495.769,74.2101 L495.769,76.4289 Q495.0346,76.7414 494.2377,76.8976 Q493.4565,77.0539 492.6908,77.0539 Z " fill="#000000"/><text fill="#000000" font-family="sans-serif" font-size="14" lengthAdjust="spacing" textLength="69.2997" x="513.4737" y="75.564">Secuencial</text><line style="stroke:#181818;stroke-width:0.5;" x1="451.09" x2="612.9055" y1="86.132" y2="86.132"/><g data-visibility-modifier="PUBLIC_FIELD"><ellipse cx="461.09" cy="101.1659" fill="none" rx="3" ry="3" style="stroke:#038048;stroke-width:1;"/></g><text fill="#000000" font-family="sans-serif" font-size="14" lengthAdjust="spacing" textLength="128.5755" x="470.09" y="105.0979">orden determinado</text><g data-visibility-modifier="PUBLIC_FIELD"><ellipse cx="461.09" cy="120.2339" fill="none" rx="3" ry="3" style="stroke:#038048;stroke-width:1;"/></g><text fill="#000000" font-family="sans-serif" font-size="14" lengthAdjust="spacing" textLength="137.8155" x="470.09" y="124.1658">no implica repetici&#243;n</text><line style="stroke:#181818;stroke-width:0.5;" x1="451.09" x2="612.9055" y1="132.2678" y2="132.2678"/></g><!--class Recurrente--><g class="entity" data-qualified-name="Patrones Temporales y Estructurales.Recurrente" data-source-line="9" id="ent0004"><rect fill="#F1F1F1" height="105.2038" rx="2.5" ry="2.5" style="stroke:#181818;stroke-width:0.5;" width="161.2115" x="244.39" y="228.802"/><ellipse cx="284.6682" cy="244.802" fill="#ADD1B2" rx="11" ry="11" style="stroke:#181818;stroke-width:1;"/><path d="M284.1369,251.7239 Q282.3869,251.7239 281.2463,250.9895 Q280.1213,250.2395 279.5588,248.8957 Q279.0119,247.5364 279.0119,245.7395 Q279.0119,243.7082 279.6682,242.2551 Q280.3244,240.802 281.6057,240.0207 Q282.8869,239.2395 284.7619,239.2395 Q285.6526,239.2395 286.3244,239.427 Q286.9963,239.5989 287.6838,239.9426 L286.8713,241.9582 Q286.2463,241.6457 285.6994,241.5207 Q285.1682,241.3957 284.6838,241.3957 Q283.5119,241.3957 282.8088,241.927 Q282.1057,242.4582 281.8088,243.4114 Q281.5119,244.3645 281.5119,245.6301 Q281.5119,247.6457 282.2307,248.6145 Q282.9494,249.5676 284.5432,249.5676 Q285.1369,249.5676 285.7619,249.4114 Q286.3869,249.2551 287.2151,248.8801 L287.2151,251.0989 Q286.4807,251.4114 285.6838,251.5676 Q284.9026,251.7239 284.1369,251.7239 Z " fill="#000000"/><text fill="#000000" font-family="sans-serif" font-size="14" lengthAdjust="spacing" textLength="73.0377" x="304.2856" y="250.234">Recurrente</text><line style="stroke:#181818;stroke-width:0.5;" x1="245.39" x2="404.6015" y1="260.802" y2="260.802"/><g data-visibility-modifier="PUBLIC_FIELD"><ellipse cx="255.39" cy="275.8359" fill="none" rx="3" ry="3" style="stroke:#038048;stroke-width:1;"/></g><text fill="#000000" font-family="sans-serif" font-size="14" lengthAdjust="spacing" textLength="135.2115" x="264.39" y="279.7679">reaparici&#243;n eventual</text><g data-visibility-modifier="PUBLIC_FIELD"><ellipse cx="255.39" cy="294.9039" fill="none" rx="3" ry="3" style="stroke:#038048;stroke-width:1;"/></g><text fill="#000000" font-family="sans-serif" font-size="14" lengthAdjust="spacing" textLength="127.4275" x="264.39" y="298.8358">intervalos variables</text><g data-visibility-modifier="PUBLIC_FIELD"><ellipse cx="255.39" cy="313.9718" fill="none" rx="3" ry="3" style="stroke:#038048;stroke-width:1;"/></g><text fill="#000000" font-family="sans-serif" font-size="14" lengthAdjust="spacing" textLength="120.8895" x="264.39" y="317.9038">sin consecutividad</text><line style="stroke:#181818;stroke-width:0.5;" x1="245.39" x2="404.6015" y1="326.0057" y2="326.0057"/></g><!--class Iterativo--><g class="entity" data-qualified-name="Patrones Temporales y Estructurales.Iterativo" data-source-line="15" id="ent0005"><rect fill="#F1F1F1" height="105.2038" rx="2.5" ry="2.5" style="stroke:#181818;stroke-width:0.5;" width="173.3914" x="440.3" y="228.802"/><ellipse cx="494.9558" cy="244.802" fill="#ADD1B2" rx="11" ry="11" style="stroke:#181818;stroke-width:1;"/><path d="M494.4246,251.7239 Q492.6746,251.7239 491.5339,250.9895 Q490.4089,250.2395 489.8464,248.8957 Q489.2996,247.5364 489.2996,245.7395 Q489.2996,243.7082 489.9558,242.2551 Q490.6121,240.802 491.8933,240.0207 Q493.1746,239.2395 495.0496,239.2395 Q495.9402,239.2395 496.6121,239.427 Q497.2839,239.5989 497.9714,239.9426 L497.1589,241.9582 Q496.5339,241.6457 495.9871,241.5207 Q495.4558,241.3957 494.9714,241.3957 Q493.7996,241.3957 493.0964,241.927 Q492.3933,242.4582 492.0964,243.4114 Q491.7996,244.3645 491.7996,245.6301 Q491.7996,247.6457 492.5183,248.6145 Q493.2371,249.5676 494.8308,249.5676 Q495.4246,249.5676 496.0496,249.4114 Q496.6746,249.2551 497.5027,248.8801 L497.5027,251.0989 Q496.7683,251.4114 495.9714,251.5676 Q495.1902,251.7239 494.4246,251.7239 Z " fill="#000000"/><text fill="#000000" font-family="sans-serif" font-size="14" lengthAdjust="spacing" textLength="55.5798" x="515.4558" y="250.234">Iterativo</text><line style="stroke:#181818;stroke-width:0.5;" x1="441.3" x2="612.6914" y1="260.802" y2="260.802"/><g data-visibility-modifier="PUBLIC_FIELD"><ellipse cx="451.3" cy="275.8359" fill="none" rx="3" ry="3" style="stroke:#038048;stroke-width:1;"/></g><text fill="#000000" font-family="sans-serif" font-size="14" lengthAdjust="spacing" textLength="147.3914" x="460.3" y="279.7679">repetici&#243;n consecutiva</text><g data-visibility-modifier="PUBLIC_FIELD"><ellipse cx="451.3" cy="294.9039" fill="none" rx="3" ry="3" style="stroke:#038048;stroke-width:1;"/></g><text fill="#000000" font-family="sans-serif" font-size="14" lengthAdjust="spacing" textLength="105.5316" x="460.3" y="298.8358">periodicidad fija</text><g data-visibility-modifier="PUBLIC_FIELD"><ellipse cx="451.3" cy="313.9718" fill="none" rx="3" ry="3" style="stroke:#038048;stroke-width:1;"/></g><text fill="#000000" font-family="sans-serif" font-size="14" lengthAdjust="spacing" textLength="141.8334" x="460.3" y="317.9038">ciclos independientes</text><line style="stroke:#181818;stroke-width:0.5;" x1="441.3" x2="612.6914" y1="326.0057" y2="326.0057"/></g><!--class Recursivo--><g class="entity" data-qualified-name="Patrones Temporales y Estructurales.Recursivo" data-source-line="21" id="ent0006"><rect fill="#F1F1F1" height="105.2038" rx="2.5" ry="2.5" style="stroke:#181818;stroke-width:0.5;" width="204.3313" x="21.83" y="44.602"/><ellipse cx="87.9168" cy="60.602" fill="#ADD1B2" rx="11" ry="11" style="stroke:#181818;stroke-width:1;"/><path d="M87.3855,67.5239 Q85.6355,67.5239 84.4949,66.7895 Q83.3699,66.0395 82.8074,64.6957 Q82.2605,63.3364 82.2605,61.5395 Q82.2605,59.5082 82.9168,58.0551 Q83.573,56.602 84.8543,55.8207 Q86.1355,55.0395 88.0105,55.0395 Q88.9012,55.0395 89.573,55.227 Q90.2449,55.3989 90.9324,55.7426 L90.1199,57.7582 Q89.4949,57.4457 88.948,57.3207 Q88.4168,57.1957 87.9324,57.1957 Q86.7605,57.1957 86.0574,57.727 Q85.3543,58.2582 85.0574,59.2114 Q84.7605,60.1645 84.7605,61.4301 Q84.7605,63.4457 85.4793,64.4145 Q86.198,65.3676 87.7918,65.3676 Q88.3855,65.3676 89.0105,65.2114 Q89.6355,65.0551 90.4637,64.6801 L90.4637,66.8989 Q89.7293,67.2114 88.9324,67.3676 Q88.1512,67.5239 87.3855,67.5239 Z " fill="#000000"/><text fill="#000000" font-family="sans-serif" font-size="14" lengthAdjust="spacing" textLength="63.6577" x="108.4168" y="66.034">Recursivo</text><line style="stroke:#181818;stroke-width:0.5;" x1="22.83" x2="225.1613" y1="76.602" y2="76.602"/><g data-visibility-modifier="PUBLIC_FIELD"><ellipse cx="32.83" cy="91.6359" fill="none" rx="3" ry="3" style="stroke:#038048;stroke-width:1;"/></g><text fill="#000000" font-family="sans-serif" font-size="14" lengthAdjust="spacing" textLength="178.3313" x="41.83" y="95.5679">autocontenci&#243;n estructural</text><g data-visibility-modifier="PUBLIC_FIELD"><ellipse cx="32.83" cy="110.7039" fill="none" rx="3" ry="3" style="stroke:#038048;stroke-width:1;"/></g><text fill="#000000" font-family="sans-serif" font-size="14" lengthAdjust="spacing" textLength="86.5897" x="41.83" y="114.6358">autosimilitud</text><g data-visibility-modifier="PUBLIC_FIELD"><ellipse cx="32.83" cy="129.7718" fill="none" rx="3" ry="3" style="stroke:#038048;stroke-width:1;"/></g><text fill="#000000" font-family="sans-serif" font-size="14" lengthAdjust="spacing" textLength="130.4515" x="41.83" y="133.7038">ortogonal al tiempo</text><line style="stroke:#181818;stroke-width:0.5;" x1="22.83" x2="225.1613" y1="141.8057" y2="141.8057"/></g><g class="entity" data-qualified-name="Patrones Temporales y Estructurales.GMN9" data-source-line="31" id="ent0010"><path d="M260.98,74.502 L260.98,93.202 L226.4,97.202 L260.98,101.202 L260.98,119.914 A0,0 0 0 0 260.98,119.914 L415.0221,119.914 A0,0 0 0 0 415.0221,119.914 L415.0221,84.502 L405.0221,74.502 L260.98,74.502 A0,0 0 0 0 260.98,74.502" fill="#FEFFDD" style="stroke:#181818;stroke-width:0.5;"/><path d="M405.0221,74.502 L405.0221,84.502 L415.0221,84.502 L405.0221,74.502" fill="#FEFFDD" style="stroke:#181818;stroke-width:0.5;"/><text fill="#000000" font-family="sans-serif" font-size="13" lengthAdjust="spacing" textLength="133.0421" x="266.98" y="93.399">Dimensi&#243;n ortogonal:</text><text fill="#000000" font-family="sans-serif" font-size="13" lengthAdjust="spacing" textLength="132.8211" x="266.98" y="111.105">estructura, no tiempo</text></g><g class="entity" data-qualified-name="Patrones Temporales y Estructurales.GMN12" data-source-line="36" id="ent0013"><path d="M445.08,395.012 L445.08,440.424 A0,0 0 0 0 445.08,440.424 L608.9111,440.424 A0,0 0 0 0 608.9111,440.424 L608.9111,405.012 L598.9111,395.012 L531,395.012 L527,334.332 L523,395.012 L445.08,395.012 A0,0 0 0 0 445.08,395.012" fill="#FEFFDD" style="stroke:#181818;stroke-width:0.5;"/><path d="M598.9111,395.012 L598.9111,405.012 L608.9111,405.012 L598.9111,395.012" fill="#FEFFDD" style="stroke:#181818;stroke-width:0.5;"/><text fill="#000000" font-family="sans-serif" font-size="13" lengthAdjust="spacing" textLength="142.8311" x="451.08" y="413.909">Secuencial + Repetici&#243;n</text><text fill="#000000" font-family="sans-serif" font-size="13" lengthAdjust="spacing" textLength="104.0521" x="451.08" y="431.615">+ Consecutividad</text></g><g class="entity" data-qualified-name="Patrones Temporales y Estructurales.GMN15" data-source-line="41" id="ent0016"><path d="M248.15,395.012 L248.15,440.424 A0,0 0 0 0 248.15,440.424 L401.8541,440.424 A0,0 0 0 0 401.8541,440.424 L401.8541,405.012 L391.8541,395.012 L329,395.012 L325,334.332 L321,395.012 L248.15,395.012 A0,0 0 0 0 248.15,395.012" fill="#FEFFDD" style="stroke:#181818;stroke-width:0.5;"/><path d="M391.8541,395.012 L391.8541,405.012 L401.8541,405.012 L391.8541,395.012" fill="#FEFFDD" style="stroke:#181818;stroke-width:0.5;"/><text fill="#000000" font-family="sans-serif" font-size="13" lengthAdjust="spacing" textLength="132.7041" x="254.15" y="413.909">Puede o no mantener</text><text fill="#000000" font-family="sans-serif" font-size="13" lengthAdjust="spacing" textLength="103.4151" x="254.15" y="431.615">orden secuencial</text></g><!--reverse link Secuencial to Iterativo--><g class="link" data-entity-1="ent0003" data-entity-2="ent0005" data-link-type="extension" data-source-line="27" id="lnk7"><path codeLine="27" d="M530.347,158.4552 C529.627,184.7352 529.19,200.722 528.42,228.622" fill="none" id="Secuencial-backto-Iterativo" style="stroke:#181818;stroke-width:1;"/><polygon fill="none" points="530.84,140.462,524.3493,158.2909,536.3448,158.6196,530.84,140.462" style="stroke:#181818;stroke-width:1;"/><text fill="#000000" font-family="sans-serif" font-size="13" lengthAdjust="spacing" textLength="52.117" x="530.65" y="194.699">requiere</text></g><!--reverse link Secuencial to Recurrente--><g class="link" data-entity-1="ent0003" data-entity-2="ent0004" data-link-type="dependency" data-source-line="28" id="lnk8"><path codeLine="28" d="M479.2257,144.6557 C449.4757,170.8357 415.63,200.642 384.07,228.412" fill="none" id="Secuencial-backto-Recurrente" style="stroke:#181818;stroke-width:1;stroke-dasharray:7,7;"/><polygon fill="#181818" points="483.73,140.692,474.3311,143.6348,479.9764,143.9951,479.6161,149.6405,483.73,140.692" style="stroke:#181818;stroke-width:1;"/><text fill="#000000" font-family="sans-serif" font-size="13" lengthAdjust="spacing" textLength="74.8281" x="435.71" y="194.699">puede tener</text></g><?plantuml-src VL9BJWCn3Dtt55QtfHoWOWSis5N01Tp4BOQPEEGp4eAUYYDmCPnqEXDL22cB6J_xVPnuD6zu85XkCGLn5E6PUYy1E_tyWFkOGZOfr_ybV2u0z9WEOuGdCfcSOUng7M054Ymvi9GezEpGobXt0jpxZWr284-93VzyEmMFBU6Z4eP0Bj5460WzXbCxqA1Oncx4M1l3W9r46BG7TsfnX28xCEAY4YOUsAAzr7hGMLHC6gd9M3EB8-efi5Y5bGls_7gk6pR503khuyvoSH__31PRCSn9L2IL_TLeyvwRZiWzTvoodTQRv21E5wudSRceMQgvZfklzRf9kD5ixvafq4NRzNMxymtuJ9P0JL4uSJhHUk33ImBPpp6gdJlkoSNgVlArgSWSvghS_6HKzrCP6-wTf2Hz8P_iLeh6vKfrsoTJ5d5xURV_KiyPw_YsffHYhKTtJWlZuusJSajxNFm2?></g></svg>