<?xml version="1.0" encoding="us-ascii" standalone="no"?><svg xmlns="http://www.w3.org/2000/svg" xmlns:xlink="http://www.w3.org/1999/xlink" contentStyleType="text/css" height="1296px" preserveAspectRatio="none" style="width:1271px;height:1296px;background:#FFFFFF;" version="1.1" viewBox="0 0 1271 1296" width="1271px" zoomAndPan="magnify"><defs/><g><!--cluster EcoTrack--><g id="cluster_EcoTrack"><rect fill="none" height="896" rx="2.5" ry="2.5" style="stroke:#181818;stroke-width:1.0;" width="1060" x="205" y="7"/><text fill="#000000" font-family="sans-serif" font-size="14" font-weight="bold" lengthAdjust="spacing" textLength="62" x="704" y="23.9659">EcoTrack</text></g><g id="elem_UC1"><ellipse cx="356.8751" cy="395.075" fill="#F1F1F1" rx="103.3751" ry="23.075" style="stroke:#181818;stroke-width:0.5;"/><text fill="#000000" font-family="sans-serif" font-size="14" lengthAdjust="spacing" textLength="163" x="272.3751" y="399.808">Crear cuenta de usuario</text></g><g id="elem_UC2"><ellipse cx="357.0009" cy="633.0002" fill="#F1F1F1" rx="88.0009" ry="20.0002" style="stroke:#181818;stroke-width:0.5;"/><text fill="#000000" font-family="sans-serif" font-size="14" lengthAdjust="spacing" textLength="125" x="291.5009" y="637.7331">Autenticar usuario</text></g><g id="elem_UC3"><ellipse cx="729.5609" cy="852.1122" fill="#F1F1F1" rx="111.0609" ry="24.6122" style="stroke:#181818;stroke-width:0.5;"/><text fill="#000000" font-family="sans-serif" font-size="14" lengthAdjust="spacing" textLength="181" x="636.0609" y="856.8451">Calcular huella de carbono</text></g><g id="elem_UC4"><ellipse cx="1107.7263" cy="770.0453" fill="#F1F1F1" rx="90.7263" ry="20.5453" style="stroke:#181818;stroke-width:0.5;"/><text fill="#000000" font-family="sans-serif" font-size="14" lengthAdjust="spacing" textLength="132" x="1038.7263" y="774.7782">Revisar estad&#237;sticas</text></g><g id="elem_UC5"><ellipse cx="356.9273" cy="712.7855" fill="#F1F1F1" rx="111.9273" ry="24.7855" style="stroke:#181818;stroke-width:0.5;"/><text fill="#000000" font-family="sans-serif" font-size="14" lengthAdjust="spacing" textLength="183" x="262.4273" y="717.5184">Definir metas de reducci&#243;n</text></g><g id="elem_UC6"><ellipse cx="357.211" cy="794.8422" fill="#F1F1F1" rx="94.711" ry="21.3422" style="stroke:#181818;stroke-width:0.5;"/><text fill="#000000" font-family="sans-serif" font-size="14" lengthAdjust="spacing" textLength="142" x="283.211" y="799.5752">Registrar actividades</text></g><g id="elem_UC7"><ellipse cx="357.2218" cy="869.2444" fill="#F1F1F1" rx="76.7218" ry="17.7444" style="stroke:#181818;stroke-width:0.5;"/><text fill="#000000" font-family="sans-serif" font-size="14" lengthAdjust="spacing" textLength="94" x="307.2218" y="873.9773">Unirse a retos</text></g><g id="elem_UC8"><ellipse cx="357.105" cy="557.021" fill="#F1F1F1" rx="93.105" ry="21.021" style="stroke:#181818;stroke-width:0.5;"/><text fill="#000000" font-family="sans-serif" font-size="14" lengthAdjust="spacing" textLength="138" x="285.105" y="561.754">Vincular dispositivos</text></g><g id="elem_UC9"><ellipse cx="1107.4645" cy="856.1929" fill="#F1F1F1" rx="141.4645" ry="30.6929" style="stroke:#181818;stroke-width:0.5;"/><text fill="#000000" font-family="sans-serif" font-size="14" lengthAdjust="spacing" textLength="248" x="983.4645" y="859.6249">Obtener sugerencias personalizadas</text></g><g id="elem_UC10"><ellipse cx="729.6123" cy="733.9225" fill="#F1F1F1" rx="117.6123" ry="25.9225" style="stroke:#181818;stroke-width:0.5;"/><text fill="#000000" font-family="sans-serif" font-size="14" lengthAdjust="spacing" textLength="196" x="628.7385" y="738.6083">Generar informes mensuales</text></g><g id="elem_UC11"><ellipse cx="356.8505" cy="64.7701" fill="#F1F1F1" rx="86.8505" ry="19.7701" style="stroke:#181818;stroke-width:0.5;"/><text fill="#000000" font-family="sans-serif" font-size="14" lengthAdjust="spacing" textLength="122" x="292.8505" y="69.5031">Gestionar cuentas</text></g><g id="elem_UC12"><ellipse cx="356.9037" cy="137.8807" fill="#F1F1F1" rx="77.4037" ry="17.8807" style="stroke:#181818;stroke-width:0.5;"/><text fill="#000000" font-family="sans-serif" font-size="14" lengthAdjust="spacing" textLength="96" x="305.9037" y="142.6137">Moderar retos</text></g><g id="elem_UC13"><ellipse cx="357.2317" cy="217.2463" fill="#F1F1F1" rx="116.7317" ry="25.7463" style="stroke:#181818;stroke-width:0.5;"/><text fill="#000000" font-family="sans-serif" font-size="14" lengthAdjust="spacing" textLength="194" x="257.2317" y="221.9793">Analizar tendencias globales</text></g><g id="elem_UC14"><ellipse cx="356.9133" cy="477.0827" fill="#F1F1F1" rx="105.9133" ry="23.5827" style="stroke:#181818;stroke-width:0.5;"/><text fill="#000000" font-family="sans-serif" font-size="14" lengthAdjust="spacing" textLength="169" x="269.4133" y="481.8156">Enviar datos de consumo</text></g><g id="elem_UC15"><ellipse cx="356.8473" cy="307.0695" fill="#F1F1F1" rx="135.8473" ry="29.5695" style="stroke:#181818;stroke-width:0.5;"/><text fill="#000000" font-family="sans-serif" font-size="14" lengthAdjust="spacing" textLength="236" x="238.8473" y="310.5014">Configurar par&#225;metros del sistema</text></g><!--entity UNR--><g id="elem_UNR"><ellipse cx="82" cy="348" fill="#F1F1F1" rx="8" ry="8" style="stroke:#181818;stroke-width:0.5;"/><path d="M82,356 L82,383 M69,364 L95,364 M82,383 L69,398 M82,383 L95,398 " fill="none" style="stroke:#181818;stroke-width:0.5;"/><text fill="#000000" font-family="sans-serif" font-size="14" lengthAdjust="spacing" textLength="152" x="6" y="414.4659">Usuario No Registrado</text></g><!--entity UR--><g id="elem_UR"><ellipse cx="82" cy="838" fill="#F1F1F1" rx="8" ry="8" style="stroke:#181818;stroke-width:0.5;"/><path d="M82,846 L82,873 M69,854 L95,854 M82,873 L69,888 M82,873 L95,888 " fill="none" style="stroke:#181818;stroke-width:0.5;"/><text fill="#000000" font-family="sans-serif" font-size="14" lengthAdjust="spacing" textLength="129" x="17.5" y="904.4659">Usuario Registrado</text></g><!--entity ADM--><g id="elem_ADM"><ellipse cx="82" cy="147" fill="#F1F1F1" rx="8" ry="8" style="stroke:#181818;stroke-width:0.5;"/><path d="M82,155 L82,182 M69,163 L95,163 M82,182 L69,197 M82,182 L95,197 " fill="none" style="stroke:#181818;stroke-width:0.5;"/><text fill="#000000" font-family="sans-serif" font-size="14" lengthAdjust="spacing" textLength="97" x="33.5" y="213.4659">Administrador</text></g><!--entity DE--><g id="elem_DE"><ellipse cx="82" cy="462" fill="#F1F1F1" rx="8" ry="8" style="stroke:#181818;stroke-width:0.5;"/><path d="M82,470 L82,497 M69,478 L95,478 M82,497 L69,512 M82,497 L95,512 " fill="none" style="stroke:#181818;stroke-width:0.5;"/><text fill="#000000" font-family="sans-serif" font-size="14" lengthAdjust="spacing" textLength="128" x="18" y="528.4659">Dispositivo Externo</text></g><!--link UNR to UC1--><g id="link_UNR_UC1"><path d="M158.32,383.42 C188.7,385.2 218.1903,386.9293 250.6403,388.8293 " fill="none" id="UNR-to-UC1" style="stroke:#181818;stroke-width:1.0;"/><polygon fill="#181818" points="256.63,389.18,247.8792,384.6608,251.6385,388.8877,247.4116,392.6471,256.63,389.18" style="stroke:#181818;stroke-width:1.0;"/></g><!--link UR to UC2--><g id="link_UR_UC2"><path d="M94.98,829.18 C110.81,783.59 143.17,710.05 197,670 C218.94,653.68 241.0543,645.5655 267.4143,640.3455 " fill="none" id="UR-to-UC2" style="stroke:#181818;stroke-width:1.0;"/><polygon fill="#181818" points="273.3,639.18,263.6944,637.0045,268.3952,640.1513,265.2485,644.8521,273.3,639.18" style="stroke:#181818;stroke-width:1.0;"/></g><!--link UR to UC3--><g id="link_UR_UC3"><path d="M113.31,908.82 C132.17,930.18 158.42,954.43 188,966 C351.08,1029.8 416.37,1022.85 582,966 C633.51,948.32 676.7486,908.67 702.9786,880.79 " fill="none" id="UR-to-UC3" style="stroke:#181818;stroke-width:1.0;"/><polygon fill="#181818" points="707.09,876.42,698.0096,880.2341,703.6639,880.0617,703.8363,885.7159,707.09,876.42" style="stroke:#181818;stroke-width:1.0;"/></g><!--link UR to UC4--><g id="link_UR_UC4"><path d="M100.08,908.62 C118.21,945.1 150.69,996.94 197,1020 C314.76,1078.65 362.87,1039.31 493,1020 C623.55,1000.63 845.84,942.16 936,864 C957.33,845.51 943.9,825.57 966,808 C983.51,794.09 999.8929,786.759 1021.4429,781.159 " fill="none" id="UR-to-UC4" style="stroke:#181818;stroke-width:1.0;"/><polygon fill="#181818" points="1027.25,779.65,1017.5333,778.0421,1022.4107,780.9075,1019.5453,785.785,1027.25,779.65" style="stroke:#181818;stroke-width:1.0;"/></g><!--link UR to UC5--><g id="link_UR_UC5"><path d="M113.71,829.44 C134.7,804.95 164.52,774.71 197,756 C218.56,743.58 238.0332,736.1884 261.9932,729.7884 " fill="none" id="UR-to-UC5" style="stroke:#181818;stroke-width:1.0;"/><polygon fill="#181818" points="267.79,728.24,258.0626,726.6981,262.9594,729.5303,260.1271,734.4271,267.79,728.24" style="stroke:#181818;stroke-width:1.0;"/></g><!--link UR to UC6--><g id="link_UR_UC6"><path d="M146.72,848.73 C163.06,843.73 180.63,838.52 197,834 C227.41,825.61 255.505,818.5572 284.195,811.6872 " fill="none" id="UR-to-UC6" style="stroke:#181818;stroke-width:1.0;"/><polygon fill="#181818" points="290.03,810.29,280.3459,808.4958,285.1675,811.4544,282.2089,816.2759,290.03,810.29" style="stroke:#181818;stroke-width:1.0;"/></g><!--link UR to UC7--><g id="link_UR_UC7"><path d="M146.66,869 C186.52,869 232.11,869 274.09,869 " fill="none" id="UR-to-UC7" style="stroke:#181818;stroke-width:1.0;"/><polygon fill="#181818" points="280.09,869,271.09,865,275.09,869,271.09,873,280.09,869" style="stroke:#181818;stroke-width:1.0;"/></g><!--link UR to UC8--><g id="link_UR_UC8"><path d="M88.09,829.29 C97.96,769.26 125.42,655.97 197,595 C216.77,578.16 236.8557,569.7688 262.0457,564.3188 " fill="none" id="UR-to-UC8" style="stroke:#181818;stroke-width:1.0;"/><polygon fill="#181818" points="267.91,563.05,258.2677,561.0436,263.0231,564.1073,259.9594,568.8627,267.91,563.05" style="stroke:#181818;stroke-width:1.0;"/></g><!--link UR to UC9--><g id="link_UR_UC9"><path d="M87.35,908.82 C95.8,964.47 120.07,1063.65 188,1108 C466.36,1289.75 642.36,1263.86 936,1108 C1025.58,1060.45 1074.6862,948.132 1094.6462,892.112 " fill="none" id="UR-to-UC9" style="stroke:#181818;stroke-width:1.0;"/><polygon fill="#181818" points="1096.66,886.46,1089.8713,893.5954,1094.9818,891.17,1097.4073,896.2805,1096.66,886.46" style="stroke:#181818;stroke-width:1.0;"/></g><!--link UR to UC10--><g id="link_UR_UC10"><path d="M146.73,892.22 C162.91,897.09 180.42,901.51 197,904 C327.1,923.52 368.73,947.16 493,904 C556.67,881.89 557.27,849.34 612,810 C637.1,791.96 661.1529,776.1732 684.0029,761.6832 " fill="none" id="UR-to-UC10" style="stroke:#181818;stroke-width:1.0;"/><polygon fill="#181818" points="689.07,758.47,679.3272,759.9118,684.8474,761.1477,683.6115,766.6679,689.07,758.47" style="stroke:#181818;stroke-width:1.0;"/></g><!--link ADM to UC11--><g id="link_ADM_UC11"><path d="M130.72,140.61 C150.34,126.76 173.86,112.01 197,102 C224.44,90.13 250.3927,82.9674 278.3327,77.2274 " fill="none" id="ADM-to-UC11" style="stroke:#181818;stroke-width:1.0;"/><polygon fill="#181818" points="284.21,76.02,274.5892,73.913,279.3123,77.0262,276.1991,81.7493,284.21,76.02" style="stroke:#181818;stroke-width:1.0;"/></g><!--link ADM to UC12--><g id="link_ADM_UC12"><path d="M130.55,171.03 C175.01,164.52 235.8234,155.6099 285.1634,148.3799 " fill="none" id="ADM-to-UC12" style="stroke:#181818;stroke-width:1.0;"/><polygon fill="#181818" points="291.1,147.51,281.6152,144.8571,286.1528,148.2349,282.775,152.7726,291.1,147.51" style="stroke:#181818;stroke-width:1.0;"/></g><!--link ADM to UC13--><g id="link_ADM_UC13"><path d="M130.55,184.79 C165.92,189.85 209.4503,196.0613 253.0503,202.2913 " fill="none" id="ADM-to-UC13" style="stroke:#181818;stroke-width:1.0;"/><polygon fill="#181818" points="258.99,203.14,250.6463,197.9071,254.0403,202.4327,249.5147,205.8267,258.99,203.14" style="stroke:#181818;stroke-width:1.0;"/></g><!--link ADM to UC15--><g id="link_ADM_UC15"><path d="M130.37,217.55 C150.04,232.47 173.68,248.58 197,260 C217.81,270.19 235.5072,276.882 257.8772,283.652 " fill="none" id="ADM-to-UC15" style="stroke:#181818;stroke-width:1.0;"/><polygon fill="#181818" points="263.62,285.39,256.1645,278.9545,258.8344,283.9417,253.8472,286.6115,263.62,285.39" style="stroke:#181818;stroke-width:1.0;"/></g><!--link DE to UC14--><g id="link_DE_UC14"><path d="M146.32,489.29 C178.37,487.41 212.0803,485.4308 248.2803,483.3108 " fill="none" id="DE-to-UC14" style="stroke:#181818;stroke-width:1.0;"/><polygon fill="#181818" points="254.27,482.96,245.0515,479.493,249.2786,483.2523,245.5192,487.4793,254.27,482.96" style="stroke:#181818;stroke-width:1.0;"/></g><!--link UC3 to UC4--><g id="link_UC3_UC4"><path d="M809.32,834.81 C878.23,819.78 971.2277,799.498 1035.6777,785.448 " fill="none" id="UC3-to-UC4" style="stroke:#181818;stroke-width:1.0;stroke-dasharray:7.0,7.0;"/><polygon fill="#181818" points="1041.54,784.17,1031.8945,782.1788,1036.6547,785.235,1033.5985,789.9952,1041.54,784.17" style="stroke:#181818;stroke-width:1.0;"/><text fill="#000000" font-family="sans-serif" font-size="13" lengthAdjust="spacing" textLength="57" x="878" y="804.897">&#171;include&#187;</text></g><!--link UC3 to UC9--><g id="link_UC3_UC9"><path d="M840.09,854.44 C852.54,854.66 865.04,854.85 877,855 C905.69,855.36 930.3901,855.5573 959.7101,855.7173 " fill="none" id="UC3-to-UC9" style="stroke:#181818;stroke-width:1.0;stroke-dasharray:7.0,7.0;"/><polygon fill="#181818" points="965.71,855.75,956.732,851.7009,960.7101,855.7227,956.6883,859.7008,965.71,855.75" style="stroke:#181818;stroke-width:1.0;"/><text fill="#000000" font-family="sans-serif" font-size="13" lengthAdjust="spacing" textLength="57" x="878" y="850.897">&#171;include&#187;</text></g><!--link UC10 to UC4--><g id="link_UC10_UC4"><path d="M837.74,744.27 C896.89,749.93 963.2372,756.289 1017.9472,761.519 " fill="none" id="UC10-to-UC4" style="stroke:#181818;stroke-width:1.0;stroke-dasharray:7.0,7.0;"/><polygon fill="#181818" points="1023.92,762.09,1015.3415,757.2517,1018.9427,761.6142,1014.5802,765.2154,1023.92,762.09" style="stroke:#181818;stroke-width:1.0;"/><text fill="#000000" font-family="sans-serif" font-size="13" lengthAdjust="spacing" textLength="57" x="878" y="744.897">&#171;include&#187;</text></g><!--link UC13 to UC10--><g id="link_UC13_UC10"><path d="M445.79,233.71 C462.77,239.91 479.46,248.39 493,260 C640.68,386.69 703.8663,622.2356 721.7463,701.9156 " fill="none" id="UC13-to-UC10" style="stroke:#181818;stroke-width:1.0;stroke-dasharray:7.0,7.0;"/><polygon fill="#181818" points="723.06,707.77,724.9924,698.1126,721.9652,702.8913,717.1865,699.8642,723.06,707.77" style="stroke:#181818;stroke-width:1.0;"/><text fill="#000000" font-family="sans-serif" font-size="13" lengthAdjust="spacing" textLength="57" x="524" y="285.897">&#171;include&#187;</text></g><!--SRC=[TPDDRjim48NtEiN0-mIHVvAu20mObf1LKi2ekwV9iJ8eHHeaPGGjUfWUeAiUmHVhI3ObAaLNViHyy_GuGsiy10WM75Ll0HGvb86ioOGCri5avnlXoCAhXIrMv8CJoav0UDYzRZz27uaUMAkQpBNakjgwU8d5WlpHUWfqib2-1tJcqbwKMTQc4QRI2AMqNvoGt-171j1ubC8ZJ3OEXGFPe0a257AXItBv_2PFqNKJc2B9_9YQZWo5bercvgr1hJjFxjXR4-bPIc_nH9vXz46eys_VslihE4_10Wyy00Sr1YwogKFLI4ddF-QAByQ-bq4wu1dHYPHG67tlKt37flmhs2_OI3oan5SobmkfOSmHV4p1ptkU3phmJOKEZIH6ZkYyDKBJTw7wYotJhkUsXzt97AohqVCD3KzNzt7pkp7kszVLxwodHgjwiQepJI-LZzQqleHom9dLDMobxJxzy6XJfJbHEmJ1ZjrIBSUi-uSoMjR6cWDLJPlWADpv5o_DTLqQFAy5Qn7R5jdFBEC_0jpShBhtjejoEiZP8EU3N0poVf0FWtmSv7AGF4x-wyH3dXwcwM6M7XPPKKOzvy2R6TpUTddW4pmzyGlHZSBLAgai_wdaT_zjocCNCwFQNm00]--></g></svg>