<?xml version="1.0" encoding="us-ascii" standalone="no"?><svg xmlns="http://www.w3.org/2000/svg" xmlns:xlink="http://www.w3.org/1999/xlink" contentStyleType="text/css" height="1657px" preserveAspectRatio="none" style="width:1259px;height:1657px;background:#FFFFFF;" version="1.1" viewBox="0 0 1259 1657" width="1259px" zoomAndPan="magnify"><defs/><g><ellipse cx="895.2188" cy="20" fill="#222222" rx="10" ry="10" style="stroke:#222222;stroke-width:1.0;"/><rect fill="#F1F1F1" height="36.3441" rx="12.5" ry="12.5" style="stroke:#181818;stroke-width:0.5;" width="248" x="771.2188" y="50"/><text fill="#000000" font-family="sans-serif" font-size="12" lengthAdjust="spacing" textLength="228" x="781.2188" y="72.8281">Usuario solicita registrar nueva actividad</text><rect fill="#F1F1F1" height="36.3441" rx="12.5" ry="12.5" style="stroke:#181818;stroke-width:0.5;" width="243" x="773.7188" y="106.3441"/><text fill="#000000" font-family="sans-serif" font-size="12" lengthAdjust="spacing" textLength="223" x="783.7188" y="129.1722">Sistema muestra categor&#237;as disponibles</text><rect fill="#F1F1F1" height="36.3441" rx="12.5" ry="12.5" style="stroke:#181818;stroke-width:0.5;" width="165" x="812.7188" y="206.6882"/><text fill="#000000" font-family="sans-serif" font-size="12" lengthAdjust="spacing" textLength="145" x="822.7188" y="229.5163">Usuario ingresa categor&#237;a</text><polygon fill="#F1F1F1" points="850.2188,263.0323,940.2188,263.0323,952.2188,275.0323,940.2188,287.0323,850.2188,287.0323,838.2188,275.0323,850.2188,263.0323" style="stroke:#181818;stroke-width:0.5;"/><text fill="#000000" font-family="sans-serif" font-size="11" lengthAdjust="spacing" textLength="90" x="850.2188" y="279.3003">Categor&#237;a v&#225;lida?</text><text fill="#000000" font-family="sans-serif" font-size="11" lengthAdjust="spacing" textLength="8" x="830.2188" y="271.8094">s&#237;</text><text fill="#000000" font-family="sans-serif" font-size="11" lengthAdjust="spacing" textLength="14" x="952.2188" y="271.8094">no</text><rect fill="#F1F1F1" height="36.3441" rx="12.5" ry="12.5" style="stroke:#181818;stroke-width:0.5;" width="208" x="566.4375" y="297.0323"/><text fill="#000000" font-family="sans-serif" font-size="12" lengthAdjust="spacing" textLength="188" x="576.4375" y="319.8604">Sistema solicita valor de actividad</text><rect fill="#F1F1F1" height="36.3441" rx="12.5" ry="12.5" style="stroke:#181818;stroke-width:0.5;" width="140" x="600.4375" y="409.7206"/><text fill="#000000" font-family="sans-serif" font-size="12" lengthAdjust="spacing" textLength="120" x="610.4375" y="432.5487">Usuario ingresa valor</text><polygon fill="#F1F1F1" points="636.4375,466.0647,704.4375,466.0647,716.4375,478.0647,704.4375,490.0647,636.4375,490.0647,624.4375,478.0647,636.4375,466.0647" style="stroke:#181818;stroke-width:0.5;"/><text fill="#000000" font-family="sans-serif" font-size="11" lengthAdjust="spacing" textLength="68" x="636.4375" y="482.3327">Valor v&#225;lido?</text><text fill="#000000" font-family="sans-serif" font-size="11" lengthAdjust="spacing" textLength="8" x="616.4375" y="474.8417">s&#237;</text><text fill="#000000" font-family="sans-serif" font-size="11" lengthAdjust="spacing" textLength="14" x="716.4375" y="474.8417">no</text><rect fill="#F1F1F1" height="36.3441" rx="12.5" ry="12.5" style="stroke:#181818;stroke-width:0.5;" width="211" x="355.875" y="500.0647"/><text fill="#000000" font-family="sans-serif" font-size="12" lengthAdjust="spacing" textLength="191" x="365.875" y="522.8928">Sistema solicita fecha de actividad</text><rect fill="#F1F1F1" height="36.3441" rx="12.5" ry="12.5" style="stroke:#181818;stroke-width:0.5;" width="143" x="389.875" y="612.7529"/><text fill="#000000" font-family="sans-serif" font-size="12" lengthAdjust="spacing" textLength="123" x="399.875" y="635.581">Usuario ingresa fecha</text><polygon fill="#F1F1F1" points="426.875,669.097,495.875,669.097,507.875,681.097,495.875,693.097,426.875,693.097,414.875,681.097,426.875,669.097" style="stroke:#181818;stroke-width:0.5;"/><text fill="#000000" font-family="sans-serif" font-size="11" lengthAdjust="spacing" textLength="69" x="426.875" y="685.365">Fecha v&#225;lida?</text><text fill="#000000" font-family="sans-serif" font-size="11" lengthAdjust="spacing" textLength="8" x="406.875" y="677.8741">s&#237;</text><text fill="#000000" font-family="sans-serif" font-size="11" lengthAdjust="spacing" textLength="14" x="507.875" y="677.8741">no</text><rect fill="#F1F1F1" height="36.3441" rx="12.5" ry="12.5" style="stroke:#181818;stroke-width:0.5;" width="202" x="171.75" y="703.097"/><text fill="#000000" font-family="sans-serif" font-size="12" lengthAdjust="spacing" textLength="182" x="181.75" y="725.9251">Usuario solicita c&#225;lculo de huella</text><polygon fill="#F1F1F1" points="230.75,815.7853,314.75,815.7853,326.75,827.7853,314.75,839.7853,230.75,839.7853,218.75,827.7853,230.75,815.7853" style="stroke:#181818;stroke-width:0.5;"/><text fill="#000000" font-family="sans-serif" font-size="11" lengthAdjust="spacing" textLength="84" x="230.75" y="832.0532">C&#225;lculo exitoso?</text><text fill="#000000" font-family="sans-serif" font-size="11" lengthAdjust="spacing" textLength="8" x="210.75" y="824.5623">s&#237;</text><text fill="#000000" font-family="sans-serif" font-size="11" lengthAdjust="spacing" textLength="14" x="326.75" y="824.5623">no</text><rect fill="#F1F1F1" height="36.3441" rx="12.5" ry="12.5" style="stroke:#181818;stroke-width:0.5;" width="233" x="25.5" y="849.7853"/><text fill="#000000" font-family="sans-serif" font-size="12" lengthAdjust="spacing" textLength="213" x="35.5" y="872.6133">Sistema muestra resultado del c&#225;lculo</text><rect fill="#F1F1F1" height="36.3441" rx="12.5" ry="12.5" style="stroke:#181818;stroke-width:0.5;" width="257" x="13.5" y="920.9049"/><text fill="#000000" font-family="sans-serif" font-size="12" lengthAdjust="spacing" textLength="237" x="23.5" y="943.733">Sistema muestra estad&#237;sticas actualizadas</text><rect fill="#F1F1F1" height="36.3441" rx="12.5" ry="12.5" style="stroke:#181818;stroke-width:0.5;" width="231" x="26.5" y="1026.74"/><text fill="#000000" font-family="sans-serif" font-size="12" lengthAdjust="spacing" textLength="211" x="36.5" y="1049.5681">Sistema muestra notificaci&#243;n de logro</text><polygon fill="#F1F1F1" points="86,977.249,198,977.249,210,989.249,198,1001.249,86,1001.249,74,989.249,86,977.249" style="stroke:#181818;stroke-width:0.5;"/><text fill="#000000" font-family="sans-serif" font-size="11" lengthAdjust="spacing" textLength="8" x="146" y="1013.0079">s&#237;</text><text fill="#000000" font-family="sans-serif" font-size="11" lengthAdjust="spacing" textLength="112" x="86" y="993.517">Usuario alcanz&#243; hito?</text><polygon fill="#F1F1F1" points="142,1083.0841,154,1095.0841,142,1107.0841,130,1095.0841,142,1083.0841" style="stroke:#181818;stroke-width:0.5;"/><rect fill="#F1F1F1" height="36.3441" rx="12.5" ry="12.5" style="stroke:#181818;stroke-width:0.5;" width="262" x="11" y="1127.0841"/><text fill="#000000" font-family="sans-serif" font-size="12" lengthAdjust="spacing" textLength="242" x="21" y="1149.9122">Sistema muestra sugerencia personalizada</text><ellipse cx="142" cy="1194.4282" fill="none" rx="11" ry="11" style="stroke:#222222;stroke-width:1.0;"/><ellipse cx="142" cy="1194.4282" fill="#222222" rx="6" ry="6" style="stroke:#222222;stroke-width:1.0;"/><rect fill="#F1F1F1" height="36.3441" rx="12.5" ry="12.5" style="stroke:#181818;stroke-width:0.5;" width="147" x="330" y="849.7853"/><text fill="#000000" font-family="sans-serif" font-size="12" lengthAdjust="spacing" textLength="127" x="340" y="872.6133">Sistema muestra error</text><rect fill="#F1F1F1" height="36.3441" rx="12.5" ry="12.5" style="stroke:#181818;stroke-width:0.5;" width="208" x="299.5" y="920.9049"/><text fill="#000000" font-family="sans-serif" font-size="12" lengthAdjust="spacing" textLength="188" x="309.5" y="943.733">Sistema solicita intentar de nuevo</text><polygon fill="#F1F1F1" points="272.75,759.4411,284.75,771.4411,272.75,783.4411,260.75,771.4411,272.75,759.4411" style="stroke:#181818;stroke-width:0.5;"/><polygon fill="#F1F1F1" points="182.75,1225.4282,362.75,1225.4282,374.75,1237.4282,362.75,1249.4282,182.75,1249.4282,170.75,1237.4282,182.75,1225.4282" style="stroke:#181818;stroke-width:0.5;"/><text fill="#000000" font-family="sans-serif" font-size="11" lengthAdjust="spacing" textLength="180" x="182.75" y="1241.6962">Usuario quiere intentar de nuevo?</text><text fill="#000000" font-family="sans-serif" font-size="11" lengthAdjust="spacing" textLength="8" x="374.75" y="1234.2052">s&#237;</text><ellipse cx="272.75" cy="1304.6331" fill="none" rx="11" ry="11" style="stroke:#222222;stroke-width:1.0;"/><ellipse cx="272.75" cy="1304.6331" fill="#222222" rx="6" ry="6" style="stroke:#222222;stroke-width:1.0;"/><rect fill="#F1F1F1" height="36.3441" rx="12.5" ry="12.5" style="stroke:#181818;stroke-width:0.5;" width="147" x="576.5" y="703.097"/><text fill="#000000" font-family="sans-serif" font-size="12" lengthAdjust="spacing" textLength="127" x="586.5" y="725.9251">Sistema muestra error</text><rect fill="#F1F1F1" height="36.3441" rx="12.5" ry="12.5" style="stroke:#181818;stroke-width:0.5;" width="177" x="561.5" y="759.4411"/><text fill="#000000" font-family="sans-serif" font-size="12" lengthAdjust="spacing" textLength="157" x="571.5" y="782.2692">Sistema solicita fecha v&#225;lida</text><polygon fill="#F1F1F1" points="461.375,556.4088,473.375,568.4088,461.375,580.4088,449.375,568.4088,461.375,556.4088" style="stroke:#181818;stroke-width:0.5;"/><polygon fill="#F1F1F1" points="371.375,1335.6331,551.375,1335.6331,563.375,1347.6331,551.375,1359.6331,371.375,1359.6331,359.375,1347.6331,371.375,1335.6331" style="stroke:#181818;stroke-width:0.5;"/><text fill="#000000" font-family="sans-serif" font-size="11" lengthAdjust="spacing" textLength="180" x="371.375" y="1351.901">Usuario quiere intentar de nuevo?</text><text fill="#000000" font-family="sans-serif" font-size="11" lengthAdjust="spacing" textLength="8" x="563.375" y="1344.4101">s&#237;</text><ellipse cx="461.375" cy="1414.8379" fill="none" rx="11" ry="11" style="stroke:#222222;stroke-width:1.0;"/><ellipse cx="461.375" cy="1414.8379" fill="#222222" rx="6" ry="6" style="stroke:#222222;stroke-width:1.0;"/><rect fill="#F1F1F1" height="36.3441" rx="12.5" ry="12.5" style="stroke:#181818;stroke-width:0.5;" width="147" x="806" y="500.0647"/><text fill="#000000" font-family="sans-serif" font-size="12" lengthAdjust="spacing" textLength="127" x="816" y="522.8928">Sistema muestra error</text><rect fill="#F1F1F1" height="36.3441" rx="12.5" ry="12.5" style="stroke:#181818;stroke-width:0.5;" width="174" x="792.5" y="556.4088"/><text fill="#000000" font-family="sans-serif" font-size="12" lengthAdjust="spacing" textLength="154" x="802.5" y="579.2369">Sistema solicita valor v&#225;lido</text><polygon fill="#F1F1F1" points="670.4375,353.3765,682.4375,365.3765,670.4375,377.3765,658.4375,365.3765,670.4375,353.3765" style="stroke:#181818;stroke-width:0.5;"/><polygon fill="#F1F1F1" points="580.4375,1445.8379,760.4375,1445.8379,772.4375,1457.8379,760.4375,1469.8379,580.4375,1469.8379,568.4375,1457.8379,580.4375,1445.8379" style="stroke:#181818;stroke-width:0.5;"/><text fill="#000000" font-family="sans-serif" font-size="11" lengthAdjust="spacing" textLength="180" x="580.4375" y="1462.1059">Usuario quiere intentar de nuevo?</text><text fill="#000000" font-family="sans-serif" font-size="11" lengthAdjust="spacing" textLength="8" x="772.4375" y="1454.615">s&#237;</text><ellipse cx="670.4375" cy="1525.0428" fill="none" rx="11" ry="11" style="stroke:#222222;stroke-width:1.0;"/><ellipse cx="670.4375" cy="1525.0428" fill="#222222" rx="6" ry="6" style="stroke:#222222;stroke-width:1.0;"/><rect fill="#F1F1F1" height="36.3441" rx="12.5" ry="12.5" style="stroke:#181818;stroke-width:0.5;" width="147" x="1046.5" y="297.0323"/><text fill="#000000" font-family="sans-serif" font-size="12" lengthAdjust="spacing" textLength="127" x="1056.5" y="319.8604">Sistema muestra error</text><rect fill="#F1F1F1" height="36.3441" rx="12.5" ry="12.5" style="stroke:#181818;stroke-width:0.5;" width="199" x="1020.5" y="353.3765"/><text fill="#000000" font-family="sans-serif" font-size="12" lengthAdjust="spacing" textLength="179" x="1030.5" y="376.2045">Sistema solicita categor&#237;a v&#225;lida</text><polygon fill="#F1F1F1" points="895.2188,162.6882,907.2188,174.6882,895.2188,186.6882,883.2188,174.6882,895.2188,162.6882" style="stroke:#181818;stroke-width:0.5;"/><polygon fill="#F1F1F1" points="805.2188,1556.0428,985.2188,1556.0428,997.2188,1568.0428,985.2188,1580.0428,805.2188,1580.0428,793.2188,1568.0428,805.2188,1556.0428" style="stroke:#181818;stroke-width:0.5;"/><text fill="#000000" font-family="sans-serif" font-size="11" lengthAdjust="spacing" textLength="180" x="805.2188" y="1572.3108">Usuario quiere intentar de nuevo?</text><text fill="#000000" font-family="sans-serif" font-size="11" lengthAdjust="spacing" textLength="8" x="997.2188" y="1564.8198">s&#237;</text><ellipse cx="895.2188" cy="1635.2477" fill="none" rx="11" ry="11" style="stroke:#222222;stroke-width:1.0;"/><ellipse cx="895.2188" cy="1635.2477" fill="#222222" rx="6" ry="6" style="stroke:#222222;stroke-width:1.0;"/><line style="stroke:#181818;stroke-width:1.0;" x1="895.2188" x2="895.2188" y1="30" y2="50"/><polygon fill="#181818" points="891.2188,40,895.2188,50,899.2188,40,895.2188,44" style="stroke:#181818;stroke-width:1.0;"/><line style="stroke:#181818;stroke-width:1.0;" x1="895.2188" x2="895.2188" y1="86.3441" y2="106.3441"/><polygon fill="#181818" points="891.2188,96.3441,895.2188,106.3441,899.2188,96.3441,895.2188,100.3441" style="stroke:#181818;stroke-width:1.0;"/><line style="stroke:#181818;stroke-width:1.0;" x1="142" x2="142" y1="886.1294" y2="920.9049"/><polygon fill="#181818" points="138,910.9049,142,920.9049,146,910.9049,142,914.9049" style="stroke:#181818;stroke-width:1.0;"/><line style="stroke:#181818;stroke-width:1.0;" x1="142" x2="142" y1="1001.249" y2="1026.74"/><polygon fill="#181818" points="138,1016.74,142,1026.74,146,1016.74,142,1020.74" style="stroke:#181818;stroke-width:1.0;"/><line style="stroke:#181818;stroke-width:1.0;" x1="210" x2="267.5" y1="989.249" y2="989.249"/><polygon fill="#181818" points="263.5,1034.912,267.5,1044.912,271.5,1034.912,267.5,1038.912" style="stroke:#181818;stroke-width:1.0;"/><line style="stroke:#181818;stroke-width:1.0;" x1="267.5" x2="267.5" y1="989.249" y2="1095.0841"/><line style="stroke:#181818;stroke-width:1.0;" x1="267.5" x2="154" y1="1095.0841" y2="1095.0841"/><polygon fill="#181818" points="164,1091.0841,154,1095.0841,164,1099.0841,160,1095.0841" style="stroke:#181818;stroke-width:1.0;"/><line style="stroke:#181818;stroke-width:1.0;" x1="142" x2="142" y1="1063.0841" y2="1083.0841"/><polygon fill="#181818" points="138,1073.0841,142,1083.0841,146,1073.0841,142,1077.0841" style="stroke:#181818;stroke-width:1.0;"/><line style="stroke:#181818;stroke-width:1.0;" x1="142" x2="142" y1="957.249" y2="977.249"/><polygon fill="#181818" points="138,967.249,142,977.249,146,967.249,142,971.249" style="stroke:#181818;stroke-width:1.0;"/><line style="stroke:#181818;stroke-width:1.0;" x1="142" x2="142" y1="1107.0841" y2="1127.0841"/><polygon fill="#181818" points="138,1117.0841,142,1127.0841,146,1117.0841,142,1121.0841" style="stroke:#181818;stroke-width:1.0;"/><line style="stroke:#181818;stroke-width:1.0;" x1="142" x2="142" y1="1163.4282" y2="1183.4282"/><polygon fill="#181818" points="138,1173.4282,142,1183.4282,146,1173.4282,142,1177.4282" style="stroke:#181818;stroke-width:1.0;"/><line style="stroke:#181818;stroke-width:1.0;" x1="403.5" x2="403.5" y1="886.1294" y2="920.9049"/><polygon fill="#181818" points="399.5,910.9049,403.5,920.9049,407.5,910.9049,403.5,914.9049" style="stroke:#181818;stroke-width:1.0;"/><line style="stroke:#181818;stroke-width:1.0;" x1="218.75" x2="142" y1="827.7853" y2="827.7853"/><line style="stroke:#181818;stroke-width:1.0;" x1="142" x2="142" y1="827.7853" y2="849.7853"/><polygon fill="#181818" points="138,839.7853,142,849.7853,146,839.7853,142,843.7853" style="stroke:#181818;stroke-width:1.0;"/><line style="stroke:#181818;stroke-width:1.0;" x1="326.75" x2="403.5" y1="827.7853" y2="827.7853"/><line style="stroke:#181818;stroke-width:1.0;" x1="403.5" x2="403.5" y1="827.7853" y2="849.7853"/><polygon fill="#181818" points="399.5,839.7853,403.5,849.7853,407.5,839.7853,403.5,843.7853" style="stroke:#181818;stroke-width:1.0;"/><line style="stroke:#181818;stroke-width:1.0;" x1="403.5" x2="403.5" y1="957.249" y2="1210.4282"/><line style="stroke:#181818;stroke-width:1.0;" x1="403.5" x2="272.75" y1="1210.4282" y2="1210.4282"/><line style="stroke:#181818;stroke-width:1.0;" x1="272.75" x2="272.75" y1="1210.4282" y2="1225.4282"/><polygon fill="#181818" points="268.75,1215.4282,272.75,1225.4282,276.75,1215.4282,272.75,1219.4282" style="stroke:#181818;stroke-width:1.0;"/><line style="stroke:#181818;stroke-width:1.0;" x1="272.75" x2="272.75" y1="783.4411" y2="815.7853"/><polygon fill="#181818" points="268.75,805.7853,272.75,815.7853,276.75,805.7853,272.75,809.7853" style="stroke:#181818;stroke-width:1.0;"/><line style="stroke:#181818;stroke-width:1.0;" x1="374.75" x2="529.5" y1="1237.4282" y2="1237.4282"/><polygon fill="#181818" points="525.5,1033.74,529.5,1023.74,533.5,1033.74,529.5,1029.74" style="stroke:#181818;stroke-width:1.0;"/><line style="stroke:#181818;stroke-width:1.0;" x1="529.5" x2="529.5" y1="771.4411" y2="1237.4282"/><line style="stroke:#181818;stroke-width:1.0;" x1="529.5" x2="284.75" y1="771.4411" y2="771.4411"/><polygon fill="#181818" points="294.75,767.4411,284.75,771.4411,294.75,775.4411,290.75,771.4411" style="stroke:#181818;stroke-width:1.0;"/><line style="stroke:#181818;stroke-width:1.0;" x1="272.75" x2="272.75" y1="739.4411" y2="759.4411"/><polygon fill="#181818" points="268.75,749.4411,272.75,759.4411,276.75,749.4411,272.75,753.4411" style="stroke:#181818;stroke-width:1.0;"/><line style="stroke:#181818;stroke-width:1.0;" x1="272.75" x2="272.75" y1="1249.4282" y2="1293.6331"/><polygon fill="#181818" points="268.75,1283.6331,272.75,1293.6331,276.75,1283.6331,272.75,1287.6331" style="stroke:#181818;stroke-width:1.0;"/><text fill="#000000" font-family="sans-serif" font-size="11" lengthAdjust="spacing" textLength="14" x="276.75" y="1272.9101">no</text><line style="stroke:#181818;stroke-width:1.0;" x1="650" x2="650" y1="739.4411" y2="759.4411"/><polygon fill="#181818" points="646,749.4411,650,759.4411,654,749.4411,650,753.4411" style="stroke:#181818;stroke-width:1.0;"/><line style="stroke:#181818;stroke-width:1.0;" x1="414.875" x2="272.75" y1="681.097" y2="681.097"/><line style="stroke:#181818;stroke-width:1.0;" x1="272.75" x2="272.75" y1="681.097" y2="703.097"/><polygon fill="#181818" points="268.75,693.097,272.75,703.097,276.75,693.097,272.75,697.097" style="stroke:#181818;stroke-width:1.0;"/><line style="stroke:#181818;stroke-width:1.0;" x1="507.875" x2="650" y1="681.097" y2="681.097"/><line style="stroke:#181818;stroke-width:1.0;" x1="650" x2="650" y1="681.097" y2="703.097"/><polygon fill="#181818" points="646,693.097,650,703.097,654,693.097,650,697.097" style="stroke:#181818;stroke-width:1.0;"/><line style="stroke:#181818;stroke-width:1.0;" x1="650" x2="650" y1="795.7853" y2="1320.6331"/><line style="stroke:#181818;stroke-width:1.0;" x1="650" x2="461.375" y1="1320.6331" y2="1320.6331"/><line style="stroke:#181818;stroke-width:1.0;" x1="461.375" x2="461.375" y1="1320.6331" y2="1335.6331"/><polygon fill="#181818" points="457.375,1325.6331,461.375,1335.6331,465.375,1325.6331,461.375,1329.6331" style="stroke:#181818;stroke-width:1.0;"/><line style="stroke:#181818;stroke-width:1.0;" x1="461.375" x2="461.375" y1="649.097" y2="669.097"/><polygon fill="#181818" points="457.375,659.097,461.375,669.097,465.375,659.097,461.375,663.097" style="stroke:#181818;stroke-width:1.0;"/><line style="stroke:#181818;stroke-width:1.0;" x1="461.375" x2="461.375" y1="580.4088" y2="612.7529"/><polygon fill="#181818" points="457.375,602.7529,461.375,612.7529,465.375,602.7529,461.375,606.7529" style="stroke:#181818;stroke-width:1.0;"/><line style="stroke:#181818;stroke-width:1.0;" x1="563.375" x2="760.5" y1="1347.6331" y2="1347.6331"/><polygon fill="#181818" points="756.5,984.3868,760.5,974.3868,764.5,984.3868,760.5,980.3868" style="stroke:#181818;stroke-width:1.0;"/><line style="stroke:#181818;stroke-width:1.0;" x1="760.5" x2="760.5" y1="568.4088" y2="1347.6331"/><line style="stroke:#181818;stroke-width:1.0;" x1="760.5" x2="473.375" y1="568.4088" y2="568.4088"/><polygon fill="#181818" points="483.375,564.4088,473.375,568.4088,483.375,572.4088,479.375,568.4088" style="stroke:#181818;stroke-width:1.0;"/><line style="stroke:#181818;stroke-width:1.0;" x1="461.375" x2="461.375" y1="536.4088" y2="556.4088"/><polygon fill="#181818" points="457.375,546.4088,461.375,556.4088,465.375,546.4088,461.375,550.4088" style="stroke:#181818;stroke-width:1.0;"/><line style="stroke:#181818;stroke-width:1.0;" x1="461.375" x2="461.375" y1="1359.6331" y2="1403.8379"/><polygon fill="#181818" points="457.375,1393.8379,461.375,1403.8379,465.375,1393.8379,461.375,1397.8379" style="stroke:#181818;stroke-width:1.0;"/><text fill="#000000" font-family="sans-serif" font-size="11" lengthAdjust="spacing" textLength="14" x="465.375" y="1383.115">no</text><line style="stroke:#181818;stroke-width:1.0;" x1="879.5" x2="879.5" y1="536.4088" y2="556.4088"/><polygon fill="#181818" points="875.5,546.4088,879.5,556.4088,883.5,546.4088,879.5,550.4088" style="stroke:#181818;stroke-width:1.0;"/><line style="stroke:#181818;stroke-width:1.0;" x1="624.4375" x2="461.375" y1="478.0647" y2="478.0647"/><line style="stroke:#181818;stroke-width:1.0;" x1="461.375" x2="461.375" y1="478.0647" y2="500.0647"/><polygon fill="#181818" points="457.375,490.0647,461.375,500.0647,465.375,490.0647,461.375,494.0647" style="stroke:#181818;stroke-width:1.0;"/><line style="stroke:#181818;stroke-width:1.0;" x1="716.4375" x2="879.5" y1="478.0647" y2="478.0647"/><line style="stroke:#181818;stroke-width:1.0;" x1="879.5" x2="879.5" y1="478.0647" y2="500.0647"/><polygon fill="#181818" points="875.5,490.0647,879.5,500.0647,883.5,490.0647,879.5,494.0647" style="stroke:#181818;stroke-width:1.0;"/><line style="stroke:#181818;stroke-width:1.0;" x1="879.5" x2="879.5" y1="592.7529" y2="1430.8379"/><line style="stroke:#181818;stroke-width:1.0;" x1="879.5" x2="670.4375" y1="1430.8379" y2="1430.8379"/><line style="stroke:#181818;stroke-width:1.0;" x1="670.4375" x2="670.4375" y1="1430.8379" y2="1445.8379"/><polygon fill="#181818" points="666.4375,1435.8379,670.4375,1445.8379,674.4375,1435.8379,670.4375,1439.8379" style="stroke:#181818;stroke-width:1.0;"/><line style="stroke:#181818;stroke-width:1.0;" x1="670.4375" x2="670.4375" y1="446.0647" y2="466.0647"/><polygon fill="#181818" points="666.4375,456.0647,670.4375,466.0647,674.4375,456.0647,670.4375,460.0647" style="stroke:#181818;stroke-width:1.0;"/><line style="stroke:#181818;stroke-width:1.0;" x1="670.4375" x2="670.4375" y1="377.3765" y2="409.7206"/><polygon fill="#181818" points="666.4375,399.7206,670.4375,409.7206,674.4375,399.7206,670.4375,403.7206" style="stroke:#181818;stroke-width:1.0;"/><line style="stroke:#181818;stroke-width:1.0;" x1="772.4375" x2="988.5" y1="1457.8379" y2="1457.8379"/><polygon fill="#181818" points="984.5,950.0336,988.5,940.0336,992.5,950.0336,988.5,946.0336" style="stroke:#181818;stroke-width:1.0;"/><line style="stroke:#181818;stroke-width:1.0;" x1="988.5" x2="988.5" y1="365.3765" y2="1457.8379"/><line style="stroke:#181818;stroke-width:1.0;" x1="988.5" x2="682.4375" y1="365.3765" y2="365.3765"/><polygon fill="#181818" points="692.4375,361.3765,682.4375,365.3765,692.4375,369.3765,688.4375,365.3765" style="stroke:#181818;stroke-width:1.0;"/><line style="stroke:#181818;stroke-width:1.0;" x1="670.4375" x2="670.4375" y1="333.3765" y2="353.3765"/><polygon fill="#181818" points="666.4375,343.3765,670.4375,353.3765,674.4375,343.3765,670.4375,347.3765" style="stroke:#181818;stroke-width:1.0;"/><line style="stroke:#181818;stroke-width:1.0;" x1="670.4375" x2="670.4375" y1="1469.8379" y2="1514.0428"/><polygon fill="#181818" points="666.4375,1504.0428,670.4375,1514.0428,674.4375,1504.0428,670.4375,1508.0428" style="stroke:#181818;stroke-width:1.0;"/><text fill="#000000" font-family="sans-serif" font-size="11" lengthAdjust="spacing" textLength="14" x="674.4375" y="1493.3198">no</text><line style="stroke:#181818;stroke-width:1.0;" x1="1120" x2="1120" y1="333.3765" y2="353.3765"/><polygon fill="#181818" points="1116,343.3765,1120,353.3765,1124,343.3765,1120,347.3765" style="stroke:#181818;stroke-width:1.0;"/><line style="stroke:#181818;stroke-width:1.0;" x1="838.2188" x2="670.4375" y1="275.0323" y2="275.0323"/><line style="stroke:#181818;stroke-width:1.0;" x1="670.4375" x2="670.4375" y1="275.0323" y2="297.0323"/><polygon fill="#181818" points="666.4375,287.0323,670.4375,297.0323,674.4375,287.0323,670.4375,291.0323" style="stroke:#181818;stroke-width:1.0;"/><line style="stroke:#181818;stroke-width:1.0;" x1="952.2188" x2="1120" y1="275.0323" y2="275.0323"/><line style="stroke:#181818;stroke-width:1.0;" x1="1120" x2="1120" y1="275.0323" y2="297.0323"/><polygon fill="#181818" points="1116,287.0323,1120,297.0323,1124,287.0323,1120,291.0323" style="stroke:#181818;stroke-width:1.0;"/><line style="stroke:#181818;stroke-width:1.0;" x1="1120" x2="1120" y1="389.7206" y2="1541.0428"/><line style="stroke:#181818;stroke-width:1.0;" x1="1120" x2="895.2188" y1="1541.0428" y2="1541.0428"/><line style="stroke:#181818;stroke-width:1.0;" x1="895.2188" x2="895.2188" y1="1541.0428" y2="1556.0428"/><polygon fill="#181818" points="891.2188,1546.0428,895.2188,1556.0428,899.2188,1546.0428,895.2188,1550.0428" style="stroke:#181818;stroke-width:1.0;"/><line style="stroke:#181818;stroke-width:1.0;" x1="895.2188" x2="895.2188" y1="243.0323" y2="263.0323"/><polygon fill="#181818" points="891.2188,253.0323,895.2188,263.0323,899.2188,253.0323,895.2188,257.0323" style="stroke:#181818;stroke-width:1.0;"/><line style="stroke:#181818;stroke-width:1.0;" x1="895.2188" x2="895.2188" y1="186.6882" y2="206.6882"/><polygon fill="#181818" points="891.2188,196.6882,895.2188,206.6882,899.2188,196.6882,895.2188,200.6882" style="stroke:#181818;stroke-width:1.0;"/><line style="stroke:#181818;stroke-width:1.0;" x1="997.2188" x2="1233.5" y1="1568.0428" y2="1568.0428"/><polygon fill="#181818" points="1229.5,900.9049,1233.5,890.9049,1237.5,900.9049,1233.5,896.9049" style="stroke:#181818;stroke-width:1.0;"/><line style="stroke:#181818;stroke-width:1.0;" x1="1233.5" x2="1233.5" y1="174.6882" y2="1568.0428"/><line style="stroke:#181818;stroke-width:1.0;" x1="1233.5" x2="907.2188" y1="174.6882" y2="174.6882"/><polygon fill="#181818" points="917.2188,170.6882,907.2188,174.6882,917.2188,178.6882,913.2188,174.6882" style="stroke:#181818;stroke-width:1.0;"/><line style="stroke:#181818;stroke-width:1.0;" x1="895.2188" x2="895.2188" y1="142.6882" y2="162.6882"/><polygon fill="#181818" points="891.2188,152.6882,895.2188,162.6882,899.2188,152.6882,895.2188,156.6882" style="stroke:#181818;stroke-width:1.0;"/><line style="stroke:#181818;stroke-width:1.0;" x1="895.2188" x2="895.2188" y1="1580.0428" y2="1624.2477"/><polygon fill="#181818" points="891.2188,1614.2477,895.2188,1624.2477,899.2188,1614.2477,895.2188,1618.2477" style="stroke:#181818;stroke-width:1.0;"/><text fill="#000000" font-family="sans-serif" font-size="11" lengthAdjust="spacing" textLength="14" x="899.2188" y="1603.5247">no</text><!--SRC=[fPH1Rgim48Rtd6AMwQ8NAD9xYqgzGDNkfsO28xbswh7Jfzpc7I2h7e6BrIP0Y251QbcmmFFF__rZRF7eVF7m8W4TMn2hMR57S5IpU8SEJA0z0YhFUwwmAek7vxX2xmZlWL89AFHKMzSUKQ1YsLd3RvgaB0f7Eq9V08m6R6f7CjMKSPcti7aSly2-_Q-Zrzyxy0qPs4Xxl2jYMUmpU8-WUzJMGKLJmgvqzEvqkNydA_lLPF_QzJavsmNd9UyjgGQNl3Ft1VzEMexhYU2fwtOzUzPff51HeOAs2QG9f3MMKq56ChWz3YhwnzvA5XakdjcEnmX1UwoIfnu1oZLPV6FL7iMpYhzA75f0pGUiK79f8Xo2ebPe3kqND17q5kQ2ex6Ujz5DSVjbqe2qhTqCb4p5spLu2JKvCeeHTkJ4cfuzRoRUxYu-aHQ2ZR6hKoNdpl_ah6hSRpQUJ3osAKuwd5cSFCnf_-6pOKtdeNu4ZcdclU9yMMRJlVyJ9pcrwK8MjnAkfxjsdleJS2wT9lfjceiaqnJp36i9hjr5_Hqo59xfVyS-8Jzn9_9Bwbl4Srerkt1JvGdtvwWzve0Odsy0]--></g></svg>