<?xml version="1.0" encoding="us-ascii" standalone="no"?><svg xmlns="http://www.w3.org/2000/svg" xmlns:xlink="http://www.w3.org/1999/xlink" contentStyleType="text/css" height="2045px" preserveAspectRatio="none" style="width:547px;height:2045px;background:#FFFFFF;" version="1.1" viewBox="0 0 547 2045" width="547px" zoomAndPan="magnify"><defs/><g><ellipse cx="272.75" cy="20" fill="#222222" rx="10" ry="10" style="stroke:#222222;stroke-width:1.0;"/><rect fill="#F1F1F1" height="36.3441" rx="12.5" ry="12.5" style="stroke:#181818;stroke-width:0.5;" width="248" x="148.75" y="50"/><text fill="#000000" font-family="sans-serif" font-size="12" lengthAdjust="spacing" textLength="228" x="158.75" y="72.8281">Usuario solicita registrar nueva actividad</text><rect fill="#F1F1F1" height="36.3441" rx="12.5" ry="12.5" style="stroke:#181818;stroke-width:0.5;" width="243" x="151.25" y="106.3441"/><text fill="#000000" font-family="sans-serif" font-size="12" lengthAdjust="spacing" textLength="223" x="161.25" y="129.1722">Sistema muestra categor&#237;as disponibles</text><rect fill="#F1F1F1" height="36.3441" rx="12.5" ry="12.5" style="stroke:#181818;stroke-width:0.5;" width="165" x="190.25" y="206.6882"/><text fill="#000000" font-family="sans-serif" font-size="12" lengthAdjust="spacing" textLength="145" x="200.25" y="229.5163">Usuario ingresa categor&#237;a</text><polygon fill="#F1F1F1" points="227.75,263.0323,317.75,263.0323,329.75,275.0323,317.75,287.0323,227.75,287.0323,215.75,275.0323,227.75,263.0323" style="stroke:#181818;stroke-width:0.5;"/><text fill="#000000" font-family="sans-serif" font-size="11" lengthAdjust="spacing" textLength="90" x="227.75" y="279.3003">Categor&#237;a v&#225;lida?</text><text fill="#000000" font-family="sans-serif" font-size="11" lengthAdjust="spacing" textLength="8" x="207.75" y="271.8094">s&#237;</text><text fill="#000000" font-family="sans-serif" font-size="11" lengthAdjust="spacing" textLength="14" x="329.75" y="271.8094">no</text><rect fill="#F1F1F1" height="36.3441" rx="12.5" ry="12.5" style="stroke:#181818;stroke-width:0.5;" width="147" x="266.5" y="297.0323"/><text fill="#000000" font-family="sans-serif" font-size="12" lengthAdjust="spacing" textLength="127" x="276.5" y="319.8604">Sistema muestra error</text><rect fill="#F1F1F1" height="36.3441" rx="12.5" ry="12.5" style="stroke:#181818;stroke-width:0.5;" width="199" x="240.5" y="353.3765"/><text fill="#000000" font-family="sans-serif" font-size="12" lengthAdjust="spacing" textLength="179" x="250.5" y="376.2045">Sistema solicita categor&#237;a v&#225;lida</text><polygon fill="#F1F1F1" points="272.75,162.6882,284.75,174.6882,272.75,186.6882,260.75,174.6882,272.75,162.6882" style="stroke:#181818;stroke-width:0.5;"/><polygon fill="#F1F1F1" points="182.75,409.7206,362.75,409.7206,374.75,421.7206,362.75,433.7206,182.75,433.7206,170.75,421.7206,182.75,409.7206" style="stroke:#181818;stroke-width:0.5;"/><text fill="#000000" font-family="sans-serif" font-size="11" lengthAdjust="spacing" textLength="180" x="182.75" y="425.9885">Usuario quiere intentar de nuevo?</text><text fill="#000000" font-family="sans-serif" font-size="11" lengthAdjust="spacing" textLength="8" x="374.75" y="418.4976">s&#237;</text><polygon fill="#F1F1F1" points="272.75,453.7206,284.75,465.7206,272.75,477.7206,260.75,465.7206,272.75,453.7206" style="stroke:#181818;stroke-width:0.5;"/><ellipse cx="272.75" cy="532.9254" fill="none" rx="11" ry="11" style="stroke:#222222;stroke-width:1.0;"/><ellipse cx="272.75" cy="532.9254" fill="#222222" rx="6" ry="6" style="stroke:#222222;stroke-width:1.0;"/><rect fill="#F1F1F1" height="36.3441" rx="12.5" ry="12.5" style="stroke:#181818;stroke-width:0.5;" width="208" x="168.75" y="553.9254"/><text fill="#000000" font-family="sans-serif" font-size="12" lengthAdjust="spacing" textLength="188" x="178.75" y="576.7535">Sistema solicita valor de actividad</text><rect fill="#F1F1F1" height="36.3441" rx="12.5" ry="12.5" style="stroke:#181818;stroke-width:0.5;" width="140" x="202.75" y="654.2695"/><text fill="#000000" font-family="sans-serif" font-size="12" lengthAdjust="spacing" textLength="120" x="212.75" y="677.0976">Usuario ingresa valor</text><polygon fill="#F1F1F1" points="238.75,710.6137,306.75,710.6137,318.75,722.6137,306.75,734.6137,238.75,734.6137,226.75,722.6137,238.75,710.6137" style="stroke:#181818;stroke-width:0.5;"/><text fill="#000000" font-family="sans-serif" font-size="11" lengthAdjust="spacing" textLength="68" x="238.75" y="726.8816">Valor v&#225;lido?</text><text fill="#000000" font-family="sans-serif" font-size="11" lengthAdjust="spacing" textLength="8" x="218.75" y="719.3907">s&#237;</text><text fill="#000000" font-family="sans-serif" font-size="11" lengthAdjust="spacing" textLength="14" x="318.75" y="719.3907">no</text><rect fill="#F1F1F1" height="36.3441" rx="12.5" ry="12.5" style="stroke:#181818;stroke-width:0.5;" width="147" x="260.25" y="744.6137"/><text fill="#000000" font-family="sans-serif" font-size="12" lengthAdjust="spacing" textLength="127" x="270.25" y="767.4418">Sistema muestra error</text><rect fill="#F1F1F1" height="36.3441" rx="12.5" ry="12.5" style="stroke:#181818;stroke-width:0.5;" width="174" x="246.75" y="800.9578"/><text fill="#000000" font-family="sans-serif" font-size="12" lengthAdjust="spacing" textLength="154" x="256.75" y="823.7859">Sistema solicita valor v&#225;lido</text><polygon fill="#F1F1F1" points="272.75,610.2695,284.75,622.2695,272.75,634.2695,260.75,622.2695,272.75,610.2695" style="stroke:#181818;stroke-width:0.5;"/><polygon fill="#F1F1F1" points="182.75,857.3019,362.75,857.3019,374.75,869.3019,362.75,881.3019,182.75,881.3019,170.75,869.3019,182.75,857.3019" style="stroke:#181818;stroke-width:0.5;"/><text fill="#000000" font-family="sans-serif" font-size="11" lengthAdjust="spacing" textLength="180" x="182.75" y="873.5699">Usuario quiere intentar de nuevo?</text><text fill="#000000" font-family="sans-serif" font-size="11" lengthAdjust="spacing" textLength="8" x="374.75" y="866.0789">s&#237;</text><polygon fill="#F1F1F1" points="272.75,901.3019,284.75,913.3019,272.75,925.3019,260.75,913.3019,272.75,901.3019" style="stroke:#181818;stroke-width:0.5;"/><ellipse cx="272.75" cy="980.5068" fill="none" rx="11" ry="11" style="stroke:#222222;stroke-width:1.0;"/><ellipse cx="272.75" cy="980.5068" fill="#222222" rx="6" ry="6" style="stroke:#222222;stroke-width:1.0;"/><rect fill="#F1F1F1" height="36.3441" rx="12.5" ry="12.5" style="stroke:#181818;stroke-width:0.5;" width="211" x="167.25" y="1001.5068"/><text fill="#000000" font-family="sans-serif" font-size="12" lengthAdjust="spacing" textLength="191" x="177.25" y="1024.3348">Sistema solicita fecha de actividad</text><rect fill="#F1F1F1" height="36.3441" rx="12.5" ry="12.5" style="stroke:#181818;stroke-width:0.5;" width="143" x="201.25" y="1101.8509"/><text fill="#000000" font-family="sans-serif" font-size="12" lengthAdjust="spacing" textLength="123" x="211.25" y="1124.679">Usuario ingresa fecha</text><polygon fill="#F1F1F1" points="238.25,1158.195,307.25,1158.195,319.25,1170.195,307.25,1182.195,238.25,1182.195,226.25,1170.195,238.25,1158.195" style="stroke:#181818;stroke-width:0.5;"/><text fill="#000000" font-family="sans-serif" font-size="11" lengthAdjust="spacing" textLength="69" x="238.25" y="1174.463">Fecha v&#225;lida?</text><text fill="#000000" font-family="sans-serif" font-size="11" lengthAdjust="spacing" textLength="8" x="218.25" y="1166.972">s&#237;</text><text fill="#000000" font-family="sans-serif" font-size="11" lengthAdjust="spacing" textLength="14" x="319.25" y="1166.972">no</text><rect fill="#F1F1F1" height="36.3441" rx="12.5" ry="12.5" style="stroke:#181818;stroke-width:0.5;" width="147" x="261" y="1192.195"/><text fill="#000000" font-family="sans-serif" font-size="12" lengthAdjust="spacing" textLength="127" x="271" y="1215.0231">Sistema muestra error</text><rect fill="#F1F1F1" height="36.3441" rx="12.5" ry="12.5" style="stroke:#181818;stroke-width:0.5;" width="177" x="246" y="1248.5391"/><text fill="#000000" font-family="sans-serif" font-size="12" lengthAdjust="spacing" textLength="157" x="256" y="1271.3672">Sistema solicita fecha v&#225;lida</text><polygon fill="#F1F1F1" points="272.75,1057.8509,284.75,1069.8509,272.75,1081.8509,260.75,1069.8509,272.75,1057.8509" style="stroke:#181818;stroke-width:0.5;"/><polygon fill="#F1F1F1" points="182.75,1304.8832,362.75,1304.8832,374.75,1316.8832,362.75,1328.8832,182.75,1328.8832,170.75,1316.8832,182.75,1304.8832" style="stroke:#181818;stroke-width:0.5;"/><text fill="#000000" font-family="sans-serif" font-size="11" lengthAdjust="spacing" textLength="180" x="182.75" y="1321.1512">Usuario quiere intentar de nuevo?</text><text fill="#000000" font-family="sans-serif" font-size="11" lengthAdjust="spacing" textLength="8" x="374.75" y="1313.6602">s&#237;</text><polygon fill="#F1F1F1" points="272.75,1348.8832,284.75,1360.8832,272.75,1372.8832,260.75,1360.8832,272.75,1348.8832" style="stroke:#181818;stroke-width:0.5;"/><ellipse cx="272.75" cy="1428.0881" fill="none" rx="11" ry="11" style="stroke:#222222;stroke-width:1.0;"/><ellipse cx="272.75" cy="1428.0881" fill="#222222" rx="6" ry="6" style="stroke:#222222;stroke-width:1.0;"/><rect fill="#F1F1F1" height="36.3441" rx="12.5" ry="12.5" style="stroke:#181818;stroke-width:0.5;" width="202" x="171.75" y="1449.0881"/><text fill="#000000" font-family="sans-serif" font-size="12" lengthAdjust="spacing" textLength="182" x="181.75" y="1471.9162">Usuario solicita c&#225;lculo de huella</text><polygon fill="#F1F1F1" points="230.75,1549.4322,314.75,1549.4322,326.75,1561.4322,314.75,1573.4322,230.75,1573.4322,218.75,1561.4322,230.75,1549.4322" style="stroke:#181818;stroke-width:0.5;"/><text fill="#000000" font-family="sans-serif" font-size="11" lengthAdjust="spacing" textLength="84" x="230.75" y="1565.7002">C&#225;lculo exitoso?</text><text fill="#000000" font-family="sans-serif" font-size="11" lengthAdjust="spacing" textLength="8" x="210.75" y="1558.2092">s&#237;</text><text fill="#000000" font-family="sans-serif" font-size="11" lengthAdjust="spacing" textLength="14" x="326.75" y="1558.2092">no</text><rect fill="#F1F1F1" height="36.3441" rx="12.5" ry="12.5" style="stroke:#181818;stroke-width:0.5;" width="233" x="25.5" y="1583.4322"/><text fill="#000000" font-family="sans-serif" font-size="12" lengthAdjust="spacing" textLength="213" x="35.5" y="1606.2603">Sistema muestra resultado del c&#225;lculo</text><rect fill="#F1F1F1" height="36.3441" rx="12.5" ry="12.5" style="stroke:#181818;stroke-width:0.5;" width="257" x="13.5" y="1639.7763"/><text fill="#000000" font-family="sans-serif" font-size="12" lengthAdjust="spacing" textLength="237" x="23.5" y="1662.6044">Sistema muestra estad&#237;sticas actualizadas</text><rect fill="#F1F1F1" height="36.3441" rx="12.5" ry="12.5" style="stroke:#181818;stroke-width:0.5;" width="231" x="26.5" y="1745.6114"/><text fill="#000000" font-family="sans-serif" font-size="12" lengthAdjust="spacing" textLength="211" x="36.5" y="1768.4395">Sistema muestra notificaci&#243;n de logro</text><polygon fill="#F1F1F1" points="86,1696.1204,198,1696.1204,210,1708.1204,198,1720.1204,86,1720.1204,74,1708.1204,86,1696.1204" style="stroke:#181818;stroke-width:0.5;"/><text fill="#000000" font-family="sans-serif" font-size="11" lengthAdjust="spacing" textLength="8" x="146" y="1731.8793">s&#237;</text><text fill="#000000" font-family="sans-serif" font-size="11" lengthAdjust="spacing" textLength="112" x="86" y="1712.3884">Usuario alcanz&#243; hito?</text><polygon fill="#F1F1F1" points="142,1801.9555,154,1813.9555,142,1825.9555,130,1813.9555,142,1801.9555" style="stroke:#181818;stroke-width:0.5;"/><rect fill="#F1F1F1" height="36.3441" rx="12.5" ry="12.5" style="stroke:#181818;stroke-width:0.5;" width="262" x="11" y="1845.9555"/><text fill="#000000" font-family="sans-serif" font-size="12" lengthAdjust="spacing" textLength="242" x="21" y="1868.7836">Sistema muestra sugerencia personalizada</text><ellipse cx="142" cy="1913.2996" fill="none" rx="11" ry="11" style="stroke:#222222;stroke-width:1.0;"/><ellipse cx="142" cy="1913.2996" fill="#222222" rx="6" ry="6" style="stroke:#222222;stroke-width:1.0;"/><rect fill="#F1F1F1" height="36.3441" rx="12.5" ry="12.5" style="stroke:#181818;stroke-width:0.5;" width="147" x="330" y="1583.4322"/><text fill="#000000" font-family="sans-serif" font-size="12" lengthAdjust="spacing" textLength="127" x="340" y="1606.2603">Sistema muestra error</text><rect fill="#F1F1F1" height="36.3441" rx="12.5" ry="12.5" style="stroke:#181818;stroke-width:0.5;" width="208" x="299.5" y="1639.7763"/><text fill="#000000" font-family="sans-serif" font-size="12" lengthAdjust="spacing" textLength="188" x="309.5" y="1662.6044">Sistema solicita intentar de nuevo</text><polygon fill="#F1F1F1" points="272.75,1505.4322,284.75,1517.4322,272.75,1529.4322,260.75,1517.4322,272.75,1505.4322" style="stroke:#181818;stroke-width:0.5;"/><polygon fill="#F1F1F1" points="182.75,1944.2996,362.75,1944.2996,374.75,1956.2996,362.75,1968.2996,182.75,1968.2996,170.75,1956.2996,182.75,1944.2996" style="stroke:#181818;stroke-width:0.5;"/><text fill="#000000" font-family="sans-serif" font-size="11" lengthAdjust="spacing" textLength="180" x="182.75" y="1960.5676">Usuario quiere intentar de nuevo?</text><text fill="#000000" font-family="sans-serif" font-size="11" lengthAdjust="spacing" textLength="8" x="374.75" y="1953.0766">s&#237;</text><ellipse cx="272.75" cy="2023.5045" fill="none" rx="11" ry="11" style="stroke:#222222;stroke-width:1.0;"/><ellipse cx="272.75" cy="2023.5045" fill="#222222" rx="6" ry="6" style="stroke:#222222;stroke-width:1.0;"/><line style="stroke:#181818;stroke-width:1.0;" x1="272.75" x2="272.75" y1="30" y2="50"/><polygon fill="#181818" points="268.75,40,272.75,50,276.75,40,272.75,44" style="stroke:#181818;stroke-width:1.0;"/><line style="stroke:#181818;stroke-width:1.0;" x1="272.75" x2="272.75" y1="86.3441" y2="106.3441"/><polygon fill="#181818" points="268.75,96.3441,272.75,106.3441,276.75,96.3441,272.75,100.3441" style="stroke:#181818;stroke-width:1.0;"/><line style="stroke:#181818;stroke-width:1.0;" x1="340" x2="340" y1="333.3765" y2="353.3765"/><polygon fill="#181818" points="336,343.3765,340,353.3765,344,343.3765,340,347.3765" style="stroke:#181818;stroke-width:1.0;"/><line style="stroke:#181818;stroke-width:1.0;" x1="215.75" x2="205.5" y1="275.0323" y2="275.0323"/><line style="stroke:#181818;stroke-width:1.0;" x1="205.5" x2="205.5" y1="275.0323" y2="465.7206"/><line style="stroke:#181818;stroke-width:1.0;" x1="205.5" x2="260.75" y1="465.7206" y2="465.7206"/><polygon fill="#181818" points="250.75,461.7206,260.75,465.7206,250.75,469.7206,254.75,465.7206" style="stroke:#181818;stroke-width:1.0;"/><line style="stroke:#181818;stroke-width:1.0;" x1="329.75" x2="340" y1="275.0323" y2="275.0323"/><line style="stroke:#181818;stroke-width:1.0;" x1="340" x2="340" y1="275.0323" y2="297.0323"/><polygon fill="#181818" points="336,287.0323,340,297.0323,344,287.0323,340,291.0323" style="stroke:#181818;stroke-width:1.0;"/><line style="stroke:#181818;stroke-width:1.0;" x1="340" x2="340" y1="389.7206" y2="394.7206"/><line style="stroke:#181818;stroke-width:1.0;" x1="340" x2="272.75" y1="394.7206" y2="394.7206"/><line style="stroke:#181818;stroke-width:1.0;" x1="272.75" x2="272.75" y1="394.7206" y2="409.7206"/><polygon fill="#181818" points="268.75,399.7206,272.75,409.7206,276.75,399.7206,272.75,403.7206" style="stroke:#181818;stroke-width:1.0;"/><line style="stroke:#181818;stroke-width:1.0;" x1="272.75" x2="272.75" y1="243.0323" y2="263.0323"/><polygon fill="#181818" points="268.75,253.0323,272.75,263.0323,276.75,253.0323,272.75,257.0323" style="stroke:#181818;stroke-width:1.0;"/><line style="stroke:#181818;stroke-width:1.0;" x1="272.75" x2="272.75" y1="186.6882" y2="206.6882"/><polygon fill="#181818" points="268.75,196.6882,272.75,206.6882,276.75,196.6882,272.75,200.6882" style="stroke:#181818;stroke-width:1.0;"/><line style="stroke:#181818;stroke-width:1.0;" x1="374.75" x2="461.5" y1="421.7206" y2="421.7206"/><polygon fill="#181818" points="457.5,311.2044,461.5,301.2044,465.5,311.2044,461.5,307.2044" style="stroke:#181818;stroke-width:1.0;"/><line style="stroke:#181818;stroke-width:1.0;" x1="461.5" x2="461.5" y1="174.6882" y2="421.7206"/><line style="stroke:#181818;stroke-width:1.0;" x1="461.5" x2="284.75" y1="174.6882" y2="174.6882"/><polygon fill="#181818" points="294.75,170.6882,284.75,174.6882,294.75,178.6882,290.75,174.6882" style="stroke:#181818;stroke-width:1.0;"/><line style="stroke:#181818;stroke-width:1.0;" x1="272.75" x2="272.75" y1="433.7206" y2="453.7206"/><polygon fill="#181818" points="268.75,443.7206,272.75,453.7206,276.75,443.7206,272.75,447.7206" style="stroke:#181818;stroke-width:1.0;"/><line style="stroke:#181818;stroke-width:1.0;" x1="272.75" x2="272.75" y1="142.6882" y2="162.6882"/><polygon fill="#181818" points="268.75,152.6882,272.75,162.6882,276.75,152.6882,272.75,156.6882" style="stroke:#181818;stroke-width:1.0;"/><line style="stroke:#181818;stroke-width:1.0;" x1="272.75" x2="272.75" y1="477.7206" y2="521.9254"/><polygon fill="#181818" points="268.75,511.9254,272.75,521.9254,276.75,511.9254,272.75,515.9254" style="stroke:#181818;stroke-width:1.0;"/><text fill="#000000" font-family="sans-serif" font-size="11" lengthAdjust="spacing" textLength="14" x="276.75" y="501.2025">no</text><line style="stroke:#181818;stroke-width:1.0;" x1="333.75" x2="333.75" y1="780.9578" y2="800.9578"/><polygon fill="#181818" points="329.75,790.9578,333.75,800.9578,337.75,790.9578,333.75,794.9578" style="stroke:#181818;stroke-width:1.0;"/><line style="stroke:#181818;stroke-width:1.0;" x1="226.75" x2="211.75" y1="722.6137" y2="722.6137"/><line style="stroke:#181818;stroke-width:1.0;" x1="211.75" x2="211.75" y1="722.6137" y2="913.3019"/><line style="stroke:#181818;stroke-width:1.0;" x1="211.75" x2="260.75" y1="913.3019" y2="913.3019"/><polygon fill="#181818" points="250.75,909.3019,260.75,913.3019,250.75,917.3019,254.75,913.3019" style="stroke:#181818;stroke-width:1.0;"/><line style="stroke:#181818;stroke-width:1.0;" x1="318.75" x2="333.75" y1="722.6137" y2="722.6137"/><line style="stroke:#181818;stroke-width:1.0;" x1="333.75" x2="333.75" y1="722.6137" y2="744.6137"/><polygon fill="#181818" points="329.75,734.6137,333.75,744.6137,337.75,734.6137,333.75,738.6137" style="stroke:#181818;stroke-width:1.0;"/><line style="stroke:#181818;stroke-width:1.0;" x1="333.75" x2="333.75" y1="837.3019" y2="842.3019"/><line style="stroke:#181818;stroke-width:1.0;" x1="333.75" x2="272.75" y1="842.3019" y2="842.3019"/><line style="stroke:#181818;stroke-width:1.0;" x1="272.75" x2="272.75" y1="842.3019" y2="857.3019"/><polygon fill="#181818" points="268.75,847.3019,272.75,857.3019,276.75,847.3019,272.75,851.3019" style="stroke:#181818;stroke-width:1.0;"/><line style="stroke:#181818;stroke-width:1.0;" x1="272.75" x2="272.75" y1="690.6137" y2="710.6137"/><polygon fill="#181818" points="268.75,700.6137,272.75,710.6137,276.75,700.6137,272.75,704.6137" style="stroke:#181818;stroke-width:1.0;"/><line style="stroke:#181818;stroke-width:1.0;" x1="272.75" x2="272.75" y1="634.2695" y2="654.2695"/><polygon fill="#181818" points="268.75,644.2695,272.75,654.2695,276.75,644.2695,272.75,648.2695" style="stroke:#181818;stroke-width:1.0;"/><line style="stroke:#181818;stroke-width:1.0;" x1="374.75" x2="442.75" y1="869.3019" y2="869.3019"/><polygon fill="#181818" points="438.75,758.7857,442.75,748.7857,446.75,758.7857,442.75,754.7857" style="stroke:#181818;stroke-width:1.0;"/><line style="stroke:#181818;stroke-width:1.0;" x1="442.75" x2="442.75" y1="622.2695" y2="869.3019"/><line style="stroke:#181818;stroke-width:1.0;" x1="442.75" x2="284.75" y1="622.2695" y2="622.2695"/><polygon fill="#181818" points="294.75,618.2695,284.75,622.2695,294.75,626.2695,290.75,622.2695" style="stroke:#181818;stroke-width:1.0;"/><line style="stroke:#181818;stroke-width:1.0;" x1="272.75" x2="272.75" y1="881.3019" y2="901.3019"/><polygon fill="#181818" points="268.75,891.3019,272.75,901.3019,276.75,891.3019,272.75,895.3019" style="stroke:#181818;stroke-width:1.0;"/><line style="stroke:#181818;stroke-width:1.0;" x1="272.75" x2="272.75" y1="590.2695" y2="610.2695"/><polygon fill="#181818" points="268.75,600.2695,272.75,610.2695,276.75,600.2695,272.75,604.2695" style="stroke:#181818;stroke-width:1.0;"/><line style="stroke:#181818;stroke-width:1.0;" x1="272.75" x2="272.75" y1="925.3019" y2="969.5068"/><polygon fill="#181818" points="268.75,959.5068,272.75,969.5068,276.75,959.5068,272.75,963.5068" style="stroke:#181818;stroke-width:1.0;"/><text fill="#000000" font-family="sans-serif" font-size="11" lengthAdjust="spacing" textLength="14" x="276.75" y="948.7838">no</text><line style="stroke:#181818;stroke-width:1.0;" x1="334.5" x2="334.5" y1="1228.5391" y2="1248.5391"/><polygon fill="#181818" points="330.5,1238.5391,334.5,1248.5391,338.5,1238.5391,334.5,1242.5391" style="stroke:#181818;stroke-width:1.0;"/><line style="stroke:#181818;stroke-width:1.0;" x1="226.25" x2="211" y1="1170.195" y2="1170.195"/><line style="stroke:#181818;stroke-width:1.0;" x1="211" x2="211" y1="1170.195" y2="1360.8832"/><line style="stroke:#181818;stroke-width:1.0;" x1="211" x2="260.75" y1="1360.8832" y2="1360.8832"/><polygon fill="#181818" points="250.75,1356.8832,260.75,1360.8832,250.75,1364.8832,254.75,1360.8832" style="stroke:#181818;stroke-width:1.0;"/><line style="stroke:#181818;stroke-width:1.0;" x1="319.25" x2="334.5" y1="1170.195" y2="1170.195"/><line style="stroke:#181818;stroke-width:1.0;" x1="334.5" x2="334.5" y1="1170.195" y2="1192.195"/><polygon fill="#181818" points="330.5,1182.195,334.5,1192.195,338.5,1182.195,334.5,1186.195" style="stroke:#181818;stroke-width:1.0;"/><line style="stroke:#181818;stroke-width:1.0;" x1="334.5" x2="334.5" y1="1284.8832" y2="1289.8832"/><line style="stroke:#181818;stroke-width:1.0;" x1="334.5" x2="272.75" y1="1289.8832" y2="1289.8832"/><line style="stroke:#181818;stroke-width:1.0;" x1="272.75" x2="272.75" y1="1289.8832" y2="1304.8832"/><polygon fill="#181818" points="268.75,1294.8832,272.75,1304.8832,276.75,1294.8832,272.75,1298.8832" style="stroke:#181818;stroke-width:1.0;"/><line style="stroke:#181818;stroke-width:1.0;" x1="272.75" x2="272.75" y1="1138.195" y2="1158.195"/><polygon fill="#181818" points="268.75,1148.195,272.75,1158.195,276.75,1148.195,272.75,1152.195" style="stroke:#181818;stroke-width:1.0;"/><line style="stroke:#181818;stroke-width:1.0;" x1="272.75" x2="272.75" y1="1081.8509" y2="1101.8509"/><polygon fill="#181818" points="268.75,1091.8509,272.75,1101.8509,276.75,1091.8509,272.75,1095.8509" style="stroke:#181818;stroke-width:1.0;"/><line style="stroke:#181818;stroke-width:1.0;" x1="374.75" x2="445" y1="1316.8832" y2="1316.8832"/><polygon fill="#181818" points="441,1206.367,445,1196.367,449,1206.367,445,1202.367" style="stroke:#181818;stroke-width:1.0;"/><line style="stroke:#181818;stroke-width:1.0;" x1="445" x2="445" y1="1069.8509" y2="1316.8832"/><line style="stroke:#181818;stroke-width:1.0;" x1="445" x2="284.75" y1="1069.8509" y2="1069.8509"/><polygon fill="#181818" points="294.75,1065.8509,284.75,1069.8509,294.75,1073.8509,290.75,1069.8509" style="stroke:#181818;stroke-width:1.0;"/><line style="stroke:#181818;stroke-width:1.0;" x1="272.75" x2="272.75" y1="1328.8832" y2="1348.8832"/><polygon fill="#181818" points="268.75,1338.8832,272.75,1348.8832,276.75,1338.8832,272.75,1342.8832" style="stroke:#181818;stroke-width:1.0;"/><line style="stroke:#181818;stroke-width:1.0;" x1="272.75" x2="272.75" y1="1037.8509" y2="1057.8509"/><polygon fill="#181818" points="268.75,1047.8509,272.75,1057.8509,276.75,1047.8509,272.75,1051.8509" style="stroke:#181818;stroke-width:1.0;"/><line style="stroke:#181818;stroke-width:1.0;" x1="272.75" x2="272.75" y1="1372.8832" y2="1417.0881"/><polygon fill="#181818" points="268.75,1407.0881,272.75,1417.0881,276.75,1407.0881,272.75,1411.0881" style="stroke:#181818;stroke-width:1.0;"/><text fill="#000000" font-family="sans-serif" font-size="11" lengthAdjust="spacing" textLength="14" x="276.75" y="1396.3651">no</text><line style="stroke:#181818;stroke-width:1.0;" x1="142" x2="142" y1="1619.7763" y2="1639.7763"/><polygon fill="#181818" points="138,1629.7763,142,1639.7763,146,1629.7763,142,1633.7763" style="stroke:#181818;stroke-width:1.0;"/><line style="stroke:#181818;stroke-width:1.0;" x1="142" x2="142" y1="1720.1204" y2="1745.6114"/><polygon fill="#181818" points="138,1735.6114,142,1745.6114,146,1735.6114,142,1739.6114" style="stroke:#181818;stroke-width:1.0;"/><line style="stroke:#181818;stroke-width:1.0;" x1="210" x2="267.5" y1="1708.1204" y2="1708.1204"/><polygon fill="#181818" points="263.5,1753.7834,267.5,1763.7834,271.5,1753.7834,267.5,1757.7834" style="stroke:#181818;stroke-width:1.0;"/><line style="stroke:#181818;stroke-width:1.0;" x1="267.5" x2="267.5" y1="1708.1204" y2="1813.9555"/><line style="stroke:#181818;stroke-width:1.0;" x1="267.5" x2="154" y1="1813.9555" y2="1813.9555"/><polygon fill="#181818" points="164,1809.9555,154,1813.9555,164,1817.9555,160,1813.9555" style="stroke:#181818;stroke-width:1.0;"/><line style="stroke:#181818;stroke-width:1.0;" x1="142" x2="142" y1="1781.9555" y2="1801.9555"/><polygon fill="#181818" points="138,1791.9555,142,1801.9555,146,1791.9555,142,1795.9555" style="stroke:#181818;stroke-width:1.0;"/><line style="stroke:#181818;stroke-width:1.0;" x1="142" x2="142" y1="1676.1204" y2="1696.1204"/><polygon fill="#181818" points="138,1686.1204,142,1696.1204,146,1686.1204,142,1690.1204" style="stroke:#181818;stroke-width:1.0;"/><line style="stroke:#181818;stroke-width:1.0;" x1="142" x2="142" y1="1825.9555" y2="1845.9555"/><polygon fill="#181818" points="138,1835.9555,142,1845.9555,146,1835.9555,142,1839.9555" style="stroke:#181818;stroke-width:1.0;"/><line style="stroke:#181818;stroke-width:1.0;" x1="142" x2="142" y1="1882.2996" y2="1902.2996"/><polygon fill="#181818" points="138,1892.2996,142,1902.2996,146,1892.2996,142,1896.2996" style="stroke:#181818;stroke-width:1.0;"/><line style="stroke:#181818;stroke-width:1.0;" x1="403.5" x2="403.5" y1="1619.7763" y2="1639.7763"/><polygon fill="#181818" points="399.5,1629.7763,403.5,1639.7763,407.5,1629.7763,403.5,1633.7763" style="stroke:#181818;stroke-width:1.0;"/><line style="stroke:#181818;stroke-width:1.0;" x1="218.75" x2="142" y1="1561.4322" y2="1561.4322"/><line style="stroke:#181818;stroke-width:1.0;" x1="142" x2="142" y1="1561.4322" y2="1583.4322"/><polygon fill="#181818" points="138,1573.4322,142,1583.4322,146,1573.4322,142,1577.4322" style="stroke:#181818;stroke-width:1.0;"/><line style="stroke:#181818;stroke-width:1.0;" x1="326.75" x2="403.5" y1="1561.4322" y2="1561.4322"/><line style="stroke:#181818;stroke-width:1.0;" x1="403.5" x2="403.5" y1="1561.4322" y2="1583.4322"/><polygon fill="#181818" points="399.5,1573.4322,403.5,1583.4322,407.5,1573.4322,403.5,1577.4322" style="stroke:#181818;stroke-width:1.0;"/><line style="stroke:#181818;stroke-width:1.0;" x1="403.5" x2="403.5" y1="1676.1204" y2="1929.2996"/><line style="stroke:#181818;stroke-width:1.0;" x1="403.5" x2="272.75" y1="1929.2996" y2="1929.2996"/><line style="stroke:#181818;stroke-width:1.0;" x1="272.75" x2="272.75" y1="1929.2996" y2="1944.2996"/><polygon fill="#181818" points="268.75,1934.2996,272.75,1944.2996,276.75,1934.2996,272.75,1938.2996" style="stroke:#181818;stroke-width:1.0;"/><line style="stroke:#181818;stroke-width:1.0;" x1="272.75" x2="272.75" y1="1529.4322" y2="1549.4322"/><polygon fill="#181818" points="268.75,1539.4322,272.75,1549.4322,276.75,1539.4322,272.75,1543.4322" style="stroke:#181818;stroke-width:1.0;"/><line style="stroke:#181818;stroke-width:1.0;" x1="374.75" x2="521.5" y1="1956.2996" y2="1956.2996"/><polygon fill="#181818" points="517.5,1752.6114,521.5,1742.6114,525.5,1752.6114,521.5,1748.6114" style="stroke:#181818;stroke-width:1.0;"/><line style="stroke:#181818;stroke-width:1.0;" x1="521.5" x2="521.5" y1="1517.4322" y2="1956.2996"/><line style="stroke:#181818;stroke-width:1.0;" x1="521.5" x2="284.75" y1="1517.4322" y2="1517.4322"/><polygon fill="#181818" points="294.75,1513.4322,284.75,1517.4322,294.75,1521.4322,290.75,1517.4322" style="stroke:#181818;stroke-width:1.0;"/><line style="stroke:#181818;stroke-width:1.0;" x1="272.75" x2="272.75" y1="1485.4322" y2="1505.4322"/><polygon fill="#181818" points="268.75,1495.4322,272.75,1505.4322,276.75,1495.4322,272.75,1499.4322" style="stroke:#181818;stroke-width:1.0;"/><line style="stroke:#181818;stroke-width:1.0;" x1="272.75" x2="272.75" y1="1968.2996" y2="2012.5045"/><polygon fill="#181818" points="268.75,2002.5045,272.75,2012.5045,276.75,2002.5045,272.75,2006.5045" style="stroke:#181818;stroke-width:1.0;"/><text fill="#000000" font-family="sans-serif" font-size="11" lengthAdjust="spacing" textLength="14" x="276.75" y="1991.7815">no</text><!--SRC=[lPD1JiCm44NtESKismKNQ2HO87411FkfCqb6k7Rns07rDXoWgnuX5sEID5LG2aAYPMVPy-T_lx4bOeZPwaaI1lOWthBXY12eOea10xX43GAQo0qNMEJPwb5FQ8EmITILWC58bG_j7WKAbgrtlBOaUPO5sXB63E1amAuA95DDhiTSmkB-j0DD-s7Lwsu9iIO72sdtIwq2M0V25rsH5OA5yyFkB125u4F-zUnqCpFpwIh95LmUyy9RpLRxZvbV4rCWZHx9AIueg8VYDH_BCTtDBJYVPnBzDilcfWrQtmid77-WqvUFO9vxxP3LNuT9CxNu1nmbcHf_ZwCl7t4yzDghFf5oQd5v7BFFPjJ99EixRPt8MfpYw3_7M47l7BsSUGQp6ogvP2CMNLTxiiY_mI5QsUubij5Fh5D9Q7c71SeWw3ACiT4QTBls0BL6cGSvqztvoALsDjmUN7T9wwjmZ3AWFIkJL2bPPnXXIq6yEsOQX3tClyrvDhDBp_eJ]--></g></svg>