<?xml version="1.0" encoding="us-ascii" standalone="no"?><svg xmlns="http://www.w3.org/2000/svg" xmlns:xlink="http://www.w3.org/1999/xlink" contentStyleType="text/css" height="1592px" preserveAspectRatio="none" style="width:652px;height:1592px;background:#FFFFFF;" version="1.1" viewBox="0 0 652 1592" width="652px" zoomAndPan="magnify"><defs/><g><!--cluster EsperandoSolicitud--><g id="cluster_EsperandoSolicitud"><path d="M170.5,81 L440.5,81 A12.5,12.5 0 0 1 453,93.5 L453,105.0679 L158,105.0679 L158,93.5 A12.5,12.5 0 0 1 170.5,81 " fill="#F1F1F1" style="stroke:#F1F1F1;stroke-width:1.0;"/><rect fill="none" height="219" rx="12.5" ry="12.5" style="stroke:#181818;stroke-width:0.5;" width="295" x="158" y="81"/><line style="stroke:#181818;stroke-width:0.5;" x1="158" x2="453" y1="105.0679" y2="105.0679"/><text fill="#000000" font-family="sans-serif" font-size="14" lengthAdjust="spacing" textLength="130" x="240.5" y="99.9659">EsperandoSolicitud</text></g><!--cluster IngresandoDatos--><g id="cluster_IngresandoDatos"><path d="M19.5,349 L362.5,349 A12.5,12.5 0 0 1 375,361.5 L375,373.0679 L7,373.0679 L7,361.5 A12.5,12.5 0 0 1 19.5,349 " fill="#F1F1F1" style="stroke:#F1F1F1;stroke-width:1.0;"/><rect fill="none" height="507" rx="12.5" ry="12.5" style="stroke:#181818;stroke-width:0.5;" width="368" x="7" y="349"/><line style="stroke:#181818;stroke-width:0.5;" x1="7" x2="375" y1="373.0679" y2="373.0679"/><text fill="#000000" font-family="sans-serif" font-size="14" lengthAdjust="spacing" textLength="116" x="133" y="367.9659">IngresandoDatos</text></g><!--cluster Calculando--><g id="cluster_Calculando"><path d="M92.5,923 L408.5,923 A12.5,12.5 0 0 1 421,935.5 L421,947.0679 L80,947.0679 L80,935.5 A12.5,12.5 0 0 1 92.5,923 " fill="#F1F1F1" style="stroke:#F1F1F1;stroke-width:1.0;"/><rect fill="none" height="249" rx="12.5" ry="12.5" style="stroke:#181818;stroke-width:0.5;" width="341" x="80" y="923"/><line style="stroke:#181818;stroke-width:0.5;" x1="80" x2="421" y1="947.0679" y2="947.0679"/><text fill="#000000" font-family="sans-serif" font-size="14" lengthAdjust="spacing" textLength="75" x="213" y="941.9659">Calculando</text></g><ellipse cx="217" cy="137" fill="#222222" rx="10" ry="10" style="stroke:#222222;stroke-width:1.0;"/><g id="EsperandoSolicitud.MostrandoCategorias"><rect fill="#F1F1F1" height="50" rx="12.5" ry="12.5" style="stroke:#181818;stroke-width:0.5;" width="165" x="182.5" y="226"/><line style="stroke:#181818;stroke-width:0.5;" x1="182.5" x2="347.5" y1="255.0679" y2="255.0679"/><text fill="#000000" font-family="sans-serif" font-size="14" lengthAdjust="spacing" textLength="145" x="192.5" y="245.9659">MostrandoCategorias</text></g><g id="IngresandoDatos.SolicitandoCategoria"><rect fill="#F1F1F1" height="50" rx="12.5" ry="12.5" style="stroke:#181818;stroke-width:0.5;" width="163" x="50.5" y="395"/><line style="stroke:#181818;stroke-width:0.5;" x1="50.5" x2="213.5" y1="424.0679" y2="424.0679"/><text fill="#000000" font-family="sans-serif" font-size="14" lengthAdjust="spacing" textLength="143" x="60.5" y="414.9659">Solicitando Categor&#237;a</text></g><g id="IngresandoDatos.SolicitandoValor"><rect fill="#F1F1F1" height="50" rx="12.5" ry="12.5" style="stroke:#181818;stroke-width:0.5;" width="132" x="64" y="524"/><line style="stroke:#181818;stroke-width:0.5;" x1="64" x2="196" y1="553.0679" y2="553.0679"/><text fill="#000000" font-family="sans-serif" font-size="14" lengthAdjust="spacing" textLength="112" x="74" y="543.9659">Solicitando Valor</text></g><g id="IngresandoDatos.SolicitandoFecha"><rect fill="#F1F1F1" height="50" rx="12.5" ry="12.5" style="stroke:#181818;stroke-width:0.5;" width="137" x="53.5" y="653"/><line style="stroke:#181818;stroke-width:0.5;" x1="53.5" x2="190.5" y1="682.0679" y2="682.0679"/><text fill="#000000" font-family="sans-serif" font-size="14" lengthAdjust="spacing" textLength="117" x="63.5" y="672.9659">Solicitando Fecha</text></g><g id="IngresandoDatos.DatosCompletos"><rect fill="#F1F1F1" height="50" rx="12.5" ry="12.5" style="stroke:#181818;stroke-width:0.5;" width="129" x="53.5" y="782"/><line style="stroke:#181818;stroke-width:0.5;" x1="53.5" x2="182.5" y1="811.0679" y2="811.0679"/><text fill="#000000" font-family="sans-serif" font-size="14" lengthAdjust="spacing" textLength="109" x="63.5" y="801.9659">DatosCompletos</text></g><g id="Calculando.ProcesandoCalculo"><rect fill="#F1F1F1" height="50" rx="12.5" ry="12.5" style="stroke:#181818;stroke-width:0.5;" width="151" x="123.5" y="969"/><line style="stroke:#181818;stroke-width:0.5;" x1="123.5" x2="274.5" y1="998.0679" y2="998.0679"/><text fill="#000000" font-family="sans-serif" font-size="14" lengthAdjust="spacing" textLength="131" x="133.5" y="988.9659">Procesando C&#225;lculo</text></g><g id="Calculando.PreparandoResultados"><rect fill="#F1F1F1" height="50" rx="12.5" ry="12.5" style="stroke:#181818;stroke-width:0.5;" width="177" x="171.5" y="1098"/><line style="stroke:#181818;stroke-width:0.5;" x1="171.5" x2="348.5" y1="1127.0679" y2="1127.0679"/><text fill="#000000" font-family="sans-serif" font-size="14" lengthAdjust="spacing" textLength="157" x="181.5" y="1117.9659">Preparando Resultados</text></g><ellipse cx="445" cy="16" fill="#222222" rx="10" ry="10" style="stroke:#222222;stroke-width:1.0;"/><path d="M268,1227 L454,1227 A12.5,12.5 0 0 1 466.5,1239.5 L466.5,1256.0679 L255.5,1256.0679 L255.5,1239.5 A12.5,12.5 0 0 1 268,1227 " fill="#F1F1F1" style="stroke:#F1F1F1;stroke-width:1.0;"/><rect fill="none" height="359.0679" rx="12.5" ry="12.5" style="stroke:#181818;stroke-width:0.5;" width="211" x="255.5" y="1227"/><line style="stroke:#181818;stroke-width:0.5;" x1="255.5" x2="466.5" y1="1256.0679" y2="1256.0679"/><text fill="#000000" font-family="sans-serif" font-size="14" lengthAdjust="spacing" textLength="147" x="287.5" y="1246.9659">MostrandoResultados</text><g id="MostrandoResultados.MostrandoHuella"><rect fill="#F1F1F1" height="50" rx="12.5" ry="12.5" style="stroke:#181818;stroke-width:0.5;" width="140" x="292.5" y="1268.0679"/><line style="stroke:#181818;stroke-width:0.5;" x1="292.5" x2="432.5" y1="1297.1358" y2="1297.1358"/><text fill="#000000" font-family="sans-serif" font-size="14" lengthAdjust="spacing" textLength="120" x="302.5" y="1288.0339">Mostrando Huella</text></g><g id="MostrandoResultados.ActualizandoEstadisticas"><rect fill="#F1F1F1" height="50" rx="12.5" ry="12.5" style="stroke:#181818;stroke-width:0.5;" width="190" x="267.5" y="1354.0679"/><line style="stroke:#181818;stroke-width:0.5;" x1="267.5" x2="457.5" y1="1383.1358" y2="1383.1358"/><text fill="#000000" font-family="sans-serif" font-size="14" lengthAdjust="spacing" textLength="170" x="277.5" y="1374.0339">Actualizando Estad&#237;sticas</text></g><g id="MostrandoResultados.VerificandoLogros"><rect fill="#F1F1F1" height="50" rx="12.5" ry="12.5" style="stroke:#181818;stroke-width:0.5;" width="145" x="290" y="1440.0679"/><line style="stroke:#181818;stroke-width:0.5;" x1="290" x2="435" y1="1469.1358" y2="1469.1358"/><text fill="#000000" font-family="sans-serif" font-size="14" lengthAdjust="spacing" textLength="125" x="300" y="1460.0339">Verificando Logros</text></g><g id="MostrandoResultados.GenerandoSugerencias"><rect fill="#F1F1F1" height="50" rx="12.5" ry="12.5" style="stroke:#181818;stroke-width:0.5;" width="182" x="271.5" y="1526.0679"/><line style="stroke:#181818;stroke-width:0.5;" x1="271.5" x2="453.5" y1="1555.1358" y2="1555.1358"/><text fill="#000000" font-family="sans-serif" font-size="14" lengthAdjust="spacing" textLength="162" x="281.5" y="1546.0339">Generando Sugerencias</text></g><!--link MostrandoHuella to ActualizandoEstadisticas--><g id="link_MostrandoHuella_ActualizandoEstadisticas"><path d="M362.5,1318.3679 C362.5,1329.5079 362.5,1336.6879 362.5,1347.8279 " fill="none" id="MostrandoHuella-to-ActualizandoEstadisticas" style="stroke:#181818;stroke-width:1.0;"/><polygon fill="#181818" points="362.5,1353.8279,366.5,1344.8279,362.5,1348.8279,358.5,1344.8279,362.5,1353.8279" style="stroke:#181818;stroke-width:1.0;"/></g><!--link ActualizandoEstadisticas to VerificandoLogros--><g id="link_ActualizandoEstadisticas_VerificandoLogros"><path d="M362.5,1404.3679 C362.5,1415.5079 362.5,1422.6879 362.5,1433.8279 " fill="none" id="ActualizandoEstadisticas-to-VerificandoLogros" style="stroke:#181818;stroke-width:1.0;"/><polygon fill="#181818" points="362.5,1439.8279,366.5,1430.8279,362.5,1434.8279,358.5,1430.8279,362.5,1439.8279" style="stroke:#181818;stroke-width:1.0;"/></g><!--link VerificandoLogros to GenerandoSugerencias--><g id="link_VerificandoLogros_GenerandoSugerencias"><path d="M362.5,1490.3679 C362.5,1501.5079 362.5,1508.6879 362.5,1519.8279 " fill="none" id="VerificandoLogros-to-GenerandoSugerencias" style="stroke:#181818;stroke-width:1.0;"/><polygon fill="#181818" points="362.5,1525.8279,366.5,1516.8279,362.5,1520.8279,358.5,1516.8279,362.5,1525.8279" style="stroke:#181818;stroke-width:1.0;"/></g><ellipse cx="527" cy="251" fill="none" rx="11" ry="11" style="stroke:#222222;stroke-width:1.0;"/><ellipse cx="527" cy="251" fill="#222222" rx="6" ry="6" style="stroke:#222222;stroke-width:1.0;"/><!--link *start* to EsperandoSolicitud--><g id="link_*start*_EsperandoSolicitud"><path d="M445,26.34 C445,33.2425 445,43.3887 445,54.7642 C445,60.452 445,66.447 445,72.4975 C445,74.0102 445,75.5263 445,77.0419 C445,77.7997 445,78.5574 445,79.3145 C445,79.693 445,74.0714 445,74.4496 " fill="none" id="*start*-to-EsperandoSolicitud" style="stroke:#181818;stroke-width:1.0;"/><polygon fill="#181818" points="445,80.4496,449,71.4496,445,75.4496,441,71.4496,445,80.4496" style="stroke:#181818;stroke-width:1.0;"/></g><!--link *start*EsperandoSolicitud to MostrandoCategorias--><g id="link_*start*EsperandoSolicitud_MostrandoCategorias"><path d="M218.68,146.89 C221.05,158.49 225.89,179.27 233,196 C237.35,206.23 240.1679,211.7685 245.7679,220.8785 " fill="none" id="*start*EsperandoSolicitud-to-MostrandoCategorias" style="stroke:#181818;stroke-width:1.0;"/><polygon fill="#181818" points="248.91,225.99,247.6045,216.228,246.2916,221.7304,240.7892,220.4175,248.91,225.99" style="stroke:#181818;stroke-width:1.0;"/><text fill="#000000" font-family="sans-serif" font-size="13" lengthAdjust="spacing" textLength="202" x="234" y="191.897">Usuario solicita registrar actividad</text></g><!--link SolicitandoCategoria to SolicitandoValor--><g id="link_SolicitandoCategoria_SolicitandoValor"><path d="M131.62,445.19 C131.26,467.78 130.823,495.3307 130.473,517.9007 " fill="none" id="SolicitandoCategoria-to-SolicitandoValor" style="stroke:#181818;stroke-width:1.0;"/><polygon fill="#181818" points="130.38,523.9,134.5191,514.9631,130.4575,518.9006,126.52,514.8391,130.38,523.9" style="stroke:#181818;stroke-width:1.0;"/><text fill="#000000" font-family="sans-serif" font-size="13" lengthAdjust="spacing" textLength="96" x="133" y="489.897">Categor&#237;a v&#225;lida</text></g><!--link SolicitandoValor to SolicitandoFecha--><g id="link_SolicitandoValor_SolicitandoFecha"><path d="M128.48,574.19 C127.05,596.78 125.3167,624.3418 123.8967,646.9118 " fill="none" id="SolicitandoValor-to-SolicitandoFecha" style="stroke:#181818;stroke-width:1.0;"/><polygon fill="#181818" points="123.52,652.9,128.0772,644.1689,123.834,647.9099,120.093,643.6666,123.52,652.9" style="stroke:#181818;stroke-width:1.0;"/><text fill="#000000" font-family="sans-serif" font-size="13" lengthAdjust="spacing" textLength="70" x="128" y="618.897">Valor v&#225;lido</text></g><!--link SolicitandoFecha to DatosCompletos--><g id="link_SolicitandoFecha_DatosCompletos"><path d="M121.24,703.19 C120.53,725.78 119.6587,753.333 118.9487,775.903 " fill="none" id="SolicitandoFecha-to-DatosCompletos" style="stroke:#181818;stroke-width:1.0;"/><polygon fill="#181818" points="118.76,781.9,123.041,773.0302,118.9172,776.9025,115.045,772.7787,118.76,781.9" style="stroke:#181818;stroke-width:1.0;"/><text fill="#000000" font-family="sans-serif" font-size="13" lengthAdjust="spacing" textLength="73" x="122" y="747.897">Fecha v&#225;lida</text></g><!--link SolicitandoCategoria to SolicitandoCategoria--><g id="link_SolicitandoCategoria_SolicitandoCategoria"><path d="M213.66,408.19 C233.63,409.06 248.5,413 248.5,420 C248.5,427 239.6243,430.6789 219.6543,431.5489 " fill="none" id="SolicitandoCategoria-to-SolicitandoCategoria" style="stroke:#181818;stroke-width:1.0;"/><polygon fill="#181818" points="213.66,431.81,222.8256,435.4145,218.6553,431.5924,222.4774,427.4221,213.66,431.81" style="stroke:#181818;stroke-width:1.0;"/><text fill="#000000" font-family="sans-serif" font-size="13" lengthAdjust="spacing" textLength="107" x="254.5" y="425.397">Categor&#237;a inv&#225;lida</text></g><!--link SolicitandoValor to SolicitandoValor--><g id="link_SolicitandoValor_SolicitandoValor"><path d="M196.05,537.03 C215.71,537.38 231,541.38 231,549 C231,556.62 221.709,560.5132 202.049,560.8632 " fill="none" id="SolicitandoValor-to-SolicitandoValor" style="stroke:#181818;stroke-width:1.0;"/><polygon fill="#181818" points="196.05,560.97,205.1198,564.8092,201.0492,560.881,204.9774,556.8104,196.05,560.97" style="stroke:#181818;stroke-width:1.0;"/><text fill="#000000" font-family="sans-serif" font-size="13" lengthAdjust="spacing" textLength="81" x="237" y="554.397">Valor inv&#225;lido</text></g><!--link SolicitandoFecha to SolicitandoFecha--><g id="link_SolicitandoFecha_SolicitandoFecha"><path d="M190.68,666.05 C210.34,666.52 225.5,670.5 225.5,678 C225.5,685.5 216.3383,689.3366 196.6783,689.8066 " fill="none" id="SolicitandoFecha-to-SolicitandoFecha" style="stroke:#181818;stroke-width:1.0;"/><polygon fill="#181818" points="190.68,689.95,199.773,693.7338,195.6786,689.8305,199.5818,685.736,190.68,689.95" style="stroke:#181818;stroke-width:1.0;"/><text fill="#000000" font-family="sans-serif" font-size="13" lengthAdjust="spacing" textLength="84" x="231.5" y="683.397">Fecha inv&#225;lida</text></g><!--link MostrandoCategorias to IngresandoDatos--><g id="link_MostrandoCategorias_IngresandoDatos"><path d="M182.24,260.84 C132.39,270.5 71.5,290.71 34,333 C30.855,336.5463 28.1931,340.4947 25.9435,344.6959 C25.3811,345.7462 24.8444,346.8123 24.3324,347.8919 C24.2044,348.1618 26.5858,342.9818 26.4609,343.2533 " fill="none" id="MostrandoCategorias-to-IngresandoDatos" style="stroke:#181818;stroke-width:1.0;"/><polygon fill="#181818" points="23.953,348.7041,31.3486,342.1998,26.0429,344.1618,24.081,338.856,23.953,348.7041" style="stroke:#181818;stroke-width:1.0;"/></g><!--link ProcesandoCalculo to PreparandoResultados--><g id="link_ProcesandoCalculo_PreparandoResultados"><path d="M210.62,1019.19 C221.47,1041.78 234.9924,1069.9215 245.8324,1092.4915 " fill="none" id="ProcesandoCalculo-to-PreparandoResultados" style="stroke:#181818;stroke-width:1.0;"/><polygon fill="#181818" points="248.43,1097.9,248.1392,1088.0554,246.2653,1093.3929,240.9279,1091.5189,248.43,1097.9" style="stroke:#181818;stroke-width:1.0;"/><text fill="#000000" font-family="sans-serif" font-size="13" lengthAdjust="spacing" textLength="90" x="235" y="1063.897">C&#225;lculo exitoso</text></g><!--link ProcesandoCalculo to ProcesandoCalculo--><g id="link_ProcesandoCalculo_ProcesandoCalculo"><path d="M274.66,982.11 C294.5,982.82 309.5,986.78 309.5,994 C309.5,1001.22 300.4962,1004.9654 280.6562,1005.6754 " fill="none" id="ProcesandoCalculo-to-ProcesandoCalculo" style="stroke:#181818;stroke-width:1.0;"/><polygon fill="#181818" points="274.66,1005.89,283.7973,1009.5656,279.6568,1005.7112,283.5112,1001.5707,274.66,1005.89" style="stroke:#181818;stroke-width:1.0;"/><text fill="#000000" font-family="sans-serif" font-size="13" lengthAdjust="spacing" textLength="92" x="315.5" y="999.397">Error en c&#225;lculo</text></g><!--link DatosCompletos to Calculando--><g id="link_DatosCompletos_Calculando"><path d="M114.08,832.19 C112.0775,844.53 109.4813,860.5356 106.7047,877.6553 C105.3164,886.2152 103.883,895.0535 102.4563,903.8514 C101.7429,908.2504 101.0312,912.6393 100.3276,916.9781 C100.1517,918.0629 99.9763,919.1445 99.8015,920.2223 C99.7141,920.7612 99.6268,921.2992 99.5398,921.8362 C99.4962,922.1047 100.4132,916.4503 100.3697,916.7183 " fill="none" id="DatosCompletos-to-Calculando" style="stroke:#181818;stroke-width:1.0;"/><polygon fill="#181818" points="99.4093,922.6409,104.7983,914.3972,100.2096,917.7054,96.9015,913.1167,99.4093,922.6409" style="stroke:#181818;stroke-width:1.0;"/><text fill="#000000" font-family="sans-serif" font-size="13" lengthAdjust="spacing" textLength="135" x="107" y="894.897">Usuario solicita c&#225;lculo</text></g><!--link PreparandoResultados to MostrandoResultados--><g id="link_PreparandoResultados_MostrandoResultados"><path d="M268.61,1148 C275.46,1167.08 283.6938,1190.0425 294.9238,1221.3425 " fill="none" id="PreparandoResultados-to-MostrandoResultados" style="stroke:#181818;stroke-width:1.0;"/><polygon fill="#181818" points="296.95,1226.99,297.6756,1217.1679,295.2615,1222.2837,290.1456,1219.8696,296.95,1226.99" style="stroke:#181818;stroke-width:1.0;"/></g><!--link MostrandoResultados to EsperandoSolicitud--><g id="link_MostrandoResultados_EsperandoSolicitud"><path d="M446.27,1226.8 C456.27,1193.37 463,1158.18 463,1124 C463,250 463,250 463,250 C463,225.185 458.64,197.665 454.2112,176.1137 C453.9345,174.7668 453.6574,173.4432 453.3811,172.145 C453.312,171.8204 453.243,171.4974 453.174,171.1761 C453.1396,171.0154 454.3689,176.7206 454.3345,176.5607 " fill="none" id="MostrandoResultados-to-EsperandoSolicitud" style="stroke:#181818;stroke-width:1.0;"/><polygon fill="#181818" points="453.0707,170.6953,451.0562,180.3359,454.1239,175.5831,458.8767,178.6508,453.0707,170.6953" style="stroke:#181818;stroke-width:1.0;"/><text fill="#000000" font-family="sans-serif" font-size="13" lengthAdjust="spacing" textLength="123" x="464" y="683.397">Proceso completado</text></g><!--link EsperandoSolicitud to *end*--><g id="link_EsperandoSolicitud_*end*"><path d="M453.1247,143.9752 C453.1782,144.0163 453.232,144.0576 453.286,144.0991 C453.5019,144.265 453.721,144.4338 453.9431,144.6054 C454.3872,144.9488 454.8434,145.3035 455.3106,145.6692 C457.1795,147.1321 459.2241,148.7703 461.3763,150.5538 C469.985,157.6875 480.315,167.145 488,177 C504.08,197.62 514.6845,220.289 520.8145,234.869 " fill="none" id="EsperandoSolicitud-to-*end*" style="stroke:#181818;stroke-width:1.0;"/><polygon fill="#181818" points="523.14,240.4,523.3392,230.5532,521.2021,235.7908,515.9645,233.6538,523.14,240.4" style="stroke:#181818;stroke-width:1.0;"/><text fill="#000000" font-family="sans-serif" font-size="13" lengthAdjust="spacing" textLength="143" x="501" y="191.897">Usuario sale del sistema</text></g><!--SRC=[ZLHRQYCn4FoVKpJvNCW5_B6mEDu7xCAo8Vun-MWqlRC2UMGaJGW9EKmEa5FuOjjIQsRaiH8CXe6kgkvIgQtTftkulluC6tyWXtrhRwtHIeUXRHeVC505WUS6O9U5lwmF2LupkRDEeuSLtFa1dRRWHOFWgDEHw01Lq0-wnRPv6KVyw3j7FZQvmM1zwY_8LHuQCSWJZczu1JobWARPTU4MZNLBJIhM-Lz9_JkRaOhCvrzjSWfZsPwJc4t3m_7LyC5F6mXl8KwpM2oWwEofJYXHbp9Rs_t1K0nl9VQBQHSwde4Jrxg_tFTuQFcEodUTLquittacxqXjmw9wiJNZCgtHgC6aUopswBUpIiYmvjRCiEc2vxheR2cX0wR1y8VyO0AsrcVHYCo0v7pMBZcjyMF8sGZGe-O3s0_qo-eADivnnDI3obrYL8jLYDeYZihVSXBdyAQi2wD5YXCCtmSoHluZKr5gC_kB2WCQ_PG46owsnpSVj499iOGJgWMS6sp9wRzSYlgVjdCv_g8irLdnZNfvhE1swCXHhtIUDY4587Usy9zI-y3RUr3IrQoTrHApweUliBeh9mzjiNDDxRxgppdVlgoH1IKBmkIcgH2ZFhxknRgW8MZ9WEUpqXwR_m00]--></g></svg>