<?xml version="1.0" encoding="us-ascii" standalone="no"?><svg xmlns="http://www.w3.org/2000/svg" xmlns:xlink="http://www.w3.org/1999/xlink" contentStyleType="text/css" height="631px" preserveAspectRatio="none" style="width:1338px;height:631px;background:#FFFFFF;" version="1.1" viewBox="0 0 1338 631" width="1338px" zoomAndPan="magnify"><defs/><g><!--cluster Clientes--><g id="cluster_Clientes"><path d="M525.5,6.602 L581.5,6.602 A3.75,3.75 0 0 1 584,9.102 L591,31.6699 L873.5,31.6699 A2.5,2.5 0 0 1 876,34.1699 L876,107.102 A2.5,2.5 0 0 1 873.5,109.602 L525.5,109.602 A2.5,2.5 0 0 1 523,107.102 L523,9.102 A2.5,2.5 0 0 1 525.5,6.602 " fill="none" style="stroke:#000000;stroke-width:1.5;"/><line style="stroke:#000000;stroke-width:1.5;" x1="523" x2="591" y1="31.6699" y2="31.6699"/><text fill="#000000" font-family="sans-serif" font-size="14" font-weight="bold" lengthAdjust="spacing" textLength="55" x="527" y="23.5679">Clientes</text></g><!--cluster Servicios de Entrada--><g id="cluster_Servicios de Entrada"><path d="M619.5,133.602 L760.5,133.602 A3.75,3.75 0 0 1 763,136.102 L770,158.6699 L782.5,158.6699 A2.5,2.5 0 0 1 785,161.1699 L785,343.102 A2.5,2.5 0 0 1 782.5,345.602 L619.5,345.602 A2.5,2.5 0 0 1 617,343.102 L617,136.102 A2.5,2.5 0 0 1 619.5,133.602 " fill="none" style="stroke:#000000;stroke-width:1.5;"/><line style="stroke:#000000;stroke-width:1.5;" x1="617" x2="770" y1="158.6699" y2="158.6699"/><text fill="#000000" font-family="sans-serif" font-size="14" font-weight="bold" lengthAdjust="spacing" textLength="140" x="621" y="150.5679">Servicios de Entrada</text></g><!--cluster Servidores de Aplicaci?n--><g id="cluster_Servidores de Aplicaci&#243;n"><path d="M333.5,369.602 L503.5,369.602 A3.75,3.75 0 0 1 506,372.102 L513,394.6699 L799.5,394.6699 A2.5,2.5 0 0 1 802,397.1699 L802,470.102 A2.5,2.5 0 0 1 799.5,472.602 L333.5,472.602 A2.5,2.5 0 0 1 331,470.102 L331,372.102 A2.5,2.5 0 0 1 333.5,369.602 " fill="none" style="stroke:#000000;stroke-width:1.5;"/><line style="stroke:#000000;stroke-width:1.5;" x1="331" x2="513" y1="394.6699" y2="394.6699"/><text fill="#000000" font-family="sans-serif" font-size="14" font-weight="bold" lengthAdjust="spacing" textLength="169" x="335" y="386.5679">Servidores de Aplicaci&#243;n</text></g><!--cluster Servicios Especializados--><g id="cluster_Servicios Especializados"><path d="M8.5,511.602 L173.5,511.602 A3.75,3.75 0 0 1 176,514.102 L183,536.6699 L543.5,536.6699 A2.5,2.5 0 0 1 546,539.1699 L546,612.102 A2.5,2.5 0 0 1 543.5,614.602 L8.5,614.602 A2.5,2.5 0 0 1 6,612.102 L6,514.102 A2.5,2.5 0 0 1 8.5,511.602 " fill="none" style="stroke:#000000;stroke-width:1.5;"/><line style="stroke:#000000;stroke-width:1.5;" x1="6" x2="183" y1="536.6699" y2="536.6699"/><text fill="#000000" font-family="sans-serif" font-size="14" font-weight="bold" lengthAdjust="spacing" textLength="164" x="10" y="528.5679">Servicios Especializados</text></g><!--cluster Servicios de Soporte--><g id="cluster_Servicios de Soporte"><path d="M826.5,511.602 L968.5,511.602 A3.75,3.75 0 0 1 971,514.102 L978,536.6699 L1328.5,536.6699 A2.5,2.5 0 0 1 1331,539.1699 L1331,612.102 A2.5,2.5 0 0 1 1328.5,614.602 L826.5,614.602 A2.5,2.5 0 0 1 824,612.102 L824,514.102 A2.5,2.5 0 0 1 826.5,511.602 " fill="none" style="stroke:#000000;stroke-width:1.5;"/><line style="stroke:#000000;stroke-width:1.5;" x1="824" x2="978" y1="536.6699" y2="536.6699"/><text fill="#000000" font-family="sans-serif" font-size="14" font-weight="bold" lengthAdjust="spacing" textLength="141" x="828" y="528.5679">Servicios de Soporte</text></g><!--cluster Base de Datos--><g id="cluster_Base de Datos"><path d="M570,506.602 C570,496.602 685,496.602 685,496.602 C685,496.602 800,496.602 800,506.602 L800,604.602 C800,614.602 685,614.602 685,614.602 C685,614.602 570,614.602 570,604.602 L570,506.602 " fill="none" style="stroke:#181818;stroke-width:1.0;"/><path d="M570,506.602 C570,516.602 685,516.602 685,516.602 C685,516.602 800,516.602 800,506.602 " fill="none" style="stroke:#181818;stroke-width:1.0;"/><text fill="#000000" font-family="sans-serif" font-size="14" font-weight="bold" lengthAdjust="spacing" textLength="97" x="636.5" y="533.5679">Base de Datos</text></g><!--cluster Servicios Externos--><g id="cluster_Servicios Externos"><path d="M892.7785,251.4325 C895.7119,246.0433 899.8277,246.9812 902.897,251.2907 C905.4302,245.6561 910.7034,244.0643 914.7518,249.6964 C917.2755,244.6414 922.2349,244.0813 925.5135,248.8712 C928.4998,244.1286 934.1851,242.7515 936.9597,249.0898 C940.1033,244.2062 944.5869,243.8036 948.4454,248.2054 C950.6639,243.5529 955.3729,242.3704 958.8509,246.7553 C963.1555,242.2768 966.8494,242.1474 969.5767,248.3406 C973.6048,242.8446 978.3492,242.9135 981.4916,249.2338 C984.5365,244.3859 990.2209,243.2658 993.291,249.2063 C996.7574,245.087 1000.7548,245.8683 1002.6921,250.7954 C1006.0497,244.3641 1011.646,244.066 1015.5059,250.2866 C1023.1287,244.7077 1031.3304,247.5034 1032,257.602 C1032.8818,258.1657 1033.2298,258.9981 1032.1322,259.6873 C1038.102,261.1408 1039.7015,265.6286 1036.4006,270.6813 C1042.6992,274.1811 1043.4585,278.1448 1038.1945,283.2896 C1045.5563,286.3451 1045.985,291.1732 1039.9604,296.0773 C1044.302,300.2313 1043.4359,304.8705 1037.963,307.2736 C1042.173,312.2045 1042.3082,315.83 1035.6579,318.5387 C1040.3856,328.2068 1037.7323,337.6954 1025,337.602 C1026.2813,337.6336 1026.9346,338.0628 1026.4612,339.4682 C1023.4392,345.368 1018.3053,344.5489 1015.3877,339.3639 C1012.6108,345.8731 1007.3153,346.8317 1003.1191,340.7466 C1000.5786,345.7176 995.6273,345.9994 992.5332,341.3562 C988.9204,346.1711 983.7156,347.5936 980.5157,340.9241 C977.9281,346.3108 973.8455,347.3489 970.0727,342.0862 C967.439,348.3478 961.5721,347.6397 958.3478,342.7046 C955.0629,347.9552 951.5376,347.0892 948.4648,342.4917 C943.9057,347.7204 939.5666,347.8914 936.4851,341.0279 C932.7105,346.4412 927.773,345.4601 924.8313,340.1248 C921.3558,345.0348 918.1543,344.4165 915.1468,339.6561 C911.5737,345.096 907.2817,346.2769 902.9861,340.4349 C892.9324,347.2178 885.0083,341.2848 884,330.602 C884.1873,330.4631 884.3517,330.5775 884.352,330.7896 C879.7339,327.8537 878.6982,323.4981 883.8945,320.1406 C877.1229,316.9749 877.924,311.8175 883.3501,308.1002 C875.1107,304.9281 874.525,299.8093 881.1789,294.2949 C875.6471,290.1568 876.7182,285.3779 882.1427,282.1062 C878.0566,277.914 878.4216,274.2784 883.4691,271.1967 C876.2872,262.3081 877.7518,252.0198 891,250.602 C891.9208,249.9932 892.7035,250.2299 892.7785,251.4325 " fill="none" style="stroke:#181818;stroke-width:1.0;"/><text fill="#000000" font-family="sans-serif" font-size="14" font-weight="bold" lengthAdjust="spacing" textLength="126" x="895" y="270.5679">Servicios Externos</text></g><!--entity Cliente M?vil--><g id="elem_Cliente M&#243;vil"><rect fill="#F1F1F1" height="49.0679" rx="2.5" ry="2.5" style="stroke:#181818;stroke-width:0.5;" width="127" x="732.5" y="44.602"/><rect fill="#F1F1F1" height="10" style="stroke:#181818;stroke-width:0.5;" width="15" x="839.5" y="49.602"/><rect fill="#F1F1F1" height="2" style="stroke:#181818;stroke-width:0.5;" width="4" x="837.5" y="51.602"/><rect fill="#F1F1F1" height="2" style="stroke:#181818;stroke-width:0.5;" width="4" x="837.5" y="55.602"/><text fill="#000000" font-family="sans-serif" font-size="14" lengthAdjust="spacing" textLength="87" x="747.5" y="79.5679">Cliente M&#243;vil</text></g><!--entity Admin Web Panel--><g id="elem_Admin Web Panel"><rect fill="#F1F1F1" height="49.0679" rx="2.5" ry="2.5" style="stroke:#181818;stroke-width:0.5;" width="159" x="538.5" y="44.602"/><rect fill="#F1F1F1" height="10" style="stroke:#181818;stroke-width:0.5;" width="15" x="677.5" y="49.602"/><rect fill="#F1F1F1" height="2" style="stroke:#181818;stroke-width:0.5;" width="4" x="675.5" y="51.602"/><rect fill="#F1F1F1" height="2" style="stroke:#181818;stroke-width:0.5;" width="4" x="675.5" y="55.602"/><text fill="#000000" font-family="sans-serif" font-size="14" lengthAdjust="spacing" textLength="119" x="553.5" y="79.5679">Admin Web Panel</text></g><!--entity API Gateway--><g id="elem_API Gateway"><rect fill="#F1F1F1" height="49.0679" rx="2.5" ry="2.5" style="stroke:#181818;stroke-width:0.5;" width="123" x="645.5" y="171.602"/><rect fill="#F1F1F1" height="10" style="stroke:#181818;stroke-width:0.5;" width="15" x="748.5" y="176.602"/><rect fill="#F1F1F1" height="2" style="stroke:#181818;stroke-width:0.5;" width="4" x="746.5" y="178.602"/><rect fill="#F1F1F1" height="2" style="stroke:#181818;stroke-width:0.5;" width="4" x="746.5" y="182.602"/><text fill="#000000" font-family="sans-serif" font-size="14" lengthAdjust="spacing" textLength="83" x="660.5" y="206.5679">API Gateway</text></g><!--entity Load Balancer--><g id="elem_Load Balancer"><rect fill="#F1F1F1" height="49.0679" rx="2.5" ry="2.5" style="stroke:#181818;stroke-width:0.5;" width="135" x="633.5" y="280.602"/><rect fill="#F1F1F1" height="10" style="stroke:#181818;stroke-width:0.5;" width="15" x="748.5" y="285.602"/><rect fill="#F1F1F1" height="2" style="stroke:#181818;stroke-width:0.5;" width="4" x="746.5" y="287.602"/><rect fill="#F1F1F1" height="2" style="stroke:#181818;stroke-width:0.5;" width="4" x="746.5" y="291.602"/><text fill="#000000" font-family="sans-serif" font-size="14" lengthAdjust="spacing" textLength="95" x="648.5" y="315.5679">Load Balancer</text></g><!--entity Servidor de Aplicaci?n 1--><g id="elem_Servidor de Aplicaci&#243;n 1"><rect fill="#F1F1F1" height="49.0679" rx="2.5" ry="2.5" style="stroke:#181818;stroke-width:0.5;" width="202" x="584" y="407.602"/><rect fill="#F1F1F1" height="10" style="stroke:#181818;stroke-width:0.5;" width="15" x="766" y="412.602"/><rect fill="#F1F1F1" height="2" style="stroke:#181818;stroke-width:0.5;" width="4" x="764" y="414.602"/><rect fill="#F1F1F1" height="2" style="stroke:#181818;stroke-width:0.5;" width="4" x="764" y="418.602"/><text fill="#000000" font-family="sans-serif" font-size="14" lengthAdjust="spacing" textLength="162" x="599" y="442.5679">Servidor de Aplicaci&#243;n 1</text></g><!--entity Servidor de Aplicaci?n 2--><g id="elem_Servidor de Aplicaci&#243;n 2"><rect fill="#F1F1F1" height="49.0679" rx="2.5" ry="2.5" style="stroke:#181818;stroke-width:0.5;" width="202" x="347" y="407.602"/><rect fill="#F1F1F1" height="10" style="stroke:#181818;stroke-width:0.5;" width="15" x="529" y="412.602"/><rect fill="#F1F1F1" height="2" style="stroke:#181818;stroke-width:0.5;" width="4" x="527" y="414.602"/><rect fill="#F1F1F1" height="2" style="stroke:#181818;stroke-width:0.5;" width="4" x="527" y="418.602"/><text fill="#000000" font-family="sans-serif" font-size="14" lengthAdjust="spacing" textLength="162" x="362" y="442.5679">Servidor de Aplicaci&#243;n 2</text></g><!--entity Servicio de C?lculo de Huella--><g id="elem_Servicio de C&#225;lculo de Huella"><rect fill="#F1F1F1" height="49.0679" rx="2.5" ry="2.5" style="stroke:#181818;stroke-width:0.5;" width="234" x="296" y="549.602"/><rect fill="#F1F1F1" height="10" style="stroke:#181818;stroke-width:0.5;" width="15" x="510" y="554.602"/><rect fill="#F1F1F1" height="2" style="stroke:#181818;stroke-width:0.5;" width="4" x="508" y="556.602"/><rect fill="#F1F1F1" height="2" style="stroke:#181818;stroke-width:0.5;" width="4" x="508" y="560.602"/><text fill="#000000" font-family="sans-serif" font-size="14" lengthAdjust="spacing" textLength="194" x="311" y="584.5679">Servicio de C&#225;lculo de Huella</text></g><!--entity Servicio de Recomendaciones--><g id="elem_Servicio de Recomendaciones"><rect fill="#F1F1F1" height="49.0679" rx="2.5" ry="2.5" style="stroke:#181818;stroke-width:0.5;" width="239" x="21.5" y="549.602"/><rect fill="#F1F1F1" height="10" style="stroke:#181818;stroke-width:0.5;" width="15" x="240.5" y="554.602"/><rect fill="#F1F1F1" height="2" style="stroke:#181818;stroke-width:0.5;" width="4" x="238.5" y="556.602"/><rect fill="#F1F1F1" height="2" style="stroke:#181818;stroke-width:0.5;" width="4" x="238.5" y="560.602"/><text fill="#000000" font-family="sans-serif" font-size="14" lengthAdjust="spacing" textLength="199" x="36.5" y="584.5679">Servicio de Recomendaciones</text></g><!--entity Servicio de Autenticaci?n--><g id="elem_Servicio de Autenticaci&#243;n"><rect fill="#F1F1F1" height="49.0679" rx="2.5" ry="2.5" style="stroke:#181818;stroke-width:0.5;" width="209" x="1105.5" y="549.602"/><rect fill="#F1F1F1" height="10" style="stroke:#181818;stroke-width:0.5;" width="15" x="1294.5" y="554.602"/><rect fill="#F1F1F1" height="2" style="stroke:#181818;stroke-width:0.5;" width="4" x="1292.5" y="556.602"/><rect fill="#F1F1F1" height="2" style="stroke:#181818;stroke-width:0.5;" width="4" x="1292.5" y="560.602"/><text fill="#000000" font-family="sans-serif" font-size="14" lengthAdjust="spacing" textLength="169" x="1120.5" y="584.5679">Servicio de Autenticaci&#243;n</text></g><!--entity Servicio de Almacenamiento--><g id="elem_Servicio de Almacenamiento"><rect fill="#F1F1F1" height="49.0679" rx="2.5" ry="2.5" style="stroke:#181818;stroke-width:0.5;" width="230" x="840" y="549.602"/><rect fill="#F1F1F1" height="10" style="stroke:#181818;stroke-width:0.5;" width="15" x="1050" y="554.602"/><rect fill="#F1F1F1" height="2" style="stroke:#181818;stroke-width:0.5;" width="4" x="1048" y="556.602"/><rect fill="#F1F1F1" height="2" style="stroke:#181818;stroke-width:0.5;" width="4" x="1048" y="560.602"/><text fill="#000000" font-family="sans-serif" font-size="14" lengthAdjust="spacing" textLength="190" x="855" y="584.5679">Servicio de Almacenamiento</text></g><!--entity Base de Datos Principal--><g id="elem_Base de Datos Principal"><rect fill="#F1F1F1" height="49.0679" rx="2.5" ry="2.5" style="stroke:#181818;stroke-width:0.5;" width="198" x="586" y="549.602"/><rect fill="#F1F1F1" height="10" style="stroke:#181818;stroke-width:0.5;" width="15" x="764" y="554.602"/><rect fill="#F1F1F1" height="2" style="stroke:#181818;stroke-width:0.5;" width="4" x="762" y="556.602"/><rect fill="#F1F1F1" height="2" style="stroke:#181818;stroke-width:0.5;" width="4" x="762" y="560.602"/><text fill="#000000" font-family="sans-serif" font-size="14" lengthAdjust="spacing" textLength="158" x="601" y="584.5679">Base de Datos Principal</text></g><!--entity APIs Externas--><g id="elem_APIs Externas"><rect fill="#F1F1F1" height="49.0679" rx="2.5" ry="2.5" style="stroke:#181818;stroke-width:0.5;" width="131" x="892.5" y="280.602"/><rect fill="#F1F1F1" height="10" style="stroke:#181818;stroke-width:0.5;" width="15" x="1003.5" y="285.602"/><rect fill="#F1F1F1" height="2" style="stroke:#181818;stroke-width:0.5;" width="4" x="1001.5" y="287.602"/><rect fill="#F1F1F1" height="2" style="stroke:#181818;stroke-width:0.5;" width="4" x="1001.5" y="291.602"/><text fill="#000000" font-family="sans-serif" font-size="14" lengthAdjust="spacing" textLength="91" x="907.5" y="315.5679">APIs Externas</text></g><!--link Cliente M?vil to API Gateway--><g id="link_Cliente M&#243;vil_API Gateway"><path d="M750.5,93.892 C750.5,116.272 750.5,143.022 750.5,165.372 " fill="none" id="Cliente M&#243;vil-to-API Gateway" style="stroke:#181818;stroke-width:1.0;"/><polygon fill="#181818" points="750.5,171.372,754.5,162.372,750.5,166.372,746.5,162.372,750.5,171.372" style="stroke:#181818;stroke-width:1.0;"/><text fill="#000000" font-family="sans-serif" font-size="13" lengthAdjust="spacing" textLength="76" x="673.5" y="128.529">HTTP/HTTPS</text></g><!--link Admin Web Panel to API Gateway--><g id="link_Admin Web Panel_API Gateway"><path d="M671.5,93.892 C671.5,116.272 671.5,143.022 671.5,165.372 " fill="none" id="Admin Web Panel-to-API Gateway" style="stroke:#181818;stroke-width:1.0;"/><polygon fill="#181818" points="671.5,171.372,675.5,162.372,671.5,166.372,667.5,162.372,671.5,171.372" style="stroke:#181818;stroke-width:1.0;"/><text fill="#000000" font-family="sans-serif" font-size="13" lengthAdjust="spacing" textLength="76" x="594.5" y="128.529">HTTP/HTTPS</text></g><!--link API Gateway to Load Balancer--><g id="link_API Gateway_Load Balancer"><path d="M707,220.832 C707,238.672 707,256.652 707,274.462 " fill="none" id="API Gateway-to-Load Balancer" style="stroke:#181818;stroke-width:1.0;"/><polygon fill="#181818" points="707,280.462,711,271.462,707,275.462,703,271.462,707,280.462" style="stroke:#181818;stroke-width:1.0;"/><text fill="#000000" font-family="sans-serif" font-size="13" lengthAdjust="spacing" textLength="76" x="630" y="246.549">HTTP/HTTPS</text></g><!--link Load Balancer to Servidor de Aplicaci?n 1--><g id="link_Load Balancer_Servidor de Aplicaci&#243;n 1"><path d="M701,329.892 C701,352.272 701,379.022 701,401.372 " fill="none" id="Load Balancer-to-Servidor de Aplicaci&#243;n 1" style="stroke:#181818;stroke-width:1.0;"/><polygon fill="#181818" points="701,407.372,705,398.372,701,402.372,697,398.372,701,407.372" style="stroke:#181818;stroke-width:1.0;"/><text fill="#000000" font-family="sans-serif" font-size="13" lengthAdjust="spacing" textLength="76" x="624" y="364.529">HTTP/HTTPS</text></g><!--link Load Balancer to Servidor de Aplicaci?n 2--><g id="link_Load Balancer_Servidor de Aplicaci&#243;n 2"><path d="M633.4,305.602 C590.78,305.602 543.75,305.602 543.75,305.602 C543.75,305.602 543.75,364.602 543.75,401.412 " fill="none" id="Load Balancer-to-Servidor de Aplicaci&#243;n 2" style="stroke:#181818;stroke-width:1.0;"/><polygon fill="#181818" points="543.75,407.412,547.75,398.412,543.75,402.412,539.75,398.412,543.75,407.412" style="stroke:#181818;stroke-width:1.0;"/><text fill="#000000" font-family="sans-serif" font-size="13" lengthAdjust="spacing" textLength="76" x="466.75" y="307.579">HTTP/HTTPS</text></g><!--link Servidor de Aplicaci?n 1 to Base de Datos Principal--><g id="link_Servidor de Aplicaci&#243;n 1_Base de Datos Principal"><path d="M718,456.832 C718,482.742 718,517.202 718,543.172 " fill="none" id="Servidor de Aplicaci&#243;n 1-to-Base de Datos Principal" style="stroke:#181818;stroke-width:1.0;"/><polygon fill="#181818" points="718,549.172,722,540.172,718,544.172,714,540.172,718,549.172" style="stroke:#181818;stroke-width:1.0;"/><text fill="#000000" font-family="sans-serif" font-size="13" lengthAdjust="spacing" textLength="71" x="719" y="498.899">SQL/NoSQL</text></g><!--link Servidor de Aplicaci?n 2 to Base de Datos Principal--><g id="link_Servidor de Aplicaci&#243;n 2_Base de Datos Principal"><path d="M542.67,456.622 C542.67,499.262 542.67,582.602 542.67,582.602 C542.67,582.602 555.65,582.602 579.76,582.602 " fill="none" id="Servidor de Aplicaci&#243;n 2-to-Base de Datos Principal" style="stroke:#181818;stroke-width:1.0;"/><polygon fill="#181818" points="585.76,582.602,576.76,578.602,580.76,582.602,576.76,586.602,585.76,582.602" style="stroke:#181818;stroke-width:1.0;"/><text fill="#000000" font-family="sans-serif" font-size="13" lengthAdjust="spacing" textLength="71" x="470.67" y="537.049">SQL/NoSQL</text></g><!--link Servidor de Aplicaci?n 1 to Servicio de C?lculo de Huella--><g id="link_Servidor de Aplicaci&#243;n 1_Servicio de C&#225;lculo de Huella"><path d="M583.99,432.602 C573.45,432.602 566.5,432.602 566.5,432.602 C566.5,432.602 566.5,566.602 566.5,566.602 C566.5,566.602 557.13,566.602 536.12,566.602 " fill="none" id="Servidor de Aplicaci&#243;n 1-to-Servicio de C&#225;lculo de Huella" style="stroke:#181818;stroke-width:1.0;"/><polygon fill="#181818" points="530.12,566.602,539.12,570.602,535.12,566.602,539.12,562.602,530.12,566.602" style="stroke:#181818;stroke-width:1.0;"/><text fill="#000000" font-family="sans-serif" font-size="13" lengthAdjust="spacing" textLength="24" x="541.5" y="504.949">RPC</text></g><!--link Servidor de Aplicaci?n 2 to Servicio de C?lculo de Huella--><g id="link_Servidor de Aplicaci&#243;n 2_Servicio de C&#225;lculo de Huella"><path d="M438.5,456.832 C438.5,482.742 438.5,517.202 438.5,543.172 " fill="none" id="Servidor de Aplicaci&#243;n 2-to-Servicio de C&#225;lculo de Huella" style="stroke:#181818;stroke-width:1.0;"/><polygon fill="#181818" points="438.5,549.172,442.5,540.172,438.5,544.172,434.5,540.172,438.5,549.172" style="stroke:#181818;stroke-width:1.0;"/><text fill="#000000" font-family="sans-serif" font-size="13" lengthAdjust="spacing" textLength="24" x="413.5" y="498.899">RPC</text></g><!--link Servidor de Aplicaci?n 1 to Servicio de Recomendaciones--><g id="link_Servidor de Aplicaci&#243;n 1_Servicio de Recomendaciones"><path d="M652,456.602 C652,471.472 652,487.602 652,487.602 C652,487.602 180.83,487.602 180.83,487.602 C180.83,487.602 180.83,517.972 180.83,543.542 " fill="none" id="Servidor de Aplicaci&#243;n 1-to-Servicio de Recomendaciones" style="stroke:#181818;stroke-width:1.0;"/><polygon fill="#181818" points="180.83,549.542,184.83,540.542,180.83,544.542,176.83,540.542,180.83,549.542" style="stroke:#181818;stroke-width:1.0;"/><text fill="#000000" font-family="sans-serif" font-size="13" lengthAdjust="spacing" textLength="24" x="375.94" y="483.499">RPC</text></g><!--link Servidor de Aplicaci?n 2 to Servicio de Recomendaciones--><g id="link_Servidor de Aplicaci&#243;n 2_Servicio de Recomendaciones"><path d="M346.75,432.602 C244.38,432.602 101.17,432.602 101.17,432.602 C101.17,432.602 101.17,502.912 101.17,543.452 " fill="none" id="Servidor de Aplicaci&#243;n 2-to-Servicio de Recomendaciones" style="stroke:#181818;stroke-width:1.0;"/><polygon fill="#181818" points="101.17,549.452,105.17,540.452,101.17,544.452,97.17,540.452,101.17,549.452" style="stroke:#181818;stroke-width:1.0;"/><text fill="#000000" font-family="sans-serif" font-size="13" lengthAdjust="spacing" textLength="24" x="140.53" y="428.499">RPC</text></g><!--link API Gateway to Servicio de Autenticaci?n--><g id="link_API Gateway_Servicio de Autenticaci&#243;n"><path d="M768.68,188.602 C902.99,188.602 1210,188.602 1210,188.602 C1210,188.602 1210,458.312 1210,543.402 " fill="none" id="API Gateway-to-Servicio de Autenticaci&#243;n" style="stroke:#181818;stroke-width:1.0;stroke-dasharray:7.0,7.0;"/><polygon fill="#181818" points="1210,549.402,1214,540.402,1210,544.402,1206,540.402,1210,549.402" style="stroke:#181818;stroke-width:1.0;"/><text fill="#000000" font-family="sans-serif" font-size="13" lengthAdjust="spacing" textLength="39" x="1129.74" y="184.499">HTTPS</text></g><!--link Servidor de Aplicaci?n 1 to Servicio de Almacenamiento--><g id="link_Servidor de Aplicaci&#243;n 1_Servicio de Almacenamiento"><path d="M786.12,432.602 C821.7,432.602 853,432.602 853,432.602 C853,432.602 853,502.912 853,543.452 " fill="none" id="Servidor de Aplicaci&#243;n 1-to-Servicio de Almacenamiento" style="stroke:#181818;stroke-width:1.0;stroke-dasharray:7.0,7.0;"/><polygon fill="#181818" points="853,549.452,857,540.452,853,544.452,849,540.452,853,549.452" style="stroke:#181818;stroke-width:1.0;"/><text fill="#000000" font-family="sans-serif" font-size="13" lengthAdjust="spacing" textLength="20" x="832" y="453.489">API</text></g><!--link Servidor de Aplicaci?n 2 to Servicio de Almacenamiento--><g id="link_Servidor de Aplicaci&#243;n 2_Servicio de Almacenamiento"><path d="M536.33,456.662 C536.33,482.232 536.33,518.602 536.33,518.602 C536.33,518.602 846.5,518.602 846.5,518.602 C846.5,518.602 846.5,528.732 846.5,543.602 " fill="none" id="Servidor de Aplicaci&#243;n 2-to-Servicio de Almacenamiento" style="stroke:#181818;stroke-width:1.0;stroke-dasharray:7.0,7.0;"/><polygon fill="#181818" points="846.5,549.602,850.5,540.602,846.5,544.602,842.5,540.602,846.5,549.602" style="stroke:#181818;stroke-width:1.0;"/><text fill="#000000" font-family="sans-serif" font-size="13" lengthAdjust="spacing" textLength="20" x="654.94" y="533.499">API</text></g><!--link API Gateway to APIs Externas--><g id="link_API Gateway_APIs Externas"><path d="M768.72,204.602 C843.04,204.602 958,204.602 958,204.602 C958,204.602 958,244.762 958,274.512 " fill="none" id="API Gateway-to-APIs Externas" style="stroke:#181818;stroke-width:1.0;stroke-dasharray:7.0,7.0;"/><polygon fill="#181818" points="958,280.512,962,271.512,958,275.512,954,271.512,958,280.512" style="stroke:#181818;stroke-width:1.0;"/><text fill="#000000" font-family="sans-serif" font-size="13" lengthAdjust="spacing" textLength="39" x="861.32" y="200.499">HTTPS</text></g><!--SRC=[hLDBJiCm4Dtd50DxG7J90YcKYY8L59fAB50NKti02yUEOWSeYCDm1exGYp5DFqhI9Y1A5bOqd_UUvutt9DqhGp3iTKVXzSMW1qAZSq7WdfH9CSC4X4rIQyZus4yrGPxeJYchkTjFKmAR-KSR12cA9tmWsEzgnJtazk4z0FxkbW6ucdqzAprU14EPA0EtD8483N7qemGHK_QiXB8E947F-0mbhk72w18kqDCBJfTO0uiIpb2Z4PHjGP8sem8gJBKIADJiowpXLXMrF1oFs_ET9iazbv9GgDKRIkkgF5mmn-dEFhN8TV7Vpqbh76yM3OaD82EPZrrmBHEARSecq5QgCFSy_9NgBJIXJb2GmMHkaYrO97gSe6EQi_d9HUVeIrUfH27Ab14gnOM7GjjSLiRnwYapfMxsRnN5nQtg6m871wTLd-44-gDHT3G_uc1ZUNvkAAUAukhErCfhoQAXUKzsQExKcrjO2g2cqJDCV3CukhPy1crq_u1oNBvKyqOps33g_YncHvXjQkfFvozIcZ0ggtHuUDhwt9RkjXkx2L9zaWp2fAtgVmknARxw6jTwlm40]--></g></svg>