<?xml version="1.0" encoding="us-ascii" standalone="no"?><svg xmlns="http://www.w3.org/2000/svg" xmlns:xlink="http://www.w3.org/1999/xlink" contentStyleType="text/css" height="601px" preserveAspectRatio="none" style="width:901px;height:601px;background:#FFFFFF;" version="1.1" viewBox="0 0 901 601" width="901px" zoomAndPan="magnify"><defs/><g><!--class USUARIO--><g id="elem_USUARIO"><rect codeLine="6" fill="#F1F1F1" height="143.3396" id="USUARIO" rx="2.5" ry="2.5" style="stroke:#181818;stroke-width:0.5;" width="150" x="407" y="7"/><ellipse cx="447.2" cy="23" fill="#FFAAAA" rx="11" ry="11" style="stroke:#181818;stroke-width:1.0;"/><path d="M448.0438,29.75 L445.5906,29.75 L445.5906,19.5 L442.45,19.5 L442.45,17.3594 L451.1844,17.3594 L451.1844,19.5 L448.0438,19.5 L448.0438,29.75 Z " fill="#000000"/><text fill="#000000" font-family="sans-serif" font-size="14" lengthAdjust="spacing" textLength="62" x="466.8" y="28.432">USUARIO</text><line style="stroke:#181818;stroke-width:0.5;" x1="408" x2="556" y1="39" y2="39"/><text fill="#000000" font-family="sans-serif" font-size="14" lengthAdjust="spacing" text-decoration="underline" textLength="13" x="413" y="57.9659">id</text><text fill="#000000" font-family="sans-serif" font-size="14" lengthAdjust="spacing" textLength="48" x="430" y="57.9659">: string</text><text fill="#000000" font-family="sans-serif" font-size="14" lengthAdjust="spacing" textLength="105" x="413" y="77.0339">nombre : string</text><text fill="#000000" font-family="sans-serif" font-size="14" lengthAdjust="spacing" textLength="89" x="413" y="96.1018">email : string</text><text fill="#000000" font-family="sans-serif" font-size="14" lengthAdjust="spacing" textLength="138" x="413" y="115.1697">fecha_registro : date</text><text fill="#000000" font-family="sans-serif" font-size="14" lengthAdjust="spacing" textLength="117" x="413" y="134.2376">ubicacion : string</text><line style="stroke:#181818;stroke-width:0.5;" x1="408" x2="556" y1="142.3396" y2="142.3396"/></g><!--class ACTIVIDAD--><g id="elem_ACTIVIDAD"><rect codeLine="14" fill="#F1F1F1" height="162.4075" id="ACTIVIDAD" rx="2.5" ry="2.5" style="stroke:#181818;stroke-width:0.5;" width="169" x="95.5" y="229"/><ellipse cx="139.3" cy="245" fill="#FFAAAA" rx="11" ry="11" style="stroke:#181818;stroke-width:1.0;"/><path d="M140.1438,251.75 L137.6906,251.75 L137.6906,241.5 L134.55,241.5 L134.55,239.3594 L143.2844,239.3594 L143.2844,241.5 L140.1438,241.5 L140.1438,251.75 Z " fill="#000000"/><text fill="#000000" font-family="sans-serif" font-size="14" lengthAdjust="spacing" textLength="73" x="159.7" y="250.432">ACTIVIDAD</text><line style="stroke:#181818;stroke-width:0.5;" x1="96.5" x2="263.5" y1="261" y2="261"/><text fill="#000000" font-family="sans-serif" font-size="14" lengthAdjust="spacing" text-decoration="underline" textLength="13" x="115.5" y="279.9659">id</text><text fill="#000000" font-family="sans-serif" font-size="14" lengthAdjust="spacing" textLength="48" x="132.5" y="279.9659">: string</text><polygon fill="none" points="106.5,290.1019,110.5,294.1019,106.5,298.1019,102.5,294.1019" style="stroke:#B38D22;stroke-width:1.0;"/><text fill="#000000" font-family="sans-serif" font-size="14" lengthAdjust="spacing" textLength="131" x="115.5" y="299.0339">usuario_id# : string</text><polygon fill="none" points="106.5,309.1698,110.5,313.1698,106.5,317.1698,102.5,313.1698" style="stroke:#B38D22;stroke-width:1.0;"/><text fill="#000000" font-family="sans-serif" font-size="14" lengthAdjust="spacing" textLength="143" x="115.5" y="318.1018">categoria_id# : string</text><text fill="#000000" font-family="sans-serif" font-size="14" lengthAdjust="spacing" textLength="75" x="115.5" y="337.1697">valor : float</text><text fill="#000000" font-family="sans-serif" font-size="14" lengthAdjust="spacing" textLength="79" x="115.5" y="356.2376">fecha : date</text><text fill="#000000" font-family="sans-serif" font-size="14" lengthAdjust="spacing" textLength="130" x="115.5" y="375.3055">descripcion : string</text><line style="stroke:#181818;stroke-width:0.5;" x1="96.5" x2="263.5" y1="383.4075" y2="383.4075"/></g><!--class CATEGORIA--><g id="elem_CATEGORIA"><rect codeLine="23" fill="#F1F1F1" height="105.2038" id="CATEGORIA" rx="2.5" ry="2.5" style="stroke:#181818;stroke-width:0.5;" width="152" x="7" y="479.5"/><ellipse cx="40.9" cy="495.5" fill="#FFAAAA" rx="11" ry="11" style="stroke:#181818;stroke-width:1.0;"/><path d="M41.7438,502.25 L39.2906,502.25 L39.2906,492 L36.15,492 L36.15,489.8594 L44.8844,489.8594 L44.8844,492 L41.7438,492 L41.7438,502.25 Z " fill="#000000"/><text fill="#000000" font-family="sans-serif" font-size="14" lengthAdjust="spacing" textLength="78" x="59.1" y="500.932">CATEGORIA</text><line style="stroke:#181818;stroke-width:0.5;" x1="8" x2="158" y1="511.5" y2="511.5"/><text fill="#000000" font-family="sans-serif" font-size="14" lengthAdjust="spacing" text-decoration="underline" textLength="13" x="13" y="530.4659">id</text><text fill="#000000" font-family="sans-serif" font-size="14" lengthAdjust="spacing" textLength="48" x="30" y="530.4659">: string</text><text fill="#000000" font-family="sans-serif" font-size="14" lengthAdjust="spacing" textLength="105" x="13" y="549.5339">nombre : string</text><text fill="#000000" font-family="sans-serif" font-size="14" lengthAdjust="spacing" textLength="140" x="13" y="568.6018">factor_emision : float</text><line style="stroke:#181818;stroke-width:0.5;" x1="8" x2="158" y1="576.7038" y2="576.7038"/></g><!--class HUELLA_CARBONO--><g id="elem_HUELLA_CARBONO"><rect codeLine="29" fill="#F1F1F1" height="124.2717" id="HUELLA_CARBONO" rx="2.5" ry="2.5" style="stroke:#181818;stroke-width:0.5;" width="167" x="194.5" y="470"/><ellipse cx="213.55" cy="486" fill="#FFAAAA" rx="11" ry="11" style="stroke:#181818;stroke-width:1.0;"/><path d="M214.3938,492.75 L211.9406,492.75 L211.9406,482.5 L208.8,482.5 L208.8,480.3594 L217.5344,480.3594 L217.5344,482.5 L214.3938,482.5 L214.3938,492.75 Z " fill="#000000"/><text fill="#000000" font-family="sans-serif" font-size="14" lengthAdjust="spacing" textLength="126" x="228.45" y="491.432">HUELLA_CARBONO</text><line style="stroke:#181818;stroke-width:0.5;" x1="195.5" x2="360.5" y1="502" y2="502"/><text fill="#000000" font-family="sans-serif" font-size="14" lengthAdjust="spacing" text-decoration="underline" textLength="13" x="214.5" y="520.9659">id</text><text fill="#000000" font-family="sans-serif" font-size="14" lengthAdjust="spacing" textLength="48" x="231.5" y="520.9659">: string</text><polygon fill="none" points="205.5,531.1019,209.5,535.1019,205.5,539.1019,201.5,535.1019" style="stroke:#B38D22;stroke-width:1.0;"/><text fill="#000000" font-family="sans-serif" font-size="14" lengthAdjust="spacing" textLength="141" x="214.5" y="540.0339">actividad_id# : string</text><text fill="#000000" font-family="sans-serif" font-size="14" lengthAdjust="spacing" textLength="75" x="214.5" y="559.1018">valor : float</text><text fill="#000000" font-family="sans-serif" font-size="14" lengthAdjust="spacing" textLength="132" x="214.5" y="578.1697">fecha_calculo : date</text><line style="stroke:#181818;stroke-width:0.5;" x1="195.5" x2="360.5" y1="586.2717" y2="586.2717"/></g><!--class OBJETIVO--><g id="elem_OBJETIVO"><rect codeLine="36" fill="#F1F1F1" height="162.4075" id="OBJETIVO" rx="2.5" ry="2.5" style="stroke:#181818;stroke-width:0.5;" width="160" x="300" y="229"/><ellipse cx="343.8" cy="245" fill="#FFAAAA" rx="11" ry="11" style="stroke:#181818;stroke-width:1.0;"/><path d="M344.6438,251.75 L342.1906,251.75 L342.1906,241.5 L339.05,241.5 L339.05,239.3594 L347.7844,239.3594 L347.7844,241.5 L344.6438,241.5 L344.6438,251.75 Z " fill="#000000"/><text fill="#000000" font-family="sans-serif" font-size="14" lengthAdjust="spacing" textLength="64" x="364.2" y="250.432">OBJETIVO</text><line style="stroke:#181818;stroke-width:0.5;" x1="301" x2="459" y1="261" y2="261"/><text fill="#000000" font-family="sans-serif" font-size="14" lengthAdjust="spacing" text-decoration="underline" textLength="13" x="320" y="279.9659">id</text><text fill="#000000" font-family="sans-serif" font-size="14" lengthAdjust="spacing" textLength="48" x="337" y="279.9659">: string</text><polygon fill="none" points="311,290.1019,315,294.1019,311,298.1019,307,294.1019" style="stroke:#B38D22;stroke-width:1.0;"/><text fill="#000000" font-family="sans-serif" font-size="14" lengthAdjust="spacing" textLength="131" x="320" y="299.0339">usuario_id# : string</text><text fill="#000000" font-family="sans-serif" font-size="14" lengthAdjust="spacing" textLength="134" x="320" y="318.1018">valor_objetivo : float</text><text fill="#000000" font-family="sans-serif" font-size="14" lengthAdjust="spacing" textLength="121" x="320" y="337.1697">fecha_inicio : date</text><text fill="#000000" font-family="sans-serif" font-size="14" lengthAdjust="spacing" textLength="103" x="320" y="356.2376">fecha_fin : date</text><text fill="#000000" font-family="sans-serif" font-size="14" lengthAdjust="spacing" textLength="97" x="320" y="375.3055">estado : string</text><line style="stroke:#181818;stroke-width:0.5;" x1="301" x2="459" y1="383.4075" y2="383.4075"/></g><!--class LOGRO--><g id="elem_LOGRO"><rect codeLine="45" fill="#F1F1F1" height="143.3396" id="LOGRO" rx="2.5" ry="2.5" style="stroke:#181818;stroke-width:0.5;" width="178" x="495" y="238.5"/><ellipse cx="555.75" cy="254.5" fill="#FFAAAA" rx="11" ry="11" style="stroke:#181818;stroke-width:1.0;"/><path d="M556.5938,261.25 L554.1406,261.25 L554.1406,251 L551,251 L551,248.8594 L559.7344,248.8594 L559.7344,251 L556.5938,251 L556.5938,261.25 Z " fill="#000000"/><text fill="#000000" font-family="sans-serif" font-size="14" lengthAdjust="spacing" textLength="48" x="576.25" y="259.932">LOGRO</text><line style="stroke:#181818;stroke-width:0.5;" x1="496" x2="672" y1="270.5" y2="270.5"/><text fill="#000000" font-family="sans-serif" font-size="14" lengthAdjust="spacing" text-decoration="underline" textLength="13" x="515" y="289.4659">id</text><text fill="#000000" font-family="sans-serif" font-size="14" lengthAdjust="spacing" textLength="48" x="532" y="289.4659">: string</text><polygon fill="none" points="506,299.6019,510,303.6019,506,307.6019,502,303.6019" style="stroke:#B38D22;stroke-width:1.0;"/><text fill="#000000" font-family="sans-serif" font-size="14" lengthAdjust="spacing" textLength="131" x="515" y="308.5339">usuario_id# : string</text><text fill="#000000" font-family="sans-serif" font-size="14" lengthAdjust="spacing" textLength="105" x="515" y="327.6018">nombre : string</text><text fill="#000000" font-family="sans-serif" font-size="14" lengthAdjust="spacing" textLength="152" x="515" y="346.6697">fecha_obtencion : date</text><text fill="#000000" font-family="sans-serif" font-size="14" lengthAdjust="spacing" textLength="130" x="515" y="365.7376">descripcion : string</text><line style="stroke:#181818;stroke-width:0.5;" x1="496" x2="672" y1="373.8396" y2="373.8396"/></g><!--class RECOMENDACION--><g id="elem_RECOMENDACION"><rect codeLine="53" fill="#F1F1F1" height="143.3396" id="RECOMENDACION" rx="2.5" ry="2.5" style="stroke:#181818;stroke-width:0.5;" width="187" x="707.5" y="238.5"/><ellipse cx="736.45" cy="254.5" fill="#FFAAAA" rx="11" ry="11" style="stroke:#181818;stroke-width:1.0;"/><path d="M737.2938,261.25 L734.8406,261.25 L734.8406,251 L731.7,251 L731.7,248.8594 L740.4344,248.8594 L740.4344,251 L737.2938,251 L737.2938,261.25 Z " fill="#000000"/><text fill="#000000" font-family="sans-serif" font-size="14" lengthAdjust="spacing" textLength="124" x="753.55" y="259.932">RECOMENDACION</text><line style="stroke:#181818;stroke-width:0.5;" x1="708.5" x2="893.5" y1="270.5" y2="270.5"/><text fill="#000000" font-family="sans-serif" font-size="14" lengthAdjust="spacing" text-decoration="underline" textLength="13" x="727.5" y="289.4659">id</text><text fill="#000000" font-family="sans-serif" font-size="14" lengthAdjust="spacing" textLength="48" x="744.5" y="289.4659">: string</text><polygon fill="none" points="718.5,299.6019,722.5,303.6019,718.5,307.6019,714.5,303.6019" style="stroke:#B38D22;stroke-width:1.0;"/><text fill="#000000" font-family="sans-serif" font-size="14" lengthAdjust="spacing" textLength="131" x="727.5" y="308.5339">usuario_id# : string</text><text fill="#000000" font-family="sans-serif" font-size="14" lengthAdjust="spacing" textLength="119" x="727.5" y="327.6018">contenido : string</text><text fill="#000000" font-family="sans-serif" font-size="14" lengthAdjust="spacing" textLength="161" x="727.5" y="346.6697">fecha_generacion : date</text><text fill="#000000" font-family="sans-serif" font-size="14" lengthAdjust="spacing" textLength="97" x="727.5" y="365.7376">estado : string</text><line style="stroke:#181818;stroke-width:0.5;" x1="708.5" x2="893.5" y1="373.8396" y2="373.8396"/></g><!--link USUARIO to ACTIVIDAD--><g id="link_USUARIO_ACTIVIDAD"><path codeLine="61" d="M400.2398,139.9429 C362.6298,167.9029 322.96,197.64 282,229 C276.37,233.31 284.8081,226.7445 278.9881,231.2545 " fill="none" id="USUARIO-ACTIVIDAD" style="stroke:#181818;stroke-width:1.0;"/><line style="stroke:#181818;stroke-width:1.0;" x1="401.0634" x2="405.8363" y1="134.3463" y2="140.7666"/><line style="stroke:#181818;stroke-width:1.0;" x1="398.6558" x2="403.4288" y1="136.1362" y2="142.5564"/><line style="stroke:#181818;stroke-width:1.0;" x1="400.2398" x2="406.66" y1="139.9429" y2="135.17"/><line style="stroke:#181818;stroke-width:1.0;" x1="271.0836" x2="268.4352" y1="237.3798" y2="247.0227"/><line style="stroke:#181818;stroke-width:1.0;" x1="271.0836" x2="261.0848" y1="237.3798" y2="237.5373"/><line style="stroke:#181818;stroke-width:1.0;" x1="271.0836" x2="264.76" y1="237.3798" y2="242.28"/><ellipse cx="275.8263" cy="233.7046" fill="none" rx="4" ry="4" style="stroke:#181818;stroke-width:1.0;"/><text fill="#000000" font-family="sans-serif" font-size="13" lengthAdjust="spacing" textLength="38" x="344" y="194.897">realiza</text></g><!--link USUARIO to OBJETIVO--><g id="link_USUARIO_OBJETIVO"><path codeLine="62" d="M447.3114,157.5407 C436.2514,182.4307 434.2993,186.8209 422.9193,212.4309 " fill="none" id="USUARIO-OBJETIVO" style="stroke:#181818;stroke-width:1.0;"/><line style="stroke:#181818;stroke-width:1.0;" x1="445.2804" x2="452.5911" y1="152.2611" y2="155.5096"/><line style="stroke:#181818;stroke-width:1.0;" x1="444.0621" x2="451.3729" y1="155.0026" y2="158.2512"/><line style="stroke:#181818;stroke-width:1.0;" x1="447.3114" x2="450.56" y1="157.5407" y2="150.23"/><line style="stroke:#181818;stroke-width:1.0;" x1="418.8586" x2="421.093" y1="221.5693" y2="231.3164"/><line style="stroke:#181818;stroke-width:1.0;" x1="418.8586" x2="410.127" y1="221.5693" y2="226.4436"/><line style="stroke:#181818;stroke-width:1.0;" x1="418.8586" x2="415.61" y1="221.5693" y2="228.88"/><ellipse cx="421.295" cy="216.0862" fill="none" rx="4" ry="4" style="stroke:#181818;stroke-width:1.0;"/><text fill="#000000" font-family="sans-serif" font-size="13" lengthAdjust="spacing" textLength="56" x="439" y="194.897">establece</text></g><!--link USUARIO to LOGRO--><g id="link_USUARIO_LOGRO"><path codeLine="63" d="M516.6894,157.5404 C529.0994,185.4604 532.7733,193.7197 545.1833,221.6597 " fill="none" id="USUARIO-LOGRO" style="stroke:#181818;stroke-width:1.0;"/><line style="stroke:#181818;stroke-width:1.0;" x1="511.4095" x2="518.7199" y1="155.5099" y2="152.2605"/><line style="stroke:#181818;stroke-width:1.0;" x1="512.628" x2="519.9384" y1="158.2513" y2="155.0019"/><line style="stroke:#181818;stroke-width:1.0;" x1="516.6894" x2="513.44" y1="157.5404" y2="150.23"/><line style="stroke:#181818;stroke-width:1.0;" x1="549.2426" x2="557.9734" y1="230.7988" y2="235.6744"/><line style="stroke:#181818;stroke-width:1.0;" x1="549.2426" x2="547.0066" y1="230.7988" y2="240.5456"/><line style="stroke:#181818;stroke-width:1.0;" x1="549.2426" x2="552.49" y1="230.7988" y2="238.11"/><ellipse cx="546.807" cy="225.3153" fill="none" rx="4" ry="4" style="stroke:#181818;stroke-width:1.0;"/><text fill="#000000" font-family="sans-serif" font-size="13" lengthAdjust="spacing" textLength="46" x="534" y="194.897">obtiene</text></g><!--link ACTIVIDAD to CATEGORIA--><g id="link_ACTIVIDAD_CATEGORIA"><path codeLine="64" d="M141.4821,398.3699 C128.4821,427.8499 120.5574,445.8099 108.9574,472.1199 " fill="none" id="ACTIVIDAD-CATEGORIA" style="stroke:#181818;stroke-width:1.0;"/><line style="stroke:#181818;stroke-width:1.0;" x1="139.4361" x2="146.756" y1="393.096" y2="396.3239"/><line style="stroke:#181818;stroke-width:1.0;" x1="138.2256" x2="145.5455" y1="395.8409" y2="399.0688"/><line style="stroke:#181818;stroke-width:1.0;" x1="141.4821" x2="144.71" y1="398.3699" y2="391.05"/><line style="stroke:#181818;stroke-width:1.0;" x1="108.9574" x2="111.2201" y1="472.1199" y2="481.8606"/><line style="stroke:#181818;stroke-width:1.0;" x1="108.9574" x2="100.2399" y1="472.1199" y2="477.0194"/><line style="stroke:#181818;stroke-width:1.0;" x1="108.9574" x2="105.73" y1="472.1199" y2="479.44"/><line style="stroke:#181818;stroke-width:1.0;" x1="113.4243" x2="106.1042" y1="471.9036" y2="468.6762"/><text fill="#000000" font-family="sans-serif" font-size="13" lengthAdjust="spacing" textLength="60" x="133" y="435.897">pertenece</text></g><!--link ACTIVIDAD to HUELLA_CARBONO--><g id="link_ACTIVIDAD_HUELLA_CARBONO"><path codeLine="65" d="M222.9846,407.4924 C234.5846,433.5324 236.6853,438.252 247.5653,462.682 " fill="none" id="ACTIVIDAD-HUELLA_CARBONO" style="stroke:#181818;stroke-width:1.0;"/><line style="stroke:#181818;stroke-width:1.0;" x1="218.9154" x2="210.1792" y1="398.3577" y2="393.4915"/><line style="stroke:#181818;stroke-width:1.0;" x1="218.9154" x2="221.1408" y1="398.3577" y2="388.6085"/><line style="stroke:#181818;stroke-width:1.0;" x1="218.9154" x2="215.66" y1="398.3577" y2="391.05"/><ellipse cx="221.3569" cy="403.8385" fill="none" rx="4" ry="4" style="stroke:#181818;stroke-width:1.0;"/><line style="stroke:#181818;stroke-width:1.0;" x1="252.8467" x2="245.5387" y1="464.7087" y2="467.9633"/><line style="stroke:#181818;stroke-width:1.0;" x1="251.6262" x2="244.3182" y1="461.9682" y2="465.2228"/><line style="stroke:#181818;stroke-width:1.0;" x1="247.5653" x2="250.82" y1="462.682" y2="469.99"/><text fill="#000000" font-family="sans-serif" font-size="13" lengthAdjust="spacing" textLength="42" x="236" y="435.897">genera</text></g><!--link USUARIO to RECOMENDACION--><g id="link_USUARIO_RECOMENDACION"><path codeLine="66" d="M563.6066,138.1184 C603.1566,166.5384 645.97,197.31 690,229 C695.69,233.09 686.9347,226.7893 692.8347,231.0393 " fill="none" id="USUARIO-RECOMENDACION" style="stroke:#181818;stroke-width:1.0;"/><line style="stroke:#181818;stroke-width:1.0;" x1="558.0241" x2="562.6925" y1="139.0325" y2="132.5359"/><line style="stroke:#181818;stroke-width:1.0;" x1="560.4604" x2="565.1287" y1="140.7831" y2="134.2865"/><line style="stroke:#181818;stroke-width:1.0;" x1="563.6066" x2="557.11" y1="138.1184" y2="133.45"/><line style="stroke:#181818;stroke-width:1.0;" x1="700.9488" x2="710.9469" y1="236.8841" y2="236.6916"/><line style="stroke:#181818;stroke-width:1.0;" x1="700.9488" x2="703.9331" y1="236.8841" y2="246.4284"/><line style="stroke:#181818;stroke-width:1.0;" x1="700.9488" x2="707.44" y1="236.8841" y2="241.56"/><ellipse cx="696.0803" cy="233.3772" fill="none" rx="4" ry="4" style="stroke:#181818;stroke-width:1.0;"/><text fill="#000000" font-family="sans-serif" font-size="13" lengthAdjust="spacing" textLength="36" x="646" y="194.897">recibe</text></g><!--SRC=[hPJVZvf04CVV-Ilsz4KIBtrlZ0c7t9N6IaBrNico37HQs3KBNBpg_UyTGFbXxSLhvCLrvilEP-Qxorq4CKfWQnwcC94yWsa4kJ2PI7cUioh0UCv6LN34PZCsMK_7ZuyMFIQRpusxu_jRZHdNhy4lU9tiJ3OhvxlPfxBBnqe39lAK7-_6Xj7Kt7pVMBxhJTdek1gPR6ymUlfxOcIopomlDCgaJagLXHg6CSWufiDG3E873pGaI455kOWNK6VA40KNg6Jtmjk9oRBNxhExi1P4rQwlu-etMkObrwY2TqM2W1AbaVyjU-6fqXIAKyMBhfr-5vKl6hV_wCEsriwJvxiMzT6k_t- -CHU5qW5ac3Vr6h2st9UDirnQWMtv3zwgSdGO-FW0gHw-OCIZgsSJ29wACcsTRjcyXwyE6LbHdPOtDBIc2LJu4mXONS12YUHHtxacJfUZ7uIyu96wuEJIU_8hzlhtXk0NRQx9L5Y0F9whAu-RxzZUDsUri6pNMn7iuFyDeOMIn8RzGNNS2KZG_1pymc2FdnjsEDpVgprhxpc9DF0KV_DpoUdWaABQZreMSAwf3I81ZG-9nEYshGI7FMll8OcseAcHQfTEzgP8Tc33gqFQfg_pSeCHr-G2Gp3-0000]--></g></svg>