<?xml version="1.0" encoding="us-ascii" standalone="no"?><svg xmlns="http://www.w3.org/2000/svg" xmlns:xlink="http://www.w3.org/1999/xlink" contentStyleType="text/css" height="910px" preserveAspectRatio="none" style="width:667px;height:910px;background:#FFFFFF;" version="1.1" viewBox="0 0 667 910" width="667px" zoomAndPan="magnify"><defs/><g><g id="SISTEMA_INICIAL"><rect fill="#F1F1F1" height="50" rx="12.5" ry="12.5" style="stroke:#181818;stroke-width:0.5;" width="136" x="231" y="7"/><line style="stroke:#181818;stroke-width:0.5;" x1="231" x2="367" y1="36.0679" y2="36.0679"/><text fill="#000000" font-family="sans-serif" font-size="14" lengthAdjust="spacing" textLength="116" x="241" y="26.9659">SISTEMA_INICIAL</text></g><path d="M19.5,117 L578.5,117 A12.5,12.5 0 0 1 591,129.5 L591,146.0679 L7,146.0679 L7,129.5 A12.5,12.5 0 0 1 19.5,117 " fill="#F1F1F1" style="stroke:#F1F1F1;stroke-width:1.0;"/><rect fill="none" height="677.0679" rx="12.5" ry="12.5" style="stroke:#181818;stroke-width:0.5;" width="584" x="7" y="117"/><line style="stroke:#181818;stroke-width:0.5;" x1="7" x2="591" y1="146.0679" y2="146.0679"/><text fill="#000000" font-family="sans-serif" font-size="14" lengthAdjust="spacing" textLength="122" x="238" y="136.9659">seleccionarModo()</text><g id="seleccionarModo.PresentandoOpciones"><rect fill="#F1F1F1" height="50" rx="12.5" ry="12.5" style="stroke:#181818;stroke-width:0.5;" width="50" x="19" y="250.0679"/><line style="stroke:#181818;stroke-width:0.5;" x1="19" x2="69" y1="279.1358" y2="279.1358"/><text fill="#000000" font-family="sans-serif" font-size="14" lengthAdjust="spacing" textLength="4" x="42" y="270.0339">&#160;</text></g><g id="seleccionarModo.ModoSeleccionado"><rect fill="#F1F1F1" height="50" rx="12.5" ry="12.5" style="stroke:#181818;stroke-width:0.5;" width="50" x="19" y="462.0679"/><line style="stroke:#181818;stroke-width:0.5;" x1="19" x2="69" y1="491.1358" y2="491.1358"/><text fill="#000000" font-family="sans-serif" font-size="14" lengthAdjust="spacing" textLength="4" x="42" y="482.0339">&#160;</text></g><ellipse cx="44" cy="167.0679" fill="#222222" rx="10" ry="10" style="stroke:#222222;stroke-width:1.0;"/><ellipse cx="44" cy="773.0679" fill="none" rx="11" ry="11" style="stroke:#222222;stroke-width:1.0;"/><ellipse cx="44" cy="773.0679" fill="#222222" rx="6" ry="6" style="stroke:#222222;stroke-width:1.0;"/><!--link *start*seleccionarModo to PresentandoOpciones--><g id="link_*start*seleccionarModo_PresentandoOpciones"><path d="M44,177.1079 C44,193.0279 44,220.5779 44,243.7079 " fill="none" id="*start*seleccionarModo-to-PresentandoOpciones" style="stroke:#008000;stroke-width:1.0;"/><polygon fill="#008000" points="44,249.7079,48,240.7079,44,244.7079,40,240.7079,44,249.7079" style="stroke:#008000;stroke-width:1.0;"/><path d="M49,200.0679 L49,227.0679 L268,227.0679 L268,210.0679 L258,200.0679 L49,200.0679 " fill="#FEFFDD" style="stroke:#181818;stroke-width:0.5;"/><path d="M258,200.0679 L258,210.0679 L268,210.0679 L258,200.0679 " fill="#FEFFDD" style="stroke:#181818;stroke-width:0.5;"/><text fill="#000000" font-family="sans-serif" font-size="13" font-weight="bold" lengthAdjust="spacing" textLength="46" x="55" y="218.9649">M&#250;sico</text><text fill="#000000" font-family="sans-serif" font-size="13" lengthAdjust="spacing" textLength="149" x="104" y="218.9649">solicita seleccionar modo</text></g><!--link PresentandoOpciones to ModoSeleccionado--><g id="link_PresentandoOpciones_ModoSeleccionado"><path d="M44,300.1579 C44,340.5579 44,415.5079 44,455.9379 " fill="none" id="PresentandoOpciones-to-ModoSeleccionado" style="stroke:#008000;stroke-width:1.0;"/><polygon fill="#008000" points="44,461.9379,48,452.9379,44,456.9379,40,452.9379,44,461.9379" style="stroke:#008000;stroke-width:1.0;"/><path d="M49,323.0679 L49,439.0679 L292,439.0679 L292,333.0679 L282,323.0679 L49,323.0679 " fill="#FEFFDD" style="stroke:#181818;stroke-width:0.5;"/><path d="M282,323.0679 L282,333.0679 L292,333.0679 L282,323.0679 " fill="#FEFFDD" style="stroke:#181818;stroke-width:0.5;"/><text fill="#000000" font-family="sans-serif" font-size="13" font-weight="bold" lengthAdjust="spacing" textLength="52" x="55" y="341.9649">Sistema</text><text fill="#000000" font-family="sans-serif" font-size="13" lengthAdjust="spacing" textLength="167" x="110" y="341.9649">presenta opciones de modo</text><text fill="#000000" font-family="sans-serif" font-size="13" lengthAdjust="spacing" textLength="47" x="55" y="359.6709">&#8226; Mayor</text><text fill="#000000" font-family="sans-serif" font-size="13" lengthAdjust="spacing" textLength="96" x="55" y="377.377">&#8226; Menor Natural</text><text fill="#000000" font-family="sans-serif" font-size="13" lengthAdjust="spacing" textLength="3" x="55" y="395.083">&#160;</text><text fill="#000000" font-family="sans-serif" font-size="13" font-weight="bold" lengthAdjust="spacing" textLength="52" x="55" y="412.789">Sistema</text><text fill="#000000" font-family="sans-serif" font-size="13" lengthAdjust="spacing" textLength="99" x="110" y="412.789">permite solicitar:</text><text fill="#000000" font-family="sans-serif" font-size="13" lengthAdjust="spacing" textLength="44" x="55" y="430.495">&#8226; Modo</text></g><!--link ModoSeleccionado to *end*seleccionarModo--><g id="link_ModoSeleccionado_*end*seleccionarModo"><path d="M44,512.2779 C44,571.4379 44,715.4179 44,755.8779 " fill="none" id="ModoSeleccionado-to-*end*seleccionarModo" style="stroke:#008000;stroke-width:1.0;"/><polygon fill="#008000" points="44,761.8779,48,752.8779,44,756.8779,40,752.8779,44,761.8779" style="stroke:#008000;stroke-width:1.0;"/><path d="M49,535.0679 L49,739.0679 L582,739.0679 L582,545.0679 L572,535.0679 L49,535.0679 " fill="#FEFFDD" style="stroke:#181818;stroke-width:0.5;"/><path d="M572,535.0679 L572,545.0679 L582,545.0679 L572,535.0679 " fill="#FEFFDD" style="stroke:#181818;stroke-width:0.5;"/><text fill="#000000" font-family="sans-serif" font-size="13" font-weight="bold" lengthAdjust="spacing" textLength="46" x="55" y="553.9649">M&#250;sico</text><text fill="#000000" font-family="sans-serif" font-size="13" lengthAdjust="spacing" textLength="142" x="104" y="553.9649">solicita introducir modo</text><text fill="#000000" font-family="sans-serif" font-size="13" lengthAdjust="spacing" textLength="3" x="55" y="571.6709">&#160;</text><text fill="#000000" font-family="sans-serif" font-size="13" font-weight="bold" lengthAdjust="spacing" textLength="52" x="55" y="589.377">Sistema</text><text fill="#000000" font-family="sans-serif" font-size="13" lengthAdjust="spacing" textLength="213" x="110" y="589.377">registra modo como contexto tonal</text><text fill="#000000" font-family="sans-serif" font-size="13" lengthAdjust="spacing" textLength="354" x="55" y="607.083">&#8226; Establece modo como tipo de escala del sistema arm&#243;nico</text><text fill="#000000" font-family="sans-serif" font-size="13" lengthAdjust="spacing" textLength="293" x="55" y="624.789">&#8226; Actualiza presentaci&#243;n del contexto tonal actual</text><text fill="#000000" font-family="sans-serif" font-size="13" lengthAdjust="spacing" textLength="386" x="55" y="642.495">&#8226; Si existe mapa arm&#243;nico previo, lo regenera con el nuevo modo</text><text fill="#000000" font-family="sans-serif" font-size="13" lengthAdjust="spacing" textLength="3" x="55" y="660.201">&#160;</text><text fill="#000000" font-family="sans-serif" font-size="13" font-weight="bold" lengthAdjust="spacing" textLength="52" x="55" y="677.907">Sistema</text><text fill="#000000" font-family="sans-serif" font-size="13" lengthAdjust="spacing" textLength="99" x="110" y="677.907">permite solicitar:</text><text fill="#000000" font-family="sans-serif" font-size="13" lengthAdjust="spacing" textLength="114" x="55" y="695.6131">&#8226; seleccionar t&#243;nica</text><text fill="#000000" font-family="sans-serif" font-size="13" lengthAdjust="spacing" textLength="324" x="55" y="713.3191">&#8226; generar mapa arm&#243;nico (si est&#225; en SISTEMA_INICIAL)</text><text fill="#000000" font-family="sans-serif" font-size="13" lengthAdjust="spacing" textLength="512" x="55" y="731.0251">&#8226; continuar construcci&#243;n de progresi&#243;n (si est&#225; en PROGRESION_EN_CONSTRUCCION)</text></g><g id="MAPA_DISPONIBLE"><rect fill="#F1F1F1" height="50" rx="12.5" ry="12.5" style="stroke:#181818;stroke-width:0.5;" width="147" x="225.5" y="854"/><line style="stroke:#181818;stroke-width:0.5;" x1="225.5" x2="372.5" y1="883.0679" y2="883.0679"/><text fill="#000000" font-family="sans-serif" font-size="14" lengthAdjust="spacing" textLength="127" x="235.5" y="873.9659">MAPA_DISPONIBLE</text></g><g id="PROGRESION_EN_CONSTRUCCION_2"><rect fill="#F1F1F1" height="50" rx="12.5" ry="12.5" style="stroke:#181818;stroke-width:0.5;" width="252" x="402" y="7"/><line style="stroke:#181818;stroke-width:0.5;" x1="402" x2="654" y1="36.0679" y2="36.0679"/><text fill="#000000" font-family="sans-serif" font-size="14" lengthAdjust="spacing" textLength="232" x="412" y="26.9659">PROGRESION_EN_CONSTRUCCION</text></g><g id="PROGRESION_EN_CONSTRUCCION"><rect fill="#F1F1F1" height="50" rx="12.5" ry="12.5" style="stroke:#181818;stroke-width:0.5;" width="252" x="408" y="854"/><line style="stroke:#181818;stroke-width:0.5;" x1="408" x2="660" y1="883.0679" y2="883.0679"/><text fill="#000000" font-family="sans-serif" font-size="14" lengthAdjust="spacing" textLength="232" x="418" y="873.9659">PROGRESION_EN_CONSTRUCCION</text></g><!--link SISTEMA_INICIAL to seleccionarModo--><g id="link_SISTEMA_INICIAL_seleccionarModo"><path d="M292.66,57.18 C290.96,71.96 289.854,86.6854 288.824,110.9954 " fill="none" id="SISTEMA_INICIAL-to-seleccionarModo" style="stroke:#008000;stroke-width:1.0;"/><polygon fill="#008000" points="288.57,116.99,292.9474,108.1674,288.7817,111.9945,284.9546,107.8287,288.57,116.99" style="stroke:#008000;stroke-width:1.0;"/></g><!--link seleccionarModo to SISTEMA_INICIAL--><g id="link_seleccionarModo_SISTEMA_INICIAL"><path d="M310.04,116.99 C308.96,92.68 308.2354,77.916 306.4354,63.136 " fill="none" id="seleccionarModo-to-SISTEMA_INICIAL" style="stroke:#008000;stroke-width:1.0;"/><polygon fill="#008000" points="305.71,57.18,302.8274,66.5976,306.3145,62.1433,310.7687,65.6304,305.71,57.18" style="stroke:#008000;stroke-width:1.0;"/></g><!--link MAPA_DISPONIBLE to seleccionarModo--><g id="link_MAPA_DISPONIBLE_seleccionarModo"><path d="M305.71,853.89 C307.5,839.15 308.683,824.4641 309.763,800.2141 " fill="none" id="MAPA_DISPONIBLE-to-seleccionarModo" style="stroke:#008000;stroke-width:1.0;"/><polygon fill="#008000" points="310.03,794.22,305.6335,803.0331,309.8075,799.215,313.6256,803.3891,310.03,794.22" style="stroke:#008000;stroke-width:1.0;"/></g><!--link seleccionarModo to MAPA_DISPONIBLE--><g id="link_seleccionarModo_MAPA_DISPONIBLE"><path d="M288.58,794.22 C289.61,818.47 290.2826,833.1895 291.9826,847.9295 " fill="none" id="seleccionarModo-to-MAPA_DISPONIBLE" style="stroke:#008000;stroke-width:1.0;"/><polygon fill="#008000" points="292.67,853.89,295.6125,844.491,292.0971,848.9229,287.6652,845.4076,292.67,853.89" style="stroke:#008000;stroke-width:1.0;"/></g><!--link PROGRESION_EN_CONSTRUCCION_2 to seleccionarModo--><g id="link_PROGRESION_EN_CONSTRUCCION_2_seleccionarModo"><path d="M514.87,57.18 C506.83,71.96 498.4448,87.4081 485.2348,111.7181 " fill="none" id="PROGRESION_EN_CONSTRUCCION_2-to-seleccionarModo" style="stroke:#008000;stroke-width:1.0;"/><polygon fill="#008000" points="482.37,116.99,490.1817,110.9919,484.7573,112.5967,483.1525,107.1723,482.37,116.99" style="stroke:#008000;stroke-width:1.0;"/></g><!--link seleccionarModo to PROGRESION_EN_CONSTRUCCION--><g id="link_seleccionarModo_PROGRESION_EN_CONSTRUCCION"><path d="M487.29,794.22 C500.81,818.47 509.4177,833.9098 517.6377,848.6498 " fill="none" id="seleccionarModo-to-PROGRESION_EN_CONSTRUCCION" style="stroke:#008000;stroke-width:1.0;"/><polygon fill="#008000" points="520.56,853.89,519.67,844.0814,518.1247,849.5231,512.683,847.9778,520.56,853.89" style="stroke:#008000;stroke-width:1.0;"/></g><!--SRC=[bLJ1Qjj04BthAmRt4fU6Geyb15HN144a6IizXM3Mgo4iMUsAtLM8MmhzbVONUklLVz8loQpio99Y2MA1qQpUl7blPXdx85J532j12eLkMo5KMcvz40HvdDz4IRYEqtWHXzTmVllktY2gk_DBi2YHSw4LCuakT924ot3zDSwNMHf_kOuciTOnXx1SPLUhA8-pT1sbwqMMvZUhRuk5Zpy1ip0R1yo2oUIfseVYW-Ectk3iR3w37q40zDldpEWXtDAWHUMOAdHMUJZQro1FaBTylgw7tBw_wuaRerAQcBJoCtbe3YusbydkdnLSNtpSa2aj1HUETMr0wUrvCAgYOTZNF56Zf-6LqZ41kR0EIzO8g0wae5ye2pmA-F_h3oHigyqnGgKDfCpLXidW92EQKlZ17AoPpyVaqyQ6mdkkgDDlwwHGpkYYvkBGo5CQ3TvJP5Y30AvB_wSSFZaDZZJ8Ld94bs53qh03TQBIlareEPECtYJOFJamK-x-AjBK4eJSrKoAxwnjDHS4QRBwDO4rq3Op5u1FdXTALdMeFT6Zq1z0Qcy45P8HeW9YL3K-wd7V4xFfNa3N56BjjtqDCzHnPacXTRlVD4yOh9Xvc-nD2bLJEhrHqsl-qW0oecdEjWbxPEDBOJwuFpzf3mmsGFVs35HDOWUBRn8xBZ1u1W00]--></g></svg>