<?xml version="1.0" encoding="us-ascii" standalone="no"?><svg xmlns="http://www.w3.org/2000/svg" xmlns:xlink="http://www.w3.org/1999/xlink" contentStyleType="text/css" height="871px" preserveAspectRatio="none" style="width:844px;height:871px;background:#FFFFFF;" version="1.1" viewBox="0 0 844 871" width="844px" zoomAndPan="magnify"><defs/><g><text fill="#000000" font-family="sans-serif" font-size="14" font-weight="bold" lengthAdjust="spacing" textLength="346" x="242" y="24.9659">Estructura en Memoria: int[][] a = new int[10][100]</text><!--cluster Stack--><g id="cluster_Stack"><path d="M155.5,46.6699 L194.5,46.6699 A3.75,3.75 0 0 1 197,49.1699 L204,71.7378 L284.5,71.7378 A2.5,2.5 0 0 1 287,74.2378 L287,137.1699 A2.5,2.5 0 0 1 284.5,139.6699 L155.5,139.6699 A2.5,2.5 0 0 1 153,137.1699 L153,49.1699 A2.5,2.5 0 0 1 155.5,46.6699 " fill="none" style="stroke:#000000;stroke-width:1.5;"/><line style="stroke:#000000;stroke-width:1.5;" x1="153" x2="204" y1="71.7378" y2="71.7378"/><text fill="#000000" font-family="sans-serif" font-size="14" font-weight="bold" lengthAdjust="spacing" textLength="38" x="157" y="63.6358">Stack</text></g><!--cluster Heap--><g id="cluster_Heap"><path d="M8.5,163.6699 L45.5,163.6699 A3.75,3.75 0 0 1 48,166.1699 L55,188.7378 L834.5,188.7378 A2.5,2.5 0 0 1 837,191.2378 L837,862.1699 A2.5,2.5 0 0 1 834.5,864.6699 L8.5,864.6699 A2.5,2.5 0 0 1 6,862.1699 L6,166.1699 A2.5,2.5 0 0 1 8.5,163.6699 " fill="none" style="stroke:#000000;stroke-width:1.5;"/><line style="stroke:#000000;stroke-width:1.5;" x1="6" x2="55" y1="188.7378" y2="188.7378"/><text fill="#000000" font-family="sans-serif" font-size="14" font-weight="bold" lengthAdjust="spacing" textLength="36" x="10" y="180.6358">Heap</text></g><!--cluster array_principal--><g id="cluster_array_principal"><path d="M214.5,217.6699 L317.5,217.6699 A3.75,3.75 0 0 1 320,220.1699 L327,242.7378 L801.5,242.7378 A2.5,2.5 0 0 1 804,245.2378 L804,324.1699 A2.5,2.5 0 0 1 801.5,326.6699 L214.5,326.6699 A2.5,2.5 0 0 1 212,324.1699 L212,220.1699 A2.5,2.5 0 0 1 214.5,217.6699 " fill="none" style="stroke:#000000;stroke-width:1.5;"/><line style="stroke:#000000;stroke-width:1.5;" x1="212" x2="327" y1="242.7378" y2="242.7378"/><text fill="#000000" font-family="sans-serif" font-size="14" font-weight="bold" lengthAdjust="spacing" textLength="102" x="216" y="234.6358">Array Principal</text></g><!--cluster array0--><g id="cluster_array0"><path d="M40.5,366.6699 L97.5,366.6699 A3.75,3.75 0 0 1 100,369.1699 L107,391.7378 L324.5,391.7378 A2.5,2.5 0 0 1 327,394.2378 L327,582.1699 A2.5,2.5 0 0 1 324.5,584.6699 L40.5,584.6699 A2.5,2.5 0 0 1 38,582.1699 L38,369.1699 A2.5,2.5 0 0 1 40.5,366.6699 " fill="none" style="stroke:#000000;stroke-width:1.5;"/><line style="stroke:#000000;stroke-width:1.5;" x1="38" x2="107" y1="391.7378" y2="391.7378"/><text fill="#000000" font-family="sans-serif" font-size="14" font-weight="bold" lengthAdjust="spacing" textLength="56" x="42" y="383.6358">Array[0]</text></g><!--cluster array1--><g id="cluster_array1"><path d="M369.5,366.6699 L426.5,366.6699 A3.75,3.75 0 0 1 429,369.1699 L436,391.7378 L653.5,391.7378 A2.5,2.5 0 0 1 656,394.2378 L656,582.1699 A2.5,2.5 0 0 1 653.5,584.6699 L369.5,584.6699 A2.5,2.5 0 0 1 367,582.1699 L367,369.1699 A2.5,2.5 0 0 1 369.5,366.6699 " fill="none" style="stroke:#000000;stroke-width:1.5;"/><line style="stroke:#000000;stroke-width:1.5;" x1="367" x2="436" y1="391.7378" y2="391.7378"/><text fill="#000000" font-family="sans-serif" font-size="14" font-weight="bold" lengthAdjust="spacing" textLength="56" x="371" y="383.6358">Array[1]</text></g><!--cluster arrayx--><g id="cluster_arrayx"><path d="M698.5,475.6699 L747.5,475.6699 A3.75,3.75 0 0 1 750,478.1699 L757,500.7378 L792.5,500.7378 A2.5,2.5 0 0 1 795,503.2378 L795,582.1699 A2.5,2.5 0 0 1 792.5,584.6699 L698.5,584.6699 A2.5,2.5 0 0 1 696,582.1699 L696,478.1699 A2.5,2.5 0 0 1 698.5,475.6699 " fill="none" style="stroke:#000000;stroke-width:1.5;"/><line style="stroke:#000000;stroke-width:1.5;" x1="696" x2="757" y1="500.7378" y2="500.7378"/><text fill="#000000" font-family="sans-serif" font-size="14" font-weight="bold" lengthAdjust="spacing" textLength="48" x="700" y="492.6358">array...</text></g><!--cluster array9--><g id="cluster_array9"><path d="M299.5,624.6699 L356.5,624.6699 A3.75,3.75 0 0 1 359,627.1699 L366,649.7378 L583.5,649.7378 A2.5,2.5 0 0 1 586,652.2378 L586,830.1699 A2.5,2.5 0 0 1 583.5,832.6699 L299.5,832.6699 A2.5,2.5 0 0 1 297,830.1699 L297,627.1699 A2.5,2.5 0 0 1 299.5,624.6699 " fill="none" style="stroke:#000000;stroke-width:1.5;"/><line style="stroke:#000000;stroke-width:1.5;" x1="297" x2="366" y1="649.7378" y2="649.7378"/><text fill="#000000" font-family="sans-serif" font-size="14" font-weight="bold" lengthAdjust="spacing" textLength="56" x="301" y="641.6358">Array[9]</text></g><!--entity ref_a--><g id="elem_ref_a"><rect fill="#F1F1F1" height="39.0679" rx="2.5" ry="2.5" style="stroke:#181818;stroke-width:0.5;" width="101" x="169.5" y="84.6699"/><text fill="#000000" font-family="sans-serif" font-size="14" lengthAdjust="spacing" textLength="81" x="179.5" y="109.6358">referencia a</text></g><!--entity length0--><g id="elem_length0"><rect fill="#F1F1F1" height="39.0679" rx="2.5" ry="2.5" style="stroke:#181818;stroke-width:0.5;" width="88" x="692" y="263.6699"/><text fill="#000000" font-family="sans-serif" font-size="14" lengthAdjust="spacing" textLength="68" x="702" y="288.6358">length=10</text></g><!--entity ref0--><g id="elem_ref0"><rect fill="#F1F1F1" height="39.0679" rx="2.5" ry="2.5" style="stroke:#181818;stroke-width:0.5;" width="57" x="255.5" y="263.6699"/><text fill="#000000" font-family="sans-serif" font-size="14" lengthAdjust="spacing" textLength="37" x="265.5" y="288.6358">ref[0]</text></g><!--entity ref1--><g id="elem_ref1"><rect fill="#F1F1F1" height="39.0679" rx="2.5" ry="2.5" style="stroke:#181818;stroke-width:0.5;" width="57" x="347.5" y="263.6699"/><text fill="#000000" font-family="sans-serif" font-size="14" lengthAdjust="spacing" textLength="37" x="357.5" y="288.6358">ref[1]</text></g><!--entity ref2--><g id="elem_ref2"><rect fill="#F1F1F1" height="39.0679" rx="2.5" ry="2.5" style="stroke:#181818;stroke-width:0.5;" width="57" x="439.5" y="263.6699"/><text fill="#000000" font-family="sans-serif" font-size="14" lengthAdjust="spacing" textLength="37" x="449.5" y="288.6358">ref[2]</text></g><!--entity dots1--><g id="elem_dots1"><rect fill="#F1F1F1" height="39.0679" rx="2.5" ry="2.5" style="stroke:#181818;stroke-width:0.5;" width="32" x="532" y="263.6699"/><text fill="#000000" font-family="sans-serif" font-size="14" lengthAdjust="spacing" textLength="12" x="542" y="288.6358">...</text></g><!--entity ref9--><g id="elem_ref9"><rect fill="#F1F1F1" height="39.0679" rx="2.5" ry="2.5" style="stroke:#181818;stroke-width:0.5;" width="57" x="599.5" y="263.6699"/><text fill="#000000" font-family="sans-serif" font-size="14" lengthAdjust="spacing" textLength="37" x="609.5" y="288.6358">ref[9]</text></g><!--entity length1--><g id="elem_length1"><rect fill="#F1F1F1" height="39.0679" rx="2.5" ry="2.5" style="stroke:#181818;stroke-width:0.5;" width="96" x="81" y="412.6699"/><text fill="#000000" font-family="sans-serif" font-size="14" lengthAdjust="spacing" textLength="76" x="91" y="437.6358">length=100</text></g><!--entity val00--><g id="elem_val00"><rect fill="#F1F1F1" height="39.0679" rx="2.5" ry="2.5" style="stroke:#181818;stroke-width:0.5;" width="28" x="212" y="412.6699"/><text fill="#000000" font-family="sans-serif" font-size="14" lengthAdjust="spacing" textLength="8" x="222" y="437.6358">0</text></g><!--entity val01--><g id="elem_val01"><rect fill="#F1F1F1" height="39.0679" rx="2.5" ry="2.5" style="stroke:#181818;stroke-width:0.5;" width="28" x="275" y="412.6699"/><text fill="#000000" font-family="sans-serif" font-size="14" lengthAdjust="spacing" textLength="8" x="285" y="437.6358">1</text></g><!--entity val02--><g id="elem_val02"><rect fill="#F1F1F1" height="39.0679" rx="2.5" ry="2.5" style="stroke:#181818;stroke-width:0.5;" width="28" x="126" y="521.6699"/><text fill="#000000" font-family="sans-serif" font-size="14" lengthAdjust="spacing" textLength="8" x="136" y="546.6358">2</text></g><!--entity dots2--><g id="elem_dots2"><rect fill="#F1F1F1" height="39.0679" rx="2.5" ry="2.5" style="stroke:#181818;stroke-width:0.5;" width="32" x="189" y="521.6699"/><text fill="#000000" font-family="sans-serif" font-size="14" lengthAdjust="spacing" textLength="12" x="199" y="546.6358">...</text></g><!--entity val099--><g id="elem_val099"><rect fill="#F1F1F1" height="39.0679" rx="2.5" ry="2.5" style="stroke:#181818;stroke-width:0.5;" width="36" x="256" y="521.6699"/><text fill="#000000" font-family="sans-serif" font-size="14" lengthAdjust="spacing" textLength="16" x="266" y="546.6358">99</text></g><!--entity length2--><g id="elem_length2"><rect fill="#F1F1F1" height="39.0679" rx="2.5" ry="2.5" style="stroke:#181818;stroke-width:0.5;" width="96" x="410" y="412.6699"/><text fill="#000000" font-family="sans-serif" font-size="14" lengthAdjust="spacing" textLength="76" x="420" y="437.6358">length=100</text></g><!--entity val10--><g id="elem_val10"><rect fill="#F1F1F1" height="39.0679" rx="2.5" ry="2.5" style="stroke:#181818;stroke-width:0.5;" width="28" x="541" y="412.6699"/><text fill="#000000" font-family="sans-serif" font-size="14" lengthAdjust="spacing" textLength="8" x="551" y="437.6358">0</text></g><!--entity val11--><g id="elem_val11"><rect fill="#F1F1F1" height="39.0679" rx="2.5" ry="2.5" style="stroke:#181818;stroke-width:0.5;" width="28" x="604" y="412.6699"/><text fill="#000000" font-family="sans-serif" font-size="14" lengthAdjust="spacing" textLength="8" x="614" y="437.6358">1</text></g><!--entity val12--><g id="elem_val12"><rect fill="#F1F1F1" height="39.0679" rx="2.5" ry="2.5" style="stroke:#181818;stroke-width:0.5;" width="28" x="444" y="521.6699"/><text fill="#000000" font-family="sans-serif" font-size="14" lengthAdjust="spacing" textLength="8" x="454" y="546.6358">2</text></g><!--entity dots3--><g id="elem_dots3"><rect fill="#F1F1F1" height="39.0679" rx="2.5" ry="2.5" style="stroke:#181818;stroke-width:0.5;" width="32" x="507" y="521.6699"/><text fill="#000000" font-family="sans-serif" font-size="14" lengthAdjust="spacing" textLength="12" x="517" y="546.6358">...</text></g><!--entity val199--><g id="elem_val199"><rect fill="#F1F1F1" height="39.0679" rx="2.5" ry="2.5" style="stroke:#181818;stroke-width:0.5;" width="36" x="574" y="521.6699"/><text fill="#000000" font-family="sans-serif" font-size="14" lengthAdjust="spacing" textLength="16" x="584" y="546.6358">99</text></g><!--entity ...--><g id="elem_..."><rect fill="#F1F1F1" height="39.0679" rx="2.5" ry="2.5" style="stroke:#181818;stroke-width:0.5;" width="32" x="739" y="521.6699"/><text fill="#000000" font-family="sans-serif" font-size="14" lengthAdjust="spacing" textLength="12" x="749" y="546.6358">...</text></g><!--entity length10--><g id="elem_length10"><rect fill="#F1F1F1" height="39.0679" rx="2.5" ry="2.5" style="stroke:#181818;stroke-width:0.5;" width="96" x="321" y="670.6699"/><text fill="#000000" font-family="sans-serif" font-size="14" lengthAdjust="spacing" textLength="76" x="331" y="695.6358">length=100</text></g><!--entity val90--><g id="elem_val90"><rect fill="#F1F1F1" height="39.0679" rx="2.5" ry="2.5" style="stroke:#181818;stroke-width:0.5;" width="28" x="452" y="670.6699"/><text fill="#000000" font-family="sans-serif" font-size="14" lengthAdjust="spacing" textLength="8" x="462" y="695.6358">0</text></g><!--entity val91--><g id="elem_val91"><rect fill="#F1F1F1" height="39.0679" rx="2.5" ry="2.5" style="stroke:#181818;stroke-width:0.5;" width="28" x="515" y="670.6699"/><text fill="#000000" font-family="sans-serif" font-size="14" lengthAdjust="spacing" textLength="8" x="525" y="695.6358">1</text></g><!--entity val92--><g id="elem_val92"><rect fill="#F1F1F1" height="39.0679" rx="2.5" ry="2.5" style="stroke:#181818;stroke-width:0.5;" width="28" x="355" y="769.6699"/><text fill="#000000" font-family="sans-serif" font-size="14" lengthAdjust="spacing" textLength="8" x="365" y="794.6358">2</text></g><!--entity dots5--><g id="elem_dots5"><rect fill="#F1F1F1" height="39.0679" rx="2.5" ry="2.5" style="stroke:#181818;stroke-width:0.5;" width="32" x="418" y="769.6699"/><text fill="#000000" font-family="sans-serif" font-size="14" lengthAdjust="spacing" textLength="12" x="428" y="794.6358">...</text></g><!--entity val999--><g id="elem_val999"><rect fill="#F1F1F1" height="39.0679" rx="2.5" ry="2.5" style="stroke:#181818;stroke-width:0.5;" width="36" x="485" y="769.6699"/><text fill="#000000" font-family="sans-serif" font-size="14" lengthAdjust="spacing" textLength="16" x="495" y="794.6358">99</text></g><!--link ref_a to array_principal--><g id="link_ref_a_array_principal"><path d="M220,123.7799 C220,134.9624 220,150.2336 220,166.904 C220,175.2391 220,183.924 220,192.6225 C220,196.9718 220,201.3244 220,205.6384 C220,207.7954 220,209.9427 220,212.0751 C220,213.1413 220,214.2038 220,215.2619 C220,215.791 220,216.3189 220,216.8457 C220,217.1091 220,211.3722 220,211.635 " fill="none" id="ref_a-to-array_principal" style="stroke:#181818;stroke-width:1.0;"/><polygon fill="#181818" points="220,217.635,224,208.635,220,212.635,216,208.635,220,217.635" style="stroke:#181818;stroke-width:1.0;"/></g><!--link ref0 to array0--><g id="link_ref0_array0"><path d="M279.11,302.9099 C274.51,316.4599 266.15,333.8599 252,342.6699 C234.34,353.6599 81.03,337.4199 65,350.6699 C61.5687,353.5061 58.6898,356.836 56.2798,360.4983 C55.0748,362.3294 53.987,364.2437 53.006,366.221 C52.9447,366.3445 55.513,361.0751 55.4525,361.1992 " fill="none" id="ref0-to-array0" style="stroke:#181818;stroke-width:1.0;"/><polygon fill="#181818" points="52.8233,366.5924,60.3626,360.2553,55.0143,362.098,53.1716,356.7497,52.8233,366.5924" style="stroke:#181818;stroke-width:1.0;"/></g><!--link ref1 to array1--><g id="link_ref1_array1"><path d="M375.87,302.7899 C375.805,312.5249 375.7194,325.2436 375.6272,338.888 C375.5811,345.7102 375.5334,352.7638 375.4857,359.7915 C375.4738,361.5485 375.4619,363.3038 375.4501,365.0535 C375.4471,365.4909 375.4848,359.9281 375.4819,360.3648 " fill="none" id="ref1-to-array1" style="stroke:#181818;stroke-width:1.0;"/><polygon fill="#181818" points="375.4412,366.3646,379.5021,357.3919,375.4751,361.3647,371.5023,357.3377,375.4412,366.3646" style="stroke:#181818;stroke-width:1.0;"/></g><!--link ref9 to array9--><g id="link_ref9_array9"><path d="M642.21,302.6899 C651.33,314.3599 663.57,329.6499 675,342.6699 C722.48,396.7799 760.18,392.8699 787,459.6699 C810.35,517.8199 821.61,548.4299 787,600.6699 C759.58,642.0599 708.5225,664.1449 663.7375,675.9024 C641.345,681.7811 620.5206,685.078 605.0031,686.9152 C597.2444,687.8338 596.7973,687.9629 592.1593,688.2919 " fill="none" id="ref9-to-array9" style="stroke:#181818;stroke-width:1.0;"/><polygon fill="#181818" points="586.1744,688.7165,595.4349,692.0696,591.1618,688.3627,594.8688,684.0897,586.1744,688.7165" style="stroke:#181818;stroke-width:1.0;"/></g><!--link dots1 to arrayx--><g id="link_dots1_arrayx"><path d="M553.83,302.8999 C559.01,316.2599 567.97,333.4299 582,342.6699 C606.68,358.9199 625.44,331.5899 648,350.6699 C681.005,378.5849 695.0875,424.9274 700.8788,464.7949 C701.2407,467.2866 701.5703,469.753 701.87,472.1881 C701.945,472.7969 702.0181,473.4037 702.0893,474.0084 C702.125,474.3108 701.4733,468.6521 701.508,468.9534 " fill="none" id="dots1-to-arrayx" style="stroke:#181818;stroke-width:1.0;stroke-dasharray:7.0,7.0;"/><polygon fill="#181818" points="702.1949,474.914,705.1383,465.5152,701.6225,469.9468,697.1909,466.4311,702.1949,474.914" style="stroke:#181818;stroke-width:1.0;"/></g><!--SRC=[bPJ1QeD048RlFiNWFR9ZwM4AAVHGwALGw54a37PZ9TR8kcbJIj-zwoQkaguh4GHdvfznlXzTNUbQmcEdrQ7G1yKW6tYM7tjLyHrKZSxoB0U6DJJooyOeSdEBF8fQBdPSIeXVjNcAuIS2SobPQ6vACpHMSYkLR8gAWMFWpjIs6uv-9wrFajkXqoKVbE9lU56LQMsvjgtSvpRja3ktNBombasftzSeRCif4ZwXMIGJ-R3Jh0IT1ESagPEaFacI9BR-jjVTx0noCyXAZ47__HZsjKQ81Vwf0TxNdWIVN0ilFBgojpjrvKLehu383Q0GCawGyGhaD8YCOMGC8-CYyaqO6MUGBUKmnmP7FtAl2PX64zFeckz415sZi6iKTeqMNRiDkqREDKDjpn5OhUulZuM-8iQ2w6CSO-nZ6cEAx7y9PezpvXZz0G00]--></g></svg>