<?xml version="1.0" encoding="us-ascii" standalone="no"?><svg xmlns="http://www.w3.org/2000/svg" xmlns:xlink="http://www.w3.org/1999/xlink" contentStyleType="text/css" height="945px" preserveAspectRatio="none" style="width:411px;height:945px;background:#FFFFFF;" version="1.1" viewBox="0 0 411 945" width="411px" zoomAndPan="magnify"><defs/><g><g id="MAPA_DISPONIBLE"><rect fill="#F1F1F1" height="50" rx="12.5" ry="12.5" style="stroke:#181818;stroke-width:0.5;" width="147" x="25.5" y="7"/><line style="stroke:#181818;stroke-width:0.5;" x1="25.5" x2="172.5" y1="36.0679" y2="36.0679"/><text fill="#000000" font-family="sans-serif" font-size="14" lengthAdjust="spacing" textLength="127" x="35.5" y="26.9659">MAPA_DISPONIBLE</text></g><path d="M19.5,117 L384.5,117 A12.5,12.5 0 0 1 397,129.5 L397,146.0679 L7,146.0679 L7,129.5 A12.5,12.5 0 0 1 19.5,117 " fill="#F1F1F1" style="stroke:#F1F1F1;stroke-width:1.0;"/><rect fill="none" height="712.0679" rx="12.5" ry="12.5" style="stroke:#181818;stroke-width:0.5;" width="390" x="7" y="117"/><line style="stroke:#181818;stroke-width:0.5;" x1="7" x2="397" y1="146.0679" y2="146.0679"/><text fill="#000000" font-family="sans-serif" font-size="14" lengthAdjust="spacing" textLength="123" x="140.5" y="136.9659">iniciarProgresi&#243;n()</text><g id="iniciarProgresion.SeleccionandoAcorde"><rect fill="#F1F1F1" height="50" rx="12.5" ry="12.5" style="stroke:#181818;stroke-width:0.5;" width="50" x="19" y="250.0679"/><line style="stroke:#181818;stroke-width:0.5;" x1="19" x2="69" y1="279.1358" y2="279.1358"/><text fill="#000000" font-family="sans-serif" font-size="14" lengthAdjust="spacing" textLength="4" x="42" y="270.0339">&#160;</text></g><g id="iniciarProgresion.ProgresionIniciada"><rect fill="#F1F1F1" height="50" rx="12.5" ry="12.5" style="stroke:#181818;stroke-width:0.5;" width="50" x="19" y="497.0679"/><line style="stroke:#181818;stroke-width:0.5;" x1="19" x2="69" y1="526.1358" y2="526.1358"/><text fill="#000000" font-family="sans-serif" font-size="14" lengthAdjust="spacing" textLength="4" x="42" y="517.0339">&#160;</text></g><ellipse cx="44" cy="167.0679" fill="#222222" rx="10" ry="10" style="stroke:#222222;stroke-width:1.0;"/><ellipse cx="44" cy="808.0679" fill="none" rx="11" ry="11" style="stroke:#222222;stroke-width:1.0;"/><ellipse cx="44" cy="808.0679" fill="#222222" rx="6" ry="6" style="stroke:#222222;stroke-width:1.0;"/><!--link *start*iniciarProgresion to SeleccionandoAcorde--><g id="link_*start*iniciarProgresion_SeleccionandoAcorde"><path d="M44,177.1079 C44,193.0279 44,220.5779 44,243.7079 " fill="none" id="*start*iniciarProgresion-to-SeleccionandoAcorde" style="stroke:#008000;stroke-width:1.0;"/><polygon fill="#008000" points="44,249.7079,48,240.7079,44,244.7079,40,240.7079,44,249.7079" style="stroke:#008000;stroke-width:1.0;"/><path d="M49,200.0679 L49,227.0679 L267,227.0679 L267,210.0679 L257,200.0679 L49,200.0679 " fill="#FEFFDD" style="stroke:#181818;stroke-width:0.5;"/><path d="M257,200.0679 L257,210.0679 L267,210.0679 L257,200.0679 " fill="#FEFFDD" style="stroke:#181818;stroke-width:0.5;"/><text fill="#000000" font-family="sans-serif" font-size="13" font-weight="bold" lengthAdjust="spacing" textLength="46" x="55" y="218.9649">M&#250;sico</text><text fill="#000000" font-family="sans-serif" font-size="13" lengthAdjust="spacing" textLength="148" x="104" y="218.9649">solicita iniciar progresi&#243;n</text></g><!--link SeleccionandoAcorde to ProgresionIniciada--><g id="link_SeleccionandoAcorde_ProgresionIniciada"><path d="M44,300.4579 C44,347.4179 44,443.8979 44,490.7779 " fill="none" id="SeleccionandoAcorde-to-ProgresionIniciada" style="stroke:#008000;stroke-width:1.0;"/><polygon fill="#008000" points="44,496.7779,48,487.7779,44,491.7779,40,487.7779,44,496.7779" style="stroke:#008000;stroke-width:1.0;"/><path d="M49,323.0679 L49,474.0679 L354,474.0679 L354,333.0679 L344,323.0679 L49,323.0679 " fill="#FEFFDD" style="stroke:#181818;stroke-width:0.5;"/><path d="M344,323.0679 L344,333.0679 L354,333.0679 L344,323.0679 " fill="#FEFFDD" style="stroke:#181818;stroke-width:0.5;"/><text fill="#000000" font-family="sans-serif" font-size="13" font-weight="bold" lengthAdjust="spacing" textLength="52" x="55" y="341.9649">Sistema</text><text fill="#000000" font-family="sans-serif" font-size="13" lengthAdjust="spacing" textLength="150" x="110" y="341.9649">presenta mapa arm&#243;nico</text><text fill="#000000" font-family="sans-serif" font-size="13" lengthAdjust="spacing" textLength="215" x="55" y="359.6709">&#8226; Todos los acordes diat&#243;nicos (I-VII)</text><text fill="#000000" font-family="sans-serif" font-size="13" lengthAdjust="spacing" textLength="227" x="55" y="377.377">&#8226; Dominantes secundarios disponibles</text><text fill="#000000" font-family="sans-serif" font-size="13" lengthAdjust="spacing" textLength="190" x="55" y="395.083">&#8226; Acordes de intercambio modal</text><text fill="#000000" font-family="sans-serif" font-size="13" lengthAdjust="spacing" textLength="284" x="55" y="412.789">&#8226; Enlaces arm&#243;nicos posibles desde cada acorde</text><text fill="#000000" font-family="sans-serif" font-size="13" lengthAdjust="spacing" textLength="3" x="55" y="430.495">&#160;</text><text fill="#000000" font-family="sans-serif" font-size="13" font-weight="bold" lengthAdjust="spacing" textLength="52" x="55" y="448.201">Sistema</text><text fill="#000000" font-family="sans-serif" font-size="13" lengthAdjust="spacing" textLength="99" x="110" y="448.201">permite solicitar:</text><text fill="#000000" font-family="sans-serif" font-size="13" lengthAdjust="spacing" textLength="86" x="55" y="465.907">&#8226; Acorde inicial</text></g><!--link ProgresionIniciada to *end*iniciarProgresion--><g id="link_ProgresionIniciada_*end*iniciarProgresion"><path d="M44,547.2779 C44,606.4379 44,750.4179 44,790.8779 " fill="none" id="ProgresionIniciada-to-*end*iniciarProgresion" style="stroke:#008000;stroke-width:1.0;"/><polygon fill="#008000" points="44,796.8779,48,787.8779,44,791.8779,40,787.8779,44,796.8779" style="stroke:#008000;stroke-width:1.0;"/><path d="M49,570.0679 L49,774.0679 L388,774.0679 L388,580.0679 L378,570.0679 L49,570.0679 " fill="#FEFFDD" style="stroke:#181818;stroke-width:0.5;"/><path d="M378,570.0679 L378,580.0679 L388,580.0679 L378,570.0679 " fill="#FEFFDD" style="stroke:#181818;stroke-width:0.5;"/><text fill="#000000" font-family="sans-serif" font-size="13" font-weight="bold" lengthAdjust="spacing" textLength="46" x="55" y="588.9649">M&#250;sico</text><text fill="#000000" font-family="sans-serif" font-size="13" lengthAdjust="spacing" textLength="183" x="104" y="588.9649">solicita introducir acorde inicial</text><text fill="#000000" font-family="sans-serif" font-size="13" lengthAdjust="spacing" textLength="3" x="55" y="606.6709">&#160;</text><text fill="#000000" font-family="sans-serif" font-size="13" font-weight="bold" lengthAdjust="spacing" textLength="52" x="55" y="624.377">Sistema</text><text fill="#000000" font-family="sans-serif" font-size="13" lengthAdjust="spacing" textLength="248" x="110" y="624.377">registra acorde como inicio de progresi&#243;n</text><text fill="#000000" font-family="sans-serif" font-size="13" lengthAdjust="spacing" textLength="318" x="55" y="642.083">&#8226; Establece acorde como acorde actual de navegaci&#243;n</text><text fill="#000000" font-family="sans-serif" font-size="13" lengthAdjust="spacing" textLength="304" x="55" y="659.789">&#8226; Presenta historial de progresi&#243;n con acorde inicial</text><text fill="#000000" font-family="sans-serif" font-size="13" lengthAdjust="spacing" textLength="268" x="55" y="677.495">&#8226; Activa modo de construcci&#243;n de progresi&#243;n</text><text fill="#000000" font-family="sans-serif" font-size="13" lengthAdjust="spacing" textLength="3" x="55" y="695.201">&#160;</text><text fill="#000000" font-family="sans-serif" font-size="13" font-weight="bold" lengthAdjust="spacing" textLength="52" x="55" y="712.907">Sistema</text><text fill="#000000" font-family="sans-serif" font-size="13" lengthAdjust="spacing" textLength="99" x="110" y="712.907">permite solicitar:</text><text fill="#000000" font-family="sans-serif" font-size="13" lengthAdjust="spacing" textLength="267" x="55" y="730.6131">&#8226; extender progresi&#243;n hacia siguiente acorde</text><text fill="#000000" font-family="sans-serif" font-size="13" lengthAdjust="spacing" textLength="160" x="55" y="748.3191">&#8226; modificar modo de escala</text><text fill="#000000" font-family="sans-serif" font-size="13" lengthAdjust="spacing" textLength="124" x="55" y="766.0251">&#8226; reiniciar progresi&#243;n</text></g><g id="PROGRESION_FINALIZADA"><rect fill="#F1F1F1" height="50" rx="12.5" ry="12.5" style="stroke:#181818;stroke-width:0.5;" width="196" x="208" y="7"/><line style="stroke:#181818;stroke-width:0.5;" x1="208" x2="404" y1="36.0679" y2="36.0679"/><text fill="#000000" font-family="sans-serif" font-size="14" lengthAdjust="spacing" textLength="176" x="218" y="26.9659">PROGRESION_FINALIZADA</text></g><g id="PROGRESION_EN_CONSTRUCCION"><rect fill="#F1F1F1" height="50" rx="12.5" ry="12.5" style="stroke:#181818;stroke-width:0.5;" width="252" x="76" y="889"/><line style="stroke:#181818;stroke-width:0.5;" x1="76" x2="328" y1="918.0679" y2="918.0679"/><text fill="#000000" font-family="sans-serif" font-size="14" lengthAdjust="spacing" textLength="232" x="86" y="908.9659">PROGRESION_EN_CONSTRUCCION</text></g><!--link MAPA_DISPONIBLE to iniciarProgresion--><g id="link_MAPA_DISPONIBLE_iniciarProgresion"><path d="M104.68,57.23 C108.14,71.97 111.6203,86.7784 117.3203,111.0884 " fill="none" id="MAPA_DISPONIBLE-to-iniciarProgresion" style="stroke:#008000;stroke-width:1.0;"/><polygon fill="#008000" points="118.69,116.93,120.5299,107.2545,117.5486,112.062,112.7411,109.0808,118.69,116.93" style="stroke:#008000;stroke-width:1.0;"/></g><!--link PROGRESION_FINALIZADA to iniciarProgresion--><g id="link_PROGRESION_FINALIZADA_iniciarProgresion"><path d="M300.26,57.23 C296.77,71.97 293.2511,86.7811 287.5011,111.0911 " fill="none" id="PROGRESION_FINALIZADA-to-iniciarProgresion" style="stroke:#008000;stroke-width:1.0;"/><polygon fill="#008000" points="286.12,116.93,292.0842,109.0924,287.2709,112.0643,284.299,107.251,286.12,116.93" style="stroke:#008000;stroke-width:1.0;"/></g><!--link iniciarProgresion to PROGRESION_EN_CONSTRUCCION--><g id="link_iniciarProgresion_PROGRESION_EN_CONSTRUCCION"><path d="M202,829.14 C202,853.5 202,868.2 202,882.93 " fill="none" id="iniciarProgresion-to-PROGRESION_EN_CONSTRUCCION" style="stroke:#008000;stroke-width:1.0;"/><polygon fill="#008000" points="202,888.93,206,879.93,202,883.93,198,879.93,202,888.93" style="stroke:#008000;stroke-width:1.0;"/></g><!--SRC=[bPJHQjim58RlzHGYksa7OVUZ1BmaBORM2N6tYvKIJkIpz51PCf9ILiPWpx9NsDrk-oPzaXtBiJCdAQK90Klv_tC-_PBixybKuA2KcWo6nmfbPVLZFH3YAfadoqcQpsTP-kboAeStxzOEqTmEHv8CAG8tTvQdF5aZvelPnMAQfxDiUPvcoMNwDPaahtY43n3my0y9NWxsPf_-c9FJWVmXXEHFOnpmbwKvQbIAVM0AcoZh2ZmKxQgdiN01JQMRzxSzofUA6Skr68spkOyJPwlHrTDVJygUVLYDfBUQomPeLoEh7NZKeobYaQRjaJOzZ2EuBr7av0EM42agzg1XYX8gaE1Axiw4KVhywxUyjeNrKlCFOayl2uBGYBmyIOTVqlIqKqziIGmOMEPHRKm1ZcnjyPKrjDBeEsdIbgktCw1JKAx8oj8Me3lHr6XGBEguF1yt7mknqRDNyKAtQEBe-j2Ln16qQRkFUmJR-FMHo0yZxINE1-6j6nsSBJQAt9QuwtsCtE6QHwvTdLIsj8t1rg7jdvOO5nzWpaPXpxDz1XKse6khWGTSW-fPv-qvkEEcrb6Z_Ay9rpBxsBia0pr0lNSHZPKClb6nmpxh6pS9lmVU5EpT3dd7y20zhJV4pErgEmzpq3TIVALQ8lGAD7G2Xw_VkPz27BvcUXTkz_wQPilnBCkl5v_7OnwBVm00]--></g></svg>