<?xml version="1.0" encoding="us-ascii" standalone="no"?><svg xmlns="http://www.w3.org/2000/svg" xmlns:xlink="http://www.w3.org/1999/xlink" contentStyleType="text/css" height="243px" preserveAspectRatio="none" style="width:389px;height:243px;background:#FFFFFF;" version="1.1" viewBox="0 0 389 243" width="389px" zoomAndPan="magnify"><defs/><g><text fill="#000000" font-family="sans-serif" font-size="14" font-weight="bold" lengthAdjust="spacing" textLength="208" x="7" y="21.9659">Generador de Mapa Arm&#243;nico</text><text fill="#000000" font-family="sans-serif" font-size="12" lengthAdjust="spacing" textLength="40" x="8" y="41.896">T&#243;nica:</text><rect fill="#EEEEEE" height="19.3441" style="stroke:#000000;stroke-width:1.0;" width="23" x="50" y="29.0679"/><text fill="#000000" font-family="sans-serif" font-size="12" lengthAdjust="spacing" textLength="8" x="52" y="43.896">C</text><line style="stroke:#000000;stroke-width:1.0;" x1="62" x2="62" y1="29.0679" y2="48.412"/><polygon fill="#000000" points="65,35.0679,71,35.0679,68,43.412" style="stroke:#000000;stroke-width:1.0;"/><text fill="#000000" font-family="sans-serif" font-size="12" lengthAdjust="spacing" textLength="35" x="76" y="41.896">Modo:</text><rect fill="#EEEEEE" height="19.3441" style="stroke:#000000;stroke-width:1.0;" width="55" x="113" y="29.0679"/><text fill="#000000" font-family="sans-serif" font-size="12" lengthAdjust="spacing" textLength="36" x="115" y="43.896">Mayor</text><line style="stroke:#000000;stroke-width:1.0;" x1="157" x2="157" y1="29.0679" y2="48.412"/><polygon fill="#000000" points="160,35.0679,166,35.0679,163,43.412" style="stroke:#000000;stroke-width:1.0;"/><rect fill="#EEEEEE" height="20.3441" rx="5" ry="5" style="stroke:#000000;stroke-width:2.5;" width="228" x="10.5" y="55.912"/><text fill="#000000" font-family="sans-serif" font-size="12" lengthAdjust="spacing" textLength="158" x="45.5" y="70.7401">Nueva Progresi&#243;n / Reiniciar</text><rect fill="#EEEEEE" height="20.3441" rx="5" ry="5" style="stroke:#000000;stroke-width:2.5;" width="132" x="245.5" y="55.912"/><text fill="#000000" font-family="sans-serif" font-size="12" lengthAdjust="spacing" textLength="68" x="277.5" y="70.7401">Volver Atr&#225;s</text><text fill="#000000" font-family="sans-serif" font-size="12" font-weight="bold" lengthAdjust="spacing" textLength="119" x="8" y="95.5842">Progresi&#243;n actual: C</text><line style="stroke:#000000;stroke-width:1.0;" x1="7" x2="128" y1="81.7561" y2="81.7561"/><line style="stroke:#000000;stroke-width:1.0;" x1="7" x2="128" y1="100.1003" y2="100.1003"/><line style="stroke:#000000;stroke-width:1.0;" x1="7" x2="7" y1="81.7561" y2="100.1003"/><line style="stroke:#000000;stroke-width:1.0;" x1="128" x2="128" y1="81.7561" y2="100.1003"/><text fill="#000000" font-family="sans-serif" font-size="14" font-weight="bold" lengthAdjust="spacing" textLength="192" x="8" y="118.0662">Mapa Arm&#243;nico de C Mayor</text><text fill="#000000" font-family="sans-serif" font-size="12" lengthAdjust="spacing" textLength="87" x="14" y="137.9963">De d&#243;nde viene</text><text fill="#000000" font-family="sans-serif" font-size="12" font-weight="bold" lengthAdjust="spacing" textLength="41" x="103" y="137.9963">Acorde</text><text fill="#000000" font-family="sans-serif" font-size="12" lengthAdjust="spacing" textLength="43" x="146" y="137.9963">Funci&#243;n</text><text fill="#000000" font-family="sans-serif" font-size="12" lengthAdjust="spacing" textLength="62" x="251" y="137.9963">A d&#243;nde va</text><text fill="#000000" font-family="sans-serif" font-size="12" lengthAdjust="spacing" textLength="69" x="14" y="156.3404">V, VII, SubV7</text><text fill="#000000" font-family="sans-serif" font-size="12" font-weight="bold" lengthAdjust="spacing" textLength="8" x="103" y="156.3404">C</text><text fill="#000000" font-family="sans-serif" font-size="12" lengthAdjust="spacing" textLength="52" x="146" y="156.3404">T&#243;nica (I)</text><text fill="#000000" font-family="sans-serif" font-size="12" lengthAdjust="spacing" textLength="62" x="251" y="156.3404">F / Am / Fm</text><text fill="#000000" font-family="sans-serif" font-size="12" lengthAdjust="spacing" textLength="54" x="14" y="174.6845">Am, I, V/II</text><text fill="#000000" font-family="sans-serif" font-size="12" lengthAdjust="spacing" textLength="20" x="103" y="174.6845">Dm</text><text fill="#000000" font-family="sans-serif" font-size="12" lengthAdjust="spacing" textLength="86" x="146" y="174.6845">Supert&#243;nica (II)</text><text fill="#000000" font-family="sans-serif" font-size="12" lengthAdjust="spacing" textLength="61" x="251" y="174.6845">G7 / SubV7</text><text fill="#000000" font-family="sans-serif" font-size="12" lengthAdjust="spacing" textLength="46" x="14" y="193.0286">I, II, V/IV</text><text fill="#000000" font-family="sans-serif" font-size="12" lengthAdjust="spacing" textLength="6" x="103" y="193.0286">F</text><text fill="#000000" font-family="sans-serif" font-size="12" lengthAdjust="spacing" textLength="103" x="146" y="193.0286">Subdominante (IV)</text><text fill="#000000" font-family="sans-serif" font-size="12" lengthAdjust="spacing" textLength="61" x="251" y="193.0286">G7 / SubV7</text><text fill="#000000" font-family="sans-serif" font-size="12" lengthAdjust="spacing" textLength="46" x="14" y="211.3727">II, IV, VII</text><text fill="#000000" font-family="sans-serif" font-size="12" lengthAdjust="spacing" textLength="16" x="103" y="211.3727">G7</text><text fill="#000000" font-family="sans-serif" font-size="12" lengthAdjust="spacing" textLength="80" x="146" y="211.3727">Dominante (V)</text><text fill="#000000" font-family="sans-serif" font-size="12" lengthAdjust="spacing" textLength="42" x="251" y="211.3727">C (Res.)</text><line style="stroke:#AAAAAA;stroke-width:1.0;stroke-dasharray:1.0,2.0;" x1="14" x2="102" y1="225.5608" y2="225.5608"/><line style="stroke:#AAAAAA;stroke-width:1.0;stroke-dasharray:1.0,2.0;" x1="103" x2="145" y1="225.5608" y2="225.5608"/><line style="stroke:#AAAAAA;stroke-width:1.0;stroke-dasharray:1.0,2.0;" x1="146" x2="250" y1="225.5608" y2="225.5608"/><line style="stroke:#AAAAAA;stroke-width:1.0;stroke-dasharray:1.0,2.0;" x1="251" x2="314" y1="225.5608" y2="225.5608"/><line style="stroke:#000000;stroke-width:1.0;" x1="8" x2="13" y1="124.1682" y2="124.1682"/><line style="stroke:#000000;stroke-width:1.0;" x1="250" x2="314" y1="197.5446" y2="197.5446"/><line style="stroke:#000000;stroke-width:1.0;" x1="13" x2="102" y1="124.1682" y2="124.1682"/><line style="stroke:#000000;stroke-width:1.0;" x1="102" x2="145" y1="124.1682" y2="124.1682"/><line style="stroke:#000000;stroke-width:1.0;" x1="145" x2="250" y1="124.1682" y2="124.1682"/><line style="stroke:#000000;stroke-width:1.0;" x1="250" x2="314" y1="124.1682" y2="124.1682"/><line style="stroke:#000000;stroke-width:1.0;" x1="8" x2="13" y1="179.2005" y2="179.2005"/><line style="stroke:#000000;stroke-width:1.0;" x1="13" x2="102" y1="179.2005" y2="179.2005"/><line style="stroke:#000000;stroke-width:1.0;" x1="102" x2="145" y1="179.2005" y2="179.2005"/><line style="stroke:#000000;stroke-width:1.0;" x1="145" x2="250" y1="179.2005" y2="179.2005"/><line style="stroke:#000000;stroke-width:1.0;" x1="250" x2="314" y1="179.2005" y2="179.2005"/><line style="stroke:#000000;stroke-width:1.0;" x1="8" x2="13" y1="234.2329" y2="234.2329"/><line style="stroke:#000000;stroke-width:1.0;" x1="13" x2="102" y1="234.2329" y2="234.2329"/><line style="stroke:#000000;stroke-width:1.0;" x1="102" x2="145" y1="234.2329" y2="234.2329"/><line style="stroke:#000000;stroke-width:1.0;" x1="145" x2="250" y1="234.2329" y2="234.2329"/><line style="stroke:#000000;stroke-width:1.0;" x1="250" x2="314" y1="234.2329" y2="234.2329"/><line style="stroke:#000000;stroke-width:1.0;" x1="8" x2="13" y1="160.8564" y2="160.8564"/><line style="stroke:#000000;stroke-width:1.0;" x1="13" x2="102" y1="160.8564" y2="160.8564"/><line style="stroke:#000000;stroke-width:1.0;" x1="102" x2="145" y1="160.8564" y2="160.8564"/><line style="stroke:#000000;stroke-width:1.0;" x1="145" x2="250" y1="160.8564" y2="160.8564"/><line style="stroke:#000000;stroke-width:1.0;" x1="250" x2="314" y1="160.8564" y2="160.8564"/><line style="stroke:#000000;stroke-width:1.0;" x1="8" x2="13" y1="215.8887" y2="215.8887"/><line style="stroke:#000000;stroke-width:1.0;" x1="13" x2="102" y1="215.8887" y2="215.8887"/><line style="stroke:#000000;stroke-width:1.0;" x1="102" x2="145" y1="215.8887" y2="215.8887"/><line style="stroke:#000000;stroke-width:1.0;" x1="145" x2="250" y1="215.8887" y2="215.8887"/><line style="stroke:#000000;stroke-width:1.0;" x1="8" x2="13" y1="142.5123" y2="142.5123"/><line style="stroke:#000000;stroke-width:1.0;" x1="250" x2="314" y1="215.8887" y2="215.8887"/><line style="stroke:#000000;stroke-width:1.0;" x1="13" x2="102" y1="142.5123" y2="142.5123"/><line style="stroke:#000000;stroke-width:1.0;" x1="102" x2="145" y1="142.5123" y2="142.5123"/><line style="stroke:#000000;stroke-width:1.0;" x1="145" x2="250" y1="142.5123" y2="142.5123"/><line style="stroke:#000000;stroke-width:1.0;" x1="250" x2="314" y1="142.5123" y2="142.5123"/><line style="stroke:#000000;stroke-width:1.0;" x1="8" x2="13" y1="197.5446" y2="197.5446"/><line style="stroke:#000000;stroke-width:1.0;" x1="13" x2="102" y1="197.5446" y2="197.5446"/><line style="stroke:#000000;stroke-width:1.0;" x1="102" x2="145" y1="197.5446" y2="197.5446"/><line style="stroke:#000000;stroke-width:1.0;" x1="145" x2="250" y1="197.5446" y2="197.5446"/><line style="stroke:#000000;stroke-width:1.0;" x1="8" x2="8" y1="124.1682" y2="142.5123"/><line style="stroke:#000000;stroke-width:1.0;" x1="250" x2="250" y1="197.5446" y2="215.8887"/><line style="stroke:#000000;stroke-width:1.0;" x1="314" x2="314" y1="197.5446" y2="215.8887"/><line style="stroke:#000000;stroke-width:1.0;" x1="13" x2="13" y1="124.1682" y2="142.5123"/><line style="stroke:#000000;stroke-width:1.0;" x1="102" x2="102" y1="124.1682" y2="142.5123"/><line style="stroke:#000000;stroke-width:1.0;" x1="145" x2="145" y1="124.1682" y2="142.5123"/><line style="stroke:#000000;stroke-width:1.0;" x1="250" x2="250" y1="124.1682" y2="142.5123"/><line style="stroke:#000000;stroke-width:1.0;" x1="314" x2="314" y1="124.1682" y2="142.5123"/><line style="stroke:#000000;stroke-width:1.0;" x1="8" x2="8" y1="179.2005" y2="197.5446"/><line style="stroke:#000000;stroke-width:1.0;" x1="13" x2="13" y1="179.2005" y2="197.5446"/><line style="stroke:#000000;stroke-width:1.0;" x1="102" x2="102" y1="179.2005" y2="197.5446"/><line style="stroke:#000000;stroke-width:1.0;" x1="145" x2="145" y1="179.2005" y2="197.5446"/><line style="stroke:#000000;stroke-width:1.0;" x1="250" x2="250" y1="179.2005" y2="197.5446"/><line style="stroke:#000000;stroke-width:1.0;" x1="314" x2="314" y1="179.2005" y2="197.5446"/><line style="stroke:#000000;stroke-width:1.0;" x1="8" x2="8" y1="160.8564" y2="179.2005"/><line style="stroke:#000000;stroke-width:1.0;" x1="13" x2="13" y1="160.8564" y2="179.2005"/><line style="stroke:#000000;stroke-width:1.0;" x1="102" x2="102" y1="160.8564" y2="179.2005"/><line style="stroke:#000000;stroke-width:1.0;" x1="145" x2="145" y1="160.8564" y2="179.2005"/><line style="stroke:#000000;stroke-width:1.0;" x1="250" x2="250" y1="160.8564" y2="179.2005"/><line style="stroke:#000000;stroke-width:1.0;" x1="314" x2="314" y1="160.8564" y2="179.2005"/><line style="stroke:#000000;stroke-width:1.0;" x1="8" x2="8" y1="215.8887" y2="234.2329"/><line style="stroke:#000000;stroke-width:1.0;" x1="13" x2="13" y1="215.8887" y2="234.2329"/><line style="stroke:#000000;stroke-width:1.0;" x1="102" x2="102" y1="215.8887" y2="234.2329"/><line style="stroke:#000000;stroke-width:1.0;" x1="145" x2="145" y1="215.8887" y2="234.2329"/><line style="stroke:#000000;stroke-width:1.0;" x1="8" x2="8" y1="142.5123" y2="160.8564"/><line style="stroke:#000000;stroke-width:1.0;" x1="250" x2="250" y1="215.8887" y2="234.2329"/><line style="stroke:#000000;stroke-width:1.0;" x1="314" x2="314" y1="215.8887" y2="234.2329"/><line style="stroke:#000000;stroke-width:1.0;" x1="13" x2="13" y1="142.5123" y2="160.8564"/><line style="stroke:#000000;stroke-width:1.0;" x1="102" x2="102" y1="142.5123" y2="160.8564"/><line style="stroke:#000000;stroke-width:1.0;" x1="145" x2="145" y1="142.5123" y2="160.8564"/><line style="stroke:#000000;stroke-width:1.0;" x1="250" x2="250" y1="142.5123" y2="160.8564"/><line style="stroke:#000000;stroke-width:1.0;" x1="314" x2="314" y1="142.5123" y2="160.8564"/><line style="stroke:#000000;stroke-width:1.0;" x1="8" x2="8" y1="197.5446" y2="215.8887"/><line style="stroke:#000000;stroke-width:1.0;" x1="13" x2="13" y1="197.5446" y2="215.8887"/><line style="stroke:#000000;stroke-width:1.0;" x1="102" x2="102" y1="197.5446" y2="215.8887"/><line style="stroke:#000000;stroke-width:1.0;" x1="145" x2="145" y1="197.5446" y2="215.8887"/><line style="stroke:#000000;stroke-width:1.0;" x1="7" x2="315" y1="102.1003" y2="102.1003"/><line style="stroke:#000000;stroke-width:1.0;" x1="7" x2="315" y1="235.2329" y2="235.2329"/><line style="stroke:#000000;stroke-width:1.0;" x1="7" x2="7" y1="102.1003" y2="123.1682"/><line style="stroke:#000000;stroke-width:1.0;" x1="315" x2="315" y1="123.1682" y2="235.2329"/><line style="stroke:#000000;stroke-width:1.0;" x1="315" x2="315" y1="102.1003" y2="123.1682"/><line style="stroke:#000000;stroke-width:1.0;" x1="7" x2="7" y1="123.1682" y2="235.2329"/><rect fill="none" height="133.1326" style="stroke:#000000;stroke-width:1.0;" width="15" x="319" y="102.1003"/><line style="stroke:#000000;stroke-width:1.0;" x1="319" x2="334" y1="114.1003" y2="114.1003"/><line style="stroke:#000000;stroke-width:1.0;" x1="319" x2="334" y1="223.2329" y2="223.2329"/><path d="M326,106.1003 L329,111.1003 L323,111.1003 L326,106.1003 " fill="#000000" style="stroke:#000000;stroke-width:1.0;"/><path d="M326,232.2329 L329,227.2329 L323,227.2329 L326,232.2329 " fill="#000000" style="stroke:#000000;stroke-width:1.0;"/><line style="stroke:#000000;stroke-width:1.0;" x1="6" x2="382" y1="6" y2="6"/><line style="stroke:#000000;stroke-width:1.0;" x1="6" x2="382" y1="236.2329" y2="236.2329"/><line style="stroke:#000000;stroke-width:1.0;" x1="6" x2="6" y1="6" y2="27.0679"/><line style="stroke:#000000;stroke-width:1.0;" x1="382" x2="382" y1="27.0679" y2="51.412"/><line style="stroke:#000000;stroke-width:1.0;" x1="382" x2="382" y1="6" y2="27.0679"/><line style="stroke:#000000;stroke-width:1.0;" x1="6" x2="6" y1="101.1003" y2="236.2329"/><line style="stroke:#000000;stroke-width:1.0;" x1="6" x2="6" y1="80.7561" y2="101.1003"/><line style="stroke:#000000;stroke-width:1.0;" x1="382" x2="382" y1="101.1003" y2="236.2329"/><line style="stroke:#000000;stroke-width:1.0;" x1="6" x2="6" y1="51.412" y2="80.7561"/><line style="stroke:#000000;stroke-width:1.0;" x1="382" x2="382" y1="80.7561" y2="101.1003"/><line style="stroke:#000000;stroke-width:1.0;" x1="6" x2="6" y1="27.0679" y2="51.412"/><line style="stroke:#000000;stroke-width:1.0;" x1="382" x2="382" y1="51.412" y2="80.7561"/><rect fill="none" height="133.1326" style="stroke:#000000;stroke-width:1.0;" width="15" x="319" y="102.1003"/><line style="stroke:#000000;stroke-width:1.0;" x1="319" x2="334" y1="114.1003" y2="114.1003"/><line style="stroke:#000000;stroke-width:1.0;" x1="319" x2="334" y1="223.2329" y2="223.2329"/><path d="M326,106.1003 L329,111.1003 L323,111.1003 L326,106.1003 " fill="#000000" style="stroke:#000000;stroke-width:1.0;"/><path d="M326,232.2329 L329,227.2329 L323,227.2329 L326,232.2329 " fill="#000000" style="stroke:#000000;stroke-width:1.0;"/><!--SRC=[VPFRRjf048Rlzob-gJVW4eTGqbIM8iKr49b0Yu2u5r6G5dj3LyAxQ6qZHS33z1dw27cnZWySVDERiNRcdszcrhCFISfDcl1r2gbaABcP6Bqo8f5Q_P96l1aUYuHXnu3TPpB0_JqUXHA6HzeW4XZp3OThue-_1D2iqEmA2ymB9tUmny9Rx4ldM4VQeI_vnlnTcqKXFjGINtvaOijnR8OmkCPKL3s-KkuB4EZrLXYugVduam2l5QS4VQf8bdK9uM6QyRK3px9gwfbVoMcw-a3vY1wAHbcbER41cphf2KIa9TrMqiMGnxBSK9j8M1OT1faAYzfxk2SXhn625WBVRs6MBOCx501gi8plZvU8Xj_CSNGHRanc4DSORjm28O9hto_JUl4nJ8TPjX4cFO4AqkCTKOgIDH11_18KbBa3r43BICTISPKA0WN_0-MaShGobtHdKEzCAI0U6bEHsCqQmhPjuBByXQCy5BRAEPmMwS0Ex46eA5zinYPhglCy7e6s9LzitDYTTgThVsdCVsSOY2LkRj5fEzssqxw5rvyZ3pTPut4osdQGwCo4z8zbaXgvp58YDDcGqtfECvNAM3ZukH5gs7iwEj1NMscqYeLAsJ0OdmLVkrVVPOgPCFdc1cFM4syyezVNLw6Ef5evU9uFhhwn4LUhZA-8JS_FqyGrxmxwity0]--></g></svg>