<?xml version="1.0" encoding="us-ascii" standalone="no"?><svg xmlns="http://www.w3.org/2000/svg" xmlns:xlink="http://www.w3.org/1999/xlink" contentStyleType="text/css" height="721px" preserveAspectRatio="none" style="width:345px;height:721px;background:#FFFFFF;" version="1.1" viewBox="0 0 345 721" width="345px" zoomAndPan="magnify"><defs/><g><!--cluster Gesti?n de archivos--><g id="cluster_Gesti&#243;n de archivos"><path d="M144.5,6.602 L281.5,6.602 A3.75,3.75 0 0 1 284,9.102 L291,31.6699 L335.5,31.6699 A2.5,2.5 0 0 1 338,34.1699 L338,712.102 A2.5,2.5 0 0 1 335.5,714.602 L144.5,714.602 A2.5,2.5 0 0 1 142,712.102 L142,9.102 A2.5,2.5 0 0 1 144.5,6.602 " fill="none" style="stroke:#000000;stroke-width:1.5;"/><line style="stroke:#000000;stroke-width:1.5;" x1="142" x2="291" y1="31.6699" y2="31.6699"/><text fill="#000000" font-family="sans-serif" font-size="14" font-weight="bold" lengthAdjust="spacing" textLength="136" x="146" y="23.5679">Gesti&#243;n de archivos</text></g><g id="elem_GA1"><ellipse cx="239.8803" cy="62.578" fill="#F1F1F1" rx="75.3803" ry="17.4761" style="stroke:#181818;stroke-width:0.5;"/><text fill="#000000" font-family="sans-serif" font-size="14" lengthAdjust="spacing" textLength="90" x="191.8803" y="67.311">Crear archivo</text></g><g id="elem_GA2"><ellipse cx="239.8944" cy="132.3809" fill="#F1F1F1" rx="74.3944" ry="17.2789" style="stroke:#181818;stroke-width:0.5;"/><text fill="#000000" font-family="sans-serif" font-size="14" lengthAdjust="spacing" textLength="87" x="193.3944" y="137.1138">Abrir archivo</text></g><g id="elem_GA3"><ellipse cx="240.001" cy="204.4022" fill="#F1F1F1" rx="82.001" ry="18.8002" style="stroke:#181818;stroke-width:0.5;"/><text fill="#000000" font-family="sans-serif" font-size="14" lengthAdjust="spacing" textLength="109" x="182.501" y="209.1351">Guardar archivo</text></g><g id="elem_GA4"><ellipse cx="240.1899" cy="288.5681" fill="#F1F1F1" rx="61.6899" ry="29.9661" style="stroke:#181818;stroke-width:0.5;"/><text fill="#000000" font-family="sans-serif" font-size="14" lengthAdjust="spacing" textLength="65" x="207.6899" y="282.4661">Gestionar</text><text fill="#000000" font-family="sans-serif" font-size="14" lengthAdjust="spacing" textLength="71" x="204.6899" y="301.534">workspace</text></g><g id="elem_GA5"><ellipse cx="240.0833" cy="383.5681" fill="#F1F1F1" rx="51.0833" ry="29.9661" style="stroke:#181818;stroke-width:0.5;"/><text fill="#000000" font-family="sans-serif" font-size="14" lengthAdjust="spacing" textLength="46" x="217.0833" y="377.4661">Buscar</text><text fill="#000000" font-family="sans-serif" font-size="14" lengthAdjust="spacing" textLength="56" x="212.0833" y="396.534">archivos</text></g><g id="elem_GA6"><ellipse cx="239.9486" cy="478.5688" fill="#F1F1F1" rx="57.4486" ry="29.9668" style="stroke:#181818;stroke-width:0.5;"/><text fill="#000000" font-family="sans-serif" font-size="14" lengthAdjust="spacing" textLength="65" x="207.1761" y="472.6017">Gestionar</text><text fill="#000000" font-family="sans-serif" font-size="14" lengthAdjust="spacing" textLength="58" x="210.6761" y="491.6696">carpetas</text></g><g id="elem_GA7"><ellipse cx="240.1837" cy="573.7188" fill="#F1F1F1" rx="72.6837" ry="30.1168" style="stroke:#181818;stroke-width:0.5;"/><text fill="#000000" font-family="sans-serif" font-size="14" lengthAdjust="spacing" textLength="86" x="194.1837" y="568.9178">Previsualizar</text><text fill="#000000" font-family="sans-serif" font-size="14" lengthAdjust="spacing" textLength="56" x="209.1837" y="587.9857">archivos</text></g><g id="elem_GA8"><ellipse cx="239.8713" cy="668.5728" fill="#F1F1F1" rx="58.8713" ry="29.9708" style="stroke:#181818;stroke-width:0.5;"/><text fill="#000000" font-family="sans-serif" font-size="14" lengthAdjust="spacing" textLength="67" x="205.6306" y="662.8284">Comparar</text><text fill="#000000" font-family="sans-serif" font-size="14" lengthAdjust="spacing" textLength="56" x="211.1306" y="681.8963">archivos</text></g><!--entity Developer--><g id="elem_Developer"><ellipse cx="52" cy="305.602" fill="#F1F1F1" rx="8" ry="8" style="stroke:#181818;stroke-width:0.5;"/><path d="M52,313.602 L52,340.602 M39,321.602 L65,321.602 M52,340.602 L39,355.602 M52,340.602 L65,355.602 " fill="none" style="stroke:#181818;stroke-width:0.5;"/><text fill="#000000" font-family="sans-serif" font-size="14" lengthAdjust="spacing" textLength="92" x="6" y="372.0679">Desarrollador</text></g><!--link Developer to GA1--><g id="link_Developer_GA1"><path d="M55.82,296.652 C61.65,244.032 79.5,151.832 134,97.602 C145.92,85.742 156.2534,79.7553 172.2034,74.5753 " fill="none" id="Developer-to-GA1" style="stroke:#181818;stroke-width:1.0;"/><polygon fill="#181818" points="177.91,72.722,168.1146,71.6975,173.1545,74.2664,170.5856,79.3063,177.91,72.722" style="stroke:#181818;stroke-width:1.0;"/></g><!--link Developer to GA2--><g id="link_Developer_GA2"><path d="M62.36,296.942 C73.35,258.732 95.2,201.822 134,167.602 C147.04,156.102 158.2587,150.1594 174.7187,144.9594 " fill="none" id="Developer-to-GA2" style="stroke:#181818;stroke-width:1.0;"/><polygon fill="#181818" points="180.44,143.152,170.6531,142.049,175.6723,144.6582,173.063,149.6774,180.44,143.152" style="stroke:#181818;stroke-width:1.0;"/></g><!--link Developer to GA3--><g id="link_Developer_GA3"><path d="M78.65,297.102 C92.94,277.762 112.22,255.502 134,240.602 C148.31,230.812 159.8469,225.3462 176.1669,219.9162 " fill="none" id="Developer-to-GA3" style="stroke:#181818;stroke-width:1.0;"/><polygon fill="#181818" points="181.86,218.022,172.0575,217.0679,177.1157,219.6005,174.5831,224.6588,181.86,218.022" style="stroke:#181818;stroke-width:1.0;"/></g><!--link Developer to GA4--><g id="link_Developer_GA4"><path d="M98.03,324.982 C124.26,318.212 151.7006,311.1322 179.3106,304.0022 " fill="none" id="Developer-to-GA4" style="stroke:#181818;stroke-width:1.0;"/><polygon fill="#181818" points="185.12,302.502,175.4057,300.8794,180.2788,303.7522,177.406,308.6253,185.12,302.502" style="stroke:#181818;stroke-width:1.0;"/></g><!--link Developer to GA5--><g id="link_Developer_GA5"><path d="M98.03,347.982 C126.73,355.232 158.0228,363.1421 186.9528,370.4521 " fill="none" id="Developer-to-GA5" style="stroke:#181818;stroke-width:1.0;"/><polygon fill="#181818" points="192.77,371.922,185.0242,365.8391,187.9224,370.6971,183.0643,373.5953,192.77,371.922" style="stroke:#181818;stroke-width:1.0;"/></g><!--link Developer to GA6--><g id="link_Developer_GA6"><path d="M80.88,376.262 C95.2,394.532 113.85,415.462 134,430.602 C151.31,443.602 167.1609,451.8657 186.1109,459.7557 " fill="none" id="Developer-to-GA6" style="stroke:#181818;stroke-width:1.0;"/><polygon fill="#181818" points="191.65,462.062,184.8789,454.9099,187.0341,460.1401,181.8039,462.2953,191.65,462.062" style="stroke:#181818;stroke-width:1.0;"/></g><!--link Developer to GA7--><g id="link_Developer_GA7"><path d="M61.11,376.442 C71.49,418.332 93.22,483.842 134,525.602 C146.95,538.872 158.7448,546.426 175.5648,553.716 " fill="none" id="Developer-to-GA7" style="stroke:#181818;stroke-width:1.0;"/><polygon fill="#181818" points="181.07,556.102,174.4029,548.8528,176.4824,554.1136,171.2216,556.1931,181.07,556.102" style="stroke:#181818;stroke-width:1.0;"/></g><!--link Developer to GA8--><g id="link_Developer_GA8"><path d="M54.15,376.332 C57.9,436.142 73.18,549.832 134,620.602 C147.78,636.642 162.4432,645.4496 181.4932,652.8096 " fill="none" id="Developer-to-GA8" style="stroke:#181818;stroke-width:1.0;"/><polygon fill="#181818" points="187.09,654.972,180.1363,647.9973,182.426,653.17,177.2532,655.4597,187.09,654.972" style="stroke:#181818;stroke-width:1.0;"/></g><!--SRC=[TT1DRi8m40NWlKynofu547vMI1IaR7i0DbDd00kJYMQSL09ngXwX5siIyQF4rCldJq-ZvsaV8328Enm3v4x81iU5CMW32oHRKXHXxp5dIG0LjbIJvvB4c1Bj2Gy4IKOQtEzF0Ja1YZswcZM1gu7cLKeMjK4R8PJ7TrULhSTziluIDoIJFiagb3pgcGvGUmyNABlYc-MapQ5qbsbVVbHgM_QwkbEpV_iQNLB01vptuQTGxRH2xovlMXU3GVXSehnnovQPcp7FhG56erMtLnHDucWQHsaSpU9e7aUBE5h-0G00]--></g></svg>