<?xml version="1.0" encoding="us-ascii" standalone="no"?><svg xmlns="http://www.w3.org/2000/svg" xmlns:xlink="http://www.w3.org/1999/xlink" contentStyleType="text/css" height="770px" preserveAspectRatio="none" style="width:372px;height:770px;background:#FFFFFF;" version="1.1" viewBox="0 0 372 770" width="372px" zoomAndPan="magnify"><defs/><g><!--cluster Edici?n de c?digo--><g id="cluster_Edici&#243;n de c&#243;digo"><path d="M144.5,6.602 L267.5,6.602 A3.75,3.75 0 0 1 270,9.102 L277,31.6699 L362.5,31.6699 A2.5,2.5 0 0 1 365,34.1699 L365,761.102 A2.5,2.5 0 0 1 362.5,763.602 L144.5,763.602 A2.5,2.5 0 0 1 142,761.102 L142,9.102 A2.5,2.5 0 0 1 144.5,6.602 " fill="none" style="stroke:#000000;stroke-width:1.5;"/><line style="stroke:#000000;stroke-width:1.5;" x1="142" x2="277" y1="31.6699" y2="31.6699"/><text fill="#000000" font-family="sans-serif" font-size="14" font-weight="bold" lengthAdjust="spacing" textLength="122" x="146" y="23.5679">Edici&#243;n de c&#243;digo</text></g><g id="elem_EC1"><ellipse cx="253.5497" cy="62.5119" fill="#F1F1F1" rx="75.0497" ry="17.4099" style="stroke:#181818;stroke-width:0.5;"/><text fill="#000000" font-family="sans-serif" font-size="14" lengthAdjust="spacing" textLength="89" x="206.0497" y="67.2449">Editar c&#243;digo</text></g><g id="elem_EC2"><ellipse cx="253.6907" cy="145.8092" fill="#F1F1F1" rx="82.1907" ry="30.2072" style="stroke:#181818;stroke-width:0.5;"/><text fill="#000000" font-family="sans-serif" font-size="14" lengthAdjust="spacing" textLength="99" x="201.1907" y="141.0082">Autocompletar</text><text fill="#000000" font-family="sans-serif" font-size="14" lengthAdjust="spacing" textLength="45" x="228.1907" y="160.0761">c&#243;digo</text></g><g id="elem_EC3"><ellipse cx="253.5274" cy="240.6774" fill="#F1F1F1" rx="69.0274" ry="30.0754" style="stroke:#181818;stroke-width:0.5;"/><text fill="#000000" font-family="sans-serif" font-size="14" lengthAdjust="spacing" textLength="81" x="210.0274" y="235.8764">Refactorizar</text><text fill="#000000" font-family="sans-serif" font-size="14" lengthAdjust="spacing" textLength="45" x="228.0274" y="254.9443">c&#243;digo</text></g><g id="elem_EC4"><ellipse cx="253.3018" cy="335.5804" fill="#F1F1F1" rx="60.3018" ry="29.9784" style="stroke:#181818;stroke-width:0.5;"/><text fill="#000000" font-family="sans-serif" font-size="14" lengthAdjust="spacing" textLength="69" x="217.5787" y="330.0542">Formatear</text><text fill="#000000" font-family="sans-serif" font-size="14" lengthAdjust="spacing" textLength="45" x="229.5787" y="349.1222">c&#243;digo</text></g><g id="elem_EC5"><ellipse cx="253.6396" cy="430.5681" fill="#F1F1F1" rx="66.6396" ry="29.9661" style="stroke:#181818;stroke-width:0.5;"/><text fill="#000000" font-family="sans-serif" font-size="14" lengthAdjust="spacing" textLength="65" x="221.1396" y="424.4661">Gestionar</text><text fill="#000000" font-family="sans-serif" font-size="14" lengthAdjust="spacing" textLength="78" x="214.6396" y="443.534">multicursor</text></g><g id="elem_EC6"><ellipse cx="253.3557" cy="526.4048" fill="#F1F1F1" rx="95.3557" ry="30.3028" style="stroke:#181818;stroke-width:0.5;"/><text fill="#000000" font-family="sans-serif" font-size="14" lengthAdjust="spacing" textLength="117" x="191.8557" y="521.6038">Plegar/Desplegar</text><text fill="#000000" font-family="sans-serif" font-size="14" lengthAdjust="spacing" textLength="45" x="227.8557" y="540.6717">c&#243;digo</text></g><g id="elem_EC7"><ellipse cx="253.4486" cy="622.5688" fill="#F1F1F1" rx="57.4486" ry="29.9668" style="stroke:#181818;stroke-width:0.5;"/><text fill="#000000" font-family="sans-serif" font-size="14" lengthAdjust="spacing" textLength="65" x="220.6761" y="616.6017">Gestionar</text><text fill="#000000" font-family="sans-serif" font-size="14" lengthAdjust="spacing" textLength="58" x="224.1761" y="635.6696">snippets</text></g><g id="elem_EC8"><ellipse cx="253.3714" cy="717.6314" fill="#F1F1F1" rx="65.3714" ry="30.0294" style="stroke:#181818;stroke-width:0.5;"/><text fill="#000000" font-family="sans-serif" font-size="14" lengthAdjust="spacing" textLength="76" x="212.3714" y="712.8304">Renombrar</text><text fill="#000000" font-family="sans-serif" font-size="14" lengthAdjust="spacing" textLength="60" x="220.3714" y="731.8983">s&#237;mbolos</text></g><!--entity Developer--><g id="elem_Developer"><ellipse cx="52" cy="352.602" fill="#F1F1F1" rx="8" ry="8" style="stroke:#181818;stroke-width:0.5;"/><path d="M52,360.602 L52,387.602 M39,368.602 L65,368.602 M52,387.602 L39,402.602 M52,387.602 L65,402.602 " fill="none" style="stroke:#181818;stroke-width:0.5;"/><text fill="#000000" font-family="sans-serif" font-size="14" lengthAdjust="spacing" textLength="92" x="6" y="419.0679">Desarrollador</text></g><!--link Developer to EC1--><g id="link_Developer_EC1"><path d="M52.79,343.982 C54.67,282.682 67.42,164.932 134,97.602 C147.8,83.642 161.0891,76.7621 179.8991,71.6621 " fill="none" id="Developer-to-EC1" style="stroke:#181818;stroke-width:1.0;"/><polygon fill="#181818" points="185.69,70.092,175.9569,68.5865,180.8642,71.4004,178.0504,76.3078,185.69,70.092" style="stroke:#181818;stroke-width:1.0;"/></g><!--link Developer to EC2--><g id="link_Developer_EC2"><path d="M60.31,344.102 C70.13,301.472 91.49,234.132 134,192.602 C148.01,178.912 160.9014,171.2296 179.0914,164.2196 " fill="none" id="Developer-to-EC2" style="stroke:#181818;stroke-width:1.0;"/><polygon fill="#181818" points="184.69,162.062,174.8536,161.5659,180.0245,163.86,177.7304,169.0308,184.69,162.062" style="stroke:#181818;stroke-width:1.0;"/></g><!--link Developer to EC3--><g id="link_Developer_EC3"><path d="M79.31,344.052 C93.63,324.932 112.76,302.882 134,287.602 C152.32,274.412 169.2188,266.3158 189.6988,258.8958 " fill="none" id="Developer-to-EC3" style="stroke:#181818;stroke-width:1.0;"/><polygon fill="#181818" points="195.34,256.852,185.5157,256.1569,190.639,258.5552,188.2408,263.6785,195.34,256.852" style="stroke:#181818;stroke-width:1.0;"/></g><!--link Developer to EC4--><g id="link_Developer_EC4"><path d="M98.27,372.712 C128.04,365.542 161.3264,357.5351 192.7164,349.9851 " fill="none" id="Developer-to-EC4" style="stroke:#181818;stroke-width:1.0;"/><polygon fill="#181818" points="198.55,348.582,188.8641,346.7976,193.6886,349.7512,190.735,354.5757,198.55,348.582" style="stroke:#181818;stroke-width:1.0;"/></g><!--link Developer to EC5--><g id="link_Developer_EC5"><path d="M98.27,394.272 C126.67,400.952 157.7197,408.2769 188.2997,415.4769 " fill="none" id="Developer-to-EC5" style="stroke:#181818;stroke-width:1.0;"/><polygon fill="#181818" points="194.14,416.852,186.2963,410.8958,189.2731,415.7061,184.4628,418.6829,194.14,416.852" style="stroke:#181818;stroke-width:1.0;"/></g><!--link Developer to EC6--><g id="link_Developer_EC6"><path d="M80.28,423.122 C94.58,441.582 113.4,462.712 134,477.602 C149.43,488.752 162.2243,495.6318 179.8043,502.8918 " fill="none" id="Developer-to-EC6" style="stroke:#181818;stroke-width:1.0;"/><polygon fill="#181818" points="185.35,505.182,178.5582,498.0495,180.7286,503.2735,175.5046,505.4438,185.35,505.182" style="stroke:#181818;stroke-width:1.0;"/></g><!--link Developer to EC7--><g id="link_Developer_EC7"><path d="M60.46,423.432 C70.36,466.032 91.77,533.052 134,574.602 C152.04,592.352 171.7942,601.9873 194.5042,609.2373 " fill="none" id="Developer-to-EC7" style="stroke:#181818;stroke-width:1.0;"/><polygon fill="#181818" points="200.22,611.062,192.8628,604.5144,195.4568,609.5414,190.4298,612.1354,200.22,611.062" style="stroke:#181818;stroke-width:1.0;"/></g><!--link Developer to EC8--><g id="link_Developer_EC8"><path d="M53.65,423.452 C56.73,483.992 71.13,599.482 134,669.602 C149.56,686.952 166.6,696.2482 188,703.4082 " fill="none" id="Developer-to-EC8" style="stroke:#181818;stroke-width:1.0;"/><polygon fill="#181818" points="193.69,705.312,186.4242,698.663,188.9484,703.7255,183.8859,706.2497,193.69,705.312" style="stroke:#181818;stroke-width:1.0;"/></g><!--SRC=[TT7DJWCX40VmEqynsNjZxFV9nBIhL-FP2uNfIWeC6LWF6X_9KnzXNypjMclO8WT2_lmoOGQB-mI9W4tpca0RHfKCUI6aIiHGRJ5APh9MQk8AP8Gjlg6bW2n4aEeW6uIgraQPxkX18wZkg4r35Nm8w5SRKSduOvBal-k-LBsvpSrzcqYH2nPx-k9pEytjC-w7DvhtQphBwGEnamcltJntZnXFpP-SQsqogkLuxhhUB7BxPB6HVDFF9modSUdblwMZDo5WYcUu6hVboUruWDsNsv6bNxaUvB1TFW4caxlB7CVfj9ZEYkcyc2wAwRAOhehfMdn-0m00]--></g></svg>