<?xml version="1.0" encoding="us-ascii" standalone="no"?><svg xmlns="http://www.w3.org/2000/svg" xmlns:xlink="http://www.w3.org/1999/xlink" contentStyleType="text/css" height="671px" preserveAspectRatio="none" style="width:616px;height:671px;background:#FFFFFF;" version="1.1" viewBox="0 0 616 671" width="616px" zoomAndPan="magnify"><defs/><g><!--cluster Gesti?n de Archivos--><g id="cluster_Gesti&#243;n de Archivos"><path d="M147.5,6.602 L286.5,6.602 A3.75,3.75 0 0 1 289,9.102 L296,31.6699 L606.5,31.6699 A2.5,2.5 0 0 1 609,34.1699 L609,547.102 A2.5,2.5 0 0 1 606.5,549.602 L147.5,549.602 A2.5,2.5 0 0 1 145,547.102 L145,9.102 A2.5,2.5 0 0 1 147.5,6.602 " fill="none" style="stroke:#000000;stroke-width:1.5;"/><line style="stroke:#000000;stroke-width:1.5;" x1="145" x2="296" y1="31.6699" y2="31.6699"/><text fill="#000000" font-family="sans-serif" font-size="14" font-weight="bold" lengthAdjust="spacing" textLength="138" x="149" y="23.5679">Gesti&#243;n de Archivos</text></g><g id="elem_GA1"><ellipse cx="243.7128" cy="62.6445" fill="#F1F1F1" rx="75.7128" ry="17.5426" style="stroke:#181818;stroke-width:0.5;"/><text fill="#000000" font-family="sans-serif" font-size="14" lengthAdjust="spacing" textLength="91" x="195.2128" y="67.3775">Crear Archivo</text></g><g id="elem_GA2"><ellipse cx="518.721" cy="498.4462" fill="#F1F1F1" rx="74.721" ry="17.3442" style="stroke:#181818;stroke-width:0.5;"/><text fill="#000000" font-family="sans-serif" font-size="14" lengthAdjust="spacing" textLength="88" x="471.721" y="503.1792">Abrir Archivo</text></g><g id="elem_GA3"><ellipse cx="243.3656" cy="134.4751" fill="#F1F1F1" rx="82.3656" ry="18.8731" style="stroke:#181818;stroke-width:0.5;"/><text fill="#000000" font-family="sans-serif" font-size="14" lengthAdjust="spacing" textLength="110" x="185.3656" y="139.2081">Guardar Archivo</text></g><g id="elem_GA4"><ellipse cx="518.6041" cy="313.5681" fill="#F1F1F1" rx="63.1041" ry="29.9661" style="stroke:#181818;stroke-width:0.5;"/><text fill="#000000" font-family="sans-serif" font-size="14" lengthAdjust="spacing" textLength="65" x="486.1041" y="307.4661">Gestionar</text><text fill="#000000" font-family="sans-serif" font-size="14" lengthAdjust="spacing" textLength="73" x="482.1041" y="326.534">Workspace</text></g><g id="elem_GA5"><ellipse cx="243.2904" cy="218.5681" fill="#F1F1F1" rx="51.7904" ry="29.9661" style="stroke:#181818;stroke-width:0.5;"/><text fill="#000000" font-family="sans-serif" font-size="14" lengthAdjust="spacing" textLength="46" x="220.2904" y="212.4661">Buscar</text><text fill="#000000" font-family="sans-serif" font-size="14" lengthAdjust="spacing" textLength="57" x="214.7904" y="231.534">Archivos</text></g><g id="elem_GA6"><ellipse cx="243.4486" cy="313.5688" fill="#F1F1F1" rx="57.4486" ry="29.9668" style="stroke:#181818;stroke-width:0.5;"/><text fill="#000000" font-family="sans-serif" font-size="14" lengthAdjust="spacing" textLength="65" x="210.6761" y="307.6017">Gestionar</text><text fill="#000000" font-family="sans-serif" font-size="14" lengthAdjust="spacing" textLength="60" x="213.1761" y="326.6696">Carpetas</text></g><g id="elem_GA7"><ellipse cx="243.6837" cy="408.7188" fill="#F1F1F1" rx="72.6837" ry="30.1168" style="stroke:#181818;stroke-width:0.5;"/><text fill="#000000" font-family="sans-serif" font-size="14" lengthAdjust="spacing" textLength="86" x="197.6837" y="403.9178">Previsualizar</text><text fill="#000000" font-family="sans-serif" font-size="14" lengthAdjust="spacing" textLength="57" x="212.1837" y="422.9857">Archivos</text></g><g id="elem_GA8"><ellipse cx="243.3713" cy="503.5728" fill="#F1F1F1" rx="58.8713" ry="29.9708" style="stroke:#181818;stroke-width:0.5;"/><text fill="#000000" font-family="sans-serif" font-size="14" lengthAdjust="spacing" textLength="67" x="209.1306" y="497.8284">Comparar</text><text fill="#000000" font-family="sans-serif" font-size="14" lengthAdjust="spacing" textLength="57" x="214.1306" y="516.8963">Archivos</text></g><!--entity DEV--><g id="elem_DEV"><ellipse cx="52" cy="535.602" fill="#F1F1F1" rx="8" ry="8" style="stroke:#181818;stroke-width:0.5;"/><path d="M52,543.602 L52,570.602 M39,551.602 L65,551.602 M52,570.602 L39,585.602 M52,570.602 L65,585.602 " fill="none" style="stroke:#181818;stroke-width:0.5;"/><text fill="#000000" font-family="sans-serif" font-size="14" lengthAdjust="spacing" textLength="92" x="6" y="602.0679">Desarrollador</text></g><!--link GA5 to GA4--><g id="link_GA5_GA4"><path d="M288.36,233.862 C337.2,250.852 410.3131,276.3005 461.5931,294.1405 " fill="none" id="GA5-to-GA4" style="stroke:#181818;stroke-width:1.0;stroke-dasharray:7.0,7.0;"/><polygon fill="#181818" points="467.26,296.112,460.074,289.3769,462.5376,294.4691,457.4454,296.9327,467.26,296.112" style="stroke:#181818;stroke-width:1.0;"/><text fill="#000000" font-family="sans-serif" font-size="13" lengthAdjust="spacing" textLength="56" x="357" y="253.499">&#171;extend&#187;</text></g><!--link GA6 to GA4--><g id="link_GA6_GA4"><path d="M301.07,313.602 C346.05,313.602 402.9,313.602 449.3,313.602 " fill="none" id="GA6-to-GA4" style="stroke:#181818;stroke-width:1.0;stroke-dasharray:7.0,7.0;"/><polygon fill="#181818" points="455.3,313.602,446.3,309.602,450.3,313.602,446.3,317.602,455.3,313.602" style="stroke:#181818;stroke-width:1.0;"/><text fill="#000000" font-family="sans-serif" font-size="13" lengthAdjust="spacing" textLength="56" x="357" y="309.499">&#171;extend&#187;</text></g><!--link GA7 to GA2--><g id="link_GA7_GA2"><path d="M300.73,427.132 C352.24,444.122 421.7016,467.0136 468.6316,482.4836 " fill="none" id="GA7-to-GA2" style="stroke:#181818;stroke-width:1.0;stroke-dasharray:7.0,7.0;"/><polygon fill="#181818" points="474.33,484.362,467.0347,477.7454,469.5813,482.7966,464.5302,485.3433,474.33,484.362" style="stroke:#181818;stroke-width:1.0;"/><text fill="#000000" font-family="sans-serif" font-size="13" lengthAdjust="spacing" textLength="56" x="357" y="441.499">&#171;extend&#187;</text></g><!--link GA8 to GA2--><g id="link_GA8_GA2"><path d="M302.73,502.532 C343.99,501.772 393.671,500.8616 437.991,500.0516 " fill="none" id="GA8-to-GA2" style="stroke:#181818;stroke-width:1.0;stroke-dasharray:7.0,7.0;"/><polygon fill="#181818" points="443.99,499.942,434.9184,496.1071,438.9908,500.0333,435.0646,504.1058,443.99,499.942" style="stroke:#181818;stroke-width:1.0;"/><text fill="#000000" font-family="sans-serif" font-size="13" lengthAdjust="spacing" textLength="56" x="357" y="496.499">&#171;extend&#187;</text></g><!--link DEV to GA1--><g id="link_DEV_GA1"><path d="M55,526.912 C60.87,425.802 81.28,161.922 137,97.602 C147.87,85.052 157.6414,78.8698 173.3914,73.6798 " fill="none" id="DEV-to-GA1" style="stroke:#181818;stroke-width:1.0;"/><polygon fill="#181818" points="179.09,71.802,169.2903,70.8197,174.3412,73.3668,171.794,78.4178,179.09,71.802" style="stroke:#181818;stroke-width:1.0;"/></g><!--link DEV to GA3--><g id="link_DEV_GA3"><path d="M61.4,526.862 C82.59,426.562 136.63,171.022 137,170.602 C147.34,158.942 155.9589,153.096 170.6689,147.766 " fill="none" id="DEV-to-GA3" style="stroke:#181818;stroke-width:1.0;"/><polygon fill="#181818" points="176.31,145.722,166.4857,145.0272,171.6091,147.4253,169.211,152.5487,176.31,145.722" style="stroke:#181818;stroke-width:1.0;"/></g><!--link DEV to GA2--><g id="link_DEV_GA2"><path d="M98.35,599.792 C107.73,605.072 117.86,609.732 128,612.602 C250.33,647.122 297.77,664.062 414,612.602 C458.73,592.792 489.384,548.2389 504.944,521.4789 " fill="none" id="DEV-to-GA2" style="stroke:#181818;stroke-width:1.0;"/><polygon fill="#181818" points="507.96,516.292,499.9781,522.0617,505.4467,520.6144,506.8939,526.083,507.96,516.292" style="stroke:#181818;stroke-width:1.0;"/></g><!--link DEV to GA4--><g id="link_DEV_GA4"><path d="M98.19,574.152 C174.22,584.062 327.81,591.602 414,509.602 C427.28,496.962 475.4804,399.9951 500.6204,348.4351 " fill="none" id="DEV-to-GA4" style="stroke:#181818;stroke-width:1.0;"/><polygon fill="#181818" points="503.25,343.042,495.7102,349.3785,501.0587,347.5362,502.901,352.8847,503.25,343.042" style="stroke:#181818;stroke-width:1.0;"/></g><!--SRC=[VP7FIiD048Vl-nH3xYsO_aLA8BObLqzwyJBkZktIk1DcDqKKdyf7yCLCKg99cxg7XU7x-F5Z9gUN0851x6uVm5WX7ImxXJgmGBGXZoASvsXO8a0Fc-s3KWNg0-u8eenyiDzV3Wn1AdflZ-mZ-51GlTAJHbz9Qo6K5ZSXaAKtVITz5dlXn7qdAr7CPTBapAehiKDvSeyi1rzrfLQTzjMxqklQ-sj-qcPN4zSe1GNyDUTzyrxeQ7s9kNqVobsSxOLV2vGXSTc8pLVNWV4uQUh3BQnMz1R8cIHfyVn_l6XnF8YNL_2dKjMfOJHAJjVg39Fk47U7wGy0]--></g></svg>