<?xml version="1.0" encoding="us-ascii" standalone="no"?><svg xmlns="http://www.w3.org/2000/svg" xmlns:xlink="http://www.w3.org/1999/xlink" contentStyleType="text/css" height="604px" preserveAspectRatio="none" style="width:892px;height:604px;background:#FFFFFF;" version="1.1" viewBox="0 0 892 604" width="892px" zoomAndPan="magnify"><defs/><g><!--cluster Edici?n de c?digo--><g id="cluster_Edici&#243;n de c&#243;digo"><path d="M8.5,6.602 L131.5,6.602 A3.75,3.75 0 0 1 134,9.102 L141,31.6699 L743.5,31.6699 A2.5,2.5 0 0 1 746,34.1699 L746,595.102 A2.5,2.5 0 0 1 743.5,597.602 L8.5,597.602 A2.5,2.5 0 0 1 6,595.102 L6,9.102 A2.5,2.5 0 0 1 8.5,6.602 " fill="none" style="stroke:#000000;stroke-width:1.5;"/><line style="stroke:#000000;stroke-width:1.5;" x1="6" x2="141" y1="31.6699" y2="31.6699"/><text fill="#000000" font-family="sans-serif" font-size="14" font-weight="bold" lengthAdjust="spacing" textLength="122" x="10" y="23.5679">Edici&#243;n de c&#243;digo</text></g><g id="elem_EC1"><ellipse cx="655.0497" cy="313.5119" fill="#F1F1F1" rx="75.0497" ry="17.4099" style="stroke:#181818;stroke-width:0.5;"/><text fill="#000000" font-family="sans-serif" font-size="14" lengthAdjust="spacing" textLength="89" x="607.5497" y="318.2449">Editar c&#243;digo</text></g><g id="elem_EC2"><ellipse cx="366.6907" cy="74.8092" fill="#F1F1F1" rx="82.1907" ry="30.2072" style="stroke:#181818;stroke-width:0.5;"/><text fill="#000000" font-family="sans-serif" font-size="14" lengthAdjust="spacing" textLength="99" x="314.1907" y="70.0082">Autocompletar</text><text fill="#000000" font-family="sans-serif" font-size="14" lengthAdjust="spacing" textLength="45" x="341.1907" y="89.0761">c&#243;digo</text></g><g id="elem_EC3"><ellipse cx="366.5274" cy="551.6774" fill="#F1F1F1" rx="69.0274" ry="30.0754" style="stroke:#181818;stroke-width:0.5;"/><text fill="#000000" font-family="sans-serif" font-size="14" lengthAdjust="spacing" textLength="81" x="323.0274" y="546.8764">Refactorizar</text><text fill="#000000" font-family="sans-serif" font-size="14" lengthAdjust="spacing" textLength="45" x="341.0274" y="565.9443">c&#243;digo</text></g><g id="elem_EC4"><ellipse cx="366.3018" cy="169.5804" fill="#F1F1F1" rx="60.3018" ry="29.9784" style="stroke:#181818;stroke-width:0.5;"/><text fill="#000000" font-family="sans-serif" font-size="14" lengthAdjust="spacing" textLength="69" x="330.5787" y="164.0542">Formatear</text><text fill="#000000" font-family="sans-serif" font-size="14" lengthAdjust="spacing" textLength="45" x="342.5787" y="183.1222">c&#243;digo</text></g><g id="elem_EC5"><ellipse cx="366.6396" cy="264.5681" fill="#F1F1F1" rx="66.6396" ry="29.9661" style="stroke:#181818;stroke-width:0.5;"/><text fill="#000000" font-family="sans-serif" font-size="14" lengthAdjust="spacing" textLength="43" x="345.1396" y="258.4661">Iniciar</text><text fill="#000000" font-family="sans-serif" font-size="14" lengthAdjust="spacing" textLength="78" x="327.6396" y="277.534">multicursor</text></g><g id="elem_EC6"><ellipse cx="366.3557" cy="360.4048" fill="#F1F1F1" rx="95.3557" ry="30.3028" style="stroke:#181818;stroke-width:0.5;"/><text fill="#000000" font-family="sans-serif" font-size="14" lengthAdjust="spacing" textLength="117" x="304.8557" y="355.6038">Plegar/Desplegar</text><text fill="#000000" font-family="sans-serif" font-size="14" lengthAdjust="spacing" textLength="45" x="340.8557" y="374.6717">c&#243;digo</text></g><g id="elem_EC7"><ellipse cx="366.4975" cy="456.5681" fill="#F1F1F1" rx="52.4975" ry="29.9661" style="stroke:#181818;stroke-width:0.5;"/><text fill="#000000" font-family="sans-serif" font-size="14" lengthAdjust="spacing" textLength="53" x="339.9975" y="450.4661">Mostrar</text><text fill="#000000" font-family="sans-serif" font-size="14" lengthAdjust="spacing" textLength="58" x="337.4975" y="469.534">snippets</text></g><g id="elem_EC8"><ellipse cx="87.3714" cy="546.6314" fill="#F1F1F1" rx="65.3714" ry="30.0294" style="stroke:#181818;stroke-width:0.5;"/><text fill="#000000" font-family="sans-serif" font-size="14" lengthAdjust="spacing" textLength="76" x="46.3714" y="541.8304">Renombrar</text><text fill="#000000" font-family="sans-serif" font-size="14" lengthAdjust="spacing" textLength="60" x="54.3714" y="560.8983">s&#237;mbolos</text></g><!--entity DEV--><g id="elem_DEV"><ellipse cx="839" cy="282.602" fill="#F1F1F1" rx="8" ry="8" style="stroke:#181818;stroke-width:0.5;"/><path d="M839,290.602 L839,317.602 M826,298.602 L852,298.602 M839,317.602 L826,332.602 M839,317.602 L852,332.602 " fill="none" style="stroke:#181818;stroke-width:0.5;"/><text fill="#000000" font-family="sans-serif" font-size="14" lengthAdjust="spacing" textLength="92" x="793" y="349.0679">Desarrollador</text></g><!--link EC2 to EC1--><g id="link_EC2_EC1"><path d="M420.6,97.522 C434.55,104.472 449.25,112.652 462,121.602 C538.02,174.942 606.9594,255.2229 636.4394,291.5529 " fill="none" id="EC2-to-EC1" style="stroke:#181818;stroke-width:1.0;stroke-dasharray:7.0,7.0;"/><polygon fill="#181818" points="640.22,296.212,637.6551,286.703,637.0695,292.3294,631.443,291.7438,640.22,296.212" style="stroke:#181818;stroke-width:1.0;"/><text fill="#000000" font-family="sans-serif" font-size="13" lengthAdjust="spacing" textLength="56" x="493" y="144.499">&#171;extend&#187;</text></g><!--link EC3 to EC1--><g id="link_EC3_EC1"><path d="M415.43,530.142 C430.77,522.522 447.52,513.392 462,503.602 C538.54,451.862 607.2074,371.9075 636.5274,335.6475 " fill="none" id="EC3-to-EC1" style="stroke:#181818;stroke-width:1.0;stroke-dasharray:7.0,7.0;"/><polygon fill="#181818" points="640.3,330.982,631.5307,335.4653,637.1562,334.87,637.7515,340.4954,640.3,330.982" style="stroke:#181818;stroke-width:1.0;"/><text fill="#000000" font-family="sans-serif" font-size="13" lengthAdjust="spacing" textLength="56" x="493" y="429.499">&#171;extend&#187;</text></g><!--link EC4 to EC1--><g id="link_EC4_EC1"><path d="M410.4,190.442 C447.46,208.532 502.4,235.512 550,259.602 C574.87,272.192 597.5837,283.9905 618.2837,294.8205 " fill="none" id="EC4-to-EC1" style="stroke:#181818;stroke-width:1.0;stroke-dasharray:7.0,7.0;"/><polygon fill="#181818" points="623.6,297.602,617.4798,289.8856,619.1697,295.2841,613.7712,296.974,623.6,297.602" style="stroke:#181818;stroke-width:1.0;"/><text fill="#000000" font-family="sans-serif" font-size="13" lengthAdjust="spacing" textLength="56" x="493" y="228.499">&#171;extend&#187;</text></g><!--link EC5 to EC1--><g id="link_EC5_EC1"><path d="M428.96,275.112 C477.79,283.462 539.7859,294.0704 588.1959,302.3504 " fill="none" id="EC5-to-EC1" style="stroke:#181818;stroke-width:1.0;stroke-dasharray:7.0,7.0;"/><polygon fill="#181818" points="594.11,303.362,585.9132,297.9019,589.1816,302.519,584.5645,305.7874,594.11,303.362" style="stroke:#181818;stroke-width:1.0;"/><text fill="#000000" font-family="sans-serif" font-size="13" lengthAdjust="spacing" textLength="56" x="493" y="282.499">&#171;extend&#187;</text></g><!--link EC6 to EC1--><g id="link_EC6_EC1"><path d="M456.85,350.422 C486.57,346.622 519.79,341.922 550,336.602 C567.03,333.602 579.6355,331.0455 596.2155,327.3255 " fill="none" id="EC6-to-EC1" style="stroke:#181818;stroke-width:1.0;stroke-dasharray:7.0,7.0;"/><polygon fill="#181818" points="602.07,326.012,592.4126,324.0793,597.1913,327.1066,594.164,331.8853,602.07,326.012" style="stroke:#181818;stroke-width:1.0;"/><text fill="#000000" font-family="sans-serif" font-size="13" lengthAdjust="spacing" textLength="56" x="493" y="332.499">&#171;extend&#187;</text></g><!--link EC7 to EC1--><g id="link_EC7_EC1"><path d="M408.93,438.732 C446.23,422.362 502.36,397.022 550,372.602 C576.42,359.062 600.5987,345.2845 621.3687,333.0645 " fill="none" id="EC7-to-EC1" style="stroke:#181818;stroke-width:1.0;stroke-dasharray:7.0,7.0;"/><polygon fill="#181818" points="626.54,330.022,616.7546,331.1382,622.2305,332.5574,620.8113,338.0334,626.54,330.022" style="stroke:#181818;stroke-width:1.0;"/><text fill="#000000" font-family="sans-serif" font-size="13" lengthAdjust="spacing" textLength="56" x="493" y="368.499">&#171;extend&#187;</text></g><!--link EC8 to EC3--><g id="link_EC8_EC3"><path d="M153.09,547.772 C196.42,548.552 247.391,549.4743 291.421,550.2643 " fill="none" id="EC8-to-EC3" style="stroke:#181818;stroke-width:1.0;stroke-dasharray:7.0,7.0;"/><polygon fill="#181818" points="297.42,550.372,288.4932,546.2112,292.4208,550.2823,288.3497,554.2099,297.42,550.372" style="stroke:#181818;stroke-width:1.0;"/><text fill="#000000" font-family="sans-serif" font-size="13" lengthAdjust="spacing" textLength="56" x="184" y="544.499">&#171;extend&#187;</text></g><!--reverse link EC1 to DEV--><g id="link_EC1_DEV"><path d="M736.03,313.602 C757.28,313.602 773.82,313.602 792.78,313.602 " fill="none" id="EC1-backto-DEV" style="stroke:#181818;stroke-width:1.0;"/><polygon fill="#181818" points="730.03,313.602,739.03,317.602,735.03,313.602,739.03,309.602,730.03,313.602" style="stroke:#181818;stroke-width:1.0;"/></g><!--SRC=[VTBDIiD04C3nUvvYoBqLJR-G4f0sWWT1Ul3aPRixZOkRdR0x0L5yf9xw27anDsb4jeNa40B_NvRC48C71YPmkdndKDgXP4qs4PB9GRf5BvmZOuGYbuBmi2rUawGMyaEK26cXjDJjoO92aEr9wP9I-4uWN8r7AVpPi73_EHnIR6vZyz0mIQfgWu6-sTZUnNQ7X_xhzDSrpMBwIAuIZDTk5hid6yReLDKOrh9nVfYssCnZ-MAm5EucxANkdouFNiJycJoxJdchwnhP3snvEPAbQd-6xR7Qaw4_kUfbVmkRWEaqxxO7zx1UuoUZLNa-n6mipiRYV2mknk9oBAw6cCNn9md_44oQIV_YBm00]--></g></svg>