<?xml version="1.0" encoding="us-ascii" standalone="no"?><svg xmlns="http://www.w3.org/2000/svg" xmlns:xlink="http://www.w3.org/1999/xlink" contentStyleType="text/css" height="732px" preserveAspectRatio="none" style="width:359px;height:732px;background:#FFFFFF;" version="1.1" viewBox="0 0 359 732" width="359px" zoomAndPan="magnify"><defs/><g><g id="PROGRESION_EN_CONSTRUCCION_1"><rect fill="#F1F1F1" height="50" rx="12.5" ry="12.5" style="stroke:#181818;stroke-width:0.5;" width="252" x="50.5" y="7"/><line style="stroke:#181818;stroke-width:0.5;" x1="50.5" x2="302.5" y1="36.0679" y2="36.0679"/><text fill="#000000" font-family="sans-serif" font-size="14" lengthAdjust="spacing" textLength="232" x="60.5" y="26.9659">PROGRESION_EN_CONSTRUCCION</text></g><path d="M19.5,117 L333.5,117 A12.5,12.5 0 0 1 346,129.5 L346,146.0679 L7,146.0679 L7,129.5 A12.5,12.5 0 0 1 19.5,117 " fill="#F1F1F1" style="stroke:#F1F1F1;stroke-width:1.0;"/><rect fill="none" height="499.0679" rx="12.5" ry="12.5" style="stroke:#181818;stroke-width:0.5;" width="339" x="7" y="117"/><line style="stroke:#181818;stroke-width:0.5;" x1="7" x2="346" y1="146.0679" y2="146.0679"/><text fill="#000000" font-family="sans-serif" font-size="14" lengthAdjust="spacing" textLength="136" x="108.5" y="136.9659">finalizarProgresi&#243;n()</text><g id="finalizarProgresion.SolicitandoFinalizacion"><rect fill="#F1F1F1" height="50" rx="12.5" ry="12.5" style="stroke:#181818;stroke-width:0.5;" width="50" x="19" y="250.0679"/><line style="stroke:#181818;stroke-width:0.5;" x1="19" x2="69" y1="279.1358" y2="279.1358"/><text fill="#000000" font-family="sans-serif" font-size="14" lengthAdjust="spacing" textLength="4" x="42" y="270.0339">&#160;</text></g><g id="finalizarProgresion.ProgresionFinalizada"><rect fill="#F1F1F1" height="50" rx="12.5" ry="12.5" style="stroke:#181818;stroke-width:0.5;" width="50" x="19" y="497.0679"/><line style="stroke:#181818;stroke-width:0.5;" x1="19" x2="69" y1="526.1358" y2="526.1358"/><text fill="#000000" font-family="sans-serif" font-size="14" lengthAdjust="spacing" textLength="4" x="42" y="517.0339">&#160;</text></g><ellipse cx="44" cy="167.0679" fill="#222222" rx="10" ry="10" style="stroke:#222222;stroke-width:1.0;"/><ellipse cx="44" cy="595.0679" fill="none" rx="11" ry="11" style="stroke:#222222;stroke-width:1.0;"/><ellipse cx="44" cy="595.0679" fill="#222222" rx="6" ry="6" style="stroke:#222222;stroke-width:1.0;"/><!--link *start*finalizarProgresion to SolicitandoFinalizacion--><g id="link_*start*finalizarProgresion_SolicitandoFinalizacion"><path d="M44,177.1079 C44,193.0279 44,220.5779 44,243.7079 " fill="none" id="*start*finalizarProgresion-to-SolicitandoFinalizacion" style="stroke:#008000;stroke-width:1.0;"/><polygon fill="#008000" points="44,249.7079,48,240.7079,44,244.7079,40,240.7079,44,249.7079" style="stroke:#008000;stroke-width:1.0;"/><path d="M49,200.0679 L49,227.0679 L278,227.0679 L278,210.0679 L268,200.0679 L49,200.0679 " fill="#FEFFDD" style="stroke:#181818;stroke-width:0.5;"/><path d="M268,200.0679 L268,210.0679 L278,210.0679 L268,200.0679 " fill="#FEFFDD" style="stroke:#181818;stroke-width:0.5;"/><text fill="#000000" font-family="sans-serif" font-size="13" font-weight="bold" lengthAdjust="spacing" textLength="46" x="55" y="218.9649">M&#250;sico</text><text fill="#000000" font-family="sans-serif" font-size="13" lengthAdjust="spacing" textLength="159" x="104" y="218.9649">solicita finalizar progresi&#243;n</text></g><!--link SolicitandoFinalizacion to ProgresionFinalizada--><g id="link_SolicitandoFinalizacion_ProgresionFinalizada"><path d="M44,300.4579 C44,347.4179 44,443.8979 44,490.7779 " fill="none" id="SolicitandoFinalizacion-to-ProgresionFinalizada" style="stroke:#008000;stroke-width:1.0;"/><polygon fill="#008000" points="44,496.7779,48,487.7779,44,491.7779,40,487.7779,44,496.7779" style="stroke:#008000;stroke-width:1.0;"/><path d="M49,323.0679 L49,474.0679 L337,474.0679 L337,333.0679 L327,323.0679 L49,323.0679 " fill="#FEFFDD" style="stroke:#181818;stroke-width:0.5;"/><path d="M327,323.0679 L327,333.0679 L337,333.0679 L327,323.0679 " fill="#FEFFDD" style="stroke:#181818;stroke-width:0.5;"/><text fill="#000000" font-family="sans-serif" font-size="13" font-weight="bold" lengthAdjust="spacing" textLength="52" x="55" y="341.9649">Sistema</text><text fill="#000000" font-family="sans-serif" font-size="13" lengthAdjust="spacing" textLength="181" x="110" y="341.9649">presenta progresi&#243;n finalizada</text><text fill="#000000" font-family="sans-serif" font-size="13" lengthAdjust="spacing" textLength="225" x="55" y="359.6709">&#8226; Marca progresi&#243;n como completada</text><text fill="#000000" font-family="sans-serif" font-size="13" lengthAdjust="spacing" textLength="259" x="55" y="377.377">&#8226; Presenta historial completo de progresi&#243;n</text><text fill="#000000" font-family="sans-serif" font-size="13" lengthAdjust="spacing" textLength="267" x="55" y="395.083">&#8226; Presenta an&#225;lisis arm&#243;nico de la progresi&#243;n</text><text fill="#000000" font-family="sans-serif" font-size="13" lengthAdjust="spacing" textLength="3" x="55" y="412.789">&#160;</text><text fill="#000000" font-family="sans-serif" font-size="13" font-weight="bold" lengthAdjust="spacing" textLength="52" x="55" y="430.495">Sistema</text><text fill="#000000" font-family="sans-serif" font-size="13" lengthAdjust="spacing" textLength="99" x="110" y="430.495">permite solicitar:</text><text fill="#000000" font-family="sans-serif" font-size="13" lengthAdjust="spacing" textLength="152" x="55" y="448.201">&#8226; iniciar nueva progresi&#243;n</text><text fill="#000000" font-family="sans-serif" font-size="13" lengthAdjust="spacing" textLength="124" x="55" y="465.907">&#8226; reiniciar progresi&#243;n</text></g><!--link ProgresionFinalizada to *end*finalizarProgresion--><g id="link_ProgresionFinalizada_*end*finalizarProgresion"><path d="M44,547.1079 C44,559.6579 44,568.3479 44,577.9179 " fill="none" id="ProgresionFinalizada-to-*end*finalizarProgresion" style="stroke:#008000;stroke-width:1.0;"/><polygon fill="#008000" points="44,583.9179,48,574.9179,44,578.9179,40,574.9179,44,583.9179" style="stroke:#008000;stroke-width:1.0;"/></g><g id="PROGRESION_FINALIZADA"><rect fill="#F1F1F1" height="50" rx="12.5" ry="12.5" style="stroke:#181818;stroke-width:0.5;" width="196" x="78.5" y="676"/><line style="stroke:#181818;stroke-width:0.5;" x1="78.5" x2="274.5" y1="705.0679" y2="705.0679"/><text fill="#000000" font-family="sans-serif" font-size="14" lengthAdjust="spacing" textLength="176" x="88.5" y="695.9659">PROGRESION_FINALIZADA</text></g><!--link PROGRESION_EN_CONSTRUCCION_1 to finalizarProgresion--><g id="link_PROGRESION_EN_CONSTRUCCION_1_finalizarProgresion"><path d="M176.5,57.18 C176.5,72.12 176.5,86.99 176.5,110.9 " fill="none" id="PROGRESION_EN_CONSTRUCCION_1-to-finalizarProgresion" style="stroke:#008000;stroke-width:1.0;"/><polygon fill="#008000" points="176.5,116.9,180.5,107.9,176.5,111.9,172.5,107.9,176.5,116.9" style="stroke:#008000;stroke-width:1.0;"/></g><!--link finalizarProgresion to PROGRESION_FINALIZADA--><g id="link_finalizarProgresion_PROGRESION_FINALIZADA"><path d="M176.5,616.1 C176.5,639.96 176.5,654.8 176.5,669.74 " fill="none" id="finalizarProgresion-to-PROGRESION_FINALIZADA" style="stroke:#008000;stroke-width:1.0;"/><polygon fill="#008000" points="176.5,675.74,180.5,666.74,176.5,670.74,172.5,666.74,176.5,675.74" style="stroke:#008000;stroke-width:1.0;"/></g><!--SRC=[VLFTIiCm5BxFKuHwey8GRsKCnjoauBgnwerZZBCswc5fKf8gJ15y5Nq5xxpTc_WaddRjkh1kBHHo-lsTayGkKQLW8E4IbSXMgU2fbgjymPZD81DyF1dTJFgXFmhc_M3U6mNXtUI-rylNbnmizmu3F7QKt9gUF1aXrApLuO-eGE8RcB7HLBIeLHMWuLVXkrTV_wZJCu-_CyRfsP0zUWaSQeaHPg1YFIXfKMwn1wmzAbmC6xtf-Sn9V4nIQLAac3J7PL5eBph3zQ_5IBSl5XrkIsxT6q_h9Wg6K74Xip4_OEO4Qen-A4s8DXC956bIOWb5QNOoR9EL6d-Vttm89d91aKvq_acbo7QHuqhncMoqGP0LIlDOxFNgK42jloHQj1nCGWYQMSwHZZDhx4EO1AdLQhhcQgkE98CqPVKYNg7HtuWAStmdcgRiR0ET4yO-66iwjivsrLTZu0VTM_-XUzrb_m00]--></g></svg>