<?xml version="1.0" encoding="us-ascii" standalone="no"?><svg xmlns="http://www.w3.org/2000/svg" xmlns:xlink="http://www.w3.org/1999/xlink" contentStyleType="text/css" height="472px" preserveAspectRatio="none" style="width:581px;height:472px;background:#FFFFFF;" version="1.1" viewBox="0 0 581 472" width="581px" zoomAndPan="magnify"><defs/><g><!--class Examen--><g id="elem_Examen"><rect fill="#F1F1F1" height="48" id="Examen" rx="2.5" ry="2.5" style="stroke:#181818;stroke-width:0.5;" width="85" x="371.5" y="290"/><ellipse cx="386.5" cy="306" fill="#ADD1B2" rx="11" ry="11" style="stroke:#181818;stroke-width:1.0;"/><path d="M389.4688,311.6406 Q388.8906,311.9375 388.25,312.0781 Q387.6094,312.2344 386.9063,312.2344 Q384.4063,312.2344 383.0781,310.5938 Q381.7656,308.9375 381.7656,305.8125 Q381.7656,302.6875 383.0781,301.0313 Q384.4063,299.375 386.9063,299.375 Q387.6094,299.375 388.25,299.5313 Q388.9063,299.6875 389.4688,299.9844 L389.4688,302.7031 Q388.8438,302.125 388.25,301.8594 Q387.6563,301.5781 387.0313,301.5781 Q385.6875,301.5781 385,302.6563 Q384.3125,303.7188 384.3125,305.8125 Q384.3125,307.9063 385,308.9844 Q385.6875,310.0469 387.0313,310.0469 Q387.6563,310.0469 388.25,309.7813 Q388.8438,309.5 389.4688,308.9219 L389.4688,311.6406 Z " fill="#000000"/><text fill="#000000" font-family="sans-serif" font-size="14" lengthAdjust="spacing" textLength="53" x="400.5" y="311.432">Examen</text><line style="stroke:#181818;stroke-width:0.5;" x1="372.5" x2="455.5" y1="322" y2="322"/><line style="stroke:#181818;stroke-width:0.5;" x1="372.5" x2="455.5" y1="330" y2="330"/></g><!--class Estudiante--><g id="elem_Estudiante"><rect fill="#F1F1F1" height="48" id="Estudiante" rx="2.5" ry="2.5" style="stroke:#181818;stroke-width:0.5;" width="104" x="104" y="417"/><ellipse cx="119" cy="433" fill="#ADD1B2" rx="11" ry="11" style="stroke:#181818;stroke-width:1.0;"/><path d="M121.9688,438.6406 Q121.3906,438.9375 120.75,439.0781 Q120.1094,439.2344 119.4063,439.2344 Q116.9063,439.2344 115.5781,437.5938 Q114.2656,435.9375 114.2656,432.8125 Q114.2656,429.6875 115.5781,428.0313 Q116.9063,426.375 119.4063,426.375 Q120.1094,426.375 120.75,426.5313 Q121.4063,426.6875 121.9688,426.9844 L121.9688,429.7031 Q121.3438,429.125 120.75,428.8594 Q120.1563,428.5781 119.5313,428.5781 Q118.1875,428.5781 117.5,429.6563 Q116.8125,430.7188 116.8125,432.8125 Q116.8125,434.9063 117.5,435.9844 Q118.1875,437.0469 119.5313,437.0469 Q120.1563,437.0469 120.75,436.7813 Q121.3438,436.5 121.9688,435.9219 L121.9688,438.6406 Z " fill="#000000"/><text fill="#000000" font-family="sans-serif" font-size="14" lengthAdjust="spacing" textLength="72" x="133" y="438.432">Estudiante</text><line style="stroke:#181818;stroke-width:0.5;" x1="105" x2="207" y1="449" y2="449"/><line style="stroke:#181818;stroke-width:0.5;" x1="105" x2="207" y1="457" y2="457"/></g><!--class Pregunta--><g id="elem_Pregunta"><rect fill="#F1F1F1" height="48" id="Pregunta" rx="2.5" ry="2.5" style="stroke:#181818;stroke-width:0.5;" width="94" x="378" y="417"/><ellipse cx="393" cy="433" fill="#ADD1B2" rx="11" ry="11" style="stroke:#181818;stroke-width:1.0;"/><path d="M395.9688,438.6406 Q395.3906,438.9375 394.75,439.0781 Q394.1094,439.2344 393.4063,439.2344 Q390.9063,439.2344 389.5781,437.5938 Q388.2656,435.9375 388.2656,432.8125 Q388.2656,429.6875 389.5781,428.0313 Q390.9063,426.375 393.4063,426.375 Q394.1094,426.375 394.75,426.5313 Q395.4063,426.6875 395.9688,426.9844 L395.9688,429.7031 Q395.3438,429.125 394.75,428.8594 Q394.1563,428.5781 393.5313,428.5781 Q392.1875,428.5781 391.5,429.6563 Q390.8125,430.7188 390.8125,432.8125 Q390.8125,434.9063 391.5,435.9844 Q392.1875,437.0469 393.5313,437.0469 Q394.1563,437.0469 394.75,436.7813 Q395.3438,436.5 395.9688,435.9219 L395.9688,438.6406 Z " fill="#000000"/><text fill="#000000" font-family="sans-serif" font-size="14" lengthAdjust="spacing" textLength="62" x="407" y="438.432">Pregunta</text><line style="stroke:#181818;stroke-width:0.5;" x1="379" x2="471" y1="449" y2="449"/><line style="stroke:#181818;stroke-width:0.5;" x1="379" x2="471" y1="457" y2="457"/></g><!--class BancoPreguntas--><g id="elem_BancoPreguntas"><rect fill="#F1F1F1" height="48" id="BancoPreguntas" rx="2.5" ry="2.5" style="stroke:#181818;stroke-width:0.5;" width="142" x="392" y="212"/><ellipse cx="407" cy="228" fill="#ADD1B2" rx="11" ry="11" style="stroke:#181818;stroke-width:1.0;"/><path d="M409.9688,233.6406 Q409.3906,233.9375 408.75,234.0781 Q408.1094,234.2344 407.4063,234.2344 Q404.9063,234.2344 403.5781,232.5938 Q402.2656,230.9375 402.2656,227.8125 Q402.2656,224.6875 403.5781,223.0313 Q404.9063,221.375 407.4063,221.375 Q408.1094,221.375 408.75,221.5313 Q409.4063,221.6875 409.9688,221.9844 L409.9688,224.7031 Q409.3438,224.125 408.75,223.8594 Q408.1563,223.5781 407.5313,223.5781 Q406.1875,223.5781 405.5,224.6563 Q404.8125,225.7188 404.8125,227.8125 Q404.8125,229.9063 405.5,230.9844 Q406.1875,232.0469 407.5313,232.0469 Q408.1563,232.0469 408.75,231.7813 Q409.3438,231.5 409.9688,230.9219 L409.9688,233.6406 Z " fill="#000000"/><text fill="#000000" font-family="sans-serif" font-size="14" lengthAdjust="spacing" textLength="110" x="421" y="233.432">BancoPreguntas</text><line style="stroke:#181818;stroke-width:0.5;" x1="393" x2="533" y1="244" y2="244"/><line style="stroke:#181818;stroke-width:0.5;" x1="393" x2="533" y1="252" y2="252"/></g><!--class ListaEstudiantes--><g id="elem_ListaEstudiantes"><rect fill="#F1F1F1" height="48" id="ListaEstudiantes" rx="2.5" ry="2.5" style="stroke:#181818;stroke-width:0.5;" width="142" x="7" y="212"/><ellipse cx="22" cy="228" fill="#ADD1B2" rx="11" ry="11" style="stroke:#181818;stroke-width:1.0;"/><path d="M24.9688,233.6406 Q24.3906,233.9375 23.75,234.0781 Q23.1094,234.2344 22.4063,234.2344 Q19.9063,234.2344 18.5781,232.5938 Q17.2656,230.9375 17.2656,227.8125 Q17.2656,224.6875 18.5781,223.0313 Q19.9063,221.375 22.4063,221.375 Q23.1094,221.375 23.75,221.5313 Q24.4063,221.6875 24.9688,221.9844 L24.9688,224.7031 Q24.3438,224.125 23.75,223.8594 Q23.1563,223.5781 22.5313,223.5781 Q21.1875,223.5781 20.5,224.6563 Q19.8125,225.7188 19.8125,227.8125 Q19.8125,229.9063 20.5,230.9844 Q21.1875,232.0469 22.5313,232.0469 Q23.1563,232.0469 23.75,231.7813 Q24.3438,231.5 24.9688,230.9219 L24.9688,233.6406 Z " fill="#000000"/><text fill="#000000" font-family="sans-serif" font-size="14" lengthAdjust="spacing" textLength="110" x="36" y="233.432">ListaEstudiantes</text><line style="stroke:#181818;stroke-width:0.5;" x1="8" x2="148" y1="244" y2="244"/><line style="stroke:#181818;stroke-width:0.5;" x1="8" x2="148" y1="252" y2="252"/></g><!--class RegistroTrazabilidad--><g id="elem_RegistroTrazabilidad"><rect fill="#F1F1F1" height="48" id="RegistroTrazabilidad" rx="2.5" ry="2.5" style="stroke:#181818;stroke-width:0.5;" width="172" x="166" y="134"/><ellipse cx="181" cy="150" fill="#ADD1B2" rx="11" ry="11" style="stroke:#181818;stroke-width:1.0;"/><path d="M183.9688,155.6406 Q183.3906,155.9375 182.75,156.0781 Q182.1094,156.2344 181.4063,156.2344 Q178.9063,156.2344 177.5781,154.5938 Q176.2656,152.9375 176.2656,149.8125 Q176.2656,146.6875 177.5781,145.0313 Q178.9063,143.375 181.4063,143.375 Q182.1094,143.375 182.75,143.5313 Q183.4063,143.6875 183.9688,143.9844 L183.9688,146.7031 Q183.3438,146.125 182.75,145.8594 Q182.1563,145.5781 181.5313,145.5781 Q180.1875,145.5781 179.5,146.6563 Q178.8125,147.7188 178.8125,149.8125 Q178.8125,151.9063 179.5,152.9844 Q180.1875,154.0469 181.5313,154.0469 Q182.1563,154.0469 182.75,153.7813 Q183.3438,153.5 183.9688,152.9219 L183.9688,155.6406 Z " fill="#000000"/><text fill="#000000" font-family="sans-serif" font-size="14" lengthAdjust="spacing" textLength="140" x="195" y="155.432">RegistroTrazabilidad</text><line style="stroke:#181818;stroke-width:0.5;" x1="167" x2="337" y1="166" y2="166"/><line style="stroke:#181818;stroke-width:0.5;" x1="167" x2="337" y1="174" y2="174"/></g><!--class AsignacionPregunta--><g id="elem_AsignacionPregunta"><rect fill="#F1F1F1" height="48" id="AsignacionPregunta" rx="2.5" ry="2.5" style="stroke:#181818;stroke-width:0.5;" width="168" x="168" y="290"/><ellipse cx="183" cy="306" fill="#ADD1B2" rx="11" ry="11" style="stroke:#181818;stroke-width:1.0;"/><path d="M185.9688,311.6406 Q185.3906,311.9375 184.75,312.0781 Q184.1094,312.2344 183.4063,312.2344 Q180.9063,312.2344 179.5781,310.5938 Q178.2656,308.9375 178.2656,305.8125 Q178.2656,302.6875 179.5781,301.0313 Q180.9063,299.375 183.4063,299.375 Q184.1094,299.375 184.75,299.5313 Q185.4063,299.6875 185.9688,299.9844 L185.9688,302.7031 Q185.3438,302.125 184.75,301.8594 Q184.1563,301.5781 183.5313,301.5781 Q182.1875,301.5781 181.5,302.6563 Q180.8125,303.7188 180.8125,305.8125 Q180.8125,307.9063 181.5,308.9844 Q182.1875,310.0469 183.5313,310.0469 Q184.1563,310.0469 184.75,309.7813 Q185.3438,309.5 185.9688,308.9219 L185.9688,311.6406 Z " fill="#000000"/><text fill="#000000" font-family="sans-serif" font-size="14" lengthAdjust="spacing" textLength="136" x="197" y="311.432">AsignacionPregunta</text><line style="stroke:#181818;stroke-width:0.5;" x1="169" x2="335" y1="322" y2="322"/><line style="stroke:#181818;stroke-width:0.5;" x1="169" x2="335" y1="330" y2="330"/></g><!--class GeneradorExamenes--><g id="elem_GeneradorExamenes"><rect fill="#F1F1F1" height="48" id="GeneradorExamenes" rx="2.5" ry="2.5" style="stroke:#181818;stroke-width:0.5;" width="172" x="166" y="7"/><ellipse cx="181" cy="23" fill="#ADD1B2" rx="11" ry="11" style="stroke:#181818;stroke-width:1.0;"/><path d="M183.9688,28.6406 Q183.3906,28.9375 182.75,29.0781 Q182.1094,29.2344 181.4063,29.2344 Q178.9063,29.2344 177.5781,27.5938 Q176.2656,25.9375 176.2656,22.8125 Q176.2656,19.6875 177.5781,18.0313 Q178.9063,16.375 181.4063,16.375 Q182.1094,16.375 182.75,16.5313 Q183.4063,16.6875 183.9688,16.9844 L183.9688,19.7031 Q183.3438,19.125 182.75,18.8594 Q182.1563,18.5781 181.5313,18.5781 Q180.1875,18.5781 179.5,19.6563 Q178.8125,20.7188 178.8125,22.8125 Q178.8125,24.9063 179.5,25.9844 Q180.1875,27.0469 181.5313,27.0469 Q182.1563,27.0469 182.75,26.7813 Q183.3438,26.5 183.9688,25.9219 L183.9688,28.6406 Z " fill="#000000"/><text fill="#000000" font-family="sans-serif" font-size="14" lengthAdjust="spacing" textLength="140" x="195" y="28.432">GeneradorExamenes</text><line style="stroke:#181818;stroke-width:0.5;" x1="167" x2="337" y1="39" y2="39"/><line style="stroke:#181818;stroke-width:0.5;" x1="167" x2="337" y1="47" y2="47"/></g><!--reverse link Examen to Estudiante--><g id="link_Examen_Estudiante"><path codeLine="6" d="M389.6624,347.6654 C377.0024,363.5554 365.79,374.54 345,387 C302.76,412.32 247.99,425.94 208.29,433 " fill="none" id="Examen-backto-Estudiante" style="stroke:#181818;stroke-width:1.0;"/><polygon fill="#181818" points="397.14,338.28,390.2727,340.4802,389.6624,347.6654,396.5297,345.4652,397.14,338.28" style="stroke:#181818;stroke-width:1.0;"/></g><!--reverse link Examen to Pregunta--><g id="link_Examen_Pregunta"><path codeLine="7" d="M417.0943,350.1736 C419.0743,372.6236 421,394.5 422.97,416.91 " fill="none" id="Examen-backto-Pregunta" style="stroke:#181818;stroke-width:1.0;"/><polygon fill="none" points="416.04,338.22,412.5826,344.5482,417.0943,350.1736,420.5517,343.8454,416.04,338.22" style="stroke:#181818;stroke-width:1.0;"/><polygon fill="#000000" points="425.4385,382.8337,427.5728,373.5658,421.7176,374.0813,425.4385,382.8337" style="stroke:#000000;stroke-width:1.0;"/><text fill="#000000" font-family="sans-serif" font-size="13" lengthAdjust="spacing" textLength="52" x="434" y="382.897">contiene</text></g><!--reverse link BancoPreguntas to Pregunta--><g id="link_BancoPreguntas_Pregunta"><path codeLine="9" d="M482.4851,270.5932 C498.8451,301.0732 515.74,345.27 495,387 C489.1,398.88 479.12,408.8 468.52,416.73 " fill="none" id="BancoPreguntas-backto-Pregunta" style="stroke:#181818;stroke-width:1.0;"/><polygon fill="none" points="476.81,260.02,476.1232,267.1983,482.4851,270.5932,483.172,263.4149,476.81,260.02" style="stroke:#181818;stroke-width:1.0;"/><polygon fill="#000000" points="506.5244,319.3303,510.3104,310.6058,504.4592,310.0467,506.5244,319.3303" style="stroke:#000000;stroke-width:1.0;"/><text fill="#000000" font-family="sans-serif" font-size="13" lengthAdjust="spacing" textLength="57" x="516" y="319.397">almacena</text></g><!--reverse link ListaEstudiantes to Estudiante--><g id="link_ListaEstudiantes_Estudiante"><path codeLine="10" d="M74.7038,272.1429 C73.2938,293.0829 74.1,312.47 83,338 C93.53,368.23 116.04,397.37 133.3,416.71 " fill="none" id="ListaEstudiantes-backto-Estudiante" style="stroke:#181818;stroke-width:1.0;"/><polygon fill="none" points="75.51,260.17,71.1159,265.8877,74.7038,272.1429,79.0979,266.4252,75.51,260.17" style="stroke:#181818;stroke-width:1.0;"/><polygon fill="#000000" points="89.8782,318.9868,89.2042,309.5002,83.7568,311.7081,89.8782,318.9868" style="stroke:#000000;stroke-width:1.0;"/><text fill="#000000" font-family="sans-serif" font-size="13" lengthAdjust="spacing" textLength="52" x="97" y="319.397">gestiona</text></g><!--reverse link RegistroTrazabilidad to AsignacionPregunta--><g id="link_RegistroTrazabilidad_AsignacionPregunta"><path codeLine="12" d="M252,194.06 C252,223.09 252,260.68 252,289.79 " fill="none" id="RegistroTrazabilidad-backto-AsignacionPregunta" style="stroke:#181818;stroke-width:1.0;"/><polygon fill="none" points="252,182.06,248,188.06,252,194.06,256,188.06,252,182.06" style="stroke:#181818;stroke-width:1.0;"/><polygon fill="#000000" points="257,241.353,259.9389,232.3079,254.0611,232.3079,257,241.353" style="stroke:#000000;stroke-width:1.0;"/><text fill="#000000" font-family="sans-serif" font-size="13" lengthAdjust="spacing" textLength="57" x="266" y="241.397">mantiene</text></g><!--reverse link AsignacionPregunta to Estudiante--><g id="link_AsignacionPregunta_Estudiante"><path codeLine="13" d="M174.6939,344.1563 C161.9439,351.6763 160.56,355.37 153,368 C144.26,382.6 145.65,402 148.88,416.99 " fill="none" id="AsignacionPregunta-backto-Estudiante" style="stroke:#181818;stroke-width:1.0;"/><polygon fill="none" points="185.03,338.06,177.8298,337.6628,174.6939,344.1563,181.894,344.5535,185.03,338.06" style="stroke:#181818;stroke-width:1.0;"/><polygon fill="#000000" points="156.3297,382.5658,162.1214,375.0221,156.5812,373.0585,156.3297,382.5658" style="stroke:#000000;stroke-width:1.0;"/><text fill="#000000" font-family="sans-serif" font-size="13" lengthAdjust="spacing" textLength="59" x="167" y="382.897">referencia</text></g><!--reverse link AsignacionPregunta to Pregunta--><g id="link_AsignacionPregunta_Pregunta"><path codeLine="14" d="M285.7036,346.2963 C301.9536,361.0163 315.1,371.99 336,387 C350.75,397.6 367.72,408.08 382.85,416.89 " fill="none" id="AsignacionPregunta-backto-Pregunta" style="stroke:#181818;stroke-width:1.0;"/><polygon fill="none" points="276.81,338.24,278.5714,345.2327,285.7036,346.2963,283.9422,339.3036,276.81,338.24" style="stroke:#181818;stroke-width:1.0;"/><polygon fill="#000000" points="345.0448,380.7923,339.4553,373.0976,336,377.8526,345.0448,380.7923" style="stroke:#000000;stroke-width:1.0;"/><text fill="#000000" font-family="sans-serif" font-size="13" lengthAdjust="spacing" textLength="59" x="350" y="382.897">referencia</text></g><!--reverse link GeneradorExamenes to BancoPreguntas--><g id="link_GeneradorExamenes_BancoPreguntas"><path codeLine="16" d="M284.8494,63.6079 C325.5594,102.7579 398.57,173.01 439.08,211.98 " fill="none" id="GeneradorExamenes-backto-BancoPreguntas" style="stroke:#181818;stroke-width:1.0;"/><polygon fill="#181818" points="276.2,55.29,277.752,62.3321,284.8494,63.6079,283.2973,56.5658,276.2,55.29" style="stroke:#181818;stroke-width:1.0;"/><polygon fill="#000000" points="334.6033,98.3194,330.1224,89.9306,326.0473,94.1666,334.6033,98.3194" style="stroke:#000000;stroke-width:1.0;"/><text fill="#000000" font-family="sans-serif" font-size="13" lengthAdjust="spacing" textLength="21" x="340" y="99.897">usa</text></g><!--reverse link GeneradorExamenes to ListaEstudiantes--><g id="link_GeneradorExamenes_ListaEstudiantes"><path codeLine="17" d="M216.9707,63.1421 C195.0807,83.0421 172.46,105 148,134 C126.82,159.12 105.79,190.56 92.4,211.64 " fill="none" id="GeneradorExamenes-backto-ListaEstudiantes" style="stroke:#181818;stroke-width:1.0;"/><polygon fill="#181818" points="225.85,55.07,218.7197,56.1463,216.9707,63.1421,224.1011,62.0658,225.85,55.07" style="stroke:#181818;stroke-width:1.0;"/><polygon fill="#000000" points="194.7866,98.6837,202.8513,93.6428,198.3481,89.8651,194.7866,98.6837" style="stroke:#000000;stroke-width:1.0;"/><text fill="#000000" font-family="sans-serif" font-size="13" lengthAdjust="spacing" textLength="21" x="207" y="99.897">usa</text></g><!--reverse link GeneradorExamenes to RegistroTrazabilidad--><g id="link_GeneradorExamenes_RegistroTrazabilidad"><path codeLine="18" d="M252,67.22 C252,89.67 252,111.5 252,133.91 " fill="none" id="GeneradorExamenes-backto-RegistroTrazabilidad" style="stroke:#181818;stroke-width:1.0;"/><polygon fill="#181818" points="252,55.22,248,61.22,252,67.22,256,61.22,252,55.22" style="stroke:#181818;stroke-width:1.0;"/><polygon fill="#000000" points="257,99.853,259.9389,90.8079,254.0611,90.8079,257,99.853" style="stroke:#000000;stroke-width:1.0;"/><text fill="#000000" font-family="sans-serif" font-size="13" lengthAdjust="spacing" textLength="21" x="266" y="99.897">usa</text></g><!--SRC=[bP51QiCm44NtEeMoBUG2MGISO8B1iKsYJLTb8etDW3q2IORIqrT9wpXntU9kvy_JaxvM1cjYb6cXClKgTGlUYzNtCC_EwksKvedAoaBQzVgUxCjZLPwpwtnSU8aB8ds73db-8VMXDmGSS5XxDbGEcvu3o8tKbWDXD6s5s05hEsJ-TmRQ3ZGoH2Od7s3KJQ4nYLY3Ff2zOUA4JIITLGu-u48j6J0JDl7KCEX8FAWxk5zt9lz3xh16Xwm9bg0FnYTG7ABRWR7kgzVuuDaFc3IvaRs_uWlf7wN-avyjTpZZ4m00]--></g></svg>