<?xml version="1.0" encoding="us-ascii" standalone="no"?><svg xmlns="http://www.w3.org/2000/svg" xmlns:xlink="http://www.w3.org/1999/xlink" contentStyleType="text/css" height="1292px" preserveAspectRatio="none" style="width:1297px;height:1292px;background:#FFFFFF;" version="1.1" viewBox="0 0 1297 1292" width="1297px" zoomAndPan="magnify"><defs/><g><!--class Pregunta--><g id="elem_Pregunta"><rect codeLine="6" fill="#F1F1F1" height="314.9508" id="Pregunta" rx="2.5" ry="2.5" style="stroke:#181818;stroke-width:0.5;" width="491" x="274" y="971"/><ellipse cx="484.25" cy="987" fill="#ADD1B2" rx="11" ry="11" style="stroke:#181818;stroke-width:1.0;"/><path d="M487.2188,992.6406 Q486.6406,992.9375 486,993.0781 Q485.3594,993.2344 484.6563,993.2344 Q482.1563,993.2344 480.8281,991.5938 Q479.5156,989.9375 479.5156,986.8125 Q479.5156,983.6875 480.8281,982.0313 Q482.1563,980.375 484.6563,980.375 Q485.3594,980.375 486,980.5313 Q486.6563,980.6875 487.2188,980.9844 L487.2188,983.7031 Q486.5938,983.125 486,982.8594 Q485.4063,982.5781 484.7813,982.5781 Q483.4375,982.5781 482.75,983.6563 Q482.0625,984.7188 482.0625,986.8125 Q482.0625,988.9063 482.75,989.9844 Q483.4375,991.0469 484.7813,991.0469 Q485.4063,991.0469 486,990.7813 Q486.5938,990.5 487.2188,989.9219 L487.2188,992.6406 Z " fill="#000000"/><text fill="#000000" font-family="sans-serif" font-size="14" lengthAdjust="spacing" textLength="62" x="504.75" y="992.432">Pregunta</text><line style="stroke:#181818;stroke-width:0.5;" x1="275" x2="764" y1="1003" y2="1003"/><rect fill="none" height="6" style="stroke:#C82930;stroke-width:1.0;" width="6" x="282" y="1015.034"/><text fill="#000000" font-family="sans-serif" font-size="14" lengthAdjust="spacing" textLength="39" x="294" y="1021.9659">id: int</text><rect fill="none" height="6" style="stroke:#C82930;stroke-width:1.0;" width="6" x="282" y="1034.1019"/><text fill="#000000" font-family="sans-serif" font-size="14" lengthAdjust="spacing" textLength="120" x="294" y="1041.0339">enunciado: String</text><rect fill="none" height="6" style="stroke:#C82930;stroke-width:1.0;" width="6" x="282" y="1053.1698"/><text fill="#000000" font-family="sans-serif" font-size="14" lengthAdjust="spacing" textLength="103" x="294" y="1060.1018">opcionA: String</text><rect fill="none" height="6" style="stroke:#C82930;stroke-width:1.0;" width="6" x="282" y="1072.2377"/><text fill="#000000" font-family="sans-serif" font-size="14" lengthAdjust="spacing" textLength="103" x="294" y="1079.1697">opcionB: String</text><rect fill="none" height="6" style="stroke:#C82930;stroke-width:1.0;" width="6" x="282" y="1091.3056"/><text fill="#000000" font-family="sans-serif" font-size="14" lengthAdjust="spacing" textLength="103" x="294" y="1098.2376">opcionC: String</text><rect fill="none" height="6" style="stroke:#C82930;stroke-width:1.0;" width="6" x="282" y="1110.3735"/><text fill="#000000" font-family="sans-serif" font-size="14" lengthAdjust="spacing" textLength="104" x="294" y="1117.3055">opcionD: String</text><rect fill="none" height="6" style="stroke:#C82930;stroke-width:1.0;" width="6" x="282" y="1129.4415"/><text fill="#000000" font-family="sans-serif" font-size="14" lengthAdjust="spacing" textLength="162" x="294" y="1136.3734">respuestaCorrecta: char</text><rect fill="none" height="6" style="stroke:#C82930;stroke-width:1.0;" width="6" x="282" y="1148.5094"/><text fill="#000000" font-family="sans-serif" font-size="14" lengthAdjust="spacing" textLength="83" x="294" y="1155.4414">tema: String</text><rect fill="none" height="6" style="stroke:#C82930;stroke-width:1.0;" width="6" x="282" y="1167.5773"/><text fill="#000000" font-family="sans-serif" font-size="14" lengthAdjust="spacing" textLength="90" x="294" y="1174.5093">dificultad: int</text><line style="stroke:#181818;stroke-width:0.5;" x1="275" x2="764" y1="1182.6113" y2="1182.6113"/><ellipse cx="285" cy="1197.6452" fill="#84BE84" rx="3" ry="3" style="stroke:#038048;stroke-width:1.0;"/><text fill="#000000" font-family="sans-serif" font-size="14" lengthAdjust="spacing" textLength="465" x="294" y="1201.5772">Pregunta(id: int, enunciado: String, opciones: String[], correcta: char)</text><ellipse cx="285" cy="1216.7131" fill="#84BE84" rx="3" ry="3" style="stroke:#038048;stroke-width:1.0;"/><text fill="#000000" font-family="sans-serif" font-size="14" lengthAdjust="spacing" textLength="70" x="294" y="1220.6451">getId(): int</text><ellipse cx="285" cy="1235.781" fill="#84BE84" rx="3" ry="3" style="stroke:#038048;stroke-width:1.0;"/><text fill="#000000" font-family="sans-serif" font-size="14" lengthAdjust="spacing" textLength="150" x="294" y="1239.713">getEnunciado(): String</text><ellipse cx="285" cy="1254.849" fill="#84BE84" rx="3" ry="3" style="stroke:#038048;stroke-width:1.0;"/><text fill="#000000" font-family="sans-serif" font-size="14" lengthAdjust="spacing" textLength="116" x="294" y="1258.7809">getTema(): String</text><ellipse cx="285" cy="1273.9169" fill="#84BE84" rx="3" ry="3" style="stroke:#038048;stroke-width:1.0;"/><text fill="#000000" font-family="sans-serif" font-size="14" lengthAdjust="spacing" textLength="247" x="294" y="1277.8489">esCorrecta(respuesta: char): boolean</text></g><!--class Estudiante--><g id="elem_Estudiante"><rect codeLine="23" fill="#F1F1F1" height="181.4754" id="Estudiante" rx="2.5" ry="2.5" style="stroke:#181818;stroke-width:0.5;" width="385" x="800" y="1038"/><ellipse cx="952.25" cy="1054" fill="#ADD1B2" rx="11" ry="11" style="stroke:#181818;stroke-width:1.0;"/><path d="M955.2188,1059.6406 Q954.6406,1059.9375 954,1060.0781 Q953.3594,1060.2344 952.6563,1060.2344 Q950.1563,1060.2344 948.8281,1058.5938 Q947.5156,1056.9375 947.5156,1053.8125 Q947.5156,1050.6875 948.8281,1049.0313 Q950.1563,1047.375 952.6563,1047.375 Q953.3594,1047.375 954,1047.5313 Q954.6563,1047.6875 955.2188,1047.9844 L955.2188,1050.7031 Q954.5938,1050.125 954,1049.8594 Q953.4063,1049.5781 952.7813,1049.5781 Q951.4375,1049.5781 950.75,1050.6563 Q950.0625,1051.7188 950.0625,1053.8125 Q950.0625,1055.9063 950.75,1056.9844 Q951.4375,1058.0469 952.7813,1058.0469 Q953.4063,1058.0469 954,1057.7813 Q954.5938,1057.5 955.2188,1056.9219 L955.2188,1059.6406 Z " fill="#000000"/><text fill="#000000" font-family="sans-serif" font-size="14" lengthAdjust="spacing" textLength="72" x="972.75" y="1059.432">Estudiante</text><line style="stroke:#181818;stroke-width:0.5;" x1="801" x2="1184" y1="1070" y2="1070"/><rect fill="none" height="6" style="stroke:#C82930;stroke-width:1.0;" width="6" x="808" y="1082.034"/><text fill="#000000" font-family="sans-serif" font-size="14" lengthAdjust="spacing" textLength="62" x="820" y="1088.9659">id: String</text><rect fill="none" height="6" style="stroke:#C82930;stroke-width:1.0;" width="6" x="808" y="1101.1019"/><text fill="#000000" font-family="sans-serif" font-size="14" lengthAdjust="spacing" textLength="102" x="820" y="1108.0339">nombre: String</text><rect fill="none" height="6" style="stroke:#C82930;stroke-width:1.0;" width="6" x="808" y="1120.1698"/><text fill="#000000" font-family="sans-serif" font-size="14" lengthAdjust="spacing" textLength="99" x="820" y="1127.1018">seccion: String</text><line style="stroke:#181818;stroke-width:0.5;" x1="801" x2="1184" y1="1135.2038" y2="1135.2038"/><ellipse cx="811" cy="1150.2377" fill="#84BE84" rx="3" ry="3" style="stroke:#038048;stroke-width:1.0;"/><text fill="#000000" font-family="sans-serif" font-size="14" lengthAdjust="spacing" textLength="359" x="820" y="1154.1697">Estudiante(id: String, nombre: String, seccion: String)</text><ellipse cx="811" cy="1169.3056" fill="#84BE84" rx="3" ry="3" style="stroke:#038048;stroke-width:1.0;"/><text fill="#000000" font-family="sans-serif" font-size="14" lengthAdjust="spacing" textLength="93" x="820" y="1173.2376">getId(): String</text><ellipse cx="811" cy="1188.3735" fill="#84BE84" rx="3" ry="3" style="stroke:#038048;stroke-width:1.0;"/><text fill="#000000" font-family="sans-serif" font-size="14" lengthAdjust="spacing" textLength="134" x="820" y="1192.3055">getNombre(): String</text><ellipse cx="811" cy="1207.4415" fill="#84BE84" rx="3" ry="3" style="stroke:#038048;stroke-width:1.0;"/><text fill="#000000" font-family="sans-serif" font-size="14" lengthAdjust="spacing" textLength="130" x="820" y="1211.3734">getSeccion(): String</text></g><!--class Examen--><g id="elem_Examen"><rect codeLine="33" fill="#F1F1F1" height="200.5433" id="Examen" rx="2.5" ry="2.5" style="stroke:#181818;stroke-width:0.5;" width="319" x="815" y="691"/><ellipse cx="943.75" cy="707" fill="#ADD1B2" rx="11" ry="11" style="stroke:#181818;stroke-width:1.0;"/><path d="M946.7188,712.6406 Q946.1406,712.9375 945.5,713.0781 Q944.8594,713.2344 944.1563,713.2344 Q941.6563,713.2344 940.3281,711.5938 Q939.0156,709.9375 939.0156,706.8125 Q939.0156,703.6875 940.3281,702.0313 Q941.6563,700.375 944.1563,700.375 Q944.8594,700.375 945.5,700.5313 Q946.1563,700.6875 946.7188,700.9844 L946.7188,703.7031 Q946.0938,703.125 945.5,702.8594 Q944.9063,702.5781 944.2813,702.5781 Q942.9375,702.5781 942.25,703.6563 Q941.5625,704.7188 941.5625,706.8125 Q941.5625,708.9063 942.25,709.9844 Q942.9375,711.0469 944.2813,711.0469 Q944.9063,711.0469 945.5,710.7813 Q946.0938,710.5 946.7188,709.9219 L946.7188,712.6406 Z " fill="#000000"/><text fill="#000000" font-family="sans-serif" font-size="14" lengthAdjust="spacing" textLength="53" x="964.25" y="712.432">Examen</text><line style="stroke:#181818;stroke-width:0.5;" x1="816" x2="1133" y1="723" y2="723"/><rect fill="none" height="6" style="stroke:#C82930;stroke-width:1.0;" width="6" x="823" y="735.034"/><text fill="#000000" font-family="sans-serif" font-size="14" lengthAdjust="spacing" textLength="152" x="835" y="741.9659">estudiante: Estudiante</text><rect fill="none" height="6" style="stroke:#C82930;stroke-width:1.0;" width="6" x="823" y="754.1019"/><text fill="#000000" font-family="sans-serif" font-size="14" lengthAdjust="spacing" textLength="179" x="835" y="761.0339">preguntas: List&lt;Pregunta&gt;</text><rect fill="none" height="6" style="stroke:#C82930;stroke-width:1.0;" width="6" x="823" y="773.1698"/><text fill="#000000" font-family="sans-serif" font-size="14" lengthAdjust="spacing" textLength="153" x="835" y="780.1018">fechaGeneracion: Date</text><line style="stroke:#181818;stroke-width:0.5;" x1="816" x2="1133" y1="788.2038" y2="788.2038"/><ellipse cx="826" cy="803.2377" fill="#84BE84" rx="3" ry="3" style="stroke:#038048;stroke-width:1.0;"/><text fill="#000000" font-family="sans-serif" font-size="14" lengthAdjust="spacing" textLength="213" x="835" y="807.1697">Examen(estudiante: Estudiante)</text><ellipse cx="826" cy="822.3056" fill="#84BE84" rx="3" ry="3" style="stroke:#038048;stroke-width:1.0;"/><text fill="#000000" font-family="sans-serif" font-size="14" lengthAdjust="spacing" textLength="293" x="835" y="826.2376">agregarPregunta(pregunta: Pregunta): void</text><ellipse cx="826" cy="841.3735" fill="#84BE84" rx="3" ry="3" style="stroke:#038048;stroke-width:1.0;"/><text fill="#000000" font-family="sans-serif" font-size="14" lengthAdjust="spacing" textLength="208" x="835" y="845.3055">getPreguntas(): List&lt;Pregunta&gt;</text><ellipse cx="826" cy="860.4415" fill="#84BE84" rx="3" ry="3" style="stroke:#038048;stroke-width:1.0;"/><text fill="#000000" font-family="sans-serif" font-size="14" lengthAdjust="spacing" textLength="182" x="835" y="864.3734">getEstudiante(): Estudiante</text><ellipse cx="826" cy="879.5094" fill="#84BE84" rx="3" ry="3" style="stroke:#038048;stroke-width:1.0;"/><text fill="#000000" font-family="sans-serif" font-size="14" lengthAdjust="spacing" textLength="110" x="835" y="883.4414">getTama&#241;o(): int</text></g><!--class BancoPreguntas--><g id="elem_BancoPreguntas"><rect codeLine="44" fill="#F1F1F1" height="200.5433" id="BancoPreguntas" rx="2.5" ry="2.5" style="stroke:#181818;stroke-width:0.5;" width="421" x="7" y="460"/><ellipse cx="158.25" cy="476" fill="#ADD1B2" rx="11" ry="11" style="stroke:#181818;stroke-width:1.0;"/><path d="M161.2188,481.6406 Q160.6406,481.9375 160,482.0781 Q159.3594,482.2344 158.6563,482.2344 Q156.1563,482.2344 154.8281,480.5938 Q153.5156,478.9375 153.5156,475.8125 Q153.5156,472.6875 154.8281,471.0313 Q156.1563,469.375 158.6563,469.375 Q159.3594,469.375 160,469.5313 Q160.6563,469.6875 161.2188,469.9844 L161.2188,472.7031 Q160.5938,472.125 160,471.8594 Q159.4063,471.5781 158.7813,471.5781 Q157.4375,471.5781 156.75,472.6563 Q156.0625,473.7188 156.0625,475.8125 Q156.0625,477.9063 156.75,478.9844 Q157.4375,480.0469 158.7813,480.0469 Q159.4063,480.0469 160,479.7813 Q160.5938,479.5 161.2188,478.9219 L161.2188,481.6406 Z " fill="#000000"/><text fill="#000000" font-family="sans-serif" font-size="14" lengthAdjust="spacing" textLength="110" x="178.75" y="481.432">BancoPreguntas</text><line style="stroke:#181818;stroke-width:0.5;" x1="8" x2="427" y1="492" y2="492"/><rect fill="none" height="6" style="stroke:#C82930;stroke-width:1.0;" width="6" x="15" y="504.034"/><text fill="#000000" font-family="sans-serif" font-size="14" lengthAdjust="spacing" textLength="179" x="27" y="510.9659">preguntas: List&lt;Pregunta&gt;</text><rect fill="none" height="6" style="stroke:#C82930;stroke-width:1.0;" width="6" x="15" y="523.1019"/><text fill="#000000" font-family="sans-serif" font-size="14" lengthAdjust="spacing" textLength="149" x="27" y="530.0339">indiceDistribucion: int</text><line style="stroke:#181818;stroke-width:0.5;" x1="8" x2="427" y1="538.1358" y2="538.1358"/><ellipse cx="18" cy="553.1698" fill="#84BE84" rx="3" ry="3" style="stroke:#038048;stroke-width:1.0;"/><text fill="#000000" font-family="sans-serif" font-size="14" lengthAdjust="spacing" textLength="118" x="27" y="557.1018">BancoPreguntas()</text><ellipse cx="18" cy="572.2377" fill="#84BE84" rx="3" ry="3" style="stroke:#038048;stroke-width:1.0;"/><text fill="#000000" font-family="sans-serif" font-size="14" lengthAdjust="spacing" textLength="293" x="27" y="576.1697">agregarPregunta(pregunta: Pregunta): void</text><ellipse cx="18" cy="591.3056" fill="#84BE84" rx="3" ry="3" style="stroke:#038048;stroke-width:1.0;"/><text fill="#000000" font-family="sans-serif" font-size="14" lengthAdjust="spacing" textLength="381" x="27" y="595.2376">obtenerPreguntasPorTema(tema: String): List&lt;Pregunta&gt;</text><ellipse cx="18" cy="610.3735" fill="#84BE84" rx="3" ry="3" style="stroke:#038048;stroke-width:1.0;"/><text fill="#000000" font-family="sans-serif" font-size="14" lengthAdjust="spacing" textLength="395" x="27" y="614.3055">obtenerSiguientesPreguntas(cantidad: int): List&lt;Pregunta&gt;</text><ellipse cx="18" cy="629.4415" fill="#84BE84" rx="3" ry="3" style="stroke:#038048;stroke-width:1.0;"/><text fill="#000000" font-family="sans-serif" font-size="14" lengthAdjust="spacing" textLength="158" x="27" y="633.3734">getTotalPreguntas(): int</text><ellipse cx="18" cy="648.5094" fill="#84BE84" rx="3" ry="3" style="stroke:#038048;stroke-width:1.0;"/><text fill="#000000" font-family="sans-serif" font-size="14" lengthAdjust="spacing" textLength="182" x="27" y="652.4414">reiniciarDistribucion(): void</text></g><!--class ListaEstudiantes--><g id="elem_ListaEstudiantes"><rect codeLine="55" fill="#F1F1F1" height="162.4075" id="ListaEstudiantes" rx="2.5" ry="2.5" style="stroke:#181818;stroke-width:0.5;" width="348" x="942.5" y="479.5"/><ellipse cx="1057.25" cy="495.5" fill="#ADD1B2" rx="11" ry="11" style="stroke:#181818;stroke-width:1.0;"/><path d="M1060.2188,501.1406 Q1059.6406,501.4375 1059,501.5781 Q1058.3594,501.7344 1057.6563,501.7344 Q1055.1563,501.7344 1053.8281,500.0938 Q1052.5156,498.4375 1052.5156,495.3125 Q1052.5156,492.1875 1053.8281,490.5313 Q1055.1563,488.875 1057.6563,488.875 Q1058.3594,488.875 1059,489.0313 Q1059.6563,489.1875 1060.2188,489.4844 L1060.2188,492.2031 Q1059.5938,491.625 1059,491.3594 Q1058.4063,491.0781 1057.7813,491.0781 Q1056.4375,491.0781 1055.75,492.1563 Q1055.0625,493.2188 1055.0625,495.3125 Q1055.0625,497.4063 1055.75,498.4844 Q1056.4375,499.5469 1057.7813,499.5469 Q1058.4063,499.5469 1059,499.2813 Q1059.5938,499 1060.2188,498.4219 L1060.2188,501.1406 Z " fill="#000000"/><text fill="#000000" font-family="sans-serif" font-size="14" lengthAdjust="spacing" textLength="110" x="1077.75" y="500.932">ListaEstudiantes</text><line style="stroke:#181818;stroke-width:0.5;" x1="943.5" x2="1289.5" y1="511.5" y2="511.5"/><rect fill="none" height="6" style="stroke:#C82930;stroke-width:1.0;" width="6" x="950.5" y="523.534"/><text fill="#000000" font-family="sans-serif" font-size="14" lengthAdjust="spacing" textLength="198" x="962.5" y="530.4659">estudiantes: List&lt;Estudiante&gt;</text><line style="stroke:#181818;stroke-width:0.5;" x1="943.5" x2="1289.5" y1="538.5679" y2="538.5679"/><ellipse cx="953.5" cy="553.6019" fill="#84BE84" rx="3" ry="3" style="stroke:#038048;stroke-width:1.0;"/><text fill="#000000" font-family="sans-serif" font-size="14" lengthAdjust="spacing" textLength="118" x="962.5" y="557.5339">ListaEstudiantes()</text><ellipse cx="953.5" cy="572.6698" fill="#84BE84" rx="3" ry="3" style="stroke:#038048;stroke-width:1.0;"/><text fill="#000000" font-family="sans-serif" font-size="14" lengthAdjust="spacing" textLength="322" x="962.5" y="576.6018">agregarEstudiante(estudiante: Estudiante): void</text><ellipse cx="953.5" cy="591.7377" fill="#84BE84" rx="3" ry="3" style="stroke:#038048;stroke-width:1.0;"/><text fill="#000000" font-family="sans-serif" font-size="14" lengthAdjust="spacing" textLength="268" x="962.5" y="595.6697">buscarEstudiante(id: String): Estudiante</text><ellipse cx="953.5" cy="610.8056" fill="#84BE84" rx="3" ry="3" style="stroke:#038048;stroke-width:1.0;"/><text fill="#000000" font-family="sans-serif" font-size="14" lengthAdjust="spacing" textLength="321" x="962.5" y="614.7376">obtenerTodosLosEstudiantes(): List&lt;Estudiante&gt;</text><ellipse cx="953.5" cy="629.8735" fill="#84BE84" rx="3" ry="3" style="stroke:#038048;stroke-width:1.0;"/><text fill="#000000" font-family="sans-serif" font-size="14" lengthAdjust="spacing" textLength="168" x="962.5" y="633.8055">getTotalEstudiantes(): int</text></g><!--class RegistroTrazabilidad--><g id="elem_RegistroTrazabilidad"><rect codeLine="64" fill="#F1F1F1" height="143.3396" id="RegistroTrazabilidad" rx="2.5" ry="2.5" style="stroke:#181818;stroke-width:0.5;" width="507" x="295" y="287"/><ellipse cx="474.25" cy="303" fill="#ADD1B2" rx="11" ry="11" style="stroke:#181818;stroke-width:1.0;"/><path d="M477.2188,308.6406 Q476.6406,308.9375 476,309.0781 Q475.3594,309.2344 474.6563,309.2344 Q472.1563,309.2344 470.8281,307.5938 Q469.5156,305.9375 469.5156,302.8125 Q469.5156,299.6875 470.8281,298.0313 Q472.1563,296.375 474.6563,296.375 Q475.3594,296.375 476,296.5313 Q476.6563,296.6875 477.2188,296.9844 L477.2188,299.7031 Q476.5938,299.125 476,298.8594 Q475.4063,298.5781 474.7813,298.5781 Q473.4375,298.5781 472.75,299.6563 Q472.0625,300.7188 472.0625,302.8125 Q472.0625,304.9063 472.75,305.9844 Q473.4375,307.0469 474.7813,307.0469 Q475.4063,307.0469 476,306.7813 Q476.5938,306.5 477.2188,305.9219 L477.2188,308.6406 Z " fill="#000000"/><text fill="#000000" font-family="sans-serif" font-size="14" lengthAdjust="spacing" textLength="140" x="494.75" y="308.432">RegistroTrazabilidad</text><line style="stroke:#181818;stroke-width:0.5;" x1="296" x2="801" y1="319" y2="319"/><rect fill="none" height="6" style="stroke:#C82930;stroke-width:1.0;" width="6" x="303" y="331.034"/><text fill="#000000" font-family="sans-serif" font-size="14" lengthAdjust="spacing" textLength="271" x="315" y="337.9659">asignaciones: List&lt;AsignacionPregunta&gt;</text><line style="stroke:#181818;stroke-width:0.5;" x1="296" x2="801" y1="346.0679" y2="346.0679"/><ellipse cx="306" cy="361.1019" fill="#84BE84" rx="3" ry="3" style="stroke:#038048;stroke-width:1.0;"/><text fill="#000000" font-family="sans-serif" font-size="14" lengthAdjust="spacing" textLength="148" x="315" y="365.0339">RegistroTrazabilidad()</text><ellipse cx="306" cy="380.1698" fill="#84BE84" rx="3" ry="3" style="stroke:#038048;stroke-width:1.0;"/><text fill="#000000" font-family="sans-serif" font-size="14" lengthAdjust="spacing" textLength="470" x="315" y="384.1018">registrarAsignacion(estudiante: Estudiante, pregunta: Pregunta): void</text><ellipse cx="306" cy="399.2377" fill="#84BE84" rx="3" ry="3" style="stroke:#038048;stroke-width:1.0;"/><text fill="#000000" font-family="sans-serif" font-size="14" lengthAdjust="spacing" textLength="481" x="315" y="403.1697">obtenerPreguntasDeEstudiante(estudiante: Estudiante): List&lt;Pregunta&gt;</text><ellipse cx="306" cy="418.3056" fill="#84BE84" rx="3" ry="3" style="stroke:#038048;stroke-width:1.0;"/><text fill="#000000" font-family="sans-serif" font-size="14" lengthAdjust="spacing" textLength="480" x="315" y="422.2376">obtenerEstudiantesConPregunta(pregunta: Pregunta): List&lt;Estudiante&gt;</text></g><!--class AsignacionPregunta--><g id="elem_AsignacionPregunta"><rect codeLine="72" fill="#F1F1F1" height="162.4075" id="AsignacionPregunta" rx="2.5" ry="2.5" style="stroke:#181818;stroke-width:0.5;" width="463" x="317" y="710.5"/><ellipse cx="476.25" cy="726.5" fill="#ADD1B2" rx="11" ry="11" style="stroke:#181818;stroke-width:1.0;"/><path d="M479.2188,732.1406 Q478.6406,732.4375 478,732.5781 Q477.3594,732.7344 476.6563,732.7344 Q474.1563,732.7344 472.8281,731.0938 Q471.5156,729.4375 471.5156,726.3125 Q471.5156,723.1875 472.8281,721.5313 Q474.1563,719.875 476.6563,719.875 Q477.3594,719.875 478,720.0313 Q478.6563,720.1875 479.2188,720.4844 L479.2188,723.2031 Q478.5938,722.625 478,722.3594 Q477.4063,722.0781 476.7813,722.0781 Q475.4375,722.0781 474.75,723.1563 Q474.0625,724.2188 474.0625,726.3125 Q474.0625,728.4063 474.75,729.4844 Q475.4375,730.5469 476.7813,730.5469 Q477.4063,730.5469 478,730.2813 Q478.5938,730 479.2188,729.4219 L479.2188,732.1406 Z " fill="#000000"/><text fill="#000000" font-family="sans-serif" font-size="14" lengthAdjust="spacing" textLength="136" x="496.75" y="731.932">AsignacionPregunta</text><line style="stroke:#181818;stroke-width:0.5;" x1="318" x2="779" y1="742.5" y2="742.5"/><rect fill="none" height="6" style="stroke:#C82930;stroke-width:1.0;" width="6" x="325" y="754.534"/><text fill="#000000" font-family="sans-serif" font-size="14" lengthAdjust="spacing" textLength="152" x="337" y="761.4659">estudiante: Estudiante</text><rect fill="none" height="6" style="stroke:#C82930;stroke-width:1.0;" width="6" x="325" y="773.6019"/><text fill="#000000" font-family="sans-serif" font-size="14" lengthAdjust="spacing" textLength="133" x="337" y="780.5339">pregunta: Pregunta</text><rect fill="none" height="6" style="stroke:#C82930;stroke-width:1.0;" width="6" x="325" y="792.6698"/><text fill="#000000" font-family="sans-serif" font-size="14" lengthAdjust="spacing" textLength="150" x="337" y="799.6018">fechaAsignacion: Date</text><line style="stroke:#181818;stroke-width:0.5;" x1="318" x2="779" y1="807.7038" y2="807.7038"/><ellipse cx="328" cy="822.7377" fill="#84BE84" rx="3" ry="3" style="stroke:#038048;stroke-width:1.0;"/><text fill="#000000" font-family="sans-serif" font-size="14" lengthAdjust="spacing" textLength="437" x="337" y="826.6697">AsignacionPregunta(estudiante: Estudiante, pregunta: Pregunta)</text><ellipse cx="328" cy="841.8056" fill="#84BE84" rx="3" ry="3" style="stroke:#038048;stroke-width:1.0;"/><text fill="#000000" font-family="sans-serif" font-size="14" lengthAdjust="spacing" textLength="182" x="337" y="845.7376">getEstudiante(): Estudiante</text><ellipse cx="328" cy="860.8735" fill="#84BE84" rx="3" ry="3" style="stroke:#038048;stroke-width:1.0;"/><text fill="#000000" font-family="sans-serif" font-size="14" lengthAdjust="spacing" textLength="162" x="337" y="864.8055">getPregunta(): Pregunta</text></g><!--class GeneradorExamenes--><g id="elem_GeneradorExamenes"><rect codeLine="81" fill="#F1F1F1" height="200.5433" id="GeneradorExamenes" rx="2.5" ry="2.5" style="stroke:#181818;stroke-width:0.5;" width="538" x="279.5" y="7"/><ellipse cx="474.25" cy="23" fill="#ADD1B2" rx="11" ry="11" style="stroke:#181818;stroke-width:1.0;"/><path d="M477.2188,28.6406 Q476.6406,28.9375 476,29.0781 Q475.3594,29.2344 474.6563,29.2344 Q472.1563,29.2344 470.8281,27.5938 Q469.5156,25.9375 469.5156,22.8125 Q469.5156,19.6875 470.8281,18.0313 Q472.1563,16.375 474.6563,16.375 Q475.3594,16.375 476,16.5313 Q476.6563,16.6875 477.2188,16.9844 L477.2188,19.7031 Q476.5938,19.125 476,18.8594 Q475.4063,18.5781 474.7813,18.5781 Q473.4375,18.5781 472.75,19.6563 Q472.0625,20.7188 472.0625,22.8125 Q472.0625,24.9063 472.75,25.9844 Q473.4375,27.0469 474.7813,27.0469 Q475.4063,27.0469 476,26.7813 Q476.5938,26.5 477.2188,25.9219 L477.2188,28.6406 Z " fill="#000000"/><text fill="#000000" font-family="sans-serif" font-size="14" lengthAdjust="spacing" textLength="140" x="494.75" y="28.432">GeneradorExamenes</text><line style="stroke:#181818;stroke-width:0.5;" x1="280.5" x2="816.5" y1="39" y2="39"/><rect fill="none" height="6" style="stroke:#C82930;stroke-width:1.0;" width="6" x="287.5" y="51.034"/><text fill="#000000" font-family="sans-serif" font-size="14" lengthAdjust="spacing" textLength="228" x="299.5" y="57.9659">bancoPreguntas: BancoPreguntas</text><rect fill="none" height="6" style="stroke:#C82930;stroke-width:1.0;" width="6" x="287.5" y="70.1019"/><text fill="#000000" font-family="sans-serif" font-size="14" lengthAdjust="spacing" textLength="225" x="299.5" y="77.0339">listaEstudiantes: ListaEstudiantes</text><rect fill="none" height="6" style="stroke:#C82930;stroke-width:1.0;" width="6" x="287.5" y="89.1698"/><text fill="#000000" font-family="sans-serif" font-size="14" lengthAdjust="spacing" textLength="201" x="299.5" y="96.1018">registro: RegistroTrazabilidad</text><rect fill="none" height="6" style="stroke:#C82930;stroke-width:1.0;" width="6" x="287.5" y="108.2377"/><text fill="#000000" font-family="sans-serif" font-size="14" lengthAdjust="spacing" textLength="171" x="299.5" y="115.1697">preguntasPorExamen: int</text><line style="stroke:#181818;stroke-width:0.5;" x1="280.5" x2="816.5" y1="123.2717" y2="123.2717"/><ellipse cx="290.5" cy="138.3056" fill="#84BE84" rx="3" ry="3" style="stroke:#038048;stroke-width:1.0;"/><text fill="#000000" font-family="sans-serif" font-size="14" lengthAdjust="spacing" textLength="512" x="299.5" y="142.2376">GeneradorExamenes(banco: BancoPreguntas, estudiantes: ListaEstudiantes)</text><ellipse cx="290.5" cy="157.3735" fill="#84BE84" rx="3" ry="3" style="stroke:#038048;stroke-width:1.0;"/><text fill="#000000" font-family="sans-serif" font-size="14" lengthAdjust="spacing" textLength="358" x="299.5" y="161.3055">generarExamenPara(estudiante: Estudiante): Examen</text><ellipse cx="290.5" cy="176.4415" fill="#84BE84" rx="3" ry="3" style="stroke:#038048;stroke-width:1.0;"/><text fill="#000000" font-family="sans-serif" font-size="14" lengthAdjust="spacing" textLength="292" x="299.5" y="180.3734">generarTodosLosExamenes(): List&lt;Examen&gt;</text><ellipse cx="290.5" cy="195.5094" fill="#84BE84" rx="3" ry="3" style="stroke:#038048;stroke-width:1.0;"/><text fill="#000000" font-family="sans-serif" font-size="14" lengthAdjust="spacing" textLength="344" x="299.5" y="199.4414">configurarPreguntasPorExamen(cantidad: int): void</text></g><!--reverse link Examen to Estudiante--><g id="link_Examen_Estudiante"><path codeLine="92" d="M980.4946,904.0827 C982.9846,950.3727 985.27,993.01 987.69,1037.97 " fill="none" id="Examen-backto-Estudiante" style="stroke:#181818;stroke-width:1.0;"/><polygon fill="#181818" points="979.85,892.1,976.1781,898.3062,980.4946,904.0827,984.1665,897.8765,979.85,892.1" style="stroke:#181818;stroke-width:1.0;"/></g><!--reverse link Examen to Pregunta--><g id="link_Examen_Pregunta"><path codeLine="93" d="M872.3638,900.5704 C854.5938,917.5904 844.32,926.23 825.5,941 C812.16,951.47 790.64,965.93 765.01,982.22 " fill="none" id="Examen-backto-Pregunta" style="stroke:#181818;stroke-width:1.0;"/><polygon fill="none" points="881.03,892.27,873.9301,893.5315,872.3638,900.5704,879.4637,899.3089,881.03,892.27" style="stroke:#181818;stroke-width:1.0;"/><polygon fill="#000000" points="848.5203,934.8799,857.4988,931.7435,853.9405,927.065,848.5203,934.8799" style="stroke:#000000;stroke-width:1.0;"/><text fill="#000000" font-family="sans-serif" font-size="13" lengthAdjust="spacing" textLength="52" x="861.5" y="936.897">contiene</text></g><!--reverse link BancoPreguntas to Pregunta--><g id="link_BancoPreguntas_Pregunta"><path codeLine="95" d="M198.2689,673.0193 C190.7989,741.5093 192.06,820.67 227.5,892 C241.7,920.58 261.16,946.84 283.35,970.64 " fill="none" id="BancoPreguntas-backto-Pregunta" style="stroke:#181818;stroke-width:1.0;"/><polygon fill="none" points="199.57,661.09,194.943,666.6209,198.2689,673.0193,202.8959,667.4883,199.57,661.09" style="stroke:#181818;stroke-width:1.0;"/><polygon fill="#000000" points="233.8743,796.6604,234.2139,787.1559,228.5624,788.7715,233.8743,796.6604" style="stroke:#000000;stroke-width:1.0;"/><text fill="#000000" font-family="sans-serif" font-size="13" lengthAdjust="spacing" textLength="57" x="241.5" y="796.897">almacena</text></g><!--reverse link ListaEstudiantes to Estudiante--><g id="link_ListaEstudiantes_Estudiante"><path codeLine="96" d="M1145.5295,653.2634 C1163.4595,721.2634 1176.87,809.1 1151.5,892 C1135.33,944.83 1102.88,996.51 1071.48,1037.94 " fill="none" id="ListaEstudiantes-backto-Estudiante" style="stroke:#181818;stroke-width:1.0;"/><polygon fill="none" points="1142.47,641.66,1140.132,648.4816,1145.5295,653.2634,1147.8676,646.4419,1142.47,641.66" style="stroke:#181818;stroke-width:1.0;"/><polygon fill="#000000" points="1168.5549,796.7629,1173.1506,788.4364,1167.3787,787.3253,1168.5549,796.7629" style="stroke:#000000;stroke-width:1.0;"/><text fill="#000000" font-family="sans-serif" font-size="13" lengthAdjust="spacing" textLength="52" x="1178.5" y="796.897">gestiona</text></g><!--reverse link RegistroTrazabilidad to AsignacionPregunta--><g id="link_RegistroTrazabilidad_AsignacionPregunta"><path codeLine="98" d="M548.5,442.19 C548.5,519.09 548.5,629.77 548.5,710.24 " fill="none" id="RegistroTrazabilidad-backto-AsignacionPregunta" style="stroke:#181818;stroke-width:1.0;"/><polygon fill="none" points="548.5,430.19,544.5,436.19,548.5,442.19,552.5,436.19,548.5,430.19" style="stroke:#181818;stroke-width:1.0;"/><polygon fill="#000000" points="553.5,565.853,556.4389,556.8079,550.5611,556.8079,553.5,565.853" style="stroke:#000000;stroke-width:1.0;"/><text fill="#000000" font-family="sans-serif" font-size="13" lengthAdjust="spacing" textLength="57" x="562.5" y="565.897">mantiene</text></g><!--reverse link AsignacionPregunta to Estudiante--><g id="link_AsignacionPregunta_Estudiante"><path codeLine="99" d="M664.149,879.7579 C730.069,929.4979 805.38,986.32 873.58,1037.78 " fill="none" id="AsignacionPregunta-backto-Estudiante" style="stroke:#181818;stroke-width:1.0;"/><polygon fill="none" points="654.57,872.53,656.9502,879.3369,664.149,879.7579,661.7688,872.9509,654.57,872.53" style="stroke:#181818;stroke-width:1.0;"/><polygon fill="#000000" points="752.4913,934.8646,747.0411,927.0706,743.5008,931.7626,752.4913,934.8646" style="stroke:#000000;stroke-width:1.0;"/><text fill="#000000" font-family="sans-serif" font-size="13" lengthAdjust="spacing" textLength="59" x="757.5" y="936.897">referencia</text></g><!--reverse link AsignacionPregunta to Pregunta--><g id="link_AsignacionPregunta_Pregunta"><path codeLine="100" d="M540.5173,884.6955 C537.9673,914.2155 536.01,936.8 533.07,970.74 " fill="none" id="AsignacionPregunta-backto-Pregunta" style="stroke:#181818;stroke-width:1.0;"/><polygon fill="none" points="541.55,872.74,537.0485,878.3735,540.5173,884.6955,545.0188,879.062,541.55,872.74" style="stroke:#181818;stroke-width:1.0;"/><polygon fill="#000000" points="542.0689,936.8344,545.7768,928.0764,539.9208,927.5696,542.0689,936.8344" style="stroke:#000000;stroke-width:1.0;"/><text fill="#000000" font-family="sans-serif" font-size="13" lengthAdjust="spacing" textLength="59" x="551.5" y="936.897">referencia</text></g><!--reverse link GeneradorExamenes to BancoPreguntas--><g id="link_GeneradorExamenes_BancoPreguntas"><path codeLine="102" d="M345.7985,215.451 C316.1685,237.921 298.17,256.95 277.5,287 C242.7,337.59 227.65,404.88 221.33,459.94 " fill="none" id="GeneradorExamenes-backto-BancoPreguntas" style="stroke:#181818;stroke-width:1.0;"/><polygon fill="#181818" points="355.36,208.2,348.1622,208.6383,345.7985,215.451,352.9962,215.0127,355.36,208.2" style="stroke:#181818;stroke-width:1.0;"/><polygon fill="#000000" points="321.2316,252.3088,327.9543,245.5815,322.7161,242.9148,321.2316,252.3088" style="stroke:#000000;stroke-width:1.0;"/><text fill="#000000" font-family="sans-serif" font-size="13" lengthAdjust="spacing" textLength="21" x="332.5" y="252.897">usa</text></g><!--reverse link GeneradorExamenes to ListaEstudiantes--><g id="link_GeneradorExamenes_ListaEstudiantes"><path codeLine="103" d="M719.0904,214.8377 C756.1504,239.4977 784.85,259.97 819.5,287 C896.75,347.25 978.33,423.1 1036.4,479.47 " fill="none" id="GeneradorExamenes-backto-ListaEstudiantes" style="stroke:#181818;stroke-width:1.0;"/><polygon fill="#181818" points="709.1,208.19,711.8793,214.844,719.0904,214.8377,716.3111,208.1837,709.1,208.19" style="stroke:#181818;stroke-width:1.0;"/><polygon fill="#000000" points="787.3399,251.0554,782.2758,243.0052,778.5112,247.5192,787.3399,251.0554" style="stroke:#000000;stroke-width:1.0;"/><text fill="#000000" font-family="sans-serif" font-size="13" lengthAdjust="spacing" textLength="21" x="792.5" y="252.897">usa</text></g><!--reverse link GeneradorExamenes to RegistroTrazabilidad--><g id="link_GeneradorExamenes_RegistroTrazabilidad"><path codeLine="104" d="M548.5,220.34 C548.5,246.59 548.5,262.36 548.5,286.73 " fill="none" id="GeneradorExamenes-backto-RegistroTrazabilidad" style="stroke:#181818;stroke-width:1.0;"/><polygon fill="#181818" points="548.5,208.34,544.5,214.34,548.5,220.34,552.5,214.34,548.5,208.34" style="stroke:#181818;stroke-width:1.0;"/><polygon fill="#000000" points="553.5,252.853,556.4389,243.8079,550.5611,243.8079,553.5,252.853" style="stroke:#000000;stroke-width:1.0;"/><text fill="#000000" font-family="sans-serif" font-size="13" lengthAdjust="spacing" textLength="21" x="562.5" y="252.897">usa</text></g><!--SRC=[dLPTRjim37xtATGtPqqlO0m5sYGO0cHjqFXb68Q1iPbCG28LaZmC6tQedM4NcnphtqhRh6ybHVBZnu-ChrhSKOPayL0lwq-aEO2KnPKnhfQR-klJOdLNBnyV2B-vSPxPuyVrusRPs_s3T_f1OHAj1Uuxfe3yAeZ-ko6qhGXbolo7h6CDXPPNPAC4PNjZvyyDvUmkQxtFMcTPwpon2fJF7Ke5Cou4DWegqdm3ORmAZv04j7H7c-wW881zxRegJJVJSIDJWm2bjNp-CYLDL7PYqkrHBTjo4bRGfeLDsNi2K2TdhQ6Ex2XjMwLhr5Igo9Rp0m8hVhlPBAJgMWfCOJITg7_6Zrk1YL5YqxUMLFVfIfzcccIOfi4Z3j9E7qxnESzco1IuWjv-m16PwmiTjYh0QPpFPffwKYigrNixtLlZtw6cy0Co530WduE9lJProdn-snliTKOGJZMsOEM4f5lupcdhUxCEsNUNGJKen3C-6VKro0IEyFSFjzho_Dm3QxWhudXwZGhAMjhWNBi4tNO36rwqSTBoVzldMzMJxHAjkJZ9FLpFSwoOs0tTTnGr5TB3QJGrj3MB_0AhDLTmYFZt7GgaZEgb5245fONlwUrpWn-8p0ZHKknVMGnfS4faCFOpkelet7QoYOByTkPKOnYiUSlbYii8nrd8bhRaTQov9zpthF5Qm4_OqaC_34SCIBfdO2_cgSoTCwLJocLoB8d12SB7d-5fIYwLuXpVGlvBoWmOcld6yZin8jjpEURcibldwuH7pcUDZjous2M4NdAlNFv90D1tFHpXbelXx0PxjOrEJvMS8lFea2nMDLerzvamwAlAAYszbMkB9xmK8wZb2MAAR3g-224UJrwVpUHQWu3puXlUn75kcIqM9wwJmKgquMod3wU0wFQQdxZqVBgBD_pIPhy4Wn6RP_6dfDDkrTTM-c8ZkIsAvCVfR0mSZj0W0nqpEhXnKF2fKsbIfD9QxiEAx4sAOpEhLf4ZEBWP_ml51UvGOFzXzvRGe68KM8mt8Jk0XCcATB8FVsFqYDGBuxFasXp_0000]--></g></svg>