<?xml version="1.0" encoding="us-ascii" standalone="no"?><svg xmlns="http://www.w3.org/2000/svg" xmlns:xlink="http://www.w3.org/1999/xlink" contentStyleType="text/css" height="749px" preserveAspectRatio="none" style="width:1778px;height:749px;background:#FFFFFF;" version="1.1" viewBox="0 0 1778 749" width="1778px" zoomAndPan="magnify"><defs/><g><ellipse cx="1003" cy="16" fill="#222222" rx="10" ry="10" style="stroke:#222222;stroke-width:1.0;"/><g id="Espresso"><rect fill="#F1F1F1" height="50" rx="12.5" ry="12.5" style="stroke:#181818;stroke-width:0.5;" width="80" x="684" y="105"/><line style="stroke:#181818;stroke-width:0.5;" x1="684" x2="764" y1="134.0679" y2="134.0679"/><text fill="#000000" font-family="sans-serif" font-size="14" lengthAdjust="spacing" textLength="60" x="694" y="124.9659">Espresso</text></g><g id="LecheCaliente"><rect fill="#F1F1F1" height="50" rx="12.5" ry="12.5" style="stroke:#181818;stroke-width:0.5;" width="114" x="1299" y="105"/><line style="stroke:#181818;stroke-width:0.5;" x1="1299" x2="1413" y1="134.0679" y2="134.0679"/><text fill="#000000" font-family="sans-serif" font-size="14" lengthAdjust="spacing" textLength="94" x="1309" y="124.9659">LecheCaliente</text></g><g id="Americano"><rect fill="#F1F1F1" height="50" rx="12.5" ry="12.5" style="stroke:#181818;stroke-width:0.5;" width="92" x="7" y="270"/><line style="stroke:#181818;stroke-width:0.5;" x1="7" x2="99" y1="299.0679" y2="299.0679"/><text fill="#000000" font-family="sans-serif" font-size="14" lengthAdjust="spacing" textLength="72" x="17" y="289.9659">Americano</text></g><g id="Doble"><rect fill="#F1F1F1" height="50" rx="12.5" ry="12.5" style="stroke:#181818;stroke-width:0.5;" width="59" x="151.5" y="270"/><line style="stroke:#181818;stroke-width:0.5;" x1="151.5" x2="210.5" y1="299.0679" y2="299.0679"/><text fill="#000000" font-family="sans-serif" font-size="14" lengthAdjust="spacing" textLength="39" x="161.5" y="289.9659">Doble</text></g><g id="Macchiato"><rect fill="#F1F1F1" height="50" rx="12.5" ry="12.5" style="stroke:#181818;stroke-width:0.5;" width="89" x="259.5" y="270"/><line style="stroke:#181818;stroke-width:0.5;" x1="259.5" x2="348.5" y1="299.0679" y2="299.0679"/><text fill="#000000" font-family="sans-serif" font-size="14" lengthAdjust="spacing" textLength="69" x="269.5" y="289.9659">Macchiato</text></g><g id="EspressoPanna"><rect fill="#F1F1F1" height="50" rx="12.5" ry="12.5" style="stroke:#181818;stroke-width:0.5;" width="122" x="417" y="270"/><line style="stroke:#181818;stroke-width:0.5;" x1="417" x2="539" y1="299.0679" y2="299.0679"/><text fill="#000000" font-family="sans-serif" font-size="14" lengthAdjust="spacing" textLength="102" x="427" y="289.9659">EspressoPanna</text></g><g id="Cortado"><rect fill="#F1F1F1" height="50" rx="12.5" ry="12.5" style="stroke:#181818;stroke-width:0.5;" width="73" x="615.5" y="270"/><line style="stroke:#181818;stroke-width:0.5;" x1="615.5" x2="688.5" y1="299.0679" y2="299.0679"/><text fill="#000000" font-family="sans-serif" font-size="14" lengthAdjust="spacing" textLength="53" x="625.5" y="289.9659">Cortado</text></g><g id="Lagrima"><rect fill="#F1F1F1" height="50" rx="12.5" ry="12.5" style="stroke:#181818;stroke-width:0.5;" width="75" x="1344.5" y="399"/><line style="stroke:#181818;stroke-width:0.5;" x1="1344.5" x2="1419.5" y1="428.0679" y2="428.0679"/><text fill="#000000" font-family="sans-serif" font-size="14" lengthAdjust="spacing" textLength="55" x="1354.5" y="418.9659">Lagrima</text></g><g id="Arabe"><rect fill="#F1F1F1" height="50" rx="12.5" ry="12.5" style="stroke:#181818;stroke-width:0.5;" width="60" x="962" y="270"/><line style="stroke:#181818;stroke-width:0.5;" x1="962" x2="1022" y1="299.0679" y2="299.0679"/><text fill="#000000" font-family="sans-serif" font-size="14" lengthAdjust="spacing" textLength="40" x="972" y="289.9659">Arabe</text></g><g id="Irlandes"><rect fill="#F1F1F1" height="50" rx="12.5" ry="12.5" style="stroke:#181818;stroke-width:0.5;" width="76" x="1057" y="270"/><line style="stroke:#181818;stroke-width:0.5;" x1="1057" x2="1133" y1="299.0679" y2="299.0679"/><text fill="#000000" font-family="sans-serif" font-size="14" lengthAdjust="spacing" textLength="56" x="1067" y="289.9659">Irlandes</text></g><g id="Caribeno"><rect fill="#F1F1F1" height="50" rx="12.5" ry="12.5" style="stroke:#181818;stroke-width:0.5;" width="81" x="1168.5" y="270"/><line style="stroke:#181818;stroke-width:0.5;" x1="1168.5" x2="1249.5" y1="299.0679" y2="299.0679"/><text fill="#000000" font-family="sans-serif" font-size="14" lengthAdjust="spacing" textLength="61" x="1178.5" y="289.9659">Caribeno</text></g><g id="CafeConLeche"><rect fill="#F1F1F1" height="50" rx="12.5" ry="12.5" style="stroke:#181818;stroke-width:0.5;" width="115" x="594.5" y="399"/><line style="stroke:#181818;stroke-width:0.5;" x1="594.5" x2="709.5" y1="428.0679" y2="428.0679"/><text fill="#000000" font-family="sans-serif" font-size="14" lengthAdjust="spacing" textLength="95" x="604.5" y="418.9659">CafeConLeche</text></g><g id="Cappuchino"><rect fill="#F1F1F1" height="50" rx="12.5" ry="12.5" style="stroke:#181818;stroke-width:0.5;" width="101" x="336.5" y="564"/><line style="stroke:#181818;stroke-width:0.5;" x1="336.5" x2="437.5" y1="593.0679" y2="593.0679"/><text fill="#000000" font-family="sans-serif" font-size="14" lengthAdjust="spacing" textLength="81" x="346.5" y="583.9659">Cappuchino</text></g><g id="Mocha"><rect fill="#F1F1F1" height="50" rx="12.5" ry="12.5" style="stroke:#181818;stroke-width:0.5;" width="65" x="540.5" y="564"/><line style="stroke:#181818;stroke-width:0.5;" x1="540.5" x2="605.5" y1="593.0679" y2="593.0679"/><text fill="#000000" font-family="sans-serif" font-size="14" lengthAdjust="spacing" textLength="45" x="550.5" y="583.9659">Mocha</text></g><g id="CaramelMacchiato"><rect fill="#F1F1F1" height="50" rx="12.5" ry="12.5" style="stroke:#181818;stroke-width:0.5;" width="145" x="657.5" y="564"/><line style="stroke:#181818;stroke-width:0.5;" x1="657.5" x2="802.5" y1="593.0679" y2="593.0679"/><text fill="#000000" font-family="sans-serif" font-size="14" lengthAdjust="spacing" textLength="125" x="667.5" y="583.9659">CaramelMacchiato</text></g><g id="Hawaiano"><rect fill="#F1F1F1" height="50" rx="12.5" ry="12.5" style="stroke:#181818;stroke-width:0.5;" width="86" x="841" y="564"/><line style="stroke:#181818;stroke-width:0.5;" x1="841" x2="927" y1="593.0679" y2="593.0679"/><text fill="#000000" font-family="sans-serif" font-size="14" lengthAdjust="spacing" textLength="66" x="851" y="583.9659">Hawaiano</text></g><g id="MochaVienes"><rect fill="#F1F1F1" height="50" rx="12.5" ry="12.5" style="stroke:#181818;stroke-width:0.5;" width="109" x="518.5" y="693"/><line style="stroke:#181818;stroke-width:0.5;" x1="518.5" x2="627.5" y1="722.0679" y2="722.0679"/><text fill="#000000" font-family="sans-serif" font-size="14" lengthAdjust="spacing" textLength="89" x="528.5" y="712.9659">MochaVienes</text></g><g id="CafeLatte"><rect fill="#F1F1F1" height="50" rx="12.5" ry="12.5" style="stroke:#181818;stroke-width:0.5;" width="83" x="1119.5" y="564"/><line style="stroke:#181818;stroke-width:0.5;" x1="1119.5" x2="1202.5" y1="593.0679" y2="593.0679"/><text fill="#000000" font-family="sans-serif" font-size="14" lengthAdjust="spacing" textLength="63" x="1129.5" y="583.9659">CafeLatte</text></g><g id="QuitafrioWhisky"><rect fill="#F1F1F1" height="50" rx="12.5" ry="12.5" style="stroke:#181818;stroke-width:0.5;" width="127" x="1271.5" y="564"/><line style="stroke:#181818;stroke-width:0.5;" x1="1271.5" x2="1398.5" y1="593.0679" y2="593.0679"/><text fill="#000000" font-family="sans-serif" font-size="14" lengthAdjust="spacing" textLength="107" x="1281.5" y="583.9659">QuitafrioWhisky</text></g><g id="QuitafrioRon"><rect fill="#F1F1F1" height="50" rx="12.5" ry="12.5" style="stroke:#181818;stroke-width:0.5;" width="106" x="1449" y="564"/><line style="stroke:#181818;stroke-width:0.5;" x1="1449" x2="1555" y1="593.0679" y2="593.0679"/><text fill="#000000" font-family="sans-serif" font-size="14" lengthAdjust="spacing" textLength="86" x="1459" y="583.9659">QuitafrioRon</text></g><g id="Breve"><rect fill="#F1F1F1" height="50" rx="12.5" ry="12.5" style="stroke:#181818;stroke-width:0.5;" width="58" x="1620" y="564"/><line style="stroke:#181818;stroke-width:0.5;" x1="1620" x2="1678" y1="593.0679" y2="593.0679"/><text fill="#000000" font-family="sans-serif" font-size="14" lengthAdjust="spacing" textLength="38" x="1630" y="583.9659">Breve</text></g><g id="CafeAmaretto"><rect fill="#F1F1F1" height="50" rx="12.5" ry="12.5" style="stroke:#181818;stroke-width:0.5;" width="112" x="828" y="693"/><line style="stroke:#181818;stroke-width:0.5;" x1="828" x2="940" y1="722.0679" y2="722.0679"/><text fill="#000000" font-family="sans-serif" font-size="14" lengthAdjust="spacing" textLength="92" x="838" y="712.9659">CafeAmaretto</text></g><g id="Submarino"><rect fill="#F1F1F1" height="50" rx="12.5" ry="12.5" style="stroke:#181818;stroke-width:0.5;" width="94" x="1309" y="270"/><line style="stroke:#181818;stroke-width:0.5;" x1="1309" x2="1403" y1="299.0679" y2="299.0679"/><text fill="#000000" font-family="sans-serif" font-size="14" lengthAdjust="spacing" textLength="74" x="1319" y="289.9659">Submarino</text></g><g id="LagrimaAlt"><rect fill="#F1F1F1" height="50" rx="12.5" ry="12.5" style="stroke:#181818;stroke-width:0.5;" width="93" x="1476.5" y="270"/><line style="stroke:#181818;stroke-width:0.5;" x1="1476.5" x2="1569.5" y1="299.0679" y2="299.0679"/><text fill="#000000" font-family="sans-serif" font-size="14" lengthAdjust="spacing" textLength="73" x="1486.5" y="289.9659">LagrimaAlt</text></g><!--link *start* to Espresso--><g id="link_*start*_Espresso"><path d="M994.03,20.6 C959.06,34.64 836.0279,84.0243 769.7079,110.6543 " fill="none" id="*start*-to-Espresso" style="stroke:#181818;stroke-width:1.0;"/><polygon fill="#181818" points="764.14,112.89,773.9823,113.2483,768.7799,111.0269,771.0014,105.8245,764.14,112.89" style="stroke:#181818;stroke-width:1.0;"/><text fill="#000000" font-family="sans-serif" font-size="13" lengthAdjust="spacing" textLength="81" x="906" y="70.897">agregarCafe()</text></g><!--link *start* to LecheCaliente--><g id="link_*start*_LecheCaliente"><path d="M1012.44,20 C1052.74,32.78 1206.471,81.5553 1293.261,109.0953 " fill="none" id="*start*-to-LecheCaliente" style="stroke:#181818;stroke-width:1.0;"/><polygon fill="#181818" points="1298.98,110.91,1291.6114,104.3752,1294.2142,109.3977,1289.1917,112.0006,1298.98,110.91" style="stroke:#181818;stroke-width:1.0;"/><text fill="#000000" font-family="sans-serif" font-size="13" lengthAdjust="spacing" textLength="91" x="1180" y="70.897">calentarLeche()</text></g><!--link Espresso to Americano--><g id="link_Espresso_Americano"><path d="M683.71,131.94 C551.83,135.38 138.84,148.93 92,185 C65.88,205.11 57.8867,238.2272 55.0367,263.7172 " fill="none" id="Espresso-to-Americano" style="stroke:#181818;stroke-width:1.0;"/><polygon fill="#181818" points="54.37,269.68,59.3453,261.1802,54.9256,264.711,51.3948,260.2913,54.37,269.68" style="stroke:#181818;stroke-width:1.0;"/><text fill="#000000" font-family="sans-serif" font-size="13" lengthAdjust="spacing" textLength="86" x="93" y="217.897">agregarAgua()</text></g><!--link Espresso to Doble--><g id="link_Espresso_Doble"><path d="M683.87,132.8 C570.41,138.22 253.12,155.85 217,185 C191.56,205.52 184.4564,238.5123 182.2664,263.8623 " fill="none" id="Espresso-to-Doble" style="stroke:#181818;stroke-width:1.0;"/><polygon fill="#181818" points="181.75,269.84,186.5098,261.2177,182.1803,264.8586,178.5395,260.5291,181.75,269.84" style="stroke:#181818;stroke-width:1.0;"/><text fill="#000000" font-family="sans-serif" font-size="13" lengthAdjust="spacing" textLength="81" x="218" y="217.897">agregarCafe()</text></g><!--link Espresso to Macchiato--><g id="link_Espresso_Macchiato"><path d="M683.69,131.2 C594.93,132.47 386.45,140.26 335,185 C310.8,206.04 305.1193,238.486 303.9893,263.636 " fill="none" id="Espresso-to-Macchiato" style="stroke:#181818;stroke-width:1.0;"/><polygon fill="#181818" points="303.72,269.63,308.1199,260.8186,303.9444,264.635,300.128,260.4595,303.72,269.63" style="stroke:#181818;stroke-width:1.0;"/><text fill="#000000" font-family="sans-serif" font-size="13" lengthAdjust="spacing" textLength="132" x="336" y="217.897">agregarEspuma(poca)</text></g><!--link Espresso to EspressoPanna--><g id="link_Espresso_EspressoPanna"><path d="M683.64,135.37 C625.7,142.48 523.12,158.51 498,185 C476.55,207.62 473.95,239.267 475.14,263.857 " fill="none" id="Espresso-to-EspressoPanna" style="stroke:#181818;stroke-width:1.0;"/><polygon fill="#181818" points="475.43,269.85,478.9903,260.6672,475.1883,264.8558,470.9996,261.0539,475.43,269.85" style="stroke:#181818;stroke-width:1.0;"/><text fill="#000000" font-family="sans-serif" font-size="13" lengthAdjust="spacing" textLength="132" x="499" y="217.897">agregarCremaBatida()</text></g><!--link Espresso to Cortado--><g id="link_Espresso_Cortado"><path d="M683.73,150.05 C670.15,158.68 656.53,170.29 649,185 C635.45,211.45 638.316,240.6102 643.586,263.7202 " fill="none" id="Espresso-to-Cortado" style="stroke:#181818;stroke-width:1.0;"/><polygon fill="#181818" points="644.92,269.57,646.8189,259.9059,643.8083,264.6951,639.0191,261.6846,644.92,269.57" style="stroke:#181818;stroke-width:1.0;"/><text fill="#000000" font-family="sans-serif" font-size="13" lengthAdjust="spacing" textLength="119" x="650" y="217.897">agregarLeche(poca)</text></g><!--link Espresso to Lagrima--><g id="link_Espresso_Lagrima"><path d="M750.94,155.08 C759.34,163.79 767.98,174.17 774,185 C804.22,239.38 765.09,278.01 811,320 C889.79,392.07 1223.6779,415.1018 1338.1879,420.9918 " fill="none" id="Espresso-to-Lagrima" style="stroke:#181818;stroke-width:1.0;"/><polygon fill="#181818" points="1344.18,421.3,1335.3974,416.843,1339.1866,421.0432,1334.9864,424.8324,1344.18,421.3" style="stroke:#181818;stroke-width:1.0;"/><text fill="#000000" font-family="sans-serif" font-size="13" lengthAdjust="spacing" textLength="131" x="812" y="300.397">agregarLeche(mucha)</text></g><!--link Espresso to Arabe--><g id="link_Espresso_Arabe"><path d="M764.26,150.69 C782.44,160.2 803.86,172.3 822,185 C852.45,206.31 854.17,219.24 885,240 C909.51,256.5 934.2774,268.8502 956.3474,278.7702 " fill="none" id="Espresso-to-Arabe" style="stroke:#181818;stroke-width:1.0;"/><polygon fill="#181818" points="961.82,281.23,955.251,273.8919,957.2595,279.1802,951.9712,281.1887,961.82,281.23" style="stroke:#181818;stroke-width:1.0;"/><text fill="#000000" font-family="sans-serif" font-size="13" lengthAdjust="spacing" textLength="105" x="886" y="217.897">agregarEspecias()</text></g><!--link Espresso to Irlandes--><g id="link_Espresso_Irlandes"><path d="M764.23,135.14 C830.41,142.57 958.64,159.79 996,185 C1020.22,201.34 1012.72,218.05 1032,240 C1041.32,250.61 1048.1225,257.1567 1058.6725,265.9567 " fill="none" id="Espresso-to-Irlandes" style="stroke:#181818;stroke-width:1.0;"/><polygon fill="#181818" points="1063.28,269.8,1058.9309,260.9634,1059.4404,266.5973,1053.8065,267.1068,1063.28,269.8" style="stroke:#181818;stroke-width:1.0;"/><text fill="#000000" font-family="sans-serif" font-size="13" lengthAdjust="spacing" textLength="98" x="1050" y="208.897">agregarWhisky()</text><text fill="#000000" font-family="sans-serif" font-size="13" lengthAdjust="spacing" textLength="132" x="1033" y="226.603">agregarCremaBatida()</text></g><!--link Espresso to Caribeno--><g id="link_Espresso_Caribeno"><path d="M764.03,130.63 C861.53,130.54 1107.83,135.36 1170,185 C1195.76,205.57 1203.8213,238.5608 1206.7913,263.8908 " fill="none" id="Espresso-to-Caribeno" style="stroke:#181818;stroke-width:1.0;"/><polygon fill="#181818" points="1207.49,269.85,1210.4147,260.4454,1206.9077,264.884,1202.4691,261.3771,1207.49,269.85" style="stroke:#181818;stroke-width:1.0;"/><text fill="#000000" font-family="sans-serif" font-size="13" lengthAdjust="spacing" textLength="79" x="1215" y="199.897">agregarRon()</text><text fill="#000000" font-family="sans-serif" font-size="13" lengthAdjust="spacing" textLength="105" x="1202" y="217.603">agregarEspecias()</text><text fill="#000000" font-family="sans-serif" font-size="13" lengthAdjust="spacing" textLength="97" x="1206" y="235.309">agregarVainilla()</text></g><!--link Cortado to CafeConLeche--><g id="link_Cortado_CafeConLeche"><path d="M651.46,320.19 C651.27,329.51 651.09,340.25 651,350 C650.85,366.35 650.9778,378.7612 651.2678,393.0012 " fill="none" id="Cortado-to-CafeConLeche" style="stroke:#181818;stroke-width:1.0;"/><polygon fill="#181818" points="651.39,399,655.2059,389.9204,651.2882,394.001,647.2076,390.0833,651.39,399" style="stroke:#181818;stroke-width:1.0;"/><text fill="#000000" font-family="sans-serif" font-size="13" lengthAdjust="spacing" textLength="115" x="652" y="364.897">agregarLeche(mas)</text></g><!--link CafeConLeche to Cappuchino--><g id="link_CafeConLeche_Cappuchino"><path d="M594.39,430.08 C529.43,437.05 429.53,451.9 404,479 C382.73,501.58 381.0792,533.2501 383.0992,557.8601 " fill="none" id="CafeConLeche-to-Cappuchino" style="stroke:#181818;stroke-width:1.0;"/><polygon fill="#181818" points="383.59,563.84,386.8403,554.5429,383.181,558.8568,378.8672,555.1974,383.59,563.84" style="stroke:#181818;stroke-width:1.0;"/><text fill="#000000" font-family="sans-serif" font-size="13" lengthAdjust="spacing" textLength="144" x="405" y="511.897">agregarEspuma(mucha)</text></g><!--link CafeConLeche to Mocha--><g id="link_CafeConLeche_Mocha"><path d="M595.18,449.27 C583.51,457 572.74,466.81 566,479 C551.5,505.22 555.8942,534.8388 562.6542,558.0788 " fill="none" id="CafeConLeche-to-Mocha" style="stroke:#181818;stroke-width:1.0;"/><polygon fill="#181818" points="564.33,563.84,565.6571,554.081,562.9335,559.039,557.9755,556.3154,564.33,563.84" style="stroke:#181818;stroke-width:1.0;"/><text fill="#000000" font-family="sans-serif" font-size="13" lengthAdjust="spacing" textLength="115" x="567" y="511.897">agregarChocolate()</text></g><!--link CafeConLeche to CaramelMacchiato--><g id="link_CafeConLeche_CaramelMacchiato"><path d="M671.59,449.05 C678.34,458.08 685.56,468.66 691,479 C705.6,506.74 715.2138,535.3889 721.8038,558.0389 " fill="none" id="CafeConLeche-to-CaramelMacchiato" style="stroke:#181818;stroke-width:1.0;"/><polygon fill="#181818" points="723.48,563.8,724.8065,554.0409,722.0832,558.9991,717.125,556.2758,723.48,563.8" style="stroke:#181818;stroke-width:1.0;"/><text fill="#000000" font-family="sans-serif" font-size="13" lengthAdjust="spacing" textLength="112" x="715" y="511.897">agregarCaramelo()</text></g><!--link CafeConLeche to Hawaiano--><g id="link_CafeConLeche_Hawaiano"><path d="M709.53,429.27 C749.24,434.98 800.98,448.24 836,479 C861.17,501.11 872.3276,533.0391 878.1476,557.8091 " fill="none" id="CafeConLeche-to-Hawaiano" style="stroke:#181818;stroke-width:1.0;"/><polygon fill="#181818" points="879.52,563.65,881.3554,553.9737,878.3763,558.7826,873.5674,555.8035,879.52,563.65" style="stroke:#181818;stroke-width:1.0;"/><text fill="#000000" font-family="sans-serif" font-size="13" lengthAdjust="spacing" textLength="85" x="872" y="511.897">agregarCoco()</text></g><!--link Mocha to MochaVienes--><g id="link_Mocha_MochaVienes"><path d="M573,614.19 C573,636.78 573,664.33 573,686.9 " fill="none" id="Mocha-to-MochaVienes" style="stroke:#181818;stroke-width:1.0;"/><polygon fill="#181818" points="573,692.9,577,683.9,573,687.9,569,683.9,573,692.9" style="stroke:#181818;stroke-width:1.0;"/><text fill="#000000" font-family="sans-serif" font-size="13" lengthAdjust="spacing" textLength="95" x="574" y="658.897">agregarCanela()</text></g><!--link Lagrima to CafeLatte--><g id="link_Lagrima_CafeLatte"><path d="M1344.12,430.39 C1292.47,438.51 1203.85,455.49 1182,479 C1160.75,501.87 1157.7744,533.4535 1158.6144,557.9535 " fill="none" id="Lagrima-to-CafeLatte" style="stroke:#181818;stroke-width:1.0;"/><polygon fill="#181818" points="1158.82,563.95,1162.5093,554.8182,1158.6487,558.9529,1154.514,555.0923,1158.82,563.95" style="stroke:#181818;stroke-width:1.0;"/><text fill="#000000" font-family="sans-serif" font-size="13" lengthAdjust="spacing" textLength="132" x="1183" y="511.897">agregarEspuma(poca)</text></g><!--link Lagrima to QuitafrioWhisky--><g id="link_Lagrima_QuitafrioWhisky"><path d="M1352.54,449.07 C1344.29,457.57 1336.38,467.82 1332,479 C1321.23,506.5 1323.5717,535.067 1327.9217,557.787 " fill="none" id="Lagrima-to-QuitafrioWhisky" style="stroke:#181818;stroke-width:1.0;"/><polygon fill="#181818" points="1329.05,563.68,1331.2862,554.0884,1328.1098,558.7692,1323.4289,555.5927,1329.05,563.68" style="stroke:#181818;stroke-width:1.0;"/><text fill="#000000" font-family="sans-serif" font-size="13" lengthAdjust="spacing" textLength="125" x="1333" y="493.897">agregarLicor(whisky)</text><text fill="#000000" font-family="sans-serif" font-size="13" lengthAdjust="spacing" textLength="80" x="1355.5" y="511.603">agregarMiel()</text><text fill="#000000" font-family="sans-serif" font-size="13" lengthAdjust="spacing" textLength="105" x="1343" y="529.309">agregarEspecias()</text></g><!--link Lagrima to QuitafrioRon--><g id="link_Lagrima_QuitafrioRon"><path d="M1419.82,443.36 C1434.99,452.32 1451.55,464.35 1463,479 C1482.67,504.18 1491.7151,534.2585 1496.6851,557.8885 " fill="none" id="Lagrima-to-QuitafrioRon" style="stroke:#181818;stroke-width:1.0;"/><polygon fill="#181818" points="1497.92,563.76,1499.982,554.1294,1496.8909,558.8671,1492.1532,555.776,1497.92,563.76" style="stroke:#181818;stroke-width:1.0;"/><text fill="#000000" font-family="sans-serif" font-size="13" lengthAdjust="spacing" textLength="105" x="1490" y="493.897">agregarLicor(ron)</text><text fill="#000000" font-family="sans-serif" font-size="13" lengthAdjust="spacing" textLength="80" x="1502.5" y="511.603">agregarMiel()</text><text fill="#000000" font-family="sans-serif" font-size="13" lengthAdjust="spacing" textLength="105" x="1490" y="529.309">agregarEspecias()</text></g><!--link Lagrima to Breve--><g id="link_Lagrima_Breve"><path d="M1419.61,424.24 C1467.88,425.27 1551.61,434.07 1604,479 C1629.33,500.73 1639.4974,533.0818 1644.3774,558.0118 " fill="none" id="Lagrima-to-Breve" style="stroke:#181818;stroke-width:1.0;"/><polygon fill="#181818" points="1645.53,563.9,1647.7266,554.2992,1644.5695,558.9931,1639.8756,555.836,1645.53,563.9" style="stroke:#181818;stroke-width:1.0;"/><text fill="#000000" font-family="sans-serif" font-size="13" lengthAdjust="spacing" textLength="94" x="1657" y="502.897">agregarCrema()</text><text fill="#000000" font-family="sans-serif" font-size="13" lengthAdjust="spacing" textLength="132" x="1638" y="520.603">agregarEspuma(poca)</text></g><!--link Hawaiano to CafeAmaretto--><g id="link_Hawaiano_CafeAmaretto"><path d="M884,614.19 C884,636.78 884,664.33 884,686.9 " fill="none" id="Hawaiano-to-CafeAmaretto" style="stroke:#181818;stroke-width:1.0;"/><polygon fill="#181818" points="884,692.9,888,683.9,884,687.9,880,683.9,884,692.9" style="stroke:#181818;stroke-width:1.0;"/><text fill="#000000" font-family="sans-serif" font-size="13" lengthAdjust="spacing" textLength="140" x="885" y="658.897">agregarLicor(amaretto)</text></g><!--link LecheCaliente to Submarino--><g id="link_LecheCaliente_Submarino"><path d="M1354.37,155.18 C1353.82,164.5 1353.27,175.24 1353,185 C1352.32,209.44 1352.32,215.56 1353,240 C1353.27,249.76 1353.4665,254.5104 1354.0165,263.8304 " fill="none" id="LecheCaliente-to-Submarino" style="stroke:#181818;stroke-width:1.0;"/><polygon fill="#181818" points="1354.37,269.82,1357.8329,260.6,1354.0754,264.8287,1349.8468,261.0713,1354.37,269.82" style="stroke:#181818;stroke-width:1.0;"/><text fill="#000000" font-family="sans-serif" font-size="13" lengthAdjust="spacing" textLength="163" x="1354" y="217.897">agregarBarraDeChocolate()</text></g><!--link LecheCaliente to LagrimaAlt--><g id="link_LecheCaliente_LagrimaAlt"><path d="M1413.12,133.29 C1450.63,138.12 1497.18,151.15 1522,185 C1539.91,209.42 1537.1831,240.0469 1531.6031,263.9669 " fill="none" id="LecheCaliente-to-LagrimaAlt" style="stroke:#181818;stroke-width:1.0;"/><polygon fill="#181818" points="1530.24,269.81,1536.18,261.954,1531.3759,264.9407,1528.3892,260.1366,1530.24,269.81" style="stroke:#181818;stroke-width:1.0;"/><text fill="#000000" font-family="sans-serif" font-size="13" lengthAdjust="spacing" textLength="111" x="1535" y="217.897">agregarCafe(poco)</text></g><!--link LagrimaAlt to Lagrima--><g id="link_LagrimaAlt_Lagrima"><path d="M1496.15,320.19 C1471.06,342.78 1438.2683,372.3146 1413.2083,394.8846 " fill="none" id="LagrimaAlt-to-Lagrima" style="stroke:#181818;stroke-width:1.0;"/><polygon fill="#181818" points="1408.75,398.9,1418.1144,395.8492,1412.4653,395.5539,1412.7606,389.9047,1408.75,398.9" style="stroke:#181818;stroke-width:1.0;"/></g><!--SRC=[ZLJBQiD03BpxAtnC2lc17WgEKsWXWJuWFQGzZ3TAl7IzQ-HrG_- -w_YrVXHoiwNHI9gHVRZx2bUhX_2no9cAmeJt8SvCPt2C4osMmQ41R4ca54D9qfOSIa2v9_0rxd11nr2XeunO2cYFBpgNSBW1R6CIHPEM0yWEGgGIrcDo-JB38ZS28t3xyWAjuV4oPLZ3okDaWjYmnT4Zh_UPuTuwWCmmHcQbICVGY97GO5uI4iL4fMTMq4SgUkX7AelltyNoKzymEbWcv4lyPhHNshVjGdj8BPMgg89syvhgHB7Hruqc2wAeq3wYBibpjxhKKsCQIIObE-FYdYkf4KR1LfRFq3CoKZFkDnapL_M42-JWwcBNezgsxjrDiNTdxEiUGrCjIsjpAyiMrj8_j-TZNqjfSM9fQWiz5QKmlBXSexqJEqbgrgjvKkVic96DleLkmBTc-g7HTp4iwvSBEZ5RAQ8CJDRtefu4JRngDlXBL8NlPUBIWpDPWnaRylsVrZLZHygE_WzkEjElLUKzUF07]--></g></svg>