<?xml version="1.0" encoding="us-ascii" standalone="no"?><svg xmlns="http://www.w3.org/2000/svg" xmlns:xlink="http://www.w3.org/1999/xlink" contentStyleType="text/css" height="502px" preserveAspectRatio="none" style="width:773px;height:502px;background:#FFFFFF;" version="1.1" viewBox="0 0 773 502" width="773px" zoomAndPan="magnify"><defs/><g><ellipse cx="454" cy="16" fill="#222222" rx="10" ry="10" style="stroke:#222222;stroke-width:1.0;"/><g id="Disponible"><rect fill="#FFFFE0" height="50" rx="12.5" ry="12.5" style="stroke:#FFA500;stroke-width:0.5;" width="92" x="408" y="87"/><line style="stroke:#FFA500;stroke-width:0.5;" x1="408" x2="500" y1="116.0679" y2="116.0679"/><text fill="#000000" font-family="sans-serif" font-size="14" lengthAdjust="spacing" textLength="72" x="418" y="106.9659">Disponible</text></g><g id="Reservada"><rect fill="#FFFFE0" height="50" rx="12.5" ry="12.5" style="stroke:#FFA500;stroke-width:0.5;" width="90" x="538" y="216"/><line style="stroke:#FFA500;stroke-width:0.5;" x1="538" x2="628" y1="245.0679" y2="245.0679"/><text fill="#000000" font-family="sans-serif" font-size="14" lengthAdjust="spacing" textLength="70" x="548" y="235.9659">Reservada</text></g><g id="EnUso"><rect fill="#FFFFE0" height="50" rx="12.5" ry="12.5" style="stroke:#FFA500;stroke-width:0.5;" width="62" x="620" y="345"/><line style="stroke:#FFA500;stroke-width:0.5;" x1="620" x2="682" y1="374.0679" y2="374.0679"/><text fill="#000000" font-family="sans-serif" font-size="14" lengthAdjust="spacing" textLength="42" x="630" y="364.9659">EnUso</text></g><g id="EnMantenimiento"><rect fill="#FFFFE0" height="50" rx="12.5" ry="12.5" style="stroke:#FFA500;stroke-width:0.5;" width="140" x="7" y="216"/><line style="stroke:#FFA500;stroke-width:0.5;" x1="7" x2="147" y1="245.0679" y2="245.0679"/><text fill="#000000" font-family="sans-serif" font-size="14" lengthAdjust="spacing" textLength="120" x="17" y="235.9659">EnMantenimiento</text></g><g id="NoDisponible"><rect fill="#FFFFE0" height="50" rx="12.5" ry="12.5" style="stroke:#FFA500;stroke-width:0.5;" width="111" x="339.5" y="345"/><line style="stroke:#FFA500;stroke-width:0.5;" x1="339.5" x2="450.5" y1="374.0679" y2="374.0679"/><text fill="#000000" font-family="sans-serif" font-size="14" lengthAdjust="spacing" textLength="91" x="349.5" y="364.9659">NoDisponible</text></g><ellipse cx="395" cy="485" fill="none" rx="11" ry="11" style="stroke:#222222;stroke-width:1.0;"/><ellipse cx="395" cy="485" fill="#222222" rx="6" ry="6" style="stroke:#222222;stroke-width:1.0;"/><g id="elem_GMN18"><path d="M535,89.5 L535,108 L500.27,112 L535,116 L535,134.912 A0,0 0 0 0 535,134.912 L671,134.912 A0,0 0 0 0 671,134.912 L671,99.5 L661,89.5 L535,89.5 A0,0 0 0 0 535,89.5 " fill="#FEFFDD" style="stroke:#181818;stroke-width:0.5;"/><path d="M661,89.5 L661,99.5 L671,99.5 L661,89.5 " fill="#FEFFDD" style="stroke:#181818;stroke-width:0.5;"/><text fill="#000000" font-family="sans-serif" font-size="13" lengthAdjust="spacing" textLength="112" x="541" y="108.397">Aula lista para usar</text><text fill="#000000" font-family="sans-serif" font-size="13" lengthAdjust="spacing" textLength="115" x="541" y="126.103">Sin reservas activas</text></g><g id="elem_GMN21"><path d="M182.5,218.5 L182.5,237 L147.01,241 L182.5,245 L182.5,263.912 A0,0 0 0 0 182.5,263.912 L383.5,263.912 A0,0 0 0 0 383.5,263.912 L383.5,228.5 L373.5,218.5 L182.5,218.5 A0,0 0 0 0 182.5,218.5 " fill="#FEFFDD" style="stroke:#181818;stroke-width:0.5;"/><path d="M373.5,218.5 L373.5,228.5 L383.5,228.5 L373.5,218.5 " fill="#FEFFDD" style="stroke:#181818;stroke-width:0.5;"/><text fill="#000000" font-family="sans-serif" font-size="13" lengthAdjust="spacing" textLength="172" x="188.5" y="237.397">Mantenimiento programado</text><text fill="#000000" font-family="sans-serif" font-size="13" lengthAdjust="spacing" textLength="180" x="188.5" y="255.103">No disponible temporalmente</text></g><!--link *start* to Disponible--><g id="link_*start*_Disponible"><path d="M454,26.01 C454,39.89 454,60.97 454,80.84 " fill="none" id="*start*-to-Disponible" style="stroke:#181818;stroke-width:1.0;"/><polygon fill="#181818" points="454,86.84,458,77.84,454,81.84,450,77.84,454,86.84" style="stroke:#181818;stroke-width:1.0;"/></g><!--link Disponible to Reservada--><g id="link_Disponible_Reservada"><path d="M478.57,137.19 C501.52,159.78 531.3248,189.1201 554.2448,211.6901 " fill="none" id="Disponible-to-Reservada" style="stroke:#181818;stroke-width:1.0;"/><polygon fill="#181818" points="558.52,215.9,554.9138,206.7351,554.9574,212.3918,549.3007,212.4353,558.52,215.9" style="stroke:#181818;stroke-width:1.0;"/><text fill="#000000" font-family="sans-serif" font-size="13" lengthAdjust="spacing" textLength="96" x="528" y="181.897">Asignar a sesi&#243;n</text></g><!--link Reservada to EnUso--><g id="link_Reservada_EnUso"><path d="M586.27,266.09 C588.98,280.86 593.78,299.79 602,315 C607.84,325.8 612.1666,331.8114 620.4066,340.5214 " fill="none" id="Reservada-to-EnUso" style="stroke:#181818;stroke-width:1.0;"/><polygon fill="#181818" points="624.53,344.88,621.2506,335.5931,621.0938,341.2478,615.4391,341.091,624.53,344.88" style="stroke:#181818;stroke-width:1.0;"/><text fill="#000000" font-family="sans-serif" font-size="13" lengthAdjust="spacing" textLength="68" x="603" y="310.897">Iniciar clase</text></g><!--link EnUso to Disponible--><g id="link_EnUso_Disponible"><path d="M664.93,344.79 C669.39,335.74 673.76,325.19 676,315 C690.73,248.11 683.07,213.74 633,167 C594.07,130.66 567.74,153.17 517,137 C511.54,135.26 511.5063,135.3295 505.8863,133.3095 " fill="none" id="EnUso-to-Disponible" style="stroke:#181818;stroke-width:1.0;"/><polygon fill="#181818" points="500.24,131.28,507.3565,138.0884,504.9453,132.9712,510.0625,130.56,500.24,131.28" style="stroke:#181818;stroke-width:1.0;"/><text fill="#000000" font-family="sans-serif" font-size="13" lengthAdjust="spacing" textLength="81" x="684" y="246.397">Finalizar clase</text></g><!--link Disponible to EnMantenimiento--><g id="link_Disponible_EnMantenimiento"><path d="M407.67,123.39 C368.85,132.76 312.34,147.98 265,167 C248.21,173.74 245.57,178.73 229,186 C202.71,197.53 178.7818,206.5326 152.7318,215.5226 " fill="none" id="Disponible-to-EnMantenimiento" style="stroke:#181818;stroke-width:1.0;"/><polygon fill="#181818" points="147.06,217.48,156.8725,218.3251,151.7865,215.8489,154.2627,210.7628,147.06,217.48" style="stroke:#181818;stroke-width:1.0;"/><text fill="#000000" font-family="sans-serif" font-size="13" lengthAdjust="spacing" textLength="161" x="266" y="181.897">Programar mantenimiento</text></g><!--link EnMantenimiento to Disponible--><g id="link_EnMantenimiento_Disponible"><path d="M61.63,215.71 C53.89,200.11 48.37,180.34 60,167 C104.7,115.75 307.9202,111.3541 401.9902,112.0741 " fill="none" id="EnMantenimiento-to-Disponible" style="stroke:#181818;stroke-width:1.0;"/><polygon fill="#181818" points="407.99,112.12,399.0209,108.0512,402.9901,112.0817,398.9596,116.051,407.99,112.12" style="stroke:#181818;stroke-width:1.0;"/><text fill="#000000" font-family="sans-serif" font-size="13" lengthAdjust="spacing" textLength="159" x="61" y="181.897">Completar mantenimiento</text></g><!--link EnMantenimiento to NoDisponible--><g id="link_EnMantenimiento_NoDisponible"><path d="M137.19,266.04 C195.35,289.26 277.1579,321.9347 333.7479,344.5347 " fill="none" id="EnMantenimiento-to-NoDisponible" style="stroke:#181818;stroke-width:1.0;"/><polygon fill="#181818" points="339.32,346.76,332.4454,339.7073,334.6766,344.9056,329.4784,347.1368,339.32,346.76" style="stroke:#181818;stroke-width:1.0;"/><text fill="#000000" font-family="sans-serif" font-size="13" lengthAdjust="spacing" textLength="93" x="257" y="310.897">Reportar da&#241;os</text></g><!--link NoDisponible to Disponible--><g id="link_NoDisponible_Disponible"><path d="M400.58,344.79 C411.85,295.9 435.8522,191.7266 447.1022,142.9266 " fill="none" id="NoDisponible-to-Disponible" style="stroke:#181818;stroke-width:1.0;"/><polygon fill="#181818" points="448.45,137.08,442.5305,144.9514,447.3268,141.9522,450.326,146.7485,448.45,137.08" style="stroke:#181818;stroke-width:1.0;"/><text fill="#000000" font-family="sans-serif" font-size="13" lengthAdjust="spacing" textLength="47" x="431" y="246.397">Reparar</text></g><!--link NoDisponible to *end*--><g id="link_NoDisponible_*end*"><path d="M395,395.24 C395,419.75 395,450.45 395,467.98 " fill="none" id="NoDisponible-to-*end*" style="stroke:#181818;stroke-width:1.0;"/><polygon fill="#181818" points="395,473.98,399,464.98,395,468.98,391,464.98,395,473.98" style="stroke:#181818;stroke-width:1.0;"/><text fill="#000000" font-family="sans-serif" font-size="13" lengthAdjust="spacing" textLength="67" x="396" y="439.897">Dar de baja</text></g><!--SRC=[ZP51JWCn34NtEONNIBr05qYbBH8I5DIA1K8it8cPccRiKPo2nAqGH-Z5I1ZKTgORLXFDV_yx_h4jIuiH6rWbJ7I5rRQEkXC_rQ0HRhdUf2SAGJ-S3L2DdcA7tKUKcfnxldY1qUWIPcoj2gy3kUFnLrcIKNn7Zp26YN4j6071o7Z_BUwe5dOkZwQPkn6kE7DLG2FN_UrFoT0r2mR-F623kNEvGqaat319AgaFKUkyJ3OqfueRacUJfjgqWTA_Z0ljMPVKQYnEZ_ilDTUJpmPbEjSTpwbIynXc9OTWZM_ed6WYYEMrG5zF-mUOx092O4i89GzsbZC1LYmGkxuDi4gSlux4GuaQ1Wvso_R-hkrVcRv82mL_l72Y9Y-DeSaW7GRy0000]--></g></svg>