<?xml version="1.0" encoding="us-ascii" standalone="no"?><svg xmlns="http://www.w3.org/2000/svg" xmlns:xlink="http://www.w3.org/1999/xlink" contentStyleType="text/css" height="742px" preserveAspectRatio="none" style="width:471px;height:742px;background:#FFFFFF;" version="1.1" viewBox="0 0 471 742" width="471px" zoomAndPan="magnify"><defs/><g><ellipse cx="190.34" cy="16" fill="#222222" rx="10" ry="10" style="stroke:#222222;stroke-width:1.0;"/><g id="Planificacion"><rect fill="#ADD8E6" height="50" rx="12.5" ry="12.5" style="stroke:#0000FF;stroke-width:0.5;" width="105" x="137.84" y="87"/><line style="stroke:#0000FF;stroke-width:0.5;" x1="137.84" x2="242.84" y1="116.0679" y2="116.0679"/><text fill="#000000" font-family="sans-serif" font-size="14" lengthAdjust="spacing" textLength="85" x="147.84" y="106.9659">Planificacion</text></g><g id="EnConstruccion"><rect fill="#ADD8E6" height="50" rx="12.5" ry="12.5" style="stroke:#0000FF;stroke-width:0.5;" width="125" x="127.84" y="216"/><line style="stroke:#0000FF;stroke-width:0.5;" x1="127.84" x2="252.84" y1="245.0679" y2="245.0679"/><text fill="#000000" font-family="sans-serif" font-size="14" lengthAdjust="spacing" textLength="105" x="137.84" y="235.9659">EnConstruccion</text></g><g id="Publicado"><rect fill="#ADD8E6" height="50" rx="12.5" ry="12.5" style="stroke:#0000FF;stroke-width:0.5;" width="86" x="147.34" y="345"/><line style="stroke:#0000FF;stroke-width:0.5;" x1="147.34" x2="233.34" y1="374.0679" y2="374.0679"/><text fill="#000000" font-family="sans-serif" font-size="14" lengthAdjust="spacing" textLength="66" x="157.34" y="364.9659">Publicado</text></g><g id="EnAjuste"><rect fill="#ADD8E6" height="50" rx="12.5" ry="12.5" style="stroke:#0000FF;stroke-width:0.5;" width="79" x="68.84" y="474"/><line style="stroke:#0000FF;stroke-width:0.5;" x1="68.84" x2="147.84" y1="503.0679" y2="503.0679"/><text fill="#000000" font-family="sans-serif" font-size="14" lengthAdjust="spacing" textLength="59" x="78.84" y="493.9659">EnAjuste</text></g><g id="Activo"><rect fill="#ADD8E6" height="50" rx="12.5" ry="12.5" style="stroke:#0000FF;stroke-width:0.5;" width="60" x="315.34" y="474"/><line style="stroke:#0000FF;stroke-width:0.5;" x1="315.34" x2="375.34" y1="503.0679" y2="503.0679"/><text fill="#000000" font-family="sans-serif" font-size="14" lengthAdjust="spacing" textLength="40" x="325.34" y="493.9659">Activo</text></g><g id="Cerrado"><rect fill="#ADD8E6" height="50" rx="12.5" ry="12.5" style="stroke:#0000FF;stroke-width:0.5;" width="74" x="308.34" y="603"/><line style="stroke:#0000FF;stroke-width:0.5;" x1="308.34" x2="382.34" y1="632.0679" y2="632.0679"/><text fill="#000000" font-family="sans-serif" font-size="14" lengthAdjust="spacing" textLength="54" x="318.34" y="622.9659">Cerrado</text></g><ellipse cx="345.34" cy="725" fill="none" rx="11" ry="11" style="stroke:#222222;stroke-width:1.0;"/><ellipse cx="345.34" cy="725" fill="#222222" rx="6" ry="6" style="stroke:#222222;stroke-width:1.0;"/><g id="elem_GMN18"><path d="M277.84,89.5 L277.84,108 L243.01,112 L277.84,116 L277.84,134.912 A0,0 0 0 0 277.84,134.912 L464.84,134.912 A0,0 0 0 0 464.84,134.912 L464.84,99.5 L454.84,89.5 L277.84,89.5 A0,0 0 0 0 277.84,89.5 " fill="#FEFFDD" style="stroke:#181818;stroke-width:0.5;"/><path d="M454.84,89.5 L454.84,99.5 L464.84,99.5 L454.84,89.5 " fill="#FEFFDD" style="stroke:#181818;stroke-width:0.5;"/><text fill="#000000" font-family="sans-serif" font-size="13" lengthAdjust="spacing" textLength="148" x="283.84" y="108.397">Estado inicial del per&#237;odo</text><text fill="#000000" font-family="sans-serif" font-size="13" lengthAdjust="spacing" textLength="166" x="283.84" y="126.103">Se definen par&#225;metros base</text></g><g id="elem_GMN21"><path d="M288.34,218.5 L288.34,237 L252.91,241 L288.34,245 L288.34,263.912 A0,0 0 0 0 288.34,263.912 L446.34,263.912 A0,0 0 0 0 446.34,263.912 L446.34,228.5 L436.34,218.5 L288.34,218.5 A0,0 0 0 0 288.34,218.5 " fill="#FEFFDD" style="stroke:#181818;stroke-width:0.5;"/><path d="M436.34,218.5 L436.34,228.5 L446.34,228.5 L436.34,218.5 " fill="#FEFFDD" style="stroke:#181818;stroke-width:0.5;"/><text fill="#000000" font-family="sans-serif" font-size="13" lengthAdjust="spacing" textLength="123" x="294.34" y="237.397">Creaci&#243;n de horarios</text><text fill="#000000" font-family="sans-serif" font-size="13" lengthAdjust="spacing" textLength="137" x="294.34" y="255.103">Asignaci&#243;n de recursos</text></g><g id="elem_GMN24"><path d="M268.84,347.5 L268.84,366 L233.4,370 L268.84,374 L268.84,392.912 A0,0 0 0 0 268.84,392.912 L403.84,392.912 A0,0 0 0 0 403.84,392.912 L403.84,357.5 L393.84,347.5 L268.84,347.5 A0,0 0 0 0 268.84,347.5 " fill="#FEFFDD" style="stroke:#181818;stroke-width:0.5;"/><path d="M393.84,347.5 L393.84,357.5 L403.84,357.5 L393.84,347.5 " fill="#FEFFDD" style="stroke:#181818;stroke-width:0.5;"/><text fill="#000000" font-family="sans-serif" font-size="13" lengthAdjust="spacing" textLength="98" x="274.84" y="366.397">Horarios visibles</text><text fill="#000000" font-family="sans-serif" font-size="13" lengthAdjust="spacing" textLength="114" x="274.84" y="384.103">Permite inscripci&#243;n</text></g><!--link *start* to Planificacion--><g id="link_*start*_Planificacion"><path d="M190.34,26.01 C190.34,39.89 190.34,60.97 190.34,80.84 " fill="none" id="*start*-to-Planificacion" style="stroke:#181818;stroke-width:1.0;"/><polygon fill="#181818" points="190.34,86.84,194.34,77.84,190.34,81.84,186.34,77.84,190.34,86.84" style="stroke:#181818;stroke-width:1.0;"/></g><!--link Planificacion to EnConstruccion--><g id="link_Planificacion_EnConstruccion"><path d="M190.34,137.19 C190.34,159.78 190.34,187.33 190.34,209.9 " fill="none" id="Planificacion-to-EnConstruccion" style="stroke:#181818;stroke-width:1.0;"/><polygon fill="#181818" points="190.34,215.9,194.34,206.9,190.34,210.9,186.34,206.9,190.34,215.9" style="stroke:#181818;stroke-width:1.0;"/><text fill="#000000" font-family="sans-serif" font-size="13" lengthAdjust="spacing" textLength="124" x="191.34" y="181.897">Iniciar programaci&#243;n</text></g><!--link EnConstruccion to Publicado--><g id="link_EnConstruccion_Publicado"><path d="M190.34,266.19 C190.34,288.78 190.34,316.33 190.34,338.9 " fill="none" id="EnConstruccion-to-Publicado" style="stroke:#181818;stroke-width:1.0;"/><polygon fill="#181818" points="190.34,344.9,194.34,335.9,190.34,339.9,186.34,335.9,190.34,344.9" style="stroke:#181818;stroke-width:1.0;"/><text fill="#000000" font-family="sans-serif" font-size="13" lengthAdjust="spacing" textLength="102" x="191.34" y="310.897">Validar y publicar</text></g><!--link Publicado to EnAjuste--><g id="link_Publicado_EnAjuste"><path d="M146.98,371.66 C107.56,374.84 51.4,386.44 23.34,425 C6,448.83 33.4733,467.5694 63.2633,480.8994 " fill="none" id="Publicado-to-EnAjuste" style="stroke:#181818;stroke-width:1.0;"/><polygon fill="#181818" points="68.74,483.35,62.1587,476.0229,64.1761,481.3078,58.8912,483.3252,68.74,483.35" style="stroke:#181818;stroke-width:1.0;"/><text fill="#000000" font-family="sans-serif" font-size="13" lengthAdjust="spacing" textLength="122" x="24.34" y="439.897">Solicitud de cambios</text></g><!--link EnAjuste to Publicado--><g id="link_EnAjuste_Publicado"><path d="M129.01,473.98 C136.43,464.86 144.62,454.21 151.34,444 C161.6,428.39 168.8182,415.1773 176.0682,400.6673 " fill="none" id="EnAjuste-to-Publicado" style="stroke:#181818;stroke-width:1.0;"/><polygon fill="#181818" points="178.75,395.3,171.1491,401.5631,176.5152,399.7728,178.3055,405.1388,178.75,395.3" style="stroke:#181818;stroke-width:1.0;"/><text fill="#000000" font-family="sans-serif" font-size="13" lengthAdjust="spacing" textLength="113" x="163.34" y="439.897">Confirmar cambios</text></g><!--link Publicado to Activo--><g id="link_Publicado_Activo"><path d="M233.64,391.3 C250.67,400.35 269.81,411.93 285.34,425 C302.15,439.16 314.263,453.6534 325.363,468.8634 " fill="none" id="Publicado-to-Activo" style="stroke:#181818;stroke-width:1.0;"/><polygon fill="#181818" points="328.9,473.71,326.8256,464.0821,325.9525,469.6711,320.3634,468.7981,328.9,473.71" style="stroke:#181818;stroke-width:1.0;"/><text fill="#000000" font-family="sans-serif" font-size="13" lengthAdjust="spacing" textLength="74" x="304.34" y="439.897">Iniciar clases</text></g><!--link Activo to Cerrado--><g id="link_Activo_Cerrado"><path d="M345.34,524.19 C345.34,546.78 345.34,574.33 345.34,596.9 " fill="none" id="Activo-to-Cerrado" style="stroke:#181818;stroke-width:1.0;"/><polygon fill="#181818" points="345.34,602.9,349.34,593.9,345.34,597.9,341.34,593.9,345.34,602.9" style="stroke:#181818;stroke-width:1.0;"/><text fill="#000000" font-family="sans-serif" font-size="13" lengthAdjust="spacing" textLength="99" x="346.34" y="568.897">Finalizar periodo</text></g><!--link Cerrado to *end*--><g id="link_Cerrado_*end*"><path d="M345.34,653.46 C345.34,673.04 345.34,693.49 345.34,707.8 " fill="none" id="Cerrado-to-*end*" style="stroke:#181818;stroke-width:1.0;"/><polygon fill="#181818" points="345.34,713.8,349.34,704.8,345.34,708.8,341.34,704.8,345.34,713.8" style="stroke:#181818;stroke-width:1.0;"/></g><!--SRC=[TP5DJWCn38NtEONNIBq02wHsL0GI2wHAR12BJEAPccRYaPEf1BVX0AmuGY-6CzCVEXBB-3r_jb_IZc9lnNQmoJRZohfTApn4Nt5WWITgjtaL1ZHfPcJnA9DfrCthpHii5dVm76oaXfnrnD5SlKPz7IkEASlWnj8jF4PoP0LwuLRvwZpyH3EpZUIX3ahoh4qlDf3NfW_efwgOYpoDMRuFAQDwDwnroeC7Z-1iLnCdSzRdP1tRa7JAFbclmKkNQSz_zdR19apcM2-M2aKcs3r5NVIpN8T2xDcSjEBJo8o9h4j8oHcucQK7i4wvk6cS5VI0K4Y7xu82sA1M6eeOGV_cyDLX5avGwq86euV2da-u3bOXbU2KUObdosAb70smJDJ6YoBe1acg_0S-nwIz3qSCx2bH7R3mdb4wqWQAoGdrqpUVOBy0]--></g></svg>