<?xml version="1.0" encoding="us-ascii" standalone="no"?><svg xmlns="http://www.w3.org/2000/svg" xmlns:xlink="http://www.w3.org/1999/xlink" contentStyleType="text/css" height="871px" preserveAspectRatio="none" style="width:466px;height:871px;background:#FFFFFF;" version="1.1" viewBox="0 0 466 871" width="466px" zoomAndPan="magnify"><defs/><g><ellipse cx="222" cy="16" fill="#222222" rx="10" ry="10" style="stroke:#222222;stroke-width:1.0;"/><g id="Propuesta"><rect fill="#90EE90" height="50" rx="12.5" ry="12.5" style="stroke:#008000;stroke-width:0.5;" width="88" x="178" y="87"/><line style="stroke:#008000;stroke-width:0.5;" x1="178" x2="266" y1="116.0679" y2="116.0679"/><text fill="#000000" font-family="sans-serif" font-size="14" lengthAdjust="spacing" textLength="68" x="188" y="106.9659">Propuesta</text></g><g id="Programada"><rect fill="#90EE90" height="50" rx="12.5" ry="12.5" style="stroke:#008000;stroke-width:0.5;" width="103" x="170.5" y="216"/><line style="stroke:#008000;stroke-width:0.5;" x1="170.5" x2="273.5" y1="245.0679" y2="245.0679"/><text fill="#000000" font-family="sans-serif" font-size="14" lengthAdjust="spacing" textLength="83" x="180.5" y="235.9659">Programada</text></g><g id="Confirmada"><rect fill="#90EE90" height="50" rx="12.5" ry="12.5" style="stroke:#008000;stroke-width:0.5;" width="99" x="111.5" y="345"/><line style="stroke:#008000;stroke-width:0.5;" x1="111.5" x2="210.5" y1="374.0679" y2="374.0679"/><text fill="#000000" font-family="sans-serif" font-size="14" lengthAdjust="spacing" textLength="79" x="121.5" y="364.9659">Confirmada</text></g><g id="Activa"><rect fill="#90EE90" height="50" rx="12.5" ry="12.5" style="stroke:#008000;stroke-width:0.5;" width="60" x="15" y="474"/><line style="stroke:#008000;stroke-width:0.5;" x1="15" x2="75" y1="503.0679" y2="503.0679"/><text fill="#000000" font-family="sans-serif" font-size="14" lengthAdjust="spacing" textLength="40" x="25" y="493.9659">Activa</text></g><g id="EnCurso"><rect fill="#90EE90" height="50" rx="12.5" ry="12.5" style="stroke:#008000;stroke-width:0.5;" width="76" x="7" y="603"/><line style="stroke:#008000;stroke-width:0.5;" x1="7" x2="83" y1="632.0679" y2="632.0679"/><text fill="#000000" font-family="sans-serif" font-size="14" lengthAdjust="spacing" textLength="56" x="17" y="622.9659">EnCurso</text></g><g id="Finalizada"><rect fill="#90EE90" height="50" rx="12.5" ry="12.5" style="stroke:#008000;stroke-width:0.5;" width="88" x="24" y="732"/><line style="stroke:#008000;stroke-width:0.5;" x1="24" x2="112" y1="761.0679" y2="761.0679"/><text fill="#000000" font-family="sans-serif" font-size="14" lengthAdjust="spacing" textLength="68" x="34" y="751.9659">Finalizada</text></g><ellipse cx="138" cy="854" fill="none" rx="11" ry="11" style="stroke:#222222;stroke-width:1.0;"/><ellipse cx="138" cy="854" fill="#222222" rx="6" ry="6" style="stroke:#222222;stroke-width:1.0;"/><g id="Cancelada"><rect fill="#90EE90" height="50" rx="12.5" ry="12.5" style="stroke:#008000;stroke-width:0.5;" width="90" x="142" y="474"/><line style="stroke:#008000;stroke-width:0.5;" x1="142" x2="232" y1="503.0679" y2="503.0679"/><text fill="#000000" font-family="sans-serif" font-size="14" lengthAdjust="spacing" textLength="70" x="152" y="493.9659">Cancelada</text></g><g id="elem_GMN21"><path d="M301.5,89.5 L301.5,108 L266.13,112 L301.5,116 L301.5,134.912 A0,0 0 0 0 301.5,134.912 L458.5,134.912 A0,0 0 0 0 458.5,134.912 L458.5,99.5 L448.5,89.5 L301.5,89.5 A0,0 0 0 0 301.5,89.5 " fill="#FEFFDD" style="stroke:#181818;stroke-width:0.5;"/><path d="M448.5,89.5 L448.5,99.5 L458.5,99.5 L448.5,89.5 " fill="#FEFFDD" style="stroke:#181818;stroke-width:0.5;"/><text fill="#000000" font-family="sans-serif" font-size="13" lengthAdjust="spacing" textLength="100" x="307.5" y="108.397">Secci&#243;n sugerida</text><text fill="#000000" font-family="sans-serif" font-size="13" lengthAdjust="spacing" textLength="136" x="307.5" y="126.103">Sin recursos asignados</text></g><g id="elem_GMN24"><path d="M309,218.5 L309,237 L273.57,241 L309,245 L309,263.912 A0,0 0 0 0 309,263.912 L459,263.912 A0,0 0 0 0 459,263.912 L459,228.5 L449,218.5 L309,218.5 A0,0 0 0 0 309,218.5 " fill="#FEFFDD" style="stroke:#181818;stroke-width:0.5;"/><path d="M449,218.5 L449,228.5 L459,228.5 L449,218.5 " fill="#FEFFDD" style="stroke:#181818;stroke-width:0.5;"/><text fill="#000000" font-family="sans-serif" font-size="13" lengthAdjust="spacing" textLength="129" x="315" y="237.397">Con horario tentativo</text><text fill="#000000" font-family="sans-serif" font-size="13" lengthAdjust="spacing" textLength="124" x="315" y="255.103">Pendiente validaci&#243;n</text></g><!--link *start* to Propuesta--><g id="link_*start*_Propuesta"><path d="M222,26.01 C222,39.89 222,60.97 222,80.84 " fill="none" id="*start*-to-Propuesta" style="stroke:#181818;stroke-width:1.0;"/><polygon fill="#181818" points="222,86.84,226,77.84,222,81.84,218,77.84,222,86.84" style="stroke:#181818;stroke-width:1.0;"/></g><!--link Propuesta to Programada--><g id="link_Propuesta_Programada"><path d="M222,137.19 C222,159.78 222,187.33 222,209.9 " fill="none" id="Propuesta-to-Programada" style="stroke:#181818;stroke-width:1.0;"/><polygon fill="#181818" points="222,215.9,226,206.9,222,210.9,218,206.9,222,215.9" style="stroke:#181818;stroke-width:1.0;"/><text fill="#000000" font-family="sans-serif" font-size="13" lengthAdjust="spacing" textLength="92" x="223" y="181.897">Asignar horario</text></g><!--link Programada to Confirmada--><g id="link_Programada_Confirmada"><path d="M183.39,266.09 C173.6,274.28 164.36,284.35 159,296 C152.01,311.2 151.8133,324.2152 154.1733,338.9852 " fill="none" id="Programada-to-Confirmada" style="stroke:#181818;stroke-width:1.0;"/><polygon fill="#181818" points="155.12,344.91,157.6499,335.3916,154.3311,339.9726,149.7501,336.6539,155.12,344.91" style="stroke:#181818;stroke-width:1.0;"/><text fill="#000000" font-family="sans-serif" font-size="13" lengthAdjust="spacing" textLength="95" x="160" y="310.897">Validar recursos</text></g><!--link Confirmada to Activa--><g id="link_Confirmada_Activa"><path d="M111.25,393.3 C97.05,401.59 82.58,412.17 72,425 C60.39,439.07 55.0038,452.7864 51.0938,468.1064 " fill="none" id="Confirmada-to-Activa" style="stroke:#181818;stroke-width:1.0;"/><polygon fill="#181818" points="49.61,473.92,55.7114,466.1887,50.8465,469.0753,47.9599,464.2104,49.61,473.92" style="stroke:#181818;stroke-width:1.0;"/><text fill="#000000" font-family="sans-serif" font-size="13" lengthAdjust="spacing" textLength="74" x="73" y="439.897">Iniciar clases</text></g><!--link Activa to EnCurso--><g id="link_Activa_EnCurso"><path d="M44.46,524.19 C44.27,533.51 44.09,544.25 44,554 C43.85,570.35 43.9778,582.7612 44.2678,597.0012 " fill="none" id="Activa-to-EnCurso" style="stroke:#181818;stroke-width:1.0;"/><polygon fill="#181818" points="44.39,603,48.2059,593.9204,44.2882,598.001,40.2076,594.0833,44.39,603" style="stroke:#181818;stroke-width:1.0;"/><text fill="#000000" font-family="sans-serif" font-size="13" lengthAdjust="spacing" textLength="115" x="45" y="568.897">Registrar asistencia</text></g><!--link EnCurso to Finalizada--><g id="link_EnCurso_Finalizada"><path d="M40.83,653.29 C39.15,667.64 38.36,686.05 42,702 C44.34,712.25 46.1402,717.4721 50.7802,726.5121 " fill="none" id="EnCurso-to-Finalizada" style="stroke:#181818;stroke-width:1.0;"/><polygon fill="#181818" points="53.52,731.85,52.9689,722.0166,51.2368,727.4017,45.8517,725.6697,53.52,731.85" style="stroke:#181818;stroke-width:1.0;"/><text fill="#000000" font-family="sans-serif" font-size="13" lengthAdjust="spacing" textLength="117" x="43" y="697.897">Completar sesiones</text></g><!--link Finalizada to *end*--><g id="link_Finalizada_*end*"><path d="M86.03,782.46 C101.1,802.92 118.14,826.0503 128.29,839.8203 " fill="none" id="Finalizada-to-*end*" style="stroke:#181818;stroke-width:1.0;"/><polygon fill="#181818" points="131.85,844.65,129.7298,835.0321,128.8833,840.6252,123.2901,839.7788,131.85,844.65" style="stroke:#181818;stroke-width:1.0;"/></g><!--link Programada to Cancelada--><g id="link_Programada_Cancelada"><path d="M243.68,266.08 C250.25,274.87 256.61,285.29 260,296 C279.85,358.71 289.61,385.26 260,444 C253.83,456.25 248.2654,462.8713 237.2154,470.9413 " fill="none" id="Programada-to-Cancelada" style="stroke:#181818;stroke-width:1.0;"/><polygon fill="#181818" points="232.37,474.48,241.9972,472.4023,236.4078,471.5311,237.279,465.9417,232.37,474.48" style="stroke:#181818;stroke-width:1.0;"/><text fill="#000000" font-family="sans-serif" font-size="13" lengthAdjust="spacing" textLength="114" x="280" y="375.397">No cumple m&#237;nimo</text></g><!--link Confirmada to Cancelada--><g id="link_Confirmada_Cancelada"><path d="M156.61,395.02 C154.81,409.43 153.98,428.01 158,444 C160.6,454.32 162.6132,459.6105 167.7332,468.5705 " fill="none" id="Confirmada-to-Cancelada" style="stroke:#181818;stroke-width:1.0;"/><polygon fill="#181818" points="170.71,473.78,169.7177,463.9813,168.2293,469.4388,162.7718,467.9504,170.71,473.78" style="stroke:#181818;stroke-width:1.0;"/><text fill="#000000" font-family="sans-serif" font-size="13" lengthAdjust="spacing" textLength="96" x="159" y="439.897">Liberar recursos</text></g><!--link Cancelada to *end*--><g id="link_Cancelada_*end*"><path d="M184.92,524.01 C181.52,561.92 174.21,637.93 165,702 C157.31,755.51 146.0247,813.2281 141.1847,837.2581 " fill="none" id="Cancelada-to-*end*" style="stroke:#181818;stroke-width:1.0;"/><polygon fill="#181818" points="140,843.14,145.6983,835.107,140.9872,838.2384,137.8558,833.5274,140,843.14" style="stroke:#181818;stroke-width:1.0;"/></g><!--SRC=[RP5DJiD038NtSmglaNe15aWG0KAgK4KbDeY5cRYfrSIkF9Ckk1ChZj2BuMcQA1HsC_Rdz_oJTYnxDEnWdJ7J7SPTOzfBNMch1ajkjldHY2Ia2rAj9Xke0GXlL- -mMDp0odJVKyeOfjSORxmUQuHhk4tS21firT1OmonPs4fbmtPcNx7bsbcZs5lI56RP0j_6p8S2FWb7TZ2sc2Y5SxmWzrALKcTUgE6KtHGm-OF4AyAOBkW3Y_jz3jQLTlkMijCko2gkEiiNtAV-qpnAf7OGU5Q8VT60xlWbtEbbytDuoHzalmQTagDL4Cq4Lku2kfdj6c1DCVBnMo3r3PblhCHO9hKoiE-yTbsI6ehGFtBdGRpM6ntF0xudlpeVrEChhsR_4nnEXpcPJf8_]--></g></svg>