<?xml version="1.0" encoding="us-ascii" standalone="no"?><svg xmlns="http://www.w3.org/2000/svg" xmlns:xlink="http://www.w3.org/1999/xlink" contentStyleType="text/css" height="659px" preserveAspectRatio="none" style="width:441px;height:659px;background:#FFFFFF;" version="1.1" viewBox="0 0 441 659" width="441px" zoomAndPan="magnify"><defs/><g><ellipse cx="208.5" cy="16" fill="#222222" rx="10" ry="10" style="stroke:#222222;stroke-width:1.0;"/><g id="Programada"><rect fill="#FFB6C1" height="50" rx="12.5" ry="12.5" style="stroke:#FF0000;stroke-width:0.5;" width="103" x="157" y="87"/><line style="stroke:#FF0000;stroke-width:0.5;" x1="157" x2="260" y1="116.0679" y2="116.0679"/><text fill="#000000" font-family="sans-serif" font-size="14" lengthAdjust="spacing" textLength="83" x="167" y="106.9659">Programada</text></g><g id="Confirmada"><rect fill="#FFB6C1" height="50" rx="12.5" ry="12.5" style="stroke:#FF0000;stroke-width:0.5;" width="99" x="159" y="216"/><line style="stroke:#FF0000;stroke-width:0.5;" x1="159" x2="258" y1="245.0679" y2="245.0679"/><text fill="#000000" font-family="sans-serif" font-size="14" lengthAdjust="spacing" textLength="79" x="169" y="235.9659">Confirmada</text></g><g id="EnProceso"><rect fill="#FFB6C1" height="50" rx="12.5" ry="12.5" style="stroke:#FF0000;stroke-width:0.5;" width="89" x="23" y="345"/><line style="stroke:#FF0000;stroke-width:0.5;" x1="23" x2="112" y1="374.0679" y2="374.0679"/><text fill="#000000" font-family="sans-serif" font-size="14" lengthAdjust="spacing" textLength="69" x="33" y="364.9659">EnProceso</text></g><g id="Completada"><rect fill="#FFB6C1" height="50" rx="12.5" ry="12.5" style="stroke:#FF0000;stroke-width:0.5;" width="101" x="7" y="474"/><line style="stroke:#FF0000;stroke-width:0.5;" x1="7" x2="108" y1="503.0679" y2="503.0679"/><text fill="#000000" font-family="sans-serif" font-size="14" lengthAdjust="spacing" textLength="81" x="17" y="493.9659">Completada</text></g><g id="Cancelada"><rect fill="#FFB6C1" height="50" rx="12.5" ry="12.5" style="stroke:#FF0000;stroke-width:0.5;" width="90" x="147.5" y="474"/><line style="stroke:#FF0000;stroke-width:0.5;" x1="147.5" x2="237.5" y1="503.0679" y2="503.0679"/><text fill="#000000" font-family="sans-serif" font-size="14" lengthAdjust="spacing" textLength="70" x="157.5" y="493.9659">Cancelada</text></g><ellipse cx="89.5" cy="628" fill="none" rx="11" ry="11" style="stroke:#222222;stroke-width:1.0;"/><ellipse cx="89.5" cy="628" fill="#222222" rx="6" ry="6" style="stroke:#222222;stroke-width:1.0;"/><g id="Reprogramada"><rect fill="#FFB6C1" height="50" rx="12.5" ry="12.5" style="stroke:#FF0000;stroke-width:0.5;" width="121" x="201" y="603"/><line style="stroke:#FF0000;stroke-width:0.5;" x1="201" x2="322" y1="632.0679" y2="632.0679"/><text fill="#000000" font-family="sans-serif" font-size="14" lengthAdjust="spacing" textLength="101" x="211" y="622.9659">Reprogramada</text></g><g id="elem_GMN19"><path d="M295,89.5 L295,108 L260.3,112 L295,116 L295,134.912 A0,0 0 0 0 295,134.912 L434,134.912 A0,0 0 0 0 434,134.912 L434,99.5 L424,89.5 L295,89.5 A0,0 0 0 0 295,89.5 " fill="#FEFFDD" style="stroke:#181818;stroke-width:0.5;"/><path d="M424,89.5 L424,99.5 L434,99.5 L424,89.5 " fill="#FEFFDD" style="stroke:#181818;stroke-width:0.5;"/><text fill="#000000" font-family="sans-serif" font-size="13" lengthAdjust="spacing" textLength="106" x="301" y="108.397">Sesi&#243;n planificada</text><text fill="#000000" font-family="sans-serif" font-size="13" lengthAdjust="spacing" textLength="118" x="301" y="126.103">Recursos tentativos</text></g><g id="elem_GMN22"><path d="M147.5,347.5 L147.5,366 L112,370 L147.5,374 L147.5,392.912 A0,0 0 0 0 147.5,392.912 L297.5,392.912 A0,0 0 0 0 297.5,392.912 L297.5,357.5 L287.5,347.5 L147.5,347.5 A0,0 0 0 0 147.5,347.5 " fill="#FEFFDD" style="stroke:#181818;stroke-width:0.5;"/><path d="M287.5,347.5 L287.5,357.5 L297.5,357.5 L287.5,347.5 " fill="#FEFFDD" style="stroke:#181818;stroke-width:0.5;"/><text fill="#000000" font-family="sans-serif" font-size="13" lengthAdjust="spacing" textLength="108" x="153.5" y="366.397">Clase en ejecuci&#243;n</text><text fill="#000000" font-family="sans-serif" font-size="13" lengthAdjust="spacing" textLength="129" x="153.5" y="384.103">Registro de asistencia</text></g><!--link *start* to Programada--><g id="link_*start*_Programada"><path d="M208.5,26.01 C208.5,39.89 208.5,60.97 208.5,80.84 " fill="none" id="*start*-to-Programada" style="stroke:#181818;stroke-width:1.0;"/><polygon fill="#181818" points="208.5,86.84,212.5,77.84,208.5,81.84,204.5,77.84,208.5,86.84" style="stroke:#181818;stroke-width:1.0;"/></g><!--link Programada to Confirmada--><g id="link_Programada_Confirmada"><path d="M208.5,137.19 C208.5,159.78 208.5,187.33 208.5,209.9 " fill="none" id="Programada-to-Confirmada" style="stroke:#181818;stroke-width:1.0;"/><polygon fill="#181818" points="208.5,215.9,212.5,206.9,208.5,210.9,204.5,206.9,208.5,215.9" style="stroke:#181818;stroke-width:1.0;"/><text fill="#000000" font-family="sans-serif" font-size="13" lengthAdjust="spacing" textLength="95" x="209.5" y="181.897">Validar recursos</text></g><!--link Confirmada to EnProceso--><g id="link_Confirmada_EnProceso"><path d="M181.65,266.19 C156.56,288.78 123.7683,318.3146 98.7083,340.8846 " fill="none" id="Confirmada-to-EnProceso" style="stroke:#181818;stroke-width:1.0;"/><polygon fill="#181818" points="94.25,344.9,103.6144,341.8492,97.9653,341.5539,98.2606,335.9047,94.25,344.9" style="stroke:#181818;stroke-width:1.0;"/><text fill="#000000" font-family="sans-serif" font-size="13" lengthAdjust="spacing" textLength="68" x="147.5" y="310.897">Iniciar clase</text></g><!--link EnProceso to Completada--><g id="link_EnProceso_Completada"><path d="M53.02,395.15 C48.38,404.19 43.84,414.75 41.5,425 C37.78,441.32 39.8941,454.0647 44.8641,468.3147 " fill="none" id="EnProceso-to-Completada" style="stroke:#181818;stroke-width:1.0;"/><polygon fill="#181818" points="46.84,473.98,47.653,464.1648,45.1934,469.2589,40.0993,466.7993,46.84,473.98" style="stroke:#181818;stroke-width:1.0;"/><text fill="#000000" font-family="sans-serif" font-size="13" lengthAdjust="spacing" textLength="115" x="42.5" y="439.897">Registrar asistencia</text></g><!--link EnProceso to Cancelada--><g id="link_EnProceso_Cancelada"><path d="M112.47,388.86 C129.94,397.61 148.96,409.62 162.5,425 C174.72,438.88 180.7082,452.6634 185.2282,468.0434 " fill="none" id="EnProceso-to-Cancelada" style="stroke:#181818;stroke-width:1.0;"/><polygon fill="#181818" points="186.92,473.8,188.22,464.0373,185.5102,469.0029,180.5446,466.293,186.92,473.8" style="stroke:#181818;stroke-width:1.0;"/><text fill="#000000" font-family="sans-serif" font-size="13" lengthAdjust="spacing" textLength="115" x="176.5" y="439.897">Reportar incidencia</text></g><!--link Completada to *end*--><g id="link_Completada_*end*"><path d="M63.59,524.19 C70.67,552.25 80.5358,591.4014 85.5258,611.2314 " fill="none" id="Completada-to-*end*" style="stroke:#181818;stroke-width:1.0;"/><polygon fill="#181818" points="86.99,617.05,88.6728,607.346,85.7698,612.2012,80.9146,609.2982,86.99,617.05" style="stroke:#181818;stroke-width:1.0;"/></g><!--link Cancelada to Reprogramada--><g id="link_Cancelada_Reprogramada"><path d="M185.8,524.25 C183.04,539.08 182.01,558.02 189.5,573 C195.44,584.88 200.5754,591.2128 211.1954,599.2028 " fill="none" id="Cancelada-to-Reprogramada" style="stroke:#181818;stroke-width:1.0;"/><polygon fill="#181818" points="215.99,602.81,211.2029,594.2028,211.9945,599.804,206.3933,600.5956,215.99,602.81" style="stroke:#181818;stroke-width:1.0;"/><text fill="#000000" font-family="sans-serif" font-size="13" lengthAdjust="spacing" textLength="133" x="190.5" y="568.897">Asignar nuevo horario</text></g><!--link Reprogramada to Confirmada--><g id="link_Reprogramada_Confirmada"><path d="M303.21,602.8 C313.36,594.72 322.89,584.72 328.5,573 C372.31,481.42 357.13,437.14 314.5,345 C299.42,312.4 273.9123,288.2735 249.5623,269.8235 " fill="none" id="Reprogramada-to-Confirmada" style="stroke:#181818;stroke-width:1.0;"/><polygon fill="#181818" points="244.78,266.2,249.5377,274.8235,248.7652,269.2196,254.3691,268.4471,244.78,266.2" style="stroke:#181818;stroke-width:1.0;"/></g><!--link Cancelada to *end*--><g id="link_Cancelada_*end*"><path d="M172.88,524.19 C149.42,553.12 115.1801,595.3405 99.9201,614.1505 " fill="none" id="Cancelada-to-*end*" style="stroke:#181818;stroke-width:1.0;"/><polygon fill="#181818" points="96.14,618.81,104.9165,614.3408,99.2901,614.9271,98.7038,609.3007,96.14,618.81" style="stroke:#181818;stroke-width:1.0;"/></g><!--SRC=[NP4nRiCm34LtdO9pWLmWGu7Mw52WGv00NOeEWaGxh1NIeEHSh4VenKhPJUruayNtdy3lt1CFNlq5JiKNVFQXxrH6ZeqaKNYZxbmEnBtB6r0qeixG4QDp7m-ViDizma6bCyf7xvRZD6c4MzBfSm_lFb7q2efXr2pPhQOLVc5B1ynYx2jJ86D3yXdTCfcbbo5XcQL7x2WNDTHdEo1RRCjx3fXk-21QZ2O3uqolV1MthTmIgJSMMjRQmrEcZat18ru5pcAFaxWxw7xtZQu-u5WAWjQgGTfrWm0dpFJppJ0apzHIc6-FVws1xMX_WwvM87A4Ajhg_lUtN5CR16J0BpE4QfviKsq24TV5tOI_]--></g></svg>