<?xml version="1.0" encoding="us-ascii" standalone="no"?><svg xmlns="http://www.w3.org/2000/svg" xmlns:xlink="http://www.w3.org/1999/xlink" contentStyleType="text/css" height="857px" preserveAspectRatio="none" style="width:527px;height:857px;background:#FFFFFF;" version="1.1" viewBox="0 0 527 857" width="527px" zoomAndPan="magnify"><defs/><g><g id="SISTEMA_INICIAL"><rect fill="#F1F1F1" height="50" rx="12.5" ry="12.5" style="stroke:#181818;stroke-width:0.5;" width="136" x="104.5" y="7"/><line style="stroke:#181818;stroke-width:0.5;" x1="104.5" x2="240.5" y1="36.0679" y2="36.0679"/><text fill="#000000" font-family="sans-serif" font-size="14" lengthAdjust="spacing" textLength="116" x="114.5" y="26.9659">SISTEMA_INICIAL</text></g><path d="M19.5,117 L501.5,117 A12.5,12.5 0 0 1 514,129.5 L514,146.0679 L7,146.0679 L7,129.5 A12.5,12.5 0 0 1 19.5,117 " fill="#F1F1F1" style="stroke:#F1F1F1;stroke-width:1.0;"/><rect fill="none" height="624.0679" rx="12.5" ry="12.5" style="stroke:#181818;stroke-width:0.5;" width="507" x="7" y="117"/><line style="stroke:#181818;stroke-width:0.5;" x1="7" x2="514" y1="146.0679" y2="146.0679"/><text fill="#000000" font-family="sans-serif" font-size="14" lengthAdjust="spacing" textLength="128" x="196.5" y="136.9659">seleccionarT&#243;nica()</text><g id="seleccionarTonica.PresentandoOpciones"><rect fill="#F1F1F1" height="50" rx="12.5" ry="12.5" style="stroke:#181818;stroke-width:0.5;" width="50" x="19" y="250.0679"/><line style="stroke:#181818;stroke-width:0.5;" x1="19" x2="69" y1="279.1358" y2="279.1358"/><text fill="#000000" font-family="sans-serif" font-size="14" lengthAdjust="spacing" textLength="4" x="42" y="270.0339">&#160;</text></g><g id="seleccionarTonica.TonicaSeleccionada"><rect fill="#F1F1F1" height="50" rx="12.5" ry="12.5" style="stroke:#181818;stroke-width:0.5;" width="50" x="19" y="444.0679"/><line style="stroke:#181818;stroke-width:0.5;" x1="19" x2="69" y1="473.1358" y2="473.1358"/><text fill="#000000" font-family="sans-serif" font-size="14" lengthAdjust="spacing" textLength="4" x="42" y="464.0339">&#160;</text></g><ellipse cx="44" cy="167.0679" fill="#222222" rx="10" ry="10" style="stroke:#222222;stroke-width:1.0;"/><ellipse cx="44" cy="720.0679" fill="none" rx="11" ry="11" style="stroke:#222222;stroke-width:1.0;"/><ellipse cx="44" cy="720.0679" fill="#222222" rx="6" ry="6" style="stroke:#222222;stroke-width:1.0;"/><!--link *start*seleccionarTonica to PresentandoOpciones--><g id="link_*start*seleccionarTonica_PresentandoOpciones"><path d="M44,177.1079 C44,193.0279 44,220.5779 44,243.7079 " fill="none" id="*start*seleccionarTonica-to-PresentandoOpciones" style="stroke:#008000;stroke-width:1.0;"/><polygon fill="#008000" points="44,249.7079,48,240.7079,44,244.7079,40,240.7079,44,249.7079" style="stroke:#008000;stroke-width:1.0;"/><path d="M49,200.0679 L49,227.0679 L269,227.0679 L269,210.0679 L259,200.0679 L49,200.0679 " fill="#FEFFDD" style="stroke:#181818;stroke-width:0.5;"/><path d="M259,200.0679 L259,210.0679 L269,210.0679 L259,200.0679 " fill="#FEFFDD" style="stroke:#181818;stroke-width:0.5;"/><text fill="#000000" font-family="sans-serif" font-size="13" font-weight="bold" lengthAdjust="spacing" textLength="46" x="55" y="218.9649">M&#250;sico</text><text fill="#000000" font-family="sans-serif" font-size="13" lengthAdjust="spacing" textLength="150" x="104" y="218.9649">solicita seleccionar t&#243;nica</text></g><!--link PresentandoOpciones to TonicaSeleccionada--><g id="link_PresentandoOpciones_TonicaSeleccionada"><path d="M44,300.3879 C44,337.3179 44,401.1379 44,437.9479 " fill="none" id="PresentandoOpciones-to-TonicaSeleccionada" style="stroke:#008000;stroke-width:1.0;"/><polygon fill="#008000" points="44,443.9479,48,434.9479,44,438.9479,40,434.9479,44,443.9479" style="stroke:#008000;stroke-width:1.0;"/><path d="M49,323.0679 L49,421.0679 L505,421.0679 L505,333.0679 L495,323.0679 L49,323.0679 " fill="#FEFFDD" style="stroke:#181818;stroke-width:0.5;"/><path d="M495,323.0679 L495,333.0679 L505,333.0679 L495,323.0679 " fill="#FEFFDD" style="stroke:#181818;stroke-width:0.5;"/><text fill="#000000" font-family="sans-serif" font-size="13" font-weight="bold" lengthAdjust="spacing" textLength="52" x="55" y="341.9649">Sistema</text><text fill="#000000" font-family="sans-serif" font-size="13" lengthAdjust="spacing" textLength="168" x="110" y="341.9649">presenta opciones de t&#243;nica</text><text fill="#000000" font-family="sans-serif" font-size="13" lengthAdjust="spacing" textLength="435" x="55" y="359.6709">&#8226; Las 12 notas crom&#225;ticas disponibles (C, C#, D, D#, E, F, F#, G, G#, A, A#, B)</text><text fill="#000000" font-family="sans-serif" font-size="13" lengthAdjust="spacing" textLength="3" x="55" y="377.377">&#160;</text><text fill="#000000" font-family="sans-serif" font-size="13" font-weight="bold" lengthAdjust="spacing" textLength="52" x="55" y="395.083">Sistema</text><text fill="#000000" font-family="sans-serif" font-size="13" lengthAdjust="spacing" textLength="99" x="110" y="395.083">permite solicitar:</text><text fill="#000000" font-family="sans-serif" font-size="13" lengthAdjust="spacing" textLength="47" x="55" y="412.789">&#8226; T&#243;nica</text></g><!--link TonicaSeleccionada to *end*seleccionarTonica--><g id="link_TonicaSeleccionada_*end*seleccionarTonica"><path d="M44,494.3979 C44,547.6279 44,666.5879 44,702.9679 " fill="none" id="TonicaSeleccionada-to-*end*seleccionarTonica" style="stroke:#008000;stroke-width:1.0;"/><polygon fill="#008000" points="44,708.9679,48,699.9679,44,703.9679,40,699.9679,44,708.9679" style="stroke:#008000;stroke-width:1.0;"/><path d="M49,517.0679 L49,686.0679 L403,686.0679 L403,527.0679 L393,517.0679 L49,517.0679 " fill="#FEFFDD" style="stroke:#181818;stroke-width:0.5;"/><path d="M393,517.0679 L393,527.0679 L403,527.0679 L393,517.0679 " fill="#FEFFDD" style="stroke:#181818;stroke-width:0.5;"/><text fill="#000000" font-family="sans-serif" font-size="13" font-weight="bold" lengthAdjust="spacing" textLength="46" x="55" y="535.9649">M&#250;sico</text><text fill="#000000" font-family="sans-serif" font-size="13" lengthAdjust="spacing" textLength="143" x="104" y="535.9649">solicita introducir t&#243;nica</text><text fill="#000000" font-family="sans-serif" font-size="13" lengthAdjust="spacing" textLength="3" x="55" y="553.6709">&#160;</text><text fill="#000000" font-family="sans-serif" font-size="13" font-weight="bold" lengthAdjust="spacing" textLength="52" x="55" y="571.377">Sistema</text><text fill="#000000" font-family="sans-serif" font-size="13" lengthAdjust="spacing" textLength="214" x="110" y="571.377">registra t&#243;nica como contexto tonal</text><text fill="#000000" font-family="sans-serif" font-size="13" lengthAdjust="spacing" textLength="333" x="55" y="589.083">&#8226; Establece t&#243;nica como nota base del sistema arm&#243;nico</text><text fill="#000000" font-family="sans-serif" font-size="13" lengthAdjust="spacing" textLength="293" x="55" y="606.789">&#8226; Actualiza presentaci&#243;n del contexto tonal actual</text><text fill="#000000" font-family="sans-serif" font-size="13" lengthAdjust="spacing" textLength="3" x="55" y="624.495">&#160;</text><text fill="#000000" font-family="sans-serif" font-size="13" font-weight="bold" lengthAdjust="spacing" textLength="52" x="55" y="642.201">Sistema</text><text fill="#000000" font-family="sans-serif" font-size="13" lengthAdjust="spacing" textLength="99" x="110" y="642.201">permite solicitar:</text><text fill="#000000" font-family="sans-serif" font-size="13" lengthAdjust="spacing" textLength="113" x="55" y="659.907">&#8226; seleccionar modo</text><text fill="#000000" font-family="sans-serif" font-size="13" lengthAdjust="spacing" textLength="152" x="55" y="677.6131">&#8226; generar mapa arm&#243;nico</text></g><g id="MAPA_DISPONIBLE"><rect fill="#F1F1F1" height="50" rx="12.5" ry="12.5" style="stroke:#181818;stroke-width:0.5;" width="147" x="276" y="7"/><line style="stroke:#181818;stroke-width:0.5;" x1="276" x2="423" y1="36.0679" y2="36.0679"/><text fill="#000000" font-family="sans-serif" font-size="14" lengthAdjust="spacing" textLength="127" x="286" y="26.9659">MAPA_DISPONIBLE</text></g><g id="SISTEMA_INICIAL_2"><rect fill="#F1F1F1" height="50" rx="12.5" ry="12.5" style="stroke:#181818;stroke-width:0.5;" width="136" x="104.5" y="801"/><line style="stroke:#181818;stroke-width:0.5;" x1="104.5" x2="240.5" y1="830.0679" y2="830.0679"/><text fill="#000000" font-family="sans-serif" font-size="14" lengthAdjust="spacing" textLength="116" x="114.5" y="820.9659">SISTEMA_INICIAL</text></g><g id="MAPA_DISPONIBLE_2"><rect fill="#F1F1F1" height="50" rx="12.5" ry="12.5" style="stroke:#181818;stroke-width:0.5;" width="147" x="276" y="801"/><line style="stroke:#181818;stroke-width:0.5;" x1="276" x2="423" y1="830.0679" y2="830.0679"/><text fill="#000000" font-family="sans-serif" font-size="14" lengthAdjust="spacing" textLength="127" x="286" y="820.9659">MAPA_DISPONIBLE</text></g><!--link SISTEMA_INICIAL to seleccionarTonica--><g id="link_SISTEMA_INICIAL_seleccionarTonica"><path d="M177.87,57.11 C181.17,71.94 184.4948,86.8637 189.8948,111.0937 " fill="none" id="SISTEMA_INICIAL-to-seleccionarTonica" style="stroke:#0000FF;stroke-width:1.0;"/><polygon fill="#0000FF" points="191.2,116.95,193.1465,107.2954,190.1124,112.0697,185.338,109.0356,191.2,116.95" style="stroke:#0000FF;stroke-width:1.0;"/></g><!--link MAPA_DISPONIBLE to seleccionarTonica--><g id="link_MAPA_DISPONIBLE_seleccionarTonica"><path d="M344.07,57.11 C340.73,71.94 337.359,86.8668 331.899,111.0968 " fill="none" id="MAPA_DISPONIBLE-to-seleccionarTonica" style="stroke:#008000;stroke-width:1.0;"/><polygon fill="#008000" points="330.58,116.95,336.4606,109.0495,331.6791,112.0723,328.6563,107.2908,330.58,116.95" style="stroke:#008000;stroke-width:1.0;"/></g><!--link seleccionarTonica to SISTEMA_INICIAL_2--><g id="link_seleccionarTonica_SISTEMA_INICIAL_2"><path d="M191.16,741.23 C185.79,765.33 182.4945,780.1435 179.2045,794.9135 " fill="none" id="seleccionarTonica-to-SISTEMA_INICIAL_2" style="stroke:#0000FF;stroke-width:1.0;"/><polygon fill="#0000FF" points="177.9,800.77,183.7611,792.855,178.9871,795.8896,175.9525,791.1156,177.9,800.77" style="stroke:#0000FF;stroke-width:1.0;"/></g><!--link seleccionarTonica to MAPA_DISPONIBLE_2--><g id="link_seleccionarTonica_MAPA_DISPONIBLE_2"><path d="M330.63,741.23 C336.05,765.33 339.3904,780.1469 342.7204,794.9169 " fill="none" id="seleccionarTonica-to-MAPA_DISPONIBLE_2" style="stroke:#008000;stroke-width:1.0;"/><polygon fill="#008000" points="344.04,800.77,345.9626,791.1106,342.9403,795.8924,338.1585,792.8701,344.04,800.77" style="stroke:#008000;stroke-width:1.0;"/></g><!--SRC=[bLJBQkim4DtxAmPtqvQKqYvBARXfMWn96t1s9GHP7eAeB1b9WJuet5-v_ONkxZP_Sh-a8pjnuaSMjOLbZywSEPhHsBu8LJ33Sf12eNih40ejt_n742HnCXjDeaNy60_ZQ0ndpqUfNE7yx0OiIkHSQCNCJ2l1MJ29fj7YBawcJu_nxNZamKk3gFhHWNNCONS1c8Lmtxh-zkRZan0-WW3egXn3kWawDMXHEQOo_LHu3xHTKCMSrAGPgvYUJ-SDbOV8b2OkhNo6Nah3TNepMV-pWklhyvHsfwNWmh7ztO2hX9TuL5b9KeNj2TEGqIFta8f4M8SvArKK6rhGMz8C6oh-__c2CQNZuj9pqGitEb__TRHEM64BYfjAyZiU3c1uD80x6ZID1d1FWzuUQD0KqQ3fzYJerO4c5xwqcwoOgphwx61Ekdjkf8GgzRjA2EMCpbPSx0hHfzNWahuCsuA0wrpJGpbyTHeSAP6r-X4TAieFnoRQvn9IPf7oBS5MxC1CNe9qxHvnjs9IlBEwKbmGfFHgHWHMGd-RtVtJb-ji5tc92eqtig8jR5U5psrBjff-SLcsPCiQRi2jfj-0MzQGg3jzllSlwKJiXzUdeHCq-040]--></g></svg>