<?xml version="1.0" encoding="us-ascii" standalone="no"?><svg xmlns="http://www.w3.org/2000/svg" xmlns:xlink="http://www.w3.org/1999/xlink" contentStyleType="text/css" height="747px" preserveAspectRatio="none" style="width:527px;height:747px;background:#FFFFFF;" version="1.1" viewBox="0 0 527 747" width="527px" zoomAndPan="magnify"><defs/><g><g id="SISTEMA_INICIAL"><rect fill="#F1F1F1" height="50" rx="12.5" ry="12.5" style="stroke:#181818;stroke-width:0.5;" width="136" x="192.5" y="7"/><line style="stroke:#181818;stroke-width:0.5;" x1="192.5" x2="328.5" y1="36.0679" y2="36.0679"/><text fill="#000000" font-family="sans-serif" font-size="14" lengthAdjust="spacing" textLength="116" x="202.5" y="26.9659">SISTEMA_INICIAL</text></g><path d="M19.5,117 L501.5,117 A12.5,12.5 0 0 1 514,129.5 L514,146.0679 L7,146.0679 L7,129.5 A12.5,12.5 0 0 1 19.5,117 " fill="#F1F1F1" style="stroke:#F1F1F1;stroke-width:1.0;"/><rect fill="none" height="624.0679" rx="12.5" ry="12.5" style="stroke:#181818;stroke-width:0.5;" width="507" x="7" y="117"/><line style="stroke:#181818;stroke-width:0.5;" x1="7" x2="514" y1="146.0679" y2="146.0679"/><text fill="#000000" font-family="sans-serif" font-size="14" lengthAdjust="spacing" textLength="128" x="196.5" y="136.9659">seleccionarT&#243;nica()</text><g id="seleccionarTonica.PresentandoOpciones"><rect fill="#F1F1F1" height="50" rx="12.5" ry="12.5" style="stroke:#181818;stroke-width:0.5;" width="50" x="19" y="250.0679"/><line style="stroke:#181818;stroke-width:0.5;" x1="19" x2="69" y1="279.1358" y2="279.1358"/><text fill="#000000" font-family="sans-serif" font-size="14" lengthAdjust="spacing" textLength="4" x="42" y="270.0339">&#160;</text></g><g id="seleccionarTonica.TonicaSeleccionada"><rect fill="#F1F1F1" height="50" rx="12.5" ry="12.5" style="stroke:#181818;stroke-width:0.5;" width="50" x="19" y="444.0679"/><line style="stroke:#181818;stroke-width:0.5;" x1="19" x2="69" y1="473.1358" y2="473.1358"/><text fill="#000000" font-family="sans-serif" font-size="14" lengthAdjust="spacing" textLength="4" x="42" y="464.0339">&#160;</text></g><ellipse cx="44" cy="167.0679" fill="#222222" rx="10" ry="10" style="stroke:#222222;stroke-width:1.0;"/><ellipse cx="44" cy="720.0679" fill="none" rx="11" ry="11" style="stroke:#222222;stroke-width:1.0;"/><ellipse cx="44" cy="720.0679" fill="#222222" rx="6" ry="6" style="stroke:#222222;stroke-width:1.0;"/><!--link *start*seleccionarTonica to PresentandoOpciones--><g id="link_*start*seleccionarTonica_PresentandoOpciones"><path d="M44,177.1079 C44,193.0279 44,220.5779 44,243.7079 " fill="none" id="*start*seleccionarTonica-to-PresentandoOpciones" style="stroke:#008000;stroke-width:1.0;"/><polygon fill="#008000" points="44,249.7079,48,240.7079,44,244.7079,40,240.7079,44,249.7079" style="stroke:#008000;stroke-width:1.0;"/><path d="M49,200.0679 L49,227.0679 L269,227.0679 L269,210.0679 L259,200.0679 L49,200.0679 " fill="#FEFFDD" style="stroke:#181818;stroke-width:0.5;"/><path d="M259,200.0679 L259,210.0679 L269,210.0679 L259,200.0679 " fill="#FEFFDD" style="stroke:#181818;stroke-width:0.5;"/><text fill="#000000" font-family="sans-serif" font-size="13" font-weight="bold" lengthAdjust="spacing" textLength="46" x="55" y="218.9649">M&#250;sico</text><text fill="#000000" font-family="sans-serif" font-size="13" lengthAdjust="spacing" textLength="150" x="104" y="218.9649">solicita seleccionar t&#243;nica</text></g><!--link PresentandoOpciones to TonicaSeleccionada--><g id="link_PresentandoOpciones_TonicaSeleccionada"><path d="M44,300.3879 C44,337.3179 44,401.1379 44,437.9479 " fill="none" id="PresentandoOpciones-to-TonicaSeleccionada" style="stroke:#008000;stroke-width:1.0;"/><polygon fill="#008000" points="44,443.9479,48,434.9479,44,438.9479,40,434.9479,44,443.9479" style="stroke:#008000;stroke-width:1.0;"/><path d="M49,323.0679 L49,421.0679 L505,421.0679 L505,333.0679 L495,323.0679 L49,323.0679 " fill="#FEFFDD" style="stroke:#181818;stroke-width:0.5;"/><path d="M495,323.0679 L495,333.0679 L505,333.0679 L495,323.0679 " fill="#FEFFDD" style="stroke:#181818;stroke-width:0.5;"/><text fill="#000000" font-family="sans-serif" font-size="13" font-weight="bold" lengthAdjust="spacing" textLength="52" x="55" y="341.9649">Sistema</text><text fill="#000000" font-family="sans-serif" font-size="13" lengthAdjust="spacing" textLength="168" x="110" y="341.9649">presenta opciones de t&#243;nica</text><text fill="#000000" font-family="sans-serif" font-size="13" lengthAdjust="spacing" textLength="435" x="55" y="359.6709">&#8226; Las 12 notas crom&#225;ticas disponibles (C, C#, D, D#, E, F, F#, G, G#, A, A#, B)</text><text fill="#000000" font-family="sans-serif" font-size="13" lengthAdjust="spacing" textLength="3" x="55" y="377.377">&#160;</text><text fill="#000000" font-family="sans-serif" font-size="13" font-weight="bold" lengthAdjust="spacing" textLength="52" x="55" y="395.083">Sistema</text><text fill="#000000" font-family="sans-serif" font-size="13" lengthAdjust="spacing" textLength="99" x="110" y="395.083">permite solicitar:</text><text fill="#000000" font-family="sans-serif" font-size="13" lengthAdjust="spacing" textLength="47" x="55" y="412.789">&#8226; T&#243;nica</text></g><!--link TonicaSeleccionada to *end*seleccionarTonica--><g id="link_TonicaSeleccionada_*end*seleccionarTonica"><path d="M44,494.3979 C44,547.6279 44,666.5879 44,702.9679 " fill="none" id="TonicaSeleccionada-to-*end*seleccionarTonica" style="stroke:#008000;stroke-width:1.0;"/><polygon fill="#008000" points="44,708.9679,48,699.9679,44,703.9679,40,699.9679,44,708.9679" style="stroke:#008000;stroke-width:1.0;"/><path d="M49,517.0679 L49,686.0679 L403,686.0679 L403,527.0679 L393,517.0679 L49,517.0679 " fill="#FEFFDD" style="stroke:#181818;stroke-width:0.5;"/><path d="M393,517.0679 L393,527.0679 L403,527.0679 L393,517.0679 " fill="#FEFFDD" style="stroke:#181818;stroke-width:0.5;"/><text fill="#000000" font-family="sans-serif" font-size="13" font-weight="bold" lengthAdjust="spacing" textLength="46" x="55" y="535.9649">M&#250;sico</text><text fill="#000000" font-family="sans-serif" font-size="13" lengthAdjust="spacing" textLength="143" x="104" y="535.9649">solicita introducir t&#243;nica</text><text fill="#000000" font-family="sans-serif" font-size="13" lengthAdjust="spacing" textLength="3" x="55" y="553.6709">&#160;</text><text fill="#000000" font-family="sans-serif" font-size="13" font-weight="bold" lengthAdjust="spacing" textLength="52" x="55" y="571.377">Sistema</text><text fill="#000000" font-family="sans-serif" font-size="13" lengthAdjust="spacing" textLength="214" x="110" y="571.377">registra t&#243;nica como contexto tonal</text><text fill="#000000" font-family="sans-serif" font-size="13" lengthAdjust="spacing" textLength="333" x="55" y="589.083">&#8226; Establece t&#243;nica como nota base del sistema arm&#243;nico</text><text fill="#000000" font-family="sans-serif" font-size="13" lengthAdjust="spacing" textLength="293" x="55" y="606.789">&#8226; Actualiza presentaci&#243;n del contexto tonal actual</text><text fill="#000000" font-family="sans-serif" font-size="13" lengthAdjust="spacing" textLength="3" x="55" y="624.495">&#160;</text><text fill="#000000" font-family="sans-serif" font-size="13" font-weight="bold" lengthAdjust="spacing" textLength="52" x="55" y="642.201">Sistema</text><text fill="#000000" font-family="sans-serif" font-size="13" lengthAdjust="spacing" textLength="99" x="110" y="642.201">permite solicitar:</text><text fill="#000000" font-family="sans-serif" font-size="13" lengthAdjust="spacing" textLength="113" x="55" y="659.907">&#8226; seleccionar modo</text><text fill="#000000" font-family="sans-serif" font-size="13" lengthAdjust="spacing" textLength="152" x="55" y="677.6131">&#8226; generar mapa arm&#243;nico</text></g><g id="MAPA_DISPONIBLE"><rect fill="#F1F1F1" height="50" rx="12.5" ry="12.5" style="stroke:#181818;stroke-width:0.5;" width="147" x="364" y="7"/><line style="stroke:#181818;stroke-width:0.5;" x1="364" x2="511" y1="36.0679" y2="36.0679"/><text fill="#000000" font-family="sans-serif" font-size="14" lengthAdjust="spacing" textLength="127" x="374" y="26.9659">MAPA_DISPONIBLE</text></g><!--link SISTEMA_INICIAL to seleccionarTonica--><g id="link_SISTEMA_INICIAL_seleccionarTonica"><path d="M253.98,57.11 C252.24,71.94 251.1099,86.7252 250.0999,110.9552 " fill="none" id="SISTEMA_INICIAL-to-seleccionarTonica" style="stroke:#008000;stroke-width:1.0;"/><polygon fill="#008000" points="249.85,116.95,254.2214,108.1244,250.0582,111.9543,246.2283,107.7912,249.85,116.95" style="stroke:#008000;stroke-width:1.0;"/></g><!--link seleccionarTonica to SISTEMA_INICIAL--><g id="link_seleccionarTonica_SISTEMA_INICIAL"><path d="M271.78,116.95 C270.71,92.72 269.9927,77.8939 268.1427,63.0639 " fill="none" id="seleccionarTonica-to-SISTEMA_INICIAL" style="stroke:#008000;stroke-width:1.0;"/><polygon fill="#008000" points="267.4,57.11,264.5449,66.5359,268.0189,62.0715,272.4833,65.5456,267.4,57.11" style="stroke:#008000;stroke-width:1.0;"/></g><!--link MAPA_DISPONIBLE to seleccionarTonica--><g id="link_MAPA_DISPONIBLE_seleccionarTonica"><path d="M426.69,57.11 C420.05,71.94 413.194,87.2448 402.334,111.4748 " fill="none" id="MAPA_DISPONIBLE-to-seleccionarTonica" style="stroke:#008000;stroke-width:1.0;"/><polygon fill="#008000" points="399.88,116.95,407.2112,110.3732,401.925,112.3873,399.9109,107.1012,399.88,116.95" style="stroke:#008000;stroke-width:1.0;"/></g><!--SRC=[bLJDQi904BxdAGPxqM8fxR4K8LfR0cg5U1EHSJF8Oh8RTbUeBOM-IliAlVNgc_H9EaaqcggK9als9zzyy-qtczY5L2aQJ22MYjmg9KXrlCecdXS6uQZRzwV18EW4VWykncTpGwGc5osm59CGKYiq8wsaGA_l3_tfNH0E7mT1kzVz0-rPXuuENm1QgEslhZ-pvNgZ1Y-U1tmLWJM-6JeqP4avL95-JBC8ieUWWZaiIICicCRdauhAKsHACvTMcKMBVE5srkgllwmK-lPonhlJiHJIuVvkm1N2SpofA2SfqXv9Kv5nHEuf5Q6qZXBCLQGRMj1RqeWgAhxVFg37TbnTPrmy44OdwtV7xnahRSfvPp77rJjDw9mruOuRTzqct7FZqGCtxdnktBKRtb4TP1APbNRZYhafiuzEUdAuvuebNAd_LK8gPtIq579NY6DQ3SrvPd0B0g4JpG_bwCbfSAmaBjLt-L2nFuAgwCnBcA4bzZi6Mx03cYG7wJBS5sw9iNp6ib92CYIFgcO4pA7_TNV_z2KwscMUaoAJBMBwMzYk2g_yIHvyZFir-FKty7u0]--></g></svg>