<?xml version="1.0" encoding="us-ascii" standalone="no"?><svg xmlns="http://www.w3.org/2000/svg" xmlns:xlink="http://www.w3.org/1999/xlink" contentStyleType="text/css" height="872px" preserveAspectRatio="none" style="width:487px;height:872px;background:#FFFFFF;" version="1.1" viewBox="0 0 487 872" width="487px" zoomAndPan="magnify"><defs/><g><path d="M19.5,7 L384.5,7 A12.5,12.5 0 0 1 397,19.5 L397,36.0679 L7,36.0679 L7,19.5 A12.5,12.5 0 0 1 19.5,7 " fill="#F1F1F1" style="stroke:#F1F1F1;stroke-width:1.0;"/><rect fill="none" height="712.0679" rx="12.5" ry="12.5" style="stroke:#181818;stroke-width:0.5;" width="390" x="7" y="7"/><line style="stroke:#181818;stroke-width:0.5;" x1="7" x2="397" y1="36.0679" y2="36.0679"/><text fill="#000000" font-family="sans-serif" font-size="14" lengthAdjust="spacing" textLength="123" x="140.5" y="26.9659">iniciarProgresi&#243;n()</text><g id="iniciarProgresion.SeleccionandoAcorde"><rect fill="#F1F1F1" height="50" rx="12.5" ry="12.5" style="stroke:#181818;stroke-width:0.5;" width="50" x="19" y="140.0679"/><line style="stroke:#181818;stroke-width:0.5;" x1="19" x2="69" y1="169.1358" y2="169.1358"/><text fill="#000000" font-family="sans-serif" font-size="14" lengthAdjust="spacing" textLength="4" x="42" y="160.0339">&#160;</text></g><g id="iniciarProgresion.ProgresionIniciada"><rect fill="#F1F1F1" height="50" rx="12.5" ry="12.5" style="stroke:#181818;stroke-width:0.5;" width="50" x="19" y="387.0679"/><line style="stroke:#181818;stroke-width:0.5;" x1="19" x2="69" y1="416.1358" y2="416.1358"/><text fill="#000000" font-family="sans-serif" font-size="14" lengthAdjust="spacing" textLength="4" x="42" y="407.0339">&#160;</text></g><ellipse cx="44" cy="57.0679" fill="#222222" rx="10" ry="10" style="stroke:#222222;stroke-width:1.0;"/><ellipse cx="44" cy="698.0679" fill="none" rx="11" ry="11" style="stroke:#222222;stroke-width:1.0;"/><ellipse cx="44" cy="698.0679" fill="#222222" rx="6" ry="6" style="stroke:#222222;stroke-width:1.0;"/><!--link *start*iniciarProgresion to SeleccionandoAcorde--><g id="link_*start*iniciarProgresion_SeleccionandoAcorde"><path d="M44,67.1079 C44,83.0279 44,110.5779 44,133.7079 " fill="none" id="*start*iniciarProgresion-to-SeleccionandoAcorde" style="stroke:#008000;stroke-width:1.0;"/><polygon fill="#008000" points="44,139.7079,48,130.7079,44,134.7079,40,130.7079,44,139.7079" style="stroke:#008000;stroke-width:1.0;"/><path d="M49,90.0679 L49,117.0679 L267,117.0679 L267,100.0679 L257,90.0679 L49,90.0679 " fill="#FEFFDD" style="stroke:#181818;stroke-width:0.5;"/><path d="M257,90.0679 L257,100.0679 L267,100.0679 L257,90.0679 " fill="#FEFFDD" style="stroke:#181818;stroke-width:0.5;"/><text fill="#000000" font-family="sans-serif" font-size="13" font-weight="bold" lengthAdjust="spacing" textLength="46" x="55" y="108.9649">M&#250;sico</text><text fill="#000000" font-family="sans-serif" font-size="13" lengthAdjust="spacing" textLength="148" x="104" y="108.9649">solicita iniciar progresi&#243;n</text></g><!--link SeleccionandoAcorde to ProgresionIniciada--><g id="link_SeleccionandoAcorde_ProgresionIniciada"><path d="M44,190.4579 C44,237.4179 44,333.8979 44,380.7779 " fill="none" id="SeleccionandoAcorde-to-ProgresionIniciada" style="stroke:#008000;stroke-width:1.0;"/><polygon fill="#008000" points="44,386.7779,48,377.7779,44,381.7779,40,377.7779,44,386.7779" style="stroke:#008000;stroke-width:1.0;"/><path d="M49,213.0679 L49,364.0679 L354,364.0679 L354,223.0679 L344,213.0679 L49,213.0679 " fill="#FEFFDD" style="stroke:#181818;stroke-width:0.5;"/><path d="M344,213.0679 L344,223.0679 L354,223.0679 L344,213.0679 " fill="#FEFFDD" style="stroke:#181818;stroke-width:0.5;"/><text fill="#000000" font-family="sans-serif" font-size="13" font-weight="bold" lengthAdjust="spacing" textLength="52" x="55" y="231.9649">Sistema</text><text fill="#000000" font-family="sans-serif" font-size="13" lengthAdjust="spacing" textLength="150" x="110" y="231.9649">presenta mapa arm&#243;nico</text><text fill="#000000" font-family="sans-serif" font-size="13" lengthAdjust="spacing" textLength="215" x="55" y="249.6709">&#8226; Todos los acordes diat&#243;nicos (I-VII)</text><text fill="#000000" font-family="sans-serif" font-size="13" lengthAdjust="spacing" textLength="227" x="55" y="267.377">&#8226; Dominantes secundarios disponibles</text><text fill="#000000" font-family="sans-serif" font-size="13" lengthAdjust="spacing" textLength="190" x="55" y="285.083">&#8226; Acordes de intercambio modal</text><text fill="#000000" font-family="sans-serif" font-size="13" lengthAdjust="spacing" textLength="284" x="55" y="302.789">&#8226; Enlaces arm&#243;nicos posibles desde cada acorde</text><text fill="#000000" font-family="sans-serif" font-size="13" lengthAdjust="spacing" textLength="3" x="55" y="320.495">&#160;</text><text fill="#000000" font-family="sans-serif" font-size="13" font-weight="bold" lengthAdjust="spacing" textLength="52" x="55" y="338.201">Sistema</text><text fill="#000000" font-family="sans-serif" font-size="13" lengthAdjust="spacing" textLength="99" x="110" y="338.201">permite solicitar:</text><text fill="#000000" font-family="sans-serif" font-size="13" lengthAdjust="spacing" textLength="86" x="55" y="355.907">&#8226; Acorde inicial</text></g><!--link ProgresionIniciada to *end*iniciarProgresion--><g id="link_ProgresionIniciada_*end*iniciarProgresion"><path d="M44,437.2779 C44,496.4379 44,640.4179 44,680.8779 " fill="none" id="ProgresionIniciada-to-*end*iniciarProgresion" style="stroke:#008000;stroke-width:1.0;"/><polygon fill="#008000" points="44,686.8779,48,677.8779,44,681.8779,40,677.8779,44,686.8779" style="stroke:#008000;stroke-width:1.0;"/><path d="M49,460.0679 L49,664.0679 L388,664.0679 L388,470.0679 L378,460.0679 L49,460.0679 " fill="#FEFFDD" style="stroke:#181818;stroke-width:0.5;"/><path d="M378,460.0679 L378,470.0679 L388,470.0679 L378,460.0679 " fill="#FEFFDD" style="stroke:#181818;stroke-width:0.5;"/><text fill="#000000" font-family="sans-serif" font-size="13" font-weight="bold" lengthAdjust="spacing" textLength="46" x="55" y="478.9649">M&#250;sico</text><text fill="#000000" font-family="sans-serif" font-size="13" lengthAdjust="spacing" textLength="138" x="104" y="478.9649">introduce acorde inicial</text><text fill="#000000" font-family="sans-serif" font-size="13" lengthAdjust="spacing" textLength="3" x="55" y="496.6709">&#160;</text><text fill="#000000" font-family="sans-serif" font-size="13" font-weight="bold" lengthAdjust="spacing" textLength="52" x="55" y="514.377">Sistema</text><text fill="#000000" font-family="sans-serif" font-size="13" lengthAdjust="spacing" textLength="248" x="110" y="514.377">registra acorde como inicio de progresi&#243;n</text><text fill="#000000" font-family="sans-serif" font-size="13" lengthAdjust="spacing" textLength="318" x="55" y="532.083">&#8226; Establece acorde como acorde actual de navegaci&#243;n</text><text fill="#000000" font-family="sans-serif" font-size="13" lengthAdjust="spacing" textLength="304" x="55" y="549.789">&#8226; Presenta historial de progresi&#243;n con acorde inicial</text><text fill="#000000" font-family="sans-serif" font-size="13" lengthAdjust="spacing" textLength="268" x="55" y="567.495">&#8226; Activa modo de construcci&#243;n de progresi&#243;n</text><text fill="#000000" font-family="sans-serif" font-size="13" lengthAdjust="spacing" textLength="3" x="55" y="585.201">&#160;</text><text fill="#000000" font-family="sans-serif" font-size="13" font-weight="bold" lengthAdjust="spacing" textLength="52" x="55" y="602.907">Sistema</text><text fill="#000000" font-family="sans-serif" font-size="13" lengthAdjust="spacing" textLength="99" x="110" y="602.907">permite solicitar:</text><text fill="#000000" font-family="sans-serif" font-size="13" lengthAdjust="spacing" textLength="267" x="55" y="620.6131">&#8226; extender progresi&#243;n hacia siguiente acorde</text><text fill="#000000" font-family="sans-serif" font-size="13" lengthAdjust="spacing" textLength="160" x="55" y="638.3191">&#8226; modificar modo de escala</text><text fill="#000000" font-family="sans-serif" font-size="13" lengthAdjust="spacing" textLength="124" x="55" y="656.0251">&#8226; reiniciar progresi&#243;n</text></g><g id="PROGRESION_EN_CONSTRUCCION"><rect fill="#F1F1F1" height="50" rx="12.5" ry="12.5" style="stroke:#181818;stroke-width:0.5;" width="252" x="76" y="816"/><line style="stroke:#181818;stroke-width:0.5;" x1="76" x2="328" y1="845.0679" y2="845.0679"/><text fill="#000000" font-family="sans-serif" font-size="14" lengthAdjust="spacing" textLength="232" x="86" y="835.9659">PROGRESION_EN_CONSTRUCCION</text></g><!--link iniciarProgresion to PROGRESION_EN_CONSTRUCCION--><g id="link_iniciarProgresion_PROGRESION_EN_CONSTRUCCION"><path d="M202,719.27 C202,759.8 202,788.29 202,809.89 " fill="none" id="iniciarProgresion-to-PROGRESION_EN_CONSTRUCCION" style="stroke:#008000;stroke-width:1.0;"/><polygon fill="#008000" points="202,815.89,206,806.89,202,810.89,198,806.89,202,815.89" style="stroke:#008000;stroke-width:1.0;"/><path d="M207,754 L207,781 L480,781 L480,764 L470,754 L207,754 " fill="#FEFFDD" style="stroke:#181818;stroke-width:0.5;"/><path d="M470,754 L470,764 L480,764 L470,754 " fill="#FEFFDD" style="stroke:#181818;stroke-width:0.5;"/><text fill="#000000" font-family="sans-serif" font-size="13" lengthAdjust="spacing" textLength="252" x="213" y="772.897">transici&#243;n al estado de construcci&#243;n activa</text></g><!--SRC=[bPJ1Qjj048RlUeh5lIG5qti9Xk2QeaFjOAUzX136gwcpPBKZTjUXeHJwB7s5tdhDc_H9-cjboP6jqCJ6u9N_cVdcdrc7E-CgybGgQnp7XufL9VQXFcHPY1HP6MUq8N_XPUCv676AWXeTF7tyxKvEH-fxbYcyci0Htf2ksBBMY2DNoBaMN_2nQ9yzJuaBQZ9TlRrMuwit-8tTzNZoR38do0KqWD-b1sVhoQV7Fy5eENktdgWW5caZjTseQW-UzEoAbAGfEr2cXp60-np5oeJ89IMA2Z7iG55IHOfyYUeWJDA_Ft-fIoaaA8iFfPf15OPY8mhg91z_oVFJJlr1IWF025bWlNK5UIDrIAZ4cRNbq4dFstJrE2DxJUNQY2gb8Dk9PiwIXgZZ2jY5a18XC21Mez4TMZRO7_lIm8BMRV_-W61dlnsm_DZIdkDOX1SD6krvARQQTvnTnI5UpnkSVDkJqb9A4o2rLOSxaap2siAHVVuKi_jEEcx9rg6Exdb3kXTwqKx_5aN5cqRvf0XokKFilN_Ht5CziOG69S2tEbKuP7tbQFXRn2YuToVKBU191RFP6Z2ttNOnu31VZSP5QeauQBBK2Jp__wRzoBBZFvVUDLikFYvdgtmnlvdDRwQB-Ufo-NawnJdhxG56wB012HokCcOqP1Cb3xCEu1y0]--></g></svg>