<?xml version="1.0" encoding="us-ascii" standalone="no"?><svg xmlns="http://www.w3.org/2000/svg" xmlns:xlink="http://www.w3.org/1999/xlink" contentStyleType="text/css" height="945px" preserveAspectRatio="none" style="width:679px;height:945px;background:#FFFFFF;" version="1.1" viewBox="0 0 679 945" width="679px" zoomAndPan="magnify"><defs/><g><g id="MAPA_DISPONIBLE"><rect fill="#F1F1F1" height="50" rx="12.5" ry="12.5" style="stroke:#181818;stroke-width:0.5;" width="147" x="7" y="7"/><line style="stroke:#181818;stroke-width:0.5;" x1="7" x2="154" y1="36.0679" y2="36.0679"/><text fill="#000000" font-family="sans-serif" font-size="14" lengthAdjust="spacing" textLength="127" x="17" y="26.9659">MAPA_DISPONIBLE</text></g><path d="M133,117 L498,117 A12.5,12.5 0 0 1 510.5,129.5 L510.5,146.0679 L120.5,146.0679 L120.5,129.5 A12.5,12.5 0 0 1 133,117 " fill="#F1F1F1" style="stroke:#F1F1F1;stroke-width:1.0;"/><rect fill="none" height="712.0679" rx="12.5" ry="12.5" style="stroke:#181818;stroke-width:0.5;" width="390" x="120.5" y="117"/><line style="stroke:#181818;stroke-width:0.5;" x1="120.5" x2="510.5" y1="146.0679" y2="146.0679"/><text fill="#000000" font-family="sans-serif" font-size="14" lengthAdjust="spacing" textLength="123" x="254" y="136.9659">iniciarProgresi&#243;n()</text><g id="iniciarProgresion.SeleccionandoAcorde"><rect fill="#F1F1F1" height="50" rx="12.5" ry="12.5" style="stroke:#181818;stroke-width:0.5;" width="50" x="132.5" y="250.0679"/><line style="stroke:#181818;stroke-width:0.5;" x1="132.5" x2="182.5" y1="279.1358" y2="279.1358"/><text fill="#000000" font-family="sans-serif" font-size="14" lengthAdjust="spacing" textLength="4" x="155.5" y="270.0339">&#160;</text></g><g id="iniciarProgresion.ProgresionIniciada"><rect fill="#F1F1F1" height="50" rx="12.5" ry="12.5" style="stroke:#181818;stroke-width:0.5;" width="50" x="132.5" y="497.0679"/><line style="stroke:#181818;stroke-width:0.5;" x1="132.5" x2="182.5" y1="526.1358" y2="526.1358"/><text fill="#000000" font-family="sans-serif" font-size="14" lengthAdjust="spacing" textLength="4" x="155.5" y="517.0339">&#160;</text></g><ellipse cx="157.5" cy="167.0679" fill="#222222" rx="10" ry="10" style="stroke:#222222;stroke-width:1.0;"/><ellipse cx="157.5" cy="808.0679" fill="none" rx="11" ry="11" style="stroke:#222222;stroke-width:1.0;"/><ellipse cx="157.5" cy="808.0679" fill="#222222" rx="6" ry="6" style="stroke:#222222;stroke-width:1.0;"/><!--link *start*iniciarProgresion to SeleccionandoAcorde--><g id="link_*start*iniciarProgresion_SeleccionandoAcorde"><path d="M157.5,177.1079 C157.5,193.0279 157.5,220.5779 157.5,243.7079 " fill="none" id="*start*iniciarProgresion-to-SeleccionandoAcorde" style="stroke:#008000;stroke-width:1.0;"/><polygon fill="#008000" points="157.5,249.7079,161.5,240.7079,157.5,244.7079,153.5,240.7079,157.5,249.7079" style="stroke:#008000;stroke-width:1.0;"/><path d="M162.5,200.0679 L162.5,227.0679 L380.5,227.0679 L380.5,210.0679 L370.5,200.0679 L162.5,200.0679 " fill="#FEFFDD" style="stroke:#181818;stroke-width:0.5;"/><path d="M370.5,200.0679 L370.5,210.0679 L380.5,210.0679 L370.5,200.0679 " fill="#FEFFDD" style="stroke:#181818;stroke-width:0.5;"/><text fill="#000000" font-family="sans-serif" font-size="13" font-weight="bold" lengthAdjust="spacing" textLength="46" x="168.5" y="218.9649">M&#250;sico</text><text fill="#000000" font-family="sans-serif" font-size="13" lengthAdjust="spacing" textLength="148" x="217.5" y="218.9649">solicita iniciar progresi&#243;n</text></g><!--link SeleccionandoAcorde to ProgresionIniciada--><g id="link_SeleccionandoAcorde_ProgresionIniciada"><path d="M157.5,300.4579 C157.5,347.4179 157.5,443.8979 157.5,490.7779 " fill="none" id="SeleccionandoAcorde-to-ProgresionIniciada" style="stroke:#008000;stroke-width:1.0;"/><polygon fill="#008000" points="157.5,496.7779,161.5,487.7779,157.5,491.7779,153.5,487.7779,157.5,496.7779" style="stroke:#008000;stroke-width:1.0;"/><path d="M162.5,323.0679 L162.5,474.0679 L467.5,474.0679 L467.5,333.0679 L457.5,323.0679 L162.5,323.0679 " fill="#FEFFDD" style="stroke:#181818;stroke-width:0.5;"/><path d="M457.5,323.0679 L457.5,333.0679 L467.5,333.0679 L457.5,323.0679 " fill="#FEFFDD" style="stroke:#181818;stroke-width:0.5;"/><text fill="#000000" font-family="sans-serif" font-size="13" font-weight="bold" lengthAdjust="spacing" textLength="52" x="168.5" y="341.9649">Sistema</text><text fill="#000000" font-family="sans-serif" font-size="13" lengthAdjust="spacing" textLength="150" x="223.5" y="341.9649">presenta mapa arm&#243;nico</text><text fill="#000000" font-family="sans-serif" font-size="13" lengthAdjust="spacing" textLength="215" x="168.5" y="359.6709">&#8226; Todos los acordes diat&#243;nicos (I-VII)</text><text fill="#000000" font-family="sans-serif" font-size="13" lengthAdjust="spacing" textLength="227" x="168.5" y="377.377">&#8226; Dominantes secundarios disponibles</text><text fill="#000000" font-family="sans-serif" font-size="13" lengthAdjust="spacing" textLength="190" x="168.5" y="395.083">&#8226; Acordes de intercambio modal</text><text fill="#000000" font-family="sans-serif" font-size="13" lengthAdjust="spacing" textLength="284" x="168.5" y="412.789">&#8226; Enlaces arm&#243;nicos posibles desde cada acorde</text><text fill="#000000" font-family="sans-serif" font-size="13" lengthAdjust="spacing" textLength="3" x="168.5" y="430.495">&#160;</text><text fill="#000000" font-family="sans-serif" font-size="13" font-weight="bold" lengthAdjust="spacing" textLength="52" x="168.5" y="448.201">Sistema</text><text fill="#000000" font-family="sans-serif" font-size="13" lengthAdjust="spacing" textLength="99" x="223.5" y="448.201">permite solicitar:</text><text fill="#000000" font-family="sans-serif" font-size="13" lengthAdjust="spacing" textLength="86" x="168.5" y="465.907">&#8226; Acorde inicial</text></g><!--link ProgresionIniciada to *end*iniciarProgresion--><g id="link_ProgresionIniciada_*end*iniciarProgresion"><path d="M157.5,547.2779 C157.5,606.4379 157.5,750.4179 157.5,790.8779 " fill="none" id="ProgresionIniciada-to-*end*iniciarProgresion" style="stroke:#008000;stroke-width:1.0;"/><polygon fill="#008000" points="157.5,796.8779,161.5,787.8779,157.5,791.8779,153.5,787.8779,157.5,796.8779" style="stroke:#008000;stroke-width:1.0;"/><path d="M162.5,570.0679 L162.5,774.0679 L501.5,774.0679 L501.5,580.0679 L491.5,570.0679 L162.5,570.0679 " fill="#FEFFDD" style="stroke:#181818;stroke-width:0.5;"/><path d="M491.5,570.0679 L491.5,580.0679 L501.5,580.0679 L491.5,570.0679 " fill="#FEFFDD" style="stroke:#181818;stroke-width:0.5;"/><text fill="#000000" font-family="sans-serif" font-size="13" font-weight="bold" lengthAdjust="spacing" textLength="46" x="168.5" y="588.9649">M&#250;sico</text><text fill="#000000" font-family="sans-serif" font-size="13" lengthAdjust="spacing" textLength="138" x="217.5" y="588.9649">introduce acorde inicial</text><text fill="#000000" font-family="sans-serif" font-size="13" lengthAdjust="spacing" textLength="3" x="168.5" y="606.6709">&#160;</text><text fill="#000000" font-family="sans-serif" font-size="13" font-weight="bold" lengthAdjust="spacing" textLength="52" x="168.5" y="624.377">Sistema</text><text fill="#000000" font-family="sans-serif" font-size="13" lengthAdjust="spacing" textLength="248" x="223.5" y="624.377">registra acorde como inicio de progresi&#243;n</text><text fill="#000000" font-family="sans-serif" font-size="13" lengthAdjust="spacing" textLength="318" x="168.5" y="642.083">&#8226; Establece acorde como acorde actual de navegaci&#243;n</text><text fill="#000000" font-family="sans-serif" font-size="13" lengthAdjust="spacing" textLength="304" x="168.5" y="659.789">&#8226; Presenta historial de progresi&#243;n con acorde inicial</text><text fill="#000000" font-family="sans-serif" font-size="13" lengthAdjust="spacing" textLength="268" x="168.5" y="677.495">&#8226; Activa modo de construcci&#243;n de progresi&#243;n</text><text fill="#000000" font-family="sans-serif" font-size="13" lengthAdjust="spacing" textLength="3" x="168.5" y="695.201">&#160;</text><text fill="#000000" font-family="sans-serif" font-size="13" font-weight="bold" lengthAdjust="spacing" textLength="52" x="168.5" y="712.907">Sistema</text><text fill="#000000" font-family="sans-serif" font-size="13" lengthAdjust="spacing" textLength="99" x="223.5" y="712.907">permite solicitar:</text><text fill="#000000" font-family="sans-serif" font-size="13" lengthAdjust="spacing" textLength="267" x="168.5" y="730.6131">&#8226; extender progresi&#243;n hacia siguiente acorde</text><text fill="#000000" font-family="sans-serif" font-size="13" lengthAdjust="spacing" textLength="160" x="168.5" y="748.3191">&#8226; modificar modo de escala</text><text fill="#000000" font-family="sans-serif" font-size="13" lengthAdjust="spacing" textLength="124" x="168.5" y="766.0251">&#8226; reiniciar progresi&#243;n</text></g><g id="PROGRESION_EN_CONSTRUCCION_2"><rect fill="#F1F1F1" height="50" rx="12.5" ry="12.5" style="stroke:#181818;stroke-width:0.5;" width="252" x="189.5" y="7"/><line style="stroke:#181818;stroke-width:0.5;" x1="189.5" x2="441.5" y1="36.0679" y2="36.0679"/><text fill="#000000" font-family="sans-serif" font-size="14" lengthAdjust="spacing" textLength="232" x="199.5" y="26.9659">PROGRESION_EN_CONSTRUCCION</text></g><g id="PROGRESION_FINALIZADA"><rect fill="#F1F1F1" height="50" rx="12.5" ry="12.5" style="stroke:#181818;stroke-width:0.5;" width="196" x="476.5" y="7"/><line style="stroke:#181818;stroke-width:0.5;" x1="476.5" x2="672.5" y1="36.0679" y2="36.0679"/><text fill="#000000" font-family="sans-serif" font-size="14" lengthAdjust="spacing" textLength="176" x="486.5" y="26.9659">PROGRESION_FINALIZADA</text></g><g id="PROGRESION_EN_CONSTRUCCION"><rect fill="#F1F1F1" height="50" rx="12.5" ry="12.5" style="stroke:#181818;stroke-width:0.5;" width="252" x="189.5" y="889"/><line style="stroke:#181818;stroke-width:0.5;" x1="189.5" x2="441.5" y1="918.0679" y2="918.0679"/><text fill="#000000" font-family="sans-serif" font-size="14" lengthAdjust="spacing" textLength="232" x="199.5" y="908.9659">PROGRESION_EN_CONSTRUCCION</text></g><!--link MAPA_DISPONIBLE to iniciarProgresion--><g id="link_MAPA_DISPONIBLE_iniciarProgresion"><path d="M93.47,57.23 C101.36,71.97 109.5889,87.3299 122.5989,111.6399 " fill="none" id="MAPA_DISPONIBLE-to-iniciarProgresion" style="stroke:#008000;stroke-width:1.0;"/><polygon fill="#008000" points="125.43,116.93,124.7101,107.1075,123.0708,112.5216,117.6566,110.8823,125.43,116.93" style="stroke:#008000;stroke-width:1.0;"/></g><!--link PROGRESION_EN_CONSTRUCCION_2 to iniciarProgresion--><g id="link_PROGRESION_EN_CONSTRUCCION_2_iniciarProgresion"><path d="M315.5,57.23 C315.5,71.97 315.5,86.62 315.5,110.93 " fill="none" id="PROGRESION_EN_CONSTRUCCION_2-to-iniciarProgresion" style="stroke:#008000;stroke-width:1.0;"/><polygon fill="#008000" points="315.5,116.93,319.5,107.93,315.5,111.93,311.5,107.93,315.5,116.93" style="stroke:#008000;stroke-width:1.0;"/></g><!--link PROGRESION_FINALIZADA to iniciarProgresion--><g id="link_PROGRESION_FINALIZADA_iniciarProgresion"><path d="M560.21,57.23 C548.75,76.64 534.2886,101.1522 513.7886,135.9022 " fill="none" id="PROGRESION_FINALIZADA-to-iniciarProgresion" style="stroke:#008000;stroke-width:1.0;"/><polygon fill="#008000" points="510.74,141.07,518.7581,135.3507,513.2805,136.7635,511.8677,131.2859,510.74,141.07" style="stroke:#008000;stroke-width:1.0;"/></g><!--link iniciarProgresion to PROGRESION_EN_CONSTRUCCION--><g id="link_iniciarProgresion_PROGRESION_EN_CONSTRUCCION"><path d="M315.5,829.14 C315.5,853.5 315.5,868.2 315.5,882.93 " fill="none" id="iniciarProgresion-to-PROGRESION_EN_CONSTRUCCION" style="stroke:#008000;stroke-width:1.0;"/><polygon fill="#008000" points="315.5,888.93,319.5,879.93,315.5,883.93,311.5,879.93,315.5,888.93" style="stroke:#008000;stroke-width:1.0;"/></g><!--SRC=[bPJFQXin4CRlUWhXNfA2AVHOWc5hksKXMIzssaD3C6Fjr17HIeka3Gsbq6VfA_JMQzuaJz9PxHzdrtRIsXXMylVD_6P6MdShTG4MSgwaHdzV82-CkgyMZB6BA8tMitYLBfBu_VcSZwzURIsYlXvFkDHIIB2fDRJbfD7CUV38q-NYutA-YXV9UfwifujaTRdyD9rMwxSS71yT5upOi-Rdip-nVeYJw3p-4isY5pmDyjuVWNEm-_1RdvoE-7V6E7rguuY-95sXGY781pepaJ0smttHBdeS0cTGHxfwVTsZF1PC6uf5Q3IQsx1njfbSFFnnKfYpDvi9TqPHM0zjDRpOWGSzwYm4gTCUIDF3E81xZ68bdSSS0aL17jH4aKC176nEsOamI1z__kAN9ZEEA_f1oEbu9i7N8iTFul7dE3xjr3EJImBq97CeIfs1bQQokC9ekL7eEcdKXgl6wT4Ao3VIyDnae3hHN2iG9Egu79rs5mAHqP5NKA4D6ZjO7zfSKWlQRjjt0uAc_Uf0o_TRskiu7OH_6ZILPqrM2cmukuo7U2rkQMNRchWmkQaDfchLy8o49j6nfOxiuWTFymp2bw0gguOxt8BeMTDs-ZUKr5XPAvyaeLXwYBthdvTtK4qie96Im4iHCWnP_tCq-CtJAB1t9_WDmGDtSbjAOcwhxJp48RzAGHUf9K8dG44diFZoJVl1sFxBfNVDZhxms5y0]--></g></svg>