<?xml version="1.0" encoding="us-ascii" standalone="no"?><svg xmlns="http://www.w3.org/2000/svg" xmlns:xlink="http://www.w3.org/1999/xlink" contentStyleType="text/css" height="210px" preserveAspectRatio="none" style="width:389px;height:210px;background:#FFFFFF;" version="1.1" viewBox="0 0 389 210" width="389px" zoomAndPan="magnify"><defs/><g><text fill="#000000" font-family="sans-serif" font-size="14" font-weight="bold" lengthAdjust="spacing" textLength="208" x="7" y="21.9659">Generador de Mapa Arm&#243;nico</text><text fill="#000000" font-family="sans-serif" font-size="12" lengthAdjust="spacing" textLength="40" x="8" y="41.896">T&#243;nica:</text><rect fill="#EEEEEE" height="19.3441" style="stroke:#000000;stroke-width:1.0;" width="23" x="50" y="29.0679"/><text fill="#000000" font-family="sans-serif" font-size="12" lengthAdjust="spacing" textLength="8" x="52" y="43.896">C</text><line style="stroke:#000000;stroke-width:1.0;" x1="62" x2="62" y1="29.0679" y2="48.412"/><polygon fill="#000000" points="65,35.0679,71,35.0679,68,43.412" style="stroke:#000000;stroke-width:1.0;"/><text fill="#000000" font-family="sans-serif" font-size="12" lengthAdjust="spacing" textLength="35" x="8" y="64.2401">Modo:</text><rect fill="#EEEEEE" height="19.3441" style="stroke:#000000;stroke-width:1.0;" width="55" x="50" y="51.412"/><text fill="#000000" font-family="sans-serif" font-size="12" lengthAdjust="spacing" textLength="36" x="52" y="66.2401">Mayor</text><line style="stroke:#000000;stroke-width:1.0;" x1="94" x2="94" y1="51.412" y2="70.7561"/><polygon fill="#000000" points="97,57.412,103,57.412,100,65.7561" style="stroke:#000000;stroke-width:1.0;"/><rect fill="#EEEEEE" height="20.3441" rx="5" ry="5" style="stroke:#000000;stroke-width:2.5;" width="228" x="10.5" y="78.2561"/><text fill="#000000" font-family="sans-serif" font-size="12" lengthAdjust="spacing" textLength="158" x="45.5" y="93.0842">Nueva Progresi&#243;n / Reiniciar</text><rect fill="#EEEEEE" height="20.3441" rx="5" ry="5" style="stroke:#000000;stroke-width:2.5;" width="132" x="245.5" y="78.2561"/><text fill="#000000" font-family="sans-serif" font-size="12" lengthAdjust="spacing" textLength="68" x="277.5" y="93.0842">Volver Atr&#225;s</text><text fill="#000000" font-family="sans-serif" font-size="12" font-weight="bold" lengthAdjust="spacing" textLength="178" x="8" y="117.9283">Progresi&#243;n actual: C &#8594; F &#8594; G7</text><line style="stroke:#000000;stroke-width:1.0;" x1="7" x2="187" y1="104.1003" y2="104.1003"/><line style="stroke:#000000;stroke-width:1.0;" x1="7" x2="187" y1="122.4444" y2="122.4444"/><line style="stroke:#000000;stroke-width:1.0;" x1="7" x2="7" y1="104.1003" y2="122.4444"/><line style="stroke:#000000;stroke-width:1.0;" x1="187" x2="187" y1="104.1003" y2="122.4444"/><text fill="#000000" font-family="sans-serif" font-size="14" font-weight="bold" lengthAdjust="spacing" textLength="192" x="8" y="140.4103">Mapa Arm&#243;nico de C Mayor</text><text fill="#000000" font-family="sans-serif" font-size="12" lengthAdjust="spacing" textLength="87" x="14" y="160.3404">De d&#243;nde viene</text><text fill="#000000" font-family="sans-serif" font-size="12" font-weight="bold" lengthAdjust="spacing" textLength="41" x="103" y="160.3404">Acorde</text><text fill="#000000" font-family="sans-serif" font-size="12" lengthAdjust="spacing" textLength="43" x="146" y="160.3404">Funci&#243;n</text><text fill="#000000" font-family="sans-serif" font-size="12" lengthAdjust="spacing" textLength="62" x="228" y="160.3404">A d&#243;nde va</text><text fill="#000000" font-family="sans-serif" font-size="12" lengthAdjust="spacing" textLength="46" x="14" y="178.6845">II, IV, VII</text><text fill="#000000" font-family="sans-serif" font-size="12" font-weight="bold" lengthAdjust="spacing" textLength="16" x="103" y="178.6845">G7</text><text fill="#000000" font-family="sans-serif" font-size="12" lengthAdjust="spacing" textLength="80" x="146" y="178.6845">Dominante (V)</text><text fill="#000000" font-family="sans-serif" font-size="12" lengthAdjust="spacing" textLength="42" x="228" y="178.6845">C (Res.)</text><line style="stroke:#AAAAAA;stroke-width:1.0;stroke-dasharray:1.0,2.0;" x1="14" x2="102" y1="192.8726" y2="192.8726"/><line style="stroke:#AAAAAA;stroke-width:1.0;stroke-dasharray:1.0,2.0;" x1="103" x2="145" y1="192.8726" y2="192.8726"/><line style="stroke:#AAAAAA;stroke-width:1.0;stroke-dasharray:1.0,2.0;" x1="146" x2="227" y1="192.8726" y2="192.8726"/><line style="stroke:#AAAAAA;stroke-width:1.0;stroke-dasharray:1.0,2.0;" x1="228" x2="291" y1="192.8726" y2="192.8726"/><line style="stroke:#000000;stroke-width:1.0;" x1="8" x2="13" y1="146.5123" y2="146.5123"/><line style="stroke:#000000;stroke-width:1.0;" x1="102" x2="145" y1="183.2005" y2="183.2005"/><line style="stroke:#000000;stroke-width:1.0;" x1="13" x2="102" y1="146.5123" y2="146.5123"/><line style="stroke:#000000;stroke-width:1.0;" x1="145" x2="227" y1="183.2005" y2="183.2005"/><line style="stroke:#000000;stroke-width:1.0;" x1="102" x2="145" y1="146.5123" y2="146.5123"/><line style="stroke:#000000;stroke-width:1.0;" x1="227" x2="291" y1="183.2005" y2="183.2005"/><line style="stroke:#000000;stroke-width:1.0;" x1="145" x2="227" y1="146.5123" y2="146.5123"/><line style="stroke:#000000;stroke-width:1.0;" x1="227" x2="291" y1="146.5123" y2="146.5123"/><line style="stroke:#000000;stroke-width:1.0;" x1="8" x2="13" y1="201.5446" y2="201.5446"/><line style="stroke:#000000;stroke-width:1.0;" x1="13" x2="102" y1="201.5446" y2="201.5446"/><line style="stroke:#000000;stroke-width:1.0;" x1="102" x2="145" y1="201.5446" y2="201.5446"/><line style="stroke:#000000;stroke-width:1.0;" x1="8" x2="13" y1="164.8564" y2="164.8564"/><line style="stroke:#000000;stroke-width:1.0;" x1="145" x2="227" y1="201.5446" y2="201.5446"/><line style="stroke:#000000;stroke-width:1.0;" x1="13" x2="102" y1="164.8564" y2="164.8564"/><line style="stroke:#000000;stroke-width:1.0;" x1="227" x2="291" y1="201.5446" y2="201.5446"/><line style="stroke:#000000;stroke-width:1.0;" x1="102" x2="145" y1="164.8564" y2="164.8564"/><line style="stroke:#000000;stroke-width:1.0;" x1="145" x2="227" y1="164.8564" y2="164.8564"/><line style="stroke:#000000;stroke-width:1.0;" x1="227" x2="291" y1="164.8564" y2="164.8564"/><line style="stroke:#000000;stroke-width:1.0;" x1="8" x2="13" y1="183.2005" y2="183.2005"/><line style="stroke:#000000;stroke-width:1.0;" x1="13" x2="102" y1="183.2005" y2="183.2005"/><line style="stroke:#000000;stroke-width:1.0;" x1="8" x2="8" y1="146.5123" y2="164.8564"/><line style="stroke:#000000;stroke-width:1.0;" x1="102" x2="102" y1="183.2005" y2="201.5446"/><line style="stroke:#000000;stroke-width:1.0;" x1="13" x2="13" y1="146.5123" y2="164.8564"/><line style="stroke:#000000;stroke-width:1.0;" x1="145" x2="145" y1="183.2005" y2="201.5446"/><line style="stroke:#000000;stroke-width:1.0;" x1="102" x2="102" y1="146.5123" y2="164.8564"/><line style="stroke:#000000;stroke-width:1.0;" x1="227" x2="227" y1="183.2005" y2="201.5446"/><line style="stroke:#000000;stroke-width:1.0;" x1="291" x2="291" y1="183.2005" y2="201.5446"/><line style="stroke:#000000;stroke-width:1.0;" x1="145" x2="145" y1="146.5123" y2="164.8564"/><line style="stroke:#000000;stroke-width:1.0;" x1="227" x2="227" y1="146.5123" y2="164.8564"/><line style="stroke:#000000;stroke-width:1.0;" x1="291" x2="291" y1="146.5123" y2="164.8564"/><line style="stroke:#000000;stroke-width:1.0;" x1="8" x2="8" y1="164.8564" y2="183.2005"/><line style="stroke:#000000;stroke-width:1.0;" x1="13" x2="13" y1="164.8564" y2="183.2005"/><line style="stroke:#000000;stroke-width:1.0;" x1="102" x2="102" y1="164.8564" y2="183.2005"/><line style="stroke:#000000;stroke-width:1.0;" x1="145" x2="145" y1="164.8564" y2="183.2005"/><line style="stroke:#000000;stroke-width:1.0;" x1="227" x2="227" y1="164.8564" y2="183.2005"/><line style="stroke:#000000;stroke-width:1.0;" x1="291" x2="291" y1="164.8564" y2="183.2005"/><line style="stroke:#000000;stroke-width:1.0;" x1="8" x2="8" y1="183.2005" y2="201.5446"/><line style="stroke:#000000;stroke-width:1.0;" x1="13" x2="13" y1="183.2005" y2="201.5446"/><line style="stroke:#000000;stroke-width:1.0;" x1="7" x2="292" y1="124.4444" y2="124.4444"/><line style="stroke:#000000;stroke-width:1.0;" x1="7" x2="292" y1="202.5446" y2="202.5446"/><line style="stroke:#000000;stroke-width:1.0;" x1="7" x2="7" y1="124.4444" y2="145.5123"/><line style="stroke:#000000;stroke-width:1.0;" x1="292" x2="292" y1="145.5123" y2="202.5446"/><line style="stroke:#000000;stroke-width:1.0;" x1="292" x2="292" y1="124.4444" y2="145.5123"/><line style="stroke:#000000;stroke-width:1.0;" x1="7" x2="7" y1="145.5123" y2="202.5446"/><rect fill="none" height="78.1003" style="stroke:#000000;stroke-width:1.0;" width="15" x="296" y="124.4444"/><line style="stroke:#000000;stroke-width:1.0;" x1="296" x2="311" y1="136.4444" y2="136.4444"/><line style="stroke:#000000;stroke-width:1.0;" x1="296" x2="311" y1="190.5446" y2="190.5446"/><path d="M303,128.4444 L306,133.4444 L300,133.4444 L303,128.4444 " fill="#000000" style="stroke:#000000;stroke-width:1.0;"/><path d="M303,199.5446 L306,194.5446 L300,194.5446 L303,199.5446 " fill="#000000" style="stroke:#000000;stroke-width:1.0;"/><line style="stroke:#000000;stroke-width:1.0;" x1="6" x2="382" y1="6" y2="6"/><line style="stroke:#000000;stroke-width:1.0;" x1="6" x2="382" y1="203.5446" y2="203.5446"/><line style="stroke:#000000;stroke-width:1.0;" x1="6" x2="6" y1="6" y2="27.0679"/><line style="stroke:#000000;stroke-width:1.0;" x1="382" x2="382" y1="27.0679" y2="73.7561"/><line style="stroke:#000000;stroke-width:1.0;" x1="382" x2="382" y1="6" y2="27.0679"/><line style="stroke:#000000;stroke-width:1.0;" x1="6" x2="6" y1="123.4444" y2="203.5446"/><line style="stroke:#000000;stroke-width:1.0;" x1="6" x2="6" y1="103.1003" y2="123.4444"/><line style="stroke:#000000;stroke-width:1.0;" x1="382" x2="382" y1="123.4444" y2="203.5446"/><line style="stroke:#000000;stroke-width:1.0;" x1="6" x2="6" y1="73.7561" y2="103.1003"/><line style="stroke:#000000;stroke-width:1.0;" x1="382" x2="382" y1="103.1003" y2="123.4444"/><line style="stroke:#000000;stroke-width:1.0;" x1="6" x2="6" y1="27.0679" y2="73.7561"/><line style="stroke:#000000;stroke-width:1.0;" x1="382" x2="382" y1="73.7561" y2="103.1003"/><rect fill="none" height="78.1003" style="stroke:#000000;stroke-width:1.0;" width="15" x="296" y="124.4444"/><line style="stroke:#000000;stroke-width:1.0;" x1="296" x2="311" y1="136.4444" y2="136.4444"/><line style="stroke:#000000;stroke-width:1.0;" x1="296" x2="311" y1="190.5446" y2="190.5446"/><path d="M303,128.4444 L306,133.4444 L300,133.4444 L303,128.4444 " fill="#000000" style="stroke:#000000;stroke-width:1.0;"/><path d="M303,199.5446 L306,194.5446 L300,194.5446 L303,199.5446 " fill="#000000" style="stroke:#000000;stroke-width:1.0;"/><!--SRC=[LL9jRjf04Fs_ftXI_u2Rk8IIjh8KATHyo1Id28Zx8qgaZJsXAy5kj5wZH8I_FK1kq3Fq2Bb9JzAnWJJsZx7cxNjlPsRdF7VIkbmk7UZ1aSx8JgnPMCgLqJ-KfJihLvIBZG0sxpa0PsSOaYOhCsEH4M9vBz6rgvS_MgL6L9nD5O5v1Se0JxW9R_PWR38Jy9-nM3uQkyEtTUNLHK5hYKCnx8CFc99YEoNjDOklWCGirsJHTVRbTmvSrupUxPqyxws9J5qXbm52_FtrZ44LXvyzhoQTHNijzrflhsmuH5Mss7DUBm9yBgj7o9ZBlBNYCJ7YUTtKs8myZvD1eTEga2TqNucovX15HuYI8oHHX6fCdbTMY5tICokbfNQ4HjBaF4HZIhdVh5duleytNmtO9LNSQxRY4BU2Ht3EQr1kX12J9Lzq6O_1KouN0YT-kzNk-1yRyvy51dIBarEqMq6d5RHE4VRdA8-ReZ6SZDTjvAQmAOz3vSwgsyAnGrEC93_hjD1EhIZ0ztlIezwt0u2-NYjhz8gq4wCa_a_ur3d-gXncPCiNJsBHepjPyDhsTMeofHS1BkU3uozYBFMYa0lsvhKD3VlQnm3zsJy0]--></g></svg>