<?xml version="1.0" encoding="us-ascii" standalone="no"?><svg xmlns="http://www.w3.org/2000/svg" xmlns:xlink="http://www.w3.org/1999/xlink" contentStyleType="text/css" height="963px" preserveAspectRatio="none" style="width:410px;height:963px;background:#FFFFFF;" version="1.1" viewBox="0 0 410 963" width="410px" zoomAndPan="magnify"><defs/><g><g id="PROGRESION_EN_CONSTRUCCION_1"><rect fill="#F1F1F1" height="50" rx="12.5" ry="12.5" style="stroke:#181818;stroke-width:0.5;" width="252" x="76" y="7"/><line style="stroke:#181818;stroke-width:0.5;" x1="76" x2="328" y1="36.0679" y2="36.0679"/><text fill="#000000" font-family="sans-serif" font-size="14" lengthAdjust="spacing" textLength="232" x="86" y="26.9659">PROGRESION_EN_CONSTRUCCION</text></g><path d="M19.5,117 L384.5,117 A12.5,12.5 0 0 1 397,129.5 L397,146.0679 L7,146.0679 L7,129.5 A12.5,12.5 0 0 1 19.5,117 " fill="#F1F1F1" style="stroke:#F1F1F1;stroke-width:1.0;"/><rect fill="none" height="730.0679" rx="12.5" ry="12.5" style="stroke:#181818;stroke-width:0.5;" width="390" x="7" y="117"/><line style="stroke:#181818;stroke-width:0.5;" x1="7" x2="397" y1="146.0679" y2="146.0679"/><text fill="#000000" font-family="sans-serif" font-size="14" lengthAdjust="spacing" textLength="141" x="131.5" y="136.9659">extenderProgresi&#243;n()</text><g id="extenderProgresion.SeleccionandoSiguienteAcorde"><rect fill="#F1F1F1" height="50" rx="12.5" ry="12.5" style="stroke:#181818;stroke-width:0.5;" width="50" x="19" y="250.0679"/><line style="stroke:#181818;stroke-width:0.5;" x1="19" x2="69" y1="279.1358" y2="279.1358"/><text fill="#000000" font-family="sans-serif" font-size="14" lengthAdjust="spacing" textLength="4" x="42" y="270.0339">&#160;</text></g><g id="extenderProgresion.ProgresionExtendida"><rect fill="#F1F1F1" height="50" rx="12.5" ry="12.5" style="stroke:#181818;stroke-width:0.5;" width="50" x="19" y="479.0679"/><line style="stroke:#181818;stroke-width:0.5;" x1="19" x2="69" y1="508.1358" y2="508.1358"/><text fill="#000000" font-family="sans-serif" font-size="14" lengthAdjust="spacing" textLength="4" x="42" y="499.0339">&#160;</text></g><ellipse cx="44" cy="167.0679" fill="#222222" rx="10" ry="10" style="stroke:#222222;stroke-width:1.0;"/><ellipse cx="44" cy="826.0679" fill="none" rx="11" ry="11" style="stroke:#222222;stroke-width:1.0;"/><ellipse cx="44" cy="826.0679" fill="#222222" rx="6" ry="6" style="stroke:#222222;stroke-width:1.0;"/><!--link *start*extenderProgresion to SeleccionandoSiguienteAcorde--><g id="link_*start*extenderProgresion_SeleccionandoSiguienteAcorde"><path d="M44,177.1079 C44,193.0279 44,220.5779 44,243.7079 " fill="none" id="*start*extenderProgresion-to-SeleccionandoSiguienteAcorde" style="stroke:#008000;stroke-width:1.0;"/><polygon fill="#008000" points="44,249.7079,48,240.7079,44,244.7079,40,240.7079,44,249.7079" style="stroke:#008000;stroke-width:1.0;"/><path d="M49,200.0679 L49,227.0679 L286,227.0679 L286,210.0679 L276,200.0679 L49,200.0679 " fill="#FEFFDD" style="stroke:#181818;stroke-width:0.5;"/><path d="M276,200.0679 L276,210.0679 L286,210.0679 L276,200.0679 " fill="#FEFFDD" style="stroke:#181818;stroke-width:0.5;"/><text fill="#000000" font-family="sans-serif" font-size="13" font-weight="bold" lengthAdjust="spacing" textLength="46" x="55" y="218.9649">M&#250;sico</text><text fill="#000000" font-family="sans-serif" font-size="13" lengthAdjust="spacing" textLength="167" x="104" y="218.9649">solicita extender progresi&#243;n</text></g><!--link SeleccionandoSiguienteAcorde to ProgresionExtendida--><g id="link_SeleccionandoSiguienteAcorde_ProgresionExtendida"><path d="M44,300.3579 C44,344.0479 44,429.3879 44,472.9479 " fill="none" id="SeleccionandoSiguienteAcorde-to-ProgresionExtendida" style="stroke:#008000;stroke-width:1.0;"/><polygon fill="#008000" points="44,478.9479,48,469.9479,44,473.9479,40,469.9479,44,478.9479" style="stroke:#008000;stroke-width:1.0;"/><path d="M49,323.0679 L49,456.0679 L346,456.0679 L346,333.0679 L336,323.0679 L49,323.0679 " fill="#FEFFDD" style="stroke:#181818;stroke-width:0.5;"/><path d="M336,323.0679 L336,333.0679 L346,333.0679 L336,323.0679 " fill="#FEFFDD" style="stroke:#181818;stroke-width:0.5;"/><text fill="#000000" font-family="sans-serif" font-size="13" font-weight="bold" lengthAdjust="spacing" textLength="52" x="55" y="341.9649">Sistema</text><text fill="#000000" font-family="sans-serif" font-size="13" lengthAdjust="spacing" textLength="221" x="110" y="341.9649">presenta mapa arm&#243;nico actualizado</text><text fill="#000000" font-family="sans-serif" font-size="13" lengthAdjust="spacing" textLength="249" x="55" y="359.6709">&#8226; Acordes disponibles desde acorde actual</text><text fill="#000000" font-family="sans-serif" font-size="13" lengthAdjust="spacing" textLength="170" x="55" y="377.377">&#8226; Enlaces arm&#243;nicos posibles</text><text fill="#000000" font-family="sans-serif" font-size="13" lengthAdjust="spacing" textLength="184" x="55" y="395.083">&#8226; Historial de progresi&#243;n actual</text><text fill="#000000" font-family="sans-serif" font-size="13" lengthAdjust="spacing" textLength="3" x="55" y="412.789">&#160;</text><text fill="#000000" font-family="sans-serif" font-size="13" font-weight="bold" lengthAdjust="spacing" textLength="52" x="55" y="430.495">Sistema</text><text fill="#000000" font-family="sans-serif" font-size="13" lengthAdjust="spacing" textLength="99" x="110" y="430.495">permite solicitar:</text><text fill="#000000" font-family="sans-serif" font-size="13" lengthAdjust="spacing" textLength="108" x="55" y="448.201">&#8226; Acorde siguiente</text></g><!--link ProgresionExtendida to *end*extenderProgresion--><g id="link_ProgresionExtendida_*end*extenderProgresion"><path d="M44,529.1179 C44,593.9479 44,764.3979 44,808.8179 " fill="none" id="ProgresionExtendida-to-*end*extenderProgresion" style="stroke:#008000;stroke-width:1.0;"/><polygon fill="#008000" points="44,814.8179,48,805.8179,44,809.8179,40,805.8179,44,814.8179" style="stroke:#008000;stroke-width:1.0;"/><path d="M49,552.0679 L49,792.0679 L388,792.0679 L388,562.0679 L378,552.0679 L49,552.0679 " fill="#FEFFDD" style="stroke:#181818;stroke-width:0.5;"/><path d="M378,552.0679 L378,562.0679 L388,562.0679 L378,552.0679 " fill="#FEFFDD" style="stroke:#181818;stroke-width:0.5;"/><text fill="#000000" font-family="sans-serif" font-size="13" font-weight="bold" lengthAdjust="spacing" textLength="46" x="55" y="570.9649">M&#250;sico</text><text fill="#000000" font-family="sans-serif" font-size="13" lengthAdjust="spacing" textLength="205" x="104" y="570.9649">solicita introducir acorde siguiente</text><text fill="#000000" font-family="sans-serif" font-size="13" lengthAdjust="spacing" textLength="3" x="55" y="588.6709">&#160;</text><text fill="#000000" font-family="sans-serif" font-size="13" font-weight="bold" lengthAdjust="spacing" textLength="52" x="55" y="606.377">Sistema</text><text fill="#000000" font-family="sans-serif" font-size="13" lengthAdjust="spacing" textLength="177" x="110" y="606.377">registra acorde en progresi&#243;n</text><text fill="#000000" font-family="sans-serif" font-size="13" lengthAdjust="spacing" textLength="246" x="55" y="624.083">&#8226; Agrega acorde al historial de progresi&#243;n</text><text fill="#000000" font-family="sans-serif" font-size="13" lengthAdjust="spacing" textLength="318" x="55" y="641.789">&#8226; Establece acorde como acorde actual de navegaci&#243;n</text><text fill="#000000" font-family="sans-serif" font-size="13" lengthAdjust="spacing" textLength="183" x="55" y="659.495">&#8226; Presenta historial actualizado</text><text fill="#000000" font-family="sans-serif" font-size="13" lengthAdjust="spacing" textLength="3" x="55" y="677.201">&#160;</text><text fill="#000000" font-family="sans-serif" font-size="13" font-weight="bold" lengthAdjust="spacing" textLength="52" x="55" y="694.907">Sistema</text><text fill="#000000" font-family="sans-serif" font-size="13" lengthAdjust="spacing" textLength="99" x="110" y="694.907">permite solicitar:</text><text fill="#000000" font-family="sans-serif" font-size="13" lengthAdjust="spacing" textLength="267" x="55" y="712.6131">&#8226; extender progresi&#243;n hacia siguiente acorde</text><text fill="#000000" font-family="sans-serif" font-size="13" lengthAdjust="spacing" textLength="158" x="55" y="730.3191">&#8226; retroceder en progresi&#243;n</text><text fill="#000000" font-family="sans-serif" font-size="13" lengthAdjust="spacing" textLength="160" x="55" y="748.0251">&#8226; modificar modo de escala</text><text fill="#000000" font-family="sans-serif" font-size="13" lengthAdjust="spacing" textLength="123" x="55" y="765.7311">&#8226; finalizar progresi&#243;n</text><text fill="#000000" font-family="sans-serif" font-size="13" lengthAdjust="spacing" textLength="124" x="55" y="783.4371">&#8226; reiniciar progresi&#243;n</text></g><g id="PROGRESION_EN_CONSTRUCCION_2"><rect fill="#F1F1F1" height="50" rx="12.5" ry="12.5" style="stroke:#181818;stroke-width:0.5;" width="252" x="76" y="907"/><line style="stroke:#181818;stroke-width:0.5;" x1="76" x2="328" y1="936.0679" y2="936.0679"/><text fill="#000000" font-family="sans-serif" font-size="14" lengthAdjust="spacing" textLength="232" x="86" y="926.9659">PROGRESION_EN_CONSTRUCCION</text></g><!--link PROGRESION_EN_CONSTRUCCION_1 to extenderProgresion--><g id="link_PROGRESION_EN_CONSTRUCCION_1_extenderProgresion"><path d="M202,57.09 C202,71.81 202,86.48 202,110.85 " fill="none" id="PROGRESION_EN_CONSTRUCCION_1-to-extenderProgresion" style="stroke:#008000;stroke-width:1.0;"/><polygon fill="#008000" points="202,116.85,206,107.85,202,111.85,198,107.85,202,116.85" style="stroke:#008000;stroke-width:1.0;"/></g><!--link extenderProgresion to PROGRESION_EN_CONSTRUCCION_2--><g id="link_extenderProgresion_PROGRESION_EN_CONSTRUCCION_2"><path d="M202,847.26 C202,871.44 202,885.97 202,900.65 " fill="none" id="extenderProgresion-to-PROGRESION_EN_CONSTRUCCION_2" style="stroke:#008000;stroke-width:1.0;"/><polygon fill="#008000" points="202,906.65,206,897.65,202,901.65,198,897.65,202,906.65" style="stroke:#008000;stroke-width:1.0;"/></g><!--SRC=[bLJ1RjD04BtxAqRX0aWLWYEg8g4e0WuaKGodggecwsawwdhNcjqW2aBYM_W5Rbpx9tm9upMswyP9QNpnJkQzUVDclE6QNOM29LXs56ygWihRc_gGPI5Y95Yjbs_Ny_pzSd4nNrpCbelyu_hJR5QVNm86c1nEc6H7mITdJxP2vCvFfa1V8hc2P2LUOu6zQ-ll_vEgtW_V_d9FdqtWMvQ1_XheH1_DpScICGf4L_YSjpic5-cDyLBGVdPVPvvAS84Dvzdpyu7a1scTLrQLgsvUfy3fPlhXzdTWuqzVRAOGl6N34RiMeUgRIG2D9fP6mB620sLZBHmIb7E8L68IL2b8AH5Ah11GIjMXOW5DtA7bhrZu1FlpuoSqPGCK72hlU6FhTmgg11j13QZBdpkBHdCwrg2R5XAkotcdMhmmMcMwwqNBDQgPf6HjgpLJNj-J2A5rQiJI4QS6JkhC7pTATb5yiJCihGzz-J7vGbiz2RRPvFQM8BMYaMsNf0PT7R2gzrkNMiqrtJoCB_rmDZNKuMSbDWFegbs3liZT3NZa5CQM6wwq9FRM_DFLOOJKHKCrwe0XfI_uaWrA_URhJYWOjDWbNB9BWcKKBiIwWup7Fhdl_t43ldhm1XovlWQVwX7kx2y0]--></g></svg>