<?xml version="1.0" encoding="us-ascii" standalone="no"?><svg xmlns="http://www.w3.org/2000/svg" xmlns:xlink="http://www.w3.org/1999/xlink" contentStyleType="text/css" height="278px" preserveAspectRatio="none" style="width:750px;height:278px;background:#FFFFFF;" version="1.1" viewBox="0 0 750 278" width="750px" zoomAndPan="magnify"><defs/><g><!--class Horario--><g id="elem_Horario"><rect codeLine="2" fill="#F1F1F1" height="48" id="Horario" rx="2.5" ry="2.5" style="stroke:#181818;stroke-width:0.5;" width="82" x="372.5" y="7"/><ellipse cx="387.5" cy="23" fill="#ADD1B2" rx="11" ry="11" style="stroke:#181818;stroke-width:1.0;"/><path d="M390.4688,28.6406 Q389.8906,28.9375 389.25,29.0781 Q388.6094,29.2344 387.9063,29.2344 Q385.4063,29.2344 384.0781,27.5938 Q382.7656,25.9375 382.7656,22.8125 Q382.7656,19.6875 384.0781,18.0313 Q385.4063,16.375 387.9063,16.375 Q388.6094,16.375 389.25,16.5313 Q389.9063,16.6875 390.4688,16.9844 L390.4688,19.7031 Q389.8438,19.125 389.25,18.8594 Q388.6563,18.5781 388.0313,18.5781 Q386.6875,18.5781 386,19.6563 Q385.3125,20.7188 385.3125,22.8125 Q385.3125,24.9063 386,25.9844 Q386.6875,27.0469 388.0313,27.0469 Q388.6563,27.0469 389.25,26.7813 Q389.8438,26.5 390.4688,25.9219 L390.4688,28.6406 Z " fill="#000000"/><text fill="#000000" font-family="sans-serif" font-size="14" lengthAdjust="spacing" textLength="50" x="401.5" y="28.432">Horario</text><line style="stroke:#181818;stroke-width:0.5;" x1="373.5" x2="453.5" y1="39" y2="39"/><line style="stroke:#181818;stroke-width:0.5;" x1="373.5" x2="453.5" y1="47" y2="47"/></g><!--class CampusUniversitario--><g id="elem_CampusUniversitario"><rect fill="#F1F1F1" height="48" id="CampusUniversitario" rx="2.5" ry="2.5" style="stroke:#181818;stroke-width:0.5;" width="173" x="7" y="115"/><ellipse cx="22" cy="131" fill="#ADD1B2" rx="11" ry="11" style="stroke:#181818;stroke-width:1.0;"/><path d="M24.9688,136.6406 Q24.3906,136.9375 23.75,137.0781 Q23.1094,137.2344 22.4063,137.2344 Q19.9063,137.2344 18.5781,135.5938 Q17.2656,133.9375 17.2656,130.8125 Q17.2656,127.6875 18.5781,126.0313 Q19.9063,124.375 22.4063,124.375 Q23.1094,124.375 23.75,124.5313 Q24.4063,124.6875 24.9688,124.9844 L24.9688,127.7031 Q24.3438,127.125 23.75,126.8594 Q23.1563,126.5781 22.5313,126.5781 Q21.1875,126.5781 20.5,127.6563 Q19.8125,128.7188 19.8125,130.8125 Q19.8125,132.9063 20.5,133.9844 Q21.1875,135.0469 22.5313,135.0469 Q23.1563,135.0469 23.75,134.7813 Q24.3438,134.5 24.9688,133.9219 L24.9688,136.6406 Z " fill="#000000"/><text fill="#000000" font-family="sans-serif" font-size="14" lengthAdjust="spacing" textLength="141" x="36" y="136.432">CampusUniversitario</text><line style="stroke:#181818;stroke-width:0.5;" x1="8" x2="179" y1="147" y2="147"/><line style="stroke:#181818;stroke-width:0.5;" x1="8" x2="179" y1="155" y2="155"/></g><!--class Aula--><g id="elem_Aula"><rect fill="#F1F1F1" height="48" id="Aula" rx="2.5" ry="2.5" style="stroke:#181818;stroke-width:0.5;" width="62" x="215.5" y="115"/><ellipse cx="230.5" cy="131" fill="#ADD1B2" rx="11" ry="11" style="stroke:#181818;stroke-width:1.0;"/><path d="M233.4688,136.6406 Q232.8906,136.9375 232.25,137.0781 Q231.6094,137.2344 230.9063,137.2344 Q228.4063,137.2344 227.0781,135.5938 Q225.7656,133.9375 225.7656,130.8125 Q225.7656,127.6875 227.0781,126.0313 Q228.4063,124.375 230.9063,124.375 Q231.6094,124.375 232.25,124.5313 Q232.9063,124.6875 233.4688,124.9844 L233.4688,127.7031 Q232.8438,127.125 232.25,126.8594 Q231.6563,126.5781 231.0313,126.5781 Q229.6875,126.5781 229,127.6563 Q228.3125,128.7188 228.3125,130.8125 Q228.3125,132.9063 229,133.9844 Q229.6875,135.0469 231.0313,135.0469 Q231.6563,135.0469 232.25,134.7813 Q232.8438,134.5 233.4688,133.9219 L233.4688,136.6406 Z " fill="#000000"/><text fill="#000000" font-family="sans-serif" font-size="14" lengthAdjust="spacing" textLength="30" x="244.5" y="136.432">Aula</text><line style="stroke:#181818;stroke-width:0.5;" x1="216.5" x2="276.5" y1="147" y2="147"/><line style="stroke:#181818;stroke-width:0.5;" x1="216.5" x2="276.5" y1="155" y2="155"/></g><!--class Profesor--><g id="elem_Profesor"><rect fill="#F1F1F1" height="48" id="Profesor" rx="2.5" ry="2.5" style="stroke:#181818;stroke-width:0.5;" width="88" x="312.5" y="115"/><ellipse cx="327.5" cy="131" fill="#ADD1B2" rx="11" ry="11" style="stroke:#181818;stroke-width:1.0;"/><path d="M330.4688,136.6406 Q329.8906,136.9375 329.25,137.0781 Q328.6094,137.2344 327.9063,137.2344 Q325.4063,137.2344 324.0781,135.5938 Q322.7656,133.9375 322.7656,130.8125 Q322.7656,127.6875 324.0781,126.0313 Q325.4063,124.375 327.9063,124.375 Q328.6094,124.375 329.25,124.5313 Q329.9063,124.6875 330.4688,124.9844 L330.4688,127.7031 Q329.8438,127.125 329.25,126.8594 Q328.6563,126.5781 328.0313,126.5781 Q326.6875,126.5781 326,127.6563 Q325.3125,128.7188 325.3125,130.8125 Q325.3125,132.9063 326,133.9844 Q326.6875,135.0469 328.0313,135.0469 Q328.6563,135.0469 329.25,134.7813 Q329.8438,134.5 330.4688,133.9219 L330.4688,136.6406 Z " fill="#000000"/><text fill="#000000" font-family="sans-serif" font-size="14" lengthAdjust="spacing" textLength="56" x="341.5" y="136.432">Profesor</text><line style="stroke:#181818;stroke-width:0.5;" x1="313.5" x2="399.5" y1="147" y2="147"/><line style="stroke:#181818;stroke-width:0.5;" x1="313.5" x2="399.5" y1="155" y2="155"/></g><!--class Curso--><g id="elem_Curso"><rect fill="#F1F1F1" height="48" id="Curso" rx="2.5" ry="2.5" style="stroke:#181818;stroke-width:0.5;" width="71" x="436" y="115"/><ellipse cx="451" cy="131" fill="#ADD1B2" rx="11" ry="11" style="stroke:#181818;stroke-width:1.0;"/><path d="M453.9688,136.6406 Q453.3906,136.9375 452.75,137.0781 Q452.1094,137.2344 451.4063,137.2344 Q448.9063,137.2344 447.5781,135.5938 Q446.2656,133.9375 446.2656,130.8125 Q446.2656,127.6875 447.5781,126.0313 Q448.9063,124.375 451.4063,124.375 Q452.1094,124.375 452.75,124.5313 Q453.4063,124.6875 453.9688,124.9844 L453.9688,127.7031 Q453.3438,127.125 452.75,126.8594 Q452.1563,126.5781 451.5313,126.5781 Q450.1875,126.5781 449.5,127.6563 Q448.8125,128.7188 448.8125,130.8125 Q448.8125,132.9063 449.5,133.9844 Q450.1875,135.0469 451.5313,135.0469 Q452.1563,135.0469 452.75,134.7813 Q453.3438,134.5 453.9688,133.9219 L453.9688,136.6406 Z " fill="#000000"/><text fill="#000000" font-family="sans-serif" font-size="14" lengthAdjust="spacing" textLength="39" x="465" y="136.432">Curso</text><line style="stroke:#181818;stroke-width:0.5;" x1="437" x2="506" y1="147" y2="147"/><line style="stroke:#181818;stroke-width:0.5;" x1="437" x2="506" y1="155" y2="155"/></g><!--class Programa--><g id="elem_Programa"><rect fill="#F1F1F1" height="48" id="Programa" rx="2.5" ry="2.5" style="stroke:#181818;stroke-width:0.5;" width="98" x="473.5" y="223"/><ellipse cx="488.5" cy="239" fill="#ADD1B2" rx="11" ry="11" style="stroke:#181818;stroke-width:1.0;"/><path d="M491.4688,244.6406 Q490.8906,244.9375 490.25,245.0781 Q489.6094,245.2344 488.9063,245.2344 Q486.4063,245.2344 485.0781,243.5938 Q483.7656,241.9375 483.7656,238.8125 Q483.7656,235.6875 485.0781,234.0313 Q486.4063,232.375 488.9063,232.375 Q489.6094,232.375 490.25,232.5313 Q490.9063,232.6875 491.4688,232.9844 L491.4688,235.7031 Q490.8438,235.125 490.25,234.8594 Q489.6563,234.5781 489.0313,234.5781 Q487.6875,234.5781 487,235.6563 Q486.3125,236.7188 486.3125,238.8125 Q486.3125,240.9063 487,241.9844 Q487.6875,243.0469 489.0313,243.0469 Q489.6563,243.0469 490.25,242.7813 Q490.8438,242.5 491.4688,241.9219 L491.4688,244.6406 Z " fill="#000000"/><text fill="#000000" font-family="sans-serif" font-size="14" lengthAdjust="spacing" textLength="66" x="502.5" y="244.432">Programa</text><line style="stroke:#181818;stroke-width:0.5;" x1="474.5" x2="570.5" y1="255" y2="255"/><line style="stroke:#181818;stroke-width:0.5;" x1="474.5" x2="570.5" y1="263" y2="263"/></g><!--class BloqueHorario--><g id="elem_BloqueHorario"><rect fill="#F1F1F1" height="48" id="BloqueHorario" rx="2.5" ry="2.5" style="stroke:#181818;stroke-width:0.5;" width="129" x="614" y="115"/><ellipse cx="629" cy="131" fill="#ADD1B2" rx="11" ry="11" style="stroke:#181818;stroke-width:1.0;"/><path d="M631.9688,136.6406 Q631.3906,136.9375 630.75,137.0781 Q630.1094,137.2344 629.4063,137.2344 Q626.9063,137.2344 625.5781,135.5938 Q624.2656,133.9375 624.2656,130.8125 Q624.2656,127.6875 625.5781,126.0313 Q626.9063,124.375 629.4063,124.375 Q630.1094,124.375 630.75,124.5313 Q631.4063,124.6875 631.9688,124.9844 L631.9688,127.7031 Q631.3438,127.125 630.75,126.8594 Q630.1563,126.5781 629.5313,126.5781 Q628.1875,126.5781 627.5,127.6563 Q626.8125,128.7188 626.8125,130.8125 Q626.8125,132.9063 627.5,133.9844 Q628.1875,135.0469 629.5313,135.0469 Q630.1563,135.0469 630.75,134.7813 Q631.3438,134.5 631.9688,133.9219 L631.9688,136.6406 Z " fill="#000000"/><text fill="#000000" font-family="sans-serif" font-size="14" lengthAdjust="spacing" textLength="97" x="643" y="136.432">BloqueHorario</text><line style="stroke:#181818;stroke-width:0.5;" x1="615" x2="742" y1="147" y2="147"/><line style="stroke:#181818;stroke-width:0.5;" x1="615" x2="742" y1="155" y2="155"/></g><!--class Edificio--><g id="elem_Edificio"><rect fill="#F1F1F1" height="48" id="Edificio" rx="2.5" ry="2.5" style="stroke:#181818;stroke-width:0.5;" width="81" x="202" y="223"/><ellipse cx="217" cy="239" fill="#ADD1B2" rx="11" ry="11" style="stroke:#181818;stroke-width:1.0;"/><path d="M219.9688,244.6406 Q219.3906,244.9375 218.75,245.0781 Q218.1094,245.2344 217.4063,245.2344 Q214.9063,245.2344 213.5781,243.5938 Q212.2656,241.9375 212.2656,238.8125 Q212.2656,235.6875 213.5781,234.0313 Q214.9063,232.375 217.4063,232.375 Q218.1094,232.375 218.75,232.5313 Q219.4063,232.6875 219.9688,232.9844 L219.9688,235.7031 Q219.3438,235.125 218.75,234.8594 Q218.1563,234.5781 217.5313,234.5781 Q216.1875,234.5781 215.5,235.6563 Q214.8125,236.7188 214.8125,238.8125 Q214.8125,240.9063 215.5,241.9844 Q216.1875,243.0469 217.5313,243.0469 Q218.1563,243.0469 218.75,242.7813 Q219.3438,242.5 219.9688,241.9219 L219.9688,244.6406 Z " fill="#000000"/><text fill="#000000" font-family="sans-serif" font-size="14" lengthAdjust="spacing" textLength="49" x="231" y="244.432">Edificio</text><line style="stroke:#181818;stroke-width:0.5;" x1="203" x2="282" y1="255" y2="255"/><line style="stroke:#181818;stroke-width:0.5;" x1="203" x2="282" y1="263" y2="263"/></g><!--class Recurso--><g id="elem_Recurso"><rect fill="#F1F1F1" height="48" id="Recurso" rx="2.5" ry="2.5" style="stroke:#181818;stroke-width:0.5;" width="86" x="318.5" y="223"/><ellipse cx="333.5" cy="239" fill="#ADD1B2" rx="11" ry="11" style="stroke:#181818;stroke-width:1.0;"/><path d="M336.4688,244.6406 Q335.8906,244.9375 335.25,245.0781 Q334.6094,245.2344 333.9063,245.2344 Q331.4063,245.2344 330.0781,243.5938 Q328.7656,241.9375 328.7656,238.8125 Q328.7656,235.6875 330.0781,234.0313 Q331.4063,232.375 333.9063,232.375 Q334.6094,232.375 335.25,232.5313 Q335.9063,232.6875 336.4688,232.9844 L336.4688,235.7031 Q335.8438,235.125 335.25,234.8594 Q334.6563,234.5781 334.0313,234.5781 Q332.6875,234.5781 332,235.6563 Q331.3125,236.7188 331.3125,238.8125 Q331.3125,240.9063 332,241.9844 Q332.6875,243.0469 334.0313,243.0469 Q334.6563,243.0469 335.25,242.7813 Q335.8438,242.5 336.4688,241.9219 L336.4688,244.6406 Z " fill="#000000"/><text fill="#000000" font-family="sans-serif" font-size="14" lengthAdjust="spacing" textLength="54" x="347.5" y="244.432">Recurso</text><line style="stroke:#181818;stroke-width:0.5;" x1="319.5" x2="403.5" y1="255" y2="255"/><line style="stroke:#181818;stroke-width:0.5;" x1="319.5" x2="403.5" y1="263" y2="263"/></g><!--link Horario to CampusUniversitario--><g id="link_Horario_CampusUniversitario"><path codeLine="4" d="M372.32,45.64 C319.49,63.14 232.7457,91.8733 168.8657,113.0333 " fill="none" id="Horario-to-CampusUniversitario" style="stroke:#181818;stroke-width:1.0;"/><polygon fill="#181818" points="163.17,114.92,172.9713,115.8871,167.9164,113.3478,170.4557,108.2929,163.17,114.92" style="stroke:#181818;stroke-width:1.0;"/></g><!--link Horario to Aula--><g id="link_Horario_Aula"><path codeLine="5" d="M377.26,55 C347.53,73.88 310.9258,97.1048 282.6758,115.0348 " fill="none" id="Horario-to-Aula" style="stroke:#181818;stroke-width:1.0;"/><polygon fill="#181818" points="277.61,118.25,287.3522,116.8044,281.8315,115.5707,283.0652,110.05,277.61,118.25" style="stroke:#181818;stroke-width:1.0;"/></g><!--link Horario to Profesor--><g id="link_Horario_Profesor"><path codeLine="6" d="M401.13,55 C391.64,72.66 381.4218,91.6556 371.8818,109.3956 " fill="none" id="Horario-to-Profesor" style="stroke:#181818;stroke-width:1.0;"/><polygon fill="#181818" points="369.04,114.68,376.8255,108.648,371.4081,110.2764,369.7797,104.859,369.04,114.68" style="stroke:#181818;stroke-width:1.0;"/></g><!--link Horario to Curso--><g id="link_Horario_Curso"><path codeLine="7" d="M426.09,55 C435.75,72.66 446.1492,91.6768 455.8592,109.4168 " fill="none" id="Horario-to-Curso" style="stroke:#181818;stroke-width:1.0;"/><polygon fill="#181818" points="458.74,114.68,457.9276,104.8647,456.3393,110.294,450.91,108.7058,458.74,114.68" style="stroke:#181818;stroke-width:1.0;"/></g><!--link Horario to Programa--><g id="link_Horario_Programa"><path codeLine="8" d="M454.7,50.63 C479.88,64.46 509.95,85.96 524.5,115 C541.72,149.37 536.6829,189.6045 530.3529,216.9545 " fill="none" id="Horario-to-Programa" style="stroke:#181818;stroke-width:1.0;"/><polygon fill="#181818" points="529,222.8,534.9263,214.9337,530.1274,217.9288,527.1324,213.1298,529,222.8" style="stroke:#181818;stroke-width:1.0;"/></g><!--link Horario to BloqueHorario--><g id="link_Horario_BloqueHorario"><path codeLine="9" d="M454.62,48.45 C499.1,66.24 564.8094,92.5211 614.9694,112.5911 " fill="none" id="Horario-to-BloqueHorario" style="stroke:#181818;stroke-width:1.0;"/><polygon fill="#181818" points="620.54,114.82,613.67,107.7629,615.8978,112.9626,610.6981,115.1904,620.54,114.82" style="stroke:#181818;stroke-width:1.0;"/></g><!--link Aula to Edificio--><g id="link_Aula_Edificio"><path codeLine="10" d="M245.63,163 C244.97,180.66 244.2764,198.9443 243.6064,216.6843 " fill="none" id="Aula-to-Edificio" style="stroke:#181818;stroke-width:1.0;"/><polygon fill="#181818" points="243.38,222.68,247.7168,213.8374,243.5687,217.6836,239.7225,213.5354,243.38,222.68" style="stroke:#181818;stroke-width:1.0;"/></g><!--link Curso to Programa--><g id="link_Curso_Programa"><path codeLine="11" d="M482.57,163 C491.06,180.66 500.1499,199.5326 508.6799,217.2726 " fill="none" id="Curso-to-Programa" style="stroke:#181818;stroke-width:1.0;"/><polygon fill="#181818" points="511.28,222.68,510.9848,212.8356,509.1133,218.1739,503.775,216.3023,511.28,222.68" style="stroke:#181818;stroke-width:1.0;"/></g><!--link Profesor to Recurso--><g id="link_Profesor_Recurso"><path codeLine="12" d="M357.58,163 C358.42,180.66 359.2762,198.9467 360.1162,216.6867 " fill="none" id="Profesor-to-Recurso" style="stroke:#181818;stroke-width:1.0;"/><polygon fill="#181818" points="360.4,222.68,363.9698,213.5009,360.1635,217.6856,355.9788,213.8793,360.4,222.68" style="stroke:#181818;stroke-width:1.0;"/></g><!--SRC=[Iyv9B2vMyCWlIYpApEVYWZ8KT7Nj59mJSmjAYqFpCijIYuepIy0AaEKTItCIKGG2YlBJKelpYr1DAIqgpaTNbbwKc8kgroadlx0q5UOEaD5WOTUKpBJCPA08s1XKxJ3hmA91gSbWYm00]--></g></svg>