<?xml version="1.0" encoding="us-ascii" standalone="no"?><svg xmlns="http://www.w3.org/2000/svg" xmlns:xlink="http://www.w3.org/1999/xlink" contentStyleType="text/css" height="1115px" preserveAspectRatio="none" style="width:971px;height:1115px;background:#FFFFFF;" version="1.1" viewBox="0 0 971 1115" width="971px" zoomAndPan="magnify"><defs/><g><!--class Juego--><g id="elem_Juego"><rect codeLine="2" fill="#F1F1F1" height="124.2717" id="Juego" rx="2.5" ry="2.5" style="stroke:#181818;stroke-width:0.5;" width="162" x="190.5" y="7"/><ellipse cx="248.25" cy="23" fill="#ADD1B2" rx="11" ry="11" style="stroke:#181818;stroke-width:1.0;"/><path d="M251.2188,28.6406 Q250.6406,28.9375 250,29.0781 Q249.3594,29.2344 248.6563,29.2344 Q246.1563,29.2344 244.8281,27.5938 Q243.5156,25.9375 243.5156,22.8125 Q243.5156,19.6875 244.8281,18.0313 Q246.1563,16.375 248.6563,16.375 Q249.3594,16.375 250,16.5313 Q250.6563,16.6875 251.2188,16.9844 L251.2188,19.7031 Q250.5938,19.125 250,18.8594 Q249.4063,18.5781 248.7813,18.5781 Q247.4375,18.5781 246.75,19.6563 Q246.0625,20.7188 246.0625,22.8125 Q246.0625,24.9063 246.75,25.9844 Q247.4375,27.0469 248.7813,27.0469 Q249.4063,27.0469 250,26.7813 Q250.5938,26.5 251.2188,25.9219 L251.2188,28.6406 Z " fill="#000000"/><text fill="#000000" font-family="sans-serif" font-size="14" lengthAdjust="spacing" textLength="38" x="268.75" y="28.432">Juego</text><line style="stroke:#181818;stroke-width:0.5;" x1="191.5" x2="351.5" y1="39" y2="39"/><rect fill="none" height="6" style="stroke:#C82930;stroke-width:1.0;" width="6" x="198.5" y="51.034"/><text fill="#000000" font-family="sans-serif" font-size="14" lengthAdjust="spacing" textLength="78" x="210.5" y="57.9659">puntaje: int</text><rect fill="none" height="6" style="stroke:#C82930;stroke-width:1.0;" width="6" x="198.5" y="70.1019"/><text fill="#000000" font-family="sans-serif" font-size="14" lengthAdjust="spacing" textLength="61" x="210.5" y="77.0339">vidas: int</text><rect fill="none" height="6" style="stroke:#C82930;stroke-width:1.0;" width="6" x="198.5" y="89.1698"/><text fill="#000000" font-family="sans-serif" font-size="14" lengthAdjust="spacing" textLength="58" x="210.5" y="96.1018">nivel: int</text><rect fill="none" height="6" style="stroke:#C82930;stroke-width:1.0;" width="6" x="198.5" y="108.2377"/><text fill="#000000" font-family="sans-serif" font-size="14" lengthAdjust="spacing" textLength="136" x="210.5" y="115.1697">estado: EstadoJuego</text><line style="stroke:#181818;stroke-width:0.5;" x1="191.5" x2="351.5" y1="123.2717" y2="123.2717"/></g><!--class Laberinto--><g id="elem_Laberinto"><rect codeLine="9" fill="#F1F1F1" height="86.1358" id="Laberinto" rx="2.5" ry="2.5" style="stroke:#181818;stroke-width:0.5;" width="96" x="397.5" y="210"/><ellipse cx="412.5" cy="226" fill="#ADD1B2" rx="11" ry="11" style="stroke:#181818;stroke-width:1.0;"/><path d="M415.4688,231.6406 Q414.8906,231.9375 414.25,232.0781 Q413.6094,232.2344 412.9063,232.2344 Q410.4063,232.2344 409.0781,230.5938 Q407.7656,228.9375 407.7656,225.8125 Q407.7656,222.6875 409.0781,221.0313 Q410.4063,219.375 412.9063,219.375 Q413.6094,219.375 414.25,219.5313 Q414.9063,219.6875 415.4688,219.9844 L415.4688,222.7031 Q414.8438,222.125 414.25,221.8594 Q413.6563,221.5781 413.0313,221.5781 Q411.6875,221.5781 411,222.6563 Q410.3125,223.7188 410.3125,225.8125 Q410.3125,227.9063 411,228.9844 Q411.6875,230.0469 413.0313,230.0469 Q413.6563,230.0469 414.25,229.7813 Q414.8438,229.5 415.4688,228.9219 L415.4688,231.6406 Z " fill="#000000"/><text fill="#000000" font-family="sans-serif" font-size="14" lengthAdjust="spacing" textLength="64" x="426.5" y="231.432">Laberinto</text><line style="stroke:#181818;stroke-width:0.5;" x1="398.5" x2="492.5" y1="242" y2="242"/><rect fill="none" height="6" style="stroke:#C82930;stroke-width:1.0;" width="6" x="405.5" y="254.034"/><text fill="#000000" font-family="sans-serif" font-size="14" lengthAdjust="spacing" textLength="67" x="417.5" y="260.9659">ancho: int</text><rect fill="none" height="6" style="stroke:#C82930;stroke-width:1.0;" width="6" x="405.5" y="273.1019"/><text fill="#000000" font-family="sans-serif" font-size="14" lengthAdjust="spacing" textLength="51" x="417.5" y="280.0339">alto: int</text><line style="stroke:#181818;stroke-width:0.5;" x1="398.5" x2="492.5" y1="288.1358" y2="288.1358"/></g><!--class Casilla--><g id="elem_Casilla"><rect codeLine="14" fill="#F1F1F1" height="124.2717" id="Casilla" rx="2.5" ry="2.5" style="stroke:#181818;stroke-width:0.5;" width="161" x="438" y="375"/><ellipse cx="492.25" cy="391" fill="#ADD1B2" rx="11" ry="11" style="stroke:#181818;stroke-width:1.0;"/><path d="M495.2188,396.6406 Q494.6406,396.9375 494,397.0781 Q493.3594,397.2344 492.6563,397.2344 Q490.1563,397.2344 488.8281,395.5938 Q487.5156,393.9375 487.5156,390.8125 Q487.5156,387.6875 488.8281,386.0313 Q490.1563,384.375 492.6563,384.375 Q493.3594,384.375 494,384.5313 Q494.6563,384.6875 495.2188,384.9844 L495.2188,387.7031 Q494.5938,387.125 494,386.8594 Q493.4063,386.5781 492.7813,386.5781 Q491.4375,386.5781 490.75,387.6563 Q490.0625,388.7188 490.0625,390.8125 Q490.0625,392.9063 490.75,393.9844 Q491.4375,395.0469 492.7813,395.0469 Q493.4063,395.0469 494,394.7813 Q494.5938,394.5 495.2188,393.9219 L495.2188,396.6406 Z " fill="#000000"/><text fill="#000000" font-family="sans-serif" font-size="14" lengthAdjust="spacing" textLength="44" x="512.75" y="396.432">Casilla</text><line style="stroke:#181818;stroke-width:0.5;" x1="439" x2="598" y1="407" y2="407"/><rect fill="none" height="6" style="stroke:#C82930;stroke-width:1.0;" width="6" x="446" y="419.034"/><text fill="#000000" font-family="sans-serif" font-size="14" lengthAdjust="spacing" textLength="33" x="458" y="425.9659">x: int</text><rect fill="none" height="6" style="stroke:#C82930;stroke-width:1.0;" width="6" x="446" y="438.1019"/><text fill="#000000" font-family="sans-serif" font-size="14" lengthAdjust="spacing" textLength="33" x="458" y="445.0339">y: int</text><rect fill="none" height="6" style="stroke:#C82930;stroke-width:1.0;" width="6" x="446" y="457.1698"/><text fill="#000000" font-family="sans-serif" font-size="14" lengthAdjust="spacing" textLength="107" x="458" y="464.1018">tipo: TipoCasilla</text><rect fill="none" height="6" style="stroke:#C82930;stroke-width:1.0;" width="6" x="446" y="476.2377"/><text fill="#000000" font-family="sans-serif" font-size="14" lengthAdjust="spacing" textLength="135" x="458" y="483.1697">transitable: boolean</text><line style="stroke:#181818;stroke-width:0.5;" x1="439" x2="598" y1="491.2717" y2="491.2717"/></g><!--class Pacman--><g id="elem_Pacman"><rect codeLine="21" fill="#F1F1F1" height="105.2038" id="Pacman" rx="2.5" ry="2.5" style="stroke:#181818;stroke-width:0.5;" width="177" x="307" y="809.5"/><ellipse cx="364.75" cy="825.5" fill="#ADD1B2" rx="11" ry="11" style="stroke:#181818;stroke-width:1.0;"/><path d="M367.7188,831.1406 Q367.1406,831.4375 366.5,831.5781 Q365.8594,831.7344 365.1563,831.7344 Q362.6563,831.7344 361.3281,830.0938 Q360.0156,828.4375 360.0156,825.3125 Q360.0156,822.1875 361.3281,820.5313 Q362.6563,818.875 365.1563,818.875 Q365.8594,818.875 366.5,819.0313 Q367.1563,819.1875 367.7188,819.4844 L367.7188,822.2031 Q367.0938,821.625 366.5,821.3594 Q365.9063,821.0781 365.2813,821.0781 Q363.9375,821.0781 363.25,822.1563 Q362.5625,823.2188 362.5625,825.3125 Q362.5625,827.4063 363.25,828.4844 Q363.9375,829.5469 365.2813,829.5469 Q365.9063,829.5469 366.5,829.2813 Q367.0938,829 367.7188,828.4219 L367.7188,831.1406 Z " fill="#000000"/><text fill="#000000" font-family="sans-serif" font-size="14" lengthAdjust="spacing" textLength="53" x="385.25" y="830.932">Pacman</text><line style="stroke:#181818;stroke-width:0.5;" x1="308" x2="483" y1="841.5" y2="841.5"/><rect fill="none" height="6" style="stroke:#C82930;stroke-width:1.0;" width="6" x="315" y="853.534"/><text fill="#000000" font-family="sans-serif" font-size="14" lengthAdjust="spacing" textLength="133" x="327" y="860.4659">direccion: Direccion</text><rect fill="none" height="6" style="stroke:#C82930;stroke-width:1.0;" width="6" x="315" y="872.6019"/><text fill="#000000" font-family="sans-serif" font-size="14" lengthAdjust="spacing" textLength="90" x="327" y="879.5339">velocidad: int</text><rect fill="none" height="6" style="stroke:#C82930;stroke-width:1.0;" width="6" x="315" y="891.6698"/><text fill="#000000" font-family="sans-serif" font-size="14" lengthAdjust="spacing" textLength="151" x="327" y="898.6018">estado: EstadoPacman</text><line style="stroke:#181818;stroke-width:0.5;" x1="308" x2="483" y1="906.7038" y2="906.7038"/></g><!--class Fantasma--><g id="elem_Fantasma"><rect codeLine="27" fill="#F1F1F1" height="143.3396" id="Fantasma" rx="2.5" ry="2.5" style="stroke:#181818;stroke-width:0.5;" width="175" x="43" y="578"/><ellipse cx="93.75" cy="594" fill="#ADD1B2" rx="11" ry="11" style="stroke:#181818;stroke-width:1.0;"/><path d="M96.7188,599.6406 Q96.1406,599.9375 95.5,600.0781 Q94.8594,600.2344 94.1563,600.2344 Q91.6563,600.2344 90.3281,598.5938 Q89.0156,596.9375 89.0156,593.8125 Q89.0156,590.6875 90.3281,589.0313 Q91.6563,587.375 94.1563,587.375 Q94.8594,587.375 95.5,587.5313 Q96.1563,587.6875 96.7188,587.9844 L96.7188,590.7031 Q96.0938,590.125 95.5,589.8594 Q94.9063,589.5781 94.2813,589.5781 Q92.9375,589.5781 92.25,590.6563 Q91.5625,591.7188 91.5625,593.8125 Q91.5625,595.9063 92.25,596.9844 Q92.9375,598.0469 94.2813,598.0469 Q94.9063,598.0469 95.5,597.7813 Q96.0938,597.5 96.7188,596.9219 L96.7188,599.6406 Z " fill="#000000"/><text fill="#000000" font-family="sans-serif" font-size="14" lengthAdjust="spacing" textLength="65" x="114.25" y="599.432">Fantasma</text><line style="stroke:#181818;stroke-width:0.5;" x1="44" x2="217" y1="610" y2="610"/><rect fill="none" height="6" style="stroke:#C82930;stroke-width:1.0;" width="6" x="51" y="622.034"/><text fill="#000000" font-family="sans-serif" font-size="14" lengthAdjust="spacing" textLength="102" x="63" y="628.9659">nombre: String</text><rect fill="none" height="6" style="stroke:#C82930;stroke-width:1.0;" width="6" x="51" y="641.1019"/><text fill="#000000" font-family="sans-serif" font-size="14" lengthAdjust="spacing" textLength="76" x="63" y="648.0339">color: Color</text><rect fill="none" height="6" style="stroke:#C82930;stroke-width:1.0;" width="6" x="51" y="660.1698"/><text fill="#000000" font-family="sans-serif" font-size="14" lengthAdjust="spacing" textLength="133" x="63" y="667.1018">direccion: Direccion</text><rect fill="none" height="6" style="stroke:#C82930;stroke-width:1.0;" width="6" x="51" y="679.2377"/><text fill="#000000" font-family="sans-serif" font-size="14" lengthAdjust="spacing" textLength="90" x="63" y="686.1697">velocidad: int</text><rect fill="none" height="6" style="stroke:#C82930;stroke-width:1.0;" width="6" x="51" y="698.3056"/><text fill="#000000" font-family="sans-serif" font-size="14" lengthAdjust="spacing" textLength="149" x="63" y="705.2376">modo: ModoFantasma</text><line style="stroke:#181818;stroke-width:0.5;" x1="44" x2="217" y1="713.3396" y2="713.3396"/></g><!--class Punto--><g id="elem_Punto"><rect codeLine="35" fill="#F1F1F1" height="67.0679" id="Punto" rx="2.5" ry="2.5" style="stroke:#181818;stroke-width:0.5;" width="85" x="593" y="616"/><ellipse cx="614.3" cy="632" fill="#ADD1B2" rx="11" ry="11" style="stroke:#181818;stroke-width:1.0;"/><path d="M617.2688,637.6406 Q616.6906,637.9375 616.05,638.0781 Q615.4094,638.2344 614.7063,638.2344 Q612.2063,638.2344 610.8781,636.5938 Q609.5656,634.9375 609.5656,631.8125 Q609.5656,628.6875 610.8781,627.0313 Q612.2063,625.375 614.7063,625.375 Q615.4094,625.375 616.05,625.5313 Q616.7063,625.6875 617.2688,625.9844 L617.2688,628.7031 Q616.6438,628.125 616.05,627.8594 Q615.4563,627.5781 614.8313,627.5781 Q613.4875,627.5781 612.8,628.6563 Q612.1125,629.7188 612.1125,631.8125 Q612.1125,633.9063 612.8,634.9844 Q613.4875,636.0469 614.8313,636.0469 Q615.4563,636.0469 616.05,635.7813 Q616.6438,635.5 617.2688,634.9219 L617.2688,637.6406 Z " fill="#000000"/><text fill="#000000" font-family="sans-serif" font-size="14" lengthAdjust="spacing" textLength="39" x="629.7" y="637.432">Punto</text><line style="stroke:#181818;stroke-width:0.5;" x1="594" x2="677" y1="648" y2="648"/><rect fill="none" height="6" style="stroke:#C82930;stroke-width:1.0;" width="6" x="601" y="660.034"/><text fill="#000000" font-family="sans-serif" font-size="14" lengthAdjust="spacing" textLength="59" x="613" y="666.9659">valor: int</text><line style="stroke:#181818;stroke-width:0.5;" x1="594" x2="677" y1="675.0679" y2="675.0679"/></g><!--class PastillaEspecial--><g id="elem_PastillaEspecial"><rect codeLine="39" fill="#F1F1F1" height="86.1358" id="PastillaEspecial" rx="2.5" ry="2.5" style="stroke:#181818;stroke-width:0.5;" width="153" x="668" y="1012.5"/><ellipse cx="691.1" cy="1028.5" fill="#ADD1B2" rx="11" ry="11" style="stroke:#181818;stroke-width:1.0;"/><path d="M694.0688,1034.1406 Q693.4906,1034.4375 692.85,1034.5781 Q692.2094,1034.7344 691.5063,1034.7344 Q689.0063,1034.7344 687.6781,1033.0938 Q686.3656,1031.4375 686.3656,1028.3125 Q686.3656,1025.1875 687.6781,1023.5313 Q689.0063,1021.875 691.5063,1021.875 Q692.2094,1021.875 692.85,1022.0313 Q693.5063,1022.1875 694.0688,1022.4844 L694.0688,1025.2031 Q693.4438,1024.625 692.85,1024.3594 Q692.2563,1024.0781 691.6313,1024.0781 Q690.2875,1024.0781 689.6,1025.1563 Q688.9125,1026.2188 688.9125,1028.3125 Q688.9125,1030.4063 689.6,1031.4844 Q690.2875,1032.5469 691.6313,1032.5469 Q692.2563,1032.5469 692.85,1032.2813 Q693.4438,1032 694.0688,1031.4219 L694.0688,1034.1406 Z " fill="#000000"/><text fill="#000000" font-family="sans-serif" font-size="14" lengthAdjust="spacing" textLength="103" x="706.9" y="1033.932">PastillaEspecial</text><line style="stroke:#181818;stroke-width:0.5;" x1="669" x2="820" y1="1044.5" y2="1044.5"/><rect fill="none" height="6" style="stroke:#C82930;stroke-width:1.0;" width="6" x="676" y="1056.534"/><text fill="#000000" font-family="sans-serif" font-size="14" lengthAdjust="spacing" textLength="59" x="688" y="1063.4659">valor: int</text><rect fill="none" height="6" style="stroke:#C82930;stroke-width:1.0;" width="6" x="676" y="1075.6019"/><text fill="#000000" font-family="sans-serif" font-size="14" lengthAdjust="spacing" textLength="127" x="688" y="1082.5339">duracionEfecto: int</text><line style="stroke:#181818;stroke-width:0.5;" x1="669" x2="820" y1="1090.6358" y2="1090.6358"/></g><!--class Fruta--><g id="elem_Fruta"><rect codeLine="44" fill="#F1F1F1" height="86.1358" id="Fruta" rx="2.5" ry="2.5" style="stroke:#181818;stroke-width:0.5;" width="124" x="324.5" y="606.5"/><ellipse cx="365.15" cy="622.5" fill="#ADD1B2" rx="11" ry="11" style="stroke:#181818;stroke-width:1.0;"/><path d="M368.1188,628.1406 Q367.5406,628.4375 366.9,628.5781 Q366.2594,628.7344 365.5563,628.7344 Q363.0563,628.7344 361.7281,627.0938 Q360.4156,625.4375 360.4156,622.3125 Q360.4156,619.1875 361.7281,617.5313 Q363.0563,615.875 365.5563,615.875 Q366.2594,615.875 366.9,616.0313 Q367.5563,616.1875 368.1188,616.4844 L368.1188,619.2031 Q367.4938,618.625 366.9,618.3594 Q366.3063,618.0781 365.6813,618.0781 Q364.3375,618.0781 363.65,619.1563 Q362.9625,620.2188 362.9625,622.3125 Q362.9625,624.4063 363.65,625.4844 Q364.3375,626.5469 365.6813,626.5469 Q366.3063,626.5469 366.9,626.2813 Q367.4938,626 368.1188,625.4219 L368.1188,628.1406 Z " fill="#000000"/><text fill="#000000" font-family="sans-serif" font-size="14" lengthAdjust="spacing" textLength="35" x="384.85" y="627.932">Fruta</text><line style="stroke:#181818;stroke-width:0.5;" x1="325.5" x2="447.5" y1="638.5" y2="638.5"/><rect fill="none" height="6" style="stroke:#C82930;stroke-width:1.0;" width="6" x="332.5" y="650.534"/><text fill="#000000" font-family="sans-serif" font-size="14" lengthAdjust="spacing" textLength="98" x="344.5" y="657.4659">tipo: TipoFruta</text><rect fill="none" height="6" style="stroke:#C82930;stroke-width:1.0;" width="6" x="332.5" y="669.6019"/><text fill="#000000" font-family="sans-serif" font-size="14" lengthAdjust="spacing" textLength="59" x="344.5" y="676.5339">valor: int</text><line style="stroke:#181818;stroke-width:0.5;" x1="325.5" x2="447.5" y1="684.6358" y2="684.6358"/></g><!--class EstadoJuego--><g id="elem_EstadoJuego"><rect codeLine="49" fill="#F1F1F1" height="105.2038" id="EstadoJuego" rx="2.5" ry="2.5" style="stroke:#181818;stroke-width:0.5;" width="115" x="388" y="16.5"/><ellipse cx="403" cy="32.5" fill="#EB937F" rx="11" ry="11" style="stroke:#181818;stroke-width:1.0;"/><path d="M407.1094,38.5 L399.3906,38.5 L399.3906,26.1094 L407.1094,26.1094 L407.1094,28.2656 L401.8438,28.2656 L401.8438,30.9375 L406.6094,30.9375 L406.6094,33.0938 L401.8438,33.0938 L401.8438,36.3438 L407.1094,36.3438 L407.1094,38.5 Z " fill="#000000"/><text fill="#000000" font-family="sans-serif" font-size="14" lengthAdjust="spacing" textLength="83" x="417" y="37.932">EstadoJuego</text><line style="stroke:#181818;stroke-width:0.5;" x1="389" x2="502" y1="48.5" y2="48.5"/><text fill="#000000" font-family="sans-serif" font-size="14" lengthAdjust="spacing" textLength="72" x="394" y="67.4659">EN_CURSO</text><text fill="#000000" font-family="sans-serif" font-size="14" lengthAdjust="spacing" textLength="65" x="394" y="86.5339">PAUSADO</text><text fill="#000000" font-family="sans-serif" font-size="14" lengthAdjust="spacing" textLength="84" x="394" y="105.6018">TERMINADO</text><line style="stroke:#181818;stroke-width:0.5;" x1="389" x2="502" y1="113.7038" y2="113.7038"/></g><!--class TipoCasilla--><g id="elem_TipoCasilla"><rect codeLine="55" fill="#F1F1F1" height="105.2038" id="TipoCasilla" rx="2.5" ry="2.5" style="stroke:#181818;stroke-width:0.5;" width="105" x="713" y="597"/><ellipse cx="728" cy="613" fill="#EB937F" rx="11" ry="11" style="stroke:#181818;stroke-width:1.0;"/><path d="M732.1094,619 L724.3906,619 L724.3906,606.6094 L732.1094,606.6094 L732.1094,608.7656 L726.8438,608.7656 L726.8438,611.4375 L731.6094,611.4375 L731.6094,613.5938 L726.8438,613.5938 L726.8438,616.8438 L732.1094,616.8438 L732.1094,619 Z " fill="#000000"/><text fill="#000000" font-family="sans-serif" font-size="14" lengthAdjust="spacing" textLength="73" x="742" y="618.432">TipoCasilla</text><line style="stroke:#181818;stroke-width:0.5;" x1="714" x2="817" y1="629" y2="629"/><text fill="#000000" font-family="sans-serif" font-size="14" lengthAdjust="spacing" textLength="40" x="719" y="647.9659">VACIA</text><text fill="#000000" font-family="sans-serif" font-size="14" lengthAdjust="spacing" textLength="43" x="719" y="667.0339">MURO</text><text fill="#000000" font-family="sans-serif" font-size="14" lengthAdjust="spacing" textLength="44" x="719" y="686.1018">TUNEL</text><line style="stroke:#181818;stroke-width:0.5;" x1="714" x2="817" y1="694.2038" y2="694.2038"/></g><!--class EstadoPacman--><g id="elem_EstadoPacman"><rect codeLine="61" fill="#F1F1F1" height="105.2038" id="EstadoPacman" rx="2.5" ry="2.5" style="stroke:#181818;stroke-width:0.5;" width="130" x="330.5" y="1003"/><ellipse cx="345.5" cy="1019" fill="#EB937F" rx="11" ry="11" style="stroke:#181818;stroke-width:1.0;"/><path d="M349.6094,1025 L341.8906,1025 L341.8906,1012.6094 L349.6094,1012.6094 L349.6094,1014.7656 L344.3438,1014.7656 L344.3438,1017.4375 L349.1094,1017.4375 L349.1094,1019.5938 L344.3438,1019.5938 L344.3438,1022.8438 L349.6094,1022.8438 L349.6094,1025 Z " fill="#000000"/><text fill="#000000" font-family="sans-serif" font-size="14" lengthAdjust="spacing" textLength="98" x="359.5" y="1024.432">EstadoPacman</text><line style="stroke:#181818;stroke-width:0.5;" x1="331.5" x2="459.5" y1="1035" y2="1035"/><text fill="#000000" font-family="sans-serif" font-size="14" lengthAdjust="spacing" textLength="60" x="336.5" y="1053.9659">NORMAL</text><text fill="#000000" font-family="sans-serif" font-size="14" lengthAdjust="spacing" textLength="81" x="336.5" y="1073.0339">INVENCIBLE</text><text fill="#000000" font-family="sans-serif" font-size="14" lengthAdjust="spacing" textLength="59" x="336.5" y="1092.1018">MUERTO</text><line style="stroke:#181818;stroke-width:0.5;" x1="331.5" x2="459.5" y1="1100.2038" y2="1100.2038"/></g><!--class ModoFantasma--><g id="elem_ModoFantasma"><rect codeLine="67" fill="#F1F1F1" height="105.2038" id="ModoFantasma" rx="2.5" ry="2.5" style="stroke:#181818;stroke-width:0.5;" width="135" x="7" y="809.5"/><ellipse cx="22" cy="825.5" fill="#EB937F" rx="11" ry="11" style="stroke:#181818;stroke-width:1.0;"/><path d="M26.1094,831.5 L18.3906,831.5 L18.3906,819.1094 L26.1094,819.1094 L26.1094,821.2656 L20.8438,821.2656 L20.8438,823.9375 L25.6094,823.9375 L25.6094,826.0938 L20.8438,826.0938 L20.8438,829.3438 L26.1094,829.3438 L26.1094,831.5 Z " fill="#000000"/><text fill="#000000" font-family="sans-serif" font-size="14" lengthAdjust="spacing" textLength="103" x="36" y="830.932">ModoFantasma</text><line style="stroke:#181818;stroke-width:0.5;" x1="8" x2="141" y1="841.5" y2="841.5"/><text fill="#000000" font-family="sans-serif" font-size="14" lengthAdjust="spacing" textLength="75" x="13" y="860.4659">PERSEGUIR</text><text fill="#000000" font-family="sans-serif" font-size="14" lengthAdjust="spacing" textLength="86" x="13" y="879.5339">VULNERABLE</text><text fill="#000000" font-family="sans-serif" font-size="14" lengthAdjust="spacing" textLength="68" x="13" y="898.6018">HUYENDO</text><line style="stroke:#181818;stroke-width:0.5;" x1="8" x2="141" y1="906.7038" y2="906.7038"/></g><!--class Direccion--><g id="elem_Direccion"><rect codeLine="73" fill="#F1F1F1" height="124.2717" id="Direccion" rx="2.5" ry="2.5" style="stroke:#181818;stroke-width:0.5;" width="95" x="177" y="800"/><ellipse cx="192" cy="816" fill="#EB937F" rx="11" ry="11" style="stroke:#181818;stroke-width:1.0;"/><path d="M196.1094,822 L188.3906,822 L188.3906,809.6094 L196.1094,809.6094 L196.1094,811.7656 L190.8438,811.7656 L190.8438,814.4375 L195.6094,814.4375 L195.6094,816.5938 L190.8438,816.5938 L190.8438,819.8438 L196.1094,819.8438 L196.1094,822 Z " fill="#000000"/><text fill="#000000" font-family="sans-serif" font-size="14" lengthAdjust="spacing" textLength="63" x="206" y="821.432">Direccion</text><line style="stroke:#181818;stroke-width:0.5;" x1="178" x2="271" y1="832" y2="832"/><text fill="#000000" font-family="sans-serif" font-size="14" lengthAdjust="spacing" textLength="50" x="183" y="850.9659">ARRIBA</text><text fill="#000000" font-family="sans-serif" font-size="14" lengthAdjust="spacing" textLength="42" x="183" y="870.0339">ABAJO</text><text fill="#000000" font-family="sans-serif" font-size="14" lengthAdjust="spacing" textLength="75" x="183" y="889.1018">IZQUIERDA</text><text fill="#000000" font-family="sans-serif" font-size="14" lengthAdjust="spacing" textLength="63" x="183" y="908.1697">DERECHA</text><line style="stroke:#181818;stroke-width:0.5;" x1="178" x2="271" y1="916.2717" y2="916.2717"/></g><!--reverse link Juego to Laberinto--><g id="link_Juego_Laberinto"><path codeLine="81" d="M338.2124,139.7839 C362.9924,165.7039 382.96,186.59 405.34,209.99 " fill="none" id="Juego-backto-Laberinto" style="stroke:#181818;stroke-width:1.0;"/><polygon fill="#181818" points="329.92,131.11,331.1749,138.2111,338.2124,139.7839,336.9575,132.6828,329.92,131.11" style="stroke:#181818;stroke-width:1.0;"/><text fill="#000000" font-family="sans-serif" font-size="13" lengthAdjust="spacing" textLength="52" x="374.5" y="175.897">contiene</text></g><!--reverse link Juego to Pacman--><g id="link_Juego_Pacman"><path codeLine="82" d="M271.5,143.08 C271.5,178.41 271.5,211.71 271.5,252 C271.5,252 271.5,252 271.5,650.5 C271.5,710.94 309.92,769.32 343.99,809.2 " fill="none" id="Juego-backto-Pacman" style="stroke:#181818;stroke-width:1.0;"/><polygon fill="#181818" points="271.5,131.08,267.5,137.08,271.5,143.08,275.5,137.08,271.5,131.08" style="stroke:#181818;stroke-width:1.0;"/><text fill="#000000" font-family="sans-serif" font-size="13" lengthAdjust="spacing" textLength="52" x="272.5" y="442.397">gestiona</text></g><!--reverse link Juego to Fantasma--><g id="link_Juego_Fantasma"><path codeLine="83" d="M240.7585,142.3574 C219.8285,193.5474 195.77,257.82 178.5,326 C156.88,411.33 143.82,511.99 136.89,577.87 " fill="none" id="Juego-backto-Fantasma" style="stroke:#181818;stroke-width:1.0;"/><polygon fill="#181818" points="245.3,131.25,239.3268,135.2899,240.7585,142.3574,246.7317,138.3175,245.3,131.25" style="stroke:#181818;stroke-width:1.0;"/><polygon fill="#000000" points="182.34,340.7166,187.2972,332.6001,181.5797,331.2365,182.34,340.7166" style="stroke:#000000;stroke-width:1.0;"/><text fill="#000000" font-family="sans-serif" font-size="13" lengthAdjust="spacing" textLength="52" x="192.5" y="340.897">gestiona</text></g><!--reverse link Laberinto to Casilla--><g id="link_Laberinto_Casilla"><path codeLine="84" d="M466.8974,307.3474 C476.2474,330.6574 483.56,348.9 493.91,374.7 " fill="none" id="Laberinto-backto-Casilla" style="stroke:#181818;stroke-width:1.0;"/><polygon fill="#181818" points="462.43,296.21,460.9512,303.2678,466.8974,307.3474,468.3762,300.2896,462.43,296.21" style="stroke:#181818;stroke-width:1.0;"/><text fill="#000000" font-family="sans-serif" font-size="13" lengthAdjust="spacing" textLength="92" x="482.5" y="340.897">compuesto por</text></g><!--link Casilla to Pacman--><g id="link_Casilla_Pacman"><path codeLine="85" d="M518.71,499.08 C516.84,567.74 507.37,681.23 468.5,770 C462.49,783.73 453.85,797.12 444.61,809.23 " fill="none" id="Casilla-Pacman" style="stroke:#181818;stroke-width:1.0;"/><text fill="#000000" font-family="sans-serif" font-size="13" lengthAdjust="spacing" textLength="37" x="514.5" y="654.897">ocupa</text></g><!--link Casilla to Fantasma--><g id="link_Casilla_Fantasma"><path codeLine="86" d="M437.91,478.24 C407.26,493.8 372.11,511.94 340.5,529 C299.99,550.87 255.61,575.95 218.14,597.47 " fill="none" id="Casilla-Fantasma" style="stroke:#181818;stroke-width:1.0;"/><text fill="#000000" font-family="sans-serif" font-size="13" lengthAdjust="spacing" textLength="37" x="341.5" y="543.897">ocupa</text></g><!--reverse link Casilla to Punto--><g id="link_Casilla_Punto"><path codeLine="87" d="M558.3294,509.659 C579.5094,547.769 600.1,584.81 617.37,615.88 " fill="none" id="Casilla-backto-Punto" style="stroke:#181818;stroke-width:1.0;"/><polygon fill="none" points="552.5,499.17,551.9183,506.3576,558.3294,509.659,558.911,502.4714,552.5,499.17" style="stroke:#181818;stroke-width:1.0;"/><text fill="#000000" font-family="sans-serif" font-size="13" lengthAdjust="spacing" textLength="95" x="577.5" y="543.897">puede contener</text></g><!--reverse link Casilla to PastillaEspecial--><g id="link_Casilla_PastillaEspecial"><path codeLine="88" d="M610.9056,451.0699 C686.4556,465.8899 783.53,498.23 835.5,578 C926.07,717.01 823.36,924.25 771.21,1012.39 " fill="none" id="Casilla-backto-PastillaEspecial" style="stroke:#181818;stroke-width:1.0;"/><polygon fill="none" points="599.13,448.76,604.2478,453.8402,610.9056,451.0699,605.7878,445.9898,599.13,448.76" style="stroke:#181818;stroke-width:1.0;"/><text fill="#000000" font-family="sans-serif" font-size="13" lengthAdjust="spacing" textLength="95" x="868.5" y="765.897">puede contener</text></g><!--reverse link Casilla to Fruta--><g id="link_Casilla_Fruta"><path codeLine="89" d="M428.4646,489.3474 C411.7446,502.2674 405.64,510.63 395.5,529 C382.63,552.31 380.38,582.19 381.35,606.23 " fill="none" id="Casilla-backto-Fruta" style="stroke:#181818;stroke-width:1.0;"/><polygon fill="none" points="437.96,482.01,430.7665,482.5135,428.4646,489.3474,435.6581,488.8438,437.96,482.01" style="stroke:#181818;stroke-width:1.0;"/><text fill="#000000" font-family="sans-serif" font-size="13" lengthAdjust="spacing" textLength="95" x="396.5" y="543.897">puede contener</text></g><!--link Punto to Pacman--><g id="link_Punto_Pacman"><path codeLine="90" d="M615.53,683.08 C598.74,708.73 572.96,744.32 544.5,770 C526.38,786.35 504.93,801.41 484.03,814.38 " fill="none" id="Punto-Pacman" style="stroke:#181818;stroke-width:1.0;"/><polygon fill="#000000" points="570.0382,757.3202,561.561,761.6314,565.7141,765.7909,570.0382,757.3202" style="stroke:#000000;stroke-width:1.0;"/><text fill="#000000" font-family="sans-serif" font-size="13" lengthAdjust="spacing" textLength="54" x="575.5" y="765.897">recolecta</text></g><!--link Pacman to PastillaEspecial--><g id="link_Pacman_PastillaEspecial"><path codeLine="91" d="M484.02,911.57 C540.76,942.71 613.68,982.72 667.93,1012.49 " fill="none" id="Pacman-PastillaEspecial" style="stroke:#181818;stroke-width:1.0;"/><polygon fill="#000000" points="599.8834,966.2584,593.3676,959.3305,590.5399,964.4835,599.8834,966.2584" style="stroke:#000000;stroke-width:1.0;"/><text fill="#000000" font-family="sans-serif" font-size="13" lengthAdjust="spacing" textLength="54" x="604.5" y="968.897">recolecta</text></g><!--link Fruta to Pacman--><g id="link_Fruta_Pacman"><path codeLine="92" d="M388.3,692.59 C389.74,726.19 391.75,773.4 393.29,809.3 " fill="none" id="Fruta-Pacman" style="stroke:#181818;stroke-width:1.0;"/><polygon fill="#000000" points="396.2864,755.8576,393.7365,765.0199,399.609,764.7689,396.2864,755.8576" style="stroke:#000000;stroke-width:1.0;"/><text fill="#000000" font-family="sans-serif" font-size="13" lengthAdjust="spacing" textLength="54" x="405.5" y="765.897">recolecta</text></g><!--link Fantasma to Pacman--><g id="link_Fantasma_Pacman"><path codeLine="93" d="M146.63,721.09 C153.76,739.14 163.96,757.08 178.5,770 C216.7,803.94 242.29,780.43 289.5,800 C296.36,802.85 303.33,806.05 310.25,809.47 " fill="none" id="Fantasma-Pacman" style="stroke:#181818;stroke-width:1.0;"/><polygon fill="#000000" points="187.8992,763.2293,181.3377,756.3448,178.5442,761.5164,187.8992,763.2293" style="stroke:#000000;stroke-width:1.0;"/><text fill="#000000" font-family="sans-serif" font-size="13" lengthAdjust="spacing" textLength="52" x="192.5" y="765.897">persigue</text></g><!--link Juego to EstadoJuego--><g id="link_Juego_EstadoJuego"><path codeLine="96" d="M352.72,69 C364.44,69 376.16,69 387.88,69 " fill="none" id="Juego-EstadoJuego" style="stroke:#181818;stroke-width:1.0;stroke-dasharray:7.0,7.0;"/></g><!--link Casilla to TipoCasilla--><g id="link_Casilla_TipoCasilla"><path codeLine="97" d="M599.08,473.8 C626.99,488.48 657.31,507.19 681.5,529 C702.97,548.36 721.98,574.17 736.46,596.85 " fill="none" id="Casilla-TipoCasilla" style="stroke:#181818;stroke-width:1.0;stroke-dasharray:7.0,7.0;"/></g><!--link Pacman to EstadoPacman--><g id="link_Pacman_EstadoPacman"><path codeLine="98" d="M395.5,914.57 C395.5,941.93 395.5,975.46 395.5,1002.84 " fill="none" id="Pacman-EstadoPacman" style="stroke:#181818;stroke-width:1.0;stroke-dasharray:7.0,7.0;"/></g><!--link Direccion to Pacman--><g id="link_Direccion_Pacman"><path codeLine="99" d="M272.26,862 C283.81,862 295.37,862 306.92,862 " fill="none" id="Direccion-Pacman" style="stroke:#181818;stroke-width:1.0;stroke-dasharray:7.0,7.0;"/></g><!--link Fantasma to ModoFantasma--><g id="link_Fantasma_ModoFantasma"><path codeLine="100" d="M106.25,721.03 C103.13,731.04 100.11,741.24 97.5,751 C92.45,769.85 87.84,790.75 84.09,809.24 " fill="none" id="Fantasma-ModoFantasma" style="stroke:#181818;stroke-width:1.0;stroke-dasharray:7.0,7.0;"/></g><!--link Fantasma to Direccion--><g id="link_Fantasma_Direccion"><path codeLine="101" d="M132.44,721.25 C134.76,737.76 138.77,754.92 145.5,770 C153.01,786.81 164.69,802.82 176.78,816.59 " fill="none" id="Fantasma-Direccion" style="stroke:#181818;stroke-width:1.0;stroke-dasharray:7.0,7.0;"/></g><!--SRC=[dLJBZfim5Dtp5TvLgWGVmA8I8PuEeuH9dJ1IkwaSuwQkZ8sm7RMg-kyrs0RJfBCO5c3xtdFkkGzCE5OAF1bwaU1t0koJzaPe_8FcW0djJgwinIhQ2tQbFDfJfN4hSm2dxqIM_4aICd7ly9aErdNcnu9ybn4QS-stCwR4Yd6E0-9dvFqhMclMM-J9lZt07mzOAARncTiapb9oYiN2VS2amo9GjsoWX30fSh0DIvyqvPBOnDl_9kgO5kO7R0kdkbcsaDrvi1AEskP_SMT4SZdae1m_Rr7GoJ7-thv3j2Wp4rNvYgT0gx8UiD9ZcQ3gAM6Ot_5raio0Hndm6oKtlNaOZ9vJN3em7TyBJONfuidmK5X_BHjqV9usXw8v5bktFa6qh-fn5y1HWptufIYhObhj6-HXJGrt_yHRjRf-HljYDosh-WNMPRNPGSy1qMa95nVNOmyG7U77fa8kUhEh8Ie2_B7v3Ej8xjn53ouGgZPERR4fdfpSwikdfe9ewywt4C7oiHWftW54-LHzgX9NiFTf6lr5EI1IQ4O5ZSm-qnnSx8XQB8viSowB5Nn85iBH9vHt9EzwOzqawEs4XlCuX2Icnx4b2h2soRHD_LJcmBAsTD9kfG-HJtexbwzwkm6ySV7wKhE4j7smFp_HOxx1V3VQFKUpH8hDSx9nINewA7OnrDfN3HpLWN4eGYkp8LlTaY6lB5jTOvuuozOtJJZcMNHLp8Aiz-fUM0njxFyN]--></g></svg>