<?xml version="1.0" encoding="us-ascii" standalone="no"?><svg xmlns="http://www.w3.org/2000/svg" xmlns:xlink="http://www.w3.org/1999/xlink" contentStyleType="text/css" height="189px" preserveAspectRatio="none" style="width:137px;height:189px;background:#FFFFFF;" version="1.1" viewBox="0 0 137 189" width="137px" zoomAndPan="magnify"><defs/><g><!--class Profesor--><g id="elem_Profesor"><rect codeLine="1" fill="#F1F1F1" height="48" id="Profesor" rx="2.5" ry="2.5" style="stroke:#181818;stroke-width:0.5;" width="88" x="22.8314" y="7"/><ellipse cx="37.8314" cy="23" fill="#ADD1B2" rx="11" ry="11" style="stroke:#181818;stroke-width:1.0;"/><path d="M40.8001,28.6406 Q40.222,28.9375 39.5814,29.0781 Q38.9408,29.2344 38.2376,29.2344 Q35.7376,29.2344 34.4095,27.5938 Q33.097,25.9375 33.097,22.8125 Q33.097,19.6875 34.4095,18.0313 Q35.7376,16.375 38.2376,16.375 Q38.9408,16.375 39.5814,16.5313 Q40.2376,16.6875 40.8001,16.9844 L40.8001,19.7031 Q40.1751,19.125 39.5814,18.8594 Q38.9876,18.5781 38.3626,18.5781 Q37.0189,18.5781 36.3314,19.6563 Q35.6439,20.7188 35.6439,22.8125 Q35.6439,24.9063 36.3314,25.9844 Q37.0189,27.0469 38.3626,27.0469 Q38.9876,27.0469 39.5814,26.7813 Q40.1751,26.5 40.8001,25.9219 L40.8001,28.6406 Z " fill="#000000"/><text fill="#000000" font-family="sans-serif" font-size="14" lengthAdjust="spacing" textLength="56" x="51.8314" y="28.432">Profesor</text><line style="stroke:#181818;stroke-width:0.5;" x1="23.8314" x2="109.8314" y1="39" y2="39"/><line style="stroke:#181818;stroke-width:0.5;" x1="23.8314" x2="109.8314" y1="47" y2="47"/></g><!--class Recurso--><g id="elem_Recurso"><rect codeLine="4" fill="#F1F1F1" height="48" id="Recurso" rx="2.5" ry="2.5" style="stroke:#181818;stroke-width:0.5;" width="86" x="23.8314" y="134"/><ellipse cx="38.8314" cy="150" fill="#ADD1B2" rx="11" ry="11" style="stroke:#181818;stroke-width:1.0;"/><path d="M41.8001,155.6406 Q41.222,155.9375 40.5814,156.0781 Q39.9408,156.2344 39.2376,156.2344 Q36.7376,156.2344 35.4095,154.5938 Q34.097,152.9375 34.097,149.8125 Q34.097,146.6875 35.4095,145.0313 Q36.7376,143.375 39.2376,143.375 Q39.9408,143.375 40.5814,143.5313 Q41.2376,143.6875 41.8001,143.9844 L41.8001,146.7031 Q41.1751,146.125 40.5814,145.8594 Q39.9876,145.5781 39.3626,145.5781 Q38.0189,145.5781 37.3314,146.6563 Q36.6439,147.7188 36.6439,149.8125 Q36.6439,151.9063 37.3314,152.9844 Q38.0189,154.0469 39.3626,154.0469 Q39.9876,154.0469 40.5814,153.7813 Q41.1751,153.5 41.8001,152.9219 L41.8001,155.6406 Z " fill="#000000"/><text fill="#000000" font-family="sans-serif" font-size="14" lengthAdjust="spacing" textLength="54" x="52.8314" y="155.432">Recurso</text><line style="stroke:#181818;stroke-width:0.5;" x1="24.8314" x2="108.8314" y1="166" y2="166"/><line style="stroke:#181818;stroke-width:0.5;" x1="24.8314" x2="108.8314" y1="174" y2="174"/></g><!--link Profesor to Recurso--><g id="link_Profesor_Recurso"><path codeLine="7" d="M35.6414,55.23 C26.9014,63.55 18.5114,73.7 13.8314,85 C6.4014,102.92 18.8714,120.51 33.5714,133.82 " fill="none" id="Profesor-Recurso" style="stroke:#181818;stroke-width:1.0;"/><polygon fill="#000000" points="18.6997,99.8513,21.8758,90.8867,16,90.7319,18.6997,99.8513" style="stroke:#000000;stroke-width:1.0;"/><text fill="#000000" font-family="sans-serif" font-size="13" lengthAdjust="spacing" textLength="46" x="27.8314" y="99.897">prefiere</text></g><!--link Profesor to Recurso--><g id="link_Profesor_Recurso"><path codeLine="8" d="M74.0214,55.26 C77.5414,69.32 80.6614,87.63 78.8314,104 C77.7214,113.94 75.4714,124.73 73.2214,133.97 " fill="none" id="Profesor-Recurso-1" style="stroke:#181818;stroke-width:1.0;"/><polygon fill="#000000" points="83.8822,89.8533,80.8515,98.868,86.7291,98.9278,83.8822,89.8533" style="stroke:#000000;stroke-width:1.0;"/><text fill="#000000" font-family="sans-serif" font-size="13" lengthAdjust="spacing" textLength="37" x="92.8314" y="99.897">ofrece</text></g><!--SRC=[Iyv9B2vM22ZAJqijpYzIgEQgvU9A1ei5fIQN5XNdGuJW2dHruH9M2WL5gMcPgKMf2dOu5DWevASLfIQd0W00]--></g></svg>