<?xml version="1.0" encoding="us-ascii" standalone="no"?><svg xmlns="http://www.w3.org/2000/svg" xmlns:xlink="http://www.w3.org/1999/xlink" contentStyleType="text/css" height="189px" preserveAspectRatio="none" style="width:172px;height:189px;background:#FFFFFF;" version="1.1" viewBox="0 0 172 189" width="172px" zoomAndPan="magnify"><defs/><g><!--class Horario--><g id="elem_Horario"><rect codeLine="1" fill="#F1F1F1" height="48" id="Horario" rx="2.5" ry="2.5" style="stroke:#181818;stroke-width:0.5;" width="82" x="30.5" y="7"/><ellipse cx="45.5" cy="23" fill="#ADD1B2" rx="11" ry="11" style="stroke:#181818;stroke-width:1.0;"/><path d="M48.4688,28.6406 Q47.8906,28.9375 47.25,29.0781 Q46.6094,29.2344 45.9063,29.2344 Q43.4063,29.2344 42.0781,27.5938 Q40.7656,25.9375 40.7656,22.8125 Q40.7656,19.6875 42.0781,18.0313 Q43.4063,16.375 45.9063,16.375 Q46.6094,16.375 47.25,16.5313 Q47.9063,16.6875 48.4688,16.9844 L48.4688,19.7031 Q47.8438,19.125 47.25,18.8594 Q46.6563,18.5781 46.0313,18.5781 Q44.6875,18.5781 44,19.6563 Q43.3125,20.7188 43.3125,22.8125 Q43.3125,24.9063 44,25.9844 Q44.6875,27.0469 46.0313,27.0469 Q46.6563,27.0469 47.25,26.7813 Q47.8438,26.5 48.4688,25.9219 L48.4688,28.6406 Z " fill="#000000"/><text fill="#000000" font-family="sans-serif" font-size="14" lengthAdjust="spacing" textLength="50" x="59.5" y="28.432">Horario</text><line style="stroke:#181818;stroke-width:0.5;" x1="31.5" x2="111.5" y1="39" y2="39"/><line style="stroke:#181818;stroke-width:0.5;" x1="31.5" x2="111.5" y1="47" y2="47"/></g><!--class BloqueHorario--><g id="elem_BloqueHorario"><rect codeLine="4" fill="#F1F1F1" height="48" id="BloqueHorario" rx="2.5" ry="2.5" style="stroke:#181818;stroke-width:0.5;" width="129" x="7" y="134"/><ellipse cx="22" cy="150" fill="#ADD1B2" rx="11" ry="11" style="stroke:#181818;stroke-width:1.0;"/><path d="M24.9688,155.6406 Q24.3906,155.9375 23.75,156.0781 Q23.1094,156.2344 22.4063,156.2344 Q19.9063,156.2344 18.5781,154.5938 Q17.2656,152.9375 17.2656,149.8125 Q17.2656,146.6875 18.5781,145.0313 Q19.9063,143.375 22.4063,143.375 Q23.1094,143.375 23.75,143.5313 Q24.4063,143.6875 24.9688,143.9844 L24.9688,146.7031 Q24.3438,146.125 23.75,145.8594 Q23.1563,145.5781 22.5313,145.5781 Q21.1875,145.5781 20.5,146.6563 Q19.8125,147.7188 19.8125,149.8125 Q19.8125,151.9063 20.5,152.9844 Q21.1875,154.0469 22.5313,154.0469 Q23.1563,154.0469 23.75,153.7813 Q24.3438,153.5 24.9688,152.9219 L24.9688,155.6406 Z " fill="#000000"/><text fill="#000000" font-family="sans-serif" font-size="14" lengthAdjust="spacing" textLength="97" x="36" y="155.432">BloqueHorario</text><line style="stroke:#181818;stroke-width:0.5;" x1="8" x2="135" y1="166" y2="166"/><line style="stroke:#181818;stroke-width:0.5;" x1="8" x2="135" y1="174" y2="174"/></g><!--reverse link Horario to BloqueHorario--><g id="link_Horario_BloqueHorario"><path codeLine="7" d="M71.5,67.22 C71.5,89.67 71.5,111.5 71.5,133.91 " fill="none" id="Horario-backto-BloqueHorario" style="stroke:#181818;stroke-width:1.0;"/><polygon fill="#181818" points="71.5,55.22,67.5,61.22,71.5,67.22,75.5,61.22,71.5,55.22" style="stroke:#181818;stroke-width:1.0;"/><text fill="#000000" font-family="sans-serif" font-size="13" lengthAdjust="spacing" textLength="92" x="72.5" y="99.897">compuesto por</text></g><!--SRC=[Iyv9B2vMyCWlIYpAp5Uevghbuae62pdbv1UMfg98m3XQkhfeqbOAoVcv1QMfnINv2WNvHG00]--></g></svg>