<?xml version="1.0" encoding="us-ascii" standalone="no"?><svg xmlns="http://www.w3.org/2000/svg" xmlns:xlink="http://www.w3.org/1999/xlink" contentStyleType="text/css" height="316px" preserveAspectRatio="none" style="width:187px;height:316px;background:#FFFFFF;" version="1.1" viewBox="0 0 187 316" width="187px" zoomAndPan="magnify"><defs/><g><!--class CampusUniversitario--><g id="elem_CampusUniversitario"><rect codeLine="1" fill="#F1F1F1" height="48" id="CampusUniversitario" rx="2.5" ry="2.5" style="stroke:#181818;stroke-width:0.5;" width="173" x="7" y="7"/><ellipse cx="22" cy="23" fill="#ADD1B2" rx="11" ry="11" style="stroke:#181818;stroke-width:1.0;"/><path d="M24.9688,28.6406 Q24.3906,28.9375 23.75,29.0781 Q23.1094,29.2344 22.4063,29.2344 Q19.9063,29.2344 18.5781,27.5938 Q17.2656,25.9375 17.2656,22.8125 Q17.2656,19.6875 18.5781,18.0313 Q19.9063,16.375 22.4063,16.375 Q23.1094,16.375 23.75,16.5313 Q24.4063,16.6875 24.9688,16.9844 L24.9688,19.7031 Q24.3438,19.125 23.75,18.8594 Q23.1563,18.5781 22.5313,18.5781 Q21.1875,18.5781 20.5,19.6563 Q19.8125,20.7188 19.8125,22.8125 Q19.8125,24.9063 20.5,25.9844 Q21.1875,27.0469 22.5313,27.0469 Q23.1563,27.0469 23.75,26.7813 Q24.3438,26.5 24.9688,25.9219 L24.9688,28.6406 Z " fill="#000000"/><text fill="#000000" font-family="sans-serif" font-size="14" lengthAdjust="spacing" textLength="141" x="36" y="28.432">CampusUniversitario</text><line style="stroke:#181818;stroke-width:0.5;" x1="8" x2="179" y1="39" y2="39"/><line style="stroke:#181818;stroke-width:0.5;" x1="8" x2="179" y1="47" y2="47"/></g><!--class Edificio--><g id="elem_Edificio"><rect codeLine="4" fill="#F1F1F1" height="48" id="Edificio" rx="2.5" ry="2.5" style="stroke:#181818;stroke-width:0.5;" width="81" x="53" y="134"/><ellipse cx="68" cy="150" fill="#ADD1B2" rx="11" ry="11" style="stroke:#181818;stroke-width:1.0;"/><path d="M70.9688,155.6406 Q70.3906,155.9375 69.75,156.0781 Q69.1094,156.2344 68.4063,156.2344 Q65.9063,156.2344 64.5781,154.5938 Q63.2656,152.9375 63.2656,149.8125 Q63.2656,146.6875 64.5781,145.0313 Q65.9063,143.375 68.4063,143.375 Q69.1094,143.375 69.75,143.5313 Q70.4063,143.6875 70.9688,143.9844 L70.9688,146.7031 Q70.3438,146.125 69.75,145.8594 Q69.1563,145.5781 68.5313,145.5781 Q67.1875,145.5781 66.5,146.6563 Q65.8125,147.7188 65.8125,149.8125 Q65.8125,151.9063 66.5,152.9844 Q67.1875,154.0469 68.5313,154.0469 Q69.1563,154.0469 69.75,153.7813 Q70.3438,153.5 70.9688,152.9219 L70.9688,155.6406 Z " fill="#000000"/><text fill="#000000" font-family="sans-serif" font-size="14" lengthAdjust="spacing" textLength="49" x="82" y="155.432">Edificio</text><line style="stroke:#181818;stroke-width:0.5;" x1="54" x2="133" y1="166" y2="166"/><line style="stroke:#181818;stroke-width:0.5;" x1="54" x2="133" y1="174" y2="174"/></g><!--class Aula--><g id="elem_Aula"><rect codeLine="7" fill="#F1F1F1" height="48" id="Aula" rx="2.5" ry="2.5" style="stroke:#181818;stroke-width:0.5;" width="62" x="62.5" y="261"/><ellipse cx="77.5" cy="277" fill="#ADD1B2" rx="11" ry="11" style="stroke:#181818;stroke-width:1.0;"/><path d="M80.4688,282.6406 Q79.8906,282.9375 79.25,283.0781 Q78.6094,283.2344 77.9063,283.2344 Q75.4063,283.2344 74.0781,281.5938 Q72.7656,279.9375 72.7656,276.8125 Q72.7656,273.6875 74.0781,272.0313 Q75.4063,270.375 77.9063,270.375 Q78.6094,270.375 79.25,270.5313 Q79.9063,270.6875 80.4688,270.9844 L80.4688,273.7031 Q79.8438,273.125 79.25,272.8594 Q78.6563,272.5781 78.0313,272.5781 Q76.6875,272.5781 76,273.6563 Q75.3125,274.7188 75.3125,276.8125 Q75.3125,278.9063 76,279.9844 Q76.6875,281.0469 78.0313,281.0469 Q78.6563,281.0469 79.25,280.7813 Q79.8438,280.5 80.4688,279.9219 L80.4688,282.6406 Z " fill="#000000"/><text fill="#000000" font-family="sans-serif" font-size="14" lengthAdjust="spacing" textLength="30" x="91.5" y="282.432">Aula</text><line style="stroke:#181818;stroke-width:0.5;" x1="63.5" x2="123.5" y1="293" y2="293"/><line style="stroke:#181818;stroke-width:0.5;" x1="63.5" x2="123.5" y1="301" y2="301"/></g><!--reverse link CampusUniversitario to Edificio--><g id="link_CampusUniversitario_Edificio"><path codeLine="10" d="M93.5,67.22 C93.5,89.67 93.5,111.5 93.5,133.91 " fill="none" id="CampusUniversitario-backto-Edificio" style="stroke:#181818;stroke-width:1.0;"/><polygon fill="#181818" points="93.5,55.22,89.5,61.22,93.5,67.22,97.5,61.22,93.5,55.22" style="stroke:#181818;stroke-width:1.0;"/><text fill="#000000" font-family="sans-serif" font-size="13" lengthAdjust="spacing" textLength="52" x="94.5" y="99.897">contiene</text></g><!--reverse link Edificio to Aula--><g id="link_Edificio_Aula"><path codeLine="11" d="M93.5,194.22 C93.5,216.67 93.5,238.5 93.5,260.91 " fill="none" id="Edificio-backto-Aula" style="stroke:#181818;stroke-width:1.0;"/><polygon fill="#181818" points="93.5,182.22,89.5,188.22,93.5,194.22,97.5,188.22,93.5,182.22" style="stroke:#181818;stroke-width:1.0;"/><text fill="#000000" font-family="sans-serif" font-size="13" lengthAdjust="spacing" textLength="52" x="94.5" y="226.897">contiene</text></g><!--SRC=[Iyv9B2vMS4xCBIWj3itBB4ijAiuiIIpAp5Uevghbuae6IxkcPAPb9gEAEPRc94Bus3HhwUeYT5af9EVdbMIcvgLomSL02i1682G1]--></g></svg>