<?xml version="1.0" encoding="us-ascii" standalone="no"?><svg xmlns="http://www.w3.org/2000/svg" xmlns:xlink="http://www.w3.org/1999/xlink" contentStyleType="text/css" height="443px" preserveAspectRatio="none" style="width:687px;height:443px;background:#FFFFFF;" version="1.1" viewBox="0 0 687 443" width="687px" zoomAndPan="magnify"><defs/><g><!--class Horario--><g id="elem_Horario"><rect codeLine="1" fill="#F1F1F1" height="48" id="Horario" rx="2.5" ry="2.5" style="stroke:#181818;stroke-width:0.5;" width="82" x="248.04" y="134"/><ellipse cx="263.04" cy="150" fill="#ADD1B2" rx="11" ry="11" style="stroke:#181818;stroke-width:1.0;"/><path d="M266.0087,155.6406 Q265.4306,155.9375 264.79,156.0781 Q264.1494,156.2344 263.4462,156.2344 Q260.9462,156.2344 259.6181,154.5938 Q258.3056,152.9375 258.3056,149.8125 Q258.3056,146.6875 259.6181,145.0313 Q260.9462,143.375 263.4462,143.375 Q264.1494,143.375 264.79,143.5313 Q265.4462,143.6875 266.0087,143.9844 L266.0087,146.7031 Q265.3837,146.125 264.79,145.8594 Q264.1962,145.5781 263.5712,145.5781 Q262.2275,145.5781 261.54,146.6563 Q260.8525,147.7188 260.8525,149.8125 Q260.8525,151.9063 261.54,152.9844 Q262.2275,154.0469 263.5712,154.0469 Q264.1962,154.0469 264.79,153.7813 Q265.3837,153.5 266.0087,152.9219 L266.0087,155.6406 Z " fill="#000000"/><text fill="#000000" font-family="sans-serif" font-size="14" lengthAdjust="spacing" textLength="50" x="277.04" y="155.432">Horario</text><line style="stroke:#181818;stroke-width:0.5;" x1="249.04" x2="329.04" y1="166" y2="166"/><line style="stroke:#181818;stroke-width:0.5;" x1="249.04" x2="329.04" y1="174" y2="174"/></g><!--class CampusUniversitario--><g id="elem_CampusUniversitario"><rect codeLine="3" fill="#F1F1F1" height="48" id="CampusUniversitario" rx="2.5" ry="2.5" style="stroke:#181818;stroke-width:0.5;" width="173" x="507.54" y="7"/><ellipse cx="522.54" cy="23" fill="#ADD1B2" rx="11" ry="11" style="stroke:#181818;stroke-width:1.0;"/><path d="M525.5088,28.6406 Q524.9306,28.9375 524.29,29.0781 Q523.6494,29.2344 522.9463,29.2344 Q520.4463,29.2344 519.1181,27.5938 Q517.8056,25.9375 517.8056,22.8125 Q517.8056,19.6875 519.1181,18.0313 Q520.4463,16.375 522.9463,16.375 Q523.6494,16.375 524.29,16.5313 Q524.9463,16.6875 525.5088,16.9844 L525.5088,19.7031 Q524.8838,19.125 524.29,18.8594 Q523.6963,18.5781 523.0713,18.5781 Q521.7275,18.5781 521.04,19.6563 Q520.3525,20.7188 520.3525,22.8125 Q520.3525,24.9063 521.04,25.9844 Q521.7275,27.0469 523.0713,27.0469 Q523.6963,27.0469 524.29,26.7813 Q524.8838,26.5 525.5088,25.9219 L525.5088,28.6406 Z " fill="#000000"/><text fill="#000000" font-family="sans-serif" font-size="14" lengthAdjust="spacing" textLength="141" x="536.54" y="28.432">CampusUniversitario</text><line style="stroke:#181818;stroke-width:0.5;" x1="508.54" x2="679.54" y1="39" y2="39"/><line style="stroke:#181818;stroke-width:0.5;" x1="508.54" x2="679.54" y1="47" y2="47"/></g><!--class Edificio--><g id="elem_Edificio"><rect codeLine="4" fill="#F1F1F1" height="48" id="Edificio" rx="2.5" ry="2.5" style="stroke:#181818;stroke-width:0.5;" width="81" x="553.54" y="134"/><ellipse cx="568.54" cy="150" fill="#ADD1B2" rx="11" ry="11" style="stroke:#181818;stroke-width:1.0;"/><path d="M571.5088,155.6406 Q570.9306,155.9375 570.29,156.0781 Q569.6494,156.2344 568.9463,156.2344 Q566.4463,156.2344 565.1181,154.5938 Q563.8056,152.9375 563.8056,149.8125 Q563.8056,146.6875 565.1181,145.0313 Q566.4463,143.375 568.9463,143.375 Q569.6494,143.375 570.29,143.5313 Q570.9463,143.6875 571.5088,143.9844 L571.5088,146.7031 Q570.8838,146.125 570.29,145.8594 Q569.6963,145.5781 569.0713,145.5781 Q567.7275,145.5781 567.04,146.6563 Q566.3525,147.7188 566.3525,149.8125 Q566.3525,151.9063 567.04,152.9844 Q567.7275,154.0469 569.0713,154.0469 Q569.6963,154.0469 570.29,153.7813 Q570.8838,153.5 571.5088,152.9219 L571.5088,155.6406 Z " fill="#000000"/><text fill="#000000" font-family="sans-serif" font-size="14" lengthAdjust="spacing" textLength="49" x="582.54" y="155.432">Edificio</text><line style="stroke:#181818;stroke-width:0.5;" x1="554.54" x2="633.54" y1="166" y2="166"/><line style="stroke:#181818;stroke-width:0.5;" x1="554.54" x2="633.54" y1="174" y2="174"/></g><!--class Aula--><g id="elem_Aula"><rect codeLine="5" fill="#F1F1F1" height="48" id="Aula" rx="2.5" ry="2.5" style="stroke:#181818;stroke-width:0.5;" width="62" x="509.04" y="261"/><ellipse cx="524.04" cy="277" fill="#ADD1B2" rx="11" ry="11" style="stroke:#181818;stroke-width:1.0;"/><path d="M527.0088,282.6406 Q526.4306,282.9375 525.79,283.0781 Q525.1494,283.2344 524.4463,283.2344 Q521.9463,283.2344 520.6181,281.5938 Q519.3056,279.9375 519.3056,276.8125 Q519.3056,273.6875 520.6181,272.0313 Q521.9463,270.375 524.4463,270.375 Q525.1494,270.375 525.79,270.5313 Q526.4463,270.6875 527.0088,270.9844 L527.0088,273.7031 Q526.3838,273.125 525.79,272.8594 Q525.1963,272.5781 524.5713,272.5781 Q523.2275,272.5781 522.54,273.6563 Q521.8525,274.7188 521.8525,276.8125 Q521.8525,278.9063 522.54,279.9844 Q523.2275,281.0469 524.5713,281.0469 Q525.1963,281.0469 525.79,280.7813 Q526.3838,280.5 527.0088,279.9219 L527.0088,282.6406 Z " fill="#000000"/><text fill="#000000" font-family="sans-serif" font-size="14" lengthAdjust="spacing" textLength="30" x="538.04" y="282.432">Aula</text><line style="stroke:#181818;stroke-width:0.5;" x1="510.04" x2="570.04" y1="293" y2="293"/><line style="stroke:#181818;stroke-width:0.5;" x1="510.04" x2="570.04" y1="301" y2="301"/></g><!--class Profesor--><g id="elem_Profesor"><rect codeLine="6" fill="#F1F1F1" height="48" id="Profesor" rx="2.5" ry="2.5" style="stroke:#181818;stroke-width:0.5;" width="88" x="56.04" y="261"/><ellipse cx="71.04" cy="277" fill="#ADD1B2" rx="11" ry="11" style="stroke:#181818;stroke-width:1.0;"/><path d="M74.0087,282.6406 Q73.4306,282.9375 72.79,283.0781 Q72.1494,283.2344 71.4462,283.2344 Q68.9462,283.2344 67.6181,281.5938 Q66.3056,279.9375 66.3056,276.8125 Q66.3056,273.6875 67.6181,272.0313 Q68.9462,270.375 71.4462,270.375 Q72.1494,270.375 72.79,270.5313 Q73.4462,270.6875 74.0087,270.9844 L74.0087,273.7031 Q73.3837,273.125 72.79,272.8594 Q72.1962,272.5781 71.5712,272.5781 Q70.2275,272.5781 69.54,273.6563 Q68.8525,274.7188 68.8525,276.8125 Q68.8525,278.9063 69.54,279.9844 Q70.2275,281.0469 71.5712,281.0469 Q72.1962,281.0469 72.79,280.7813 Q73.3837,280.5 74.0087,279.9219 L74.0087,282.6406 Z " fill="#000000"/><text fill="#000000" font-family="sans-serif" font-size="14" lengthAdjust="spacing" textLength="56" x="85.04" y="282.432">Profesor</text><line style="stroke:#181818;stroke-width:0.5;" x1="57.04" x2="143.04" y1="293" y2="293"/><line style="stroke:#181818;stroke-width:0.5;" x1="57.04" x2="143.04" y1="301" y2="301"/></g><!--class Recurso--><g id="elem_Recurso"><rect codeLine="7" fill="#F1F1F1" height="48" id="Recurso" rx="2.5" ry="2.5" style="stroke:#181818;stroke-width:0.5;" width="86" x="11.04" y="388"/><ellipse cx="26.04" cy="404" fill="#ADD1B2" rx="11" ry="11" style="stroke:#181818;stroke-width:1.0;"/><path d="M29.0088,409.6406 Q28.4306,409.9375 27.79,410.0781 Q27.1494,410.2344 26.4463,410.2344 Q23.9463,410.2344 22.6181,408.5938 Q21.3056,406.9375 21.3056,403.8125 Q21.3056,400.6875 22.6181,399.0313 Q23.9463,397.375 26.4463,397.375 Q27.1494,397.375 27.79,397.5313 Q28.4463,397.6875 29.0088,397.9844 L29.0088,400.7031 Q28.3838,400.125 27.79,399.8594 Q27.1963,399.5781 26.5713,399.5781 Q25.2275,399.5781 24.54,400.6563 Q23.8525,401.7188 23.8525,403.8125 Q23.8525,405.9063 24.54,406.9844 Q25.2275,408.0469 26.5713,408.0469 Q27.1963,408.0469 27.79,407.7813 Q28.3838,407.5 29.0088,406.9219 L29.0088,409.6406 Z " fill="#000000"/><text fill="#000000" font-family="sans-serif" font-size="14" lengthAdjust="spacing" textLength="54" x="40.04" y="409.432">Recurso</text><line style="stroke:#181818;stroke-width:0.5;" x1="12.04" x2="96.04" y1="420" y2="420"/><line style="stroke:#181818;stroke-width:0.5;" x1="12.04" x2="96.04" y1="428" y2="428"/></g><!--class Curso--><g id="elem_Curso"><rect codeLine="8" fill="#F1F1F1" height="48" id="Curso" rx="2.5" ry="2.5" style="stroke:#181818;stroke-width:0.5;" width="71" x="182.54" y="261"/><ellipse cx="197.54" cy="277" fill="#ADD1B2" rx="11" ry="11" style="stroke:#181818;stroke-width:1.0;"/><path d="M200.5088,282.6406 Q199.9306,282.9375 199.29,283.0781 Q198.6494,283.2344 197.9463,283.2344 Q195.4463,283.2344 194.1181,281.5938 Q192.8056,279.9375 192.8056,276.8125 Q192.8056,273.6875 194.1181,272.0313 Q195.4463,270.375 197.9463,270.375 Q198.6494,270.375 199.29,270.5313 Q199.9463,270.6875 200.5088,270.9844 L200.5088,273.7031 Q199.8838,273.125 199.29,272.8594 Q198.6963,272.5781 198.0713,272.5781 Q196.7275,272.5781 196.04,273.6563 Q195.3525,274.7188 195.3525,276.8125 Q195.3525,278.9063 196.04,279.9844 Q196.7275,281.0469 198.0713,281.0469 Q198.6963,281.0469 199.29,280.7813 Q199.8838,280.5 200.5088,279.9219 L200.5088,282.6406 Z " fill="#000000"/><text fill="#000000" font-family="sans-serif" font-size="14" lengthAdjust="spacing" textLength="39" x="211.54" y="282.432">Curso</text><line style="stroke:#181818;stroke-width:0.5;" x1="183.54" x2="252.54" y1="293" y2="293"/><line style="stroke:#181818;stroke-width:0.5;" x1="183.54" x2="252.54" y1="301" y2="301"/></g><!--class Programa--><g id="elem_Programa"><rect codeLine="9" fill="#F1F1F1" height="48" id="Programa" rx="2.5" ry="2.5" style="stroke:#181818;stroke-width:0.5;" width="98" x="169.04" y="388"/><ellipse cx="184.04" cy="404" fill="#ADD1B2" rx="11" ry="11" style="stroke:#181818;stroke-width:1.0;"/><path d="M187.0088,409.6406 Q186.4306,409.9375 185.79,410.0781 Q185.1494,410.2344 184.4463,410.2344 Q181.9463,410.2344 180.6181,408.5938 Q179.3056,406.9375 179.3056,403.8125 Q179.3056,400.6875 180.6181,399.0313 Q181.9463,397.375 184.4463,397.375 Q185.1494,397.375 185.79,397.5313 Q186.4463,397.6875 187.0088,397.9844 L187.0088,400.7031 Q186.3838,400.125 185.79,399.8594 Q185.1963,399.5781 184.5713,399.5781 Q183.2275,399.5781 182.54,400.6563 Q181.8525,401.7188 181.8525,403.8125 Q181.8525,405.9063 182.54,406.9844 Q183.2275,408.0469 184.5713,408.0469 Q185.1963,408.0469 185.79,407.7813 Q186.3838,407.5 187.0088,406.9219 L187.0088,409.6406 Z " fill="#000000"/><text fill="#000000" font-family="sans-serif" font-size="14" lengthAdjust="spacing" textLength="66" x="198.04" y="409.432">Programa</text><line style="stroke:#181818;stroke-width:0.5;" x1="170.04" x2="266.04" y1="420" y2="420"/><line style="stroke:#181818;stroke-width:0.5;" x1="170.04" x2="266.04" y1="428" y2="428"/></g><!--class BloqueHorario--><g id="elem_BloqueHorario"><rect codeLine="10" fill="#F1F1F1" height="48" id="BloqueHorario" rx="2.5" ry="2.5" style="stroke:#181818;stroke-width:0.5;" width="129" x="288.54" y="261"/><ellipse cx="303.54" cy="277" fill="#ADD1B2" rx="11" ry="11" style="stroke:#181818;stroke-width:1.0;"/><path d="M306.5088,282.6406 Q305.9306,282.9375 305.29,283.0781 Q304.6494,283.2344 303.9463,283.2344 Q301.4463,283.2344 300.1181,281.5938 Q298.8056,279.9375 298.8056,276.8125 Q298.8056,273.6875 300.1181,272.0313 Q301.4463,270.375 303.9463,270.375 Q304.6494,270.375 305.29,270.5313 Q305.9463,270.6875 306.5088,270.9844 L306.5088,273.7031 Q305.8838,273.125 305.29,272.8594 Q304.6963,272.5781 304.0713,272.5781 Q302.7275,272.5781 302.04,273.6563 Q301.3525,274.7188 301.3525,276.8125 Q301.3525,278.9063 302.04,279.9844 Q302.7275,281.0469 304.0713,281.0469 Q304.6963,281.0469 305.29,280.7813 Q305.8838,280.5 306.5088,279.9219 L306.5088,282.6406 Z " fill="#000000"/><text fill="#000000" font-family="sans-serif" font-size="14" lengthAdjust="spacing" textLength="97" x="317.54" y="282.432">BloqueHorario</text><line style="stroke:#181818;stroke-width:0.5;" x1="289.54" x2="416.54" y1="293" y2="293"/><line style="stroke:#181818;stroke-width:0.5;" x1="289.54" x2="416.54" y1="301" y2="301"/></g><!--reverse link CampusUniversitario to Edificio--><g id="link_CampusUniversitario_Edificio"><path codeLine="12" d="M594.04,67.22 C594.04,89.67 594.04,111.5 594.04,133.91 " fill="none" id="CampusUniversitario-backto-Edificio" style="stroke:#181818;stroke-width:1.0;"/><polygon fill="#181818" points="594.04,55.22,590.04,61.22,594.04,67.22,598.04,61.22,594.04,55.22" style="stroke:#181818;stroke-width:1.0;"/><text fill="#000000" font-family="sans-serif" font-size="13" lengthAdjust="spacing" textLength="52" x="595.04" y="99.897">contiene</text></g><!--reverse link Edificio to Aula--><g id="link_Edificio_Aula"><path codeLine="13" d="M579.2504,193.2357 C569.5504,215.6857 559.7,238.5 550.02,260.91 " fill="none" id="Edificio-backto-Aula" style="stroke:#181818;stroke-width:1.0;"/><polygon fill="#181818" points="584.01,182.22,577.9583,186.1413,579.2504,193.2357,585.3021,189.3144,584.01,182.22" style="stroke:#181818;stroke-width:1.0;"/><text fill="#000000" font-family="sans-serif" font-size="13" lengthAdjust="spacing" textLength="52" x="571.04" y="226.897">contiene</text></g><!--reverse link Horario to BloqueHorario--><g id="link_Horario_BloqueHorario"><path codeLine="14" d="M306.3972,192.9022 C317.8872,215.3522 329.74,238.5 341.22,260.91 " fill="none" id="Horario-backto-BloqueHorario" style="stroke:#181818;stroke-width:1.0;"/><polygon fill="#181818" points="300.93,182.22,300.1029,189.3835,306.3972,192.9022,307.2243,185.7387,300.93,182.22" style="stroke:#181818;stroke-width:1.0;"/><text fill="#000000" font-family="sans-serif" font-size="13" lengthAdjust="spacing" textLength="92" x="325.04" y="226.897">compuesto por</text></g><!--link Horario to Aula--><g id="link_Horario_Aula"><path codeLine="15" d="M330.1,172.53 C357.79,182.22 394.83,196.29 426.04,212 C455.11,226.63 486.22,246.6 508.58,261.79 " fill="none" id="Horario-Aula" style="stroke:#181818;stroke-width:1.0;"/><text fill="#000000" font-family="sans-serif" font-size="13" lengthAdjust="spacing" textLength="65" x="459.04" y="226.897">asignado a</text></g><!--link Horario to Profesor--><g id="link_Horario_Profesor"><path codeLine="16" d="M247.76,161.71 C210.41,166.33 156.31,178.74 123.04,212 C110.14,224.9 104.47,245.02 101.98,260.71 " fill="none" id="Horario-Profesor" style="stroke:#181818;stroke-width:1.0;"/><text fill="#000000" font-family="sans-serif" font-size="13" lengthAdjust="spacing" textLength="83" x="124.04" y="226.897">impartido por</text></g><!--link Horario to Curso--><g id="link_Horario_Curso"><path codeLine="17" d="M247.76,182.11 C237.21,190.14 227.13,200.15 221.04,212 C213.37,226.91 212.91,245.94 214.21,260.69 " fill="none" id="Horario-Curso" style="stroke:#181818;stroke-width:1.0;"/><text fill="#000000" font-family="sans-serif" font-size="13" lengthAdjust="spacing" textLength="86" x="222.04" y="226.897">corresponde a</text></g><!--link Profesor to Recurso--><g id="link_Profesor_Recurso"><path codeLine="18" d="M91.5,309.22 C83.23,331.67 70.79,365.5 62.54,387.91 " fill="none" id="Profesor-Recurso" style="stroke:#181818;stroke-width:1.0;"/><polygon fill="#000000" points="83.3131,353.5453,89.1952,346.0719,83.679,344.0418,83.3131,353.5453" style="stroke:#000000;stroke-width:1.0;"/><text fill="#000000" font-family="sans-serif" font-size="13" lengthAdjust="spacing" textLength="46" x="94.04" y="353.897">prefiere</text></g><!--link Profesor to Recurso--><g id="link_Profesor_Recurso"><path codeLine="19" d="M55.9,302.66 C40.1,311.02 23.98,322.88 15.04,339 C6,355.28 16.43,373.76 28.76,387.91 " fill="none" id="Profesor-Recurso-1" style="stroke:#181818;stroke-width:1.0;"/><polygon fill="#000000" points="21.5568,344.0886,16.0125,351.8159,21.6133,353.599,21.5568,344.0886" style="stroke:#000000;stroke-width:1.0;"/><text fill="#000000" font-family="sans-serif" font-size="13" lengthAdjust="spacing" textLength="37" x="29.04" y="353.897">ofrece</text></g><!--link Curso to Programa--><g id="link_Curso_Programa"><path codeLine="20" d="M218.04,309.22 C218.04,331.67 218.04,365.5 218.04,387.91 " fill="none" id="Curso-Programa" style="stroke:#181818;stroke-width:1.0;"/><text fill="#000000" font-family="sans-serif" font-size="13" lengthAdjust="spacing" textLength="70" x="219.04" y="353.897">pertenece a</text></g><!--SRC=[TL3HYi9037plL-HPy0Va4Ev4yF4G_82mJINGRjPaw_TVkjtM2kTRafdCJ19wD8EBA2fBquJIdd18ezqYFqcDSu5cvDnonu45e0w-nnvh-QlIaOdMzafXL5iMJvlQYNV5OTdxwUKnqXhX7tFOxVSlwmC4YPafKhFE9i8KPGjMnOAzUHIIcv1bWUI1b_bB18tl4Li1t8BBXKxW8Q5cRek0VsF3AgSM3rMo9B4bbrbtdL5Vuvoar34fmV43uGkaKmhKpAfpYFAzQPiq-wN1zVy0]--></g></svg>