<?xml version="1.0" encoding="us-ascii" standalone="no"?><svg xmlns="http://www.w3.org/2000/svg" xmlns:xlink="http://www.w3.org/1999/xlink" contentStyleType="text/css" height="601px" preserveAspectRatio="none" style="width:847px;height:601px;background:#FFFFFF;" version="1.1" viewBox="0 0 847 601" width="847px" zoomAndPan="magnify"><defs/><g><!--class Juego--><g id="elem_Juego"><rect fill="#F1F1F1" height="32" id="Juego" rx="2.5" ry="2.5" style="stroke:#181818;stroke-width:0.5;" width="70" x="227.5" y="7"/><ellipse cx="242.5" cy="23" fill="#ADD1B2" rx="11" ry="11" style="stroke:#181818;stroke-width:1.0;"/><path d="M245.4688,28.6406 Q244.8906,28.9375 244.25,29.0781 Q243.6094,29.2344 242.9063,29.2344 Q240.4063,29.2344 239.0781,27.5938 Q237.7656,25.9375 237.7656,22.8125 Q237.7656,19.6875 239.0781,18.0313 Q240.4063,16.375 242.9063,16.375 Q243.6094,16.375 244.25,16.5313 Q244.9063,16.6875 245.4688,16.9844 L245.4688,19.7031 Q244.8438,19.125 244.25,18.8594 Q243.6563,18.5781 243.0313,18.5781 Q241.6875,18.5781 241,19.6563 Q240.3125,20.7188 240.3125,22.8125 Q240.3125,24.9063 241,25.9844 Q241.6875,27.0469 243.0313,27.0469 Q243.6563,27.0469 244.25,26.7813 Q244.8438,26.5 245.4688,25.9219 L245.4688,28.6406 Z " fill="#000000"/><text fill="#000000" font-family="sans-serif" font-size="14" lengthAdjust="spacing" textLength="38" x="256.5" y="28.432">Juego</text></g><!--class Laberinto--><g id="elem_Laberinto"><rect fill="#F1F1F1" height="32" id="Laberinto" rx="2.5" ry="2.5" style="stroke:#181818;stroke-width:0.5;" width="96" x="360.5" y="118"/><ellipse cx="375.5" cy="134" fill="#ADD1B2" rx="11" ry="11" style="stroke:#181818;stroke-width:1.0;"/><path d="M378.4688,139.6406 Q377.8906,139.9375 377.25,140.0781 Q376.6094,140.2344 375.9063,140.2344 Q373.4063,140.2344 372.0781,138.5938 Q370.7656,136.9375 370.7656,133.8125 Q370.7656,130.6875 372.0781,129.0313 Q373.4063,127.375 375.9063,127.375 Q376.6094,127.375 377.25,127.5313 Q377.9063,127.6875 378.4688,127.9844 L378.4688,130.7031 Q377.8438,130.125 377.25,129.8594 Q376.6563,129.5781 376.0313,129.5781 Q374.6875,129.5781 374,130.6563 Q373.3125,131.7188 373.3125,133.8125 Q373.3125,135.9063 374,136.9844 Q374.6875,138.0469 376.0313,138.0469 Q376.6563,138.0469 377.25,137.7813 Q377.8438,137.5 378.4688,136.9219 L378.4688,139.6406 Z " fill="#000000"/><text fill="#000000" font-family="sans-serif" font-size="14" lengthAdjust="spacing" textLength="64" x="389.5" y="139.432">Laberinto</text></g><!--class Pacman--><g id="elem_Pacman"><rect fill="#F1F1F1" height="32" id="Pacman" rx="2.5" ry="2.5" style="stroke:#181818;stroke-width:0.5;" width="85" x="307" y="451"/><ellipse cx="322" cy="467" fill="#ADD1B2" rx="11" ry="11" style="stroke:#181818;stroke-width:1.0;"/><path d="M324.9688,472.6406 Q324.3906,472.9375 323.75,473.0781 Q323.1094,473.2344 322.4063,473.2344 Q319.9063,473.2344 318.5781,471.5938 Q317.2656,469.9375 317.2656,466.8125 Q317.2656,463.6875 318.5781,462.0313 Q319.9063,460.375 322.4063,460.375 Q323.1094,460.375 323.75,460.5313 Q324.4063,460.6875 324.9688,460.9844 L324.9688,463.7031 Q324.3438,463.125 323.75,462.8594 Q323.1563,462.5781 322.5313,462.5781 Q321.1875,462.5781 320.5,463.6563 Q319.8125,464.7188 319.8125,466.8125 Q319.8125,468.9063 320.5,469.9844 Q321.1875,471.0469 322.5313,471.0469 Q323.1563,471.0469 323.75,470.7813 Q324.3438,470.5 324.9688,469.9219 L324.9688,472.6406 Z " fill="#000000"/><text fill="#000000" font-family="sans-serif" font-size="14" lengthAdjust="spacing" textLength="53" x="336" y="472.432">Pacman</text></g><!--class Fantasma--><g id="elem_Fantasma"><rect fill="#F1F1F1" height="32" id="Fantasma" rx="2.5" ry="2.5" style="stroke:#181818;stroke-width:0.5;" width="97" x="94" y="340"/><ellipse cx="109" cy="356" fill="#ADD1B2" rx="11" ry="11" style="stroke:#181818;stroke-width:1.0;"/><path d="M111.9688,361.6406 Q111.3906,361.9375 110.75,362.0781 Q110.1094,362.2344 109.4063,362.2344 Q106.9063,362.2344 105.5781,360.5938 Q104.2656,358.9375 104.2656,355.8125 Q104.2656,352.6875 105.5781,351.0313 Q106.9063,349.375 109.4063,349.375 Q110.1094,349.375 110.75,349.5313 Q111.4063,349.6875 111.9688,349.9844 L111.9688,352.7031 Q111.3438,352.125 110.75,351.8594 Q110.1563,351.5781 109.5313,351.5781 Q108.1875,351.5781 107.5,352.6563 Q106.8125,353.7188 106.8125,355.8125 Q106.8125,357.9063 107.5,358.9844 Q108.1875,360.0469 109.5313,360.0469 Q110.1563,360.0469 110.75,359.7813 Q111.3438,359.5 111.9688,358.9219 L111.9688,361.6406 Z " fill="#000000"/><text fill="#000000" font-family="sans-serif" font-size="14" lengthAdjust="spacing" textLength="65" x="123" y="361.432">Fantasma</text></g><!--class Casilla--><g id="elem_Casilla"><rect fill="#F1F1F1" height="32" id="Casilla" rx="2.5" ry="2.5" style="stroke:#181818;stroke-width:0.5;" width="76" x="415.5" y="229"/><ellipse cx="430.5" cy="245" fill="#ADD1B2" rx="11" ry="11" style="stroke:#181818;stroke-width:1.0;"/><path d="M433.4688,250.6406 Q432.8906,250.9375 432.25,251.0781 Q431.6094,251.2344 430.9063,251.2344 Q428.4063,251.2344 427.0781,249.5938 Q425.7656,247.9375 425.7656,244.8125 Q425.7656,241.6875 427.0781,240.0313 Q428.4063,238.375 430.9063,238.375 Q431.6094,238.375 432.25,238.5313 Q432.9063,238.6875 433.4688,238.9844 L433.4688,241.7031 Q432.8438,241.125 432.25,240.8594 Q431.6563,240.5781 431.0313,240.5781 Q429.6875,240.5781 429,241.6563 Q428.3125,242.7188 428.3125,244.8125 Q428.3125,246.9063 429,247.9844 Q429.6875,249.0469 431.0313,249.0469 Q431.6563,249.0469 432.25,248.7813 Q432.8438,248.5 433.4688,247.9219 L433.4688,250.6406 Z " fill="#000000"/><text fill="#000000" font-family="sans-serif" font-size="14" lengthAdjust="spacing" textLength="44" x="444.5" y="250.432">Casilla</text></g><!--class Punto--><g id="elem_Punto"><rect fill="#F1F1F1" height="32" id="Punto" rx="2.5" ry="2.5" style="stroke:#181818;stroke-width:0.5;" width="71" x="528" y="340"/><ellipse cx="543" cy="356" fill="#ADD1B2" rx="11" ry="11" style="stroke:#181818;stroke-width:1.0;"/><path d="M545.9688,361.6406 Q545.3906,361.9375 544.75,362.0781 Q544.1094,362.2344 543.4063,362.2344 Q540.9063,362.2344 539.5781,360.5938 Q538.2656,358.9375 538.2656,355.8125 Q538.2656,352.6875 539.5781,351.0313 Q540.9063,349.375 543.4063,349.375 Q544.1094,349.375 544.75,349.5313 Q545.4063,349.6875 545.9688,349.9844 L545.9688,352.7031 Q545.3438,352.125 544.75,351.8594 Q544.1563,351.5781 543.5313,351.5781 Q542.1875,351.5781 541.5,352.6563 Q540.8125,353.7188 540.8125,355.8125 Q540.8125,357.9063 541.5,358.9844 Q542.1875,360.0469 543.5313,360.0469 Q544.1563,360.0469 544.75,359.7813 Q545.3438,359.5 545.9688,358.9219 L545.9688,361.6406 Z " fill="#000000"/><text fill="#000000" font-family="sans-serif" font-size="14" lengthAdjust="spacing" textLength="39" x="557" y="361.432">Punto</text></g><!--class PastillaEspecial--><g id="elem_PastillaEspecial"><rect fill="#F1F1F1" height="32" id="PastillaEspecial" rx="2.5" ry="2.5" style="stroke:#181818;stroke-width:0.5;" width="135" x="606" y="562"/><ellipse cx="621" cy="578" fill="#ADD1B2" rx="11" ry="11" style="stroke:#181818;stroke-width:1.0;"/><path d="M623.9688,583.6406 Q623.3906,583.9375 622.75,584.0781 Q622.1094,584.2344 621.4063,584.2344 Q618.9063,584.2344 617.5781,582.5938 Q616.2656,580.9375 616.2656,577.8125 Q616.2656,574.6875 617.5781,573.0313 Q618.9063,571.375 621.4063,571.375 Q622.1094,571.375 622.75,571.5313 Q623.4063,571.6875 623.9688,571.9844 L623.9688,574.7031 Q623.3438,574.125 622.75,573.8594 Q622.1563,573.5781 621.5313,573.5781 Q620.1875,573.5781 619.5,574.6563 Q618.8125,575.7188 618.8125,577.8125 Q618.8125,579.9063 619.5,580.9844 Q620.1875,582.0469 621.5313,582.0469 Q622.1563,582.0469 622.75,581.7813 Q623.3438,581.5 623.9688,580.9219 L623.9688,583.6406 Z " fill="#000000"/><text fill="#000000" font-family="sans-serif" font-size="14" lengthAdjust="spacing" textLength="103" x="635" y="583.432">PastillaEspecial</text></g><!--class Fruta--><g id="elem_Fruta"><rect fill="#F1F1F1" height="32" id="Fruta" rx="2.5" ry="2.5" style="stroke:#181818;stroke-width:0.5;" width="67" x="316" y="340"/><ellipse cx="331" cy="356" fill="#ADD1B2" rx="11" ry="11" style="stroke:#181818;stroke-width:1.0;"/><path d="M333.9688,361.6406 Q333.3906,361.9375 332.75,362.0781 Q332.1094,362.2344 331.4063,362.2344 Q328.9063,362.2344 327.5781,360.5938 Q326.2656,358.9375 326.2656,355.8125 Q326.2656,352.6875 327.5781,351.0313 Q328.9063,349.375 331.4063,349.375 Q332.1094,349.375 332.75,349.5313 Q333.4063,349.6875 333.9688,349.9844 L333.9688,352.7031 Q333.3438,352.125 332.75,351.8594 Q332.1563,351.5781 331.5313,351.5781 Q330.1875,351.5781 329.5,352.6563 Q328.8125,353.7188 328.8125,355.8125 Q328.8125,357.9063 329.5,358.9844 Q330.1875,360.0469 331.5313,360.0469 Q332.1563,360.0469 332.75,359.7813 Q333.3438,359.5 333.9688,358.9219 L333.9688,361.6406 Z " fill="#000000"/><text fill="#000000" font-family="sans-serif" font-size="14" lengthAdjust="spacing" textLength="35" x="345" y="361.432">Fruta</text></g><!--class EstadoJuego--><g id="elem_EstadoJuego"><rect codeLine="19" fill="#F1F1F1" height="32" id="EstadoJuego" rx="2.5" ry="2.5" style="stroke:#181818;stroke-width:0.5;" width="115" x="333" y="7"/><ellipse cx="348" cy="23" fill="#EB937F" rx="11" ry="11" style="stroke:#181818;stroke-width:1.0;"/><path d="M352.1094,29 L344.3906,29 L344.3906,16.6094 L352.1094,16.6094 L352.1094,18.7656 L346.8438,18.7656 L346.8438,21.4375 L351.6094,21.4375 L351.6094,23.5938 L346.8438,23.5938 L346.8438,26.8438 L352.1094,26.8438 L352.1094,29 Z " fill="#000000"/><text fill="#000000" font-family="sans-serif" font-size="14" lengthAdjust="spacing" textLength="83" x="362" y="28.432">EstadoJuego</text></g><!--class TipoCasilla--><g id="elem_TipoCasilla"><rect codeLine="20" fill="#F1F1F1" height="32" id="TipoCasilla" rx="2.5" ry="2.5" style="stroke:#181818;stroke-width:0.5;" width="105" x="634" y="340"/><ellipse cx="649" cy="356" fill="#EB937F" rx="11" ry="11" style="stroke:#181818;stroke-width:1.0;"/><path d="M653.1094,362 L645.3906,362 L645.3906,349.6094 L653.1094,349.6094 L653.1094,351.7656 L647.8438,351.7656 L647.8438,354.4375 L652.6094,354.4375 L652.6094,356.5938 L647.8438,356.5938 L647.8438,359.8438 L653.1094,359.8438 L653.1094,362 Z " fill="#000000"/><text fill="#000000" font-family="sans-serif" font-size="14" lengthAdjust="spacing" textLength="73" x="663" y="361.432">TipoCasilla</text></g><!--class EstadoPacman--><g id="elem_EstadoPacman"><rect codeLine="21" fill="#F1F1F1" height="32" id="EstadoPacman" rx="2.5" ry="2.5" style="stroke:#181818;stroke-width:0.5;" width="130" x="284.5" y="562"/><ellipse cx="299.5" cy="578" fill="#EB937F" rx="11" ry="11" style="stroke:#181818;stroke-width:1.0;"/><path d="M303.6094,584 L295.8906,584 L295.8906,571.6094 L303.6094,571.6094 L303.6094,573.7656 L298.3438,573.7656 L298.3438,576.4375 L303.1094,576.4375 L303.1094,578.5938 L298.3438,578.5938 L298.3438,581.8438 L303.6094,581.8438 L303.6094,584 Z " fill="#000000"/><text fill="#000000" font-family="sans-serif" font-size="14" lengthAdjust="spacing" textLength="98" x="313.5" y="583.432">EstadoPacman</text></g><!--class ModoFantasma--><g id="elem_ModoFantasma"><rect codeLine="22" fill="#F1F1F1" height="32" id="ModoFantasma" rx="2.5" ry="2.5" style="stroke:#181818;stroke-width:0.5;" width="135" x="7" y="451"/><ellipse cx="22" cy="467" fill="#EB937F" rx="11" ry="11" style="stroke:#181818;stroke-width:1.0;"/><path d="M26.1094,473 L18.3906,473 L18.3906,460.6094 L26.1094,460.6094 L26.1094,462.7656 L20.8438,462.7656 L20.8438,465.4375 L25.6094,465.4375 L25.6094,467.5938 L20.8438,467.5938 L20.8438,470.8438 L26.1094,470.8438 L26.1094,473 Z " fill="#000000"/><text fill="#000000" font-family="sans-serif" font-size="14" lengthAdjust="spacing" textLength="103" x="36" y="472.432">ModoFantasma</text></g><!--class Direccion--><g id="elem_Direccion"><rect codeLine="23" fill="#F1F1F1" height="32" id="Direccion" rx="2.5" ry="2.5" style="stroke:#181818;stroke-width:0.5;" width="95" x="177" y="451"/><ellipse cx="192" cy="467" fill="#EB937F" rx="11" ry="11" style="stroke:#181818;stroke-width:1.0;"/><path d="M196.1094,473 L188.3906,473 L188.3906,460.6094 L196.1094,460.6094 L196.1094,462.7656 L190.8438,462.7656 L190.8438,465.4375 L195.6094,465.4375 L195.6094,467.5938 L190.8438,467.5938 L190.8438,470.8438 L196.1094,470.8438 L196.1094,473 Z " fill="#000000"/><text fill="#000000" font-family="sans-serif" font-size="14" lengthAdjust="spacing" textLength="63" x="206" y="472.432">Direccion</text></g><!--reverse link Juego to Laberinto--><g id="link_Juego_Laberinto"><path codeLine="5" d="M292.4161,46.3385 C320.3061,67.1585 360.57,97.22 388.37,117.97 " fill="none" id="Juego-backto-Laberinto" style="stroke:#181818;stroke-width:1.0;"/><polygon fill="#181818" points="282.8,39.16,285.2152,45.9546,292.4161,46.3385,290.0009,39.5439,282.8,39.16" style="stroke:#181818;stroke-width:1.0;"/><text fill="#000000" font-family="sans-serif" font-size="13" lengthAdjust="spacing" textLength="52" x="344.5" y="83.897">contiene</text></g><!--reverse link Juego to Pacman--><g id="link_Juego_Pacman"><path codeLine="6" d="M262.5,51.16 C262.5,81.11 262.5,133 262.5,133 C262.5,133 262.5,133 262.5,301.5 C262.5,301.5 298.5,372 298.5,372 C298.5,372 326.89,424.33 341.31,450.9 " fill="none" id="Juego-backto-Pacman" style="stroke:#181818;stroke-width:1.0;"/><polygon fill="#181818" points="262.5,39.16,258.5,45.16,262.5,51.16,266.5,45.16,262.5,39.16" style="stroke:#181818;stroke-width:1.0;"/><text fill="#000000" font-family="sans-serif" font-size="13" lengthAdjust="spacing" textLength="52" x="263.5" y="250.397">gestiona</text></g><!--reverse link Juego to Fantasma--><g id="link_Juego_Fantasma"><path codeLine="7" d="M247.2662,49.5479 C223.8662,88.8079 169.5,180 169.5,180 C169.5,180 151.42,297.2 144.85,339.78 " fill="none" id="Juego-backto-Fantasma" style="stroke:#181818;stroke-width:1.0;"/><polygon fill="#181818" points="253.41,39.24,246.9021,42.346,247.2662,49.5479,253.7741,46.4419,253.41,39.24" style="stroke:#181818;stroke-width:1.0;"/><polygon fill="#000000" points="172.8362,194.5681,178.6175,187.0164,173.0746,185.0605,172.8362,194.5681" style="stroke:#000000;stroke-width:1.0;"/><text fill="#000000" font-family="sans-serif" font-size="13" lengthAdjust="spacing" textLength="52" x="183.5" y="194.897">gestiona</text></g><!--reverse link Laberinto to Casilla--><g id="link_Laberinto_Casilla"><path codeLine="8" d="M419.3368,161.2529 C427.9268,182.0729 438.73,208.22 447.3,228.97 " fill="none" id="Laberinto-backto-Casilla" style="stroke:#181818;stroke-width:1.0;"/><polygon fill="#181818" points="414.76,150.16,413.3507,157.2321,419.3368,161.2529,420.746,154.1809,414.76,150.16" style="stroke:#181818;stroke-width:1.0;"/><text fill="#000000" font-family="sans-serif" font-size="13" lengthAdjust="spacing" textLength="92" x="434.5" y="194.897">compuesto por</text></g><!--link Casilla to Pacman--><g id="link_Casilla_Pacman"><path codeLine="9" d="M451.15,261.22 C444.58,303.8 426.5,421 426.5,421 C426.5,421 397.91,437.71 375.57,450.77 " fill="none" id="Casilla-Pacman" style="stroke:#181818;stroke-width:1.0;"/><text fill="#000000" font-family="sans-serif" font-size="13" lengthAdjust="spacing" textLength="37" x="439.5" y="361.397">ocupa</text></g><!--link Casilla to Fantasma--><g id="link_Casilla_Fantasma"><path codeLine="10" d="M415.35,256.1 C365.23,269.37 283.5,291 283.5,291 C283.5,291 217.23,321.08 175.56,339.99 " fill="none" id="Casilla-Fantasma" style="stroke:#181818;stroke-width:1.0;"/><text fill="#000000" font-family="sans-serif" font-size="13" lengthAdjust="spacing" textLength="37" x="284.5" y="305.897">ocupa</text></g><!--reverse link Casilla to Punto--><g id="link_Casilla_Punto"><path codeLine="11" d="M477.3237,269.6067 C498.3337,290.4267 527.39,319.22 548.33,339.97 " fill="none" id="Casilla-backto-Punto" style="stroke:#181818;stroke-width:1.0;"/><polygon fill="none" points="468.8,261.16,470.2463,268.2246,477.3237,269.6067,475.8774,262.5421,468.8,261.16" style="stroke:#181818;stroke-width:1.0;"/><text fill="#000000" font-family="sans-serif" font-size="13" lengthAdjust="spacing" textLength="95" x="515.5" y="305.897">puede contener</text></g><!--reverse link Casilla to PastillaEspecial--><g id="link_Casilla_PastillaEspecial"><path codeLine="12" d="M503.49,257.1923 C561.81,270.2523 654.5,291 654.5,291 C654.5,291 756.5,340 756.5,340 C756.5,340 756.5,372 756.5,372 C756.5,372 698.77,514.58 679.6,561.93 " fill="none" id="Casilla-backto-PastillaEspecial" style="stroke:#181818;stroke-width:1.0;"/><polygon fill="none" points="491.78,254.57,496.7609,259.7845,503.49,257.1923,498.5091,251.9778,491.78,254.57" style="stroke:#181818;stroke-width:1.0;"/><text fill="#000000" font-family="sans-serif" font-size="13" lengthAdjust="spacing" textLength="95" x="744.5" y="416.897">puede contener</text></g><!--reverse link Casilla to Fruta--><g id="link_Casilla_Fruta"><path codeLine="13" d="M403.9904,264.1127 C367.8804,277.3227 330.5,291 330.5,291 C330.5,291 330.5,310 330.5,310 C330.5,310 337.56,326.71 343.07,339.77 " fill="none" id="Casilla-backto-Fruta" style="stroke:#181818;stroke-width:1.0;"/><polygon fill="none" points="415.26,259.99,408.251,258.2948,403.9904,264.1127,410.9995,265.8079,415.26,259.99" style="stroke:#181818;stroke-width:1.0;"/><text fill="#000000" font-family="sans-serif" font-size="13" lengthAdjust="spacing" textLength="95" x="331.5" y="305.897">puede contener</text></g><!--link Punto to Pacman--><g id="link_Punto_Pacman"><path codeLine="14" d="M543.59,372.17 C518.75,391.09 479.5,421 479.5,421 C479.5,421 429.98,438.14 392.07,451.27 " fill="none" id="Punto-Pacman" style="stroke:#181818;stroke-width:1.0;"/><polygon fill="#000000" points="512.9324,409.5391,503.5541,411.1197,506.2742,416.3303,512.9324,409.5391" style="stroke:#000000;stroke-width:1.0;"/><text fill="#000000" font-family="sans-serif" font-size="13" lengthAdjust="spacing" textLength="54" x="517.5" y="416.897">recolecta</text></g><!--link Pacman to PastillaEspecial--><g id="link_Pacman_PastillaEspecial"><path codeLine="15" d="M392.19,482.36 C453.62,503.03 566.42,540.97 628.89,561.99 " fill="none" id="Pacman-PastillaEspecial" style="stroke:#181818;stroke-width:1.0;"/><polygon fill="#000000" points="540.239,524.4473,532.6032,518.7777,530.729,524.3487,540.239,524.4473" style="stroke:#000000;stroke-width:1.0;"/><text fill="#000000" font-family="sans-serif" font-size="13" lengthAdjust="spacing" textLength="54" x="544.5" y="527.897">recolecta</text></g><!--link Fruta to Pacman--><g id="link_Fruta_Pacman"><path codeLine="16" d="M349.5,372.16 C349.5,392.98 349.5,430.22 349.5,450.97 " fill="none" id="Fruta-Pacman" style="stroke:#181818;stroke-width:1.0;"/><polygon fill="#000000" points="354.5,406.853,351.5611,415.8981,357.4389,415.8981,354.5,406.853" style="stroke:#000000;stroke-width:1.0;"/><text fill="#000000" font-family="sans-serif" font-size="13" lengthAdjust="spacing" textLength="54" x="363.5" y="416.897">recolecta</text></g><!--link Fantasma to Pacman--><g id="link_Fantasma_Pacman"><path codeLine="17" d="M149.14,372.17 C157.42,391.09 170.5,421 170.5,421 C170.5,421 253.67,441.91 306.63,455.22 " fill="none" id="Fantasma-Pacman" style="stroke:#181818;stroke-width:1.0;"/><polygon fill="#000000" points="179.9227,414.1853,173.2928,407.3666,170.5511,412.5658,179.9227,414.1853" style="stroke:#000000;stroke-width:1.0;"/><text fill="#000000" font-family="sans-serif" font-size="13" lengthAdjust="spacing" textLength="52" x="184.5" y="416.897">persigue</text></g><!--link Juego to EstadoJuego--><g id="link_Juego_EstadoJuego"><path codeLine="25" d="M297.73,23 C302.16,23 305.17,23 305.17,23 C305.17,23 320.61,23 332.91,23 " fill="none" id="Juego-EstadoJuego" style="stroke:#181818;stroke-width:1.0;stroke-dasharray:7.0,7.0;"/></g><!--link Casilla to TipoCasilla--><g id="link_Casilla_TipoCasilla"><path codeLine="26" d="M491.58,256.32 C540.59,269.61 619.5,291 619.5,291 C619.5,291 650.81,320.91 670.62,339.83 " fill="none" id="Casilla-TipoCasilla" style="stroke:#181818;stroke-width:1.0;stroke-dasharray:7.0,7.0;"/></g><!--link Pacman to EstadoPacman--><g id="link_Pacman_EstadoPacman"><path codeLine="27" d="M349.5,483.16 C349.5,503.98 349.5,541.22 349.5,561.97 " fill="none" id="Pacman-EstadoPacman" style="stroke:#181818;stroke-width:1.0;stroke-dasharray:7.0,7.0;"/></g><!--link Direccion to Pacman--><g id="link_Direccion_Pacman"><path codeLine="28" d="M272.31,467 C282.46,467 302.04,467 306.78,467 " fill="none" id="Direccion-Pacman" style="stroke:#181818;stroke-width:1.0;stroke-dasharray:7.0,7.0;"/></g><!--link Fantasma to ModoFantasma--><g id="link_Fantasma_ModoFantasma"><path codeLine="29" d="M126.93,372.23 C113.58,385.29 96.5,402 96.5,402 C96.5,402 86.22,431.91 79.71,450.83 " fill="none" id="Fantasma-ModoFantasma" style="stroke:#181818;stroke-width:1.0;stroke-dasharray:7.0,7.0;"/></g><!--link Fantasma to Direccion--><g id="link_Fantasma_Direccion"><path codeLine="30" d="M140.81,372.23 C139.36,385.29 137.5,402 137.5,402 C137.5,402 137.5,421 137.5,421 C137.5,421 169.81,437.71 195.05,450.77 " fill="none" id="Fantasma-Direccion" style="stroke:#181818;stroke-width:1.0;stroke-dasharray:7.0,7.0;"/></g><!--SRC=[VL9BJWGX4Drp2jOcpG5SkD6PXT74nLoWf2ij4IZ2Pz6tjzeUcfeuSKczn_jGVBaPDOPKLnqmV68kgdoxc213qDv5h6j2dSYlsq6fruOBwOTfqc_0R1ShwKTjALQ7Z0_u0so0oDY2fJgA8B0pn0ebW43rang26-SPYlCUViL3QamZZf5LdqiBiYs1H8J1BKRJpFVQdffLkVoMdQDdmTcaEHOVJYMXTU3_Pvzpg_2NSiqtjM6PqP97MxU-7RxhTe_OXfE4ZxBoIH9lqYqD6LSOMz2dKc6cVGVxvE8IzHQISzNOH-yqqs6mZruSkrjUckxVmMGZzO-tCKQQz1x6t1WTOs-6z2Z5R9b10BFa_m00]--></g></svg>