<?xml version="1.0" encoding="us-ascii" standalone="no"?><svg xmlns="http://www.w3.org/2000/svg" xmlns:xlink="http://www.w3.org/1999/xlink" contentStyleType="text/css" height="189px" preserveAspectRatio="none" style="width:342px;height:189px;background:#FFFFFF;" version="1.1" viewBox="0 0 342 189" width="342px" zoomAndPan="magnify"><defs/><g><!--class Horario--><g id="elem_Horario"><rect codeLine="1" fill="#F1F1F1" height="48" id="Horario" rx="2.5" ry="2.5" style="stroke:#181818;stroke-width:0.5;" width="82" x="107" y="7"/><ellipse cx="122" cy="23" fill="#ADD1B2" rx="11" ry="11" style="stroke:#181818;stroke-width:1.0;"/><path d="M124.9688,28.6406 Q124.3906,28.9375 123.75,29.0781 Q123.1094,29.2344 122.4063,29.2344 Q119.9063,29.2344 118.5781,27.5938 Q117.2656,25.9375 117.2656,22.8125 Q117.2656,19.6875 118.5781,18.0313 Q119.9063,16.375 122.4063,16.375 Q123.1094,16.375 123.75,16.5313 Q124.4063,16.6875 124.9688,16.9844 L124.9688,19.7031 Q124.3438,19.125 123.75,18.8594 Q123.1563,18.5781 122.5313,18.5781 Q121.1875,18.5781 120.5,19.6563 Q119.8125,20.7188 119.8125,22.8125 Q119.8125,24.9063 120.5,25.9844 Q121.1875,27.0469 122.5313,27.0469 Q123.1563,27.0469 123.75,26.7813 Q124.3438,26.5 124.9688,25.9219 L124.9688,28.6406 Z " fill="#000000"/><text fill="#000000" font-family="sans-serif" font-size="14" lengthAdjust="spacing" textLength="50" x="136" y="28.432">Horario</text><line style="stroke:#181818;stroke-width:0.5;" x1="108" x2="188" y1="39" y2="39"/><line style="stroke:#181818;stroke-width:0.5;" x1="108" x2="188" y1="47" y2="47"/></g><!--class Aula--><g id="elem_Aula"><rect codeLine="4" fill="#F1F1F1" height="48" id="Aula" rx="2.5" ry="2.5" style="stroke:#181818;stroke-width:0.5;" width="62" x="7" y="134"/><ellipse cx="22" cy="150" fill="#ADD1B2" rx="11" ry="11" style="stroke:#181818;stroke-width:1.0;"/><path d="M24.9688,155.6406 Q24.3906,155.9375 23.75,156.0781 Q23.1094,156.2344 22.4063,156.2344 Q19.9063,156.2344 18.5781,154.5938 Q17.2656,152.9375 17.2656,149.8125 Q17.2656,146.6875 18.5781,145.0313 Q19.9063,143.375 22.4063,143.375 Q23.1094,143.375 23.75,143.5313 Q24.4063,143.6875 24.9688,143.9844 L24.9688,146.7031 Q24.3438,146.125 23.75,145.8594 Q23.1563,145.5781 22.5313,145.5781 Q21.1875,145.5781 20.5,146.6563 Q19.8125,147.7188 19.8125,149.8125 Q19.8125,151.9063 20.5,152.9844 Q21.1875,154.0469 22.5313,154.0469 Q23.1563,154.0469 23.75,153.7813 Q24.3438,153.5 24.9688,152.9219 L24.9688,155.6406 Z " fill="#000000"/><text fill="#000000" font-family="sans-serif" font-size="14" lengthAdjust="spacing" textLength="30" x="36" y="155.432">Aula</text><line style="stroke:#181818;stroke-width:0.5;" x1="8" x2="68" y1="166" y2="166"/><line style="stroke:#181818;stroke-width:0.5;" x1="8" x2="68" y1="174" y2="174"/></g><!--class Profesor--><g id="elem_Profesor"><rect codeLine="7" fill="#F1F1F1" height="48" id="Profesor" rx="2.5" ry="2.5" style="stroke:#181818;stroke-width:0.5;" width="88" x="104" y="134"/><ellipse cx="119" cy="150" fill="#ADD1B2" rx="11" ry="11" style="stroke:#181818;stroke-width:1.0;"/><path d="M121.9688,155.6406 Q121.3906,155.9375 120.75,156.0781 Q120.1094,156.2344 119.4063,156.2344 Q116.9063,156.2344 115.5781,154.5938 Q114.2656,152.9375 114.2656,149.8125 Q114.2656,146.6875 115.5781,145.0313 Q116.9063,143.375 119.4063,143.375 Q120.1094,143.375 120.75,143.5313 Q121.4063,143.6875 121.9688,143.9844 L121.9688,146.7031 Q121.3438,146.125 120.75,145.8594 Q120.1563,145.5781 119.5313,145.5781 Q118.1875,145.5781 117.5,146.6563 Q116.8125,147.7188 116.8125,149.8125 Q116.8125,151.9063 117.5,152.9844 Q118.1875,154.0469 119.5313,154.0469 Q120.1563,154.0469 120.75,153.7813 Q121.3438,153.5 121.9688,152.9219 L121.9688,155.6406 Z " fill="#000000"/><text fill="#000000" font-family="sans-serif" font-size="14" lengthAdjust="spacing" textLength="56" x="133" y="155.432">Profesor</text><line style="stroke:#181818;stroke-width:0.5;" x1="105" x2="191" y1="166" y2="166"/><line style="stroke:#181818;stroke-width:0.5;" x1="105" x2="191" y1="174" y2="174"/></g><!--class Curso--><g id="elem_Curso"><rect codeLine="10" fill="#F1F1F1" height="48" id="Curso" rx="2.5" ry="2.5" style="stroke:#181818;stroke-width:0.5;" width="71" x="237.5" y="134"/><ellipse cx="252.5" cy="150" fill="#ADD1B2" rx="11" ry="11" style="stroke:#181818;stroke-width:1.0;"/><path d="M255.4688,155.6406 Q254.8906,155.9375 254.25,156.0781 Q253.6094,156.2344 252.9063,156.2344 Q250.4063,156.2344 249.0781,154.5938 Q247.7656,152.9375 247.7656,149.8125 Q247.7656,146.6875 249.0781,145.0313 Q250.4063,143.375 252.9063,143.375 Q253.6094,143.375 254.25,143.5313 Q254.9063,143.6875 255.4688,143.9844 L255.4688,146.7031 Q254.8438,146.125 254.25,145.8594 Q253.6563,145.5781 253.0313,145.5781 Q251.6875,145.5781 251,146.6563 Q250.3125,147.7188 250.3125,149.8125 Q250.3125,151.9063 251,152.9844 Q251.6875,154.0469 253.0313,154.0469 Q253.6563,154.0469 254.25,153.7813 Q254.8438,153.5 255.4688,152.9219 L255.4688,155.6406 Z " fill="#000000"/><text fill="#000000" font-family="sans-serif" font-size="14" lengthAdjust="spacing" textLength="39" x="266.5" y="155.432">Curso</text><line style="stroke:#181818;stroke-width:0.5;" x1="238.5" x2="307.5" y1="166" y2="166"/><line style="stroke:#181818;stroke-width:0.5;" x1="238.5" x2="307.5" y1="174" y2="174"/></g><!--link Horario to Aula--><g id="link_Horario_Aula"><path codeLine="13" d="M106.89,53.84 C93.85,62.25 80.18,72.81 70,85 C58.07,99.28 49.79,118.7 44.64,133.78 " fill="none" id="Horario-Aula" style="stroke:#181818;stroke-width:1.0;"/><text fill="#000000" font-family="sans-serif" font-size="13" lengthAdjust="spacing" textLength="65" x="71" y="99.897">asignado a</text></g><!--link Horario to Profesor--><g id="link_Horario_Profesor"><path codeLine="14" d="M146.4,55.21 C145.84,64.47 145.28,75.23 145,85 C144.54,101.38 145.33,119.85 146.22,133.98 " fill="none" id="Horario-Profesor" style="stroke:#181818;stroke-width:1.0;"/><text fill="#000000" font-family="sans-serif" font-size="13" lengthAdjust="spacing" textLength="83" x="146" y="99.897">impartido por</text></g><!--link Horario to Curso--><g id="link_Horario_Curso"><path codeLine="15" d="M189.26,51.6 C204.61,60.3 221.35,71.62 234,85 C247.38,99.15 257.61,118.78 264.23,133.96 " fill="none" id="Horario-Curso" style="stroke:#181818;stroke-width:1.0;"/><text fill="#000000" font-family="sans-serif" font-size="13" lengthAdjust="spacing" textLength="86" x="248" y="99.897">corresponde a</text></g><!--SRC=[JOox3O0m34JxJE45M20Teg5a1Ii9A1B4qHagnEuWVd9vT-zUc5cLUW4Z2-tkS2xSLRlDRFC06PCARDTjqFVq6PhcUNfYpLFXACHs_3MUyb8PQxw8Ah3Ce_KK14XQfSH4V080]--></g></svg>