<?xml version="1.0" encoding="us-ascii" standalone="no"?><svg xmlns="http://www.w3.org/2000/svg" xmlns:xlink="http://www.w3.org/1999/xlink" contentStyleType="text/css" height="910px" preserveAspectRatio="none" style="width:667px;height:910px;background:#FFFFFF;" version="1.1" viewBox="0 0 667 910" width="667px" zoomAndPan="magnify"><defs/><g><g id="SISTEMA_INICIAL"><rect fill="#F1F1F1" height="50" rx="12.5" ry="12.5" style="stroke:#181818;stroke-width:0.5;" width="136" x="54" y="7"/><line style="stroke:#181818;stroke-width:0.5;" x1="54" x2="190" y1="36.0679" y2="36.0679"/><text fill="#000000" font-family="sans-serif" font-size="14" lengthAdjust="spacing" textLength="116" x="64" y="26.9659">SISTEMA_INICIAL</text></g><path d="M19.5,117 L578.5,117 A12.5,12.5 0 0 1 591,129.5 L591,146.0679 L7,146.0679 L7,129.5 A12.5,12.5 0 0 1 19.5,117 " fill="#F1F1F1" style="stroke:#F1F1F1;stroke-width:1.0;"/><rect fill="none" height="677.0679" rx="12.5" ry="12.5" style="stroke:#181818;stroke-width:0.5;" width="584" x="7" y="117"/><line style="stroke:#181818;stroke-width:0.5;" x1="7" x2="591" y1="146.0679" y2="146.0679"/><text fill="#000000" font-family="sans-serif" font-size="14" lengthAdjust="spacing" textLength="122" x="238" y="136.9659">seleccionarModo()</text><g id="seleccionarModo.PresentandoOpciones"><rect fill="#F1F1F1" height="50" rx="12.5" ry="12.5" style="stroke:#181818;stroke-width:0.5;" width="50" x="19" y="250.0679"/><line style="stroke:#181818;stroke-width:0.5;" x1="19" x2="69" y1="279.1358" y2="279.1358"/><text fill="#000000" font-family="sans-serif" font-size="14" lengthAdjust="spacing" textLength="4" x="42" y="270.0339">&#160;</text></g><g id="seleccionarModo.ModoSeleccionado"><rect fill="#F1F1F1" height="50" rx="12.5" ry="12.5" style="stroke:#181818;stroke-width:0.5;" width="50" x="19" y="462.0679"/><line style="stroke:#181818;stroke-width:0.5;" x1="19" x2="69" y1="491.1358" y2="491.1358"/><text fill="#000000" font-family="sans-serif" font-size="14" lengthAdjust="spacing" textLength="4" x="42" y="482.0339">&#160;</text></g><ellipse cx="44" cy="167.0679" fill="#222222" rx="10" ry="10" style="stroke:#222222;stroke-width:1.0;"/><ellipse cx="44" cy="773.0679" fill="none" rx="11" ry="11" style="stroke:#222222;stroke-width:1.0;"/><ellipse cx="44" cy="773.0679" fill="#222222" rx="6" ry="6" style="stroke:#222222;stroke-width:1.0;"/><!--link *start*seleccionarModo to PresentandoOpciones--><g id="link_*start*seleccionarModo_PresentandoOpciones"><path d="M44,177.1079 C44,193.0279 44,220.5779 44,243.7079 " fill="none" id="*start*seleccionarModo-to-PresentandoOpciones" style="stroke:#008000;stroke-width:1.0;"/><polygon fill="#008000" points="44,249.7079,48,240.7079,44,244.7079,40,240.7079,44,249.7079" style="stroke:#008000;stroke-width:1.0;"/><path d="M49,200.0679 L49,227.0679 L268,227.0679 L268,210.0679 L258,200.0679 L49,200.0679 " fill="#FEFFDD" style="stroke:#181818;stroke-width:0.5;"/><path d="M258,200.0679 L258,210.0679 L268,210.0679 L258,200.0679 " fill="#FEFFDD" style="stroke:#181818;stroke-width:0.5;"/><text fill="#000000" font-family="sans-serif" font-size="13" font-weight="bold" lengthAdjust="spacing" textLength="46" x="55" y="218.9649">M&#250;sico</text><text fill="#000000" font-family="sans-serif" font-size="13" lengthAdjust="spacing" textLength="149" x="104" y="218.9649">solicita seleccionar modo</text></g><!--link PresentandoOpciones to ModoSeleccionado--><g id="link_PresentandoOpciones_ModoSeleccionado"><path d="M44,300.1579 C44,340.5579 44,415.5079 44,455.9379 " fill="none" id="PresentandoOpciones-to-ModoSeleccionado" style="stroke:#008000;stroke-width:1.0;"/><polygon fill="#008000" points="44,461.9379,48,452.9379,44,456.9379,40,452.9379,44,461.9379" style="stroke:#008000;stroke-width:1.0;"/><path d="M49,323.0679 L49,439.0679 L292,439.0679 L292,333.0679 L282,323.0679 L49,323.0679 " fill="#FEFFDD" style="stroke:#181818;stroke-width:0.5;"/><path d="M282,323.0679 L282,333.0679 L292,333.0679 L282,323.0679 " fill="#FEFFDD" style="stroke:#181818;stroke-width:0.5;"/><text fill="#000000" font-family="sans-serif" font-size="13" font-weight="bold" lengthAdjust="spacing" textLength="52" x="55" y="341.9649">Sistema</text><text fill="#000000" font-family="sans-serif" font-size="13" lengthAdjust="spacing" textLength="167" x="110" y="341.9649">presenta opciones de modo</text><text fill="#000000" font-family="sans-serif" font-size="13" lengthAdjust="spacing" textLength="47" x="55" y="359.6709">&#8226; Mayor</text><text fill="#000000" font-family="sans-serif" font-size="13" lengthAdjust="spacing" textLength="96" x="55" y="377.377">&#8226; Menor Natural</text><text fill="#000000" font-family="sans-serif" font-size="13" lengthAdjust="spacing" textLength="3" x="55" y="395.083">&#160;</text><text fill="#000000" font-family="sans-serif" font-size="13" font-weight="bold" lengthAdjust="spacing" textLength="52" x="55" y="412.789">Sistema</text><text fill="#000000" font-family="sans-serif" font-size="13" lengthAdjust="spacing" textLength="99" x="110" y="412.789">permite solicitar:</text><text fill="#000000" font-family="sans-serif" font-size="13" lengthAdjust="spacing" textLength="44" x="55" y="430.495">&#8226; Modo</text></g><!--link ModoSeleccionado to *end*seleccionarModo--><g id="link_ModoSeleccionado_*end*seleccionarModo"><path d="M44,512.2779 C44,571.4379 44,715.4179 44,755.8779 " fill="none" id="ModoSeleccionado-to-*end*seleccionarModo" style="stroke:#008000;stroke-width:1.0;"/><polygon fill="#008000" points="44,761.8779,48,752.8779,44,756.8779,40,752.8779,44,761.8779" style="stroke:#008000;stroke-width:1.0;"/><path d="M49,535.0679 L49,739.0679 L582,739.0679 L582,545.0679 L572,535.0679 L49,535.0679 " fill="#FEFFDD" style="stroke:#181818;stroke-width:0.5;"/><path d="M572,535.0679 L572,545.0679 L582,545.0679 L572,535.0679 " fill="#FEFFDD" style="stroke:#181818;stroke-width:0.5;"/><text fill="#000000" font-family="sans-serif" font-size="13" font-weight="bold" lengthAdjust="spacing" textLength="46" x="55" y="553.9649">M&#250;sico</text><text fill="#000000" font-family="sans-serif" font-size="13" lengthAdjust="spacing" textLength="142" x="104" y="553.9649">solicita introducir modo</text><text fill="#000000" font-family="sans-serif" font-size="13" lengthAdjust="spacing" textLength="3" x="55" y="571.6709">&#160;</text><text fill="#000000" font-family="sans-serif" font-size="13" font-weight="bold" lengthAdjust="spacing" textLength="52" x="55" y="589.377">Sistema</text><text fill="#000000" font-family="sans-serif" font-size="13" lengthAdjust="spacing" textLength="213" x="110" y="589.377">registra modo como contexto tonal</text><text fill="#000000" font-family="sans-serif" font-size="13" lengthAdjust="spacing" textLength="354" x="55" y="607.083">&#8226; Establece modo como tipo de escala del sistema arm&#243;nico</text><text fill="#000000" font-family="sans-serif" font-size="13" lengthAdjust="spacing" textLength="293" x="55" y="624.789">&#8226; Actualiza presentaci&#243;n del contexto tonal actual</text><text fill="#000000" font-family="sans-serif" font-size="13" lengthAdjust="spacing" textLength="386" x="55" y="642.495">&#8226; Si existe mapa arm&#243;nico previo, lo regenera con el nuevo modo</text><text fill="#000000" font-family="sans-serif" font-size="13" lengthAdjust="spacing" textLength="3" x="55" y="660.201">&#160;</text><text fill="#000000" font-family="sans-serif" font-size="13" font-weight="bold" lengthAdjust="spacing" textLength="52" x="55" y="677.907">Sistema</text><text fill="#000000" font-family="sans-serif" font-size="13" lengthAdjust="spacing" textLength="99" x="110" y="677.907">permite solicitar:</text><text fill="#000000" font-family="sans-serif" font-size="13" lengthAdjust="spacing" textLength="114" x="55" y="695.6131">&#8226; seleccionar t&#243;nica</text><text fill="#000000" font-family="sans-serif" font-size="13" lengthAdjust="spacing" textLength="324" x="55" y="713.3191">&#8226; generar mapa arm&#243;nico (si est&#225; en SISTEMA_INICIAL)</text><text fill="#000000" font-family="sans-serif" font-size="13" lengthAdjust="spacing" textLength="512" x="55" y="731.0251">&#8226; continuar construcci&#243;n de progresi&#243;n (si est&#225; en PROGRESION_EN_CONSTRUCCION)</text></g><g id="MAPA_DISPONIBLE"><rect fill="#F1F1F1" height="50" rx="12.5" ry="12.5" style="stroke:#181818;stroke-width:0.5;" width="147" x="225.5" y="7"/><line style="stroke:#181818;stroke-width:0.5;" x1="225.5" x2="372.5" y1="36.0679" y2="36.0679"/><text fill="#000000" font-family="sans-serif" font-size="14" lengthAdjust="spacing" textLength="127" x="235.5" y="26.9659">MAPA_DISPONIBLE</text></g><g id="PROGRESION_EN_CONSTRUCCION_1"><rect fill="#F1F1F1" height="50" rx="12.5" ry="12.5" style="stroke:#181818;stroke-width:0.5;" width="252" x="408" y="7"/><line style="stroke:#181818;stroke-width:0.5;" x1="408" x2="660" y1="36.0679" y2="36.0679"/><text fill="#000000" font-family="sans-serif" font-size="14" lengthAdjust="spacing" textLength="232" x="418" y="26.9659">PROGRESION_EN_CONSTRUCCION</text></g><g id="SISTEMA_INICIAL_2"><rect fill="#F1F1F1" height="50" rx="12.5" ry="12.5" style="stroke:#181818;stroke-width:0.5;" width="136" x="54" y="854"/><line style="stroke:#181818;stroke-width:0.5;" x1="54" x2="190" y1="883.0679" y2="883.0679"/><text fill="#000000" font-family="sans-serif" font-size="14" lengthAdjust="spacing" textLength="116" x="64" y="873.9659">SISTEMA_INICIAL</text></g><g id="MAPA_DISPONIBLE_2"><rect fill="#F1F1F1" height="50" rx="12.5" ry="12.5" style="stroke:#181818;stroke-width:0.5;" width="147" x="225.5" y="854"/><line style="stroke:#181818;stroke-width:0.5;" x1="225.5" x2="372.5" y1="883.0679" y2="883.0679"/><text fill="#000000" font-family="sans-serif" font-size="14" lengthAdjust="spacing" textLength="127" x="235.5" y="873.9659">MAPA_DISPONIBLE</text></g><g id="PROGRESION_EN_CONSTRUCCION_2"><rect fill="#F1F1F1" height="50" rx="12.5" ry="12.5" style="stroke:#181818;stroke-width:0.5;" width="252" x="408" y="854"/><line style="stroke:#181818;stroke-width:0.5;" x1="408" x2="660" y1="883.0679" y2="883.0679"/><text fill="#000000" font-family="sans-serif" font-size="14" lengthAdjust="spacing" textLength="232" x="418" y="873.9659">PROGRESION_EN_CONSTRUCCION</text></g><!--link SISTEMA_INICIAL to seleccionarModo--><g id="link_SISTEMA_INICIAL_seleccionarModo"><path d="M132.15,57.18 C138.36,71.96 144.7366,87.1481 154.9466,111.4581 " fill="none" id="SISTEMA_INICIAL-to-seleccionarModo" style="stroke:#0000FF;stroke-width:1.0;"/><polygon fill="#0000FF" points="157.27,116.99,157.4729,107.1432,155.3339,112.3801,150.097,110.241,157.27,116.99" style="stroke:#0000FF;stroke-width:1.0;"/></g><!--link MAPA_DISPONIBLE to seleccionarModo--><g id="link_MAPA_DISPONIBLE_seleccionarModo"><path d="M299,57.18 C299,71.96 299,86.68 299,110.99 " fill="none" id="MAPA_DISPONIBLE-to-seleccionarModo" style="stroke:#008000;stroke-width:1.0;"/><polygon fill="#008000" points="299,116.99,303,107.99,299,111.99,295,107.99,299,116.99" style="stroke:#008000;stroke-width:1.0;"/></g><!--link PROGRESION_EN_CONSTRUCCION_1 to seleccionarModo--><g id="link_PROGRESION_EN_CONSTRUCCION_1_seleccionarModo"><path d="M520.52,57.18 C512.28,71.96 503.6512,87.4391 490.1012,111.7491 " fill="none" id="PROGRESION_EN_CONSTRUCCION_1-to-seleccionarModo" style="stroke:#000000;stroke-width:1.0;"/><polygon fill="#000000" points="487.18,116.99,495.0557,111.0761,489.6143,112.6226,488.0679,107.1812,487.18,116.99" style="stroke:#000000;stroke-width:1.0;"/></g><!--link seleccionarModo to SISTEMA_INICIAL_2--><g id="link_seleccionarModo_SISTEMA_INICIAL_2"><path d="M157.18,794.22 C147,818.47 140.6463,833.6193 134.4463,848.3593 " fill="none" id="seleccionarModo-to-SISTEMA_INICIAL_2" style="stroke:#0000FF;stroke-width:1.0;"/><polygon fill="#0000FF" points="132.12,853.89,139.2966,847.1449,134.0586,849.2811,131.9224,844.0431,132.12,853.89" style="stroke:#0000FF;stroke-width:1.0;"/></g><!--link seleccionarModo to MAPA_DISPONIBLE_2--><g id="link_seleccionarModo_MAPA_DISPONIBLE_2"><path d="M299,794.22 C299,818.47 299,833.15 299,847.89 " fill="none" id="seleccionarModo-to-MAPA_DISPONIBLE_2" style="stroke:#008000;stroke-width:1.0;"/><polygon fill="#008000" points="299,853.89,303,844.89,299,848.89,295,844.89,299,853.89" style="stroke:#008000;stroke-width:1.0;"/></g><!--link seleccionarModo to PROGRESION_EN_CONSTRUCCION_2--><g id="link_seleccionarModo_PROGRESION_EN_CONSTRUCCION_2"><path d="M487.29,794.22 C500.81,818.47 509.4177,833.9098 517.6377,848.6498 " fill="none" id="seleccionarModo-to-PROGRESION_EN_CONSTRUCCION_2" style="stroke:#000000;stroke-width:1.0;"/><polygon fill="#000000" points="520.56,853.89,519.67,844.0814,518.1247,849.5231,512.683,847.9778,520.56,853.89" style="stroke:#000000;stroke-width:1.0;"/></g><!--SRC=[bLJTQjim5BxtKnoycsQiZFLob4AQcM5ed11tLwK4HJuK4LaoaboQZS5UPNk5tUqsRx8dsP7ZE8dYf2o1O2dV-NwEv6ENGbNCi1AaKEXM5KAbvSeleYXFy_jaF9odMJfAXtTm-V1c8MjylBm1Yn8v5renCzQ5ZiR3wN3-ASsdaoozlKiyzCaWgZwiTSmXJ6UJpxCaJoVPFCdceqcMty- -Z4P-_G6OXVWq88xE5fFshMHysQVTYWVRZLwmTp68uLiK0NqsDJ5z2JSrQ54vfWezgJmSxJ784-GTdzVra8UtZmUDEKMbD35fvOzasMnSBsx6wpzMS7tzVa6Xj1HSEBOV0qeVpuDH5Gt3HhD7uy33aTDJ1d9X7PQiCL2rfA2tb0Nk3FpzyGl6RANDReLA6yYOgmsJKIyZcbBuWscZcO-xulvWeV63LDJf_-kaKCxeekQYRMIVHuDFj3AiGG3NfVzH3b-S1aSUP6SveSkm86ku1tMYqhvDQ3cJZ9uas0qvC5EkVolor14CkQkP55zPrsek2D9K7Me2Qw1TPIu0NpmlbApQe_P4pqA_0wbz45H8GOWAY57L-AnFvpvpDliNq3L2hFjles527nUM75gt_add2S646NJ5FgHGDPNJ4pMzvji6K11DvsoRvG7PwQ4m2ExFz-qS2FJdLyqa27RZ5XpCk1OSxCQlZxUhLyTR5CwdlSbxPBaFl7kzGyzzw6vQdZCT_GC0]--></g></svg>