<?xml version="1.0" encoding="us-ascii" standalone="no"?><svg xmlns="http://www.w3.org/2000/svg" xmlns:xlink="http://www.w3.org/1999/xlink" contentStyleType="text/css" height="287px" preserveAspectRatio="none" style="width:595px;height:287px;background:#FFFFFF;" version="1.1" viewBox="0 0 595 287" width="595px" zoomAndPan="magnify"><defs/><g><!--cluster Formaci?n--><g id="cluster_Formaci&#243;n"><rect fill="none" height="274.5" rx="2.5" ry="2.5" style="stroke:#181818;stroke-width:1.0;" width="582" x="7" y="7"/><text fill="#000000" font-family="sans-serif" font-size="14" font-weight="bold" lengthAdjust="spacing" textLength="85" x="255.5" y="21.9951">Formaci&#243;n</text></g><!--cluster +--><g id="cluster_+"><rect fill="none" height="99" rx="2.5" ry="2.5" style="stroke:#181818;stroke-width:1.0;" width="255" x="310" y="50"/><text fill="#000000" font-family="sans-serif" font-size="14" font-weight="bold" lengthAdjust="spacing" textLength="11" x="432" y="64.9951">+</text></g><!--class Contenido--><g id="elem_Contenido"><rect codeLine="3" fill="#F1F1F1" height="96.8906" id="Contenido" rx="2.5" ry="2.5" style="stroke:#181818;stroke-width:0.5;" width="111" x="23.5" y="60.5"/><ellipse cx="40.3" cy="76.5" fill="#ADD1B2" rx="11" ry="11" style="stroke:#181818;stroke-width:1.0;"/><path d="M42.6438,72.1719 C41.7063,71.7344 41.1125,71.5938 40.2375,71.5938 C37.6125,71.5938 35.6125,73.6719 35.6125,76.3906 L35.6125,77.5156 C35.6125,80.0938 37.7219,81.9844 40.6125,81.9844 C41.8313,81.9844 42.9875,81.6875 43.7375,81.1406 C44.3156,80.7344 44.6438,80.2813 44.6438,79.8906 C44.6438,79.4375 44.2531,79.0469 43.7844,79.0469 C43.5656,79.0469 43.3625,79.125 43.175,79.3125 C42.7219,79.7969 42.7219,79.7969 42.5344,79.8906 C42.1125,80.1563 41.425,80.2813 40.6594,80.2813 C38.6125,80.2813 37.3156,79.1875 37.3156,77.4844 L37.3156,76.3906 C37.3156,74.6094 38.5656,73.2969 40.3,73.2969 C40.8781,73.2969 41.4875,73.4531 41.9563,73.7031 C42.4406,73.9844 42.6125,74.2031 42.7063,74.6094 C42.7688,75.0156 42.8,75.1406 42.9406,75.2656 C43.0813,75.4063 43.3156,75.5156 43.5344,75.5156 C43.8,75.5156 44.0656,75.375 44.2375,75.1563 C44.3469,75 44.3781,74.8125 44.3781,74.3906 L44.3781,72.9688 C44.3781,72.5313 44.3625,72.4063 44.2688,72.25 C44.1125,71.9844 43.8313,71.8438 43.5344,71.8438 C43.2375,71.8438 43.0344,71.9375 42.8156,72.25 L42.6438,72.1719 Z " fill="#000000"/><text fill="#000000" font-family="sans-serif" font-size="14" lengthAdjust="spacing" textLength="75" x="54.7" y="81.3467">Contenido</text><line style="stroke:#181818;stroke-width:0.5;" x1="24.5" x2="133.5" y1="92.5" y2="92.5"/><text fill="#000000" font-family="sans-serif" font-size="14" font-style="italic" lengthAdjust="spacing" textLength="99" x="29.5" y="109.4951">Conocimiento</text><text fill="#000000" font-family="sans-serif" font-size="14" font-style="italic" lengthAdjust="spacing" textLength="84" x="29.5" y="125.792">Habilidades</text><text fill="#000000" font-family="sans-serif" font-size="14" font-style="italic" lengthAdjust="spacing" textLength="66" x="29.5" y="142.0889">Actitudes</text><line style="stroke:#181818;stroke-width:0.5;" x1="24.5" x2="133.5" y1="149.3906" y2="149.3906"/></g><!--class Metodolog?a--><g id="elem_Metodolog&#237;a"><rect codeLine="9" fill="#F1F1F1" height="96.8906" id="Metodolog&#237;a" rx="2.5" ry="2.5" style="stroke:#181818;stroke-width:0.5;" width="121" x="169.5" y="60.5"/><ellipse cx="184.5" cy="76.5" fill="#ADD1B2" rx="11" ry="11" style="stroke:#181818;stroke-width:1.0;"/><path d="M186.8438,72.1719 C185.9063,71.7344 185.3125,71.5938 184.4375,71.5938 C181.8125,71.5938 179.8125,73.6719 179.8125,76.3906 L179.8125,77.5156 C179.8125,80.0938 181.9219,81.9844 184.8125,81.9844 C186.0313,81.9844 187.1875,81.6875 187.9375,81.1406 C188.5156,80.7344 188.8438,80.2813 188.8438,79.8906 C188.8438,79.4375 188.4531,79.0469 187.9844,79.0469 C187.7656,79.0469 187.5625,79.125 187.375,79.3125 C186.9219,79.7969 186.9219,79.7969 186.7344,79.8906 C186.3125,80.1563 185.625,80.2813 184.8594,80.2813 C182.8125,80.2813 181.5156,79.1875 181.5156,77.4844 L181.5156,76.3906 C181.5156,74.6094 182.7656,73.2969 184.5,73.2969 C185.0781,73.2969 185.6875,73.4531 186.1563,73.7031 C186.6406,73.9844 186.8125,74.2031 186.9063,74.6094 C186.9688,75.0156 187,75.1406 187.1406,75.2656 C187.2813,75.4063 187.5156,75.5156 187.7344,75.5156 C188,75.5156 188.2656,75.375 188.4375,75.1563 C188.5469,75 188.5781,74.8125 188.5781,74.3906 L188.5781,72.9688 C188.5781,72.5313 188.5625,72.4063 188.4688,72.25 C188.3125,71.9844 188.0313,71.8438 187.7344,71.8438 C187.4375,71.8438 187.2344,71.9375 187.0156,72.25 L186.8438,72.1719 Z " fill="#000000"/><text fill="#000000" font-family="sans-serif" font-size="14" lengthAdjust="spacing" textLength="89" x="198.5" y="81.3467">Metodolog&#237;a</text><line style="stroke:#181818;stroke-width:0.5;" x1="170.5" x2="289.5" y1="92.5" y2="92.5"/><text fill="#000000" font-family="sans-serif" font-size="14" font-style="italic" lengthAdjust="spacing" textLength="69" x="175.5" y="109.4951">Proyectos</text><text fill="#000000" font-family="sans-serif" font-size="14" font-style="italic" lengthAdjust="spacing" textLength="91" x="175.5" y="125.792">Colaborativo</text><text fill="#000000" font-family="sans-serif" font-size="14" font-style="italic" lengthAdjust="spacing" textLength="84" x="175.5" y="142.0889">Experiencia</text><line style="stroke:#181818;stroke-width:0.5;" x1="170.5" x2="289.5" y1="149.3906" y2="149.3906"/></g><!--class Evaluaci?n--><g id="elem_Evaluaci&#243;n"><rect codeLine="16" fill="#F1F1F1" height="48" id="Evaluaci&#243;n" rx="2.5" ry="2.5" style="stroke:#181818;stroke-width:0.5;" width="107" x="100.5" y="217.5"/><ellipse cx="115.5" cy="233.5" fill="#ADD1B2" rx="11" ry="11" style="stroke:#181818;stroke-width:1.0;"/><path d="M117.8438,229.1719 C116.9063,228.7344 116.3125,228.5938 115.4375,228.5938 C112.8125,228.5938 110.8125,230.6719 110.8125,233.3906 L110.8125,234.5156 C110.8125,237.0938 112.9219,238.9844 115.8125,238.9844 C117.0313,238.9844 118.1875,238.6875 118.9375,238.1406 C119.5156,237.7344 119.8438,237.2813 119.8438,236.8906 C119.8438,236.4375 119.4531,236.0469 118.9844,236.0469 C118.7656,236.0469 118.5625,236.125 118.375,236.3125 C117.9219,236.7969 117.9219,236.7969 117.7344,236.8906 C117.3125,237.1563 116.625,237.2813 115.8594,237.2813 C113.8125,237.2813 112.5156,236.1875 112.5156,234.4844 L112.5156,233.3906 C112.5156,231.6094 113.7656,230.2969 115.5,230.2969 C116.0781,230.2969 116.6875,230.4531 117.1563,230.7031 C117.6406,230.9844 117.8125,231.2031 117.9063,231.6094 C117.9688,232.0156 118,232.1406 118.1406,232.2656 C118.2813,232.4063 118.5156,232.5156 118.7344,232.5156 C119,232.5156 119.2656,232.375 119.4375,232.1563 C119.5469,232 119.5781,231.8125 119.5781,231.3906 L119.5781,229.9688 C119.5781,229.5313 119.5625,229.4063 119.4688,229.25 C119.3125,228.9844 119.0313,228.8438 118.7344,228.8438 C118.4375,228.8438 118.2344,228.9375 118.0156,229.25 L117.8438,229.1719 Z " fill="#000000"/><text fill="#000000" font-family="sans-serif" font-size="14" lengthAdjust="spacing" textLength="75" x="129.5" y="238.3467">Evaluaci&#243;n</text><line style="stroke:#181818;stroke-width:0.5;" x1="101.5" x2="206.5" y1="249.5" y2="249.5"/><line style="stroke:#181818;stroke-width:0.5;" x1="101.5" x2="206.5" y1="257.5" y2="257.5"/></g><!--class Integral--><g id="elem_Integral"><rect codeLine="20" fill="#F1F1F1" height="48" id="Integral" rx="2.5" ry="2.5" style="stroke:#181818;stroke-width:0.5;" width="88" x="461" y="85"/><ellipse cx="476" cy="101" fill="#ADD1B2" rx="11" ry="11" style="stroke:#181818;stroke-width:1.0;"/><path d="M478.3438,96.6719 C477.4063,96.2344 476.8125,96.0938 475.9375,96.0938 C473.3125,96.0938 471.3125,98.1719 471.3125,100.8906 L471.3125,102.0156 C471.3125,104.5938 473.4219,106.4844 476.3125,106.4844 C477.5313,106.4844 478.6875,106.1875 479.4375,105.6406 C480.0156,105.2344 480.3438,104.7813 480.3438,104.3906 C480.3438,103.9375 479.9531,103.5469 479.4844,103.5469 C479.2656,103.5469 479.0625,103.625 478.875,103.8125 C478.4219,104.2969 478.4219,104.2969 478.2344,104.3906 C477.8125,104.6563 477.125,104.7813 476.3594,104.7813 C474.3125,104.7813 473.0156,103.6875 473.0156,101.9844 L473.0156,100.8906 C473.0156,99.1094 474.2656,97.7969 476,97.7969 C476.5781,97.7969 477.1875,97.9531 477.6563,98.2031 C478.1406,98.4844 478.3125,98.7031 478.4063,99.1094 C478.4688,99.5156 478.5,99.6406 478.6406,99.7656 C478.7813,99.9063 479.0156,100.0156 479.2344,100.0156 C479.5,100.0156 479.7656,99.875 479.9375,99.6563 C480.0469,99.5 480.0781,99.3125 480.0781,98.8906 L480.0781,97.4688 C480.0781,97.0313 480.0625,96.9063 479.9688,96.75 C479.8125,96.4844 479.5313,96.3438 479.2344,96.3438 C478.9375,96.3438 478.7344,96.4375 478.5156,96.75 L478.3438,96.6719 Z " fill="#000000"/><text fill="#000000" font-family="sans-serif" font-size="14" lengthAdjust="spacing" textLength="56" x="490" y="105.8467">Integral</text><line style="stroke:#181818;stroke-width:0.5;" x1="462" x2="548" y1="117" y2="117"/><line style="stroke:#181818;stroke-width:0.5;" x1="462" x2="548" y1="125" y2="125"/></g><!--class Contexto--><g id="elem_Contexto"><rect codeLine="21" fill="#F1F1F1" height="48" id="Contexto" rx="2.5" ry="2.5" style="stroke:#181818;stroke-width:0.5;" width="100" x="326" y="85"/><ellipse cx="341" cy="101" fill="#ADD1B2" rx="11" ry="11" style="stroke:#181818;stroke-width:1.0;"/><path d="M343.3438,96.6719 C342.4063,96.2344 341.8125,96.0938 340.9375,96.0938 C338.3125,96.0938 336.3125,98.1719 336.3125,100.8906 L336.3125,102.0156 C336.3125,104.5938 338.4219,106.4844 341.3125,106.4844 C342.5313,106.4844 343.6875,106.1875 344.4375,105.6406 C345.0156,105.2344 345.3438,104.7813 345.3438,104.3906 C345.3438,103.9375 344.9531,103.5469 344.4844,103.5469 C344.2656,103.5469 344.0625,103.625 343.875,103.8125 C343.4219,104.2969 343.4219,104.2969 343.2344,104.3906 C342.8125,104.6563 342.125,104.7813 341.3594,104.7813 C339.3125,104.7813 338.0156,103.6875 338.0156,101.9844 L338.0156,100.8906 C338.0156,99.1094 339.2656,97.7969 341,97.7969 C341.5781,97.7969 342.1875,97.9531 342.6563,98.2031 C343.1406,98.4844 343.3125,98.7031 343.4063,99.1094 C343.4688,99.5156 343.5,99.6406 343.6406,99.7656 C343.7813,99.9063 344.0156,100.0156 344.2344,100.0156 C344.5,100.0156 344.7656,99.875 344.9375,99.6563 C345.0469,99.5 345.0781,99.3125 345.0781,98.8906 L345.0781,97.4688 C345.0781,97.0313 345.0625,96.9063 344.9688,96.75 C344.8125,96.4844 344.5313,96.3438 344.2344,96.3438 C343.9375,96.3438 343.7344,96.4375 343.5156,96.75 L343.3438,96.6719 Z " fill="#000000"/><text fill="#000000" font-family="sans-serif" font-size="14" lengthAdjust="spacing" textLength="68" x="355" y="105.8467">Contexto</text><line style="stroke:#181818;stroke-width:0.5;" x1="327" x2="425" y1="117" y2="117"/><line style="stroke:#181818;stroke-width:0.5;" x1="327" x2="425" y1="125" y2="125"/></g><!--link Contenido to Metodolog?a--><g id="link_Contenido_Metodolog&#237;a"><path codeLine="27" d="M139.877,109 C148.012,109 156.147,109 164.281,109 " fill="none" id="Contenido-Metodolog&#237;a" style="stroke:#181818;stroke-width:1.0;stroke-dasharray:7.0,7.0;"/><polygon fill="#181818" points="134.74,109,143.74,113,139.74,109,143.74,105,134.74,109" style="stroke:#181818;stroke-width:1.0;"/><polygon fill="#181818" points="169.346,109,160.346,105,164.346,109,160.346,113,169.346,109" style="stroke:#181818;stroke-width:1.0;"/></g><!--link Contenido to Evaluaci?n--><g id="link_Contenido_Evaluaci&#243;n"><path codeLine="28" d="M109.248,162.632 C119.113,179.797 129.675,198.1738 138.059,212.762 " fill="none" id="Contenido-Evaluaci&#243;n" style="stroke:#181818;stroke-width:1.0;stroke-dasharray:7.0,7.0;"/><polygon fill="#181818" points="106.501,157.852,107.5183,167.6482,108.9928,162.1869,114.4541,163.6614,106.501,157.852" style="stroke:#181818;stroke-width:1.0;"/><polygon fill="#181818" points="140.587,217.1622,139.5697,207.366,138.0952,212.8273,132.6339,211.3528,140.587,217.1622" style="stroke:#181818;stroke-width:1.0;"/></g><!--link Metodolog?a to Evaluaci?n--><g id="link_Metodolog&#237;a_Evaluaci&#243;n"><path codeLine="29" d="M199.348,162.632 C189.352,179.797 178.65,198.1738 170.154,212.762 " fill="none" id="Metodolog&#237;a-Evaluaci&#243;n" style="stroke:#181818;stroke-width:1.0;stroke-dasharray:7.0,7.0;"/><polygon fill="#181818" points="202.132,157.852,194.1457,163.6156,199.6154,162.1725,201.0585,167.6422,202.132,157.852" style="stroke:#181818;stroke-width:1.0;"/><polygon fill="#181818" points="167.591,217.1622,175.5766,211.3976,170.1071,212.8414,168.6633,207.3719,167.591,217.1622" style="stroke:#181818;stroke-width:1.0;"/></g><!--SRC=[POzD2i8m48NtFSNiXPwW54GgkX2ymZG9PJ3Db3Gj5V58hZn2B-Rq3rlDQl8Uyyrx5QeR5WQEx4jKrByT98atAg0hh4bJU4IHibZNS60NZ2FD8W4ab8h0YaeoBl2ad30dIngrgITXhmA5PlW-5yp51DPikUXVk92kdkzoaki5R35dZu7Q6PnrbV5oI14Ef1cLjMYRARHe0DNSPVTN0UHDEsSfKNYqAsaireqTX3tWlrMJsCVf9lF6r6AkKwncSPkVrGy0]--></g></svg>