<?xml version="1.0" encoding="us-ascii" standalone="no"?><svg xmlns="http://www.w3.org/2000/svg" xmlns:xlink="http://www.w3.org/1999/xlink" contentStyleType="text/css" height="843px" preserveAspectRatio="none" style="width:514px;height:843px;background:#FFFFFF;" version="1.1" viewBox="0 0 514 843" width="514px" zoomAndPan="magnify"><defs/><g><!--class SpotifyApp--><g id="elem_SpotifyApp"><rect codeLine="1" fill="#F1F1F1" height="67.0679" id="SpotifyApp" rx="2.5" ry="2.5" style="stroke:#181818;stroke-width:0.5;" width="105" x="213.5" y="7"/><ellipse cx="228.5" cy="23" fill="#ADD1B2" rx="11" ry="11" style="stroke:#181818;stroke-width:1.0;"/><path d="M227.9688,29.9219 Q226.2188,29.9219 225.0781,29.1875 Q223.9531,28.4375 223.3906,27.0938 Q222.8438,25.7344 222.8438,23.9375 Q222.8438,21.9063 223.5,20.4531 Q224.1563,19 225.4375,18.2188 Q226.7188,17.4375 228.5938,17.4375 Q229.4844,17.4375 230.1563,17.625 Q230.8281,17.7969 231.5156,18.1406 L230.7031,20.1563 Q230.0781,19.8438 229.5313,19.7188 Q229,19.5938 228.5156,19.5938 Q227.3438,19.5938 226.6406,20.125 Q225.9375,20.6563 225.6406,21.6094 Q225.3438,22.5625 225.3438,23.8281 Q225.3438,25.8438 226.0625,26.8125 Q226.7813,27.7656 228.375,27.7656 Q228.9688,27.7656 229.5938,27.6094 Q230.2188,27.4531 231.0469,27.0781 L231.0469,29.2969 Q230.3125,29.6094 229.5156,29.7656 Q228.7344,29.9219 227.9688,29.9219 Z " fill="#000000"/><text fill="#000000" font-family="sans-serif" font-size="14" lengthAdjust="spacing" textLength="73" x="242.5" y="28.432">SpotifyApp</text><line style="stroke:#181818;stroke-width:0.5;" x1="214.5" x2="317.5" y1="39" y2="39"/><text fill="#000000" font-family="sans-serif" font-size="14" lengthAdjust="spacing" textLength="48" x="219.5" y="57.9659">&#171;main&#187;</text><line style="stroke:#181818;stroke-width:0.5;" x1="214.5" x2="317.5" y1="66.0679" y2="66.0679"/></g><!--class Cancion--><g id="elem_Cancion"><rect codeLine="5" fill="#F1F1F1" height="67.0679" id="Cancion" rx="2.5" ry="2.5" style="stroke:#181818;stroke-width:0.5;" width="86" x="20" y="769"/><ellipse cx="35" cy="785" fill="#ADD1B2" rx="11" ry="11" style="stroke:#181818;stroke-width:1.0;"/><path d="M34.4688,791.9219 Q32.7188,791.9219 31.5781,791.1875 Q30.4531,790.4375 29.8906,789.0938 Q29.3438,787.7344 29.3438,785.9375 Q29.3438,783.9063 30,782.4531 Q30.6563,781 31.9375,780.2188 Q33.2188,779.4375 35.0938,779.4375 Q35.9844,779.4375 36.6563,779.625 Q37.3281,779.7969 38.0156,780.1406 L37.2031,782.1563 Q36.5781,781.8438 36.0313,781.7188 Q35.5,781.5938 35.0156,781.5938 Q33.8438,781.5938 33.1406,782.125 Q32.4375,782.6563 32.1406,783.6094 Q31.8438,784.5625 31.8438,785.8281 Q31.8438,787.8438 32.5625,788.8125 Q33.2813,789.7656 34.875,789.7656 Q35.4688,789.7656 36.0938,789.6094 Q36.7188,789.4531 37.5469,789.0781 L37.5469,791.2969 Q36.8125,791.6094 36.0156,791.7656 Q35.2344,791.9219 34.4688,791.9219 Z " fill="#000000"/><text fill="#000000" font-family="sans-serif" font-size="14" lengthAdjust="spacing" textLength="54" x="49" y="790.432">Cancion</text><line style="stroke:#181818;stroke-width:0.5;" x1="21" x2="105" y1="801" y2="801"/><text fill="#000000" font-family="sans-serif" font-size="14" lengthAdjust="spacing" textLength="52" x="26" y="819.9659">&#171;entity&#187;</text><line style="stroke:#181818;stroke-width:0.5;" x1="21" x2="105" y1="828.0679" y2="828.0679"/></g><!--class NodoCancion--><g id="elem_NodoCancion"><rect codeLine="9" fill="#F1F1F1" height="67.0679" id="NodoCancion" rx="2.5" ry="2.5" style="stroke:#181818;stroke-width:0.5;" width="122" x="101" y="642"/><ellipse cx="116" cy="658" fill="#ADD1B2" rx="11" ry="11" style="stroke:#181818;stroke-width:1.0;"/><path d="M115.4688,664.9219 Q113.7188,664.9219 112.5781,664.1875 Q111.4531,663.4375 110.8906,662.0938 Q110.3438,660.7344 110.3438,658.9375 Q110.3438,656.9063 111,655.4531 Q111.6563,654 112.9375,653.2188 Q114.2188,652.4375 116.0938,652.4375 Q116.9844,652.4375 117.6563,652.625 Q118.3281,652.7969 119.0156,653.1406 L118.2031,655.1563 Q117.5781,654.8438 117.0313,654.7188 Q116.5,654.5938 116.0156,654.5938 Q114.8438,654.5938 114.1406,655.125 Q113.4375,655.6563 113.1406,656.6094 Q112.8438,657.5625 112.8438,658.8281 Q112.8438,660.8438 113.5625,661.8125 Q114.2813,662.7656 115.875,662.7656 Q116.4688,662.7656 117.0938,662.6094 Q117.7188,662.4531 118.5469,662.0781 L118.5469,664.2969 Q117.8125,664.6094 117.0156,664.7656 Q116.2344,664.9219 115.4688,664.9219 Z " fill="#000000"/><text fill="#000000" font-family="sans-serif" font-size="14" lengthAdjust="spacing" textLength="90" x="130" y="663.432">NodoCancion</text><line style="stroke:#181818;stroke-width:0.5;" x1="102" x2="222" y1="674" y2="674"/><text fill="#000000" font-family="sans-serif" font-size="14" lengthAdjust="spacing" textLength="48" x="107" y="692.9659">&#171;node&#187;</text><line style="stroke:#181818;stroke-width:0.5;" x1="102" x2="222" y1="701.0679" y2="701.0679"/></g><!--class ColaReproduccion--><g id="elem_ColaReproduccion"><rect codeLine="13" fill="#F1F1F1" height="67.0679" id="ColaReproduccion" rx="2.5" ry="2.5" style="stroke:#181818;stroke-width:0.5;" width="154" x="59" y="261"/><ellipse cx="74" cy="277" fill="#ADD1B2" rx="11" ry="11" style="stroke:#181818;stroke-width:1.0;"/><path d="M73.4688,283.9219 Q71.7188,283.9219 70.5781,283.1875 Q69.4531,282.4375 68.8906,281.0938 Q68.3438,279.7344 68.3438,277.9375 Q68.3438,275.9063 69,274.4531 Q69.6563,273 70.9375,272.2188 Q72.2188,271.4375 74.0938,271.4375 Q74.9844,271.4375 75.6563,271.625 Q76.3281,271.7969 77.0156,272.1406 L76.2031,274.1563 Q75.5781,273.8438 75.0313,273.7188 Q74.5,273.5938 74.0156,273.5938 Q72.8438,273.5938 72.1406,274.125 Q71.4375,274.6563 71.1406,275.6094 Q70.8438,276.5625 70.8438,277.8281 Q70.8438,279.8438 71.5625,280.8125 Q72.2813,281.7656 73.875,281.7656 Q74.4688,281.7656 75.0938,281.6094 Q75.7188,281.4531 76.5469,281.0781 L76.5469,283.2969 Q75.8125,283.6094 75.0156,283.7656 Q74.2344,283.9219 73.4688,283.9219 Z " fill="#000000"/><text fill="#000000" font-family="sans-serif" font-size="14" lengthAdjust="spacing" textLength="122" x="88" y="282.432">ColaReproduccion</text><line style="stroke:#181818;stroke-width:0.5;" x1="60" x2="212" y1="293" y2="293"/><text fill="#000000" font-family="sans-serif" font-size="14" lengthAdjust="spacing" textLength="57" x="65" y="311.9659">&#171;queue&#187;</text><line style="stroke:#181818;stroke-width:0.5;" x1="60" x2="212" y1="320.0679" y2="320.0679"/></g><!--class PilaHistorial--><g id="elem_PilaHistorial"><rect codeLine="17" fill="#F1F1F1" height="67.0679" id="PilaHistorial" rx="2.5" ry="2.5" style="stroke:#181818;stroke-width:0.5;" width="112" x="172" y="388"/><ellipse cx="187" cy="404" fill="#ADD1B2" rx="11" ry="11" style="stroke:#181818;stroke-width:1.0;"/><path d="M186.4688,410.9219 Q184.7188,410.9219 183.5781,410.1875 Q182.4531,409.4375 181.8906,408.0938 Q181.3438,406.7344 181.3438,404.9375 Q181.3438,402.9063 182,401.4531 Q182.6563,400 183.9375,399.2188 Q185.2188,398.4375 187.0938,398.4375 Q187.9844,398.4375 188.6563,398.625 Q189.3281,398.7969 190.0156,399.1406 L189.2031,401.1563 Q188.5781,400.8438 188.0313,400.7188 Q187.5,400.5938 187.0156,400.5938 Q185.8438,400.5938 185.1406,401.125 Q184.4375,401.6563 184.1406,402.6094 Q183.8438,403.5625 183.8438,404.8281 Q183.8438,406.8438 184.5625,407.8125 Q185.2813,408.7656 186.875,408.7656 Q187.4688,408.7656 188.0938,408.6094 Q188.7188,408.4531 189.5469,408.0781 L189.5469,410.2969 Q188.8125,410.6094 188.0156,410.7656 Q187.2344,410.9219 186.4688,410.9219 Z " fill="#000000"/><text fill="#000000" font-family="sans-serif" font-size="14" lengthAdjust="spacing" textLength="80" x="201" y="409.432">PilaHistorial</text><line style="stroke:#181818;stroke-width:0.5;" x1="173" x2="283" y1="420" y2="420"/><text fill="#000000" font-family="sans-serif" font-size="14" lengthAdjust="spacing" textLength="48" x="178" y="438.9659">&#171;stack&#187;</text><line style="stroke:#181818;stroke-width:0.5;" x1="173" x2="283" y1="447.0679" y2="447.0679"/></g><!--class ListaCanciones--><g id="elem_ListaCanciones"><rect codeLine="21" fill="#F1F1F1" height="67.0679" id="ListaCanciones" rx="2.5" ry="2.5" style="stroke:#181818;stroke-width:0.5;" width="132" x="271" y="515"/><ellipse cx="286" cy="531" fill="#ADD1B2" rx="11" ry="11" style="stroke:#181818;stroke-width:1.0;"/><path d="M285.4688,537.9219 Q283.7188,537.9219 282.5781,537.1875 Q281.4531,536.4375 280.8906,535.0938 Q280.3438,533.7344 280.3438,531.9375 Q280.3438,529.9063 281,528.4531 Q281.6563,527 282.9375,526.2188 Q284.2188,525.4375 286.0938,525.4375 Q286.9844,525.4375 287.6563,525.625 Q288.3281,525.7969 289.0156,526.1406 L288.2031,528.1563 Q287.5781,527.8438 287.0313,527.7188 Q286.5,527.5938 286.0156,527.5938 Q284.8438,527.5938 284.1406,528.125 Q283.4375,528.6563 283.1406,529.6094 Q282.8438,530.5625 282.8438,531.8281 Q282.8438,533.8438 283.5625,534.8125 Q284.2813,535.7656 285.875,535.7656 Q286.4688,535.7656 287.0938,535.6094 Q287.7188,535.4531 288.5469,535.0781 L288.5469,537.2969 Q287.8125,537.6094 287.0156,537.7656 Q286.2344,537.9219 285.4688,537.9219 Z " fill="#000000"/><text fill="#000000" font-family="sans-serif" font-size="14" lengthAdjust="spacing" textLength="100" x="300" y="536.432">ListaCanciones</text><line style="stroke:#181818;stroke-width:0.5;" x1="272" x2="402" y1="547" y2="547"/><text fill="#000000" font-family="sans-serif" font-size="14" lengthAdjust="spacing" textLength="34" x="277" y="565.9659">&#171;list&#187;</text><line style="stroke:#181818;stroke-width:0.5;" x1="272" x2="402" y1="574.0679" y2="574.0679"/></g><!--class Playlist--><g id="elem_Playlist"><rect codeLine="25" fill="#F1F1F1" height="67.0679" id="Playlist" rx="2.5" ry="2.5" style="stroke:#181818;stroke-width:0.5;" width="79" x="399.5" y="388"/><ellipse cx="414.5" cy="404" fill="#ADD1B2" rx="11" ry="11" style="stroke:#181818;stroke-width:1.0;"/><path d="M413.9688,410.9219 Q412.2188,410.9219 411.0781,410.1875 Q409.9531,409.4375 409.3906,408.0938 Q408.8438,406.7344 408.8438,404.9375 Q408.8438,402.9063 409.5,401.4531 Q410.1563,400 411.4375,399.2188 Q412.7188,398.4375 414.5938,398.4375 Q415.4844,398.4375 416.1563,398.625 Q416.8281,398.7969 417.5156,399.1406 L416.7031,401.1563 Q416.0781,400.8438 415.5313,400.7188 Q415,400.5938 414.5156,400.5938 Q413.3438,400.5938 412.6406,401.125 Q411.9375,401.6563 411.6406,402.6094 Q411.3438,403.5625 411.3438,404.8281 Q411.3438,406.8438 412.0625,407.8125 Q412.7813,408.7656 414.375,408.7656 Q414.9688,408.7656 415.5938,408.6094 Q416.2188,408.4531 417.0469,408.0781 L417.0469,410.2969 Q416.3125,410.6094 415.5156,410.7656 Q414.7344,410.9219 413.9688,410.9219 Z " fill="#000000"/><text fill="#000000" font-family="sans-serif" font-size="14" lengthAdjust="spacing" textLength="47" x="428.5" y="409.432">Playlist</text><line style="stroke:#181818;stroke-width:0.5;" x1="400.5" x2="477.5" y1="420" y2="420"/><text fill="#000000" font-family="sans-serif" font-size="14" lengthAdjust="spacing" textLength="52" x="405.5" y="438.9659">&#171;entity&#187;</text><line style="stroke:#181818;stroke-width:0.5;" x1="400.5" x2="477.5" y1="447.0679" y2="447.0679"/></g><!--class ListaPlaylists--><g id="elem_ListaPlaylists"><rect codeLine="29" fill="#F1F1F1" height="67.0679" id="ListaPlaylists" rx="2.5" ry="2.5" style="stroke:#181818;stroke-width:0.5;" width="117" x="390.5" y="134"/><ellipse cx="405.5" cy="150" fill="#ADD1B2" rx="11" ry="11" style="stroke:#181818;stroke-width:1.0;"/><path d="M404.9688,156.9219 Q403.2188,156.9219 402.0781,156.1875 Q400.9531,155.4375 400.3906,154.0938 Q399.8438,152.7344 399.8438,150.9375 Q399.8438,148.9063 400.5,147.4531 Q401.1563,146 402.4375,145.2188 Q403.7188,144.4375 405.5938,144.4375 Q406.4844,144.4375 407.1563,144.625 Q407.8281,144.7969 408.5156,145.1406 L407.7031,147.1563 Q407.0781,146.8438 406.5313,146.7188 Q406,146.5938 405.5156,146.5938 Q404.3438,146.5938 403.6406,147.125 Q402.9375,147.6563 402.6406,148.6094 Q402.3438,149.5625 402.3438,150.8281 Q402.3438,152.8438 403.0625,153.8125 Q403.7813,154.7656 405.375,154.7656 Q405.9688,154.7656 406.5938,154.6094 Q407.2188,154.4531 408.0469,154.0781 L408.0469,156.2969 Q407.3125,156.6094 406.5156,156.7656 Q405.7344,156.9219 404.9688,156.9219 Z " fill="#000000"/><text fill="#000000" font-family="sans-serif" font-size="14" lengthAdjust="spacing" textLength="85" x="419.5" y="155.432">ListaPlaylists</text><line style="stroke:#181818;stroke-width:0.5;" x1="391.5" x2="506.5" y1="166" y2="166"/><text fill="#000000" font-family="sans-serif" font-size="14" lengthAdjust="spacing" textLength="34" x="396.5" y="184.9659">&#171;list&#187;</text><line style="stroke:#181818;stroke-width:0.5;" x1="391.5" x2="506.5" y1="193.0679" y2="193.0679"/></g><!--class NodoPlaylist--><g id="elem_NodoPlaylist"><rect codeLine="33" fill="#F1F1F1" height="67.0679" id="NodoPlaylist" rx="2.5" ry="2.5" style="stroke:#181818;stroke-width:0.5;" width="115" x="391.5" y="261"/><ellipse cx="406.5" cy="277" fill="#ADD1B2" rx="11" ry="11" style="stroke:#181818;stroke-width:1.0;"/><path d="M405.9688,283.9219 Q404.2188,283.9219 403.0781,283.1875 Q401.9531,282.4375 401.3906,281.0938 Q400.8438,279.7344 400.8438,277.9375 Q400.8438,275.9063 401.5,274.4531 Q402.1563,273 403.4375,272.2188 Q404.7188,271.4375 406.5938,271.4375 Q407.4844,271.4375 408.1563,271.625 Q408.8281,271.7969 409.5156,272.1406 L408.7031,274.1563 Q408.0781,273.8438 407.5313,273.7188 Q407,273.5938 406.5156,273.5938 Q405.3438,273.5938 404.6406,274.125 Q403.9375,274.6563 403.6406,275.6094 Q403.3438,276.5625 403.3438,277.8281 Q403.3438,279.8438 404.0625,280.8125 Q404.7813,281.7656 406.375,281.7656 Q406.9688,281.7656 407.5938,281.6094 Q408.2188,281.4531 409.0469,281.0781 L409.0469,283.2969 Q408.3125,283.6094 407.5156,283.7656 Q406.7344,283.9219 405.9688,283.9219 Z " fill="#000000"/><text fill="#000000" font-family="sans-serif" font-size="14" lengthAdjust="spacing" textLength="83" x="420.5" y="282.432">NodoPlaylist</text><line style="stroke:#181818;stroke-width:0.5;" x1="392.5" x2="505.5" y1="293" y2="293"/><text fill="#000000" font-family="sans-serif" font-size="14" lengthAdjust="spacing" textLength="48" x="397.5" y="311.9659">&#171;node&#187;</text><line style="stroke:#181818;stroke-width:0.5;" x1="392.5" x2="505.5" y1="320.0679" y2="320.0679"/></g><!--link SpotifyApp to ListaCanciones--><g id="link_SpotifyApp_ListaCanciones"><path codeLine="37" d="M271.03,74.02 C273.74,91.74 277.12,114.07 280,134 C300.48,275.65 322.4948,438.9029 331.8448,508.8329 " fill="none" id="SpotifyApp-to-ListaCanciones" style="stroke:#181818;stroke-width:1.0;"/><polygon fill="#181818" points="332.64,514.78,335.412,505.3293,331.9774,509.8241,327.4825,506.3895,332.64,514.78" style="stroke:#181818;stroke-width:1.0;"/></g><!--link SpotifyApp to ColaReproduccion--><g id="link_SpotifyApp_ColaReproduccion"><path codeLine="38" d="M249.14,74.19 C224.2,122.53 180.5006,207.2276 155.5806,255.5376 " fill="none" id="SpotifyApp-to-ColaReproduccion" style="stroke:#181818;stroke-width:1.0;"/><polygon fill="#181818" points="152.83,260.87,160.5108,254.7052,155.1222,256.4264,153.401,251.0377,152.83,260.87" style="stroke:#181818;stroke-width:1.0;"/></g><!--link SpotifyApp to PilaHistorial--><g id="link_SpotifyApp_PilaHistorial"><path codeLine="39" d="M262.73,74.14 C255.54,145.78 239.0688,310.14 231.8788,381.83 " fill="none" id="SpotifyApp-to-PilaHistorial" style="stroke:#181818;stroke-width:1.0;"/><polygon fill="#181818" points="231.28,387.8,236.1582,379.2441,231.779,382.825,228.1981,378.4458,231.28,387.8" style="stroke:#181818;stroke-width:1.0;"/></g><!--link SpotifyApp to ListaPlaylists--><g id="link_SpotifyApp_ListaPlaylists"><path codeLine="40" d="M313.6,74.02 C340.61,92.46 369.3458,112.0853 396.3658,130.5453 " fill="none" id="SpotifyApp-to-ListaPlaylists" style="stroke:#181818;stroke-width:1.0;"/><polygon fill="#181818" points="401.32,133.93,396.1452,125.5502,397.1915,131.1094,391.6323,132.1558,401.32,133.93" style="stroke:#181818;stroke-width:1.0;"/></g><!--link SpotifyApp to Cancion--><g id="link_SpotifyApp_Cancion"><path codeLine="41" d="M213.39,63.82 C137.41,99.99 6,179.09 6,293.5 C6,293.5 6,293.5 6,549.5 C6,629.79 31.8777,715.3404 48.6377,762.9504 " fill="none" id="SpotifyApp-to-Cancion" style="stroke:#181818;stroke-width:1.0;"/><polygon fill="#181818" points="50.63,768.61,51.4146,758.7924,48.9697,763.8937,43.8685,761.4489,50.63,768.61" style="stroke:#181818;stroke-width:1.0;"/></g><!--link ListaCanciones to NodoCancion--><g id="link_ListaCanciones_NodoCancion"><path codeLine="43" d="M291.48,582.02 C265.65,600.46 238.3221,619.9822 212.4821,638.4422 " fill="none" id="ListaCanciones-to-NodoCancion" style="stroke:#181818;stroke-width:1.0;"/><polygon fill="#181818" points="207.6,641.93,217.2484,639.9531,211.6685,639.0235,212.598,633.4436,207.6,641.93" style="stroke:#181818;stroke-width:1.0;"/></g><!--link ColaReproduccion to NodoCancion--><g id="link_ColaReproduccion_NodoCancion"><path codeLine="44" d="M138.24,328.14 C143.15,399.78 154.4292,564.1241 159.3492,635.8141 " fill="none" id="ColaReproduccion-to-NodoCancion" style="stroke:#181818;stroke-width:1.0;"/><polygon fill="#181818" points="159.76,641.8,163.1344,632.5472,159.4177,636.8117,155.1532,633.095,159.76,641.8" style="stroke:#181818;stroke-width:1.0;"/></g><!--link PilaHistorial to NodoCancion--><g id="link_PilaHistorial_NodoCancion"><path codeLine="45" d="M219.44,455.19 C206.78,503.53 184.7199,587.7557 172.0699,636.0657 " fill="none" id="PilaHistorial-to-NodoCancion" style="stroke:#181818;stroke-width:1.0;"/><polygon fill="#181818" points="170.55,641.87,176.6993,634.1768,171.8166,637.0331,168.9603,632.1503,170.55,641.87" style="stroke:#181818;stroke-width:1.0;"/></g><!--link ListaPlaylists to NodoPlaylist--><g id="link_ListaPlaylists_NodoPlaylist"><path codeLine="46" d="M449,201.02 C449,219.39 449,236.29 449,254.71 " fill="none" id="ListaPlaylists-to-NodoPlaylist" style="stroke:#181818;stroke-width:1.0;"/><polygon fill="#181818" points="449,260.71,453,251.71,449,255.71,445,251.71,449,260.71" style="stroke:#181818;stroke-width:1.0;"/></g><!--link NodoCancion to Cancion--><g id="link_NodoCancion_Cancion"><path codeLine="48" d="M136.25,709.02 C121.7,727.39 107.2738,745.5854 92.6938,764.0054 " fill="none" id="NodoCancion-to-Cancion" style="stroke:#181818;stroke-width:1.0;"/><polygon fill="#181818" points="88.97,768.71,97.6921,764.1357,92.0732,764.7895,91.4193,759.1706,88.97,768.71" style="stroke:#181818;stroke-width:1.0;"/></g><!--link NodoPlaylist to Playlist--><g id="link_NodoPlaylist_Playlist"><path codeLine="49" d="M446.4,328.02 C444.93,346.39 443.5805,363.3093 442.1005,381.7293 " fill="none" id="NodoPlaylist-to-Playlist" style="stroke:#181818;stroke-width:1.0;"/><polygon fill="#181818" points="441.62,387.71,446.328,379.0593,442.0204,382.7261,438.3537,378.4186,441.62,387.71" style="stroke:#181818;stroke-width:1.0;"/></g><!--link Playlist to ListaCanciones--><g id="link_Playlist_ListaCanciones"><path codeLine="50" d="M412.47,455.02 C397.47,473.39 382.5732,491.6412 367.5432,510.0612 " fill="none" id="Playlist-to-ListaCanciones" style="stroke:#181818;stroke-width:1.0;"/><polygon fill="#181818" points="363.75,514.71,372.5391,510.2656,366.911,510.836,366.3407,505.208,363.75,514.71" style="stroke:#181818;stroke-width:1.0;"/></g><!--SRC=[ZL912iCW4Bpx2Z-G7uH0wQM7KahxWiLOa5hNHdC8fNzlDB6unaEy23ixEywid7CkD3Z7xnQzUam7Q_c7yVMqxGkKwRfO-B9uBUr7C4AX8RtIUEMdMlS5Uwmn3FQoEXqrtAGTi1_5XlGUvLXbNPM6at8U1mMQK9m7yQnHpdCxh2-JZd3q35LLD4m1ssazAYJEFeMGLbM5nfLjh6cwmag9becMECckElhlOJDwqMIi23DWsUBPPgbb0zrVYHP19ZXLGYei_sVvqqYYqMvYaIery0C0]--></g></svg>