<?xml version="1.0" encoding="us-ascii" standalone="no"?><svg xmlns="http://www.w3.org/2000/svg" xmlns:xlink="http://www.w3.org/1999/xlink" contentStyleType="text/css" height="843px" preserveAspectRatio="none" style="width:501px;height:843px;background:#FFFFFF;" version="1.1" viewBox="0 0 501 843" width="501px" zoomAndPan="magnify"><defs/><g><!--class ReproductorMusical--><g id="elem_ReproductorMusical"><rect codeLine="1" fill="#F1F1F1" height="67.0679" id="ReproductorMusical" rx="2.5" ry="2.5" style="stroke:#181818;stroke-width:0.5;" width="168" x="144" y="7"/><ellipse cx="159" cy="23" fill="#ADD1B2" rx="11" ry="11" style="stroke:#181818;stroke-width:1.0;"/><path d="M158.4688,29.9219 Q156.7188,29.9219 155.5781,29.1875 Q154.4531,28.4375 153.8906,27.0938 Q153.3438,25.7344 153.3438,23.9375 Q153.3438,21.9063 154,20.4531 Q154.6563,19 155.9375,18.2188 Q157.2188,17.4375 159.0938,17.4375 Q159.9844,17.4375 160.6563,17.625 Q161.3281,17.7969 162.0156,18.1406 L161.2031,20.1563 Q160.5781,19.8438 160.0313,19.7188 Q159.5,19.5938 159.0156,19.5938 Q157.8438,19.5938 157.1406,20.125 Q156.4375,20.6563 156.1406,21.6094 Q155.8438,22.5625 155.8438,23.8281 Q155.8438,25.8438 156.5625,26.8125 Q157.2813,27.7656 158.875,27.7656 Q159.4688,27.7656 160.0938,27.6094 Q160.7188,27.4531 161.5469,27.0781 L161.5469,29.2969 Q160.8125,29.6094 160.0156,29.7656 Q159.2344,29.9219 158.4688,29.9219 Z " fill="#000000"/><text fill="#000000" font-family="sans-serif" font-size="14" lengthAdjust="spacing" textLength="136" x="173" y="28.432">ReproductorMusical</text><line style="stroke:#181818;stroke-width:0.5;" x1="145" x2="311" y1="39" y2="39"/><text fill="#000000" font-family="sans-serif" font-size="14" lengthAdjust="spacing" textLength="48" x="150" y="57.9659">&#171;main&#187;</text><line style="stroke:#181818;stroke-width:0.5;" x1="145" x2="311" y1="66.0679" y2="66.0679"/></g><!--class Cancion--><g id="elem_Cancion"><rect codeLine="5" fill="#F1F1F1" height="67.0679" id="Cancion" rx="2.5" ry="2.5" style="stroke:#181818;stroke-width:0.5;" width="86" x="26" y="769"/><ellipse cx="41" cy="785" fill="#ADD1B2" rx="11" ry="11" style="stroke:#181818;stroke-width:1.0;"/><path d="M40.4688,791.9219 Q38.7188,791.9219 37.5781,791.1875 Q36.4531,790.4375 35.8906,789.0938 Q35.3438,787.7344 35.3438,785.9375 Q35.3438,783.9063 36,782.4531 Q36.6563,781 37.9375,780.2188 Q39.2188,779.4375 41.0938,779.4375 Q41.9844,779.4375 42.6563,779.625 Q43.3281,779.7969 44.0156,780.1406 L43.2031,782.1563 Q42.5781,781.8438 42.0313,781.7188 Q41.5,781.5938 41.0156,781.5938 Q39.8438,781.5938 39.1406,782.125 Q38.4375,782.6563 38.1406,783.6094 Q37.8438,784.5625 37.8438,785.8281 Q37.8438,787.8438 38.5625,788.8125 Q39.2813,789.7656 40.875,789.7656 Q41.4688,789.7656 42.0938,789.6094 Q42.7188,789.4531 43.5469,789.0781 L43.5469,791.2969 Q42.8125,791.6094 42.0156,791.7656 Q41.2344,791.9219 40.4688,791.9219 Z " fill="#000000"/><text fill="#000000" font-family="sans-serif" font-size="14" lengthAdjust="spacing" textLength="54" x="55" y="790.432">Cancion</text><line style="stroke:#181818;stroke-width:0.5;" x1="27" x2="111" y1="801" y2="801"/><text fill="#000000" font-family="sans-serif" font-size="14" lengthAdjust="spacing" textLength="52" x="32" y="819.9659">&#171;entity&#187;</text><line style="stroke:#181818;stroke-width:0.5;" x1="27" x2="111" y1="828.0679" y2="828.0679"/></g><!--class ElementoMusical--><g id="elem_ElementoMusical"><rect codeLine="9" fill="#F1F1F1" height="67.0679" id="ElementoMusical" rx="2.5" ry="2.5" style="stroke:#181818;stroke-width:0.5;" width="147" x="86.5" y="642"/><ellipse cx="101.5" cy="658" fill="#ADD1B2" rx="11" ry="11" style="stroke:#181818;stroke-width:1.0;"/><path d="M100.9688,664.9219 Q99.2188,664.9219 98.0781,664.1875 Q96.9531,663.4375 96.3906,662.0938 Q95.8438,660.7344 95.8438,658.9375 Q95.8438,656.9063 96.5,655.4531 Q97.1563,654 98.4375,653.2188 Q99.7188,652.4375 101.5938,652.4375 Q102.4844,652.4375 103.1563,652.625 Q103.8281,652.7969 104.5156,653.1406 L103.7031,655.1563 Q103.0781,654.8438 102.5313,654.7188 Q102,654.5938 101.5156,654.5938 Q100.3438,654.5938 99.6406,655.125 Q98.9375,655.6563 98.6406,656.6094 Q98.3438,657.5625 98.3438,658.8281 Q98.3438,660.8438 99.0625,661.8125 Q99.7813,662.7656 101.375,662.7656 Q101.9688,662.7656 102.5938,662.6094 Q103.2188,662.4531 104.0469,662.0781 L104.0469,664.2969 Q103.3125,664.6094 102.5156,664.7656 Q101.7344,664.9219 100.9688,664.9219 Z " fill="#000000"/><text fill="#000000" font-family="sans-serif" font-size="14" lengthAdjust="spacing" textLength="115" x="115.5" y="663.432">ElementoMusical</text><line style="stroke:#181818;stroke-width:0.5;" x1="87.5" x2="232.5" y1="674" y2="674"/><text fill="#000000" font-family="sans-serif" font-size="14" lengthAdjust="spacing" textLength="48" x="92.5" y="692.9659">&#171;node&#187;</text><line style="stroke:#181818;stroke-width:0.5;" x1="87.5" x2="232.5" y1="701.0679" y2="701.0679"/></g><!--class Reproductor--><g id="elem_Reproductor"><rect codeLine="13" fill="#F1F1F1" height="67.0679" id="Reproductor" rx="2.5" ry="2.5" style="stroke:#181818;stroke-width:0.5;" width="116" x="59" y="261"/><ellipse cx="74" cy="277" fill="#ADD1B2" rx="11" ry="11" style="stroke:#181818;stroke-width:1.0;"/><path d="M73.4688,283.9219 Q71.7188,283.9219 70.5781,283.1875 Q69.4531,282.4375 68.8906,281.0938 Q68.3438,279.7344 68.3438,277.9375 Q68.3438,275.9063 69,274.4531 Q69.6563,273 70.9375,272.2188 Q72.2188,271.4375 74.0938,271.4375 Q74.9844,271.4375 75.6563,271.625 Q76.3281,271.7969 77.0156,272.1406 L76.2031,274.1563 Q75.5781,273.8438 75.0313,273.7188 Q74.5,273.5938 74.0156,273.5938 Q72.8438,273.5938 72.1406,274.125 Q71.4375,274.6563 71.1406,275.6094 Q70.8438,276.5625 70.8438,277.8281 Q70.8438,279.8438 71.5625,280.8125 Q72.2813,281.7656 73.875,281.7656 Q74.4688,281.7656 75.0938,281.6094 Q75.7188,281.4531 76.5469,281.0781 L76.5469,283.2969 Q75.8125,283.6094 75.0156,283.7656 Q74.2344,283.9219 73.4688,283.9219 Z " fill="#000000"/><text fill="#000000" font-family="sans-serif" font-size="14" lengthAdjust="spacing" textLength="84" x="88" y="282.432">Reproductor</text><line style="stroke:#181818;stroke-width:0.5;" x1="60" x2="174" y1="293" y2="293"/><text fill="#000000" font-family="sans-serif" font-size="14" lengthAdjust="spacing" textLength="57" x="65" y="311.9659">&#171;queue&#187;</text><line style="stroke:#181818;stroke-width:0.5;" x1="60" x2="174" y1="320.0679" y2="320.0679"/></g><!--class Historial--><g id="elem_Historial"><rect codeLine="17" fill="#F1F1F1" height="67.0679" id="Historial" rx="2.5" ry="2.5" style="stroke:#181818;stroke-width:0.5;" width="88" x="158" y="388"/><ellipse cx="173" cy="404" fill="#ADD1B2" rx="11" ry="11" style="stroke:#181818;stroke-width:1.0;"/><path d="M172.4688,410.9219 Q170.7188,410.9219 169.5781,410.1875 Q168.4531,409.4375 167.8906,408.0938 Q167.3438,406.7344 167.3438,404.9375 Q167.3438,402.9063 168,401.4531 Q168.6563,400 169.9375,399.2188 Q171.2188,398.4375 173.0938,398.4375 Q173.9844,398.4375 174.6563,398.625 Q175.3281,398.7969 176.0156,399.1406 L175.2031,401.1563 Q174.5781,400.8438 174.0313,400.7188 Q173.5,400.5938 173.0156,400.5938 Q171.8438,400.5938 171.1406,401.125 Q170.4375,401.6563 170.1406,402.6094 Q169.8438,403.5625 169.8438,404.8281 Q169.8438,406.8438 170.5625,407.8125 Q171.2813,408.7656 172.875,408.7656 Q173.4688,408.7656 174.0938,408.6094 Q174.7188,408.4531 175.5469,408.0781 L175.5469,410.2969 Q174.8125,410.6094 174.0156,410.7656 Q173.2344,410.9219 172.4688,410.9219 Z " fill="#000000"/><text fill="#000000" font-family="sans-serif" font-size="14" lengthAdjust="spacing" textLength="56" x="187" y="409.432">Historial</text><line style="stroke:#181818;stroke-width:0.5;" x1="159" x2="245" y1="420" y2="420"/><text fill="#000000" font-family="sans-serif" font-size="14" lengthAdjust="spacing" textLength="48" x="164" y="438.9659">&#171;stack&#187;</text><line style="stroke:#181818;stroke-width:0.5;" x1="159" x2="245" y1="447.0679" y2="447.0679"/></g><!--class Biblioteca--><g id="elem_Biblioteca"><rect codeLine="21" fill="#F1F1F1" height="67.0679" id="Biblioteca" rx="2.5" ry="2.5" style="stroke:#181818;stroke-width:0.5;" width="98" x="250" y="515"/><ellipse cx="265" cy="531" fill="#ADD1B2" rx="11" ry="11" style="stroke:#181818;stroke-width:1.0;"/><path d="M264.4688,537.9219 Q262.7188,537.9219 261.5781,537.1875 Q260.4531,536.4375 259.8906,535.0938 Q259.3438,533.7344 259.3438,531.9375 Q259.3438,529.9063 260,528.4531 Q260.6563,527 261.9375,526.2188 Q263.2188,525.4375 265.0938,525.4375 Q265.9844,525.4375 266.6563,525.625 Q267.3281,525.7969 268.0156,526.1406 L267.2031,528.1563 Q266.5781,527.8438 266.0313,527.7188 Q265.5,527.5938 265.0156,527.5938 Q263.8438,527.5938 263.1406,528.125 Q262.4375,528.6563 262.1406,529.6094 Q261.8438,530.5625 261.8438,531.8281 Q261.8438,533.8438 262.5625,534.8125 Q263.2813,535.7656 264.875,535.7656 Q265.4688,535.7656 266.0938,535.6094 Q266.7188,535.4531 267.5469,535.0781 L267.5469,537.2969 Q266.8125,537.6094 266.0156,537.7656 Q265.2344,537.9219 264.4688,537.9219 Z " fill="#000000"/><text fill="#000000" font-family="sans-serif" font-size="14" lengthAdjust="spacing" textLength="66" x="279" y="536.432">Biblioteca</text><line style="stroke:#181818;stroke-width:0.5;" x1="251" x2="347" y1="547" y2="547"/><text fill="#000000" font-family="sans-serif" font-size="14" lengthAdjust="spacing" textLength="34" x="256" y="565.9659">&#171;list&#187;</text><line style="stroke:#181818;stroke-width:0.5;" x1="251" x2="347" y1="574.0679" y2="574.0679"/></g><!--class Playlist--><g id="elem_Playlist"><rect codeLine="25" fill="#F1F1F1" height="67.0679" id="Playlist" rx="2.5" ry="2.5" style="stroke:#181818;stroke-width:0.5;" width="79" x="367.5" y="388"/><ellipse cx="382.5" cy="404" fill="#ADD1B2" rx="11" ry="11" style="stroke:#181818;stroke-width:1.0;"/><path d="M381.9688,410.9219 Q380.2188,410.9219 379.0781,410.1875 Q377.9531,409.4375 377.3906,408.0938 Q376.8438,406.7344 376.8438,404.9375 Q376.8438,402.9063 377.5,401.4531 Q378.1563,400 379.4375,399.2188 Q380.7188,398.4375 382.5938,398.4375 Q383.4844,398.4375 384.1563,398.625 Q384.8281,398.7969 385.5156,399.1406 L384.7031,401.1563 Q384.0781,400.8438 383.5313,400.7188 Q383,400.5938 382.5156,400.5938 Q381.3438,400.5938 380.6406,401.125 Q379.9375,401.6563 379.6406,402.6094 Q379.3438,403.5625 379.3438,404.8281 Q379.3438,406.8438 380.0625,407.8125 Q380.7813,408.7656 382.375,408.7656 Q382.9688,408.7656 383.5938,408.6094 Q384.2188,408.4531 385.0469,408.0781 L385.0469,410.2969 Q384.3125,410.6094 383.5156,410.7656 Q382.7344,410.9219 381.9688,410.9219 Z " fill="#000000"/><text fill="#000000" font-family="sans-serif" font-size="14" lengthAdjust="spacing" textLength="47" x="396.5" y="409.432">Playlist</text><line style="stroke:#181818;stroke-width:0.5;" x1="368.5" x2="445.5" y1="420" y2="420"/><text fill="#000000" font-family="sans-serif" font-size="14" lengthAdjust="spacing" textLength="52" x="373.5" y="438.9659">&#171;entity&#187;</text><line style="stroke:#181818;stroke-width:0.5;" x1="368.5" x2="445.5" y1="447.0679" y2="447.0679"/></g><!--class Catalogo--><g id="elem_Catalogo"><rect codeLine="29" fill="#F1F1F1" height="67.0679" id="Catalogo" rx="2.5" ry="2.5" style="stroke:#181818;stroke-width:0.5;" width="91" x="364.5" y="134"/><ellipse cx="379.5" cy="150" fill="#ADD1B2" rx="11" ry="11" style="stroke:#181818;stroke-width:1.0;"/><path d="M378.9688,156.9219 Q377.2188,156.9219 376.0781,156.1875 Q374.9531,155.4375 374.3906,154.0938 Q373.8438,152.7344 373.8438,150.9375 Q373.8438,148.9063 374.5,147.4531 Q375.1563,146 376.4375,145.2188 Q377.7188,144.4375 379.5938,144.4375 Q380.4844,144.4375 381.1563,144.625 Q381.8281,144.7969 382.5156,145.1406 L381.7031,147.1563 Q381.0781,146.8438 380.5313,146.7188 Q380,146.5938 379.5156,146.5938 Q378.3438,146.5938 377.6406,147.125 Q376.9375,147.6563 376.6406,148.6094 Q376.3438,149.5625 376.3438,150.8281 Q376.3438,152.8438 377.0625,153.8125 Q377.7813,154.7656 379.375,154.7656 Q379.9688,154.7656 380.5938,154.6094 Q381.2188,154.4531 382.0469,154.0781 L382.0469,156.2969 Q381.3125,156.6094 380.5156,156.7656 Q379.7344,156.9219 378.9688,156.9219 Z " fill="#000000"/><text fill="#000000" font-family="sans-serif" font-size="14" lengthAdjust="spacing" textLength="59" x="393.5" y="155.432">Catalogo</text><line style="stroke:#181818;stroke-width:0.5;" x1="365.5" x2="454.5" y1="166" y2="166"/><text fill="#000000" font-family="sans-serif" font-size="14" lengthAdjust="spacing" textLength="34" x="370.5" y="184.9659">&#171;list&#187;</text><line style="stroke:#181818;stroke-width:0.5;" x1="365.5" x2="454.5" y1="193.0679" y2="193.0679"/></g><!--class ElementoPlaylist--><g id="elem_ElementoPlaylist"><rect codeLine="33" fill="#F1F1F1" height="67.0679" id="ElementoPlaylist" rx="2.5" ry="2.5" style="stroke:#181818;stroke-width:0.5;" width="142" x="352" y="261"/><ellipse cx="367" cy="277" fill="#ADD1B2" rx="11" ry="11" style="stroke:#181818;stroke-width:1.0;"/><path d="M366.4688,283.9219 Q364.7188,283.9219 363.5781,283.1875 Q362.4531,282.4375 361.8906,281.0938 Q361.3438,279.7344 361.3438,277.9375 Q361.3438,275.9063 362,274.4531 Q362.6563,273 363.9375,272.2188 Q365.2188,271.4375 367.0938,271.4375 Q367.9844,271.4375 368.6563,271.625 Q369.3281,271.7969 370.0156,272.1406 L369.2031,274.1563 Q368.5781,273.8438 368.0313,273.7188 Q367.5,273.5938 367.0156,273.5938 Q365.8438,273.5938 365.1406,274.125 Q364.4375,274.6563 364.1406,275.6094 Q363.8438,276.5625 363.8438,277.8281 Q363.8438,279.8438 364.5625,280.8125 Q365.2813,281.7656 366.875,281.7656 Q367.4688,281.7656 368.0938,281.6094 Q368.7188,281.4531 369.5469,281.0781 L369.5469,283.2969 Q368.8125,283.6094 368.0156,283.7656 Q367.2344,283.9219 366.4688,283.9219 Z " fill="#000000"/><text fill="#000000" font-family="sans-serif" font-size="14" lengthAdjust="spacing" textLength="110" x="381" y="282.432">ElementoPlaylist</text><line style="stroke:#181818;stroke-width:0.5;" x1="353" x2="493" y1="293" y2="293"/><text fill="#000000" font-family="sans-serif" font-size="14" lengthAdjust="spacing" textLength="48" x="358" y="311.9659">&#171;node&#187;</text><line style="stroke:#181818;stroke-width:0.5;" x1="353" x2="493" y1="320.0679" y2="320.0679"/></g><!--link ReproductorMusical to Biblioteca--><g id="link_ReproductorMusical_Biblioteca"><path codeLine="37" d="M234.93,74.37 C238.52,92 242.8,114.13 246,134 C268.78,275.3 287.345,439.0748 294.905,508.9948 " fill="none" id="ReproductorMusical-to-Biblioteca" style="stroke:#181818;stroke-width:1.0;"/><polygon fill="#181818" points="295.55,514.96,298.5593,505.5822,295.0125,509.989,290.6057,506.4421,295.55,514.96" style="stroke:#181818;stroke-width:1.0;"/></g><!--link ReproductorMusical to Reproductor--><g id="link_ReproductorMusical_Reproductor"><path codeLine="38" d="M213.6,74.19 C192.31,122.53 155.0687,207.0691 133.7887,255.3791 " fill="none" id="ReproductorMusical-to-Reproductor" style="stroke:#181818;stroke-width:1.0;"/><polygon fill="#181818" points="131.37,260.87,138.6586,254.2461,133.3856,256.2942,131.3374,251.0212,131.37,260.87" style="stroke:#181818;stroke-width:1.0;"/></g><!--link ReproductorMusical to Historial--><g id="link_ReproductorMusical_Historial"><path codeLine="39" d="M225.76,74.14 C220.85,145.78 209.5708,310.1241 204.6508,381.8141 " fill="none" id="ReproductorMusical-to-Historial" style="stroke:#181818;stroke-width:1.0;"/><polygon fill="#181818" points="204.24,387.8,208.8468,379.095,204.5823,382.8117,200.8656,378.5472,204.24,387.8" style="stroke:#181818;stroke-width:1.0;"/></g><!--link ReproductorMusical to Catalogo--><g id="link_ReproductorMusical_Catalogo"><path codeLine="40" d="M275.34,74.02 C302.83,92.9 332.3441,113.1632 359.5141,131.8232 " fill="none" id="ReproductorMusical-to-Catalogo" style="stroke:#181818;stroke-width:1.0;"/><polygon fill="#181818" points="364.46,135.22,359.3057,126.8276,360.3384,132.3894,354.7766,133.4221,364.46,135.22" style="stroke:#181818;stroke-width:1.0;"/></g><!--link ReproductorMusical to Cancion--><g id="link_ReproductorMusical_Cancion"><path codeLine="41" d="M169.67,74.15 C103.9,115.78 6,194.38 6,293.5 C6,293.5 6,293.5 6,549.5 C6,630.22 34.6182,715.6707 53.1482,763.1407 " fill="none" id="ReproductorMusical-to-Cancion" style="stroke:#181818;stroke-width:1.0;"/><polygon fill="#181818" points="55.33,768.73,55.7835,758.8916,53.5119,764.0723,48.3312,761.8006,55.33,768.73" style="stroke:#181818;stroke-width:1.0;"/></g><!--link Biblioteca to ElementoMusical--><g id="link_Biblioteca_ElementoMusical"><path codeLine="43" d="M262.84,582.02 C242.41,600.39 221.4011,619.2777 200.9211,637.6977 " fill="none" id="Biblioteca-to-ElementoMusical" style="stroke:#181818;stroke-width:1.0;"/><polygon fill="#181818" points="196.46,641.71,205.8265,638.6655,200.1776,638.3664,200.4767,632.7174,196.46,641.71" style="stroke:#181818;stroke-width:1.0;"/></g><!--link Reproductor to ElementoMusical--><g id="link_Reproductor_ElementoMusical"><path codeLine="44" d="M120.7,328.14 C128.83,399.78 147.4839,564.1482 155.6139,635.8382 " fill="none" id="Reproductor-to-ElementoMusical" style="stroke:#181818;stroke-width:1.0;"/><polygon fill="#181818" points="156.29,641.8,159.2504,632.4066,155.7266,636.8318,151.3013,633.3081,156.29,641.8" style="stroke:#181818;stroke-width:1.0;"/></g><!--link Historial to ElementoMusical--><g id="link_Historial_ElementoMusical"><path codeLine="45" d="M196.55,455.19 C188.5,503.53 174.4762,587.6416 166.4262,635.9516 " fill="none" id="Historial-to-ElementoMusical" style="stroke:#181818;stroke-width:1.0;"/><polygon fill="#181818" points="165.44,641.87,170.8649,633.6499,166.2618,636.938,162.9737,632.3349,165.44,641.87" style="stroke:#181818;stroke-width:1.0;"/></g><!--link Catalogo to ElementoPlaylist--><g id="link_Catalogo_ElementoPlaylist"><path codeLine="46" d="M413.38,201.02 C415.29,219.39 417.048,236.3223 418.968,254.7423 " fill="none" id="Catalogo-to-ElementoPlaylist" style="stroke:#181818;stroke-width:1.0;"/><polygon fill="#181818" points="419.59,260.71,422.6354,251.3438,419.0716,255.7369,414.6785,252.1732,419.59,260.71" style="stroke:#181818;stroke-width:1.0;"/></g><!--link ElementoMusical to Cancion--><g id="link_ElementoMusical_Cancion"><path codeLine="48" d="M136.33,709.02 C122.95,727.39 109.8114,745.4393 96.4014,763.8593 " fill="none" id="ElementoMusical-to-Cancion" style="stroke:#181818;stroke-width:1.0;"/><polygon fill="#181818" points="92.87,768.71,101.4009,763.7882,95.8128,764.6677,94.9333,759.0797,92.87,768.71" style="stroke:#181818;stroke-width:1.0;"/></g><!--link ElementoPlaylist to Playlist--><g id="link_ElementoPlaylist_Playlist"><path codeLine="49" d="M418.84,328.02 C416.49,346.39 414.3093,363.3382 411.9593,381.7582 " fill="none" id="ElementoPlaylist-to-Playlist" style="stroke:#181818;stroke-width:1.0;"/><polygon fill="#181818" points="411.2,387.71,416.3068,379.2886,411.8328,382.7502,408.3711,378.2761,411.2,387.71" style="stroke:#181818;stroke-width:1.0;"/></g><!--link Playlist to Biblioteca--><g id="link_Playlist_Biblioteca"><path codeLine="50" d="M378.91,455.02 C363.03,473.39 347.162,491.7493 331.252,510.1693 " fill="none" id="Playlist-to-Biblioteca" style="stroke:#181818;stroke-width:1.0;"/><polygon fill="#181818" points="327.33,514.71,336.2401,510.5136,330.5983,510.9261,330.1858,505.2843,327.33,514.71" style="stroke:#181818;stroke-width:1.0;"/></g><!--SRC=[ZP913eCW44Ntde8BU0FZegP9DqsQtc2Af9aKeHLOcAPths9He4XqWGdpvZFpPmWXX79GYbpPivUjeLhsPwEG0YVlWlo-gke0HLtRYqzXVtDQ0uAY507BX4OzfEWZPzqObQaNX6nPAiShBE1VXfbamWdLo68ahpJGHme_u8sZr8n2mFDH9OLVE0nJR6V73MZWyYvtQJjxac_y-vCOMLdMQpyPoBlDK8kJ6SOrc47SainLUtvFiMWbOfbDPfto5h5OxmFEMalO8zv9ls0_lWnb0WAP8BAszmK0]--></g></svg>