<?xml version="1.0" encoding="us-ascii" standalone="no"?><svg xmlns="http://www.w3.org/2000/svg" xmlns:xlink="http://www.w3.org/1999/xlink" contentStyleType="text/css" height="710px" preserveAspectRatio="none" style="width:515px;height:710px;background:#FFFFFF;" version="1.1" viewBox="0 0 515 710" width="515px" zoomAndPan="magnify"><defs/><g><!--class SpotifyApp--><g id="elem_SpotifyApp"><rect codeLine="1" fill="#F1F1F1" height="48" id="SpotifyApp" rx="2.5" ry="2.5" style="stroke:#181818;stroke-width:0.5;" width="105" x="196" y="7"/><ellipse cx="211" cy="23" fill="#ADD1B2" rx="11" ry="11" style="stroke:#181818;stroke-width:1.0;"/><path d="M210.4688,29.9219 Q208.7188,29.9219 207.5781,29.1875 Q206.4531,28.4375 205.8906,27.0938 Q205.3438,25.7344 205.3438,23.9375 Q205.3438,21.9063 206,20.4531 Q206.6563,19 207.9375,18.2188 Q209.2188,17.4375 211.0938,17.4375 Q211.9844,17.4375 212.6563,17.625 Q213.3281,17.7969 214.0156,18.1406 L213.2031,20.1563 Q212.5781,19.8438 212.0313,19.7188 Q211.5,19.5938 211.0156,19.5938 Q209.8438,19.5938 209.1406,20.125 Q208.4375,20.6563 208.1406,21.6094 Q207.8438,22.5625 207.8438,23.8281 Q207.8438,25.8438 208.5625,26.8125 Q209.2813,27.7656 210.875,27.7656 Q211.4688,27.7656 212.0938,27.6094 Q212.7188,27.4531 213.5469,27.0781 L213.5469,29.2969 Q212.8125,29.6094 212.0156,29.7656 Q211.2344,29.9219 210.4688,29.9219 Z " fill="#000000"/><text fill="#000000" font-family="sans-serif" font-size="14" lengthAdjust="spacing" textLength="73" x="225" y="28.432">SpotifyApp</text><line style="stroke:#181818;stroke-width:0.5;" x1="197" x2="300" y1="39" y2="39"/><line style="stroke:#181818;stroke-width:0.5;" x1="197" x2="300" y1="47" y2="47"/></g><!--class ListaCanciones--><g id="elem_ListaCanciones"><rect fill="#F1F1F1" height="48" id="ListaCanciones" rx="2.5" ry="2.5" style="stroke:#181818;stroke-width:0.5;" width="132" x="111.5" y="439"/><ellipse cx="126.5" cy="455" fill="#ADD1B2" rx="11" ry="11" style="stroke:#181818;stroke-width:1.0;"/><path d="M125.9688,461.9219 Q124.2188,461.9219 123.0781,461.1875 Q121.9531,460.4375 121.3906,459.0938 Q120.8438,457.7344 120.8438,455.9375 Q120.8438,453.9063 121.5,452.4531 Q122.1563,451 123.4375,450.2188 Q124.7188,449.4375 126.5938,449.4375 Q127.4844,449.4375 128.1563,449.625 Q128.8281,449.7969 129.5156,450.1406 L128.7031,452.1563 Q128.0781,451.8438 127.5313,451.7188 Q127,451.5938 126.5156,451.5938 Q125.3438,451.5938 124.6406,452.125 Q123.9375,452.6563 123.6406,453.6094 Q123.3438,454.5625 123.3438,455.8281 Q123.3438,457.8438 124.0625,458.8125 Q124.7813,459.7656 126.375,459.7656 Q126.9688,459.7656 127.5938,459.6094 Q128.2188,459.4531 129.0469,459.0781 L129.0469,461.2969 Q128.3125,461.6094 127.5156,461.7656 Q126.7344,461.9219 125.9688,461.9219 Z " fill="#000000"/><text fill="#000000" font-family="sans-serif" font-size="14" lengthAdjust="spacing" textLength="100" x="140.5" y="460.432">ListaCanciones</text><line style="stroke:#181818;stroke-width:0.5;" x1="112.5" x2="242.5" y1="471" y2="471"/><line style="stroke:#181818;stroke-width:0.5;" x1="112.5" x2="242.5" y1="479" y2="479"/></g><!--class ColaReproduccion--><g id="elem_ColaReproduccion"><rect fill="#F1F1F1" height="48" id="ColaReproduccion" rx="2.5" ry="2.5" style="stroke:#181818;stroke-width:0.5;" width="154" x="301.5" y="223"/><ellipse cx="316.5" cy="239" fill="#ADD1B2" rx="11" ry="11" style="stroke:#181818;stroke-width:1.0;"/><path d="M315.9688,245.9219 Q314.2188,245.9219 313.0781,245.1875 Q311.9531,244.4375 311.3906,243.0938 Q310.8438,241.7344 310.8438,239.9375 Q310.8438,237.9063 311.5,236.4531 Q312.1563,235 313.4375,234.2188 Q314.7188,233.4375 316.5938,233.4375 Q317.4844,233.4375 318.1563,233.625 Q318.8281,233.7969 319.5156,234.1406 L318.7031,236.1563 Q318.0781,235.8438 317.5313,235.7188 Q317,235.5938 316.5156,235.5938 Q315.3438,235.5938 314.6406,236.125 Q313.9375,236.6563 313.6406,237.6094 Q313.3438,238.5625 313.3438,239.8281 Q313.3438,241.8438 314.0625,242.8125 Q314.7813,243.7656 316.375,243.7656 Q316.9688,243.7656 317.5938,243.6094 Q318.2188,243.4531 319.0469,243.0781 L319.0469,245.2969 Q318.3125,245.6094 317.5156,245.7656 Q316.7344,245.9219 315.9688,245.9219 Z " fill="#000000"/><text fill="#000000" font-family="sans-serif" font-size="14" lengthAdjust="spacing" textLength="122" x="330.5" y="244.432">ColaReproduccion</text><line style="stroke:#181818;stroke-width:0.5;" x1="302.5" x2="454.5" y1="255" y2="255"/><line style="stroke:#181818;stroke-width:0.5;" x1="302.5" x2="454.5" y1="263" y2="263"/></g><!--class PilaHistorial--><g id="elem_PilaHistorial"><rect fill="#F1F1F1" height="48" id="PilaHistorial" rx="2.5" ry="2.5" style="stroke:#181818;stroke-width:0.5;" width="112" x="230.5" y="331"/><ellipse cx="245.5" cy="347" fill="#ADD1B2" rx="11" ry="11" style="stroke:#181818;stroke-width:1.0;"/><path d="M244.9688,353.9219 Q243.2188,353.9219 242.0781,353.1875 Q240.9531,352.4375 240.3906,351.0938 Q239.8438,349.7344 239.8438,347.9375 Q239.8438,345.9063 240.5,344.4531 Q241.1563,343 242.4375,342.2188 Q243.7188,341.4375 245.5938,341.4375 Q246.4844,341.4375 247.1563,341.625 Q247.8281,341.7969 248.5156,342.1406 L247.7031,344.1563 Q247.0781,343.8438 246.5313,343.7188 Q246,343.5938 245.5156,343.5938 Q244.3438,343.5938 243.6406,344.125 Q242.9375,344.6563 242.6406,345.6094 Q242.3438,346.5625 242.3438,347.8281 Q242.3438,349.8438 243.0625,350.8125 Q243.7813,351.7656 245.375,351.7656 Q245.9688,351.7656 246.5938,351.6094 Q247.2188,351.4531 248.0469,351.0781 L248.0469,353.2969 Q247.3125,353.6094 246.5156,353.7656 Q245.7344,353.9219 244.9688,353.9219 Z " fill="#000000"/><text fill="#000000" font-family="sans-serif" font-size="14" lengthAdjust="spacing" textLength="80" x="259.5" y="352.432">PilaHistorial</text><line style="stroke:#181818;stroke-width:0.5;" x1="231.5" x2="341.5" y1="363" y2="363"/><line style="stroke:#181818;stroke-width:0.5;" x1="231.5" x2="341.5" y1="371" y2="371"/></g><!--class ListaPlaylists--><g id="elem_ListaPlaylists"><rect fill="#F1F1F1" height="48" id="ListaPlaylists" rx="2.5" ry="2.5" style="stroke:#181818;stroke-width:0.5;" width="117" x="7" y="115"/><ellipse cx="22" cy="131" fill="#ADD1B2" rx="11" ry="11" style="stroke:#181818;stroke-width:1.0;"/><path d="M21.4688,137.9219 Q19.7188,137.9219 18.5781,137.1875 Q17.4531,136.4375 16.8906,135.0938 Q16.3438,133.7344 16.3438,131.9375 Q16.3438,129.9063 17,128.4531 Q17.6563,127 18.9375,126.2188 Q20.2188,125.4375 22.0938,125.4375 Q22.9844,125.4375 23.6563,125.625 Q24.3281,125.7969 25.0156,126.1406 L24.2031,128.1563 Q23.5781,127.8438 23.0313,127.7188 Q22.5,127.5938 22.0156,127.5938 Q20.8438,127.5938 20.1406,128.125 Q19.4375,128.6563 19.1406,129.6094 Q18.8438,130.5625 18.8438,131.8281 Q18.8438,133.8438 19.5625,134.8125 Q20.2813,135.7656 21.875,135.7656 Q22.4688,135.7656 23.0938,135.6094 Q23.7188,135.4531 24.5469,135.0781 L24.5469,137.2969 Q23.8125,137.6094 23.0156,137.7656 Q22.2344,137.9219 21.4688,137.9219 Z " fill="#000000"/><text fill="#000000" font-family="sans-serif" font-size="14" lengthAdjust="spacing" textLength="85" x="36" y="136.432">ListaPlaylists</text><line style="stroke:#181818;stroke-width:0.5;" x1="8" x2="123" y1="147" y2="147"/><line style="stroke:#181818;stroke-width:0.5;" x1="8" x2="123" y1="155" y2="155"/></g><!--class Cancion--><g id="elem_Cancion"><rect fill="#F1F1F1" height="48" id="Cancion" rx="2.5" ry="2.5" style="stroke:#181818;stroke-width:0.5;" width="86" x="373.5" y="655"/><ellipse cx="388.5" cy="671" fill="#ADD1B2" rx="11" ry="11" style="stroke:#181818;stroke-width:1.0;"/><path d="M387.9688,677.9219 Q386.2188,677.9219 385.0781,677.1875 Q383.9531,676.4375 383.3906,675.0938 Q382.8438,673.7344 382.8438,671.9375 Q382.8438,669.9063 383.5,668.4531 Q384.1563,667 385.4375,666.2188 Q386.7188,665.4375 388.5938,665.4375 Q389.4844,665.4375 390.1563,665.625 Q390.8281,665.7969 391.5156,666.1406 L390.7031,668.1563 Q390.0781,667.8438 389.5313,667.7188 Q389,667.5938 388.5156,667.5938 Q387.3438,667.5938 386.6406,668.125 Q385.9375,668.6563 385.6406,669.6094 Q385.3438,670.5625 385.3438,671.8281 Q385.3438,673.8438 386.0625,674.8125 Q386.7813,675.7656 388.375,675.7656 Q388.9688,675.7656 389.5938,675.6094 Q390.2188,675.4531 391.0469,675.0781 L391.0469,677.2969 Q390.3125,677.6094 389.5156,677.7656 Q388.7344,677.9219 387.9688,677.9219 Z " fill="#000000"/><text fill="#000000" font-family="sans-serif" font-size="14" lengthAdjust="spacing" textLength="54" x="402.5" y="676.432">Cancion</text><line style="stroke:#181818;stroke-width:0.5;" x1="374.5" x2="458.5" y1="687" y2="687"/><line style="stroke:#181818;stroke-width:0.5;" x1="374.5" x2="458.5" y1="695" y2="695"/></g><!--class NodoCancion--><g id="elem_NodoCancion"><rect fill="#F1F1F1" height="48" id="NodoCancion" rx="2.5" ry="2.5" style="stroke:#181818;stroke-width:0.5;" width="122" x="298.5" y="547"/><ellipse cx="313.5" cy="563" fill="#ADD1B2" rx="11" ry="11" style="stroke:#181818;stroke-width:1.0;"/><path d="M312.9688,569.9219 Q311.2188,569.9219 310.0781,569.1875 Q308.9531,568.4375 308.3906,567.0938 Q307.8438,565.7344 307.8438,563.9375 Q307.8438,561.9063 308.5,560.4531 Q309.1563,559 310.4375,558.2188 Q311.7188,557.4375 313.5938,557.4375 Q314.4844,557.4375 315.1563,557.625 Q315.8281,557.7969 316.5156,558.1406 L315.7031,560.1563 Q315.0781,559.8438 314.5313,559.7188 Q314,559.5938 313.5156,559.5938 Q312.3438,559.5938 311.6406,560.125 Q310.9375,560.6563 310.6406,561.6094 Q310.3438,562.5625 310.3438,563.8281 Q310.3438,565.8438 311.0625,566.8125 Q311.7813,567.7656 313.375,567.7656 Q313.9688,567.7656 314.5938,567.6094 Q315.2188,567.4531 316.0469,567.0781 L316.0469,569.2969 Q315.3125,569.6094 314.5156,569.7656 Q313.7344,569.9219 312.9688,569.9219 Z " fill="#000000"/><text fill="#000000" font-family="sans-serif" font-size="14" lengthAdjust="spacing" textLength="90" x="327.5" y="568.432">NodoCancion</text><line style="stroke:#181818;stroke-width:0.5;" x1="299.5" x2="419.5" y1="579" y2="579"/><line style="stroke:#181818;stroke-width:0.5;" x1="299.5" x2="419.5" y1="587" y2="587"/></g><!--class NodoPlaylist--><g id="elem_NodoPlaylist"><rect fill="#F1F1F1" height="48" id="NodoPlaylist" rx="2.5" ry="2.5" style="stroke:#181818;stroke-width:0.5;" width="115" x="9" y="223"/><ellipse cx="24" cy="239" fill="#ADD1B2" rx="11" ry="11" style="stroke:#181818;stroke-width:1.0;"/><path d="M23.4688,245.9219 Q21.7188,245.9219 20.5781,245.1875 Q19.4531,244.4375 18.8906,243.0938 Q18.3438,241.7344 18.3438,239.9375 Q18.3438,237.9063 19,236.4531 Q19.6563,235 20.9375,234.2188 Q22.2188,233.4375 24.0938,233.4375 Q24.9844,233.4375 25.6563,233.625 Q26.3281,233.7969 27.0156,234.1406 L26.2031,236.1563 Q25.5781,235.8438 25.0313,235.7188 Q24.5,235.5938 24.0156,235.5938 Q22.8438,235.5938 22.1406,236.125 Q21.4375,236.6563 21.1406,237.6094 Q20.8438,238.5625 20.8438,239.8281 Q20.8438,241.8438 21.5625,242.8125 Q22.2813,243.7656 23.875,243.7656 Q24.4688,243.7656 25.0938,243.6094 Q25.7188,243.4531 26.5469,243.0781 L26.5469,245.2969 Q25.8125,245.6094 25.0156,245.7656 Q24.2344,245.9219 23.4688,245.9219 Z " fill="#000000"/><text fill="#000000" font-family="sans-serif" font-size="14" lengthAdjust="spacing" textLength="83" x="38" y="244.432">NodoPlaylist</text><line style="stroke:#181818;stroke-width:0.5;" x1="10" x2="123" y1="255" y2="255"/><line style="stroke:#181818;stroke-width:0.5;" x1="10" x2="123" y1="263" y2="263"/></g><!--class Playlist--><g id="elem_Playlist"><rect fill="#F1F1F1" height="48" id="Playlist" rx="2.5" ry="2.5" style="stroke:#181818;stroke-width:0.5;" width="79" x="36" y="331"/><ellipse cx="51" cy="347" fill="#ADD1B2" rx="11" ry="11" style="stroke:#181818;stroke-width:1.0;"/><path d="M50.4688,353.9219 Q48.7188,353.9219 47.5781,353.1875 Q46.4531,352.4375 45.8906,351.0938 Q45.3438,349.7344 45.3438,347.9375 Q45.3438,345.9063 46,344.4531 Q46.6563,343 47.9375,342.2188 Q49.2188,341.4375 51.0938,341.4375 Q51.9844,341.4375 52.6563,341.625 Q53.3281,341.7969 54.0156,342.1406 L53.2031,344.1563 Q52.5781,343.8438 52.0313,343.7188 Q51.5,343.5938 51.0156,343.5938 Q49.8438,343.5938 49.1406,344.125 Q48.4375,344.6563 48.1406,345.6094 Q47.8438,346.5625 47.8438,347.8281 Q47.8438,349.8438 48.5625,350.8125 Q49.2813,351.7656 50.875,351.7656 Q51.4688,351.7656 52.0938,351.6094 Q52.7188,351.4531 53.5469,351.0781 L53.5469,353.2969 Q52.8125,353.6094 52.0156,353.7656 Q51.2344,353.9219 50.4688,353.9219 Z " fill="#000000"/><text fill="#000000" font-family="sans-serif" font-size="14" lengthAdjust="spacing" textLength="47" x="65" y="352.432">Playlist</text><line style="stroke:#181818;stroke-width:0.5;" x1="37" x2="114" y1="363" y2="363"/><line style="stroke:#181818;stroke-width:0.5;" x1="37" x2="114" y1="371" y2="371"/></g><!--link SpotifyApp to ListaCanciones--><g id="link_SpotifyApp_ListaCanciones"><path codeLine="3" d="M244.68,55.12 C232.35,129.78 194.667,358.0201 182.317,432.8501 " fill="none" id="SpotifyApp-to-ListaCanciones" style="stroke:#181818;stroke-width:1.0;"/><polygon fill="#181818" points="181.34,438.77,186.7522,430.5415,182.1542,433.8367,178.8589,429.2388,181.34,438.77" style="stroke:#181818;stroke-width:1.0;"/></g><!--link SpotifyApp to ColaReproduccion--><g id="link_SpotifyApp_ColaReproduccion"><path codeLine="4" d="M262.66,55.31 C287.67,96.47 336.2441,176.4525 361.2441,217.5925 " fill="none" id="SpotifyApp-to-ColaReproduccion" style="stroke:#181818;stroke-width:1.0;"/><polygon fill="#181818" points="364.36,222.72,363.1045,212.9515,361.7634,218.4471,356.2678,217.106,364.36,222.72" style="stroke:#181818;stroke-width:1.0;"/></g><!--link SpotifyApp to PilaHistorial--><g id="link_SpotifyApp_PilaHistorial"><path codeLine="5" d="M251.23,55.16 C258.23,114.42 276.0171,265.1513 283.0371,324.6613 " fill="none" id="SpotifyApp-to-PilaHistorial" style="stroke:#181818;stroke-width:1.0;"/><polygon fill="#181818" points="283.74,330.62,286.6581,321.2134,283.1542,325.6544,278.7132,322.1506,283.74,330.62" style="stroke:#181818;stroke-width:1.0;"/></g><!--link SpotifyApp to ListaPlaylists--><g id="link_SpotifyApp_ListaPlaylists"><path codeLine="6" d="M208.79,55 C178.2,72.72 141.2922,94.1031 110.6422,111.8531 " fill="none" id="SpotifyApp-to-ListaPlaylists" style="stroke:#181818;stroke-width:1.0;"/><polygon fill="#181818" points="105.45,114.86,115.2428,113.8111,109.7768,112.3543,111.2337,106.8882,105.45,114.86" style="stroke:#181818;stroke-width:1.0;"/></g><!--link SpotifyApp to Cancion--><g id="link_SpotifyApp_Cancion"><path codeLine="7" d="M301.11,48.63 C377.09,76.32 508.5,139.6 508.5,246 C508.5,246 508.5,246 508.5,464 C508.5,538.61 464.1659,611.9252 437.4759,649.8052 " fill="none" id="SpotifyApp-to-Cancion" style="stroke:#181818;stroke-width:1.0;"/><polygon fill="#181818" points="434.02,654.71,442.4737,649.6567,436.8999,650.6227,435.934,645.0489,434.02,654.71" style="stroke:#181818;stroke-width:1.0;"/></g><!--link ListaCanciones to NodoCancion--><g id="link_ListaCanciones_NodoCancion"><path codeLine="9" d="M216.99,487 C247.41,504.72 284.1051,526.0906 314.5851,543.8406 " fill="none" id="ListaCanciones-to-NodoCancion" style="stroke:#181818;stroke-width:1.0;"/><polygon fill="#181818" points="319.77,546.86,314.0056,538.8743,315.4493,544.3438,309.9797,545.7875,319.77,546.86" style="stroke:#181818;stroke-width:1.0;"/></g><!--link ColaReproduccion to NodoCancion--><g id="link_ColaReproduccion_NodoCancion"><path codeLine="10" d="M377.13,271.16 C373.64,330.42 364.7433,481.1204 361.2333,540.6304 " fill="none" id="ColaReproduccion-to-NodoCancion" style="stroke:#181818;stroke-width:1.0;"/><polygon fill="#181818" points="360.88,546.62,365.403,537.8711,361.1744,541.6287,357.4169,537.4001,360.88,546.62" style="stroke:#181818;stroke-width:1.0;"/></g><!--link PilaHistorial to NodoCancion--><g id="link_PilaHistorial_NodoCancion"><path codeLine="11" d="M294.45,379.31 C308.49,420.47 335.5821,499.9016 349.6221,541.0416 " fill="none" id="PilaHistorial-to-NodoCancion" style="stroke:#181818;stroke-width:1.0;"/><polygon fill="#181818" points="351.56,546.72,352.4388,536.9104,349.9451,541.988,344.8675,539.4943,351.56,546.72" style="stroke:#181818;stroke-width:1.0;"/></g><!--link ListaPlaylists to NodoPlaylist--><g id="link_ListaPlaylists_NodoPlaylist"><path codeLine="12" d="M65.72,163 C65.88,180.66 66.0525,198.9403 66.2225,216.6803 " fill="none" id="ListaPlaylists-to-NodoPlaylist" style="stroke:#181818;stroke-width:1.0;"/><polygon fill="#181818" points="66.28,222.68,70.1936,213.6421,66.2321,217.6802,62.1939,213.7187,66.28,222.68" style="stroke:#181818;stroke-width:1.0;"/></g><!--link NodoCancion to Cancion--><g id="link_NodoCancion_Cancion"><path codeLine="14" d="M371.87,595 C381.36,612.66 391.5782,631.6556 401.1182,649.3956 " fill="none" id="NodoCancion-to-Cancion" style="stroke:#181818;stroke-width:1.0;"/><polygon fill="#181818" points="403.96,654.68,403.2203,644.859,401.5919,650.2764,396.1745,648.648,403.96,654.68" style="stroke:#181818;stroke-width:1.0;"/></g><!--link NodoPlaylist to Playlist--><g id="link_NodoPlaylist_Playlist"><path codeLine="15" d="M68.45,271 C69.95,288.66 71.5011,306.9616 73.0111,324.7016 " fill="none" id="NodoPlaylist-to-Playlist" style="stroke:#181818;stroke-width:1.0;"/><polygon fill="#181818" points="73.52,330.68,76.7423,321.3732,73.0959,325.698,68.7711,322.0517,73.52,330.68" style="stroke:#181818;stroke-width:1.0;"/></g><!--link Playlist to ListaCanciones--><g id="link_Playlist_ListaCanciones"><path codeLine="16" d="M97.63,379 C114.62,396.66 133.8298,416.6165 150.8998,434.3565 " fill="none" id="Playlist-to-ListaCanciones" style="stroke:#181818;stroke-width:1.0;"/><polygon fill="#181818" points="155.06,438.68,151.702,429.4213,151.5932,435.0771,145.9374,434.9682,155.06,438.68" style="stroke:#181818;stroke-width:1.0;"/></g><!--SRC=[Iyv9B2vM22x8BybCgtGiAE3YGh0LT7Nj57moYqiIdHFpaZFpyrABqMMTytCIWr8BYl9JIfD1Aj3b0p9p4Zs09kGNPIRcO3Kw82UnCWV8m3GQOYSN5weBm79- -IdvC7bq9s0eG743XYog8-3IC14k1GK5BYJrA4v3LWZnBamNYYYg1m00]--></g></svg>