<?xml version="1.0" encoding="us-ascii" standalone="no"?><svg xmlns="http://www.w3.org/2000/svg" xmlns:xlink="http://www.w3.org/1999/xlink" contentStyleType="text/css" height="1261px" preserveAspectRatio="none" style="width:808px;height:1261px;background:#FFFFFF;" version="1.1" viewBox="0 0 808 1261" width="808px" zoomAndPan="magnify"><defs/><g><!--class SpotifyApp--><g id="elem_SpotifyApp"><rect codeLine="1" fill="#F1F1F1" height="48" id="SpotifyApp" rx="2.5" ry="2.5" style="stroke:#181818;stroke-width:0.5;" width="105" x="372.5" y="7"/><ellipse cx="387.5" cy="23" fill="#ADD1B2" rx="11" ry="11" style="stroke:#181818;stroke-width:1.0;"/><path d="M386.9688,29.9219 Q385.2188,29.9219 384.0781,29.1875 Q382.9531,28.4375 382.3906,27.0938 Q381.8438,25.7344 381.8438,23.9375 Q381.8438,21.9063 382.5,20.4531 Q383.1563,19 384.4375,18.2188 Q385.7188,17.4375 387.5938,17.4375 Q388.4844,17.4375 389.1563,17.625 Q389.8281,17.7969 390.5156,18.1406 L389.7031,20.1563 Q389.0781,19.8438 388.5313,19.7188 Q388,19.5938 387.5156,19.5938 Q386.3438,19.5938 385.6406,20.125 Q384.9375,20.6563 384.6406,21.6094 Q384.3438,22.5625 384.3438,23.8281 Q384.3438,25.8438 385.0625,26.8125 Q385.7813,27.7656 387.375,27.7656 Q387.9688,27.7656 388.5938,27.6094 Q389.2188,27.4531 390.0469,27.0781 L390.0469,29.2969 Q389.3125,29.6094 388.5156,29.7656 Q387.7344,29.9219 386.9688,29.9219 Z " fill="#000000"/><text fill="#000000" font-family="sans-serif" font-size="14" lengthAdjust="spacing" textLength="73" x="401.5" y="28.432">SpotifyApp</text><line style="stroke:#181818;stroke-width:0.5;" x1="373.5" x2="476.5" y1="39" y2="39"/><line style="stroke:#181818;stroke-width:0.5;" x1="373.5" x2="476.5" y1="47" y2="47"/></g><!--class Cancion--><g id="elem_Cancion"><rect codeLine="4" fill="#F1F1F1" height="162.4075" id="Cancion" rx="2.5" ry="2.5" style="stroke:#181818;stroke-width:0.5;" width="354" x="7" y="1092"/><ellipse cx="152.75" cy="1108" fill="#ADD1B2" rx="11" ry="11" style="stroke:#181818;stroke-width:1.0;"/><path d="M152.2188,1114.9219 Q150.4688,1114.9219 149.3281,1114.1875 Q148.2031,1113.4375 147.6406,1112.0938 Q147.0938,1110.7344 147.0938,1108.9375 Q147.0938,1106.9063 147.75,1105.4531 Q148.4063,1104 149.6875,1103.2188 Q150.9688,1102.4375 152.8438,1102.4375 Q153.7344,1102.4375 154.4063,1102.625 Q155.0781,1102.7969 155.7656,1103.1406 L154.9531,1105.1563 Q154.3281,1104.8438 153.7813,1104.7188 Q153.25,1104.5938 152.7656,1104.5938 Q151.5938,1104.5938 150.8906,1105.125 Q150.1875,1105.6563 149.8906,1106.6094 Q149.5938,1107.5625 149.5938,1108.8281 Q149.5938,1110.8438 150.3125,1111.8125 Q151.0313,1112.7656 152.625,1112.7656 Q153.2188,1112.7656 153.8438,1112.6094 Q154.4688,1112.4531 155.2969,1112.0781 L155.2969,1114.2969 Q154.5625,1114.6094 153.7656,1114.7656 Q152.9844,1114.9219 152.2188,1114.9219 Z " fill="#000000"/><text fill="#000000" font-family="sans-serif" font-size="14" lengthAdjust="spacing" textLength="54" x="173.25" y="1113.432">Cancion</text><line style="stroke:#181818;stroke-width:0.5;" x1="8" x2="360" y1="1124" y2="1124"/><line style="stroke:#181818;stroke-width:0.5;" x1="8" x2="360" y1="1132" y2="1132"/><ellipse cx="18" cy="1147.034" fill="#84BE84" rx="3" ry="3" style="stroke:#038048;stroke-width:1.0;"/><text fill="#000000" font-family="sans-serif" font-size="14" lengthAdjust="spacing" textLength="328" x="27" y="1150.9659">Cancion(String titulo, String artista, int duracion)</text><ellipse cx="18" cy="1166.1019" fill="#84BE84" rx="3" ry="3" style="stroke:#038048;stroke-width:1.0;"/><text fill="#000000" font-family="sans-serif" font-size="14" lengthAdjust="spacing" textLength="113" x="27" y="1170.0339">getTitulo() String</text><ellipse cx="18" cy="1185.1698" fill="#84BE84" rx="3" ry="3" style="stroke:#038048;stroke-width:1.0;"/><text fill="#000000" font-family="sans-serif" font-size="14" lengthAdjust="spacing" textLength="147" x="27" y="1189.1018">marcarComoFavorita()</text><ellipse cx="18" cy="1204.2377" fill="#84BE84" rx="3" ry="3" style="stroke:#038048;stroke-width:1.0;"/><text fill="#000000" font-family="sans-serif" font-size="14" lengthAdjust="spacing" textLength="171" x="27" y="1208.1697">desmarcarComoFavorita()</text><ellipse cx="18" cy="1223.3056" fill="#84BE84" rx="3" ry="3" style="stroke:#038048;stroke-width:1.0;"/><text fill="#000000" font-family="sans-serif" font-size="14" lengthAdjust="spacing" textLength="130" x="27" y="1227.2376">isFavorita() boolean</text><ellipse cx="18" cy="1242.3735" fill="#84BE84" rx="3" ry="3" style="stroke:#038048;stroke-width:1.0;"/><text fill="#000000" font-family="sans-serif" font-size="14" lengthAdjust="spacing" textLength="107" x="27" y="1246.3055">toString() String</text></g><!--class NodoCancion--><g id="elem_NodoCancion"><rect codeLine="13" fill="#F1F1F1" height="105.2038" id="NodoCancion" rx="2.5" ry="2.5" style="stroke:#181818;stroke-width:0.5;" width="234" x="142" y="927"/><ellipse cx="209.75" cy="943" fill="#ADD1B2" rx="11" ry="11" style="stroke:#181818;stroke-width:1.0;"/><path d="M209.2188,949.9219 Q207.4688,949.9219 206.3281,949.1875 Q205.2031,948.4375 204.6406,947.0938 Q204.0938,945.7344 204.0938,943.9375 Q204.0938,941.9063 204.75,940.4531 Q205.4063,939 206.6875,938.2188 Q207.9688,937.4375 209.8438,937.4375 Q210.7344,937.4375 211.4063,937.625 Q212.0781,937.7969 212.7656,938.1406 L211.9531,940.1563 Q211.3281,939.8438 210.7813,939.7188 Q210.25,939.5938 209.7656,939.5938 Q208.5938,939.5938 207.8906,940.125 Q207.1875,940.6563 206.8906,941.6094 Q206.5938,942.5625 206.5938,943.8281 Q206.5938,945.8438 207.3125,946.8125 Q208.0313,947.7656 209.625,947.7656 Q210.2188,947.7656 210.8438,947.6094 Q211.4688,947.4531 212.2969,947.0781 L212.2969,949.2969 Q211.5625,949.6094 210.7656,949.7656 Q209.9844,949.9219 209.2188,949.9219 Z " fill="#000000"/><text fill="#000000" font-family="sans-serif" font-size="14" lengthAdjust="spacing" textLength="90" x="230.25" y="948.432">NodoCancion</text><line style="stroke:#181818;stroke-width:0.5;" x1="143" x2="375" y1="959" y2="959"/><ellipse cx="153" cy="974.034" fill="none" rx="3" ry="3" style="stroke:#038048;stroke-width:1.0;"/><text fill="#000000" font-family="sans-serif" font-size="14" lengthAdjust="spacing" textLength="110" x="162" y="977.9659">Cancion cancion</text><ellipse cx="153" cy="993.1019" fill="none" rx="3" ry="3" style="stroke:#038048;stroke-width:1.0;"/><text fill="#000000" font-family="sans-serif" font-size="14" lengthAdjust="spacing" textLength="157" x="162" y="997.0339">NodoCancion siguiente</text><line style="stroke:#181818;stroke-width:0.5;" x1="143" x2="375" y1="1005.1358" y2="1005.1358"/><ellipse cx="153" cy="1020.1698" fill="#84BE84" rx="3" ry="3" style="stroke:#038048;stroke-width:1.0;"/><text fill="#000000" font-family="sans-serif" font-size="14" lengthAdjust="spacing" textLength="208" x="162" y="1024.1018">NodoCancion(Cancion cancion)</text></g><!--class ColaReproduccion--><g id="elem_ColaReproduccion"><rect codeLine="19" fill="#F1F1F1" height="124.2717" id="ColaReproduccion" rx="2.5" ry="2.5" style="stroke:#181818;stroke-width:0.5;" width="268" x="104" y="318"/><ellipse cx="172.75" cy="334" fill="#ADD1B2" rx="11" ry="11" style="stroke:#181818;stroke-width:1.0;"/><path d="M172.2188,340.9219 Q170.4688,340.9219 169.3281,340.1875 Q168.2031,339.4375 167.6406,338.0938 Q167.0938,336.7344 167.0938,334.9375 Q167.0938,332.9063 167.75,331.4531 Q168.4063,330 169.6875,329.2188 Q170.9688,328.4375 172.8438,328.4375 Q173.7344,328.4375 174.4063,328.625 Q175.0781,328.7969 175.7656,329.1406 L174.9531,331.1563 Q174.3281,330.8438 173.7813,330.7188 Q173.25,330.5938 172.7656,330.5938 Q171.5938,330.5938 170.8906,331.125 Q170.1875,331.6563 169.8906,332.6094 Q169.5938,333.5625 169.5938,334.8281 Q169.5938,336.8438 170.3125,337.8125 Q171.0313,338.7656 172.625,338.7656 Q173.2188,338.7656 173.8438,338.6094 Q174.4688,338.4531 175.2969,338.0781 L175.2969,340.2969 Q174.5625,340.6094 173.7656,340.7656 Q172.9844,340.9219 172.2188,340.9219 Z " fill="#000000"/><text fill="#000000" font-family="sans-serif" font-size="14" lengthAdjust="spacing" textLength="122" x="193.25" y="339.432">ColaReproduccion</text><line style="stroke:#181818;stroke-width:0.5;" x1="105" x2="371" y1="350" y2="350"/><line style="stroke:#181818;stroke-width:0.5;" x1="105" x2="371" y1="358" y2="358"/><ellipse cx="115" cy="373.034" fill="#84BE84" rx="3" ry="3" style="stroke:#038048;stroke-width:1.0;"/><text fill="#000000" font-family="sans-serif" font-size="14" lengthAdjust="spacing" textLength="130" x="124" y="376.9659">ColaReproduccion()</text><ellipse cx="115" cy="392.1019" fill="#84BE84" rx="3" ry="3" style="stroke:#038048;stroke-width:1.0;"/><text fill="#000000" font-family="sans-serif" font-size="14" lengthAdjust="spacing" textLength="168" x="124" y="396.0339">encolar(Cancion cancion)</text><ellipse cx="115" cy="411.1698" fill="#84BE84" rx="3" ry="3" style="stroke:#038048;stroke-width:1.0;"/><text fill="#000000" font-family="sans-serif" font-size="14" lengthAdjust="spacing" textLength="140" x="124" y="415.1018">desencolar() Cancion</text><ellipse cx="115" cy="430.2377" fill="#84BE84" rx="3" ry="3" style="stroke:#038048;stroke-width:1.0;"/><text fill="#000000" font-family="sans-serif" font-size="14" lengthAdjust="spacing" textLength="242" x="124" y="434.1697">mostrarCola(Cancion cancionActual)</text></g><!--class PilaHistorial--><g id="elem_PilaHistorial"><rect codeLine="26" fill="#F1F1F1" height="124.2717" id="PilaHistorial" rx="2.5" ry="2.5" style="stroke:#181818;stroke-width:0.5;" width="183" x="259.5" y="511.5"/><ellipse cx="306.75" cy="527.5" fill="#ADD1B2" rx="11" ry="11" style="stroke:#181818;stroke-width:1.0;"/><path d="M306.2188,534.4219 Q304.4688,534.4219 303.3281,533.6875 Q302.2031,532.9375 301.6406,531.5938 Q301.0938,530.2344 301.0938,528.4375 Q301.0938,526.4063 301.75,524.9531 Q302.4063,523.5 303.6875,522.7188 Q304.9688,521.9375 306.8438,521.9375 Q307.7344,521.9375 308.4063,522.125 Q309.0781,522.2969 309.7656,522.6406 L308.9531,524.6563 Q308.3281,524.3438 307.7813,524.2188 Q307.25,524.0938 306.7656,524.0938 Q305.5938,524.0938 304.8906,524.625 Q304.1875,525.1563 303.8906,526.1094 Q303.5938,527.0625 303.5938,528.3281 Q303.5938,530.3438 304.3125,531.3125 Q305.0313,532.2656 306.625,532.2656 Q307.2188,532.2656 307.8438,532.1094 Q308.4688,531.9531 309.2969,531.5781 L309.2969,533.7969 Q308.5625,534.1094 307.7656,534.2656 Q306.9844,534.4219 306.2188,534.4219 Z " fill="#000000"/><text fill="#000000" font-family="sans-serif" font-size="14" lengthAdjust="spacing" textLength="80" x="327.25" y="532.932">PilaHistorial</text><line style="stroke:#181818;stroke-width:0.5;" x1="260.5" x2="441.5" y1="543.5" y2="543.5"/><line style="stroke:#181818;stroke-width:0.5;" x1="260.5" x2="441.5" y1="551.5" y2="551.5"/><ellipse cx="270.5" cy="566.534" fill="#84BE84" rx="3" ry="3" style="stroke:#038048;stroke-width:1.0;"/><text fill="#000000" font-family="sans-serif" font-size="14" lengthAdjust="spacing" textLength="88" x="279.5" y="570.4659">PilaHistorial()</text><ellipse cx="270.5" cy="585.6019" fill="#84BE84" rx="3" ry="3" style="stroke:#038048;stroke-width:1.0;"/><text fill="#000000" font-family="sans-serif" font-size="14" lengthAdjust="spacing" textLength="157" x="279.5" y="589.5339">apilar(Cancion cancion)</text><ellipse cx="270.5" cy="604.6698" fill="#84BE84" rx="3" ry="3" style="stroke:#038048;stroke-width:1.0;"/><text fill="#000000" font-family="sans-serif" font-size="14" lengthAdjust="spacing" textLength="129" x="279.5" y="608.6018">desapilar() Cancion</text><ellipse cx="270.5" cy="623.7377" fill="#84BE84" rx="3" ry="3" style="stroke:#038048;stroke-width:1.0;"/><text fill="#000000" font-family="sans-serif" font-size="14" lengthAdjust="spacing" textLength="117" x="279.5" y="627.6697">mostrarHistorial()</text></g><!--class ListaCanciones--><g id="elem_ListaCanciones"><rect codeLine="33" fill="#F1F1F1" height="162.4075" id="ListaCanciones" rx="2.5" ry="2.5" style="stroke:#181818;stroke-width:0.5;" width="252" x="370" y="705"/><ellipse cx="441.75" cy="721" fill="#ADD1B2" rx="11" ry="11" style="stroke:#181818;stroke-width:1.0;"/><path d="M441.2188,727.9219 Q439.4688,727.9219 438.3281,727.1875 Q437.2031,726.4375 436.6406,725.0938 Q436.0938,723.7344 436.0938,721.9375 Q436.0938,719.9063 436.75,718.4531 Q437.4063,717 438.6875,716.2188 Q439.9688,715.4375 441.8438,715.4375 Q442.7344,715.4375 443.4063,715.625 Q444.0781,715.7969 444.7656,716.1406 L443.9531,718.1563 Q443.3281,717.8438 442.7813,717.7188 Q442.25,717.5938 441.7656,717.5938 Q440.5938,717.5938 439.8906,718.125 Q439.1875,718.6563 438.8906,719.6094 Q438.5938,720.5625 438.5938,721.8281 Q438.5938,723.8438 439.3125,724.8125 Q440.0313,725.7656 441.625,725.7656 Q442.2188,725.7656 442.8438,725.6094 Q443.4688,725.4531 444.2969,725.0781 L444.2969,727.2969 Q443.5625,727.6094 442.7656,727.7656 Q441.9844,727.9219 441.2188,727.9219 Z " fill="#000000"/><text fill="#000000" font-family="sans-serif" font-size="14" lengthAdjust="spacing" textLength="100" x="462.25" y="726.432">ListaCanciones</text><line style="stroke:#181818;stroke-width:0.5;" x1="371" x2="621" y1="737" y2="737"/><line style="stroke:#181818;stroke-width:0.5;" x1="371" x2="621" y1="745" y2="745"/><ellipse cx="381" cy="760.034" fill="#84BE84" rx="3" ry="3" style="stroke:#038048;stroke-width:1.0;"/><text fill="#000000" font-family="sans-serif" font-size="14" lengthAdjust="spacing" textLength="108" x="390" y="763.9659">ListaCanciones()</text><ellipse cx="381" cy="779.1019" fill="#84BE84" rx="3" ry="3" style="stroke:#038048;stroke-width:1.0;"/><text fill="#000000" font-family="sans-serif" font-size="14" lengthAdjust="spacing" textLength="226" x="390" y="783.0339">agregarCancion(Cancion cancion)</text><ellipse cx="381" cy="798.1698" fill="#84BE84" rx="3" ry="3" style="stroke:#038048;stroke-width:1.0;"/><text fill="#000000" font-family="sans-serif" font-size="14" lengthAdjust="spacing" textLength="198" x="390" y="802.1018">eliminarCancion(String titulo)</text><ellipse cx="381" cy="817.2377" fill="#84BE84" rx="3" ry="3" style="stroke:#038048;stroke-width:1.0;"/><text fill="#000000" font-family="sans-serif" font-size="14" lengthAdjust="spacing" textLength="130" x="390" y="821.1697">mostrarCanciones()</text><ellipse cx="381" cy="836.3056" fill="#84BE84" rx="3" ry="3" style="stroke:#038048;stroke-width:1.0;"/><text fill="#000000" font-family="sans-serif" font-size="14" lengthAdjust="spacing" textLength="219" x="390" y="840.2376">getNodo(int index) NodoCancion</text><ellipse cx="381" cy="855.3735" fill="#84BE84" rx="3" ry="3" style="stroke:#038048;stroke-width:1.0;"/><text fill="#000000" font-family="sans-serif" font-size="14" lengthAdjust="spacing" textLength="106" x="390" y="859.3055">getTama&#241;o() int</text></g><!--class Playlist--><g id="elem_Playlist"><rect codeLine="42" fill="#F1F1F1" height="143.3396" id="Playlist" rx="2.5" ry="2.5" style="stroke:#181818;stroke-width:0.5;" width="252" x="549" y="502"/><ellipse cx="647.25" cy="518" fill="#ADD1B2" rx="11" ry="11" style="stroke:#181818;stroke-width:1.0;"/><path d="M646.7188,524.9219 Q644.9688,524.9219 643.8281,524.1875 Q642.7031,523.4375 642.1406,522.0938 Q641.5938,520.7344 641.5938,518.9375 Q641.5938,516.9063 642.25,515.4531 Q642.9063,514 644.1875,513.2188 Q645.4688,512.4375 647.3438,512.4375 Q648.2344,512.4375 648.9063,512.625 Q649.5781,512.7969 650.2656,513.1406 L649.4531,515.1563 Q648.8281,514.8438 648.2813,514.7188 Q647.75,514.5938 647.2656,514.5938 Q646.0938,514.5938 645.3906,515.125 Q644.6875,515.6563 644.3906,516.6094 Q644.0938,517.5625 644.0938,518.8281 Q644.0938,520.8438 644.8125,521.8125 Q645.5313,522.7656 647.125,522.7656 Q647.7188,522.7656 648.3438,522.6094 Q648.9688,522.4531 649.7969,522.0781 L649.7969,524.2969 Q649.0625,524.6094 648.2656,524.7656 Q647.4844,524.9219 646.7188,524.9219 Z " fill="#000000"/><text fill="#000000" font-family="sans-serif" font-size="14" lengthAdjust="spacing" textLength="47" x="667.75" y="523.432">Playlist</text><line style="stroke:#181818;stroke-width:0.5;" x1="550" x2="800" y1="534" y2="534"/><line style="stroke:#181818;stroke-width:0.5;" x1="550" x2="800" y1="542" y2="542"/><ellipse cx="560" cy="557.034" fill="#84BE84" rx="3" ry="3" style="stroke:#038048;stroke-width:1.0;"/><text fill="#000000" font-family="sans-serif" font-size="14" lengthAdjust="spacing" textLength="153" x="569" y="560.9659">Playlist(String nombre)</text><ellipse cx="560" cy="576.1019" fill="#84BE84" rx="3" ry="3" style="stroke:#038048;stroke-width:1.0;"/><text fill="#000000" font-family="sans-serif" font-size="14" lengthAdjust="spacing" textLength="130" x="569" y="580.0339">getNombre() String</text><ellipse cx="560" cy="595.1698" fill="#84BE84" rx="3" ry="3" style="stroke:#038048;stroke-width:1.0;"/><text fill="#000000" font-family="sans-serif" font-size="14" lengthAdjust="spacing" textLength="226" x="569" y="599.1018">agregarCancion(Cancion cancion)</text><ellipse cx="560" cy="614.2377" fill="#84BE84" rx="3" ry="3" style="stroke:#038048;stroke-width:1.0;"/><text fill="#000000" font-family="sans-serif" font-size="14" lengthAdjust="spacing" textLength="198" x="569" y="618.1697">eliminarCancion(String titulo)</text><ellipse cx="560" cy="633.3056" fill="#84BE84" rx="3" ry="3" style="stroke:#038048;stroke-width:1.0;"/><text fill="#000000" font-family="sans-serif" font-size="14" lengthAdjust="spacing" textLength="130" x="569" y="637.2376">mostrarCanciones()</text></g><!--class ListaPlaylists--><g id="elem_ListaPlaylists"><rect codeLine="50" fill="#F1F1F1" height="143.3396" id="ListaPlaylists" rx="2.5" ry="2.5" style="stroke:#181818;stroke-width:0.5;" width="244" x="551" y="115"/><ellipse cx="626.25" cy="131" fill="#ADD1B2" rx="11" ry="11" style="stroke:#181818;stroke-width:1.0;"/><path d="M625.7188,137.9219 Q623.9688,137.9219 622.8281,137.1875 Q621.7031,136.4375 621.1406,135.0938 Q620.5938,133.7344 620.5938,131.9375 Q620.5938,129.9063 621.25,128.4531 Q621.9063,127 623.1875,126.2188 Q624.4688,125.4375 626.3438,125.4375 Q627.2344,125.4375 627.9063,125.625 Q628.5781,125.7969 629.2656,126.1406 L628.4531,128.1563 Q627.8281,127.8438 627.2813,127.7188 Q626.75,127.5938 626.2656,127.5938 Q625.0938,127.5938 624.3906,128.125 Q623.6875,128.6563 623.3906,129.6094 Q623.0938,130.5625 623.0938,131.8281 Q623.0938,133.8438 623.8125,134.8125 Q624.5313,135.7656 626.125,135.7656 Q626.7188,135.7656 627.3438,135.6094 Q627.9688,135.4531 628.7969,135.0781 L628.7969,137.2969 Q628.0625,137.6094 627.2656,137.7656 Q626.4844,137.9219 625.7188,137.9219 Z " fill="#000000"/><text fill="#000000" font-family="sans-serif" font-size="14" lengthAdjust="spacing" textLength="85" x="646.75" y="136.432">ListaPlaylists</text><line style="stroke:#181818;stroke-width:0.5;" x1="552" x2="794" y1="147" y2="147"/><line style="stroke:#181818;stroke-width:0.5;" x1="552" x2="794" y1="155" y2="155"/><ellipse cx="562" cy="170.034" fill="#84BE84" rx="3" ry="3" style="stroke:#038048;stroke-width:1.0;"/><text fill="#000000" font-family="sans-serif" font-size="14" lengthAdjust="spacing" textLength="93" x="571" y="173.9659">ListaPlaylists()</text><ellipse cx="562" cy="189.1019" fill="#84BE84" rx="3" ry="3" style="stroke:#038048;stroke-width:1.0;"/><text fill="#000000" font-family="sans-serif" font-size="14" lengthAdjust="spacing" textLength="208" x="571" y="193.0339">agregarPlaylist(Playlist playlist)</text><ellipse cx="562" cy="208.1698" fill="#84BE84" rx="3" ry="3" style="stroke:#038048;stroke-width:1.0;"/><text fill="#000000" font-family="sans-serif" font-size="14" lengthAdjust="spacing" textLength="218" x="571" y="212.1018">obtenerPlaylist(int index) Playlist</text><ellipse cx="562" cy="227.2377" fill="#84BE84" rx="3" ry="3" style="stroke:#038048;stroke-width:1.0;"/><text fill="#000000" font-family="sans-serif" font-size="14" lengthAdjust="spacing" textLength="115" x="571" y="231.1697">mostrarPlaylists()</text><ellipse cx="562" cy="246.3056" fill="#84BE84" rx="3" ry="3" style="stroke:#038048;stroke-width:1.0;"/><text fill="#000000" font-family="sans-serif" font-size="14" lengthAdjust="spacing" textLength="106" x="571" y="250.2376">getTama&#241;o() int</text></g><!--class NodoPlaylist--><g id="elem_NodoPlaylist"><rect codeLine="58" fill="#F1F1F1" height="67.0679" id="NodoPlaylist" rx="2.5" ry="2.5" style="stroke:#181818;stroke-width:0.5;" width="216" x="566" y="346.5"/><ellipse cx="628.25" cy="362.5" fill="#ADD1B2" rx="11" ry="11" style="stroke:#181818;stroke-width:1.0;"/><path d="M627.7188,369.4219 Q625.9688,369.4219 624.8281,368.6875 Q623.7031,367.9375 623.1406,366.5938 Q622.5938,365.2344 622.5938,363.4375 Q622.5938,361.4063 623.25,359.9531 Q623.9063,358.5 625.1875,357.7188 Q626.4688,356.9375 628.3438,356.9375 Q629.2344,356.9375 629.9063,357.125 Q630.5781,357.2969 631.2656,357.6406 L630.4531,359.6563 Q629.8281,359.3438 629.2813,359.2188 Q628.75,359.0938 628.2656,359.0938 Q627.0938,359.0938 626.3906,359.625 Q625.6875,360.1563 625.3906,361.1094 Q625.0938,362.0625 625.0938,363.3281 Q625.0938,365.3438 625.8125,366.3125 Q626.5313,367.2656 628.125,367.2656 Q628.7188,367.2656 629.3438,367.1094 Q629.9688,366.9531 630.7969,366.5781 L630.7969,368.7969 Q630.0625,369.1094 629.2656,369.2656 Q628.4844,369.4219 627.7188,369.4219 Z " fill="#000000"/><text fill="#000000" font-family="sans-serif" font-size="14" lengthAdjust="spacing" textLength="83" x="648.75" y="367.932">NodoPlaylist</text><line style="stroke:#181818;stroke-width:0.5;" x1="567" x2="781" y1="378.5" y2="378.5"/><line style="stroke:#181818;stroke-width:0.5;" x1="567" x2="781" y1="386.5" y2="386.5"/><ellipse cx="577" cy="401.534" fill="#84BE84" rx="3" ry="3" style="stroke:#038048;stroke-width:1.0;"/><text fill="#000000" font-family="sans-serif" font-size="14" lengthAdjust="spacing" textLength="190" x="586" y="405.4659">NodoPlaylist(Playlist playlist)</text></g><!--link SpotifyApp to ListaCanciones--><g id="link_SpotifyApp_ListaCanciones"><path codeLine="62" d="M431.61,55.05 C436.09,71.6 441.77,94.5 445,115 C478.28,326.31 489.8599,572.673 493.8599,698.853 " fill="none" id="SpotifyApp-to-ListaCanciones" style="stroke:#181818;stroke-width:1.0;"/><polygon fill="#181818" points="494.05,704.85,497.7628,695.7278,493.8916,699.8525,489.7668,695.9813,494.05,704.85" style="stroke:#181818;stroke-width:1.0;"/></g><!--link SpotifyApp to ColaReproduccion--><g id="link_SpotifyApp_ColaReproduccion"><path codeLine="63" d="M412.59,55.04 C384.08,107.94 315.9865,234.2882 273.8265,312.5182 " fill="none" id="SpotifyApp-to-ColaReproduccion" style="stroke:#181818;stroke-width:1.0;"/><polygon fill="#181818" points="270.98,317.8,278.7709,311.7749,273.3521,313.3985,271.7285,307.9796,270.98,317.8" style="stroke:#181818;stroke-width:1.0;"/></g><!--link SpotifyApp to PilaHistorial--><g id="link_SpotifyApp_PilaHistorial"><path codeLine="64" d="M424.55,55.33 C422.98,118.28 416.28,296.63 389,442 C384.69,464.96 379.7628,483.9357 373.2228,505.6157 " fill="none" id="SpotifyApp-to-PilaHistorial" style="stroke:#181818;stroke-width:1.0;"/><polygon fill="#181818" points="371.49,511.36,377.9188,503.8987,372.934,506.5731,370.2597,501.5883,371.49,511.36" style="stroke:#181818;stroke-width:1.0;"/></g><!--link SpotifyApp to ListaPlaylists--><g id="link_SpotifyApp_ListaPlaylists"><path codeLine="65" d="M462.4,55.15 C488.24,71.14 519.0081,90.1924 553.8281,111.7424 " fill="none" id="SpotifyApp-to-ListaPlaylists" style="stroke:#181818;stroke-width:1.0;"/><polygon fill="#181818" points="558.93,114.9,553.3821,106.7624,554.6784,112.2687,549.172,113.5649,558.93,114.9" style="stroke:#181818;stroke-width:1.0;"/></g><!--link SpotifyApp to Cancion--><g id="link_SpotifyApp_Cancion"><path codeLine="66" d="M372.21,51.97 C269.11,94.79 51,205.84 51,379 C51,379 51,379 51,787 C51,897.14 97.5158,1010.419 136.0758,1086.439 " fill="none" id="SpotifyApp-to-Cancion" style="stroke:#181818;stroke-width:1.0;"/><polygon fill="#181818" points="138.79,1091.79,138.286,1081.954,136.5282,1087.3308,131.1514,1085.573,138.79,1091.79" style="stroke:#181818;stroke-width:1.0;"/></g><!--link ListaCanciones to NodoCancion--><g id="link_ListaCanciones_NodoCancion"><path codeLine="68" d="M396.86,867.1 C371.88,887.29 350.3771,904.6694 327.6271,923.0494 " fill="none" id="ListaCanciones-to-NodoCancion" style="stroke:#181818;stroke-width:1.0;"/><polygon fill="#181818" points="322.96,926.82,332.4745,924.2755,326.8493,923.6778,327.447,918.0526,322.96,926.82" style="stroke:#181818;stroke-width:1.0;"/></g><!--link ColaReproduccion to NodoCancion--><g id="link_ColaReproduccion_NodoCancion"><path codeLine="69" d="M238.31,442.1 C238.72,495.61 239.7,575.48 242,645 C245.3,744.81 251.4899,855.3008 255.4299,920.8308 " fill="none" id="ColaReproduccion-to-NodoCancion" style="stroke:#181818;stroke-width:1.0;"/><polygon fill="#181818" points="255.79,926.82,259.2426,917.5962,255.4899,921.829,251.2571,918.0763,255.79,926.82" style="stroke:#181818;stroke-width:1.0;"/></g><!--link PilaHistorial to NodoCancion--><g id="link_PilaHistorial_NodoCancion"><path codeLine="70" d="M337.03,635.86 C318.93,715.32 289.0426,846.5899 272.0926,920.9999 " fill="none" id="PilaHistorial-to-NodoCancion" style="stroke:#181818;stroke-width:1.0;"/><polygon fill="#181818" points="270.76,926.85,276.659,918.9632,271.8705,921.9749,268.8588,917.1864,270.76,926.85" style="stroke:#181818;stroke-width:1.0;"/></g><!--link ListaPlaylists to NodoPlaylist--><g id="link_ListaPlaylists_NodoPlaylist"><path codeLine="71" d="M673.37,258.26 C673.53,288.52 673.6677,316.3601 673.7977,340.5001 " fill="none" id="ListaPlaylists-to-NodoPlaylist" style="stroke:#181818;stroke-width:1.0;"/><polygon fill="#181818" points="673.83,346.5,677.7815,337.4786,673.8031,341.5001,669.7816,337.5217,673.83,346.5" style="stroke:#181818;stroke-width:1.0;"/></g><!--link NodoCancion to Cancion--><g id="link_NodoCancion_Cancion"><path codeLine="73" d="M238.8,1032.07 C231.6,1050.46 225.4983,1066.0433 217.5783,1086.2633 " fill="none" id="NodoCancion-to-Cancion" style="stroke:#181818;stroke-width:1.0;"/><polygon fill="#181818" points="215.39,1091.85,222.3969,1084.9288,217.2136,1087.1944,214.9479,1082.0111,215.39,1091.85" style="stroke:#181818;stroke-width:1.0;"/></g><!--link NodoPlaylist to Playlist--><g id="link_NodoPlaylist_Playlist"><path codeLine="74" d="M674.17,413.92 C674.3,438.09 674.4381,465.8201 674.5981,495.9601 " fill="none" id="NodoPlaylist-to-Playlist" style="stroke:#181818;stroke-width:1.0;"/><polygon fill="#181818" points="674.63,501.96,678.5822,492.9389,674.6035,496.9601,670.5823,492.9814,674.63,501.96" style="stroke:#181818;stroke-width:1.0;"/></g><!--link Playlist to ListaCanciones--><g id="link_Playlist_ListaCanciones"><path codeLine="75" d="M614.9,645.18 C598.65,664.29 584.8259,680.5384 568.1659,700.1384 " fill="none" id="Playlist-to-ListaCanciones" style="stroke:#181818;stroke-width:1.0;"/><polygon fill="#181818" points="564.28,704.71,573.1566,700.4431,567.5182,700.9003,567.0611,695.262,564.28,704.71" style="stroke:#181818;stroke-width:1.0;"/></g><!--SRC=[lLHBJiCm4Dtd55ucehq2KbK9iK08KIumJKnaoV54jeEe48VY35mCkt6IiUEsExffEsy-RzxCc376QWd6i4EFLhoVTdtFlWfdPT_5-Mj4zw1gWIf0_dCNJEN1Qg5QPeKT96vO-0lQ2cDXmuIoh1aqUDzgYMwvVJj7b5K8MR0ET0rwZnq-m0TgOQ4aaGqtrns4MQpiY2Wvg0MrE9QBwqRDFcE3bnjczVYz0DJVY7OGN5cUXSiaHvLH6YMyybvZCzGh1Wb6k-QgTgZELvY4cvogQQ14T3HMUr4bf3bsjHr0PhY-20cFRinER92KQ0HGbj2BcoI3psMEQUQ8qvDVkn393IKL8n6hLlFMzNvjIAF8KdH2BPxHxbThCNF5tERxZIZzOGZLyC-ABbny8T31xuy_4UUSaL_2IRgc8kM3RQAci3jgdfRtjipX_PSEwu5DjDS3cv7CmEPcPoNwy8Fuuj5onHTVeljaMn7E5hqz43_7t52e_H9NbuWymTljVRB9APg-1IaUdM0szTpaAdLOnIAv9O_HLLqzLQb3_3waQ3Bu2QP3AUZJIgb5If_RdQ8YQzp07m00]--></g></svg>