<?xml version="1.0" encoding="us-ascii" standalone="no"?><svg xmlns="http://www.w3.org/2000/svg" xmlns:xlink="http://www.w3.org/1999/xlink" contentStyleType="text/css" height="1814px" preserveAspectRatio="none" style="width:808px;height:1814px;background:#FFFFFF;" version="1.1" viewBox="0 0 808 1814" width="808px" zoomAndPan="magnify"><defs/><g><!--class SpotifyApp--><g id="elem_SpotifyApp"><rect codeLine="1" fill="#F1F1F1" height="372.1546" id="SpotifyApp" rx="2.5" ry="2.5" style="stroke:#181818;stroke-width:0.5;" width="272" x="289" y="7"/><ellipse cx="384.25" cy="23" fill="#ADD1B2" rx="11" ry="11" style="stroke:#181818;stroke-width:1.0;"/><path d="M383.7188,29.9219 Q381.9688,29.9219 380.8281,29.1875 Q379.7031,28.4375 379.1406,27.0938 Q378.5938,25.7344 378.5938,23.9375 Q378.5938,21.9063 379.25,20.4531 Q379.9063,19 381.1875,18.2188 Q382.4688,17.4375 384.3438,17.4375 Q385.2344,17.4375 385.9063,17.625 Q386.5781,17.7969 387.2656,18.1406 L386.4531,20.1563 Q385.8281,19.8438 385.2813,19.7188 Q384.75,19.5938 384.2656,19.5938 Q383.0938,19.5938 382.3906,20.125 Q381.6875,20.6563 381.3906,21.6094 Q381.0938,22.5625 381.0938,23.8281 Q381.0938,25.8438 381.8125,26.8125 Q382.5313,27.7656 384.125,27.7656 Q384.7188,27.7656 385.3438,27.6094 Q385.9688,27.4531 386.7969,27.0781 L386.7969,29.2969 Q386.0625,29.6094 385.2656,29.7656 Q384.4844,29.9219 383.7188,29.9219 Z " fill="#000000"/><text fill="#000000" font-family="sans-serif" font-size="14" lengthAdjust="spacing" textLength="73" x="404.75" y="28.432">SpotifyApp</text><line style="stroke:#181818;stroke-width:0.5;" x1="290" x2="560" y1="39" y2="39"/><rect fill="none" height="6" style="stroke:#C82930;stroke-width:1.0;" width="6" x="297" y="51.034"/><text fill="#000000" font-family="sans-serif" font-size="14" lengthAdjust="spacing" textLength="113" x="309" y="57.9659">Scanner scanner</text><rect fill="none" height="6" style="stroke:#C82930;stroke-width:1.0;" width="6" x="297" y="70.1019"/><text fill="#000000" font-family="sans-serif" font-size="14" lengthAdjust="spacing" textLength="170" x="309" y="77.0339">ListaCanciones biblioteca</text><rect fill="none" height="6" style="stroke:#C82930;stroke-width:1.0;" width="6" x="297" y="89.1698"/><text fill="#000000" font-family="sans-serif" font-size="14" lengthAdjust="spacing" textLength="162" x="309" y="96.1018">ListaCanciones favoritos</text><rect fill="none" height="6" style="stroke:#C82930;stroke-width:1.0;" width="6" x="297" y="108.2377"/><text fill="#000000" font-family="sans-serif" font-size="14" lengthAdjust="spacing" textLength="246" x="309" y="115.1697">ColaReproduccion colaReproduccion</text><rect fill="none" height="6" style="stroke:#C82930;stroke-width:1.0;" width="6" x="297" y="127.3056"/><text fill="#000000" font-family="sans-serif" font-size="14" lengthAdjust="spacing" textLength="139" x="309" y="134.2376">PilaHistorial historial</text><rect fill="none" height="6" style="stroke:#C82930;stroke-width:1.0;" width="6" x="297" y="146.3735"/><text fill="#000000" font-family="sans-serif" font-size="14" lengthAdjust="spacing" textLength="144" x="309" y="153.3055">ListaPlaylists playlists</text><rect fill="none" height="6" style="stroke:#C82930;stroke-width:1.0;" width="6" x="297" y="165.4415"/><text fill="#000000" font-family="sans-serif" font-size="14" lengthAdjust="spacing" textLength="156" x="309" y="172.3734">boolean modoAleatorio</text><rect fill="none" height="6" style="stroke:#C82930;stroke-width:1.0;" width="6" x="297" y="184.5094"/><text fill="#000000" font-family="sans-serif" font-size="14" lengthAdjust="spacing" textLength="167" x="309" y="191.4414">boolean modoRepeticion</text><rect fill="none" height="6" style="stroke:#C82930;stroke-width:1.0;" width="6" x="297" y="203.5773"/><text fill="#000000" font-family="sans-serif" font-size="14" lengthAdjust="spacing" textLength="152" x="309" y="210.5093">Cancion cancionActual</text><line style="stroke:#181818;stroke-width:0.5;" x1="290" x2="560" y1="218.6113" y2="218.6113"/><ellipse cx="300" cy="233.6452" fill="#84BE84" rx="3" ry="3" style="stroke:#038048;stroke-width:1.0;"/><text fill="#000000" font-family="sans-serif" font-size="14" lengthAdjust="spacing" textLength="127" x="309" y="237.5772">main(String[] args)</text><rect fill="#F24D5C" height="6" style="stroke:#C82930;stroke-width:1.0;" width="6" x="297" y="249.7131"/><text fill="#000000" font-family="sans-serif" font-size="14" lengthAdjust="spacing" textLength="139" x="309" y="256.6451">inicializarBiblioteca()</text><rect fill="#F24D5C" height="6" style="stroke:#C82930;stroke-width:1.0;" width="6" x="297" y="268.781"/><text fill="#000000" font-family="sans-serif" font-size="14" lengthAdjust="spacing" textLength="140" x="309" y="275.713">menuReproduccion()</text><rect fill="#F24D5C" height="6" style="stroke:#C82930;stroke-width:1.0;" width="6" x="297" y="287.849"/><text fill="#000000" font-family="sans-serif" font-size="14" lengthAdjust="spacing" textLength="113" x="309" y="294.7809">menuBiblioteca()</text><rect fill="#F24D5C" height="6" style="stroke:#C82930;stroke-width:1.0;" width="6" x="297" y="306.9169"/><text fill="#000000" font-family="sans-serif" font-size="14" lengthAdjust="spacing" textLength="125" x="309" y="313.8489">verCancionActual()</text><rect fill="#F24D5C" height="6" style="stroke:#C82930;stroke-width:1.0;" width="6" x="297" y="325.9848"/><text fill="#000000" font-family="sans-serif" font-size="14" lengthAdjust="spacing" textLength="144" x="309" y="332.9168">reproducirSiguiente()</text><rect fill="#F24D5C" height="6" style="stroke:#C82930;stroke-width:1.0;" width="6" x="297" y="345.0527"/><text fill="#000000" font-family="sans-serif" font-size="14" lengthAdjust="spacing" textLength="135" x="309" y="351.9847">reproducirAnterior()</text><rect fill="#F24D5C" height="6" style="stroke:#C82930;stroke-width:1.0;" width="6" x="297" y="364.1206"/><text fill="#000000" font-family="sans-serif" font-size="14" lengthAdjust="spacing" textLength="151" x="309" y="371.0526">verColaReproduccion()</text></g><!--class Cancion--><g id="elem_Cancion"><rect codeLine="21" fill="#F1F1F1" height="238.6792" id="Cancion" rx="2.5" ry="2.5" style="stroke:#181818;stroke-width:0.5;" width="354" x="7" y="1569"/><ellipse cx="152.75" cy="1585" fill="#ADD1B2" rx="11" ry="11" style="stroke:#181818;stroke-width:1.0;"/><path d="M152.2188,1591.9219 Q150.4688,1591.9219 149.3281,1591.1875 Q148.2031,1590.4375 147.6406,1589.0938 Q147.0938,1587.7344 147.0938,1585.9375 Q147.0938,1583.9063 147.75,1582.4531 Q148.4063,1581 149.6875,1580.2188 Q150.9688,1579.4375 152.8438,1579.4375 Q153.7344,1579.4375 154.4063,1579.625 Q155.0781,1579.7969 155.7656,1580.1406 L154.9531,1582.1563 Q154.3281,1581.8438 153.7813,1581.7188 Q153.25,1581.5938 152.7656,1581.5938 Q151.5938,1581.5938 150.8906,1582.125 Q150.1875,1582.6563 149.8906,1583.6094 Q149.5938,1584.5625 149.5938,1585.8281 Q149.5938,1587.8438 150.3125,1588.8125 Q151.0313,1589.7656 152.625,1589.7656 Q153.2188,1589.7656 153.8438,1589.6094 Q154.4688,1589.4531 155.2969,1589.0781 L155.2969,1591.2969 Q154.5625,1591.6094 153.7656,1591.7656 Q152.9844,1591.9219 152.2188,1591.9219 Z " fill="#000000"/><text fill="#000000" font-family="sans-serif" font-size="14" lengthAdjust="spacing" textLength="54" x="173.25" y="1590.432">Cancion</text><line style="stroke:#181818;stroke-width:0.5;" x1="8" x2="360" y1="1601" y2="1601"/><rect fill="none" height="6" style="stroke:#C82930;stroke-width:1.0;" width="6" x="15" y="1613.034"/><text fill="#000000" font-family="sans-serif" font-size="14" lengthAdjust="spacing" textLength="80" x="27" y="1619.9659">String titulo</text><rect fill="none" height="6" style="stroke:#C82930;stroke-width:1.0;" width="6" x="15" y="1632.1019"/><text fill="#000000" font-family="sans-serif" font-size="14" lengthAdjust="spacing" textLength="88" x="27" y="1639.0339">String artista</text><rect fill="none" height="6" style="stroke:#C82930;stroke-width:1.0;" width="6" x="15" y="1651.1698"/><text fill="#000000" font-family="sans-serif" font-size="14" lengthAdjust="spacing" textLength="82" x="27" y="1658.1018">int duracion</text><rect fill="none" height="6" style="stroke:#C82930;stroke-width:1.0;" width="6" x="15" y="1670.2377"/><text fill="#000000" font-family="sans-serif" font-size="14" lengthAdjust="spacing" textLength="109" x="27" y="1677.1697">boolean favorita</text><line style="stroke:#181818;stroke-width:0.5;" x1="8" x2="360" y1="1685.2717" y2="1685.2717"/><ellipse cx="18" cy="1700.3056" fill="#84BE84" rx="3" ry="3" style="stroke:#038048;stroke-width:1.0;"/><text fill="#000000" font-family="sans-serif" font-size="14" lengthAdjust="spacing" textLength="328" x="27" y="1704.2376">Cancion(String titulo, String artista, int duracion)</text><ellipse cx="18" cy="1719.3735" fill="#84BE84" rx="3" ry="3" style="stroke:#038048;stroke-width:1.0;"/><text fill="#000000" font-family="sans-serif" font-size="14" lengthAdjust="spacing" textLength="113" x="27" y="1723.3055">getTitulo() String</text><ellipse cx="18" cy="1738.4415" fill="#84BE84" rx="3" ry="3" style="stroke:#038048;stroke-width:1.0;"/><text fill="#000000" font-family="sans-serif" font-size="14" lengthAdjust="spacing" textLength="147" x="27" y="1742.3734">marcarComoFavorita()</text><ellipse cx="18" cy="1757.5094" fill="#84BE84" rx="3" ry="3" style="stroke:#038048;stroke-width:1.0;"/><text fill="#000000" font-family="sans-serif" font-size="14" lengthAdjust="spacing" textLength="171" x="27" y="1761.4414">desmarcarComoFavorita()</text><ellipse cx="18" cy="1776.5773" fill="#84BE84" rx="3" ry="3" style="stroke:#038048;stroke-width:1.0;"/><text fill="#000000" font-family="sans-serif" font-size="14" lengthAdjust="spacing" textLength="130" x="27" y="1780.5093">isFavorita() boolean</text><ellipse cx="18" cy="1795.6452" fill="#84BE84" rx="3" ry="3" style="stroke:#038048;stroke-width:1.0;"/><text fill="#000000" font-family="sans-serif" font-size="14" lengthAdjust="spacing" textLength="107" x="27" y="1799.5772">toString() String</text></g><!--class NodoCancion--><g id="elem_NodoCancion"><rect codeLine="34" fill="#F1F1F1" height="105.2038" id="NodoCancion" rx="2.5" ry="2.5" style="stroke:#181818;stroke-width:0.5;" width="234" x="142" y="1404"/><ellipse cx="209.75" cy="1420" fill="#ADD1B2" rx="11" ry="11" style="stroke:#181818;stroke-width:1.0;"/><path d="M209.2188,1426.9219 Q207.4688,1426.9219 206.3281,1426.1875 Q205.2031,1425.4375 204.6406,1424.0938 Q204.0938,1422.7344 204.0938,1420.9375 Q204.0938,1418.9063 204.75,1417.4531 Q205.4063,1416 206.6875,1415.2188 Q207.9688,1414.4375 209.8438,1414.4375 Q210.7344,1414.4375 211.4063,1414.625 Q212.0781,1414.7969 212.7656,1415.1406 L211.9531,1417.1563 Q211.3281,1416.8438 210.7813,1416.7188 Q210.25,1416.5938 209.7656,1416.5938 Q208.5938,1416.5938 207.8906,1417.125 Q207.1875,1417.6563 206.8906,1418.6094 Q206.5938,1419.5625 206.5938,1420.8281 Q206.5938,1422.8438 207.3125,1423.8125 Q208.0313,1424.7656 209.625,1424.7656 Q210.2188,1424.7656 210.8438,1424.6094 Q211.4688,1424.4531 212.2969,1424.0781 L212.2969,1426.2969 Q211.5625,1426.6094 210.7656,1426.7656 Q209.9844,1426.9219 209.2188,1426.9219 Z " fill="#000000"/><text fill="#000000" font-family="sans-serif" font-size="14" lengthAdjust="spacing" textLength="90" x="230.25" y="1425.432">NodoCancion</text><line style="stroke:#181818;stroke-width:0.5;" x1="143" x2="375" y1="1436" y2="1436"/><ellipse cx="153" cy="1451.034" fill="none" rx="3" ry="3" style="stroke:#038048;stroke-width:1.0;"/><text fill="#000000" font-family="sans-serif" font-size="14" lengthAdjust="spacing" textLength="110" x="162" y="1454.9659">Cancion cancion</text><ellipse cx="153" cy="1470.1019" fill="none" rx="3" ry="3" style="stroke:#038048;stroke-width:1.0;"/><text fill="#000000" font-family="sans-serif" font-size="14" lengthAdjust="spacing" textLength="157" x="162" y="1474.0339">NodoCancion siguiente</text><line style="stroke:#181818;stroke-width:0.5;" x1="143" x2="375" y1="1482.1358" y2="1482.1358"/><ellipse cx="153" cy="1497.1698" fill="#84BE84" rx="3" ry="3" style="stroke:#038048;stroke-width:1.0;"/><text fill="#000000" font-family="sans-serif" font-size="14" lengthAdjust="spacing" textLength="208" x="162" y="1501.1018">NodoCancion(Cancion cancion)</text></g><!--class ColaReproduccion--><g id="elem_ColaReproduccion"><rect codeLine="40" fill="#F1F1F1" height="162.4075" id="ColaReproduccion" rx="2.5" ry="2.5" style="stroke:#181818;stroke-width:0.5;" width="268" x="104" y="680"/><ellipse cx="172.75" cy="696" fill="#ADD1B2" rx="11" ry="11" style="stroke:#181818;stroke-width:1.0;"/><path d="M172.2188,702.9219 Q170.4688,702.9219 169.3281,702.1875 Q168.2031,701.4375 167.6406,700.0938 Q167.0938,698.7344 167.0938,696.9375 Q167.0938,694.9063 167.75,693.4531 Q168.4063,692 169.6875,691.2188 Q170.9688,690.4375 172.8438,690.4375 Q173.7344,690.4375 174.4063,690.625 Q175.0781,690.7969 175.7656,691.1406 L174.9531,693.1563 Q174.3281,692.8438 173.7813,692.7188 Q173.25,692.5938 172.7656,692.5938 Q171.5938,692.5938 170.8906,693.125 Q170.1875,693.6563 169.8906,694.6094 Q169.5938,695.5625 169.5938,696.8281 Q169.5938,698.8438 170.3125,699.8125 Q171.0313,700.7656 172.625,700.7656 Q173.2188,700.7656 173.8438,700.6094 Q174.4688,700.4531 175.2969,700.0781 L175.2969,702.2969 Q174.5625,702.6094 173.7656,702.7656 Q172.9844,702.9219 172.2188,702.9219 Z " fill="#000000"/><text fill="#000000" font-family="sans-serif" font-size="14" lengthAdjust="spacing" textLength="122" x="193.25" y="701.432">ColaReproduccion</text><line style="stroke:#181818;stroke-width:0.5;" x1="105" x2="371" y1="712" y2="712"/><rect fill="none" height="6" style="stroke:#C82930;stroke-width:1.0;" width="6" x="112" y="724.034"/><text fill="#000000" font-family="sans-serif" font-size="14" lengthAdjust="spacing" textLength="130" x="124" y="730.9659">NodoCancion inicio</text><rect fill="none" height="6" style="stroke:#C82930;stroke-width:1.0;" width="6" x="112" y="743.1019"/><text fill="#000000" font-family="sans-serif" font-size="14" lengthAdjust="spacing" textLength="112" x="124" y="750.0339">NodoCancion fin</text><line style="stroke:#181818;stroke-width:0.5;" x1="105" x2="371" y1="758.1358" y2="758.1358"/><ellipse cx="115" cy="773.1698" fill="#84BE84" rx="3" ry="3" style="stroke:#038048;stroke-width:1.0;"/><text fill="#000000" font-family="sans-serif" font-size="14" lengthAdjust="spacing" textLength="130" x="124" y="777.1018">ColaReproduccion()</text><ellipse cx="115" cy="792.2377" fill="#84BE84" rx="3" ry="3" style="stroke:#038048;stroke-width:1.0;"/><text fill="#000000" font-family="sans-serif" font-size="14" lengthAdjust="spacing" textLength="168" x="124" y="796.1697">encolar(Cancion cancion)</text><ellipse cx="115" cy="811.3056" fill="#84BE84" rx="3" ry="3" style="stroke:#038048;stroke-width:1.0;"/><text fill="#000000" font-family="sans-serif" font-size="14" lengthAdjust="spacing" textLength="140" x="124" y="815.2376">desencolar() Cancion</text><ellipse cx="115" cy="830.3735" fill="#84BE84" rx="3" ry="3" style="stroke:#038048;stroke-width:1.0;"/><text fill="#000000" font-family="sans-serif" font-size="14" lengthAdjust="spacing" textLength="242" x="124" y="834.3055">mostrarCola(Cancion cancionActual)</text></g><!--class PilaHistorial--><g id="elem_PilaHistorial"><rect codeLine="49" fill="#F1F1F1" height="143.3396" id="PilaHistorial" rx="2.5" ry="2.5" style="stroke:#181818;stroke-width:0.5;" width="183" x="259.5" y="921"/><ellipse cx="306.75" cy="937" fill="#ADD1B2" rx="11" ry="11" style="stroke:#181818;stroke-width:1.0;"/><path d="M306.2188,943.9219 Q304.4688,943.9219 303.3281,943.1875 Q302.2031,942.4375 301.6406,941.0938 Q301.0938,939.7344 301.0938,937.9375 Q301.0938,935.9063 301.75,934.4531 Q302.4063,933 303.6875,932.2188 Q304.9688,931.4375 306.8438,931.4375 Q307.7344,931.4375 308.4063,931.625 Q309.0781,931.7969 309.7656,932.1406 L308.9531,934.1563 Q308.3281,933.8438 307.7813,933.7188 Q307.25,933.5938 306.7656,933.5938 Q305.5938,933.5938 304.8906,934.125 Q304.1875,934.6563 303.8906,935.6094 Q303.5938,936.5625 303.5938,937.8281 Q303.5938,939.8438 304.3125,940.8125 Q305.0313,941.7656 306.625,941.7656 Q307.2188,941.7656 307.8438,941.6094 Q308.4688,941.4531 309.2969,941.0781 L309.2969,943.2969 Q308.5625,943.6094 307.7656,943.7656 Q306.9844,943.9219 306.2188,943.9219 Z " fill="#000000"/><text fill="#000000" font-family="sans-serif" font-size="14" lengthAdjust="spacing" textLength="80" x="327.25" y="942.432">PilaHistorial</text><line style="stroke:#181818;stroke-width:0.5;" x1="260.5" x2="441.5" y1="953" y2="953"/><rect fill="none" height="6" style="stroke:#C82930;stroke-width:1.0;" width="6" x="267.5" y="965.034"/><text fill="#000000" font-family="sans-serif" font-size="14" lengthAdjust="spacing" textLength="124" x="279.5" y="971.9659">NodoCancion tope</text><line style="stroke:#181818;stroke-width:0.5;" x1="260.5" x2="441.5" y1="980.0679" y2="980.0679"/><ellipse cx="270.5" cy="995.1019" fill="#84BE84" rx="3" ry="3" style="stroke:#038048;stroke-width:1.0;"/><text fill="#000000" font-family="sans-serif" font-size="14" lengthAdjust="spacing" textLength="88" x="279.5" y="999.0339">PilaHistorial()</text><ellipse cx="270.5" cy="1014.1698" fill="#84BE84" rx="3" ry="3" style="stroke:#038048;stroke-width:1.0;"/><text fill="#000000" font-family="sans-serif" font-size="14" lengthAdjust="spacing" textLength="157" x="279.5" y="1018.1018">apilar(Cancion cancion)</text><ellipse cx="270.5" cy="1033.2377" fill="#84BE84" rx="3" ry="3" style="stroke:#038048;stroke-width:1.0;"/><text fill="#000000" font-family="sans-serif" font-size="14" lengthAdjust="spacing" textLength="129" x="279.5" y="1037.1697">desapilar() Cancion</text><ellipse cx="270.5" cy="1052.3056" fill="#84BE84" rx="3" ry="3" style="stroke:#038048;stroke-width:1.0;"/><text fill="#000000" font-family="sans-serif" font-size="14" lengthAdjust="spacing" textLength="117" x="279.5" y="1056.2376">mostrarHistorial()</text></g><!--class ListaCanciones--><g id="elem_ListaCanciones"><rect codeLine="57" fill="#F1F1F1" height="200.5433" id="ListaCanciones" rx="2.5" ry="2.5" style="stroke:#181818;stroke-width:0.5;" width="252" x="370" y="1143"/><ellipse cx="441.75" cy="1159" fill="#ADD1B2" rx="11" ry="11" style="stroke:#181818;stroke-width:1.0;"/><path d="M441.2188,1165.9219 Q439.4688,1165.9219 438.3281,1165.1875 Q437.2031,1164.4375 436.6406,1163.0938 Q436.0938,1161.7344 436.0938,1159.9375 Q436.0938,1157.9063 436.75,1156.4531 Q437.4063,1155 438.6875,1154.2188 Q439.9688,1153.4375 441.8438,1153.4375 Q442.7344,1153.4375 443.4063,1153.625 Q444.0781,1153.7969 444.7656,1154.1406 L443.9531,1156.1563 Q443.3281,1155.8438 442.7813,1155.7188 Q442.25,1155.5938 441.7656,1155.5938 Q440.5938,1155.5938 439.8906,1156.125 Q439.1875,1156.6563 438.8906,1157.6094 Q438.5938,1158.5625 438.5938,1159.8281 Q438.5938,1161.8438 439.3125,1162.8125 Q440.0313,1163.7656 441.625,1163.7656 Q442.2188,1163.7656 442.8438,1163.6094 Q443.4688,1163.4531 444.2969,1163.0781 L444.2969,1165.2969 Q443.5625,1165.6094 442.7656,1165.7656 Q441.9844,1165.9219 441.2188,1165.9219 Z " fill="#000000"/><text fill="#000000" font-family="sans-serif" font-size="14" lengthAdjust="spacing" textLength="100" x="462.25" y="1164.432">ListaCanciones</text><line style="stroke:#181818;stroke-width:0.5;" x1="371" x2="621" y1="1175" y2="1175"/><rect fill="none" height="6" style="stroke:#C82930;stroke-width:1.0;" width="6" x="378" y="1187.034"/><text fill="#000000" font-family="sans-serif" font-size="14" lengthAdjust="spacing" textLength="130" x="390" y="1193.9659">NodoCancion inicio</text><rect fill="none" height="6" style="stroke:#C82930;stroke-width:1.0;" width="6" x="378" y="1206.1019"/><text fill="#000000" font-family="sans-serif" font-size="14" lengthAdjust="spacing" textLength="73" x="390" y="1213.0339">int tama&#241;o</text><line style="stroke:#181818;stroke-width:0.5;" x1="371" x2="621" y1="1221.1358" y2="1221.1358"/><ellipse cx="381" cy="1236.1698" fill="#84BE84" rx="3" ry="3" style="stroke:#038048;stroke-width:1.0;"/><text fill="#000000" font-family="sans-serif" font-size="14" lengthAdjust="spacing" textLength="108" x="390" y="1240.1018">ListaCanciones()</text><ellipse cx="381" cy="1255.2377" fill="#84BE84" rx="3" ry="3" style="stroke:#038048;stroke-width:1.0;"/><text fill="#000000" font-family="sans-serif" font-size="14" lengthAdjust="spacing" textLength="226" x="390" y="1259.1697">agregarCancion(Cancion cancion)</text><ellipse cx="381" cy="1274.3056" fill="#84BE84" rx="3" ry="3" style="stroke:#038048;stroke-width:1.0;"/><text fill="#000000" font-family="sans-serif" font-size="14" lengthAdjust="spacing" textLength="198" x="390" y="1278.2376">eliminarCancion(String titulo)</text><ellipse cx="381" cy="1293.3735" fill="#84BE84" rx="3" ry="3" style="stroke:#038048;stroke-width:1.0;"/><text fill="#000000" font-family="sans-serif" font-size="14" lengthAdjust="spacing" textLength="130" x="390" y="1297.3055">mostrarCanciones()</text><ellipse cx="381" cy="1312.4415" fill="#84BE84" rx="3" ry="3" style="stroke:#038048;stroke-width:1.0;"/><text fill="#000000" font-family="sans-serif" font-size="14" lengthAdjust="spacing" textLength="219" x="390" y="1316.3734">getNodo(int index) NodoCancion</text><ellipse cx="381" cy="1331.5094" fill="#84BE84" rx="3" ry="3" style="stroke:#038048;stroke-width:1.0;"/><text fill="#000000" font-family="sans-serif" font-size="14" lengthAdjust="spacing" textLength="106" x="390" y="1335.4414">getTama&#241;o() int</text></g><!--class Playlist--><g id="elem_Playlist"><rect codeLine="68" fill="#F1F1F1" height="181.4754" id="Playlist" rx="2.5" ry="2.5" style="stroke:#181818;stroke-width:0.5;" width="252" x="549" y="902"/><ellipse cx="647.25" cy="918" fill="#ADD1B2" rx="11" ry="11" style="stroke:#181818;stroke-width:1.0;"/><path d="M646.7188,924.9219 Q644.9688,924.9219 643.8281,924.1875 Q642.7031,923.4375 642.1406,922.0938 Q641.5938,920.7344 641.5938,918.9375 Q641.5938,916.9063 642.25,915.4531 Q642.9063,914 644.1875,913.2188 Q645.4688,912.4375 647.3438,912.4375 Q648.2344,912.4375 648.9063,912.625 Q649.5781,912.7969 650.2656,913.1406 L649.4531,915.1563 Q648.8281,914.8438 648.2813,914.7188 Q647.75,914.5938 647.2656,914.5938 Q646.0938,914.5938 645.3906,915.125 Q644.6875,915.6563 644.3906,916.6094 Q644.0938,917.5625 644.0938,918.8281 Q644.0938,920.8438 644.8125,921.8125 Q645.5313,922.7656 647.125,922.7656 Q647.7188,922.7656 648.3438,922.6094 Q648.9688,922.4531 649.7969,922.0781 L649.7969,924.2969 Q649.0625,924.6094 648.2656,924.7656 Q647.4844,924.9219 646.7188,924.9219 Z " fill="#000000"/><text fill="#000000" font-family="sans-serif" font-size="14" lengthAdjust="spacing" textLength="47" x="667.75" y="923.432">Playlist</text><line style="stroke:#181818;stroke-width:0.5;" x1="550" x2="800" y1="934" y2="934"/><rect fill="none" height="6" style="stroke:#C82930;stroke-width:1.0;" width="6" x="557" y="946.034"/><text fill="#000000" font-family="sans-serif" font-size="14" lengthAdjust="spacing" textLength="98" x="569" y="952.9659">String nombre</text><rect fill="none" height="6" style="stroke:#C82930;stroke-width:1.0;" width="6" x="557" y="965.1019"/><text fill="#000000" font-family="sans-serif" font-size="14" lengthAdjust="spacing" textLength="171" x="569" y="972.0339">ListaCanciones canciones</text><line style="stroke:#181818;stroke-width:0.5;" x1="550" x2="800" y1="980.1358" y2="980.1358"/><ellipse cx="560" cy="995.1698" fill="#84BE84" rx="3" ry="3" style="stroke:#038048;stroke-width:1.0;"/><text fill="#000000" font-family="sans-serif" font-size="14" lengthAdjust="spacing" textLength="153" x="569" y="999.1018">Playlist(String nombre)</text><ellipse cx="560" cy="1014.2377" fill="#84BE84" rx="3" ry="3" style="stroke:#038048;stroke-width:1.0;"/><text fill="#000000" font-family="sans-serif" font-size="14" lengthAdjust="spacing" textLength="130" x="569" y="1018.1697">getNombre() String</text><ellipse cx="560" cy="1033.3056" fill="#84BE84" rx="3" ry="3" style="stroke:#038048;stroke-width:1.0;"/><text fill="#000000" font-family="sans-serif" font-size="14" lengthAdjust="spacing" textLength="226" x="569" y="1037.2376">agregarCancion(Cancion cancion)</text><ellipse cx="560" cy="1052.3735" fill="#84BE84" rx="3" ry="3" style="stroke:#038048;stroke-width:1.0;"/><text fill="#000000" font-family="sans-serif" font-size="14" lengthAdjust="spacing" textLength="198" x="569" y="1056.3055">eliminarCancion(String titulo)</text><ellipse cx="560" cy="1071.4415" fill="#84BE84" rx="3" ry="3" style="stroke:#038048;stroke-width:1.0;"/><text fill="#000000" font-family="sans-serif" font-size="14" lengthAdjust="spacing" textLength="130" x="569" y="1075.3734">mostrarCanciones()</text></g><!--class ListaPlaylists--><g id="elem_ListaPlaylists"><rect codeLine="78" fill="#F1F1F1" height="181.4754" id="ListaPlaylists" rx="2.5" ry="2.5" style="stroke:#181818;stroke-width:0.5;" width="244" x="551" y="439"/><ellipse cx="626.25" cy="455" fill="#ADD1B2" rx="11" ry="11" style="stroke:#181818;stroke-width:1.0;"/><path d="M625.7188,461.9219 Q623.9688,461.9219 622.8281,461.1875 Q621.7031,460.4375 621.1406,459.0938 Q620.5938,457.7344 620.5938,455.9375 Q620.5938,453.9063 621.25,452.4531 Q621.9063,451 623.1875,450.2188 Q624.4688,449.4375 626.3438,449.4375 Q627.2344,449.4375 627.9063,449.625 Q628.5781,449.7969 629.2656,450.1406 L628.4531,452.1563 Q627.8281,451.8438 627.2813,451.7188 Q626.75,451.5938 626.2656,451.5938 Q625.0938,451.5938 624.3906,452.125 Q623.6875,452.6563 623.3906,453.6094 Q623.0938,454.5625 623.0938,455.8281 Q623.0938,457.8438 623.8125,458.8125 Q624.5313,459.7656 626.125,459.7656 Q626.7188,459.7656 627.3438,459.6094 Q627.9688,459.4531 628.7969,459.0781 L628.7969,461.2969 Q628.0625,461.6094 627.2656,461.7656 Q626.4844,461.9219 625.7188,461.9219 Z " fill="#000000"/><text fill="#000000" font-family="sans-serif" font-size="14" lengthAdjust="spacing" textLength="85" x="646.75" y="460.432">ListaPlaylists</text><line style="stroke:#181818;stroke-width:0.5;" x1="552" x2="794" y1="471" y2="471"/><rect fill="none" height="6" style="stroke:#C82930;stroke-width:1.0;" width="6" x="559" y="483.034"/><text fill="#000000" font-family="sans-serif" font-size="14" lengthAdjust="spacing" textLength="123" x="571" y="489.9659">NodoPlaylist inicio</text><rect fill="none" height="6" style="stroke:#C82930;stroke-width:1.0;" width="6" x="559" y="502.1019"/><text fill="#000000" font-family="sans-serif" font-size="14" lengthAdjust="spacing" textLength="73" x="571" y="509.0339">int tama&#241;o</text><line style="stroke:#181818;stroke-width:0.5;" x1="552" x2="794" y1="517.1358" y2="517.1358"/><ellipse cx="562" cy="532.1698" fill="#84BE84" rx="3" ry="3" style="stroke:#038048;stroke-width:1.0;"/><text fill="#000000" font-family="sans-serif" font-size="14" lengthAdjust="spacing" textLength="93" x="571" y="536.1018">ListaPlaylists()</text><ellipse cx="562" cy="551.2377" fill="#84BE84" rx="3" ry="3" style="stroke:#038048;stroke-width:1.0;"/><text fill="#000000" font-family="sans-serif" font-size="14" lengthAdjust="spacing" textLength="208" x="571" y="555.1697">agregarPlaylist(Playlist playlist)</text><ellipse cx="562" cy="570.3056" fill="#84BE84" rx="3" ry="3" style="stroke:#038048;stroke-width:1.0;"/><text fill="#000000" font-family="sans-serif" font-size="14" lengthAdjust="spacing" textLength="218" x="571" y="574.2376">obtenerPlaylist(int index) Playlist</text><ellipse cx="562" cy="589.3735" fill="#84BE84" rx="3" ry="3" style="stroke:#038048;stroke-width:1.0;"/><text fill="#000000" font-family="sans-serif" font-size="14" lengthAdjust="spacing" textLength="115" x="571" y="593.3055">mostrarPlaylists()</text><ellipse cx="562" cy="608.4415" fill="#84BE84" rx="3" ry="3" style="stroke:#038048;stroke-width:1.0;"/><text fill="#000000" font-family="sans-serif" font-size="14" lengthAdjust="spacing" textLength="106" x="571" y="612.3734">getTama&#241;o() int</text></g><!--class NodoPlaylist--><g id="elem_NodoPlaylist"><rect codeLine="88" fill="#F1F1F1" height="105.2038" id="NodoPlaylist" rx="2.5" ry="2.5" style="stroke:#181818;stroke-width:0.5;" width="216" x="566" y="708.5"/><ellipse cx="628.25" cy="724.5" fill="#ADD1B2" rx="11" ry="11" style="stroke:#181818;stroke-width:1.0;"/><path d="M627.7188,731.4219 Q625.9688,731.4219 624.8281,730.6875 Q623.7031,729.9375 623.1406,728.5938 Q622.5938,727.2344 622.5938,725.4375 Q622.5938,723.4063 623.25,721.9531 Q623.9063,720.5 625.1875,719.7188 Q626.4688,718.9375 628.3438,718.9375 Q629.2344,718.9375 629.9063,719.125 Q630.5781,719.2969 631.2656,719.6406 L630.4531,721.6563 Q629.8281,721.3438 629.2813,721.2188 Q628.75,721.0938 628.2656,721.0938 Q627.0938,721.0938 626.3906,721.625 Q625.6875,722.1563 625.3906,723.1094 Q625.0938,724.0625 625.0938,725.3281 Q625.0938,727.3438 625.8125,728.3125 Q626.5313,729.2656 628.125,729.2656 Q628.7188,729.2656 629.3438,729.1094 Q629.9688,728.9531 630.7969,728.5781 L630.7969,730.7969 Q630.0625,731.1094 629.2656,731.2656 Q628.4844,731.4219 627.7188,731.4219 Z " fill="#000000"/><text fill="#000000" font-family="sans-serif" font-size="14" lengthAdjust="spacing" textLength="83" x="648.75" y="729.932">NodoPlaylist</text><line style="stroke:#181818;stroke-width:0.5;" x1="567" x2="781" y1="740.5" y2="740.5"/><ellipse cx="577" cy="755.534" fill="none" rx="3" ry="3" style="stroke:#038048;stroke-width:1.0;"/><text fill="#000000" font-family="sans-serif" font-size="14" lengthAdjust="spacing" textLength="99" x="586" y="759.4659">Playlist playlist</text><ellipse cx="577" cy="774.6019" fill="none" rx="3" ry="3" style="stroke:#038048;stroke-width:1.0;"/><text fill="#000000" font-family="sans-serif" font-size="14" lengthAdjust="spacing" textLength="150" x="586" y="778.5339">NodoPlaylist siguiente</text><line style="stroke:#181818;stroke-width:0.5;" x1="567" x2="781" y1="786.6358" y2="786.6358"/><ellipse cx="577" cy="801.6698" fill="#84BE84" rx="3" ry="3" style="stroke:#038048;stroke-width:1.0;"/><text fill="#000000" font-family="sans-serif" font-size="14" lengthAdjust="spacing" textLength="190" x="586" y="805.6018">NodoPlaylist(Playlist playlist)</text></g><!--link SpotifyApp to ListaCanciones--><g id="link_SpotifyApp_ListaCanciones"><path codeLine="94" d="M439.62,379.26 C441.13,399.42 442.62,419.64 444,439 C462.03,692.43 480.3037,985.0212 489.5937,1136.9012 " fill="none" id="SpotifyApp-to-ListaCanciones" style="stroke:#181818;stroke-width:1.0;"/><polygon fill="#181818" points="489.96,1142.89,493.4031,1133.6626,489.6547,1137.8993,485.418,1134.151,489.96,1142.89" style="stroke:#181818;stroke-width:1.0;"/></g><!--link SpotifyApp to ColaReproduccion--><g id="link_SpotifyApp_ColaReproduccion"><path codeLine="95" d="M363.77,379.33 C330.16,481.05 292.1022,596.2529 266.3922,674.0729 " fill="none" id="SpotifyApp-to-ColaReproduccion" style="stroke:#181818;stroke-width:1.0;"/><polygon fill="#181818" points="264.51,679.77,271.1314,672.4791,266.0785,675.0224,263.5352,669.9695,264.51,679.77" style="stroke:#181818;stroke-width:1.0;"/></g><!--link SpotifyApp to PilaHistorial--><g id="link_SpotifyApp_PilaHistorial"><path codeLine="96" d="M424.19,379.33 C421.32,509.46 412.75,687.19 389,842 C385,868.07 379.9828,890.4191 373.4428,915.1691 " fill="none" id="SpotifyApp-to-PilaHistorial" style="stroke:#181818;stroke-width:1.0;"/><polygon fill="#181818" points="371.91,920.97,378.0765,913.2906,373.1874,916.1359,370.342,911.2468,371.91,920.97" style="stroke:#181818;stroke-width:1.0;"/></g><!--link SpotifyApp to ListaPlaylists--><g id="link_SpotifyApp_ListaPlaylists"><path codeLine="97" d="M561.33,377.89 C576.98,398.99 588.7864,414.9103 602.8964,433.9403 " fill="none" id="SpotifyApp-to-ListaPlaylists" style="stroke:#181818;stroke-width:1.0;"/><polygon fill="#181818" points="606.47,438.76,604.3227,429.1481,603.492,434.7436,597.8965,433.9129,606.47,438.76" style="stroke:#181818;stroke-width:1.0;"/></g><!--link SpotifyApp to Cancion--><g id="link_SpotifyApp_Cancion"><path codeLine="98" d="M288.92,310.74 C181.98,416.1 51,581.57 51,760 C51,760 51,760 51,1244.5 C51,1357.93 89.1929,1475.5071 125.4929,1563.0971 " fill="none" id="SpotifyApp-to-Cancion" style="stroke:#181818;stroke-width:1.0;"/><polygon fill="#181818" points="127.79,1568.64,128.0395,1558.7943,125.8757,1564.021,120.6491,1561.8571,127.79,1568.64" style="stroke:#181818;stroke-width:1.0;"/></g><!--link ListaCanciones to NodoCancion--><g id="link_ListaCanciones_NodoCancion"><path codeLine="100" d="M384.09,1344.13 C360.84,1364.83 341.7302,1381.839 321.4002,1399.949 " fill="none" id="ListaCanciones-to-NodoCancion" style="stroke:#181818;stroke-width:1.0;"/><polygon fill="#181818" points="316.92,1403.94,326.3009,1400.9403,320.6535,1400.6142,320.9797,1394.9667,316.92,1403.94" style="stroke:#181818;stroke-width:1.0;"/></g><!--link ColaReproduccion to NodoCancion--><g id="link_ColaReproduccion_NodoCancion"><path codeLine="101" d="M238.26,842.16 C238.65,907.1 239.62,1000.97 242,1083 C245.33,1197.54 251.8544,1325.7688 255.7644,1397.7088 " fill="none" id="ColaReproduccion-to-NodoCancion" style="stroke:#181818;stroke-width:1.0;"/><polygon fill="#181818" points="256.09,1403.7,259.5957,1394.4962,255.8186,1398.7074,251.6075,1394.9303,256.09,1403.7" style="stroke:#181818;stroke-width:1.0;"/></g><!--link PilaHistorial to NodoCancion--><g id="link_PilaHistorial_NodoCancion"><path codeLine="102" d="M336.93,1064.17 C318.28,1157.82 286.9818,1314.9655 270.4618,1397.9255 " fill="none" id="PilaHistorial-to-NodoCancion" style="stroke:#181818;stroke-width:1.0;"/><polygon fill="#181818" points="269.29,1403.81,274.9707,1395.7645,270.2665,1398.9063,267.1247,1394.2021,269.29,1403.81" style="stroke:#181818;stroke-width:1.0;"/></g><!--link ListaPlaylists to NodoPlaylist--><g id="link_ListaPlaylists_NodoPlaylist"><path codeLine="103" d="M673.39,620.22 C673.52,650.14 673.6323,676.4501 673.7523,702.4601 " fill="none" id="ListaPlaylists-to-NodoPlaylist" style="stroke:#181818;stroke-width:1.0;"/><polygon fill="#181818" points="673.78,708.46,677.7384,699.4416,673.7569,703.4601,669.7385,699.4786,673.78,708.46" style="stroke:#181818;stroke-width:1.0;"/></g><!--link NodoCancion to Cancion--><g id="link_NodoCancion_Cancion"><path codeLine="105" d="M242.17,1509.12 C236.34,1527 231.3999,1542.1455 224.5499,1563.1555 " fill="none" id="NodoCancion-to-Cancion" style="stroke:#181818;stroke-width:1.0;"/><polygon fill="#181818" points="222.69,1568.86,229.2828,1561.5432,224.2399,1564.1063,221.6768,1559.0634,222.69,1568.86" style="stroke:#181818;stroke-width:1.0;"/></g><!--link NodoPlaylist to Playlist--><g id="link_NodoPlaylist_Playlist"><path codeLine="106" d="M674.22,813.5 C674.34,839.54 674.454,865.8901 674.584,895.8401 " fill="none" id="NodoPlaylist-to-Playlist" style="stroke:#181818;stroke-width:1.0;"/><polygon fill="#181818" points="674.61,901.84,678.5709,892.8227,674.5883,896.84,670.571,892.8574,674.61,901.84" style="stroke:#181818;stroke-width:1.0;"/></g><!--link Playlist to ListaCanciones--><g id="link_Playlist_ListaCanciones"><path codeLine="107" d="M610.63,1083.04 C596.7,1102.42 585.381,1118.1573 571.191,1137.9073 " fill="none" id="Playlist-to-ListaCanciones" style="stroke:#181818;stroke-width:1.0;"/><polygon fill="#181818" points="567.69,1142.78,576.1899,1137.8049,570.6075,1138.7194,569.693,1133.137,567.69,1142.78" style="stroke:#181818;stroke-width:1.0;"/></g><!--SRC=[lLRDZjCm4BxtANnCbUqh89LAY0D2AyeDSPYcRXZ9iIFRMR6iU2YUWHV3IUnux3ZRFT5B8d_Z-Vk-cPGnnXe1nh1phopUdezzprvspFyEvmQav9gP-Hc1JsWid40sg2Gtx88NWSho1ZPDRl2aD5fbeiL92VZ2UwskGpDQiIOxYAQFAE2ZS-XSW60_mbiMxL70it0lXlNXBLfSb18S9ElKLHtTs-X1bM6N0xUOPk0hOStyF3Ps8F7h3b1MPwjHjj- -Cz2jsSUxA9qp4FWBzFkbKnKnwBWSQE4vLhxrnFM9PaCnxRsXFcCx89UMb-6ZGrmZTEuueyB3ltVJOzPCQ0aLpDG1Pj4EGgsEGTkH9jeOoww3XhJLWGelcMXV-uXL4kQ1fUuV67KRowfRRhzEDwgzlqBvqmsugZlrmKSb3QcltBnkW2QUCfz_HAsQmwLnarv-Th9RzxFEL1S1Qcy2mqMuodoKYCm7aJ1A0qqwLcNiXYIx3VLC69VZcEjoMg7RmMWVH4QOKiPgc0HQ5OUoK62wFZQgiwed7KokqFoXnxlfUvljx7FFIRRPvdmZ6QFeBNJmzqyyh5DNIHcjvYteLqKoyoMmGnajazdRhtaf1NEJDwPUZJcYlFAVUohuT4Bd4bpld761IR_O2qj7gkwY-UO7g0blX6Flh4eyv7cFPuMDyRyQk9P6_CnbqbYQytPjBBuAsbZQi_WDdrLYgowMkxy6YosXE9ojIYm6lSzzKkBBciOblNGFBl36dhnNfik1_3iw7Dvb0vgZ-VBByMIp55ql_LcvzWEpoxGzOdIWLWizDqWNOevcAWimvND7Ln5DBUduL6wubPoc1Vm3]--></g></svg>