<?xml version="1.0" encoding="us-ascii" standalone="no"?><svg xmlns="http://www.w3.org/2000/svg" xmlns:xlink="http://www.w3.org/1999/xlink" contentStyleType="text/css" height="1863px" preserveAspectRatio="none" style="width:736px;height:1863px;background:#FFFFFF;" version="1.1" viewBox="0 0 736 1863" width="736px" zoomAndPan="magnify"><defs/><g><text fill="#000000" font-family="sans-serif" font-size="14" font-weight="bold" lengthAdjust="spacing" textLength="388" x="167" y="24.9659">Equipo de Alarma y Evacuaci&#243;n - Despliegue por Plantas</text><!--cluster Planta 3--><g id="cluster_Planta 3"><path d="M375,46.6699 L432,46.6699 A3.75,3.75 0 0 1 434.5,49.1699 L441.5,71.7378 L707.5,71.7378 A2.5,2.5 0 0 1 710,74.2378 L710,166.1699 A2.5,2.5 0 0 1 707.5,168.6699 L375,168.6699 A2.5,2.5 0 0 1 372.5,166.1699 L372.5,49.1699 A2.5,2.5 0 0 1 375,46.6699 " fill="#E0FFFF" style="stroke:#000000;stroke-width:1.5;"/><line style="stroke:#000000;stroke-width:1.5;" x1="372.5" x2="441.5" y1="71.7378" y2="71.7378"/><text fill="#000000" font-family="sans-serif" font-size="14" font-weight="bold" lengthAdjust="spacing" textLength="56" x="376.5" y="63.6358">Planta 3</text></g><!--cluster Planta 2--><g id="cluster_Planta 2"><path d="M376,192.6699 L433,192.6699 A3.75,3.75 0 0 1 435.5,195.1699 L442.5,217.7378 L707.5,217.7378 A2.5,2.5 0 0 1 710,220.2378 L710,621.1699 A2.5,2.5 0 0 1 707.5,623.6699 L376,623.6699 A2.5,2.5 0 0 1 373.5,621.1699 L373.5,195.1699 A2.5,2.5 0 0 1 376,192.6699 " fill="#ADD8E6" style="stroke:#000000;stroke-width:1.5;"/><line style="stroke:#000000;stroke-width:1.5;" x1="373.5" x2="442.5" y1="217.7378" y2="217.7378"/><text fill="#000000" font-family="sans-serif" font-size="14" font-weight="bold" lengthAdjust="spacing" textLength="56" x="377.5" y="209.6358">Planta 2</text></g><!--cluster Planta 1--><g id="cluster_Planta 1"><path d="M390.5,647.6699 L447.5,647.6699 A3.75,3.75 0 0 1 450,650.1699 L457,672.7378 L724,672.7378 A2.5,2.5 0 0 1 726.5,675.2378 L726.5,852.1699 A2.5,2.5 0 0 1 724,854.6699 L390.5,854.6699 A2.5,2.5 0 0 1 388,852.1699 L388,650.1699 A2.5,2.5 0 0 1 390.5,647.6699 " fill="#90EE90" style="stroke:#000000;stroke-width:1.5;"/><line style="stroke:#000000;stroke-width:1.5;" x1="388" x2="457" y1="672.7378" y2="672.7378"/><text fill="#000000" font-family="sans-serif" font-size="14" font-weight="bold" lengthAdjust="spacing" textLength="56" x="392" y="664.6358">Planta 1</text></g><!--cluster Planta 0--><g id="cluster_Planta 0"><path d="M359.5,878.6699 L416.5,878.6699 A3.75,3.75 0 0 1 419,881.1699 L426,903.7378 L707.5,903.7378 A2.5,2.5 0 0 1 710,906.2378 L710,1186.1699 A2.5,2.5 0 0 1 707.5,1188.6699 L359.5,1188.6699 A2.5,2.5 0 0 1 357,1186.1699 L357,881.1699 A2.5,2.5 0 0 1 359.5,878.6699 " fill="#FFFFE0" style="stroke:#000000;stroke-width:1.5;"/><line style="stroke:#000000;stroke-width:1.5;" x1="357" x2="426" y1="903.7378" y2="903.7378"/><text fill="#000000" font-family="sans-serif" font-size="14" font-weight="bold" lengthAdjust="spacing" textLength="56" x="361" y="895.6358">Planta 0</text></g><!--cluster Planta -1--><g id="cluster_Planta -1"><path d="M390.5,1212.6699 L452.5,1212.6699 A3.75,3.75 0 0 1 455,1215.1699 L462,1237.7378 L519.5,1237.7378 A2.5,2.5 0 0 1 522,1240.2378 L522,1314.1699 A2.5,2.5 0 0 1 519.5,1316.6699 L390.5,1316.6699 A2.5,2.5 0 0 1 388,1314.1699 L388,1215.1699 A2.5,2.5 0 0 1 390.5,1212.6699 " fill="#FFA07A" style="stroke:#000000;stroke-width:1.5;"/><line style="stroke:#000000;stroke-width:1.5;" x1="388" x2="462" y1="1237.7378" y2="1237.7378"/><text fill="#000000" font-family="sans-serif" font-size="14" font-weight="bold" lengthAdjust="spacing" textLength="61" x="392" y="1229.6358">Planta -1</text></g><!--cluster Planta -2--><g id="cluster_Planta -2"><path d="M379.5,1340.6699 L441.5,1340.6699 A3.75,3.75 0 0 1 444,1343.1699 L451,1365.7378 L726.5,1365.7378 A2.5,2.5 0 0 1 729,1368.2378 L729,1854.1699 A2.5,2.5 0 0 1 726.5,1856.6699 L379.5,1856.6699 A2.5,2.5 0 0 1 377,1854.1699 L377,1343.1699 A2.5,2.5 0 0 1 379.5,1340.6699 " fill="#FFB6C1" style="stroke:#000000;stroke-width:1.5;"/><line style="stroke:#000000;stroke-width:1.5;" x1="377" x2="451" y1="1365.7378" y2="1365.7378"/><text fill="#000000" font-family="sans-serif" font-size="14" font-weight="bold" lengthAdjust="spacing" textLength="61" x="381" y="1357.6358">Planta -2</text></g><!--entity COM3--><g id="elem_COM3"><rect fill="#F1F1F1" height="68.1358" rx="2.5" ry="2.5" style="stroke:#181818;stroke-width:0.5;" width="133" x="388.5" y="84.6699"/><rect fill="#F1F1F1" height="10" style="stroke:#181818;stroke-width:0.5;" width="15" x="501.5" y="89.6699"/><rect fill="#F1F1F1" height="2" style="stroke:#181818;stroke-width:0.5;" width="4" x="499.5" y="91.6699"/><rect fill="#F1F1F1" height="2" style="stroke:#181818;stroke-width:0.5;" width="4" x="499.5" y="95.6699"/><text fill="#000000" font-family="sans-serif" font-size="14" lengthAdjust="spacing" textLength="79" x="403.5" y="119.6358">Personal de</text><text fill="#000000" font-family="sans-serif" font-size="14" lengthAdjust="spacing" textLength="93" x="403.5" y="138.7038">comunicaci&#243;n</text></g><g id="elem_GMN4"><path d="M617,104.6699 L617,114.6699 L521.55,118.6699 L617,122.6699 L617,132.3759 A0,0 0 0 0 617,132.3759 L694,132.3759 A0,0 0 0 0 694,132.3759 L694,114.6699 L684,104.6699 L617,104.6699 A0,0 0 0 0 617,104.6699 " fill="#FEFFDD" style="stroke:#181818;stroke-width:0.5;"/><path d="M684,104.6699 L684,114.6699 L694,114.6699 L684,104.6699 " fill="#FEFFDD" style="stroke:#181818;stroke-width:0.5;"/><text fill="#000000" font-family="sans-serif" font-size="13" lengthAdjust="spacing" textLength="56" x="623" y="123.5669">EXT: 5213</text></g><!--entity LDA--><g id="elem_LDA"><rect fill="#F1F1F1" height="68.1358" rx="2.5" ry="2.5" style="stroke:#181818;stroke-width:0.5;" width="116" x="397" y="230.6699"/><rect fill="#F1F1F1" height="10" style="stroke:#181818;stroke-width:0.5;" width="15" x="493" y="235.6699"/><rect fill="#F1F1F1" height="2" style="stroke:#181818;stroke-width:0.5;" width="4" x="491" y="237.6699"/><rect fill="#F1F1F1" height="2" style="stroke:#181818;stroke-width:0.5;" width="4" x="491" y="241.6699"/><text fill="#000000" font-family="sans-serif" font-size="14" lengthAdjust="spacing" textLength="76" x="412" y="265.6358">Leticia D&#237;az</text><text fill="#000000" font-family="sans-serif" font-size="14" lengthAdjust="spacing" textLength="49" x="412" y="284.7038">Arribas</text></g><!--entity SOC--><g id="elem_SOC"><rect fill="#F1F1F1" height="68.1358" rx="2.5" ry="2.5" style="stroke:#181818;stroke-width:0.5;" width="131" x="389.5" y="333.6699"/><rect fill="#F1F1F1" height="10" style="stroke:#181818;stroke-width:0.5;" width="15" x="500.5" y="338.6699"/><rect fill="#F1F1F1" height="2" style="stroke:#181818;stroke-width:0.5;" width="4" x="498.5" y="340.6699"/><rect fill="#F1F1F1" height="2" style="stroke:#181818;stroke-width:0.5;" width="4" x="498.5" y="344.6699"/><text fill="#000000" font-family="sans-serif" font-size="14" lengthAdjust="spacing" textLength="91" x="404.5" y="368.6358">Susana Otero</text><text fill="#000000" font-family="sans-serif" font-size="14" lengthAdjust="spacing" textLength="43" x="404.5" y="387.7038">Castro</text></g><!--entity AMP--><g id="elem_AMP"><rect fill="#F1F1F1" height="68.1358" rx="2.5" ry="2.5" style="stroke:#181818;stroke-width:0.5;" width="121" x="394.5" y="436.6699"/><rect fill="#F1F1F1" height="10" style="stroke:#181818;stroke-width:0.5;" width="15" x="495.5" y="441.6699"/><rect fill="#F1F1F1" height="2" style="stroke:#181818;stroke-width:0.5;" width="4" x="493.5" y="443.6699"/><rect fill="#F1F1F1" height="2" style="stroke:#181818;stroke-width:0.5;" width="4" x="493.5" y="447.6699"/><text fill="#000000" font-family="sans-serif" font-size="14" lengthAdjust="spacing" textLength="81" x="409.5" y="471.6358">Ana Medina</text><text fill="#000000" font-family="sans-serif" font-size="14" lengthAdjust="spacing" textLength="41" x="409.5" y="490.7038">Pinilla</text></g><!--entity LTC--><g id="elem_LTC"><rect fill="#F1F1F1" height="68.1358" rx="2.5" ry="2.5" style="stroke:#181818;stroke-width:0.5;" width="118" x="396" y="539.6699"/><rect fill="#F1F1F1" height="10" style="stroke:#181818;stroke-width:0.5;" width="15" x="494" y="544.6699"/><rect fill="#F1F1F1" height="2" style="stroke:#181818;stroke-width:0.5;" width="4" x="492" y="546.6699"/><rect fill="#F1F1F1" height="2" style="stroke:#181818;stroke-width:0.5;" width="4" x="492" y="550.6699"/><text fill="#000000" font-family="sans-serif" font-size="14" lengthAdjust="spacing" textLength="78" x="411" y="574.6358">Luc&#237;a Ter&#225;n</text><text fill="#000000" font-family="sans-serif" font-size="14" lengthAdjust="spacing" textLength="64" x="411" y="593.7038">Canduela</text></g><g id="elem_GMN12"><path d="M617,250.6699 L617,260.6699 L513.15,264.6699 L617,268.6699 L617,278.3759 A0,0 0 0 0 617,278.3759 L694,278.3759 A0,0 0 0 0 694,278.3759 L694,260.6699 L684,250.6699 L617,250.6699 A0,0 0 0 0 617,250.6699 " fill="#FEFFDD" style="stroke:#181818;stroke-width:0.5;"/><path d="M684,250.6699 L684,260.6699 L694,260.6699 L684,250.6699 " fill="#FEFFDD" style="stroke:#181818;stroke-width:0.5;"/><text fill="#000000" font-family="sans-serif" font-size="13" lengthAdjust="spacing" textLength="56" x="623" y="269.5669">EXT: 5042</text></g><g id="elem_GMN15"><path d="M617,353.6699 L617,363.6699 L520.72,367.6699 L617,371.6699 L617,381.3759 A0,0 0 0 0 617,381.3759 L694,381.3759 A0,0 0 0 0 694,381.3759 L694,363.6699 L684,353.6699 L617,353.6699 A0,0 0 0 0 617,353.6699 " fill="#FEFFDD" style="stroke:#181818;stroke-width:0.5;"/><path d="M684,353.6699 L684,363.6699 L694,363.6699 L684,353.6699 " fill="#FEFFDD" style="stroke:#181818;stroke-width:0.5;"/><text fill="#000000" font-family="sans-serif" font-size="13" lengthAdjust="spacing" textLength="56" x="623" y="372.5669">EXT: 5084</text></g><g id="elem_GMN18"><path d="M617,456.6699 L617,466.6699 L515.56,470.6699 L617,474.6699 L617,484.3759 A0,0 0 0 0 617,484.3759 L694,484.3759 A0,0 0 0 0 694,484.3759 L694,466.6699 L684,456.6699 L617,456.6699 A0,0 0 0 0 617,456.6699 " fill="#FEFFDD" style="stroke:#181818;stroke-width:0.5;"/><path d="M684,456.6699 L684,466.6699 L694,466.6699 L684,456.6699 " fill="#FEFFDD" style="stroke:#181818;stroke-width:0.5;"/><text fill="#000000" font-family="sans-serif" font-size="13" lengthAdjust="spacing" textLength="56" x="623" y="475.5669">EXT: 5079</text></g><g id="elem_GMN21"><path d="M617,559.6699 L617,569.6699 L514.22,573.6699 L617,577.6699 L617,587.3759 A0,0 0 0 0 617,587.3759 L694,587.3759 A0,0 0 0 0 694,587.3759 L694,569.6699 L684,559.6699 L617,559.6699 A0,0 0 0 0 617,559.6699 " fill="#FEFFDD" style="stroke:#181818;stroke-width:0.5;"/><path d="M684,559.6699 L684,569.6699 L694,569.6699 L684,559.6699 " fill="#FEFFDD" style="stroke:#181818;stroke-width:0.5;"/><text fill="#000000" font-family="sans-serif" font-size="13" lengthAdjust="spacing" textLength="56" x="623" y="578.5669">EXT: 5080</text></g><!--entity DOC1--><g id="elem_DOC1"><rect fill="#F1F1F1" height="49.0679" rx="2.5" ry="2.5" style="stroke:#181818;stroke-width:0.5;" width="102" x="404" y="686.1699"/><rect fill="#F1F1F1" height="10" style="stroke:#181818;stroke-width:0.5;" width="15" x="486" y="691.1699"/><rect fill="#F1F1F1" height="2" style="stroke:#181818;stroke-width:0.5;" width="4" x="484" y="693.1699"/><rect fill="#F1F1F1" height="2" style="stroke:#181818;stroke-width:0.5;" width="4" x="484" y="697.1699"/><text fill="#000000" font-family="sans-serif" font-size="14" lengthAdjust="spacing" textLength="62" x="419" y="721.1358">Docentes</text></g><!--entity RAD--><g id="elem_RAD"><rect fill="#F1F1F1" height="68.1358" rx="2.5" ry="2.5" style="stroke:#181818;stroke-width:0.5;" width="98" x="406" y="770.6699"/><rect fill="#F1F1F1" height="10" style="stroke:#181818;stroke-width:0.5;" width="15" x="484" y="775.6699"/><rect fill="#F1F1F1" height="2" style="stroke:#181818;stroke-width:0.5;" width="4" x="482" y="777.6699"/><rect fill="#F1F1F1" height="2" style="stroke:#181818;stroke-width:0.5;" width="4" x="482" y="781.6699"/><text fill="#000000" font-family="sans-serif" font-size="14" lengthAdjust="spacing" textLength="58" x="421" y="805.6358">Personal</text><text fill="#000000" font-family="sans-serif" font-size="14" lengthAdjust="spacing" textLength="35" x="421" y="824.7038">radio</text></g><g id="elem_GMN27"><path d="M600.5,790.6699 L600.5,800.6699 L504.05,804.6699 L600.5,808.6699 L600.5,818.3759 A0,0 0 0 0 600.5,818.3759 L710.5,818.3759 A0,0 0 0 0 710.5,818.3759 L710.5,800.6699 L700.5,790.6699 L600.5,790.6699 A0,0 0 0 0 600.5,790.6699 " fill="#FEFFDD" style="stroke:#181818;stroke-width:0.5;"/><path d="M700.5,790.6699 L700.5,800.6699 L710.5,800.6699 L700.5,790.6699 " fill="#FEFFDD" style="stroke:#181818;stroke-width:0.5;"/><text fill="#000000" font-family="sans-serif" font-size="13" lengthAdjust="spacing" textLength="89" x="606.5" y="809.5669">EXT: 5127/5128</text></g><!--entity RABG--><g id="elem_RABG"><rect fill="#F1F1F1" height="68.1358" rx="2.5" ry="2.5" style="stroke:#181818;stroke-width:0.5;" width="132" x="389" y="916.6699"/><rect fill="#F1F1F1" height="10" style="stroke:#181818;stroke-width:0.5;" width="15" x="501" y="921.6699"/><rect fill="#F1F1F1" height="2" style="stroke:#181818;stroke-width:0.5;" width="4" x="499" y="923.6699"/><rect fill="#F1F1F1" height="2" style="stroke:#181818;stroke-width:0.5;" width="4" x="499" y="927.6699"/><text fill="#000000" font-family="sans-serif" font-size="14" lengthAdjust="spacing" textLength="92" x="404" y="951.6358">Rosa Ana Briz</text><text fill="#000000" font-family="sans-serif" font-size="14" lengthAdjust="spacing" textLength="63" x="404" y="970.7038">Guti&#233;rrez</text></g><!--entity MTGS--><g id="elem_MTGS"><rect fill="#F1F1F1" height="68.1358" rx="2.5" ry="2.5" style="stroke:#181818;stroke-width:0.5;" width="164" x="373" y="1019.6699"/><rect fill="#F1F1F1" height="10" style="stroke:#181818;stroke-width:0.5;" width="15" x="517" y="1024.6699"/><rect fill="#F1F1F1" height="2" style="stroke:#181818;stroke-width:0.5;" width="4" x="515" y="1026.6699"/><rect fill="#F1F1F1" height="2" style="stroke:#181818;stroke-width:0.5;" width="4" x="515" y="1030.6699"/><text fill="#000000" font-family="sans-serif" font-size="14" lengthAdjust="spacing" textLength="88" x="388" y="1054.6358">Mar&#237;a Teresa</text><text fill="#000000" font-family="sans-serif" font-size="14" lengthAdjust="spacing" textLength="124" x="388" y="1073.7038">Gal&#225;n Sanchidri&#225;n</text></g><!--entity DOC0--><g id="elem_DOC0"><rect fill="#F1F1F1" height="49.0679" rx="2.5" ry="2.5" style="stroke:#181818;stroke-width:0.5;" width="102" x="404" y="1123.1699"/><rect fill="#F1F1F1" height="10" style="stroke:#181818;stroke-width:0.5;" width="15" x="486" y="1128.1699"/><rect fill="#F1F1F1" height="2" style="stroke:#181818;stroke-width:0.5;" width="4" x="484" y="1130.1699"/><rect fill="#F1F1F1" height="2" style="stroke:#181818;stroke-width:0.5;" width="4" x="484" y="1134.1699"/><text fill="#000000" font-family="sans-serif" font-size="14" lengthAdjust="spacing" textLength="62" x="419" y="1158.1358">Docentes</text></g><g id="elem_GMN34"><path d="M617,936.6699 L617,946.6699 L521.27,950.6699 L617,954.6699 L617,964.3759 A0,0 0 0 0 617,964.3759 L694,964.3759 A0,0 0 0 0 694,964.3759 L694,946.6699 L684,936.6699 L617,936.6699 A0,0 0 0 0 617,936.6699 " fill="#FEFFDD" style="stroke:#181818;stroke-width:0.5;"/><path d="M684,936.6699 L684,946.6699 L694,946.6699 L684,936.6699 " fill="#FEFFDD" style="stroke:#181818;stroke-width:0.5;"/><text fill="#000000" font-family="sans-serif" font-size="13" lengthAdjust="spacing" textLength="56" x="623" y="955.5669">EXT: 5038</text></g><g id="elem_GMN37"><path d="M617,1039.6699 L617,1049.6699 L537.02,1053.6699 L617,1057.6699 L617,1067.3759 A0,0 0 0 0 617,1067.3759 L694,1067.3759 A0,0 0 0 0 694,1067.3759 L694,1049.6699 L684,1039.6699 L617,1039.6699 A0,0 0 0 0 617,1039.6699 " fill="#FEFFDD" style="stroke:#181818;stroke-width:0.5;"/><path d="M684,1039.6699 L684,1049.6699 L694,1049.6699 L684,1039.6699 " fill="#FEFFDD" style="stroke:#181818;stroke-width:0.5;"/><text fill="#000000" font-family="sans-serif" font-size="13" lengthAdjust="spacing" textLength="56" x="623" y="1058.5669">EXT: 5069</text></g><!--entity DOCM1--><g id="elem_DOCM1"><rect fill="#F1F1F1" height="49.0679" rx="2.5" ry="2.5" style="stroke:#181818;stroke-width:0.5;" width="102" x="404" y="1251.1699"/><rect fill="#F1F1F1" height="10" style="stroke:#181818;stroke-width:0.5;" width="15" x="486" y="1256.1699"/><rect fill="#F1F1F1" height="2" style="stroke:#181818;stroke-width:0.5;" width="4" x="484" y="1258.1699"/><rect fill="#F1F1F1" height="2" style="stroke:#181818;stroke-width:0.5;" width="4" x="484" y="1262.1699"/><text fill="#000000" font-family="sans-serif" font-size="14" lengthAdjust="spacing" textLength="62" x="419" y="1286.1358">Docentes</text></g><!--entity CAF--><g id="elem_CAF"><rect fill="#F1F1F1" height="68.1358" rx="2.5" ry="2.5" style="stroke:#181818;stroke-width:0.5;" width="119" x="395.5" y="1378.6699"/><rect fill="#F1F1F1" height="10" style="stroke:#181818;stroke-width:0.5;" width="15" x="494.5" y="1383.6699"/><rect fill="#F1F1F1" height="2" style="stroke:#181818;stroke-width:0.5;" width="4" x="492.5" y="1385.6699"/><rect fill="#F1F1F1" height="2" style="stroke:#181818;stroke-width:0.5;" width="4" x="492.5" y="1389.6699"/><text fill="#000000" font-family="sans-serif" font-size="14" lengthAdjust="spacing" textLength="79" x="410.5" y="1413.6358">Personal de</text><text fill="#000000" font-family="sans-serif" font-size="14" lengthAdjust="spacing" textLength="59" x="410.5" y="1432.7038">cafeter&#237;a</text></g><!--entity BIB--><g id="elem_BIB"><rect fill="#F1F1F1" height="68.1358" rx="2.5" ry="2.5" style="stroke:#181818;stroke-width:0.5;" width="119" x="395.5" y="1481.6699"/><rect fill="#F1F1F1" height="10" style="stroke:#181818;stroke-width:0.5;" width="15" x="494.5" y="1486.6699"/><rect fill="#F1F1F1" height="2" style="stroke:#181818;stroke-width:0.5;" width="4" x="492.5" y="1488.6699"/><rect fill="#F1F1F1" height="2" style="stroke:#181818;stroke-width:0.5;" width="4" x="492.5" y="1492.6699"/><text fill="#000000" font-family="sans-serif" font-size="14" lengthAdjust="spacing" textLength="79" x="410.5" y="1516.6358">Personal de</text><text fill="#000000" font-family="sans-serif" font-size="14" lengthAdjust="spacing" textLength="66" x="410.5" y="1535.7038">Biblioteca</text></g><!--entity LAB--><g id="elem_LAB"><rect fill="#F1F1F1" height="68.1358" rx="2.5" ry="2.5" style="stroke:#181818;stroke-width:0.5;" width="124" x="393" y="1584.6699"/><rect fill="#F1F1F1" height="10" style="stroke:#181818;stroke-width:0.5;" width="15" x="497" y="1589.6699"/><rect fill="#F1F1F1" height="2" style="stroke:#181818;stroke-width:0.5;" width="4" x="495" y="1591.6699"/><rect fill="#F1F1F1" height="2" style="stroke:#181818;stroke-width:0.5;" width="4" x="495" y="1595.6699"/><text fill="#000000" font-family="sans-serif" font-size="14" lengthAdjust="spacing" textLength="79" x="408" y="1619.6358">Personal de</text><text fill="#000000" font-family="sans-serif" font-size="14" lengthAdjust="spacing" textLength="84" x="408" y="1638.7038">Laboratorios</text></g><!--entity TV--><g id="elem_TV"><rect fill="#F1F1F1" height="68.1358" rx="2.5" ry="2.5" style="stroke:#181818;stroke-width:0.5;" width="98" x="406" y="1687.6699"/><rect fill="#F1F1F1" height="10" style="stroke:#181818;stroke-width:0.5;" width="15" x="484" y="1692.6699"/><rect fill="#F1F1F1" height="2" style="stroke:#181818;stroke-width:0.5;" width="4" x="482" y="1694.6699"/><rect fill="#F1F1F1" height="2" style="stroke:#181818;stroke-width:0.5;" width="4" x="482" y="1698.6699"/><text fill="#000000" font-family="sans-serif" font-size="14" lengthAdjust="spacing" textLength="58" x="421" y="1722.6358">Personal</text><text fill="#000000" font-family="sans-serif" font-size="14" lengthAdjust="spacing" textLength="53" x="421" y="1741.7038">Plat&#243; TV</text></g><!--entity DOCM2--><g id="elem_DOCM2"><rect fill="#F1F1F1" height="49.0679" rx="2.5" ry="2.5" style="stroke:#181818;stroke-width:0.5;" width="102" x="404" y="1791.1699"/><rect fill="#F1F1F1" height="10" style="stroke:#181818;stroke-width:0.5;" width="15" x="486" y="1796.1699"/><rect fill="#F1F1F1" height="2" style="stroke:#181818;stroke-width:0.5;" width="4" x="484" y="1798.1699"/><rect fill="#F1F1F1" height="2" style="stroke:#181818;stroke-width:0.5;" width="4" x="484" y="1802.1699"/><text fill="#000000" font-family="sans-serif" font-size="14" lengthAdjust="spacing" textLength="62" x="419" y="1826.1358">Docentes</text></g><g id="elem_GMN48"><path d="M617,1398.6699 L617,1408.6699 L514.75,1412.6699 L617,1416.6699 L617,1426.3759 A0,0 0 0 0 617,1426.3759 L694,1426.3759 A0,0 0 0 0 694,1426.3759 L694,1408.6699 L684,1398.6699 L617,1398.6699 A0,0 0 0 0 617,1398.6699 " fill="#FEFFDD" style="stroke:#181818;stroke-width:0.5;"/><path d="M684,1398.6699 L684,1408.6699 L694,1408.6699 L684,1398.6699 " fill="#FEFFDD" style="stroke:#181818;stroke-width:0.5;"/><text fill="#000000" font-family="sans-serif" font-size="13" lengthAdjust="spacing" textLength="56" x="623" y="1417.5669">EXT: 5092</text></g><g id="elem_GMN51"><path d="M617,1501.6699 L617,1511.6699 L514.75,1515.6699 L617,1519.6699 L617,1529.3759 A0,0 0 0 0 617,1529.3759 L694,1529.3759 A0,0 0 0 0 694,1529.3759 L694,1511.6699 L684,1501.6699 L617,1501.6699 A0,0 0 0 0 617,1501.6699 " fill="#FEFFDD" style="stroke:#181818;stroke-width:0.5;"/><path d="M684,1501.6699 L684,1511.6699 L694,1511.6699 L684,1501.6699 " fill="#FEFFDD" style="stroke:#181818;stroke-width:0.5;"/><text fill="#000000" font-family="sans-serif" font-size="13" lengthAdjust="spacing" textLength="56" x="623" y="1520.5669">EXT: 5020</text></g><g id="elem_GMN54"><path d="M598,1596.1699 L598,1614.6699 L517.18,1618.6699 L598,1622.6699 L598,1641.5819 A0,0 0 0 0 598,1641.5819 L713,1641.5819 A0,0 0 0 0 713,1641.5819 L713,1606.1699 L703,1596.1699 L598,1596.1699 A0,0 0 0 0 598,1596.1699 " fill="#FEFFDD" style="stroke:#181818;stroke-width:0.5;"/><path d="M703,1596.1699 L703,1606.1699 L713,1606.1699 L703,1596.1699 " fill="#FEFFDD" style="stroke:#181818;stroke-width:0.5;"/><text fill="#000000" font-family="sans-serif" font-size="13" lengthAdjust="spacing" textLength="89" x="604" y="1615.0669">EXT: 5033/5321</text><text fill="#000000" font-family="sans-serif" font-size="13" lengthAdjust="spacing" textLength="94" x="604" y="1632.7729">5093/5073/5074</text></g><g id="elem_GMN57"><path d="M617,1707.6699 L617,1717.6699 L504.05,1721.6699 L617,1725.6699 L617,1735.3759 A0,0 0 0 0 617,1735.3759 L694,1735.3759 A0,0 0 0 0 694,1735.3759 L694,1717.6699 L684,1707.6699 L617,1707.6699 A0,0 0 0 0 617,1707.6699 " fill="#FEFFDD" style="stroke:#181818;stroke-width:0.5;"/><path d="M684,1707.6699 L684,1717.6699 L694,1717.6699 L684,1707.6699 " fill="#FEFFDD" style="stroke:#181818;stroke-width:0.5;"/><text fill="#000000" font-family="sans-serif" font-size="13" lengthAdjust="spacing" textLength="56" x="623" y="1726.5669">EXT: 5077</text></g><!--entity CCI--><g id="elem_CCI"><path d="M43.858,967.7894 C47.3345,962.2743 52.7743,962.5251 56.1829,967.8666 C58.7409,961.9718 63.8525,961.3296 68.2021,965.7864 C71.2716,960.2912 75.2429,958.5878 79.911,964.0834 C83.8177,958.6492 87.8083,957.756 91.6007,964.196 C94.3804,956.844 99.1586,957.0787 104.2127,961.8252 C108.1184,956.8804 112.832,956.5269 115.8031,962.7916 C121.0652,957.9962 125.4504,958.5619 128.6464,965.1273 C132.9902,960.3568 137.1126,959.8455 140.6818,965.9821 C145.777,959.7019 149.7343,961.5393 153.648,967.2588 C157.2332,963.0683 161.5483,961.956 164.4672,967.9656 C171.446,971.2191 172.7275,975.149 167.1163,980.9677 C174.2755,983.4491 174.2842,987.4369 169.6866,992.5316 C175.3225,994.5509 177.2047,999.0284 171.9117,1003.3049 C177.8948,1008.2326 174.9819,1014.2243 168.7044,1016.0719 C174.3128,1021.366 172.7718,1025.2412 166.5007,1028.4142 C171.9158,1033.7555 170.8653,1037.6243 163.8247,1040.1176 C160.5507,1044.5908 156.2175,1045.2786 153.3013,1039.7415 C150.6332,1045.7944 145.3063,1047.0449 141.4445,1040.9021 C138.1326,1046.7199 132.5118,1047.4718 128.6412,1041.5093 C125.6958,1047.3313 120.3656,1047.2247 116.9385,1042.0206 C113.1522,1049.5328 107.9041,1048.1635 103.5011,1042.6572 C101.1535,1047.1402 96.335,1047.9893 93.4778,1043.2086 C89.5199,1050.0023 83.4835,1047.7893 80.5905,1042.1083 C76.7433,1046.4771 72.5562,1047.734 69.2541,1041.5241 C65.5601,1046.382 60.5528,1047.7192 57.1831,1041.1805 C53.5598,1046.6964 47.7686,1045.6068 44.8888,1040.3333 C36.6627,1037.6115 36.2768,1032.3752 41.8381,1026.5923 C36.2548,1024.7462 36.4195,1019.9485 40.4397,1016.7394 C33.5397,1014.7755 32.6637,1008.9081 38.4998,1004.8638 C32.2232,1000.1969 34.1997,993.5806 40.9182,991.2166 C35.823,987.3413 36.7959,983.2945 42.4109,980.9812 C37.6187,975.7947 36.9816,971.696 43.858,967.7894 " fill="#F1F1F1" style="stroke:#181818;stroke-width:0.5;"/><text fill="#000000" font-family="sans-serif" font-size="14" lengthAdjust="spacing" textLength="23" x="50.5" y="989.1358">CCI</text><text fill="#000000" font-family="sans-serif" font-size="14" lengthAdjust="spacing" textLength="106" x="50.5" y="1008.2038">(Central Control</text><text fill="#000000" font-family="sans-serif" font-size="14" lengthAdjust="spacing" textLength="70" x="50.5" y="1027.2717">Incendios)</text></g><g id="elem_GMN77"><path d="M6,1081.1699 L6,1144.2879 A0,0 0 0 0 6,1144.2879 L201,1144.2879 A0,0 0 0 0 201,1144.2879 L201,1091.1699 L191,1081.1699 L107.5,1081.1699 L103.5,1046.3499 L99.5,1081.1699 L6,1081.1699 A0,0 0 0 0 6,1081.1699 " fill="#FEFFDD" style="stroke:#181818;stroke-width:0.5;"/><path d="M191,1081.1699 L191,1091.1699 L201,1091.1699 L191,1081.1699 " fill="#FEFFDD" style="stroke:#181818;stroke-width:0.5;"/><text fill="#000000" font-family="sans-serif" font-size="13" lengthAdjust="spacing" textLength="145" x="12" y="1100.0669">Se&#241;al ac&#250;stica de alarma</text><text fill="#000000" font-family="sans-serif" font-size="13" lengthAdjust="spacing" textLength="174" x="12" y="1117.7729">activa evacuaci&#243;n simult&#225;nea</text><text fill="#000000" font-family="sans-serif" font-size="13" lengthAdjust="spacing" textLength="118" x="12" y="1135.4789">en todas las plantas</text></g><!--link CCI to COM3--><g id="link_CCI_COM3"><path d="M107.75,958.7599 C118.71,819.6799 157.8,391.1899 231,275.6699 C268.51,216.4799 331.8258,175.9578 383.0958,150.0278 " fill="none" id="CCI-to-COM3" style="stroke:#181818;stroke-width:1.0;stroke-dasharray:7.0,7.0;"/><polygon fill="#181818" points="388.45,147.3199,378.6135,147.8123,383.9882,149.5765,382.224,154.9512,388.45,147.3199" style="stroke:#181818;stroke-width:1.0;"/><text fill="#000000" font-family="sans-serif" font-size="13" lengthAdjust="spacing" textLength="108" x="232" y="172.5669">Orden evacuaci&#243;n</text></g><!--link CCI to LDA--><g id="link_CCI_LDA"><path d="M108.76,958.9399 C121.67,833.7699 163.63,477.0799 231,383.6699 C271.04,328.1499 339.3756,297.9289 391.1156,281.3689 " fill="none" id="CCI-to-LDA" style="stroke:#181818;stroke-width:1.0;stroke-dasharray:7.0,7.0;"/><polygon fill="#181818" points="396.83,279.5399,387.039,278.4737,392.068,281.064,389.4777,286.093,396.83,279.5399" style="stroke:#181818;stroke-width:1.0;"/><text fill="#000000" font-family="sans-serif" font-size="13" lengthAdjust="spacing" textLength="108" x="232" y="298.5669">Orden evacuaci&#243;n</text></g><!--link CCI to SOC--><g id="link_CCI_SOC"><path d="M105,958.9199 C108.13,865.2699 126.84,642.0099 231,495.6699 C269.44,441.6599 332.7103,409.3687 383.7803,389.9887 " fill="none" id="CCI-to-SOC" style="stroke:#181818;stroke-width:1.0;stroke-dasharray:7.0,7.0;"/><polygon fill="#181818" points="389.39,387.8599,379.5563,387.3132,384.7153,389.6339,382.3947,394.7928,389.39,387.8599" style="stroke:#181818;stroke-width:1.0;"/><text fill="#000000" font-family="sans-serif" font-size="13" lengthAdjust="spacing" textLength="108" x="232" y="406.5669">Orden evacuaci&#243;n</text></g><!--link CCI to AMP--><g id="link_CCI_AMP"><path d="M110.17,958.9599 C121.8,882.7999 154.05,723.4199 231,613.6699 C271.4,556.0499 337.6755,518.6632 388.8855,495.9432 " fill="none" id="CCI-to-AMP" style="stroke:#181818;stroke-width:1.0;stroke-dasharray:7.0,7.0;"/><polygon fill="#181818" points="394.37,493.5099,384.5211,493.5035,389.7996,495.5376,387.7655,500.8161,394.37,493.5099" style="stroke:#181818;stroke-width:1.0;"/><text fill="#000000" font-family="sans-serif" font-size="13" lengthAdjust="spacing" textLength="108" x="232" y="518.5669">Orden evacuaci&#243;n</text></g><!--link CCI to LTC--><g id="link_CCI_LTC"><path d="M117.15,958.9099 C135.26,901.8699 172.94,801.2299 231,731.6699 C277.06,676.4799 341.4826,634.2252 390.6626,606.5152 " fill="none" id="CCI-to-LTC" style="stroke:#181818;stroke-width:1.0;stroke-dasharray:7.0,7.0;"/><polygon fill="#181818" points="395.89,603.5699,386.0854,604.5029,391.5339,606.0243,390.0125,611.4728,395.89,603.5699" style="stroke:#181818;stroke-width:1.0;"/><text fill="#000000" font-family="sans-serif" font-size="13" lengthAdjust="spacing" textLength="108" x="232" y="636.5669">Orden evacuaci&#243;n</text></g><!--link CCI to DOC1--><g id="link_CCI_DOC1"><path d="M134.32,959.1599 C158.41,925.5299 194.25,878.7799 231,842.6699 C278.04,796.4399 291.63,785.2199 349,752.6699 C366.16,742.9299 380.4257,736.5128 398.2357,729.7028 " fill="none" id="CCI-to-DOC1" style="stroke:#181818;stroke-width:1.0;stroke-dasharray:7.0,7.0;"/><polygon fill="#181818" points="403.84,727.5599,394.005,727.0381,399.1698,729.3457,396.8622,734.5104,403.84,727.5599" style="stroke:#181818;stroke-width:1.0;"/><text fill="#000000" font-family="sans-serif" font-size="13" lengthAdjust="spacing" textLength="108" x="232" y="754.5669">Orden evacuaci&#243;n</text></g><!--link CCI to RAD--><g id="link_CCI_RAD"><path d="M171.89,964.4899 C240.52,925.6099 340.0093,869.247 400.6893,834.877 " fill="none" id="CCI-to-RAD" style="stroke:#181818;stroke-width:1.0;stroke-dasharray:7.0,7.0;"/><polygon fill="#181818" points="405.91,831.9199,396.1076,832.875,401.5594,834.3841,400.0503,839.836,405.91,831.9199" style="stroke:#181818;stroke-width:1.0;"/><text fill="#000000" font-family="sans-serif" font-size="13" lengthAdjust="spacing" textLength="108" x="232" y="865.5669">Orden evacuaci&#243;n</text></g><!--link CCI to RABG--><g id="link_CCI_RABG"><path d="M171.89,992.6399 C234.47,983.3299 321.1153,970.4428 382.9553,961.2428 " fill="none" id="CCI-to-RABG" style="stroke:#181818;stroke-width:1.0;stroke-dasharray:7.0,7.0;"/><polygon fill="#181818" points="388.89,960.3599,379.3994,957.7278,383.9444,961.0957,380.5766,965.6407,388.89,960.3599" style="stroke:#181818;stroke-width:1.0;"/><text fill="#000000" font-family="sans-serif" font-size="13" lengthAdjust="spacing" textLength="108" x="232" y="963.5669">Orden evacuaci&#243;n</text></g><!--link CCI to MTGS--><g id="link_CCI_MTGS"><path d="M171.73,1014.2299 C190.86,1017.4099 211.74,1020.7799 231,1023.6699 C277.94,1030.7199 324.6006,1037.0627 366.9306,1042.5927 " fill="none" id="CCI-to-MTGS" style="stroke:#181818;stroke-width:1.0;stroke-dasharray:7.0,7.0;"/><polygon fill="#181818" points="372.88,1043.3699,364.474,1038.2377,367.9221,1042.7222,363.4377,1046.1703,372.88,1043.3699" style="stroke:#181818;stroke-width:1.0;"/><text fill="#000000" font-family="sans-serif" font-size="13" lengthAdjust="spacing" textLength="108" x="232" y="1019.5669">Orden evacuaci&#243;n</text></g><!--link CCI to DOC0--><g id="link_CCI_DOC0"><path d="M171.74,1038.5699 C190.68,1048.1699 211.46,1058.2199 231,1066.6699 C289.22,1091.8599 352.4004,1114.1551 398.0404,1129.4351 " fill="none" id="CCI-to-DOC0" style="stroke:#181818;stroke-width:1.0;stroke-dasharray:7.0,7.0;"/><polygon fill="#181818" points="403.73,1131.3399,396.4655,1124.6896,398.9887,1129.7525,393.9257,1132.2757,403.73,1131.3399" style="stroke:#181818;stroke-width:1.0;"/><text fill="#000000" font-family="sans-serif" font-size="13" lengthAdjust="spacing" textLength="108" x="232" y="1062.5669">Orden evacuaci&#243;n</text></g><!--link CCI to DOCM1--><g id="link_CCI_DOCM1"><path d="M171.66,1037.3899 C182.42,1045.0199 192.72,1053.7999 201,1063.6699 C223.56,1090.5299 208.36,1109.8799 231,1136.6699 C278.26,1192.5899 348.4464,1230.5724 398.3164,1252.9624 " fill="none" id="CCI-to-DOCM1" style="stroke:#181818;stroke-width:1.0;stroke-dasharray:7.0,7.0;"/><polygon fill="#181818" points="403.79,1255.4199,397.2179,1248.0846,399.2286,1253.372,393.9412,1255.3828,403.79,1255.4199" style="stroke:#181818;stroke-width:1.0;"/><text fill="#000000" font-family="sans-serif" font-size="13" lengthAdjust="spacing" textLength="108" x="232" y="1132.5669">Orden evacuaci&#243;n</text></g><!--link CCI to CAF--><g id="link_CCI_CAF"><path d="M171.68,1034.4999 C182.97,1042.5699 193.46,1052.2599 201,1063.6699 C246.92,1133.1599 187.55,1177.5999 231,1248.6699 C269.85,1312.2199 338.084,1356.177 390.074,1383.147 " fill="none" id="CCI-to-CAF" style="stroke:#181818;stroke-width:1.0;stroke-dasharray:7.0,7.0;"/><polygon fill="#181818" points="395.4,1385.9099,389.2529,1378.2149,390.9617,1383.6075,385.5691,1385.3162,395.4,1385.9099" style="stroke:#181818;stroke-width:1.0;"/><text fill="#000000" font-family="sans-serif" font-size="13" lengthAdjust="spacing" textLength="108" x="232" y="1244.5669">Orden evacuaci&#243;n</text></g><!--link CCI to BIB--><g id="link_CCI_BIB"><path d="M171.8,1033.7599 C183.23,1041.9299 193.74,1051.8499 201,1063.6699 C274.84,1183.8799 160.49,1257.4799 231,1379.6699 C266.53,1441.2399 336.5274,1476.3325 389.8174,1495.8925 " fill="none" id="CCI-to-BIB" style="stroke:#181818;stroke-width:1.0;stroke-dasharray:7.0,7.0;"/><polygon fill="#181818" points="395.45,1497.9599,388.3794,1491.1037,390.7562,1496.237,385.6229,1498.6138,395.45,1497.9599" style="stroke:#181818;stroke-width:1.0;"/><text fill="#000000" font-family="sans-serif" font-size="13" lengthAdjust="spacing" textLength="108" x="232" y="1375.5669">Orden evacuaci&#243;n</text></g><!--link CCI to LAB--><g id="link_CCI_LAB"><path d="M171.56,1033.2599 C183.16,1041.5099 193.79,1051.5799 201,1063.6699 C250.97,1147.4599 178.53,1419.4199 231,1501.6699 C267.15,1558.3399 334.5661,1587.439 387.2361,1603.009 " fill="none" id="CCI-to-LAB" style="stroke:#181818;stroke-width:1.0;stroke-dasharray:7.0,7.0;"/><polygon fill="#181818" points="392.99,1604.7099,385.4932,1598.3226,388.1951,1603.2925,383.2253,1605.9944,392.99,1604.7099" style="stroke:#181818;stroke-width:1.0;"/><text fill="#000000" font-family="sans-serif" font-size="13" lengthAdjust="spacing" textLength="108" x="232" y="1497.5669">Orden evacuaci&#243;n</text></g><!--link CCI to TV--><g id="link_CCI_TV"><path d="M171.69,1033.1799 C183.28,1041.4399 193.87,1051.5399 201,1063.6699 C262.64,1168.6499 164.19,1508.9099 231,1610.6699 C270.52,1670.8599 347.1293,1698.2947 399.9493,1711.1147 " fill="none" id="CCI-to-TV" style="stroke:#181818;stroke-width:1.0;stroke-dasharray:7.0,7.0;"/><polygon fill="#181818" points="405.78,1712.5299,397.9774,1706.52,400.9211,1711.3506,396.0905,1714.2943,405.78,1712.5299" style="stroke:#181818;stroke-width:1.0;"/><text fill="#000000" font-family="sans-serif" font-size="13" lengthAdjust="spacing" textLength="108" x="232" y="1606.5669">Orden evacuaci&#243;n</text></g><!--link CCI to DOCM2--><g id="link_CCI_DOCM2"><path d="M171.77,1033.1299 C183.36,1041.3899 193.93,1051.4999 201,1063.6699 C274.1,1189.4599 150.03,1596.7999 231,1717.6699 C269.72,1775.4699 344.8493,1798.3631 397.8393,1808.1231 " fill="none" id="CCI-to-DOCM2" style="stroke:#181818;stroke-width:1.0;stroke-dasharray:7.0,7.0;"/><polygon fill="#181818" points="403.74,1809.2099,395.6134,1803.6458,398.8227,1808.3042,394.1643,1811.5135,403.74,1809.2099" style="stroke:#181818;stroke-width:1.0;"/><text fill="#000000" font-family="sans-serif" font-size="13" lengthAdjust="spacing" textLength="108" x="232" y="1713.5669">Orden evacuaci&#243;n</text></g><!--SRC=[XLQnRjim4Dtr5GTtQOSaifpMIOO2afmQ1cpOY8MWHTtXB3494PfqAIf5KlHZEdReK6JhwX_hYRALs76fGH98FlBUtRqxqN0Z69n_BVXIGSOW5AWN2FTmVeTfWIbVFKeuW1xBbuApwuB1KccO29G6SyyJxCg0KQ3vzOs1Z6kM6gwavoqnlSLh1gqA2fqMl1gMeFWU9Npt05ArM2h9f87F4wPp9L4GWPca-KBoj3Bz1J27U3pgq0Qf35iRKbURIO3pZyaPl0tQvOZ9pCAy7oyP11i6aI0lTXWCcU4fH-YjVkF3J8PQypdcrlgm5svZfqME4c5ic5Op6MDkjBB8wJZUHeO46x6CIvp92PTS2BJ0S3JPCL-aP1WIfbS_PNccp0gs1W-JyjGN_bUqDkxxny5pztV15RCQV7Bi0bViQd3tr0Mks3sTx3TaeRt9Gbypza88FPNIbrM1xutZzdwTpAJ6Z5T1lmXx-y9JJMzujOFk4RrE6iZv6tAVc13gsowx2vKZb3cDD2UHz0l3Lx-qPWzh8b5_6pz2lSugoqa1VHIKNPYYJ6zufZaDxCPHqf-wm-3lzz3QgqFVEN7bQMsaHhyxROZ5GPsfAOg5QapLgBttbBhgIF-txhh7AqObHH6hYZxyu017V2uuCKyhS3I87E0XpfL6epHNwv8Ee_y9YtYRrICabnQON3Ou7UpBJ4Mz3lMfipGhwZKuy9tL5cw1EvsZjvsWRQV83etyhdqvwziwzLJUtHqXf48L6RJYU32JhsDoLrCOOqLVHV4PI8e0rLx-fcMp50yyZrvmUFZUjcGuWx7EgBBPq_-Z1b3FSgvJctAkKsTodv-uzvSTnGcWhj6m7lMTWBBCcYZuJO2HcoJ9oxbEYd97ANIl9vUD18Ez2C_gRAwCKGjR1oGEW2bR_I45ORhwczDF5ijR1jfR1YqYNHVkyFafaFD58GmrHuPMcNIzo4XfWfxb-jfHo_KV]--></g></svg>