<?xml version="1.0" encoding="us-ascii" standalone="no"?><svg xmlns="http://www.w3.org/2000/svg" xmlns:xlink="http://www.w3.org/1999/xlink" contentStyleType="text/css" height="1855px" preserveAspectRatio="none" style="width:788px;height:1855px;background:#FFFFFF;" version="1.1" viewBox="0 0 788 1855" width="788px" zoomAndPan="magnify"><defs/><g><text fill="#000000" font-family="sans-serif" font-size="14" font-weight="bold" lengthAdjust="spacing" textLength="331" x="224.5" y="29.9659">Secuencia de Evacuaci&#243;n - Interacci&#243;n Temporal</text><rect fill="#FFFFFF" height="1494.5948" style="stroke:#181818;stroke-width:1.0;" width="10" x="158" y="240.3218"/><rect fill="#FFFFFF" height="905.3275" style="stroke:#181818;stroke-width:1.0;" width="10" x="271" y="347.2929"/><rect fill="#FFFFFF" height="1280.6527" style="stroke:#181818;stroke-width:1.0;" width="10" x="455" y="454.2639"/><rect fill="#FFFFFF" height="482.2963" style="stroke:#181818;stroke-width:1.0;" width="10" x="622" y="1252.6203"/><rect fill="none" height="171.5301" style="stroke:#000000;stroke-width:1.5;" width="303" x="225" y="816.4421"/><line style="stroke:#181818;stroke-width:0.5;stroke-dasharray:5.0,5.0;" x1="48" x2="48" y1="143.2038" y2="1752.9166"/><line style="stroke:#181818;stroke-width:0.5;stroke-dasharray:5.0,5.0;" x1="163" x2="163" y1="143.2038" y2="1752.9166"/><line style="stroke:#181818;stroke-width:0.5;stroke-dasharray:5.0,5.0;" x1="276" x2="276" y1="143.2038" y2="1752.9166"/><line style="stroke:#181818;stroke-width:0.5;stroke-dasharray:5.0,5.0;" x1="460" x2="460" y1="143.2038" y2="1752.9166"/><line style="stroke:#181818;stroke-width:0.5;stroke-dasharray:5.0,5.0;" x1="626.5" x2="626.5" y1="143.2038" y2="1752.9166"/><text fill="#000000" font-family="sans-serif" font-size="14" lengthAdjust="spacing" textLength="46" x="22" y="120.0339">Jefe de</text><text fill="#000000" font-family="sans-serif" font-size="14" lengthAdjust="spacing" textLength="80" x="5" y="139.1018">Emergencia</text><ellipse cx="48" cy="53.5679" fill="#E2E2F0" rx="8" ry="8" style="stroke:#181818;stroke-width:0.5;"/><path d="M48,61.5679 L48,88.5679 M35,69.5679 L61,69.5679 M48,88.5679 L35,103.5679 M48,88.5679 L61,103.5679 " fill="none" style="stroke:#181818;stroke-width:0.5;"/><text fill="#000000" font-family="sans-serif" font-size="14" lengthAdjust="spacing" textLength="46" x="22" y="1766.8825">Jefe de</text><text fill="#000000" font-family="sans-serif" font-size="14" lengthAdjust="spacing" textLength="80" x="5" y="1785.9505">Emergencia</text><ellipse cx="48" cy="1798.5524" fill="#E2E2F0" rx="8" ry="8" style="stroke:#181818;stroke-width:0.5;"/><path d="M48,1806.5524 L48,1833.5524 M35,1814.5524 L61,1814.5524 M48,1833.5524 L35,1848.5524 M48,1833.5524 L61,1848.5524 " fill="none" style="stroke:#181818;stroke-width:0.5;"/><rect fill="#E2E2F0" height="52.1358" rx="2.5" ry="2.5" style="stroke:#181818;stroke-width:0.5;" width="124" x="101" y="90.0679"/><text fill="#000000" font-family="sans-serif" font-size="14" lengthAdjust="spacing" textLength="23" x="151.5" y="112.0339">CCI</text><text fill="#000000" font-family="sans-serif" font-size="14" lengthAdjust="spacing" textLength="110" x="108" y="131.1018">(Central Control)</text><rect fill="#E2E2F0" height="52.1358" rx="2.5" ry="2.5" style="stroke:#181818;stroke-width:0.5;" width="124" x="101" y="1751.9166"/><text fill="#000000" font-family="sans-serif" font-size="14" lengthAdjust="spacing" textLength="23" x="151.5" y="1773.8825">CCI</text><text fill="#000000" font-family="sans-serif" font-size="14" lengthAdjust="spacing" textLength="110" x="108" y="1792.9505">(Central Control)</text><rect fill="#E2E2F0" height="52.1358" rx="2.5" ry="2.5" style="stroke:#181818;stroke-width:0.5;" width="82" x="235" y="90.0679"/><text fill="#000000" font-family="sans-serif" font-size="14" lengthAdjust="spacing" textLength="68" x="242" y="112.0339">Equipo de</text><text fill="#000000" font-family="sans-serif" font-size="14" lengthAdjust="spacing" textLength="48" x="252" y="131.1018">Alarma</text><rect fill="#E2E2F0" height="52.1358" rx="2.5" ry="2.5" style="stroke:#181818;stroke-width:0.5;" width="82" x="235" y="1751.9166"/><text fill="#000000" font-family="sans-serif" font-size="14" lengthAdjust="spacing" textLength="68" x="242" y="1773.8825">Equipo de</text><text fill="#000000" font-family="sans-serif" font-size="14" lengthAdjust="spacing" textLength="48" x="252" y="1792.9505">Alarma</text><rect fill="#E2E2F0" height="52.1358" rx="2.5" ry="2.5" style="stroke:#181818;stroke-width:0.5;" width="144" x="388" y="90.0679"/><text fill="#000000" font-family="sans-serif" font-size="14" lengthAdjust="spacing" textLength="71" x="424.5" y="112.0339">Evacuados</text><text fill="#000000" font-family="sans-serif" font-size="14" lengthAdjust="spacing" textLength="130" x="395" y="131.1018">(Alumnos/Personal)</text><rect fill="#E2E2F0" height="52.1358" rx="2.5" ry="2.5" style="stroke:#181818;stroke-width:0.5;" width="144" x="388" y="1751.9166"/><text fill="#000000" font-family="sans-serif" font-size="14" lengthAdjust="spacing" textLength="71" x="424.5" y="1773.8825">Evacuados</text><text fill="#000000" font-family="sans-serif" font-size="14" lengthAdjust="spacing" textLength="130" x="395" y="1792.9505">(Alumnos/Personal)</text><rect fill="#E2E2F0" height="52.1358" rx="2.5" ry="2.5" style="stroke:#181818;stroke-width:0.5;" width="83" x="585.5" y="90.0679"/><text fill="#000000" font-family="sans-serif" font-size="14" lengthAdjust="spacing" textLength="60" x="597" y="112.0339">Punto de</text><text fill="#000000" font-family="sans-serif" font-size="14" lengthAdjust="spacing" textLength="69" x="592.5" y="131.1018">Encuentro</text><rect fill="#E2E2F0" height="52.1358" rx="2.5" ry="2.5" style="stroke:#181818;stroke-width:0.5;" width="83" x="585.5" y="1751.9166"/><text fill="#000000" font-family="sans-serif" font-size="14" lengthAdjust="spacing" textLength="60" x="597" y="1773.8825">Punto de</text><text fill="#000000" font-family="sans-serif" font-size="14" lengthAdjust="spacing" textLength="69" x="592.5" y="1792.9505">Encuentro</text><rect fill="#FFFFFF" height="1494.5948" style="stroke:#181818;stroke-width:1.0;" width="10" x="158" y="240.3218"/><rect fill="#FFFFFF" height="905.3275" style="stroke:#181818;stroke-width:1.0;" width="10" x="271" y="347.2929"/><rect fill="#FFFFFF" height="1280.6527" style="stroke:#181818;stroke-width:1.0;" width="10" x="455" y="454.2639"/><rect fill="#FFFFFF" height="482.2963" style="stroke:#181818;stroke-width:1.0;" width="10" x="622" y="1252.6203"/><rect fill="#EEEEEE" height="3" style="stroke:#EEEEEE;stroke-width:1.0;" width="781" x="0" y="175.0568"/><line style="stroke:#000000;stroke-width:1.0;" x1="0" x2="781" y1="175.0568" y2="175.0568"/><line style="stroke:#000000;stroke-width:1.0;" x1="0" x2="781" y1="178.0568" y2="178.0568"/><rect fill="#EEEEEE" height="25.706" style="stroke:#000000;stroke-width:2.0;" width="130" x="325.5" y="163.2038"/><text fill="#000000" font-family="sans-serif" font-size="13" font-weight="bold" lengthAdjust="spacing" textLength="113" x="331.5" y="181.1008">Fase 1: Detecci&#243;n</text><polygon fill="#181818" points="146,236.3218,156,240.3218,146,244.3218,150,240.3218" style="stroke:#181818;stroke-width:1.0;"/><line style="stroke:#181818;stroke-width:1.0;" x1="48" x2="152" y1="240.3218" y2="240.3218"/><text fill="#000000" font-family="sans-serif" font-size="13" lengthAdjust="spacing" textLength="83" x="55" y="216.8068">Decide activar</text><text fill="#000000" font-family="sans-serif" font-size="13" lengthAdjust="spacing" textLength="67" x="55" y="234.5128">evacuaci&#243;n</text><rect fill="#EEEEEE" height="3" style="stroke:#EEEEEE;stroke-width:1.0;" width="781" x="0" y="270.1748"/><line style="stroke:#000000;stroke-width:1.0;" x1="0" x2="781" y1="270.1748" y2="270.1748"/><line style="stroke:#000000;stroke-width:1.0;" x1="0" x2="781" y1="273.1748" y2="273.1748"/><rect fill="#EEEEEE" height="25.706" style="stroke:#000000;stroke-width:2.0;" width="132" x="324.5" y="258.3218"/><text fill="#000000" font-family="sans-serif" font-size="13" font-weight="bold" lengthAdjust="spacing" textLength="115" x="330.5" y="276.2188">Fase 2: Activaci&#243;n</text><polygon fill="#181818" points="259,343.2929,269,347.2929,259,351.2929,263,347.2929" style="stroke:#181818;stroke-width:1.0;"/><line style="stroke:#181818;stroke-width:1.0;" x1="168" x2="265" y1="347.2929" y2="347.2929"/><text fill="#000000" font-family="sans-serif" font-size="13" lengthAdjust="spacing" textLength="83" x="175" y="323.7778">Se&#241;al ac&#250;stica</text><text fill="#000000" font-family="sans-serif" font-size="13" lengthAdjust="spacing" textLength="59" x="175" y="341.4839">de alarma</text><path d="M286,299.0278 L286,362.0278 L446,362.0278 L446,309.0278 L436,299.0278 L286,299.0278 " fill="#FEFFDD" style="stroke:#181818;stroke-width:0.5;"/><path d="M436,299.0278 L436,309.0278 L446,309.0278 L436,299.0278 " fill="#FEFFDD" style="stroke:#181818;stroke-width:0.5;"/><text fill="#000000" font-family="sans-serif" font-size="13" lengthAdjust="spacing" textLength="121" x="292" y="317.9248">Todos los miembros</text><text fill="#000000" font-family="sans-serif" font-size="13" lengthAdjust="spacing" textLength="110" x="292" y="335.6308">del equipo reciben</text><text fill="#000000" font-family="sans-serif" font-size="13" lengthAdjust="spacing" textLength="139" x="292" y="353.3369">se&#241;al simult&#225;neamente</text><rect fill="#EEEEEE" height="3" style="stroke:#EEEEEE;stroke-width:1.0;" width="781" x="0" y="388.9989"/><line style="stroke:#000000;stroke-width:1.0;" x1="0" x2="781" y1="388.9989" y2="388.9989"/><line style="stroke:#000000;stroke-width:1.0;" x1="0" x2="781" y1="391.9989" y2="391.9989"/><rect fill="#EEEEEE" height="25.706" style="stroke:#000000;stroke-width:2.0;" width="137" x="322" y="377.1459"/><text fill="#000000" font-family="sans-serif" font-size="13" font-weight="bold" lengthAdjust="spacing" textLength="120" x="328" y="395.0429">Fase 3: Evacuaci&#243;n</text><polygon fill="#181818" points="443,450.2639,453,454.2639,443,458.2639,447,454.2639" style="stroke:#181818;stroke-width:1.0;"/><line style="stroke:#181818;stroke-width:1.0;" x1="281" x2="449" y1="454.2639" y2="454.2639"/><text fill="#000000" font-family="sans-serif" font-size="13" lengthAdjust="spacing" textLength="131" x="288" y="430.7489">"ATENCI&#211;N, VAMOS A</text><text fill="#000000" font-family="sans-serif" font-size="13" lengthAdjust="spacing" textLength="135" x="288" y="448.4549">EVACUAR EL EDIFICIO"</text><polygon fill="#181818" points="443,499.6759,453,503.6759,443,507.6759,447,503.6759" style="stroke:#181818;stroke-width:1.0;"/><line style="stroke:#181818;stroke-width:1.0;" x1="281" x2="449" y1="503.6759" y2="503.6759"/><text fill="#000000" font-family="sans-serif" font-size="13" lengthAdjust="spacing" textLength="150" x="288" y="480.1609">"MANTENGAN LA CALMA</text><text fill="#000000" font-family="sans-serif" font-size="13" lengthAdjust="spacing" textLength="90" x="288" y="497.8669">Y NO CORRAN"</text><polygon fill="#181818" points="443,549.088,453,553.088,443,557.088,447,553.088" style="stroke:#181818;stroke-width:1.0;"/><line style="stroke:#181818;stroke-width:1.0;" x1="281" x2="449" y1="553.088" y2="553.088"/><text fill="#000000" font-family="sans-serif" font-size="13" lengthAdjust="spacing" textLength="139" x="288" y="529.573">"NO RECOJAN OBJETOS</text><text fill="#000000" font-family="sans-serif" font-size="13" lengthAdjust="spacing" textLength="84" x="288" y="547.279">PERSONALES"</text><polygon fill="#181818" points="443,598.5,453,602.5,443,606.5,447,602.5" style="stroke:#181818;stroke-width:1.0;"/><line style="stroke:#181818;stroke-width:1.0;" x1="281" x2="449" y1="602.5" y2="602.5"/><text fill="#000000" font-family="sans-serif" font-size="13" lengthAdjust="spacing" textLength="126" x="288" y="578.985">"CIERREN LA PUERTA</text><text fill="#000000" font-family="sans-serif" font-size="13" lengthAdjust="spacing" textLength="57" x="288" y="596.691">AL SALIR"</text><line style="stroke:#181818;stroke-width:1.0;" x1="465" x2="507" y1="634.206" y2="634.206"/><line style="stroke:#181818;stroke-width:1.0;" x1="507" x2="507" y1="634.206" y2="647.206"/><line style="stroke:#181818;stroke-width:1.0;" x1="466" x2="507" y1="647.206" y2="647.206"/><polygon fill="#181818" points="476,643.206,466,647.206,476,651.206,472,647.206" style="stroke:#181818;stroke-width:1.0;"/><text fill="#000000" font-family="sans-serif" font-size="13" lengthAdjust="spacing" textLength="128" x="472" y="628.397">Abandonan estancias</text><path d="M470,660.206 L470,705.206 L583,705.206 L583,670.206 L573,660.206 L470,660.206 " fill="#FEFFDD" style="stroke:#181818;stroke-width:0.5;"/><path d="M573,660.206 L573,670.206 L583,670.206 L573,660.206 " fill="#FEFFDD" style="stroke:#181818;stroke-width:0.5;"/><text fill="#000000" font-family="sans-serif" font-size="13" lengthAdjust="spacing" textLength="92" x="476" y="679.103">Cierran puertas</text><text fill="#000000" font-family="sans-serif" font-size="13" lengthAdjust="spacing" textLength="70" x="476" y="696.8091">sin regresar</text><polygon fill="#181818" points="443,748.0301,453,752.0301,443,756.0301,447,752.0301" style="stroke:#181818;stroke-width:1.0;"/><line style="stroke:#181818;stroke-width:1.0;" x1="281" x2="449" y1="752.0301" y2="752.0301"/><text fill="#000000" font-family="sans-serif" font-size="13" lengthAdjust="spacing" textLength="123" x="288" y="728.5151">"DIR&#205;JANSE A SALIDA</text><text fill="#000000" font-family="sans-serif" font-size="13" lengthAdjust="spacing" textLength="103" x="288" y="746.2211">EN [UBICACI&#211;N]"</text><polygon fill="#181818" points="443,797.4421,453,801.4421,443,805.4421,447,801.4421" style="stroke:#181818;stroke-width:1.0;"/><line style="stroke:#181818;stroke-width:1.0;" x1="281" x2="449" y1="801.4421" y2="801.4421"/><text fill="#000000" font-family="sans-serif" font-size="13" lengthAdjust="spacing" textLength="132" x="288" y="777.9271">"NO SE DETENGAN EN</text><text fill="#000000" font-family="sans-serif" font-size="13" lengthAdjust="spacing" textLength="135" x="288" y="795.6331">PASILLOS/ESCALERAS"</text><path d="M225,816.4421 L298,816.4421 L298,826.1481 L288,836.1481 L225,836.1481 L225,816.4421 " fill="#EEEEEE" style="stroke:#000000;stroke-width:1.5;"/><rect fill="none" height="171.5301" style="stroke:#000000;stroke-width:1.5;" width="303" x="225" y="816.4421"/><text fill="#000000" font-family="sans-serif" font-size="13" font-weight="bold" lengthAdjust="spacing" textLength="28" x="240" y="831.3391">loop</text><text fill="#000000" font-family="sans-serif" font-size="11" font-weight="bold" lengthAdjust="spacing" textLength="210" x="313" y="830.201">[Repetir hasta completar evacuaci&#243;n]</text><line style="stroke:#181818;stroke-width:1.0;" x1="281" x2="323" y1="859.8542" y2="859.8542"/><line style="stroke:#181818;stroke-width:1.0;" x1="323" x2="323" y1="859.8542" y2="872.8542"/><line style="stroke:#181818;stroke-width:1.0;" x1="282" x2="323" y1="872.8542" y2="872.8542"/><polygon fill="#181818" points="292,868.8542,282,872.8542,292,876.8542,288,872.8542" style="stroke:#181818;stroke-width:1.0;"/><text fill="#000000" font-family="sans-serif" font-size="13" lengthAdjust="spacing" textLength="86" x="288" y="854.0452">Verificar zonas</text><line style="stroke:#181818;stroke-width:1.0;" x1="281" x2="323" y1="922.2662" y2="922.2662"/><line style="stroke:#181818;stroke-width:1.0;" x1="323" x2="323" y1="922.2662" y2="935.2662"/><line style="stroke:#181818;stroke-width:1.0;" x1="282" x2="323" y1="935.2662" y2="935.2662"/><polygon fill="#181818" points="292,931.2662,282,935.2662,292,939.2662,288,935.2662" style="stroke:#181818;stroke-width:1.0;"/><text fill="#000000" font-family="sans-serif" font-size="13" lengthAdjust="spacing" textLength="148" x="288" y="898.7512">Comprobar temperatura</text><text fill="#000000" font-family="sans-serif" font-size="13" lengthAdjust="spacing" textLength="118" x="288" y="916.4572">de puertas cerradas</text><line style="stroke:#181818;stroke-width:1.0;" x1="281" x2="323" y1="966.9722" y2="966.9722"/><line style="stroke:#181818;stroke-width:1.0;" x1="323" x2="323" y1="966.9722" y2="979.9722"/><line style="stroke:#181818;stroke-width:1.0;" x1="282" x2="323" y1="979.9722" y2="979.9722"/><polygon fill="#181818" points="292,975.9722,282,979.9722,292,983.9722,288,979.9722" style="stroke:#181818;stroke-width:1.0;"/><text fill="#000000" font-family="sans-serif" font-size="13" lengthAdjust="spacing" textLength="152" x="288" y="961.1632">Asistir impedidos/heridos</text><rect fill="#EEEEEE" height="3" style="stroke:#EEEEEE;stroke-width:1.0;" width="781" x="0" y="1016.8252"/><line style="stroke:#000000;stroke-width:1.0;" x1="0" x2="781" y1="1016.8252" y2="1016.8252"/><line style="stroke:#000000;stroke-width:1.0;" x1="0" x2="781" y1="1019.8252" y2="1019.8252"/><rect fill="#EEEEEE" height="25.706" style="stroke:#000000;stroke-width:2.0;" width="202" x="289.5" y="1004.9722"/><text fill="#000000" font-family="sans-serif" font-size="13" font-weight="bold" lengthAdjust="spacing" textLength="185" x="295.5" y="1022.8692">Fase 4: Verificaci&#243;n de Zonas</text><line style="stroke:#181818;stroke-width:1.0;" x1="281" x2="323" y1="1082.0903" y2="1082.0903"/><line style="stroke:#181818;stroke-width:1.0;" x1="323" x2="323" y1="1082.0903" y2="1095.0903"/><line style="stroke:#181818;stroke-width:1.0;" x1="282" x2="323" y1="1095.0903" y2="1095.0903"/><polygon fill="#181818" points="292,1091.0903,282,1095.0903,292,1099.0903,288,1095.0903" style="stroke:#181818;stroke-width:1.0;"/><text fill="#000000" font-family="sans-serif" font-size="13" lengthAdjust="spacing" textLength="137" x="288" y="1058.5752">Comprobar no quedan</text><text fill="#000000" font-family="sans-serif" font-size="13" lengthAdjust="spacing" textLength="119" x="288" y="1076.2813">personas rezagadas</text><line style="stroke:#181818;stroke-width:1.0;" x1="281" x2="323" y1="1144.5023" y2="1144.5023"/><line style="stroke:#181818;stroke-width:1.0;" x1="323" x2="323" y1="1144.5023" y2="1157.5023"/><line style="stroke:#181818;stroke-width:1.0;" x1="282" x2="323" y1="1157.5023" y2="1157.5023"/><polygon fill="#181818" points="292,1153.5023,282,1157.5023,292,1161.5023,288,1157.5023" style="stroke:#181818;stroke-width:1.0;"/><text fill="#000000" font-family="sans-serif" font-size="13" lengthAdjust="spacing" textLength="86" x="288" y="1120.9873">Cerrar puertas</text><text fill="#000000" font-family="sans-serif" font-size="13" lengthAdjust="spacing" textLength="119" x="288" y="1138.6933">de zonas verificadas</text><rect fill="#EEEEEE" height="3" style="stroke:#EEEEEE;stroke-width:1.0;" width="781" x="0" y="1187.3553"/><line style="stroke:#000000;stroke-width:1.0;" x1="0" x2="781" y1="1187.3553" y2="1187.3553"/><line style="stroke:#000000;stroke-width:1.0;" x1="0" x2="781" y1="1190.3553" y2="1190.3553"/><rect fill="#EEEEEE" height="25.706" style="stroke:#000000;stroke-width:2.0;" width="172" x="304.5" y="1175.5023"/><text fill="#000000" font-family="sans-serif" font-size="13" font-weight="bold" lengthAdjust="spacing" textLength="155" x="310.5" y="1193.3993">Fase 5: Salida del Equipo</text><polygon fill="#181818" points="610,1248.6203,620,1252.6203,610,1256.6203,614,1252.6203" style="stroke:#181818;stroke-width:1.0;"/><line style="stroke:#181818;stroke-width:1.0;" x1="276" x2="616" y1="1252.6203" y2="1252.6203"/><text fill="#000000" font-family="sans-serif" font-size="13" lengthAdjust="spacing" textLength="107" x="283" y="1229.1053">Abandona edificio</text><text fill="#000000" font-family="sans-serif" font-size="13" lengthAdjust="spacing" textLength="137" x="283" y="1246.8113">cuando zona evacuada</text><polygon fill="#181818" points="610,1298.0324,620,1302.0324,610,1306.0324,614,1302.0324" style="stroke:#181818;stroke-width:1.0;"/><line style="stroke:#181818;stroke-width:1.0;" x1="465" x2="616" y1="1302.0324" y2="1302.0324"/><text fill="#000000" font-family="sans-serif" font-size="13" lengthAdjust="spacing" textLength="90" x="472" y="1278.5174">Llegan a punto</text><text fill="#000000" font-family="sans-serif" font-size="13" lengthAdjust="spacing" textLength="80" x="472" y="1296.2234">de encuentro</text><path d="M637,1315.0324 L637,1378.0324 L759,1378.0324 L759,1325.0324 L749,1315.0324 L637,1315.0324 " fill="#FEFFDD" style="stroke:#181818;stroke-width:0.5;"/><path d="M749,1315.0324 L749,1325.0324 L759,1325.0324 L749,1315.0324 " fill="#FEFFDD" style="stroke:#181818;stroke-width:0.5;"/><text fill="#000000" font-family="sans-serif" font-size="13" lengthAdjust="spacing" textLength="88" x="643" y="1333.9294">Fachada Norte</text><text fill="#000000" font-family="sans-serif" font-size="13" lengthAdjust="spacing" textLength="101" x="643" y="1351.6354">Entrada Principal</text><text fill="#000000" font-family="sans-serif" font-size="13" lengthAdjust="spacing" textLength="65" x="643" y="1369.3414">(en la calle)</text><rect fill="#EEEEEE" height="3" style="stroke:#EEEEEE;stroke-width:1.0;" width="781" x="0" y="1405.0034"/><line style="stroke:#000000;stroke-width:1.0;" x1="0" x2="781" y1="1405.0034" y2="1405.0034"/><line style="stroke:#000000;stroke-width:1.0;" x1="0" x2="781" y1="1408.0034" y2="1408.0034"/><rect fill="#EEEEEE" height="25.706" style="stroke:#000000;stroke-width:2.0;" width="266" x="257.5" y="1393.1504"/><text fill="#000000" font-family="sans-serif" font-size="13" font-weight="bold" lengthAdjust="spacing" textLength="249" x="263.5" y="1411.0474">Fase 6: Control en Punto de Encuentro</text><line style="stroke:#181818;stroke-width:1.0;" x1="632" x2="674" y1="1452.5625" y2="1452.5625"/><line style="stroke:#181818;stroke-width:1.0;" x1="674" x2="674" y1="1452.5625" y2="1465.5625"/><line style="stroke:#181818;stroke-width:1.0;" x1="633" x2="674" y1="1465.5625" y2="1465.5625"/><polygon fill="#181818" points="643,1461.5625,633,1465.5625,643,1469.5625,639,1465.5625" style="stroke:#181818;stroke-width:1.0;"/><text fill="#000000" font-family="sans-serif" font-size="13" lengthAdjust="spacing" textLength="130" x="639" y="1446.7535">Comprobar ausencias</text><line style="stroke:#181818;stroke-width:1.0;" x1="632" x2="674" y1="1514.9745" y2="1514.9745"/><line style="stroke:#181818;stroke-width:1.0;" x1="674" x2="674" y1="1514.9745" y2="1527.9745"/><line style="stroke:#181818;stroke-width:1.0;" x1="633" x2="674" y1="1527.9745" y2="1527.9745"/><polygon fill="#181818" points="643,1523.9745,633,1527.9745,643,1531.9745,639,1527.9745" style="stroke:#181818;stroke-width:1.0;"/><text fill="#000000" font-family="sans-serif" font-size="13" lengthAdjust="spacing" textLength="73" x="639" y="1491.4595">Verificar uso</text><text fill="#000000" font-family="sans-serif" font-size="13" lengthAdjust="spacing" textLength="77" x="639" y="1509.1655">de mascarilla</text><line style="stroke:#181818;stroke-width:1.0;" x1="632" x2="674" y1="1577.3865" y2="1577.3865"/><line style="stroke:#181818;stroke-width:1.0;" x1="674" x2="674" y1="1577.3865" y2="1590.3865"/><line style="stroke:#181818;stroke-width:1.0;" x1="633" x2="674" y1="1590.3865" y2="1590.3865"/><polygon fill="#181818" points="643,1586.3865,633,1590.3865,643,1594.3865,639,1590.3865" style="stroke:#181818;stroke-width:1.0;"/><text fill="#000000" font-family="sans-serif" font-size="13" lengthAdjust="spacing" textLength="110" x="639" y="1553.8715">Verificar distancias</text><text fill="#000000" font-family="sans-serif" font-size="13" lengthAdjust="spacing" textLength="78" x="639" y="1571.5775">de seguridad</text><polygon fill="#181818" points="476,1635.7986,466,1639.7986,476,1643.7986,472,1639.7986" style="stroke:#181818;stroke-width:1.0;"/><line style="stroke:#181818;stroke-width:1.0;" x1="470" x2="621" y1="1639.7986" y2="1639.7986"/><text fill="#000000" font-family="sans-serif" font-size="13" lengthAdjust="spacing" textLength="133" x="482" y="1616.2835">"PERMANEZCAN AQU&#205;</text><text fill="#000000" font-family="sans-serif" font-size="13" lengthAdjust="spacing" textLength="133" x="482" y="1633.9896">HASTA NUEVO AVISO"</text><rect fill="#EEEEEE" height="3" style="stroke:#EEEEEE;stroke-width:1.0;" width="781" x="0" y="1669.6516"/><line style="stroke:#000000;stroke-width:1.0;" x1="0" x2="781" y1="1669.6516" y2="1669.6516"/><line style="stroke:#000000;stroke-width:1.0;" x1="0" x2="781" y1="1672.6516" y2="1672.6516"/><rect fill="#EEEEEE" height="25.706" style="stroke:#000000;stroke-width:2.0;" width="141" x="320" y="1657.7986"/><text fill="#000000" font-family="sans-serif" font-size="13" font-weight="bold" lengthAdjust="spacing" textLength="124" x="326" y="1675.6956">Fase 7: Finalizaci&#243;n</text><polygon fill="#181818" points="615,1730.9166,625,1734.9166,615,1738.9166,619,1734.9166" style="stroke:#181818;stroke-width:1.0;"/><line style="stroke:#181818;stroke-width:1.0;" x1="48" x2="621" y1="1734.9166" y2="1734.9166"/><text fill="#000000" font-family="sans-serif" font-size="13" lengthAdjust="spacing" textLength="68" x="55" y="1711.4016">Aviso de fin</text><text fill="#000000" font-family="sans-serif" font-size="13" lengthAdjust="spacing" textLength="88" x="55" y="1729.1076">de emergencia</text><!--SRC=[RLNBRkCs5DthAowycW4w2Fe63AG0HsPQ1OxaIhQ1Jjq58zqu12JAGqfPv1zcDL_GJoYwwzO_raFA3zd88b14NXwUStJkTQUxcgdWicTJQaKLatnHPQzAlV_Nq0TAJCTMbSFhafjTQrKTHQhiMakJUtvYdDaOsR3T1eW9AKVtCjefs-bIxvJfQ1B7oSQyYzbqE4rnYsTRlm-bsBgibPzxlMi3ggYLRGP4AQwg0ikgTS0LTT-OrjqisBhMg0EmN8luyioYDzq0B8qN31AXSY6ZwFQMxfHZ-dPAC-xu8FZsDhgNzE4NpvByJgdX4CJh5sKtXizMHSDYnq7G2UwxAOcmSSBpI02K0dW5x_-17whS_-T0KssCHm-YptXGRbeyhTu-Tn7HieLggl7NQ6uURUkmM75DF1XdGVAH3HRT0EzqqzVT_c_3ge5eZjXKv27FDB-VNdnsq0G_pn8UWkT4B6KQ9_klwJUq5WzPGG8UOcybSf9pahFaBecJR39YxTs_17aGAM1-5IdD1SLY_W2GFoZDACxoNAIJgt9iv3BExb6VVRoNowpOc8NCYomLSrbSLyU9p7CPe1ShcI-1BUPKY7cIJw8eL9shnQCo5P9YY5sdV6hTo6DgdmRwHB5cQr6swzbsoXljj873MyjEsP6HbsHcIRx_0kA5914upBnVAVsv-fZ48XZvrnjoKJwJ1uja2hMYIERphBYH1UoIkO3gg6xR7UMyuqvRUbRWJsNRx6hkbALn88aE5_YahTdg9oJCqYjqkylD6ETj-uZD3WsETkzwEsJne9jARqDrVKuuxJmBZKELHYfldd4DdjwOSxX-E5y_n0l0dpoBKSukQPYMFlTSARCnkw6d7Kn_LTl0ONp4yx97ce5oq4SlXmjz_Od8Z-WuLUjAXNOvp9aJXuKS9OCW2ETrky6ay4i1z-1lfQAAn_rv-jzFacFM0jwyvYtoeq0HioSGvEFikOeSpX9ubi_0fxIrY1NSzXCJxmkhZHzZDTRUiQ4QNrtLDRz_evb_cXudBEwYuz2ZqyppaXVoHF5ik-eT3yqmsZudftU3W4OvlEgwLc_NLVhOLA7SyRP7AbHrg3u67hsCYI0_nKYx-7sr_x8nlubYAIXToNL6OfqK62WdLJzFwKvZkEjNTJMRXm_tebsG-QJDOFFf5sdyiM3o-DFvBX-z-z7zFm00]--></g></svg>