<?xml version="1.0" encoding="us-ascii" standalone="no"?><svg xmlns="http://www.w3.org/2000/svg" xmlns:xlink="http://www.w3.org/1999/xlink" contentStyleType="text/css" height="750px" preserveAspectRatio="none" style="width:375px;height:750px;background:#FFFFFF;" version="1.1" viewBox="0 0 375 750" width="375px" zoomAndPan="magnify"><defs/><g><g id="SISTEMA_INICIAL"><rect fill="#F1F1F1" height="50" rx="12.5" ry="12.5" style="stroke:#181818;stroke-width:0.5;" width="136" x="116.5" y="7"/><line style="stroke:#181818;stroke-width:0.5;" x1="116.5" x2="252.5" y1="36.0679" y2="36.0679"/><text fill="#000000" font-family="sans-serif" font-size="14" lengthAdjust="spacing" textLength="116" x="126.5" y="26.9659">SISTEMA_INICIAL</text></g><path d="M19.5,117 L349.5,117 A12.5,12.5 0 0 1 362,129.5 L362,146.0679 L7,146.0679 L7,129.5 A12.5,12.5 0 0 1 19.5,117 " fill="#F1F1F1" style="stroke:#F1F1F1;stroke-width:1.0;"/><rect fill="none" height="517.0679" rx="12.5" ry="12.5" style="stroke:#181818;stroke-width:0.5;" width="355" x="7" y="117"/><line style="stroke:#181818;stroke-width:0.5;" x1="7" x2="362" y1="146.0679" y2="146.0679"/><text fill="#000000" font-family="sans-serif" font-size="14" lengthAdjust="spacing" textLength="164" x="102.5" y="136.9659">generarMapaArm&#243;nico()</text><g id="generarMapaArmonico.SolicitandoMapa"><rect fill="#F1F1F1" height="50" rx="12.5" ry="12.5" style="stroke:#181818;stroke-width:0.5;" width="50" x="19" y="250.0679"/><line style="stroke:#181818;stroke-width:0.5;" x1="19" x2="69" y1="279.1358" y2="279.1358"/><text fill="#000000" font-family="sans-serif" font-size="14" lengthAdjust="spacing" textLength="4" x="42" y="270.0339">&#160;</text></g><g id="generarMapaArmonico.MapaGenerado"><rect fill="#F1F1F1" height="50" rx="12.5" ry="12.5" style="stroke:#181818;stroke-width:0.5;" width="50" x="19" y="515.0679"/><line style="stroke:#181818;stroke-width:0.5;" x1="19" x2="69" y1="544.1358" y2="544.1358"/><text fill="#000000" font-family="sans-serif" font-size="14" lengthAdjust="spacing" textLength="4" x="42" y="535.0339">&#160;</text></g><ellipse cx="44" cy="167.0679" fill="#222222" rx="10" ry="10" style="stroke:#222222;stroke-width:1.0;"/><ellipse cx="44" cy="613.0679" fill="none" rx="11" ry="11" style="stroke:#222222;stroke-width:1.0;"/><ellipse cx="44" cy="613.0679" fill="#222222" rx="6" ry="6" style="stroke:#222222;stroke-width:1.0;"/><!--link *start*generarMapaArmonico to SolicitandoMapa--><g id="link_*start*generarMapaArmonico_SolicitandoMapa"><path d="M44,177.1079 C44,193.0279 44,220.5779 44,243.7079 " fill="none" id="*start*generarMapaArmonico-to-SolicitandoMapa" style="stroke:#008000;stroke-width:1.0;"/><polygon fill="#008000" points="44,249.7079,48,240.7079,44,244.7079,40,240.7079,44,249.7079" style="stroke:#008000;stroke-width:1.0;"/><path d="M49,200.0679 L49,227.0679 L307,227.0679 L307,210.0679 L297,200.0679 L49,200.0679 " fill="#FEFFDD" style="stroke:#181818;stroke-width:0.5;"/><path d="M297,200.0679 L297,210.0679 L307,210.0679 L297,200.0679 " fill="#FEFFDD" style="stroke:#181818;stroke-width:0.5;"/><text fill="#000000" font-family="sans-serif" font-size="13" font-weight="bold" lengthAdjust="spacing" textLength="46" x="55" y="218.9649">M&#250;sico</text><text fill="#000000" font-family="sans-serif" font-size="13" lengthAdjust="spacing" textLength="188" x="104" y="218.9649">solicita generar mapa arm&#243;nico</text></g><!--link SolicitandoMapa to MapaGenerado--><g id="link_SolicitandoMapa_MapaGenerado"><path d="M44,300.3379 C44,350.4379 44,458.8079 44,508.8579 " fill="none" id="SolicitandoMapa-to-MapaGenerado" style="stroke:#008000;stroke-width:1.0;"/><polygon fill="#008000" points="44,514.8579,48,505.8579,44,509.8579,40,505.8579,44,514.8579" style="stroke:#008000;stroke-width:1.0;"/><path d="M49,323.0679 L49,492.0679 L353,492.0679 L353,333.0679 L343,323.0679 L49,323.0679 " fill="#FEFFDD" style="stroke:#181818;stroke-width:0.5;"/><path d="M343,323.0679 L343,333.0679 L353,333.0679 L343,323.0679 " fill="#FEFFDD" style="stroke:#181818;stroke-width:0.5;"/><text fill="#000000" font-family="sans-serif" font-size="13" font-weight="bold" lengthAdjust="spacing" textLength="52" x="55" y="341.9649">Sistema</text><text fill="#000000" font-family="sans-serif" font-size="13" lengthAdjust="spacing" textLength="210" x="110" y="341.9649">presenta mapa arm&#243;nico completo</text><text fill="#000000" font-family="sans-serif" font-size="13" lengthAdjust="spacing" textLength="259" x="55" y="359.6709">&#8226; Tabla de acordes con funciones arm&#243;nicas</text><text fill="#000000" font-family="sans-serif" font-size="13" lengthAdjust="spacing" textLength="283" x="55" y="377.377">&#8226; Enlaces entrantes y salientes para cada acorde</text><text fill="#000000" font-family="sans-serif" font-size="13" lengthAdjust="spacing" textLength="210" x="55" y="395.083">&#8226; Informaci&#243;n de grados arm&#243;nicos</text><text fill="#000000" font-family="sans-serif" font-size="13" lengthAdjust="spacing" textLength="3" x="55" y="412.789">&#160;</text><text fill="#000000" font-family="sans-serif" font-size="13" font-weight="bold" lengthAdjust="spacing" textLength="52" x="55" y="430.495">Sistema</text><text fill="#000000" font-family="sans-serif" font-size="13" lengthAdjust="spacing" textLength="99" x="110" y="430.495">permite solicitar:</text><text fill="#000000" font-family="sans-serif" font-size="13" lengthAdjust="spacing" textLength="112" x="55" y="448.201">&#8226; iniciar progresi&#243;n</text><text fill="#000000" font-family="sans-serif" font-size="13" lengthAdjust="spacing" textLength="104" x="55" y="465.907">&#8226; modificar t&#243;nica</text><text fill="#000000" font-family="sans-serif" font-size="13" lengthAdjust="spacing" textLength="103" x="55" y="483.6131">&#8226; modificar modo</text></g><!--link MapaGenerado to *end*generarMapaArmonico--><g id="link_MapaGenerado_*end*generarMapaArmonico"><path d="M44,565.1079 C44,577.6579 44,586.3479 44,595.9179 " fill="none" id="MapaGenerado-to-*end*generarMapaArmonico" style="stroke:#008000;stroke-width:1.0;"/><polygon fill="#008000" points="44,601.9179,48,592.9179,44,596.9179,40,592.9179,44,601.9179" style="stroke:#008000;stroke-width:1.0;"/></g><g id="MAPA_DISPONIBLE"><rect fill="#F1F1F1" height="50" rx="12.5" ry="12.5" style="stroke:#181818;stroke-width:0.5;" width="147" x="111" y="694"/><line style="stroke:#181818;stroke-width:0.5;" x1="111" x2="258" y1="723.0679" y2="723.0679"/><text fill="#000000" font-family="sans-serif" font-size="14" lengthAdjust="spacing" textLength="127" x="121" y="713.9659">MAPA_DISPONIBLE</text></g><!--link SISTEMA_INICIAL to generarMapaArmonico--><g id="link_SISTEMA_INICIAL_generarMapaArmonico"><path d="M184.5,57.01 C184.5,71.89 184.5,86.71 184.5,110.64 " fill="none" id="SISTEMA_INICIAL-to-generarMapaArmonico" style="stroke:#008000;stroke-width:1.0;"/><polygon fill="#008000" points="184.5,116.64,188.5,107.64,184.5,111.64,180.5,107.64,184.5,116.64" style="stroke:#008000;stroke-width:1.0;"/></g><!--link generarMapaArmonico to MAPA_DISPONIBLE--><g id="link_generarMapaArmonico_MAPA_DISPONIBLE"><path d="M184.5,634.02 C184.5,657.98 184.5,672.84 184.5,687.77 " fill="none" id="generarMapaArmonico-to-MAPA_DISPONIBLE" style="stroke:#008000;stroke-width:1.0;"/><polygon fill="#008000" points="184.5,693.77,188.5,684.77,184.5,688.77,180.5,684.77,184.5,693.77" style="stroke:#008000;stroke-width:1.0;"/></g><!--SRC=[TLBDIiD04BxlKmpreaBnBgKGjKYWhONqLagPRgPbQNOtxAw78eBFuYjuyzetyKcSJKmq6fFBxCvyFpCx_g1CYGur5CfGE9O4fIsEyI14bcRBoIpPfFFqDascC5oTxHsHMG_7i2T33jqCIqoSjaP9AuGF6AWl1UXXqBq_lSN4-SK0deG0_chmW7ykpcoXf0feSXlh_nR4s_kACBSrVdMvxZZiep2M6Qo9pHwgYz5sF3kzUtOokjgEmNzXcXv0CnAmSLj1oEGLJwtwIwNZeEFnF_bC-K0QA_dIaIV3ybrPa5QN1OMQvEFb5PQuBH1o0fJMvUIvmi3kqKXb3PyQ9FeMCJ45IaunlKCJE3g2nq9H5SSL08avVX6siDJihDCe5VD5lNtivLl0Uj7R1pcjkDLcdEww9LICKZpOqbcUau-yRKxRNEtOjODGs-_9SDJt33z7tNa3tWeXdeNeMyhEMoMBP7ENPek7UNepdOXF]--></g></svg>