<?xml version="1.0" encoding="us-ascii" standalone="no"?><svg xmlns="http://www.w3.org/2000/svg" xmlns:xlink="http://www.w3.org/1999/xlink" contentStyleType="text/css" height="2628px" preserveAspectRatio="none" style="width:583px;height:2628px;background:#FFFFFF;" version="1.1" viewBox="0 0 583 2628" width="583px" zoomAndPan="magnify"><defs/><g><!--entity C--><g id="elem_C"><ellipse cx="14" cy="1351" fill="#FF6B6B" rx="8" ry="8" style="stroke:#181818;stroke-width:0.5;"/><text fill="#000000" font-family="sans-serif" font-size="14" lengthAdjust="spacing" textLength="9" x="9.5" y="1382.9659">C</text></g><!--entity Cm--><g id="elem_Cm"><ellipse cx="146" cy="579" fill="#4ECDC4" rx="8" ry="8" style="stroke:#181818;stroke-width:0.5;"/><text fill="#000000" font-family="sans-serif" font-size="14" lengthAdjust="spacing" textLength="22" x="135" y="610.9659">Cm</text></g><!--entity Am--><g id="elem_Am"><ellipse cx="146" cy="1351" fill="#4ECDC4" rx="8" ry="8" style="stroke:#181818;stroke-width:0.5;"/><text fill="#000000" font-family="sans-serif" font-size="14" lengthAdjust="spacing" textLength="22" x="135" y="1382.9659">Am</text></g><!--entity Em--><g id="elem_Em"><ellipse cx="146" cy="2127" fill="#4ECDC4" rx="8" ry="8" style="stroke:#181818;stroke-width:0.5;"/><text fill="#000000" font-family="sans-serif" font-size="14" lengthAdjust="spacing" textLength="21" x="135.5" y="2158.9659">Em</text></g><!--entity Eb--><g id="elem_Eb"><ellipse cx="285" cy="262" fill="#FF6B6B" rx="8" ry="8" style="stroke:#181818;stroke-width:0.5;"/><text fill="#000000" font-family="sans-serif" font-size="14" lengthAdjust="spacing" textLength="17" x="276.5" y="293.9659">Eb</text></g><!--entity Ab--><g id="elem_Ab"><ellipse cx="285" cy="509" fill="#FF6B6B" rx="8" ry="8" style="stroke:#181818;stroke-width:0.5;"/><text fill="#000000" font-family="sans-serif" font-size="14" lengthAdjust="spacing" textLength="18" x="276" y="540.9659">Ab</text></g><!--entity CM--><g id="elem_CM"><ellipse cx="285" cy="608" fill="#F1F1F1" rx="8" ry="8" style="stroke:#181818;stroke-width:0.5;"/><text fill="#000000" font-family="sans-serif" font-size="14" lengthAdjust="spacing" textLength="9" x="280.5" y="639.9659">C</text></g><!--entity A--><g id="elem_A"><ellipse cx="285" cy="1073" fill="#FF6B6B" rx="8" ry="8" style="stroke:#181818;stroke-width:0.5;"/><text fill="#000000" font-family="sans-serif" font-size="14" lengthAdjust="spacing" textLength="9" x="280.5" y="1104.9659">A</text></g><!--entity F--><g id="elem_F"><ellipse cx="285" cy="1351" fill="#FF6B6B" rx="8" ry="8" style="stroke:#181818;stroke-width:0.5;"/><text fill="#000000" font-family="sans-serif" font-size="14" lengthAdjust="spacing" textLength="7" x="281.5" y="1382.9659">F</text></g><!--entity CM2--><g id="elem_CM2"><ellipse cx="285" cy="1450" fill="#F1F1F1" rx="8" ry="8" style="stroke:#181818;stroke-width:0.5;"/><text fill="#000000" font-family="sans-serif" font-size="14" lengthAdjust="spacing" textLength="9" x="280.5" y="1481.9659">C</text></g><!--entity E--><g id="elem_E"><ellipse cx="285" cy="2011" fill="#FF6B6B" rx="8" ry="8" style="stroke:#181818;stroke-width:0.5;"/><text fill="#000000" font-family="sans-serif" font-size="14" lengthAdjust="spacing" textLength="8" x="281" y="2042.9659">E</text></g><!--entity G--><g id="elem_G"><ellipse cx="285" cy="2192" fill="#FF6B6B" rx="8" ry="8" style="stroke:#181818;stroke-width:0.5;"/><text fill="#000000" font-family="sans-serif" font-size="14" lengthAdjust="spacing" textLength="10" x="280" y="2223.9659">G</text></g><!--entity CM3--><g id="elem_CM3"><ellipse cx="285" cy="2291" fill="#F1F1F1" rx="8" ry="8" style="stroke:#181818;stroke-width:0.5;"/><text fill="#000000" font-family="sans-serif" font-size="14" lengthAdjust="spacing" textLength="9" x="280.5" y="2322.9659">C</text></g><!--entity Ebm--><g id="elem_Ebm"><ellipse cx="425" cy="113" fill="#4ECDC4" rx="8" ry="8" style="stroke:#181818;stroke-width:0.5;"/><text fill="#000000" font-family="sans-serif" font-size="14" lengthAdjust="spacing" textLength="30" x="410" y="144.9659">Ebm</text></g><!--entity Gm--><g id="elem_Gm"><ellipse cx="425" cy="212" fill="#4ECDC4" rx="8" ry="8" style="stroke:#181818;stroke-width:0.5;"/><text fill="#000000" font-family="sans-serif" font-size="14" lengthAdjust="spacing" textLength="23" x="413.5" y="243.9659">Gm</text></g><!--entity Cm2--><g id="elem_Cm2"><ellipse cx="425" cy="311" fill="#F1F1F1" rx="8" ry="8" style="stroke:#181818;stroke-width:0.5;"/><text fill="#000000" font-family="sans-serif" font-size="14" lengthAdjust="spacing" textLength="22" x="414" y="342.9659">Cm</text></g><!--entity Abm--><g id="elem_Abm"><ellipse cx="425" cy="410" fill="#4ECDC4" rx="8" ry="8" style="stroke:#181818;stroke-width:0.5;"/><text fill="#000000" font-family="sans-serif" font-size="14" lengthAdjust="spacing" textLength="31" x="409.5" y="441.9659">Abm</text></g><!--entity Fm--><g id="elem_Fm"><ellipse cx="425" cy="509" fill="#4ECDC4" rx="8" ry="8" style="stroke:#181818;stroke-width:0.5;"/><text fill="#000000" font-family="sans-serif" font-size="14" lengthAdjust="spacing" textLength="20" x="415" y="540.9659">Fm</text></g><!--entity Cm3--><g id="elem_Cm3"><ellipse cx="425" cy="608" fill="#F1F1F1" rx="8" ry="8" style="stroke:#181818;stroke-width:0.5;"/><text fill="#000000" font-family="sans-serif" font-size="14" lengthAdjust="spacing" textLength="22" x="414" y="639.9659">Cm</text></g><!--entity Fshm--><g id="elem_Fshm"><ellipse cx="425" cy="757" fill="#4ECDC4" rx="8" ry="8" style="stroke:#181818;stroke-width:0.5;"/><text fill="#000000" font-family="sans-serif" font-size="14" lengthAdjust="spacing" textLength="29" x="410.5" y="788.9659">F#m</text></g><!--entity Cshm--><g id="elem_Cshm"><ellipse cx="425" cy="1004" fill="#4ECDC4" rx="8" ry="8" style="stroke:#181818;stroke-width:0.5;"/><text fill="#000000" font-family="sans-serif" font-size="14" lengthAdjust="spacing" textLength="31" x="409.5" y="1035.9659">C#m</text></g><!--entity Am2--><g id="elem_Am2"><ellipse cx="425" cy="1103" fill="#F1F1F1" rx="8" ry="8" style="stroke:#181818;stroke-width:0.5;"/><text fill="#000000" font-family="sans-serif" font-size="14" lengthAdjust="spacing" textLength="22" x="414" y="1134.9659">Am</text></g><!--entity Dm--><g id="elem_Dm"><ellipse cx="425" cy="1301" fill="#4ECDC4" rx="8" ry="8" style="stroke:#181818;stroke-width:0.5;"/><text fill="#000000" font-family="sans-serif" font-size="14" lengthAdjust="spacing" textLength="23" x="413.5" y="1332.9659">Dm</text></g><!--entity Am3--><g id="elem_Am3"><ellipse cx="425" cy="1400" fill="#F1F1F1" rx="8" ry="8" style="stroke:#181818;stroke-width:0.5;"/><text fill="#000000" font-family="sans-serif" font-size="14" lengthAdjust="spacing" textLength="22" x="414" y="1431.9659">Am</text></g><!--entity Fm2--><g id="elem_Fm2"><ellipse cx="425" cy="1548" fill="#F1F1F1" rx="8" ry="8" style="stroke:#181818;stroke-width:0.5;"/><text fill="#000000" font-family="sans-serif" font-size="14" lengthAdjust="spacing" textLength="20" x="415" y="1579.9659">Fm</text></g><!--entity Gshm--><g id="elem_Gshm"><ellipse cx="425" cy="1895" fill="#4ECDC4" rx="8" ry="8" style="stroke:#181818;stroke-width:0.5;"/><text fill="#000000" font-family="sans-serif" font-size="14" lengthAdjust="spacing" textLength="32" x="409" y="1926.9659">G#m</text></g><!--entity Em2--><g id="elem_Em2"><ellipse cx="425" cy="1994" fill="#F1F1F1" rx="8" ry="8" style="stroke:#181818;stroke-width:0.5;"/><text fill="#000000" font-family="sans-serif" font-size="14" lengthAdjust="spacing" textLength="21" x="414.5" y="2025.9659">Em</text></g><!--entity Cshm2--><g id="elem_Cshm2"><ellipse cx="425" cy="2093" fill="#F1F1F1" rx="8" ry="8" style="stroke:#181818;stroke-width:0.5;"/><text fill="#000000" font-family="sans-serif" font-size="14" lengthAdjust="spacing" textLength="31" x="409.5" y="2124.9659">C#m</text></g><!--entity Bm--><g id="elem_Bm"><ellipse cx="425" cy="2192" fill="#4ECDC4" rx="8" ry="8" style="stroke:#181818;stroke-width:0.5;"/><text fill="#000000" font-family="sans-serif" font-size="14" lengthAdjust="spacing" textLength="22" x="414" y="2223.9659">Bm</text></g><!--entity Em3--><g id="elem_Em3"><ellipse cx="425" cy="2291" fill="#F1F1F1" rx="8" ry="8" style="stroke:#181818;stroke-width:0.5;"/><text fill="#000000" font-family="sans-serif" font-size="14" lengthAdjust="spacing" textLength="21" x="414.5" y="2322.9659">Em</text></g><!--entity Gm2--><g id="elem_Gm2"><ellipse cx="425" cy="2439" fill="#F1F1F1" rx="8" ry="8" style="stroke:#181818;stroke-width:0.5;"/><text fill="#000000" font-family="sans-serif" font-size="14" lengthAdjust="spacing" textLength="23" x="413.5" y="2470.9659">Gm</text></g><!--entity Gb--><g id="elem_Gb"><ellipse cx="565" cy="14" fill="#FF6B6B" rx="8" ry="8" style="stroke:#181818;stroke-width:0.5;"/><text fill="#000000" font-family="sans-serif" font-size="14" lengthAdjust="spacing" textLength="19" x="555.5" y="45.9659">Gb</text></g><!--entity Cb--><g id="elem_Cb"><ellipse cx="565" cy="113" fill="#FF6B6B" rx="8" ry="8" style="stroke:#181818;stroke-width:0.5;"/><text fill="#000000" font-family="sans-serif" font-size="14" lengthAdjust="spacing" textLength="18" x="556" y="144.9659">Cb</text></g><!--entity Eb2--><g id="elem_Eb2"><ellipse cx="565" cy="212" fill="#F1F1F1" rx="8" ry="8" style="stroke:#181818;stroke-width:0.5;"/><text fill="#000000" font-family="sans-serif" font-size="14" lengthAdjust="spacing" textLength="17" x="556.5" y="243.9659">Eb</text></g><!--entity Bb--><g id="elem_Bb"><ellipse cx="565" cy="2390" fill="#FF6B6B" rx="8" ry="8" style="stroke:#181818;stroke-width:0.5;"/><text fill="#000000" font-family="sans-serif" font-size="14" lengthAdjust="spacing" textLength="18" x="556" y="2421.9659">Bb</text></g><!--entity G2--><g id="elem_G2"><ellipse cx="565" cy="2489" fill="#F1F1F1" rx="8" ry="8" style="stroke:#181818;stroke-width:0.5;"/><text fill="#000000" font-family="sans-serif" font-size="14" lengthAdjust="spacing" textLength="10" x="560" y="2520.9659">G</text></g><!--entity Eb3--><g id="elem_Eb3"><ellipse cx="565" cy="2588" fill="#F1F1F1" rx="8" ry="8" style="stroke:#181818;stroke-width:0.5;"/><text fill="#000000" font-family="sans-serif" font-size="14" lengthAdjust="spacing" textLength="17" x="556.5" y="2619.9659">Eb</text></g><!--entity Fb--><g id="elem_Fb"><ellipse cx="565" cy="311" fill="#FF6B6B" rx="8" ry="8" style="stroke:#181818;stroke-width:0.5;"/><text fill="#000000" font-family="sans-serif" font-size="14" lengthAdjust="spacing" textLength="16" x="557" y="342.9659">Fb</text></g><!--entity Ab2--><g id="elem_Ab2"><ellipse cx="565" cy="410" fill="#F1F1F1" rx="8" ry="8" style="stroke:#181818;stroke-width:0.5;"/><text fill="#000000" font-family="sans-serif" font-size="14" lengthAdjust="spacing" textLength="18" x="556" y="441.9659">Ab</text></g><!--entity Cb2--><g id="elem_Cb2"><ellipse cx="565" cy="509" fill="#F1F1F1" rx="8" ry="8" style="stroke:#181818;stroke-width:0.5;"/><text fill="#000000" font-family="sans-serif" font-size="14" lengthAdjust="spacing" textLength="18" x="556" y="540.9659">Cb</text></g><!--entity Db--><g id="elem_Db"><ellipse cx="565" cy="1499" fill="#FF6B6B" rx="8" ry="8" style="stroke:#181818;stroke-width:0.5;"/><text fill="#000000" font-family="sans-serif" font-size="14" lengthAdjust="spacing" textLength="19" x="555.5" y="1530.9659">Db</text></g><!--entity F2--><g id="elem_F2"><ellipse cx="565" cy="1598" fill="#F1F1F1" rx="8" ry="8" style="stroke:#181818;stroke-width:0.5;"/><text fill="#000000" font-family="sans-serif" font-size="14" lengthAdjust="spacing" textLength="7" x="561.5" y="1629.9659">F</text></g><!--entity Ab3--><g id="elem_Ab3"><ellipse cx="565" cy="1697" fill="#F1F1F1" rx="8" ry="8" style="stroke:#181818;stroke-width:0.5;"/><text fill="#000000" font-family="sans-serif" font-size="14" lengthAdjust="spacing" textLength="18" x="556" y="1728.9659">Ab</text></g><!--entity Fsh--><g id="elem_Fsh"><ellipse cx="565" cy="608" fill="#FF6B6B" rx="8" ry="8" style="stroke:#181818;stroke-width:0.5;"/><text fill="#000000" font-family="sans-serif" font-size="14" lengthAdjust="spacing" textLength="16" x="557" y="639.9659">F#</text></g><!--entity D--><g id="elem_D"><ellipse cx="565" cy="707" fill="#FF6B6B" rx="8" ry="8" style="stroke:#181818;stroke-width:0.5;"/><text fill="#000000" font-family="sans-serif" font-size="14" lengthAdjust="spacing" textLength="10" x="560" y="738.9659">D</text></g><!--entity A2--><g id="elem_A2"><ellipse cx="565" cy="806" fill="#F1F1F1" rx="8" ry="8" style="stroke:#181818;stroke-width:0.5;"/><text fill="#000000" font-family="sans-serif" font-size="14" lengthAdjust="spacing" textLength="9" x="560.5" y="837.9659">A</text></g><!--entity Csh--><g id="elem_Csh"><ellipse cx="565" cy="905" fill="#FF6B6B" rx="8" ry="8" style="stroke:#181818;stroke-width:0.5;"/><text fill="#000000" font-family="sans-serif" font-size="14" lengthAdjust="spacing" textLength="18" x="556" y="936.9659">C#</text></g><!--entity E2--><g id="elem_E2"><ellipse cx="565" cy="1004" fill="#F1F1F1" rx="8" ry="8" style="stroke:#181818;stroke-width:0.5;"/><text fill="#000000" font-family="sans-serif" font-size="14" lengthAdjust="spacing" textLength="8" x="561" y="1035.9659">E</text></g><!--entity A3--><g id="elem_A3"><ellipse cx="565" cy="1103" fill="#F1F1F1" rx="8" ry="8" style="stroke:#181818;stroke-width:0.5;"/><text fill="#000000" font-family="sans-serif" font-size="14" lengthAdjust="spacing" textLength="9" x="560.5" y="1134.9659">A</text></g><!--entity D2--><g id="elem_D2"><ellipse cx="565" cy="1202" fill="#F1F1F1" rx="8" ry="8" style="stroke:#181818;stroke-width:0.5;"/><text fill="#000000" font-family="sans-serif" font-size="14" lengthAdjust="spacing" textLength="10" x="560" y="1233.9659">D</text></g><!--entity F3--><g id="elem_F3"><ellipse cx="565" cy="1301" fill="#F1F1F1" rx="8" ry="8" style="stroke:#181818;stroke-width:0.5;"/><text fill="#000000" font-family="sans-serif" font-size="14" lengthAdjust="spacing" textLength="7" x="561.5" y="1332.9659">F</text></g><!--entity Am4--><g id="elem_Am4"><ellipse cx="565" cy="1400" fill="#F1F1F1" rx="8" ry="8" style="stroke:#181818;stroke-width:0.5;"/><text fill="#000000" font-family="sans-serif" font-size="14" lengthAdjust="spacing" textLength="22" x="554" y="1431.9659">Am</text></g><!--entity Gsh--><g id="elem_Gsh"><ellipse cx="565" cy="1796" fill="#FF6B6B" rx="8" ry="8" style="stroke:#181818;stroke-width:0.5;"/><text fill="#000000" font-family="sans-serif" font-size="14" lengthAdjust="spacing" textLength="19" x="555.5" y="1827.9659">G#</text></g><!--entity B--><g id="elem_B"><ellipse cx="565" cy="1895" fill="#FF6B6B" rx="8" ry="8" style="stroke:#181818;stroke-width:0.5;"/><text fill="#000000" font-family="sans-serif" font-size="14" lengthAdjust="spacing" textLength="9" x="560.5" y="1926.9659">B</text></g><!--entity E3--><g id="elem_E3"><ellipse cx="565" cy="1994" fill="#F1F1F1" rx="8" ry="8" style="stroke:#181818;stroke-width:0.5;"/><text fill="#000000" font-family="sans-serif" font-size="14" lengthAdjust="spacing" textLength="8" x="561" y="2025.9659">E</text></g><!--entity B2--><g id="elem_B2"><ellipse cx="565" cy="2093" fill="#F1F1F1" rx="8" ry="8" style="stroke:#181818;stroke-width:0.5;"/><text fill="#000000" font-family="sans-serif" font-size="14" lengthAdjust="spacing" textLength="9" x="560.5" y="2124.9659">B</text></g><!--entity D3--><g id="elem_D3"><ellipse cx="565" cy="2192" fill="#F1F1F1" rx="8" ry="8" style="stroke:#181818;stroke-width:0.5;"/><text fill="#000000" font-family="sans-serif" font-size="14" lengthAdjust="spacing" textLength="10" x="560" y="2223.9659">D</text></g><!--entity G3--><g id="elem_G3"><ellipse cx="565" cy="2291" fill="#F1F1F1" rx="8" ry="8" style="stroke:#181818;stroke-width:0.5;"/><text fill="#000000" font-family="sans-serif" font-size="14" lengthAdjust="spacing" textLength="10" x="560" y="2322.9659">G</text></g><!--link C to Cm--><g id="link_C_Cm"><path codeLine="11" d="M16.55,1341.79 C30.22,1260.65 128.9141,674.5468 142.4741,593.9868 " fill="none" id="C-to-Cm" style="stroke:#181818;stroke-width:1.0;"/><polygon fill="#181818" points="143.47,588.07,138.0316,596.2812,142.6401,593.0006,145.9206,597.6091,143.47,588.07" style="stroke:#181818;stroke-width:1.0;"/><text fill="#000000" font-family="sans-serif" font-size="13" lengthAdjust="spacing" textLength="16" x="72" y="914.897">G7</text></g><!--link C to Am--><g id="link_C_Am"><path codeLine="12" d="M23.13,1351 C46.48,1351 107.53,1351 130.87,1351 " fill="none" id="C-to-Am" style="stroke:#181818;stroke-width:1.0;"/><polygon fill="#181818" points="136.87,1351,127.87,1347,131.87,1351,127.87,1355,136.87,1351" style="stroke:#181818;stroke-width:1.0;"/><text fill="#000000" font-family="sans-serif" font-size="13" lengthAdjust="spacing" textLength="14" x="73" y="1346.897">E7</text></g><!--link C to Em--><g id="link_C_Em"><path codeLine="13" d="M16.55,1360.26 C30.22,1441.82 128.919,2030.9924 142.479,2111.9624 " fill="none" id="C-to-Em" style="stroke:#181818;stroke-width:1.0;"/><polygon fill="#181818" points="143.47,2117.88,145.9285,2108.3429,142.6442,2112.9487,138.0384,2109.6643,143.47,2117.88" style="stroke:#181818;stroke-width:1.0;"/><text fill="#000000" font-family="sans-serif" font-size="13" lengthAdjust="spacing" textLength="15" x="72.5" y="1688.897">B7</text></g><!--link Cm to CM--><g id="link_Cm_CM"><path codeLine="20" d="M155.35,580.8 C166.29,583.16 186.08,587.41 203,591 C229.71,596.66 255.5167,602.0537 270.0767,605.0937 " fill="none" id="Cm-to-CM" style="stroke:#181818;stroke-width:1.0;"/><polygon fill="#181818" points="275.95,606.32,267.9575,600.565,271.0555,605.2981,266.3224,608.3961,275.95,606.32" style="stroke:#181818;stroke-width:1.0;"/><text fill="#000000" font-family="sans-serif" font-size="13" lengthAdjust="spacing" textLength="16" x="207.5" y="586.897">G7</text></g><!--link Cm to Eb--><g id="link_Cm_Eb"><path codeLine="21" d="M150.95,569.85 C170.87,523.77 257.7005,322.868 277.6505,276.688 " fill="none" id="Cm-to-Eb" style="stroke:#181818;stroke-width:1.0;"/><polygon fill="#181818" points="280.03,271.18,272.7888,277.8557,278.0471,275.77,280.1328,281.0283,280.03,271.18" style="stroke:#181818;stroke-width:1.0;"/><text fill="#000000" font-family="sans-serif" font-size="13" lengthAdjust="spacing" textLength="23" x="204" y="388.897">Bb7</text></g><!--link Cm to Ab--><g id="link_Cm_Ab"><path codeLine="22" d="M155.16,574.83 C179.47,562.41 245.8863,528.4686 270.3663,515.9686 " fill="none" id="Cm-to-Ab" style="stroke:#181818;stroke-width:1.0;"/><polygon fill="#181818" points="275.71,513.24,265.8754,513.7704,271.2569,515.5138,269.5136,520.8953,275.71,513.24" style="stroke:#181818;stroke-width:1.0;"/><text fill="#000000" font-family="sans-serif" font-size="13" lengthAdjust="spacing" textLength="22" x="204.5" y="533.897">Eb7</text></g><!--link Am to A--><g id="link_Am_A"><path codeLine="29" d="M151.56,1341.75 C172.45,1299.35 256.2786,1129.2624 276.9086,1087.3824 " fill="none" id="Am-to-A" style="stroke:#181818;stroke-width:1.0;"/><polygon fill="#181818" points="279.56,1082,271.9947,1088.306,277.3505,1086.4853,279.1712,1091.8412,279.56,1082" style="stroke:#181818;stroke-width:1.0;"/><text fill="#000000" font-family="sans-serif" font-size="13" lengthAdjust="spacing" textLength="14" x="208.5" y="1183.897">E7</text></g><!--link Am to CM2--><g id="link_Am_CM2"><path codeLine="30" d="M155.16,1356.9 C179.47,1374.46 246.3669,1422.8058 270.8469,1440.4958 " fill="none" id="Am-to-CM2" style="stroke:#181818;stroke-width:1.0;"/><polygon fill="#181818" points="275.71,1444.01,270.7581,1435.4965,271.6574,1441.0815,266.0725,1441.9807,275.71,1444.01" style="stroke:#181818;stroke-width:1.0;"/><text fill="#000000" font-family="sans-serif" font-size="13" lengthAdjust="spacing" textLength="16" x="207.5" y="1387.897">G7</text></g><!--link Am to F--><g id="link_Am_F"><path codeLine="31" d="M155.16,1351 C179.47,1351 245.23,1351 269.71,1351 " fill="none" id="Am-to-F" style="stroke:#181818;stroke-width:1.0;"/><polygon fill="#181818" points="275.71,1351,266.71,1347,270.71,1351,266.71,1355,275.71,1351" style="stroke:#181818;stroke-width:1.0;"/><text fill="#000000" font-family="sans-serif" font-size="13" lengthAdjust="spacing" textLength="15" x="208" y="1346.897">C7</text></g><!--link Em to E--><g id="link_Em_E"><path codeLine="38" d="M155.16,2120.09 C179.47,2099.51 246.6512,2042.6274 271.1312,2021.8974 " fill="none" id="Em-to-E" style="stroke:#181818;stroke-width:1.0;"/><polygon fill="#181818" points="275.71,2018.02,266.2568,2020.7836,271.8943,2021.2512,271.4267,2026.8887,275.71,2018.02" style="stroke:#181818;stroke-width:1.0;"/><text fill="#000000" font-family="sans-serif" font-size="13" lengthAdjust="spacing" textLength="15" x="208" y="2054.897">B7</text></g><!--link Em to G--><g id="link_Em_G"><path codeLine="39" d="M155.16,2130.87 C179.47,2142.4 245.8096,2173.8771 270.2896,2185.4971 " fill="none" id="Em-to-G" style="stroke:#181818;stroke-width:1.0;"/><polygon fill="#181818" points="275.71,2188.07,269.2947,2180.5971,271.193,2185.9259,265.8642,2187.8242,275.71,2188.07" style="stroke:#181818;stroke-width:1.0;"/><text fill="#000000" font-family="sans-serif" font-size="13" lengthAdjust="spacing" textLength="16" x="207.5" y="2149.897">D7</text></g><!--link Em to CM3--><g id="link_Em_CM3"><path codeLine="40" d="M154.76,2136.29 C178.87,2165.15 248.4826,2248.4859 272.4826,2277.2059 " fill="none" id="Em-to-CM3" style="stroke:#181818;stroke-width:1.0;"/><polygon fill="#181818" points="276.33,2281.81,273.6283,2272.339,273.1238,2277.9733,267.4895,2277.4688,276.33,2281.81" style="stroke:#181818;stroke-width:1.0;"/><text fill="#000000" font-family="sans-serif" font-size="13" lengthAdjust="spacing" textLength="16" x="207.5" y="2190.897">G7</text></g><!--link Eb to Ebm--><g id="link_Eb_Ebm"><path codeLine="47" d="M294.22,253.13 C318.82,226.56 387.6031,152.3021 411.9231,126.0421 " fill="none" id="Eb-to-Ebm" style="stroke:#181818;stroke-width:1.0;"/><polygon fill="#181818" points="416,121.64,406.9499,125.5253,412.6026,125.3084,412.8194,130.9611,416,121.64" style="stroke:#181818;stroke-width:1.0;"/><text fill="#000000" font-family="sans-serif" font-size="13" lengthAdjust="spacing" textLength="23" x="343.5" y="170.897">Bb7</text></g><!--link Eb to Cm2--><g id="link_Eb_Cm2"><path codeLine="48" d="M294.22,264.92 C318.82,273.65 386.0262,297.5114 410.3462,306.1514 " fill="none" id="Eb-to-Cm2" style="stroke:#181818;stroke-width:1.0;"/><polygon fill="#181818" points="416,308.16,408.8583,301.3779,411.2885,306.4862,406.1802,308.9163,416,308.16" style="stroke:#181818;stroke-width:1.0;"/><text fill="#000000" font-family="sans-serif" font-size="13" lengthAdjust="spacing" textLength="16" x="347" y="278.897">G7</text></g><!--link Eb to Gm--><g id="link_Eb_Gm"><path codeLine="49" d="M294.22,259.02 C318.82,250.11 386.0387,225.7536 410.3587,216.9436 " fill="none" id="Eb-to-Gm" style="stroke:#181818;stroke-width:1.0;"/><polygon fill="#181818" points="416,214.9,406.1757,214.2045,411.2989,216.603,408.9005,221.7262,416,214.9" style="stroke:#181818;stroke-width:1.0;"/><text fill="#000000" font-family="sans-serif" font-size="13" lengthAdjust="spacing" textLength="16" x="347" y="228.897">D7</text></g><!--link Ab to Abm--><g id="link_Ab_Abm"><path codeLine="56" d="M294.22,503.1 C318.82,485.45 386.8051,436.6879 411.1251,419.2379 " fill="none" id="Ab-to-Abm" style="stroke:#181818;stroke-width:1.0;"/><polygon fill="#181818" points="416,415.74,406.3557,417.7368,411.9375,418.6549,411.0195,424.2367,416,415.74" style="stroke:#181818;stroke-width:1.0;"/><text fill="#000000" font-family="sans-serif" font-size="13" lengthAdjust="spacing" textLength="22" x="344" y="446.897">Eb7</text></g><!--link Ab to Fm--><g id="link_Ab_Fm"><path codeLine="57" d="M294.22,509 C318.82,509 385.68,509 410,509 " fill="none" id="Ab-to-Fm" style="stroke:#181818;stroke-width:1.0;"/><polygon fill="#181818" points="416,509,407,505,411,509,407,513,416,509" style="stroke:#181818;stroke-width:1.0;"/><text fill="#000000" font-family="sans-serif" font-size="13" lengthAdjust="spacing" textLength="15" x="347.5" y="504.897">C7</text></g><!--link Ab to Cm3--><g id="link_Ab_Cm3"><path codeLine="58" d="M294.22,514.9 C318.82,532.55 386.8051,581.3121 411.1251,598.7621 " fill="none" id="Ab-to-Cm3" style="stroke:#181818;stroke-width:1.0;"/><polygon fill="#181818" points="416,602.26,411.0195,593.7633,411.9375,599.3451,406.3557,600.2632,416,602.26" style="stroke:#181818;stroke-width:1.0;"/><text fill="#000000" font-family="sans-serif" font-size="13" lengthAdjust="spacing" textLength="16" x="347" y="545.897">G7</text></g><!--link A to Am2--><g id="link_A_Am2"><path codeLine="65" d="M294.34,1075 C305.26,1077.61 325.04,1082.27 342,1086 C368.98,1091.93 395.1964,1097.2441 409.9564,1100.1941 " fill="none" id="A-to-Am2" style="stroke:#181818;stroke-width:1.0;"/><polygon fill="#181818" points="415.84,1101.37,407.7985,1095.6837,410.937,1100.3901,406.2306,1103.5285,415.84,1101.37" style="stroke:#181818;stroke-width:1.0;"/><text fill="#000000" font-family="sans-serif" font-size="13" lengthAdjust="spacing" textLength="14" x="348" y="1081.897">E7</text></g><!--link A to Fshm--><g id="link_A_Fshm"><path codeLine="66" d="M289.98,1063.88 C310.04,1017.94 397.4989,817.6786 417.5989,771.6486 " fill="none" id="A-to-Fshm" style="stroke:#181818;stroke-width:1.0;"/><polygon fill="#181818" points="420,766.15,412.7326,772.7972,417.9991,770.7322,420.0641,775.9986,420,766.15" style="stroke:#181818;stroke-width:1.0;"/><text fill="#000000" font-family="sans-serif" font-size="13" lengthAdjust="spacing" textLength="23" x="343.5" y="882.897">C#7</text></g><!--link A to Cshm--><g id="link_A_Cshm"><path codeLine="67" d="M294.22,1068.89 C318.82,1056.59 386.3134,1022.8433 410.6334,1010.6833 " fill="none" id="A-to-Cshm" style="stroke:#181818;stroke-width:1.0;"/><polygon fill="#181818" points="416,1008,406.1613,1008.4472,411.5279,1010.2361,409.739,1015.6026,416,1008" style="stroke:#181818;stroke-width:1.0;"/><text fill="#000000" font-family="sans-serif" font-size="13" lengthAdjust="spacing" textLength="24" x="343" y="1028.897">G#7</text></g><!--link F to Fm2--><g id="link_F_Fm2"><path codeLine="74" d="M292.47,1360.24 C315.6,1393.25 390.5771,1500.2961 413.9371,1533.6361 " fill="none" id="F-to-Fm2" style="stroke:#181818;stroke-width:1.0;"/><polygon fill="#181818" points="417.38,1538.55,415.4915,1528.8839,414.5109,1534.4551,408.9397,1533.4745,417.38,1538.55" style="stroke:#181818;stroke-width:1.0;"/><text fill="#000000" font-family="sans-serif" font-size="13" lengthAdjust="spacing" textLength="15" x="347.5" y="1427.897">C7</text></g><!--link F to Dm--><g id="link_F_Dm"><path codeLine="75" d="M294.22,1348.02 C318.82,1339.11 386.0387,1314.7536 410.3587,1305.9436 " fill="none" id="F-to-Dm" style="stroke:#181818;stroke-width:1.0;"/><polygon fill="#181818" points="416,1303.9,406.1757,1303.2045,411.2989,1305.603,408.9005,1310.7262,416,1303.9" style="stroke:#181818;stroke-width:1.0;"/><text fill="#000000" font-family="sans-serif" font-size="13" lengthAdjust="spacing" textLength="15" x="347.5" y="1317.897">A7</text></g><!--link F to Am3--><g id="link_F_Am3"><path codeLine="76" d="M294.31,1356.87 C304.9,1364.08 323.99,1376.18 342,1383 C367.84,1392.78 394.5289,1396.7279 409.6489,1398.4579 " fill="none" id="F-to-Am3" style="stroke:#181818;stroke-width:1.0;"/><polygon fill="#181818" points="415.61,1399.14,407.123,1394.1428,410.6424,1398.5716,406.2136,1402.091,415.61,1399.14" style="stroke:#181818;stroke-width:1.0;"/><text fill="#000000" font-family="sans-serif" font-size="13" lengthAdjust="spacing" textLength="14" x="348" y="1378.897">E7</text></g><!--link E to Em2--><g id="link_E_Em2"><path codeLine="83" d="M294.22,2009.99 C318.82,2006.96 385.7248,1998.7122 410.0448,1995.7222 " fill="none" id="E-to-Em2" style="stroke:#181818;stroke-width:1.0;"/><polygon fill="#181818" points="416,1994.99,406.5792,1992.1181,411.0374,1995.6001,407.5554,2000.0583,416,1994.99" style="stroke:#181818;stroke-width:1.0;"/><text fill="#000000" font-family="sans-serif" font-size="13" lengthAdjust="spacing" textLength="15" x="347.5" y="1996.897">B7</text></g><!--link E to Cshm2--><g id="link_E_Cshm2"><path codeLine="84" d="M294.22,2015.88 C318.82,2030.5 386.5218,2070.7252 410.8418,2085.1752 " fill="none" id="E-to-Cshm2" style="stroke:#181818;stroke-width:1.0;"/><polygon fill="#181818" points="416,2088.24,410.3059,2080.204,411.7015,2085.686,406.2195,2087.0816,416,2088.24" style="stroke:#181818;stroke-width:1.0;"/><text fill="#000000" font-family="sans-serif" font-size="13" lengthAdjust="spacing" textLength="24" x="343" y="2040.897">G#7</text></g><!--link E to Gshm--><g id="link_E_Gshm"><path codeLine="85" d="M294.22,2004.09 C318.82,1983.41 387.0868,1926.0304 411.4068,1905.5904 " fill="none" id="E-to-Gshm" style="stroke:#181818;stroke-width:1.0;"/><polygon fill="#181818" points="416,1901.73,406.5366,1904.4585,412.1723,1904.947,411.6838,1910.5827,416,1901.73" style="stroke:#181818;stroke-width:1.0;"/><text fill="#000000" font-family="sans-serif" font-size="13" lengthAdjust="spacing" textLength="24" x="343" y="1938.897">D#7</text></g><!--link G to Gm2--><g id="link_G_Gm2"><path codeLine="92" d="M291.08,2201.08 C312.71,2239.81 394.2233,2385.7022 415.9533,2424.5922 " fill="none" id="G-to-Gm2" style="stroke:#181818;stroke-width:1.0;"/><polygon fill="#181818" points="418.88,2429.83,417.9819,2420.0222,416.4411,2425.4652,410.9981,2423.9244,418.88,2429.83" style="stroke:#181818;stroke-width:1.0;"/><text fill="#000000" font-family="sans-serif" font-size="13" lengthAdjust="spacing" textLength="16" x="347" y="2289.897">D7</text></g><!--link G to Em3--><g id="link_G_Em3"><path codeLine="93" d="M294.22,2197.9 C318.82,2215.55 386.8051,2264.3121 411.1251,2281.7621 " fill="none" id="G-to-Em3" style="stroke:#181818;stroke-width:1.0;"/><polygon fill="#181818" points="416,2285.26,411.0195,2276.7633,411.9375,2282.3451,406.3557,2283.2632,416,2285.26" style="stroke:#181818;stroke-width:1.0;"/><text fill="#000000" font-family="sans-serif" font-size="13" lengthAdjust="spacing" textLength="15" x="347.5" y="2228.897">B7</text></g><!--link G to Bm--><g id="link_G_Bm"><path codeLine="94" d="M294.22,2192 C318.82,2192 385.68,2192 410,2192 " fill="none" id="G-to-Bm" style="stroke:#181818;stroke-width:1.0;"/><polygon fill="#181818" points="416,2192,407,2188,411,2192,407,2196,416,2192" style="stroke:#181818;stroke-width:1.0;"/><text fill="#000000" font-family="sans-serif" font-size="13" lengthAdjust="spacing" textLength="22" x="344" y="2187.897">F#7</text></g><!--link Ebm to Eb2--><g id="link_Ebm_Eb2"><path codeLine="101" d="M434.22,118.9 C458.82,136.55 526.8051,185.3121 551.1251,202.7621 " fill="none" id="Ebm-to-Eb2" style="stroke:#181818;stroke-width:1.0;"/><polygon fill="#181818" points="556,206.26,551.0195,197.7633,551.9375,203.3451,546.3557,204.2632,556,206.26" style="stroke:#181818;stroke-width:1.0;"/><text fill="#000000" font-family="sans-serif" font-size="13" lengthAdjust="spacing" textLength="23" x="483.5" y="149.897">Bb7</text></g><!--link Ebm to Gb--><g id="link_Ebm_Gb"><path codeLine="102" d="M434.22,107.1 C458.82,89.45 526.8051,40.6879 551.1251,23.2379 " fill="none" id="Ebm-to-Gb" style="stroke:#181818;stroke-width:1.0;"/><polygon fill="#181818" points="556,19.74,546.3557,21.7368,551.9375,22.6549,551.0195,28.2367,556,19.74" style="stroke:#181818;stroke-width:1.0;"/><text fill="#000000" font-family="sans-serif" font-size="13" lengthAdjust="spacing" textLength="24" x="483" y="50.897">Db7</text></g><!--link Ebm to Cb--><g id="link_Ebm_Cb"><path codeLine="103" d="M434.22,113 C458.82,113 525.68,113 550,113 " fill="none" id="Ebm-to-Cb" style="stroke:#181818;stroke-width:1.0;"/><polygon fill="#181818" points="556,113,547,109,551,113,547,117,556,113" style="stroke:#181818;stroke-width:1.0;"/><text fill="#000000" font-family="sans-serif" font-size="13" lengthAdjust="spacing" textLength="24" x="483" y="108.897">Gb7</text></g><!--link Gm2 to G2--><g id="link_Gm2_G2"><path codeLine="110" d="M434.22,2441.98 C458.82,2450.89 526.0387,2475.2464 550.3587,2484.0564 " fill="none" id="Gm2-to-G2" style="stroke:#181818;stroke-width:1.0;"/><polygon fill="#181818" points="556,2486.1,548.9005,2479.2738,551.2989,2484.397,546.1757,2486.7955,556,2486.1" style="stroke:#181818;stroke-width:1.0;"/><text fill="#000000" font-family="sans-serif" font-size="13" lengthAdjust="spacing" textLength="16" x="487" y="2454.897">D7</text></g><!--link Gm2 to Bb--><g id="link_Gm2_Bb"><path codeLine="111" d="M434.22,2436.08 C458.82,2427.35 526.0262,2403.4886 550.3462,2394.8486 " fill="none" id="Gm2-to-Bb" style="stroke:#181818;stroke-width:1.0;"/><polygon fill="#181818" points="556,2392.84,546.1802,2392.0837,551.2885,2394.5138,548.8583,2399.6221,556,2392.84" style="stroke:#181818;stroke-width:1.0;"/><text fill="#000000" font-family="sans-serif" font-size="13" lengthAdjust="spacing" textLength="14" x="488" y="2405.897">F7</text></g><!--link Gm2 to Eb3--><g id="link_Gm2_Eb3"><path codeLine="112" d="M434.22,2447.87 C458.82,2474.44 527.6031,2548.6979 551.9231,2574.9579 " fill="none" id="Gm2-to-Eb3" style="stroke:#181818;stroke-width:1.0;"/><polygon fill="#181818" points="556,2579.36,552.8194,2570.0389,552.6026,2575.6916,546.9499,2575.4747,556,2579.36" style="stroke:#181818;stroke-width:1.0;"/><text fill="#000000" font-family="sans-serif" font-size="13" lengthAdjust="spacing" textLength="23" x="483.5" y="2495.897">Bb7</text></g><!--link Abm to Ab2--><g id="link_Abm_Ab2"><path codeLine="119" d="M434.22,410 C458.82,410 525.68,410 550,410 " fill="none" id="Abm-to-Ab2" style="stroke:#181818;stroke-width:1.0;"/><polygon fill="#181818" points="556,410,547,406,551,410,547,414,556,410" style="stroke:#181818;stroke-width:1.0;"/><text fill="#000000" font-family="sans-serif" font-size="13" lengthAdjust="spacing" textLength="22" x="484" y="405.897">Eb7</text></g><!--link Abm to Cb2--><g id="link_Abm_Cb2"><path codeLine="120" d="M434.22,415.9 C458.82,433.55 526.8051,482.3121 551.1251,499.7621 " fill="none" id="Abm-to-Cb2" style="stroke:#181818;stroke-width:1.0;"/><polygon fill="#181818" points="556,503.26,551.0195,494.7633,551.9375,500.3451,546.3557,501.2632,556,503.26" style="stroke:#181818;stroke-width:1.0;"/><text fill="#000000" font-family="sans-serif" font-size="13" lengthAdjust="spacing" textLength="24" x="483" y="446.897">Gb7</text></g><!--link Abm to Fb--><g id="link_Abm_Fb"><path codeLine="121" d="M434.22,404.1 C458.82,386.45 526.8051,337.6879 551.1251,320.2379 " fill="none" id="Abm-to-Fb" style="stroke:#181818;stroke-width:1.0;"/><polygon fill="#181818" points="556,316.74,546.3557,318.7368,551.9375,319.6549,551.0195,325.2367,556,316.74" style="stroke:#181818;stroke-width:1.0;"/><text fill="#000000" font-family="sans-serif" font-size="13" lengthAdjust="spacing" textLength="23" x="483.5" y="347.897">Cb7</text></g><!--link Fm2 to F2--><g id="link_Fm2_F2"><path codeLine="128" d="M434.22,1550.98 C458.82,1559.89 526.0387,1584.2464 550.3587,1593.0564 " fill="none" id="Fm2-to-F2" style="stroke:#181818;stroke-width:1.0;"/><polygon fill="#181818" points="556,1595.1,548.9005,1588.2738,551.2989,1593.397,546.1757,1595.7955,556,1595.1" style="stroke:#181818;stroke-width:1.0;"/><text fill="#000000" font-family="sans-serif" font-size="13" lengthAdjust="spacing" textLength="15" x="487.5" y="1564.897">C7</text></g><!--link Fm2 to Ab3--><g id="link_Fm2_Ab3"><path codeLine="129" d="M434.22,1556.87 C458.82,1583.44 527.6031,1657.6979 551.9231,1683.9579 " fill="none" id="Fm2-to-Ab3" style="stroke:#181818;stroke-width:1.0;"/><polygon fill="#181818" points="556,1688.36,552.8194,1679.0389,552.6026,1684.6916,546.9499,1684.4747,556,1688.36" style="stroke:#181818;stroke-width:1.0;"/><text fill="#000000" font-family="sans-serif" font-size="13" lengthAdjust="spacing" textLength="22" x="484" y="1605.897">Eb7</text></g><!--link Fm2 to Db--><g id="link_Fm2_Db"><path codeLine="130" d="M434.22,1545.08 C458.82,1536.35 526.0262,1512.4886 550.3462,1503.8486 " fill="none" id="Fm2-to-Db" style="stroke:#181818;stroke-width:1.0;"/><polygon fill="#181818" points="556,1501.84,546.1802,1501.0837,551.2885,1503.5138,548.8583,1508.6221,556,1501.84" style="stroke:#181818;stroke-width:1.0;"/><text fill="#000000" font-family="sans-serif" font-size="13" lengthAdjust="spacing" textLength="23" x="483.5" y="1515.897">Ab7</text></g><!--link Fshm to Fsh--><g id="link_Fshm_Fsh"><path codeLine="137" d="M434.22,748.13 C458.82,721.56 527.6031,647.3021 551.9231,621.0421 " fill="none" id="Fshm-to-Fsh" style="stroke:#181818;stroke-width:1.0;"/><polygon fill="#181818" points="556,616.64,546.9499,620.5253,552.6026,620.3084,552.8194,625.9611,556,616.64" style="stroke:#181818;stroke-width:1.0;"/><text fill="#000000" font-family="sans-serif" font-size="13" lengthAdjust="spacing" textLength="23" x="483.5" y="665.897">C#7</text></g><!--link Fshm to A2--><g id="link_Fshm_A2"><path codeLine="138" d="M434.22,759.92 C458.82,768.65 526.0262,792.5114 550.3462,801.1514 " fill="none" id="Fshm-to-A2" style="stroke:#181818;stroke-width:1.0;"/><polygon fill="#181818" points="556,803.16,548.8583,796.3779,551.2885,801.4862,546.1802,803.9163,556,803.16" style="stroke:#181818;stroke-width:1.0;"/><text fill="#000000" font-family="sans-serif" font-size="13" lengthAdjust="spacing" textLength="14" x="488" y="773.897">E7</text></g><!--link Fshm to D--><g id="link_Fshm_D"><path codeLine="139" d="M434.22,754.02 C458.82,745.11 526.0387,720.7536 550.3587,711.9436 " fill="none" id="Fshm-to-D" style="stroke:#181818;stroke-width:1.0;"/><polygon fill="#181818" points="556,709.9,546.1757,709.2045,551.2989,711.603,548.9005,716.7262,556,709.9" style="stroke:#181818;stroke-width:1.0;"/><text fill="#000000" font-family="sans-serif" font-size="13" lengthAdjust="spacing" textLength="15" x="487.5" y="723.897">A7</text></g><!--link Cshm to Csh--><g id="link_Cshm_Csh"><path codeLine="146" d="M434.22,998.1 C458.82,980.45 526.8051,931.6879 551.1251,914.2379 " fill="none" id="Cshm-to-Csh" style="stroke:#181818;stroke-width:1.0;"/><polygon fill="#181818" points="556,910.74,546.3557,912.7368,551.9375,913.6549,551.0195,919.2367,556,910.74" style="stroke:#181818;stroke-width:1.0;"/><text fill="#000000" font-family="sans-serif" font-size="13" lengthAdjust="spacing" textLength="24" x="483" y="941.897">G#7</text></g><!--link Cshm to E2--><g id="link_Cshm_E2"><path codeLine="147" d="M434.22,1004 C458.82,1004 525.68,1004 550,1004 " fill="none" id="Cshm-to-E2" style="stroke:#181818;stroke-width:1.0;"/><polygon fill="#181818" points="556,1004,547,1000,551,1004,547,1008,556,1004" style="stroke:#181818;stroke-width:1.0;"/><text fill="#000000" font-family="sans-serif" font-size="13" lengthAdjust="spacing" textLength="15" x="487.5" y="999.897">B7</text></g><!--link Cshm to A3--><g id="link_Cshm_A3"><path codeLine="148" d="M434.22,1009.9 C458.82,1027.55 526.8051,1076.3121 551.1251,1093.7621 " fill="none" id="Cshm-to-A3" style="stroke:#181818;stroke-width:1.0;"/><polygon fill="#181818" points="556,1097.26,551.0195,1088.7633,551.9375,1094.3451,546.3557,1095.2632,556,1097.26" style="stroke:#181818;stroke-width:1.0;"/><text fill="#000000" font-family="sans-serif" font-size="13" lengthAdjust="spacing" textLength="14" x="488" y="1040.897">E7</text></g><!--link Dm to D2--><g id="link_Dm_D2"><path codeLine="155" d="M434.22,1295.1 C458.82,1277.45 526.8051,1228.6879 551.1251,1211.2379 " fill="none" id="Dm-to-D2" style="stroke:#181818;stroke-width:1.0;"/><polygon fill="#181818" points="556,1207.74,546.3557,1209.7368,551.9375,1210.6549,551.0195,1216.2367,556,1207.74" style="stroke:#181818;stroke-width:1.0;"/><text fill="#000000" font-family="sans-serif" font-size="13" lengthAdjust="spacing" textLength="15" x="487.5" y="1238.897">A7</text></g><!--link Dm to F3--><g id="link_Dm_F3"><path codeLine="156" d="M434.22,1301 C458.82,1301 525.68,1301 550,1301 " fill="none" id="Dm-to-F3" style="stroke:#181818;stroke-width:1.0;"/><polygon fill="#181818" points="556,1301,547,1297,551,1301,547,1305,556,1301" style="stroke:#181818;stroke-width:1.0;"/><text fill="#000000" font-family="sans-serif" font-size="13" lengthAdjust="spacing" textLength="15" x="487.5" y="1296.897">C7</text></g><!--link Dm to Am4--><g id="link_Dm_Am4"><path codeLine="157" d="M434.22,1306.9 C458.82,1324.55 526.8051,1373.3121 551.1251,1390.7621 " fill="none" id="Dm-to-Am4" style="stroke:#181818;stroke-width:1.0;"/><polygon fill="#181818" points="556,1394.26,551.0195,1385.7633,551.9375,1391.3451,546.3557,1392.2632,556,1394.26" style="stroke:#181818;stroke-width:1.0;"/><text fill="#000000" font-family="sans-serif" font-size="13" lengthAdjust="spacing" textLength="14" x="488" y="1337.897">E7</text></g><!--link Gshm to Gsh--><g id="link_Gshm_Gsh"><path codeLine="164" d="M434.22,1889.1 C458.82,1871.45 526.8051,1822.6879 551.1251,1805.2379 " fill="none" id="Gshm-to-Gsh" style="stroke:#181818;stroke-width:1.0;"/><polygon fill="#181818" points="556,1801.74,546.3557,1803.7368,551.9375,1804.6549,551.0195,1810.2367,556,1801.74" style="stroke:#181818;stroke-width:1.0;"/><text fill="#000000" font-family="sans-serif" font-size="13" lengthAdjust="spacing" textLength="24" x="483" y="1832.897">D#7</text></g><!--link Gshm to B--><g id="link_Gshm_B"><path codeLine="165" d="M434.22,1895 C458.82,1895 525.68,1895 550,1895 " fill="none" id="Gshm-to-B" style="stroke:#181818;stroke-width:1.0;"/><polygon fill="#181818" points="556,1895,547,1891,551,1895,547,1899,556,1895" style="stroke:#181818;stroke-width:1.0;"/><text fill="#000000" font-family="sans-serif" font-size="13" lengthAdjust="spacing" textLength="22" x="484" y="1890.897">F#7</text></g><!--link Gshm to E3--><g id="link_Gshm_E3"><path codeLine="166" d="M434.22,1900.9 C458.82,1918.55 526.8051,1967.3121 551.1251,1984.7621 " fill="none" id="Gshm-to-E3" style="stroke:#181818;stroke-width:1.0;"/><polygon fill="#181818" points="556,1988.26,551.0195,1979.7633,551.9375,1985.3451,546.3557,1986.2632,556,1988.26" style="stroke:#181818;stroke-width:1.0;"/><text fill="#000000" font-family="sans-serif" font-size="13" lengthAdjust="spacing" textLength="15" x="487.5" y="1931.897">B7</text></g><!--link Bm to B2--><g id="link_Bm_B2"><path codeLine="173" d="M434.22,2186.1 C458.82,2168.45 526.8051,2119.6879 551.1251,2102.2379 " fill="none" id="Bm-to-B2" style="stroke:#181818;stroke-width:1.0;"/><polygon fill="#181818" points="556,2098.74,546.3557,2100.7368,551.9375,2101.6549,551.0195,2107.2367,556,2098.74" style="stroke:#181818;stroke-width:1.0;"/><text fill="#000000" font-family="sans-serif" font-size="13" lengthAdjust="spacing" textLength="22" x="484" y="2129.897">F#7</text></g><!--link Bm to D3--><g id="link_Bm_D3"><path codeLine="174" d="M434.22,2192 C458.82,2192 525.68,2192 550,2192 " fill="none" id="Bm-to-D3" style="stroke:#181818;stroke-width:1.0;"/><polygon fill="#181818" points="556,2192,547,2188,551,2192,547,2196,556,2192" style="stroke:#181818;stroke-width:1.0;"/><text fill="#000000" font-family="sans-serif" font-size="13" lengthAdjust="spacing" textLength="15" x="487.5" y="2187.897">A7</text></g><!--link Bm to G3--><g id="link_Bm_G3"><path codeLine="175" d="M434.22,2197.9 C458.82,2215.55 526.8051,2264.3121 551.1251,2281.7621 " fill="none" id="Bm-to-G3" style="stroke:#181818;stroke-width:1.0;"/><polygon fill="#181818" points="556,2285.26,551.0195,2276.7633,551.9375,2282.3451,546.3557,2283.2632,556,2285.26" style="stroke:#181818;stroke-width:1.0;"/><text fill="#000000" font-family="sans-serif" font-size="13" lengthAdjust="spacing" textLength="16" x="487" y="2228.897">D7</text></g><!--SRC=[VPRRQjmm48Rl_HHYVT4M6cZbq41W2wFZJL9Atw1Ajir2t41sANtyQWwI3_Bc9Z0ZE_xyQVHxdm-_pkhyebwFlv_Ewl7uUdWu7r_-TE_Kj-FVmxFwTAjizt1yVNW-AAlw4BwOBwQhov_Lu-7qc9TkrVUz7J-g7tl8V-_sVgntZQg_zjRPwzA1fkEdJcVLrTLNlEjMnHkf02jVAe-LkPaeTA4O2UFzuT_nT3vyG1gVa0PIVLAgBr5ecixExjJFaxBt6MPacdkXuJB_amoGQWrO-xH114G4I3B3kjk7-lJrmyD56jrr8CzZ6r3WDDD97N9bDrWyiNXaYSXGWQgRzQFZHPQXwxouuBsGAkRArIfVnsILPIWiYLWIJOmTvshYEErLCoYnwUpio4nZzfCtXlTdb0sIHbva4AdZo9mD5n0NC5UWIPxefebfAC8RNDaL99cJKGP56c7alOA2USaN4DOud-pGCrvVVUroYvuPJayRFB9ejnQ1rm0bWXmvBLF6f7XNPkrBmt8ZzXkq0Ma3ENG42Or3zmR3CBsGl0zY1J6cMHcN3XcWL43-_DQyqRWj_6KVYx6RUOoYAcwfyhpcCzEMMfn2IIajHwFwqYACEv4DkYs34NaZ6VGBJ5CfpHjeay4eRu9SKMPVy_17mHmOaqk3I66ET5sFBET7cakC5A-sncjimjIsyUeJOoOwiILITJso4YKOgcxMiDY8QGCj4bcSWna2cs2hjHOdiY7TykMJYxQ8faYJsY1CcEfyiV0tTC3YO27EfiNde0eCBHym3gJPm77Bea58vIEaQxWKOLgCbKv0Qhi56OWnp15XWUWgeciH0nzJtJ9dXK4KXN9ofGPIXi2bun0FDl5wvki9RC4rIxyIVci-rpfbF8mLF8MIS19mjGKIWRNXE6qQFCjubl3y70_M0vZ3ecH5Up1uxlGQCqkq1S4I9gP8RNa9cjg0TGmMJaUORl4PMT0sERrpXE3qUg-7DhVpZpSddZIBaZ8ClFDIvYily4Ns6CcZeHFS0CM-PFFQdxaa5CznSHF97uPkRHc9lDhmm-e7Pk4pX6Vc_jpY8zBG6Y8mUkrpMCTFPZI2euL7QZUmJ2dZm4dq7m00]--></g></svg>