<?xml version="1.0" encoding="us-ascii" standalone="no"?><svg xmlns="http://www.w3.org/2000/svg" xmlns:xlink="http://www.w3.org/1999/xlink" contentStyleType="text/css" height="530px" preserveAspectRatio="none" style="width:2085px;height:530px;background:#FFFFFF;" version="1.1" viewBox="0 0 2085 530" width="2085px" zoomAndPan="magnify"><defs/><g><!--entity C--><g id="elem_C"><ellipse cx="1097.5" cy="14" fill="#FF6B6B" rx="8" ry="8" style="stroke:#181818;stroke-width:0.5;"/><text fill="#000000" font-family="Arial" font-size="14" lengthAdjust="spacing" textLength="9" x="1093" y="45.9659">C</text></g><!--entity Cm--><g id="elem_Cm"><ellipse cx="462.5" cy="133" fill="#4ECDC4" rx="8" ry="8" style="stroke:#181818;stroke-width:0.5;"/><text fill="#000000" font-family="Arial" font-size="14" lengthAdjust="spacing" textLength="22" x="451.5" y="164.9659">Cm</text></g><!--entity Am--><g id="elem_Am"><ellipse cx="1097.5" cy="133" fill="#4ECDC4" rx="8" ry="8" style="stroke:#181818;stroke-width:0.5;"/><text fill="#000000" font-family="Arial" font-size="14" lengthAdjust="spacing" textLength="22" x="1086.5" y="164.9659">Am</text></g><!--entity Em--><g id="elem_Em"><ellipse cx="1693.5" cy="133" fill="#4ECDC4" rx="8" ry="8" style="stroke:#181818;stroke-width:0.5;"/><text fill="#000000" font-family="Arial" font-size="14" lengthAdjust="spacing" textLength="21" x="1683" y="164.9659">Em</text></g><!--entity Eb--><g id="elem_Eb"><ellipse cx="213.5" cy="252" fill="#FF6B6B" rx="8" ry="8" style="stroke:#181818;stroke-width:0.5;"/><text fill="#000000" font-family="Arial" font-size="14" lengthAdjust="spacing" textLength="17" x="205" y="283.9659">Eb</text></g><!--entity Ab--><g id="elem_Ab"><ellipse cx="410.5" cy="252" fill="#FF6B6B" rx="8" ry="8" style="stroke:#181818;stroke-width:0.5;"/><text fill="#000000" font-family="Arial" font-size="14" lengthAdjust="spacing" textLength="18" x="401.5" y="283.9659">Ab</text></g><!--entity CM--><g id="elem_CM"><ellipse cx="489.5" cy="252" fill="#F1F1F1" rx="8" ry="8" style="stroke:#181818;stroke-width:0.5;"/><text fill="#000000" font-family="Arial" font-size="14" lengthAdjust="spacing" textLength="9" x="485" y="283.9659">C</text></g><!--entity A--><g id="elem_A"><ellipse cx="850.5" cy="252" fill="#FF6B6B" rx="8" ry="8" style="stroke:#181818;stroke-width:0.5;"/><text fill="#000000" font-family="Arial" font-size="14" lengthAdjust="spacing" textLength="9" x="846" y="283.9659">A</text></g><!--entity F--><g id="elem_F"><ellipse cx="1097.5" cy="252" fill="#FF6B6B" rx="8" ry="8" style="stroke:#181818;stroke-width:0.5;"/><text fill="#000000" font-family="Arial" font-size="14" lengthAdjust="spacing" textLength="7" x="1094" y="283.9659">F</text></g><!--entity CM2--><g id="elem_CM2"><ellipse cx="1176.5" cy="252" fill="#F1F1F1" rx="8" ry="8" style="stroke:#181818;stroke-width:0.5;"/><text fill="#000000" font-family="Arial" font-size="14" lengthAdjust="spacing" textLength="9" x="1172" y="283.9659">C</text></g><!--entity E--><g id="elem_E"><ellipse cx="1635.5" cy="252" fill="#FF6B6B" rx="8" ry="8" style="stroke:#181818;stroke-width:0.5;"/><text fill="#000000" font-family="Arial" font-size="14" lengthAdjust="spacing" textLength="8" x="1631.5" y="283.9659">E</text></g><!--entity G--><g id="elem_G"><ellipse cx="1753.5" cy="252" fill="#FF6B6B" rx="8" ry="8" style="stroke:#181818;stroke-width:0.5;"/><text fill="#000000" font-family="Arial" font-size="14" lengthAdjust="spacing" textLength="10" x="1748.5" y="283.9659">G</text></g><!--entity CM3--><g id="elem_CM3"><ellipse cx="1832.5" cy="252" fill="#F1F1F1" rx="8" ry="8" style="stroke:#181818;stroke-width:0.5;"/><text fill="#000000" font-family="Arial" font-size="14" lengthAdjust="spacing" textLength="9" x="1828" y="283.9659">C</text></g><!--entity Ebm--><g id="elem_Ebm"><ellipse cx="94.5" cy="371" fill="#4ECDC4" rx="8" ry="8" style="stroke:#181818;stroke-width:0.5;"/><text fill="#000000" font-family="Arial" font-size="14" lengthAdjust="spacing" textLength="30" x="79.5" y="402.9659">Ebm</text></g><!--entity Gm--><g id="elem_Gm"><ellipse cx="173.5" cy="371" fill="#4ECDC4" rx="8" ry="8" style="stroke:#181818;stroke-width:0.5;"/><text fill="#000000" font-family="Arial" font-size="14" lengthAdjust="spacing" textLength="23" x="162" y="402.9659">Gm</text></g><!--entity Cm2--><g id="elem_Cm2"><ellipse cx="252.5" cy="371" fill="#F1F1F1" rx="8" ry="8" style="stroke:#181818;stroke-width:0.5;"/><text fill="#000000" font-family="Arial" font-size="14" lengthAdjust="spacing" textLength="22" x="241.5" y="402.9659">Cm</text></g><!--entity Abm--><g id="elem_Abm"><ellipse cx="331.5" cy="371" fill="#4ECDC4" rx="8" ry="8" style="stroke:#181818;stroke-width:0.5;"/><text fill="#000000" font-family="Arial" font-size="14" lengthAdjust="spacing" textLength="31" x="316" y="402.9659">Abm</text></g><!--entity Fm--><g id="elem_Fm"><ellipse cx="410.5" cy="371" fill="#4ECDC4" rx="8" ry="8" style="stroke:#181818;stroke-width:0.5;"/><text fill="#000000" font-family="Arial" font-size="14" lengthAdjust="spacing" textLength="20" x="400.5" y="402.9659">Fm</text></g><!--entity Cm3--><g id="elem_Cm3"><ellipse cx="489.5" cy="371" fill="#F1F1F1" rx="8" ry="8" style="stroke:#181818;stroke-width:0.5;"/><text fill="#000000" font-family="Arial" font-size="14" lengthAdjust="spacing" textLength="22" x="478.5" y="402.9659">Cm</text></g><!--entity Fshm--><g id="elem_Fshm"><ellipse cx="607.5" cy="371" fill="#4ECDC4" rx="8" ry="8" style="stroke:#181818;stroke-width:0.5;"/><text fill="#000000" font-family="Arial" font-size="14" lengthAdjust="spacing" textLength="29" x="593" y="402.9659">F#m</text></g><!--entity Cshm--><g id="elem_Cshm"><ellipse cx="805.5" cy="371" fill="#4ECDC4" rx="8" ry="8" style="stroke:#181818;stroke-width:0.5;"/><text fill="#000000" font-family="Arial" font-size="14" lengthAdjust="spacing" textLength="31" x="790" y="402.9659">C#m</text></g><!--entity Am2--><g id="elem_Am2"><ellipse cx="884.5" cy="371" fill="#F1F1F1" rx="8" ry="8" style="stroke:#181818;stroke-width:0.5;"/><text fill="#000000" font-family="Arial" font-size="14" lengthAdjust="spacing" textLength="22" x="873.5" y="402.9659">Am</text></g><!--entity Dm--><g id="elem_Dm"><ellipse cx="1042.5" cy="371" fill="#4ECDC4" rx="8" ry="8" style="stroke:#181818;stroke-width:0.5;"/><text fill="#000000" font-family="Arial" font-size="14" lengthAdjust="spacing" textLength="23" x="1031" y="402.9659">Dm</text></g><!--entity Am3--><g id="elem_Am3"><ellipse cx="1121.5" cy="371" fill="#F1F1F1" rx="8" ry="8" style="stroke:#181818;stroke-width:0.5;"/><text fill="#000000" font-family="Arial" font-size="14" lengthAdjust="spacing" textLength="22" x="1110.5" y="402.9659">Am</text></g><!--entity Fm2--><g id="elem_Fm2"><ellipse cx="1240.5" cy="371" fill="#F1F1F1" rx="8" ry="8" style="stroke:#181818;stroke-width:0.5;"/><text fill="#000000" font-family="Arial" font-size="14" lengthAdjust="spacing" textLength="20" x="1230.5" y="402.9659">Fm</text></g><!--entity Gshm--><g id="elem_Gshm"><ellipse cx="1516.5" cy="371" fill="#4ECDC4" rx="8" ry="8" style="stroke:#181818;stroke-width:0.5;"/><text fill="#000000" font-family="Arial" font-size="14" lengthAdjust="spacing" textLength="32" x="1500.5" y="402.9659">G#m</text></g><!--entity Em2--><g id="elem_Em2"><ellipse cx="1595.5" cy="371" fill="#F1F1F1" rx="8" ry="8" style="stroke:#181818;stroke-width:0.5;"/><text fill="#000000" font-family="Arial" font-size="14" lengthAdjust="spacing" textLength="21" x="1585" y="402.9659">Em</text></g><!--entity Cshm2--><g id="elem_Cshm2"><ellipse cx="1674.5" cy="371" fill="#F1F1F1" rx="8" ry="8" style="stroke:#181818;stroke-width:0.5;"/><text fill="#000000" font-family="Arial" font-size="14" lengthAdjust="spacing" textLength="31" x="1659" y="402.9659">C#m</text></g><!--entity Bm--><g id="elem_Bm"><ellipse cx="1753.5" cy="371" fill="#4ECDC4" rx="8" ry="8" style="stroke:#181818;stroke-width:0.5;"/><text fill="#000000" font-family="Arial" font-size="14" lengthAdjust="spacing" textLength="22" x="1742.5" y="402.9659">Bm</text></g><!--entity Em3--><g id="elem_Em3"><ellipse cx="1832.5" cy="371" fill="#F1F1F1" rx="8" ry="8" style="stroke:#181818;stroke-width:0.5;"/><text fill="#000000" font-family="Arial" font-size="14" lengthAdjust="spacing" textLength="21" x="1822" y="402.9659">Em</text></g><!--entity Gm2--><g id="elem_Gm2"><ellipse cx="1950.5" cy="371" fill="#F1F1F1" rx="8" ry="8" style="stroke:#181818;stroke-width:0.5;"/><text fill="#000000" font-family="Arial" font-size="14" lengthAdjust="spacing" textLength="23" x="1939" y="402.9659">Gm</text></g><!--entity Gb--><g id="elem_Gb"><ellipse cx="15.5" cy="490" fill="#FF6B6B" rx="8" ry="8" style="stroke:#181818;stroke-width:0.5;"/><text fill="#000000" font-family="Arial" font-size="14" lengthAdjust="spacing" textLength="19" x="6" y="521.9659">Gb</text></g><!--entity Cb--><g id="elem_Cb"><ellipse cx="94.5" cy="490" fill="#FF6B6B" rx="8" ry="8" style="stroke:#181818;stroke-width:0.5;"/><text fill="#000000" font-family="Arial" font-size="14" lengthAdjust="spacing" textLength="18" x="85.5" y="521.9659">Cb</text></g><!--entity Eb2--><g id="elem_Eb2"><ellipse cx="173.5" cy="490" fill="#F1F1F1" rx="8" ry="8" style="stroke:#181818;stroke-width:0.5;"/><text fill="#000000" font-family="Arial" font-size="14" lengthAdjust="spacing" textLength="17" x="165" y="521.9659">Eb</text></g><!--entity Bb--><g id="elem_Bb"><ellipse cx="1911.5" cy="490" fill="#FF6B6B" rx="8" ry="8" style="stroke:#181818;stroke-width:0.5;"/><text fill="#000000" font-family="Arial" font-size="14" lengthAdjust="spacing" textLength="18" x="1902.5" y="521.9659">Bb</text></g><!--entity G2--><g id="elem_G2"><ellipse cx="1990.5" cy="490" fill="#F1F1F1" rx="8" ry="8" style="stroke:#181818;stroke-width:0.5;"/><text fill="#000000" font-family="Arial" font-size="14" lengthAdjust="spacing" textLength="10" x="1985.5" y="521.9659">G</text></g><!--entity Eb3--><g id="elem_Eb3"><ellipse cx="2069.5" cy="490" fill="#F1F1F1" rx="8" ry="8" style="stroke:#181818;stroke-width:0.5;"/><text fill="#000000" font-family="Arial" font-size="14" lengthAdjust="spacing" textLength="17" x="2061" y="521.9659">Eb</text></g><!--entity Fb--><g id="elem_Fb"><ellipse cx="252.5" cy="490" fill="#FF6B6B" rx="8" ry="8" style="stroke:#181818;stroke-width:0.5;"/><text fill="#000000" font-family="Arial" font-size="14" lengthAdjust="spacing" textLength="16" x="244.5" y="521.9659">Fb</text></g><!--entity Ab2--><g id="elem_Ab2"><ellipse cx="331.5" cy="490" fill="#F1F1F1" rx="8" ry="8" style="stroke:#181818;stroke-width:0.5;"/><text fill="#000000" font-family="Arial" font-size="14" lengthAdjust="spacing" textLength="18" x="322.5" y="521.9659">Ab</text></g><!--entity Cb2--><g id="elem_Cb2"><ellipse cx="410.5" cy="490" fill="#F1F1F1" rx="8" ry="8" style="stroke:#181818;stroke-width:0.5;"/><text fill="#000000" font-family="Arial" font-size="14" lengthAdjust="spacing" textLength="18" x="401.5" y="521.9659">Cb</text></g><!--entity Db--><g id="elem_Db"><ellipse cx="1200.5" cy="490" fill="#FF6B6B" rx="8" ry="8" style="stroke:#181818;stroke-width:0.5;"/><text fill="#000000" font-family="Arial" font-size="14" lengthAdjust="spacing" textLength="19" x="1191" y="521.9659">Db</text></g><!--entity F2--><g id="elem_F2"><ellipse cx="1279.5" cy="490" fill="#F1F1F1" rx="8" ry="8" style="stroke:#181818;stroke-width:0.5;"/><text fill="#000000" font-family="Arial" font-size="14" lengthAdjust="spacing" textLength="7" x="1276" y="521.9659">F</text></g><!--entity Ab3--><g id="elem_Ab3"><ellipse cx="1358.5" cy="490" fill="#F1F1F1" rx="8" ry="8" style="stroke:#181818;stroke-width:0.5;"/><text fill="#000000" font-family="Arial" font-size="14" lengthAdjust="spacing" textLength="18" x="1349.5" y="521.9659">Ab</text></g><!--entity Fsh--><g id="elem_Fsh"><ellipse cx="489.5" cy="490" fill="#FF6B6B" rx="8" ry="8" style="stroke:#181818;stroke-width:0.5;"/><text fill="#000000" font-family="Arial" font-size="14" lengthAdjust="spacing" textLength="16" x="481.5" y="521.9659">F#</text></g><!--entity D--><g id="elem_D"><ellipse cx="568.5" cy="490" fill="#FF6B6B" rx="8" ry="8" style="stroke:#181818;stroke-width:0.5;"/><text fill="#000000" font-family="Arial" font-size="14" lengthAdjust="spacing" textLength="10" x="563.5" y="521.9659">D</text></g><!--entity A2--><g id="elem_A2"><ellipse cx="647.5" cy="490" fill="#F1F1F1" rx="8" ry="8" style="stroke:#181818;stroke-width:0.5;"/><text fill="#000000" font-family="Arial" font-size="14" lengthAdjust="spacing" textLength="9" x="643" y="521.9659">A</text></g><!--entity Csh--><g id="elem_Csh"><ellipse cx="726.5" cy="490" fill="#FF6B6B" rx="8" ry="8" style="stroke:#181818;stroke-width:0.5;"/><text fill="#000000" font-family="Arial" font-size="14" lengthAdjust="spacing" textLength="18" x="717.5" y="521.9659">C#</text></g><!--entity E2--><g id="elem_E2"><ellipse cx="805.5" cy="490" fill="#F1F1F1" rx="8" ry="8" style="stroke:#181818;stroke-width:0.5;"/><text fill="#000000" font-family="Arial" font-size="14" lengthAdjust="spacing" textLength="8" x="801.5" y="521.9659">E</text></g><!--entity A3--><g id="elem_A3"><ellipse cx="884.5" cy="490" fill="#F1F1F1" rx="8" ry="8" style="stroke:#181818;stroke-width:0.5;"/><text fill="#000000" font-family="Arial" font-size="14" lengthAdjust="spacing" textLength="9" x="880" y="521.9659">A</text></g><!--entity D2--><g id="elem_D2"><ellipse cx="963.5" cy="490" fill="#F1F1F1" rx="8" ry="8" style="stroke:#181818;stroke-width:0.5;"/><text fill="#000000" font-family="Arial" font-size="14" lengthAdjust="spacing" textLength="10" x="958.5" y="521.9659">D</text></g><!--entity F3--><g id="elem_F3"><ellipse cx="1042.5" cy="490" fill="#F1F1F1" rx="8" ry="8" style="stroke:#181818;stroke-width:0.5;"/><text fill="#000000" font-family="Arial" font-size="14" lengthAdjust="spacing" textLength="7" x="1039" y="521.9659">F</text></g><!--entity Am4--><g id="elem_Am4"><ellipse cx="1121.5" cy="490" fill="#F1F1F1" rx="8" ry="8" style="stroke:#181818;stroke-width:0.5;"/><text fill="#000000" font-family="Arial" font-size="14" lengthAdjust="spacing" textLength="22" x="1110.5" y="521.9659">Am</text></g><!--entity Gsh--><g id="elem_Gsh"><ellipse cx="1437.5" cy="490" fill="#FF6B6B" rx="8" ry="8" style="stroke:#181818;stroke-width:0.5;"/><text fill="#000000" font-family="Arial" font-size="14" lengthAdjust="spacing" textLength="19" x="1428" y="521.9659">G#</text></g><!--entity B--><g id="elem_B"><ellipse cx="1516.5" cy="490" fill="#FF6B6B" rx="8" ry="8" style="stroke:#181818;stroke-width:0.5;"/><text fill="#000000" font-family="Arial" font-size="14" lengthAdjust="spacing" textLength="9" x="1512" y="521.9659">B</text></g><!--entity E3--><g id="elem_E3"><ellipse cx="1595.5" cy="490" fill="#F1F1F1" rx="8" ry="8" style="stroke:#181818;stroke-width:0.5;"/><text fill="#000000" font-family="Arial" font-size="14" lengthAdjust="spacing" textLength="8" x="1591.5" y="521.9659">E</text></g><!--entity B2--><g id="elem_B2"><ellipse cx="1674.5" cy="490" fill="#F1F1F1" rx="8" ry="8" style="stroke:#181818;stroke-width:0.5;"/><text fill="#000000" font-family="Arial" font-size="14" lengthAdjust="spacing" textLength="9" x="1670" y="521.9659">B</text></g><!--entity D3--><g id="elem_D3"><ellipse cx="1753.5" cy="490" fill="#F1F1F1" rx="8" ry="8" style="stroke:#181818;stroke-width:0.5;"/><text fill="#000000" font-family="Arial" font-size="14" lengthAdjust="spacing" textLength="10" x="1748.5" y="521.9659">D</text></g><!--entity G3--><g id="elem_G3"><ellipse cx="1832.5" cy="490" fill="#F1F1F1" rx="8" ry="8" style="stroke:#181818;stroke-width:0.5;"/><text fill="#000000" font-family="Arial" font-size="14" lengthAdjust="spacing" textLength="10" x="1827.5" y="521.9659">G</text></g><!--link C to Cm--><g id="link_C_Cm"><path codeLine="13" d="M1088.28,16.7 C1016.14,29.99 549.1106,116.0426 477.4806,129.2426 " fill="none" id="C-to-Cm" style="stroke:#181818;stroke-width:1.0;"/><polygon fill="#181818" points="471.58,130.33,481.1559,132.6327,476.4972,129.4239,479.7061,124.7652,471.58,130.33" style="stroke:#181818;stroke-width:1.0;"/><text fill="#000000" font-family="Arial" font-size="13" lengthAdjust="spacing" textLength="16" x="819.5" y="78.897">G7</text></g><!--link C to Am--><g id="link_C_Am"><path codeLine="14" d="M1097.5,23.04 C1097.5,44.42 1097.5,96.46 1097.5,117.9 " fill="none" id="C-to-Am" style="stroke:#181818;stroke-width:1.0;"/><polygon fill="#181818" points="1097.5,123.9,1101.5,114.9,1097.5,118.9,1093.5,114.9,1097.5,123.9" style="stroke:#181818;stroke-width:1.0;"/><text fill="#000000" font-family="Arial" font-size="13" lengthAdjust="spacing" textLength="14" x="1098.5" y="78.897">E7</text></g><!--link C to Em--><g id="link_C_Em"><path codeLine="15" d="M1106.86,16.84 C1176.61,30.53 1608.5924,115.3341 1678.2724,129.0141 " fill="none" id="C-to-Em" style="stroke:#181818;stroke-width:1.0;"/><polygon fill="#181818" points="1684.16,130.17,1676.0992,124.5111,1679.2537,129.2068,1674.558,132.3612,1684.16,130.17" style="stroke:#181818;stroke-width:1.0;"/><text fill="#000000" font-family="Arial" font-size="13" lengthAdjust="spacing" textLength="15" x="1432.5" y="78.897">B7</text></g><!--link Cm to CM--><g id="link_Cm_CM"><path codeLine="22" d="M464.36,142.04 C469.29,163.42 481.3302,215.6138 486.2802,237.0538 " fill="none" id="Cm-to-CM" style="stroke:#181818;stroke-width:1.0;"/><polygon fill="#181818" points="487.63,242.9,489.5028,233.2308,486.5052,238.0282,481.7079,235.0305,487.63,242.9" style="stroke:#181818;stroke-width:1.0;"/><text fill="#000000" font-family="Arial" font-size="13" lengthAdjust="spacing" textLength="16" x="479.5" y="197.897">G7</text></g><!--link Cm to Eb--><g id="link_Cm_Eb"><path codeLine="23" d="M453.34,138.3 C414.3,156.65 267.3806,225.6888 228.1706,244.1088 " fill="none" id="Cm-to-Eb" style="stroke:#181818;stroke-width:1.0;"/><polygon fill="#181818" points="222.74,246.66,232.5867,246.4536,227.2655,244.534,229.1851,239.2128,222.74,246.66" style="stroke:#181818;stroke-width:1.0;"/><text fill="#000000" font-family="Arial" font-size="13" lengthAdjust="spacing" textLength="23" x="354.5" y="197.897">Bb7</text></g><!--link Cm to Ab--><g id="link_Cm_Ab"><path codeLine="24" d="M458.93,142.04 C449.43,163.42 426.0671,215.9772 416.5371,237.4172 " fill="none" id="Cm-to-Ab" style="stroke:#181818;stroke-width:1.0;"/><polygon fill="#181818" points="414.1,242.9,421.4108,236.3006,416.1309,238.331,414.1004,233.0511,414.1,242.9" style="stroke:#181818;stroke-width:1.0;"/><text fill="#000000" font-family="Arial" font-size="13" lengthAdjust="spacing" textLength="22" x="441.5" y="197.897">Eb7</text></g><!--link Am to A--><g id="link_Am_A"><path codeLine="31" d="M1088.42,138.3 C1049.69,156.65 903.9825,225.6717 865.0925,244.0917 " fill="none" id="Am-to-A" style="stroke:#181818;stroke-width:1.0;"/><polygon fill="#181818" points="859.67,246.66,869.516,246.4225,864.1888,244.5197,866.0915,239.1925,859.67,246.66" style="stroke:#181818;stroke-width:1.0;"/><text fill="#000000" font-family="Arial" font-size="13" lengthAdjust="spacing" textLength="14" x="990.5" y="197.897">E7</text></g><!--link Am to CM2--><g id="link_Am_CM2"><path codeLine="32" d="M1102.93,142.04 C1117.36,163.42 1153.2035,216.4867 1167.6735,237.9267 " fill="none" id="Am-to-CM2" style="stroke:#181818;stroke-width:1.0;"/><polygon fill="#181818" points="1171.03,242.9,1169.3108,233.2024,1168.2329,238.7556,1162.6797,237.6777,1171.03,242.9" style="stroke:#181818;stroke-width:1.0;"/><text fill="#000000" font-family="Arial" font-size="13" lengthAdjust="spacing" textLength="16" x="1143.5" y="197.897">G7</text></g><!--link Am to F--><g id="link_Am_F"><path codeLine="33" d="M1097.5,142.04 C1097.5,163.42 1097.5,215.46 1097.5,236.9 " fill="none" id="Am-to-F" style="stroke:#181818;stroke-width:1.0;"/><polygon fill="#181818" points="1097.5,242.9,1101.5,233.9,1097.5,237.9,1093.5,233.9,1097.5,242.9" style="stroke:#181818;stroke-width:1.0;"/><text fill="#000000" font-family="Arial" font-size="13" lengthAdjust="spacing" textLength="15" x="1098.5" y="197.897">C7</text></g><!--link Em to E--><g id="link_Em_E"><path codeLine="40" d="M1689.51,142.04 C1678.92,163.42 1652.8052,216.0844 1642.1752,237.5244 " fill="none" id="Em-to-E" style="stroke:#181818;stroke-width:1.0;"/><polygon fill="#181818" points="1639.51,242.9,1647.0915,236.6135,1641.731,238.4204,1639.9241,233.0599,1639.51,242.9" style="stroke:#181818;stroke-width:1.0;"/><text fill="#000000" font-family="Arial" font-size="13" lengthAdjust="spacing" textLength="15" x="1668.5" y="197.897">B7</text></g><!--link Em to G--><g id="link_Em_G"><path codeLine="41" d="M1697.62,142.04 C1708.59,163.42 1735.6111,216.1216 1746.6111,237.5616 " fill="none" id="Em-to-G" style="stroke:#181818;stroke-width:1.0;"/><polygon fill="#181818" points="1749.35,242.9,1748.8006,233.0665,1747.0676,238.4513,1741.6827,236.7184,1749.35,242.9" style="stroke:#181818;stroke-width:1.0;"/><text fill="#000000" font-family="Arial" font-size="13" lengthAdjust="spacing" textLength="16" x="1727.5" y="197.897">D7</text></g><!--link Em to CM3--><g id="link_Em_CM3"><path codeLine="42" d="M1702.62,141.68 C1727.75,162.83 1793.1894,217.9165 1818.5694,239.2765 " fill="none" id="Em-to-CM3" style="stroke:#181818;stroke-width:1.0;"/><polygon fill="#181818" points="1823.16,243.14,1818.8498,234.2844,1819.3345,239.9204,1813.6985,240.4052,1823.16,243.14" style="stroke:#181818;stroke-width:1.0;"/><text fill="#000000" font-family="Arial" font-size="13" lengthAdjust="spacing" textLength="16" x="1771.5" y="197.897">G7</text></g><!--link Eb to Ebm--><g id="link_Eb_Ebm"><path codeLine="49" d="M204.36,261.18 C193.68,270.79 175.57,287.3 160.5,302 C138.84,323.14 118.3337,344.6522 106.1937,357.5422 " fill="none" id="Eb-to-Ebm" style="stroke:#181818;stroke-width:1.0;"/><polygon fill="#181818" points="102.08,361.91,111.1624,358.1007,105.5081,358.2702,105.3386,352.6158,102.08,361.91" style="stroke:#181818;stroke-width:1.0;"/><text fill="#000000" font-family="Arial" font-size="13" lengthAdjust="spacing" textLength="23" x="161.5" y="316.897">Bb7</text></g><!--link Eb to Cm2--><g id="link_Eb_Cm2"><path codeLine="50" d="M216.18,261.04 C223.31,282.42 240.7518,334.7682 247.9018,356.2082 " fill="none" id="Eb-to-Cm2" style="stroke:#181818;stroke-width:1.0;"/><polygon fill="#181818" points="249.8,361.9,250.7473,352.0968,248.2182,357.1568,243.1582,354.6277,249.8,361.9" style="stroke:#181818;stroke-width:1.0;"/><text fill="#000000" font-family="Arial" font-size="13" lengthAdjust="spacing" textLength="16" x="236.5" y="316.897">G7</text></g><!--link Eb to Gm--><g id="link_Eb_Gm"><path codeLine="51" d="M210.75,261.04 C203.44,282.42 185.541,334.7826 178.211,356.2226 " fill="none" id="Eb-to-Gm" style="stroke:#181818;stroke-width:1.0;"/><polygon fill="#181818" points="176.27,361.9,182.9664,354.678,177.8875,357.1689,175.3966,352.0899,176.27,361.9" style="stroke:#181818;stroke-width:1.0;"/><text fill="#000000" font-family="Arial" font-size="13" lengthAdjust="spacing" textLength="16" x="197.5" y="316.897">D7</text></g><!--link Ab to Abm--><g id="link_Ab_Abm"><path codeLine="58" d="M405.07,261.04 C390.64,282.42 354.7965,335.4867 340.3265,356.9267 " fill="none" id="Ab-to-Abm" style="stroke:#181818;stroke-width:1.0;"/><polygon fill="#181818" points="336.97,361.9,345.3203,356.6777,339.7671,357.7556,338.6892,352.2024,336.97,361.9" style="stroke:#181818;stroke-width:1.0;"/><text fill="#000000" font-family="Arial" font-size="13" lengthAdjust="spacing" textLength="22" x="377.5" y="316.897">Eb7</text></g><!--link Ab to Fm--><g id="link_Ab_Fm"><path codeLine="59" d="M410.5,261.04 C410.5,282.42 410.5,334.46 410.5,355.9 " fill="none" id="Ab-to-Fm" style="stroke:#181818;stroke-width:1.0;"/><polygon fill="#181818" points="410.5,361.9,414.5,352.9,410.5,356.9,406.5,352.9,410.5,361.9" style="stroke:#181818;stroke-width:1.0;"/><text fill="#000000" font-family="Arial" font-size="13" lengthAdjust="spacing" textLength="15" x="411.5" y="316.897">C7</text></g><!--link Ab to Cm3--><g id="link_Ab_Cm3"><path codeLine="60" d="M415.93,261.04 C430.36,282.42 466.2035,335.4867 480.6735,356.9267 " fill="none" id="Ab-to-Cm3" style="stroke:#181818;stroke-width:1.0;"/><polygon fill="#181818" points="484.03,361.9,482.3108,352.2024,481.2329,357.7556,475.6797,356.6777,484.03,361.9" style="stroke:#181818;stroke-width:1.0;"/><text fill="#000000" font-family="Arial" font-size="13" lengthAdjust="spacing" textLength="16" x="456.5" y="316.897">G7</text></g><!--link A to Am2--><g id="link_A_Am2"><path codeLine="67" d="M852.84,261.04 C859.05,282.42 874.2458,334.6983 880.4758,356.1383 " fill="none" id="A-to-Am2" style="stroke:#181818;stroke-width:1.0;"/><polygon fill="#181818" points="882.15,361.9,883.4798,352.1413,880.7548,357.0986,875.7975,354.3736,882.15,361.9" style="stroke:#181818;stroke-width:1.0;"/><text fill="#000000" font-family="Arial" font-size="13" lengthAdjust="spacing" textLength="14" x="871.5" y="316.897">E7</text></g><!--link A to Fshm--><g id="link_A_Fshm"><path codeLine="68" d="M841.27,257.44 C802.78,275.98 660.6561,344.4073 622.1461,362.9473 " fill="none" id="A-to-Fshm" style="stroke:#181818;stroke-width:1.0;"/><polygon fill="#181818" points="616.74,365.55,626.5843,365.2501,621.2451,363.3811,623.114,358.0419,616.74,365.55" style="stroke:#181818;stroke-width:1.0;"/><text fill="#000000" font-family="Arial" font-size="13" lengthAdjust="spacing" textLength="23" x="745.5" y="316.897">C#7</text></g><!--link A to Cshm--><g id="link_A_Cshm"><path codeLine="69" d="M847.41,261.04 C839.19,282.42 819.0147,334.8603 810.7647,356.3003 " fill="none" id="A-to-Cshm" style="stroke:#181818;stroke-width:1.0;"/><polygon fill="#181818" points="808.61,361.9,815.5753,354.9369,810.4056,357.2336,808.109,352.0639,808.61,361.9" style="stroke:#181818;stroke-width:1.0;"/><text fill="#000000" font-family="Arial" font-size="13" lengthAdjust="spacing" textLength="24" x="832.5" y="316.897">G#7</text></g><!--link F to Fm2--><g id="link_F_Fm2"><path codeLine="76" d="M1106.88,260.68 C1132.86,281.93 1200.8362,337.5507 1226.6262,358.6507 " fill="none" id="F-to-Fm2" style="stroke:#181818;stroke-width:1.0;"/><polygon fill="#181818" points="1231.27,362.45,1226.8371,353.6551,1227.4001,359.2839,1221.7714,359.8469,1231.27,362.45" style="stroke:#181818;stroke-width:1.0;"/><text fill="#000000" font-family="Arial" font-size="13" lengthAdjust="spacing" textLength="15" x="1179.5" y="316.897">C7</text></g><!--link F to Dm--><g id="link_F_Dm"><path codeLine="77" d="M1093.72,261.04 C1083.67,282.42 1058.9308,335.0292 1048.8608,356.4692 " fill="none" id="F-to-Dm" style="stroke:#181818;stroke-width:1.0;"/><polygon fill="#181818" points="1046.31,361.9,1053.7567,355.4543,1048.4356,357.3743,1046.5156,352.0533,1046.31,361.9" style="stroke:#181818;stroke-width:1.0;"/><text fill="#000000" font-family="Arial" font-size="13" lengthAdjust="spacing" textLength="15" x="1074.5" y="316.897">A7</text></g><!--link F to Am3--><g id="link_F_Am3"><path codeLine="78" d="M1099.15,261.04 C1103.53,282.42 1114.2338,334.5825 1118.6338,356.0225 " fill="none" id="F-to-Am3" style="stroke:#181818;stroke-width:1.0;"/><polygon fill="#181818" points="1119.84,361.9,1121.949,352.2796,1118.8348,357.0021,1114.1124,353.8879,1119.84,361.9" style="stroke:#181818;stroke-width:1.0;"/><text fill="#000000" font-family="Arial" font-size="13" lengthAdjust="spacing" textLength="14" x="1112.5" y="316.897">E7</text></g><!--link E to Em2--><g id="link_E_Em2"><path codeLine="85" d="M1632.75,261.04 C1625.44,282.42 1607.541,334.7826 1600.211,356.2226 " fill="none" id="E-to-Em2" style="stroke:#181818;stroke-width:1.0;"/><polygon fill="#181818" points="1598.27,361.9,1604.9664,354.678,1599.8875,357.1689,1597.3966,352.0899,1598.27,361.9" style="stroke:#181818;stroke-width:1.0;"/><text fill="#000000" font-family="Arial" font-size="13" lengthAdjust="spacing" textLength="15" x="1618.5" y="316.897">B7</text></g><!--link E to Cshm2--><g id="link_E_Cshm2"><path codeLine="86" d="M1638.18,261.04 C1645.31,282.42 1662.7518,334.7682 1669.9018,356.2082 " fill="none" id="E-to-Cshm2" style="stroke:#181818;stroke-width:1.0;"/><polygon fill="#181818" points="1671.8,361.9,1672.7473,352.0968,1670.2182,357.1568,1665.1582,354.6277,1671.8,361.9" style="stroke:#181818;stroke-width:1.0;"/><text fill="#000000" font-family="Arial" font-size="13" lengthAdjust="spacing" textLength="24" x="1657.5" y="316.897">G#7</text></g><!--link E to Gshm--><g id="link_E_Gshm"><path codeLine="87" d="M1626.32,260.74 C1615.22,270.21 1596.08,286.84 1580.5,302 C1559.12,322.8 1539.4124,344.36 1527.7724,357.36 " fill="none" id="E-to-Gshm" style="stroke:#181818;stroke-width:1.0;"/><polygon fill="#181818" points="1523.77,361.83,1532.7536,357.7932,1527.1053,358.105,1526.7936,352.4567,1523.77,361.83" style="stroke:#181818;stroke-width:1.0;"/><text fill="#000000" font-family="Arial" font-size="13" lengthAdjust="spacing" textLength="24" x="1581.5" y="316.897">D#7</text></g><!--link G to Gm2--><g id="link_G_Gm2"><path codeLine="94" d="M1762.73,260.83 C1770.64,267.37 1782.48,276.78 1793.5,284 C1847.3,319.27 1911.3484,351.1181 1935.9584,363.0181 " fill="none" id="G-to-Gm2" style="stroke:#181818;stroke-width:1.0;"/><polygon fill="#181818" points="1941.36,365.63,1934.9988,358.111,1936.8586,363.4534,1931.5162,365.3132,1941.36,365.63" style="stroke:#181818;stroke-width:1.0;"/><text fill="#000000" font-family="Arial" font-size="13" lengthAdjust="spacing" textLength="16" x="1853.5" y="316.897">D7</text></g><!--link G to Em3--><g id="link_G_Em3"><path codeLine="95" d="M1758.93,261.04 C1773.36,282.42 1809.2035,335.4867 1823.6735,356.9267 " fill="none" id="G-to-Em3" style="stroke:#181818;stroke-width:1.0;"/><polygon fill="#181818" points="1827.03,361.9,1825.3108,352.2024,1824.2329,357.7556,1818.6797,356.6777,1827.03,361.9" style="stroke:#181818;stroke-width:1.0;"/><text fill="#000000" font-family="Arial" font-size="13" lengthAdjust="spacing" textLength="15" x="1798.5" y="316.897">B7</text></g><!--link G to Bm--><g id="link_G_Bm"><path codeLine="96" d="M1753.5,261.04 C1753.5,282.42 1753.5,334.46 1753.5,355.9 " fill="none" id="G-to-Bm" style="stroke:#181818;stroke-width:1.0;"/><polygon fill="#181818" points="1753.5,361.9,1757.5,352.9,1753.5,356.9,1749.5,352.9,1753.5,361.9" style="stroke:#181818;stroke-width:1.0;"/><text fill="#000000" font-family="Arial" font-size="13" lengthAdjust="spacing" textLength="22" x="1754.5" y="316.897">F#7</text></g><!--link Ebm to Eb2--><g id="link_Ebm_Eb2"><path codeLine="103" d="M99.93,380.04 C114.36,401.42 150.2035,454.4867 164.6735,475.9267 " fill="none" id="Ebm-to-Eb2" style="stroke:#181818;stroke-width:1.0;"/><polygon fill="#181818" points="168.03,480.9,166.3108,471.2024,165.2329,476.7556,159.6797,475.6777,168.03,480.9" style="stroke:#181818;stroke-width:1.0;"/><text fill="#000000" font-family="Arial" font-size="13" lengthAdjust="spacing" textLength="23" x="140.5" y="435.897">Bb7</text></g><!--link Ebm to Gb--><g id="link_Ebm_Gb"><path codeLine="104" d="M89.07,380.04 C74.64,401.42 38.7965,454.4867 24.3265,475.9267 " fill="none" id="Ebm-to-Gb" style="stroke:#181818;stroke-width:1.0;"/><polygon fill="#181818" points="20.97,480.9,29.3203,475.6777,23.7671,476.7556,22.6892,471.2024,20.97,480.9" style="stroke:#181818;stroke-width:1.0;"/><text fill="#000000" font-family="Arial" font-size="13" lengthAdjust="spacing" textLength="24" x="61.5" y="435.897">Db7</text></g><!--link Ebm to Cb--><g id="link_Ebm_Cb"><path codeLine="105" d="M94.5,380.04 C94.5,401.42 94.5,453.46 94.5,474.9 " fill="none" id="Ebm-to-Cb" style="stroke:#181818;stroke-width:1.0;"/><polygon fill="#181818" points="94.5,480.9,98.5,471.9,94.5,475.9,90.5,471.9,94.5,480.9" style="stroke:#181818;stroke-width:1.0;"/><text fill="#000000" font-family="Arial" font-size="13" lengthAdjust="spacing" textLength="24" x="95.5" y="435.897">Gb7</text></g><!--link Gm2 to G2--><g id="link_Gm2_G2"><path codeLine="112" d="M1953.25,380.04 C1960.56,401.42 1978.459,453.7826 1985.789,475.2226 " fill="none" id="Gm2-to-G2" style="stroke:#181818;stroke-width:1.0;"/><polygon fill="#181818" points="1987.73,480.9,1988.6034,471.0899,1986.1125,476.1689,1981.0336,473.678,1987.73,480.9" style="stroke:#181818;stroke-width:1.0;"/><text fill="#000000" font-family="Arial" font-size="13" lengthAdjust="spacing" textLength="16" x="1973.5" y="435.897">D7</text></g><!--link Gm2 to Bb--><g id="link_Gm2_Bb"><path codeLine="113" d="M1947.82,380.04 C1940.69,401.42 1923.2482,453.7682 1916.0982,475.2082 " fill="none" id="Gm2-to-Bb" style="stroke:#181818;stroke-width:1.0;"/><polygon fill="#181818" points="1914.2,480.9,1920.8418,473.6277,1915.7818,476.1568,1913.2527,471.0968,1914.2,480.9" style="stroke:#181818;stroke-width:1.0;"/><text fill="#000000" font-family="Arial" font-size="13" lengthAdjust="spacing" textLength="14" x="1933.5" y="435.897">F7</text></g><!--link Gm2 to Eb3--><g id="link_Gm2_Eb3"><path codeLine="114" d="M1958.68,380.04 C1980.42,401.42 2035.1822,455.2528 2056.9822,476.6928 " fill="none" id="Gm2-to-Eb3" style="stroke:#181818;stroke-width:1.0;"/><polygon fill="#181818" points="2061.26,480.9,2057.6481,471.7374,2057.6952,477.394,2052.0385,477.4411,2061.26,480.9" style="stroke:#181818;stroke-width:1.0;"/><text fill="#000000" font-family="Arial" font-size="13" lengthAdjust="spacing" textLength="23" x="2017.5" y="435.897">Bb7</text></g><!--link Abm to Ab2--><g id="link_Abm_Ab2"><path codeLine="121" d="M331.5,380.04 C331.5,401.42 331.5,453.46 331.5,474.9 " fill="none" id="Abm-to-Ab2" style="stroke:#181818;stroke-width:1.0;"/><polygon fill="#181818" points="331.5,480.9,335.5,471.9,331.5,475.9,327.5,471.9,331.5,480.9" style="stroke:#181818;stroke-width:1.0;"/><text fill="#000000" font-family="Arial" font-size="13" lengthAdjust="spacing" textLength="22" x="332.5" y="435.897">Eb7</text></g><!--link Abm to Cb2--><g id="link_Abm_Cb2"><path codeLine="122" d="M336.93,380.04 C351.36,401.42 387.2035,454.4867 401.6735,475.9267 " fill="none" id="Abm-to-Cb2" style="stroke:#181818;stroke-width:1.0;"/><polygon fill="#181818" points="405.03,480.9,403.3108,471.2024,402.2329,476.7556,396.6797,475.6777,405.03,480.9" style="stroke:#181818;stroke-width:1.0;"/><text fill="#000000" font-family="Arial" font-size="13" lengthAdjust="spacing" textLength="24" x="377.5" y="435.897">Gb7</text></g><!--link Abm to Fb--><g id="link_Abm_Fb"><path codeLine="123" d="M326.07,380.04 C311.64,401.42 275.7965,454.4867 261.3265,475.9267 " fill="none" id="Abm-to-Fb" style="stroke:#181818;stroke-width:1.0;"/><polygon fill="#181818" points="257.97,480.9,266.3203,475.6777,260.7671,476.7556,259.6892,471.2024,257.97,480.9" style="stroke:#181818;stroke-width:1.0;"/><text fill="#000000" font-family="Arial" font-size="13" lengthAdjust="spacing" textLength="23" x="298.5" y="435.897">Cb7</text></g><!--link Fm2 to F2--><g id="link_Fm2_F2"><path codeLine="130" d="M1243.18,380.04 C1250.31,401.42 1267.7518,453.7682 1274.9018,475.2082 " fill="none" id="Fm2-to-F2" style="stroke:#181818;stroke-width:1.0;"/><polygon fill="#181818" points="1276.8,480.9,1277.7473,471.0968,1275.2182,476.1568,1270.1582,473.6277,1276.8,480.9" style="stroke:#181818;stroke-width:1.0;"/><text fill="#000000" font-family="Arial" font-size="13" lengthAdjust="spacing" textLength="15" x="1263.5" y="435.897">C7</text></g><!--link Fm2 to Ab3--><g id="link_Fm2_Ab3"><path codeLine="131" d="M1248.61,380.04 C1270.17,401.42 1324.4497,455.2351 1346.0697,476.6751 " fill="none" id="Fm2-to-Ab3" style="stroke:#181818;stroke-width:1.0;"/><polygon fill="#181818" points="1350.33,480.9,1346.7561,471.7225,1346.7797,477.3793,1341.1229,477.4029,1350.33,480.9" style="stroke:#181818;stroke-width:1.0;"/><text fill="#000000" font-family="Arial" font-size="13" lengthAdjust="spacing" textLength="22" x="1308.5" y="435.897">Eb7</text></g><!--link Fm2 to Db--><g id="link_Fm2_Db"><path codeLine="132" d="M1237.75,380.04 C1230.44,401.42 1212.541,453.7826 1205.211,475.2226 " fill="none" id="Fm2-to-Db" style="stroke:#181818;stroke-width:1.0;"/><polygon fill="#181818" points="1203.27,480.9,1209.9664,473.678,1204.8875,476.1689,1202.3966,471.0899,1203.27,480.9" style="stroke:#181818;stroke-width:1.0;"/><text fill="#000000" font-family="Arial" font-size="13" lengthAdjust="spacing" textLength="23" x="1224.5" y="435.897">Ab7</text></g><!--link Fshm to Fsh--><g id="link_Fshm_Fsh"><path codeLine="139" d="M598.55,380.2 C588.1,389.84 570.34,406.37 555.5,421 C533.94,442.25 513.4058,463.7237 501.2358,476.5737 " fill="none" id="Fshm-to-Fsh" style="stroke:#181818;stroke-width:1.0;"/><polygon fill="#181818" points="497.11,480.93,506.2029,477.146,500.5482,477.2997,500.3945,471.645,497.11,480.93" style="stroke:#181818;stroke-width:1.0;"/><text fill="#000000" font-family="Arial" font-size="13" lengthAdjust="spacing" textLength="23" x="556.5" y="435.897">C#7</text></g><!--link Fshm to A2--><g id="link_Fshm_A2"><path codeLine="140" d="M610.25,380.04 C617.56,401.42 635.459,453.7826 642.789,475.2226 " fill="none" id="Fshm-to-A2" style="stroke:#181818;stroke-width:1.0;"/><polygon fill="#181818" points="644.73,480.9,645.6034,471.0899,643.1125,476.1689,638.0336,473.678,644.73,480.9" style="stroke:#181818;stroke-width:1.0;"/><text fill="#000000" font-family="Arial" font-size="13" lengthAdjust="spacing" textLength="14" x="631.5" y="435.897">E7</text></g><!--link Fshm to D--><g id="link_Fshm_D"><path codeLine="141" d="M604.82,380.04 C597.69,401.42 580.2482,453.7682 573.0982,475.2082 " fill="none" id="Fshm-to-D" style="stroke:#181818;stroke-width:1.0;"/><polygon fill="#181818" points="571.2,480.9,577.8418,473.6277,572.7818,476.1568,570.2527,471.0968,571.2,480.9" style="stroke:#181818;stroke-width:1.0;"/><text fill="#000000" font-family="Arial" font-size="13" lengthAdjust="spacing" textLength="15" x="591.5" y="435.897">A7</text></g><!--link Cshm to Csh--><g id="link_Cshm_Csh"><path codeLine="148" d="M800.07,380.04 C785.64,401.42 749.7965,454.4867 735.3265,475.9267 " fill="none" id="Cshm-to-Csh" style="stroke:#181818;stroke-width:1.0;"/><polygon fill="#181818" points="731.97,480.9,740.3203,475.6777,734.7671,476.7556,733.6892,471.2024,731.97,480.9" style="stroke:#181818;stroke-width:1.0;"/><text fill="#000000" font-family="Arial" font-size="13" lengthAdjust="spacing" textLength="24" x="772.5" y="435.897">G#7</text></g><!--link Cshm to E2--><g id="link_Cshm_E2"><path codeLine="149" d="M805.5,380.04 C805.5,401.42 805.5,453.46 805.5,474.9 " fill="none" id="Cshm-to-E2" style="stroke:#181818;stroke-width:1.0;"/><polygon fill="#181818" points="805.5,480.9,809.5,471.9,805.5,475.9,801.5,471.9,805.5,480.9" style="stroke:#181818;stroke-width:1.0;"/><text fill="#000000" font-family="Arial" font-size="13" lengthAdjust="spacing" textLength="15" x="806.5" y="435.897">B7</text></g><!--link Cshm to A3--><g id="link_Cshm_A3"><path codeLine="150" d="M810.93,380.04 C825.36,401.42 861.2035,454.4867 875.6735,475.9267 " fill="none" id="Cshm-to-A3" style="stroke:#181818;stroke-width:1.0;"/><polygon fill="#181818" points="879.03,480.9,877.3108,471.2024,876.2329,476.7556,870.6797,475.6777,879.03,480.9" style="stroke:#181818;stroke-width:1.0;"/><text fill="#000000" font-family="Arial" font-size="13" lengthAdjust="spacing" textLength="14" x="851.5" y="435.897">E7</text></g><!--link Dm to D2--><g id="link_Dm_D2"><path codeLine="157" d="M1037.07,380.04 C1022.64,401.42 986.7965,454.4867 972.3265,475.9267 " fill="none" id="Dm-to-D2" style="stroke:#181818;stroke-width:1.0;"/><polygon fill="#181818" points="968.97,480.9,977.3203,475.6777,971.7671,476.7556,970.6892,471.2024,968.97,480.9" style="stroke:#181818;stroke-width:1.0;"/><text fill="#000000" font-family="Arial" font-size="13" lengthAdjust="spacing" textLength="15" x="1009.5" y="435.897">A7</text></g><!--link Dm to F3--><g id="link_Dm_F3"><path codeLine="158" d="M1042.5,380.04 C1042.5,401.42 1042.5,453.46 1042.5,474.9 " fill="none" id="Dm-to-F3" style="stroke:#181818;stroke-width:1.0;"/><polygon fill="#181818" points="1042.5,480.9,1046.5,471.9,1042.5,475.9,1038.5,471.9,1042.5,480.9" style="stroke:#181818;stroke-width:1.0;"/><text fill="#000000" font-family="Arial" font-size="13" lengthAdjust="spacing" textLength="15" x="1043.5" y="435.897">C7</text></g><!--link Dm to Am4--><g id="link_Dm_Am4"><path codeLine="159" d="M1047.93,380.04 C1062.36,401.42 1098.2035,454.4867 1112.6735,475.9267 " fill="none" id="Dm-to-Am4" style="stroke:#181818;stroke-width:1.0;"/><polygon fill="#181818" points="1116.03,480.9,1114.3108,471.2024,1113.2329,476.7556,1107.6797,475.6777,1116.03,480.9" style="stroke:#181818;stroke-width:1.0;"/><text fill="#000000" font-family="Arial" font-size="13" lengthAdjust="spacing" textLength="14" x="1088.5" y="435.897">E7</text></g><!--link Gshm to Gsh--><g id="link_Gshm_Gsh"><path codeLine="166" d="M1511.07,380.04 C1496.64,401.42 1460.7965,454.4867 1446.3265,475.9267 " fill="none" id="Gshm-to-Gsh" style="stroke:#181818;stroke-width:1.0;"/><polygon fill="#181818" points="1442.97,480.9,1451.3203,475.6777,1445.7671,476.7556,1444.6892,471.2024,1442.97,480.9" style="stroke:#181818;stroke-width:1.0;"/><text fill="#000000" font-family="Arial" font-size="13" lengthAdjust="spacing" textLength="24" x="1482.5" y="435.897">D#7</text></g><!--link Gshm to B--><g id="link_Gshm_B"><path codeLine="167" d="M1516.5,380.04 C1516.5,401.42 1516.5,453.46 1516.5,474.9 " fill="none" id="Gshm-to-B" style="stroke:#181818;stroke-width:1.0;"/><polygon fill="#181818" points="1516.5,480.9,1520.5,471.9,1516.5,475.9,1512.5,471.9,1516.5,480.9" style="stroke:#181818;stroke-width:1.0;"/><text fill="#000000" font-family="Arial" font-size="13" lengthAdjust="spacing" textLength="22" x="1517.5" y="435.897">F#7</text></g><!--link Gshm to E3--><g id="link_Gshm_E3"><path codeLine="168" d="M1521.93,380.04 C1536.36,401.42 1572.2035,454.4867 1586.6735,475.9267 " fill="none" id="Gshm-to-E3" style="stroke:#181818;stroke-width:1.0;"/><polygon fill="#181818" points="1590.03,480.9,1588.3108,471.2024,1587.2329,476.7556,1581.6797,475.6777,1590.03,480.9" style="stroke:#181818;stroke-width:1.0;"/><text fill="#000000" font-family="Arial" font-size="13" lengthAdjust="spacing" textLength="15" x="1561.5" y="435.897">B7</text></g><!--link Bm to B2--><g id="link_Bm_B2"><path codeLine="175" d="M1748.07,380.04 C1733.64,401.42 1697.7965,454.4867 1683.3265,475.9267 " fill="none" id="Bm-to-B2" style="stroke:#181818;stroke-width:1.0;"/><polygon fill="#181818" points="1679.97,480.9,1688.3203,475.6777,1682.7671,476.7556,1681.6892,471.2024,1679.97,480.9" style="stroke:#181818;stroke-width:1.0;"/><text fill="#000000" font-family="Arial" font-size="13" lengthAdjust="spacing" textLength="22" x="1719.5" y="435.897">F#7</text></g><!--link Bm to D3--><g id="link_Bm_D3"><path codeLine="176" d="M1753.5,380.04 C1753.5,401.42 1753.5,453.46 1753.5,474.9 " fill="none" id="Bm-to-D3" style="stroke:#181818;stroke-width:1.0;"/><polygon fill="#181818" points="1753.5,480.9,1757.5,471.9,1753.5,475.9,1749.5,471.9,1753.5,480.9" style="stroke:#181818;stroke-width:1.0;"/><text fill="#000000" font-family="Arial" font-size="13" lengthAdjust="spacing" textLength="15" x="1754.5" y="435.897">A7</text></g><!--link Bm to G3--><g id="link_Bm_G3"><path codeLine="177" d="M1758.93,380.04 C1773.36,401.42 1809.2035,454.4867 1823.6735,475.9267 " fill="none" id="Bm-to-G3" style="stroke:#181818;stroke-width:1.0;"/><polygon fill="#181818" points="1827.03,480.9,1825.3108,471.2024,1824.2329,476.7556,1818.6797,475.6777,1827.03,480.9" style="stroke:#181818;stroke-width:1.0;"/><text fill="#000000" font-family="Arial" font-size="13" lengthAdjust="spacing" textLength="16" x="1798.5" y="435.897">D7</text></g><!--SRC=[VPRRQXin48Rlzoc4zw8jDD1gqmG2BeoEDqaeVGDligKcbXFYjFJngz6Cj0UjSnEOaHrz-sdqhqzF- -FBxdKNnEFmQ_VdyEQUZs_tkp08UDtl3isfh1-V7uVJy2BajqdpTNTymcRthMa-YFlzt-4Wljm8tJpiNnyEWz2YTUvANQbn-MlSwVGObsx4ZwqEdyNFBSI_jriRohU2Q2-jDleoTw3gsB7JQ75nyHs_TIFyDLU0bSsLnKfTZnGoKuI4yN7ujp-z3P-GnlP80ttPgIyFaMcgpaPlnEuaz5s42KHpnpHKndyI0VfI0zQsNo62H0H8Ci6wtRgo-t9pTvP6DWtmVcG3CfmaEgvThFGAYqqi5bayCXIWucQvjJ_BqZMDPHTq5bpvM9bInSyHMM7fCakVMFeqCJfCrVWmdbKrABxgR7GWfX3zn8EXymbyGDo8YmJ2jG_4MN51uWBYSccIHxfnOYeAzmvNT0KzpqdWGU662tHMa37F-OA45QQJxLh2QuklJMobFTtfzmeFB-grHQ0rG8d0Lqxob14fVYkojhcXgU7R5Lg7j2uvD0aIAeVc7OPkV21-7iHoR4oICYeDCa2k8FcpQ_EMnctcB_gOZTt4esTLVasLfJKRcTRKuXHoIac-6iMNP67KyMJGh1dqoEkJGJl3L8LIlOCs6lJy9CZbUVOb3Rzdp8umgLI8vAP8b-NAKdxqKua-nQikyUghCDLrlDgUCFjqOtEaod9bEKemLCsaeR7X-nKqdyZy54mbi16sMAjnF1cIDL-ykMWhqMHfN2k4SMCTFypy5HsGE9Y9q_tiTL04kfeF20VwoS1HIwD1wFDBI9PmoS8a6yiTXzHw3T8bHZT5X1cYAOYcHdHqJMND71KwLkJopUKQaZ84pXs3UB2Arn9Vcy1cN9Fqo-6tv3ErKyB3MC5Ro0d70LTQm15O6eRIfiBJXASJdftYmN80OrZahAWl1isTN696YJeZw8I9AL9QbeEcD60PWvdJ94mpUutCQAkStfY4OEJohBiwj-EFDyEU98dYqdLqybp6JvxXy-JH9uygtU0AoBSvcvV-r3cXU8-p6v_yOUYMbkB8AmtRBNvWPZwLyDJKdvczH2fQbGYKNFhibl4J6HNZIERXsdGaaqlVKHBz1m00]--></g></svg>