<?xml version="1.0" encoding="us-ascii" standalone="no"?><svg xmlns="http://www.w3.org/2000/svg" xmlns:xlink="http://www.w3.org/1999/xlink" contentStyleType="text/css" height="886px" preserveAspectRatio="none" style="width:803px;height:886px;background:#FFFFFF;" version="1.1" viewBox="0 0 803 886" width="803px" zoomAndPan="magnify"><defs/><g><rect fill="#F1F1F1" height="39.0679" rx="12.5" ry="12.5" style="stroke:#181818;stroke-width:1.5;" width="86" x="10" y="422.5433"/><text fill="#000000" font-family="sans-serif" font-size="14" lengthAdjust="spacing" textLength="66" x="20" y="447.5093">La Noticia</text><rect fill="#F1F1F1" height="39.0679" rx="12.5" ry="12.5" style="stroke:#181818;stroke-width:1.5;" width="175" x="146" y="49.534"/><text fill="#000000" font-family="sans-serif" font-size="14" lengthAdjust="spacing" textLength="155" x="156" y="74.4999">El mundo que heredan</text><rect fill="#F1F1F1" height="39.0679" rx="12.5" ry="12.5" style="stroke:#181818;stroke-width:1.5;" width="65" x="371" y="20"/><text fill="#000000" font-family="sans-serif" font-size="14" lengthAdjust="spacing" textLength="45" x="381" y="44.9659">Llegan</text><path d="M321,69.0679 L331,69.0679 C346,69.0679 346,39.534 361,39.534 L371,39.534 " fill="none" style="stroke:#181818;stroke-width:1.0;"/><rect fill="#F1F1F1" height="39.0679" rx="12.5" ry="12.5" style="stroke:#181818;stroke-width:1.5;" width="119" x="371" y="79.0679"/><text fill="#000000" font-family="sans-serif" font-size="14" lengthAdjust="spacing" textLength="99" x="381" y="104.0339">No lo eligieron</text><path d="M321,69.0679 L331,69.0679 C346,69.0679 346,98.6019 361,98.6019 L371,98.6019 " fill="none" style="stroke:#181818;stroke-width:1.0;"/><path d="M96,442.0773 L106,442.0773 C121,442.0773 121,69.0679 136,69.0679 L146,69.0679 " fill="none" style="stroke:#181818;stroke-width:1.0;"/><rect fill="#F1F1F1" height="39.0679" rx="12.5" ry="12.5" style="stroke:#181818;stroke-width:1.5;" width="347" x="146" y="138.1358"/><text fill="#000000" font-family="sans-serif" font-size="14" lengthAdjust="spacing" textLength="327" x="156" y="163.1018">La responsabilidad en un mundo en movimiento</text><rect fill="#F1F1F1" height="39.0679" rx="12.5" ry="12.5" style="stroke:#181818;stroke-width:1.5;" width="157" x="543" y="40"/><text fill="#000000" font-family="sans-serif" font-size="14" lengthAdjust="spacing" textLength="137" x="553" y="64.9659">Ya est&#225; funcionando</text><path d="M493,157.6698 L503,157.6698 C518,157.6698 518,59.534 533,59.534 L543,59.534 " fill="none" style="stroke:#181818;stroke-width:1.0;"/><rect fill="#F1F1F1" height="39.0679" rx="12.5" ry="12.5" style="stroke:#181818;stroke-width:1.5;" width="130" x="543" y="99.0679"/><text fill="#000000" font-family="sans-serif" font-size="14" lengthAdjust="spacing" textLength="110" x="553" y="124.0339">Tiene sus reglas</text><path d="M493,157.6698 L503,157.6698 C518,157.6698 518,118.6019 533,118.6019 L543,118.6019 " fill="none" style="stroke:#181818;stroke-width:1.0;"/><rect fill="#F1F1F1" height="39.0679" rx="12.5" ry="12.5" style="stroke:#181818;stroke-width:1.5;" width="181" x="543" y="158.1358"/><text fill="#000000" font-family="sans-serif" font-size="14" lengthAdjust="spacing" textLength="161" x="553" y="183.1018">No se trata de romperlo</text><path d="M493,157.6698 L503,157.6698 C518,157.6698 518,177.6698 533,177.6698 L543,177.6698 " fill="none" style="stroke:#181818;stroke-width:1.0;"/><rect fill="#F1F1F1" height="58.1358" rx="12.5" ry="12.5" style="stroke:#181818;stroke-width:1.5;" width="248" x="543" y="217.2038"/><text fill="#000000" font-family="sans-serif" font-size="14" lengthAdjust="spacing" textLength="118" x="553" y="242.1697">Tiene que seguir,</text><text fill="#000000" font-family="sans-serif" font-size="14" lengthAdjust="spacing" textLength="228" x="553" y="261.2376">para ustedes y sus descendientes</text><path d="M493,157.6698 L503,157.6698 C518,157.6698 518,246.2717 533,246.2717 L543,246.2717 " fill="none" style="stroke:#181818;stroke-width:1.0;"/><path d="M96,442.0773 L106,442.0773 C121,442.0773 121,157.6698 136,157.6698 L146,157.6698 " fill="none" style="stroke:#181818;stroke-width:1.0;"/><rect fill="#F1F1F1" height="39.0679" rx="12.5" ry="12.5" style="stroke:#181818;stroke-width:1.5;" width="318" x="146" y="452.5433"/><text fill="#000000" font-family="sans-serif" font-size="14" lengthAdjust="spacing" textLength="298" x="156" y="477.5093">Herramientas para gestionar la complejidad</text><rect fill="#F1F1F1" height="58.1358" rx="12.5" ry="12.5" style="stroke:#181818;stroke-width:1.5;" width="212" x="514" y="295.3396"/><text fill="#000000" font-family="sans-serif" font-size="14" lengthAdjust="spacing" textLength="163" x="524" y="320.3055">Lo que hemos intentado</text><text fill="#000000" font-family="sans-serif" font-size="14" lengthAdjust="spacing" textLength="192" x="524" y="339.3734">proveerles en la universidad</text><path d="M464,472.0773 L474,472.0773 C489,472.0773 489,324.4075 504,324.4075 L514,324.4075 " fill="none" style="stroke:#181818;stroke-width:1.0;"/><rect fill="#F1F1F1" height="39.0679" rx="12.5" ry="12.5" style="stroke:#181818;stroke-width:1.5;" width="228" x="514" y="373.4754"/><text fill="#000000" font-family="sans-serif" font-size="14" lengthAdjust="spacing" textLength="208" x="524" y="398.4414">An&#225;lisis de sistemas complejos</text><path d="M464,472.0773 L474,472.0773 C489,472.0773 489,393.0094 504,393.0094 L514,393.0094 " fill="none" style="stroke:#181818;stroke-width:1.0;"/><rect fill="#F1F1F1" height="39.0679" rx="12.5" ry="12.5" style="stroke:#181818;stroke-width:1.5;" width="152" x="514" y="432.5433"/><text fill="#000000" font-family="sans-serif" font-size="14" lengthAdjust="spacing" textLength="132" x="524" y="457.5093">Pensamiento cr&#237;tico</text><path d="M464,472.0773 L474,472.0773 C489,472.0773 489,452.0773 504,452.0773 L514,452.0773 " fill="none" style="stroke:#181818;stroke-width:1.0;"/><rect fill="#F1F1F1" height="39.0679" rx="12.5" ry="12.5" style="stroke:#181818;stroke-width:1.5;" width="143" x="514" y="491.6113"/><text fill="#000000" font-family="sans-serif" font-size="14" lengthAdjust="spacing" textLength="123" x="524" y="516.5772">Trabajo en equipo</text><path d="M464,472.0773 L474,472.0773 C489,472.0773 489,511.1452 504,511.1452 L514,511.1452 " fill="none" style="stroke:#181818;stroke-width:1.0;"/><rect fill="#F1F1F1" height="39.0679" rx="12.5" ry="12.5" style="stroke:#181818;stroke-width:1.5;" width="52" x="514" y="550.6792"/><text fill="#000000" font-family="sans-serif" font-size="14" lengthAdjust="spacing" textLength="32" x="524" y="575.6451">&#201;tica</text><path d="M464,472.0773 L474,472.0773 C489,472.0773 489,570.2131 504,570.2131 L514,570.2131 " fill="none" style="stroke:#181818;stroke-width:1.0;"/><rect fill="#F1F1F1" height="39.0679" rx="12.5" ry="12.5" style="stroke:#181818;stroke-width:1.5;" width="115" x="514" y="609.7471"/><text fill="#000000" font-family="sans-serif" font-size="14" lengthAdjust="spacing" textLength="95" x="524" y="634.713">Adaptabilidad</text><path d="M464,472.0773 L474,472.0773 C489,472.0773 489,629.281 504,629.281 L514,629.281 " fill="none" style="stroke:#181818;stroke-width:1.0;"/><path d="M96,442.0773 L106,442.0773 C121,442.0773 121,472.0773 136,472.0773 L146,472.0773 " fill="none" style="stroke:#181818;stroke-width:1.0;"/><rect fill="#F1F1F1" height="39.0679" rx="12.5" ry="12.5" style="stroke:#181818;stroke-width:1.5;" width="207" x="146" y="698.349"/><text fill="#000000" font-family="sans-serif" font-size="14" lengthAdjust="spacing" textLength="187" x="156" y="723.3149">El momento hist&#243;rico actual</text><rect fill="#F1F1F1" height="39.0679" rx="12.5" ry="12.5" style="stroke:#181818;stroke-width:1.5;" width="77" x="403" y="668.815"/><text fill="#000000" font-family="sans-serif" font-size="14" lengthAdjust="spacing" textLength="57" x="413" y="693.7809">Desaf&#237;os</text><rect fill="#F1F1F1" height="39.0679" rx="12.5" ry="12.5" style="stroke:#181818;stroke-width:1.5;" width="171" x="530" y="668.815"/><text fill="#000000" font-family="sans-serif" font-size="14" lengthAdjust="spacing" textLength="151" x="540" y="693.7809">Tecnolog&#237;a &amp; sociedad</text><path d="M480,688.349 L490,688.349 C505,688.349 505,688.349 520,688.349 L530,688.349 " fill="none" style="stroke:#181818;stroke-width:1.0;"/><path d="M353,717.8829 L363,717.8829 C378,717.8829 378,688.349 393,688.349 L403,688.349 " fill="none" style="stroke:#181818;stroke-width:1.0;"/><rect fill="#F1F1F1" height="39.0679" rx="12.5" ry="12.5" style="stroke:#181818;stroke-width:1.5;" width="143" x="403" y="727.8829"/><text fill="#000000" font-family="sans-serif" font-size="14" lengthAdjust="spacing" textLength="123" x="413" y="752.8489">Rol transformador</text><rect fill="#F1F1F1" height="39.0679" rx="12.5" ry="12.5" style="stroke:#181818;stroke-width:1.5;" width="190" x="596" y="727.8829"/><text fill="#000000" font-family="sans-serif" font-size="14" lengthAdjust="spacing" textLength="170" x="606" y="752.8489">Evoluci&#243;n y no revoluci&#243;n</text><path d="M546,747.4169 L556,747.4169 C571,747.4169 571,747.4169 586,747.4169 L596,747.4169 " fill="none" style="stroke:#181818;stroke-width:1.0;"/><path d="M353,717.8829 L363,717.8829 C378,717.8829 378,747.4169 393,747.4169 L403,747.4169 " fill="none" style="stroke:#181818;stroke-width:1.0;"/><path d="M96,442.0773 L106,442.0773 C121,442.0773 121,717.8829 136,717.8829 L146,717.8829 " fill="none" style="stroke:#181818;stroke-width:1.0;"/><rect fill="#F1F1F1" height="39.0679" rx="12.5" ry="12.5" style="stroke:#181818;stroke-width:1.5;" width="61" x="146" y="806.0188"/><text fill="#000000" font-family="sans-serif" font-size="14" lengthAdjust="spacing" textLength="41" x="156" y="830.9847">Cierre</text><rect fill="#F1F1F1" height="77.2038" rx="12.5" ry="12.5" style="stroke:#181818;stroke-width:1.5;" width="326" x="257" y="786.9508"/><text fill="#000000" font-family="sans-serif" font-size="14" lengthAdjust="spacing" textLength="253" x="267" y="811.9168">A diferencia del hombre de la noticia,</text><text fill="#000000" font-family="sans-serif" font-size="14" lengthAdjust="spacing" textLength="306" x="267" y="830.9847">uds no se acostar&#225;n mientras el mundo arde:</text><text fill="#000000" font-family="sans-serif" font-size="14" lengthAdjust="spacing" textLength="127" x="267" y="850.0526">uds. van a trabajar</text><path d="M207,825.5527 L217,825.5527 C232,825.5527 232,825.5527 247,825.5527 L257,825.5527 " fill="none" style="stroke:#181818;stroke-width:1.0;"/><path d="M96,442.0773 L106,442.0773 C121,442.0773 121,825.5527 136,825.5527 L146,825.5527 " fill="none" style="stroke:#181818;stroke-width:1.0;"/><!--SRC=[JLD1JXj14BplA_eKWGZ8E115Ff60IKGCGM2G8kNItccl1yrEBpqpA_44di43EF64_LXwThqa9uzwkwkhgyed8QB4sdfJOrCKUx10kE9eIul5tXxC7TJ96uR7HB0X8ODUwzhcgDe-hnWS0pbRMHBEjGmY51hs0LVMMOC6o4FoMp1zrzpQsfAFt6FyHg0GknTO9rzQzgXj_OUbzX2451ImSXZ6ZO4W2aO4Go1SDoJk_u5CDr2Lh7pyuniKX1GY6Ghmr8FfgoHlCW7AcF23HB0dX07wWKe9PIO23g7K5OuUyYN3-QCYDGUm2g9pXdMLS4lAHHVfaJgOl6r9mllWLz-zE1jifW3w4wdMXLju7iwx9jLj40TAwLxLZUrjWYjywFMZnsIReTezQmCEw0QRE4e- -iTrZxJHPTsRA1PW6HEwVkAC0gwxrs6pRg3Ii-EgUqNu085BIoFp6tPPSX_MBBKUAyF4l6MNIjkzUPNMizhqNiW4JZKJGWCvC7Qj4LA3isqEDbolXB8GAfGVGgTs9HCoa3gC9UTuTY-Qboo7g5Gq9XB5qAplFe0MFM1cf_AeOKLnekQ-X_hQeOztbmledM0FXmVJoVJeuDFESfFWd5PmU0pJoUneCfiSm-by2VdpRh7p_NhHJbM59ANILFt4hb8EnMvnWIt2JVBHrZI3NmtvYxEVOm7clhNwLyZ25nVtb_yQFX_jVxCHRacK2znV5cUqnkIYJfHihAzcSBSyt_zIBD1N2Il5rdoUikBAqmpcjty1]--></g></svg>