<?xml version="1.0" encoding="us-ascii" standalone="no"?><svg xmlns="http://www.w3.org/2000/svg" xmlns:xlink="http://www.w3.org/1999/xlink" contentStyleType="text/css" height="2067px" preserveAspectRatio="none" style="width:600px;height:2067px;background:#FFFFFF;" version="1.1" viewBox="0 0 600 2067" width="600px" zoomAndPan="magnify"><defs/><g><ellipse cx="263.5" cy="16" fill="#222222" rx="10" ry="10" style="stroke:#222222;stroke-width:1.0;"/><path d="M167,87 L360.5,87 A12.5,12.5 0 0 1 373,99.5 L373,116.0679 L154.5,116.0679 L154.5,99.5 A12.5,12.5 0 0 1 167,87 " fill="#FFFFE0" style="stroke:#FFFFE0;stroke-width:1.0;"/><rect fill="none" height="222.2038" rx="12.5" ry="12.5" style="stroke:#181818;stroke-width:0.5;" width="218.5" x="154.5" y="87"/><line style="stroke:#181818;stroke-width:0.5;" x1="154.5" x2="373" y1="116.0679" y2="116.0679"/><text fill="#000000" font-family="sans-serif" font-size="14" lengthAdjust="spacing" textLength="81" x="223.25" y="106.9659">Principiante</text><g id="Principiante.NecesitaEjemplos"><rect fill="#F1F1F1" height="58.1358" rx="12.5" ry="12.5" style="stroke:#181818;stroke-width:0.5;" width="143" x="166.5" y="128.0679"/><line style="stroke:#181818;stroke-width:0.5;" x1="166.5" x2="309.5" y1="176.2038" y2="176.2038"/><text fill="#000000" font-family="sans-serif" font-size="14" lengthAdjust="spacing" textLength="123" x="176.5" y="148.0339">Necesita ejemplos</text><text fill="#000000" font-family="sans-serif" font-size="14" lengthAdjust="spacing" textLength="73" x="201.5" y="167.1018">para hacer</text></g><g id="Principiante.CopiaPatrones"><rect fill="#F1F1F1" height="58.1358" rx="12.5" ry="12.5" style="stroke:#181818;stroke-width:0.5;" width="122" x="177" y="241.0679"/><line style="stroke:#181818;stroke-width:0.5;" x1="177" x2="299" y1="289.2038" y2="289.2038"/><text fill="#000000" font-family="sans-serif" font-size="14" lengthAdjust="spacing" textLength="102" x="187" y="261.0339">Copia patrones</text><text fill="#000000" font-family="sans-serif" font-size="14" lengthAdjust="spacing" textLength="86" x="195" y="280.1018">sin entender</text></g><!--link NecesitaEjemplos to CopiaPatrones--><g id="link_NecesitaEjemplos_CopiaPatrones"><path d="M238,186.0779 C238,202.9079 238,218.2379 238,235.0679 " fill="none" id="NecesitaEjemplos-to-CopiaPatrones" style="stroke:#181818;stroke-width:1.0;"/><polygon fill="#181818" points="238,241.0679,242,232.0679,238,236.0679,234,232.0679,238,241.0679" style="stroke:#181818;stroke-width:1.0;"/><text fill="#000000" font-family="sans-serif" font-size="13" lengthAdjust="spacing" textLength="124" x="239" y="218.9649">Trabaja con modelos</text></g><path d="M178.5,406 L348.5,406 A12.5,12.5 0 0 1 361,418.5 L361,435.0679 L166,435.0679 L166,418.5 A12.5,12.5 0 0 1 178.5,406 " fill="#ADD8E6" style="stroke:#ADD8E6;stroke-width:1.0;"/><rect fill="none" height="222.2038" rx="12.5" ry="12.5" style="stroke:#181818;stroke-width:0.5;" width="195" x="166" y="406"/><line style="stroke:#181818;stroke-width:0.5;" x1="166" x2="361" y1="435.0679" y2="435.0679"/><text fill="#000000" font-family="sans-serif" font-size="14" lengthAdjust="spacing" textLength="55" x="236" y="425.9659">Ejecutor</text><g id="Ejecutor.HaceSinCopiar"><rect fill="#F1F1F1" height="58.1358" rx="12.5" ry="12.5" style="stroke:#181818;stroke-width:0.5;" width="174" x="178" y="447.0679"/><line style="stroke:#181818;stroke-width:0.5;" x1="178" x2="352" y1="495.2038" y2="495.2038"/><text fill="#000000" font-family="sans-serif" font-size="14" lengthAdjust="spacing" textLength="103" x="213.5" y="467.0339">Hace sin copiar</text><text fill="#000000" font-family="sans-serif" font-size="14" lengthAdjust="spacing" textLength="154" x="188" y="486.1018">patrones directamente</text></g><g id="Ejecutor.ModificaCodigo"><rect fill="#F1F1F1" height="58.1358" rx="12.5" ry="12.5" style="stroke:#181818;stroke-width:0.5;" width="127" x="201.5" y="560.0679"/><line style="stroke:#181818;stroke-width:0.5;" x1="201.5" x2="328.5" y1="608.2038" y2="608.2038"/><text fill="#000000" font-family="sans-serif" font-size="14" lengthAdjust="spacing" textLength="107" x="211.5" y="580.0339">Modifica c&#243;digo</text><text fill="#000000" font-family="sans-serif" font-size="14" lengthAdjust="spacing" textLength="61" x="234.5" y="599.1018">existente</text></g><!--link HaceSinCopiar to ModificaCodigo--><g id="link_HaceSinCopiar_ModificaCodigo"><path d="M265,505.0779 C265,521.9079 265,537.2379 265,554.0679 " fill="none" id="HaceSinCopiar-to-ModificaCodigo" style="stroke:#181818;stroke-width:1.0;"/><polygon fill="#181818" points="265,560.0679,269,551.0679,265,555.0679,261,551.0679,265,560.0679" style="stroke:#181818;stroke-width:1.0;"/><text fill="#000000" font-family="sans-serif" font-size="13" lengthAdjust="spacing" textLength="47" x="266" y="537.9649">Practica</text></g><path d="M202.5,743 L324.5,743 A12.5,12.5 0 0 1 337,755.5 L337,772.0679 L190,772.0679 L190,755.5 A12.5,12.5 0 0 1 202.5,743 " fill="#ADD8E6" style="stroke:#ADD8E6;stroke-width:1.0;"/><rect fill="none" height="335.2038" rx="12.5" ry="12.5" style="stroke:#181818;stroke-width:0.5;" width="147" x="190" y="743"/><line style="stroke:#181818;stroke-width:0.5;" x1="190" x2="337" y1="772.0679" y2="772.0679"/><text fill="#000000" font-family="sans-serif" font-size="14" lengthAdjust="spacing" textLength="83" x="222" y="762.9659">Comprensor</text><g id="Comprensor.Entiende"><rect fill="#F1F1F1" height="58.1358" rx="12.5" ry="12.5" style="stroke:#181818;stroke-width:0.5;" width="96" x="216" y="784.0679"/><line style="stroke:#181818;stroke-width:0.5;" x1="216" x2="312" y1="832.2038" y2="832.2038"/><text fill="#000000" font-family="sans-serif" font-size="14" lengthAdjust="spacing" textLength="76" x="226" y="804.0339">Entiende lo</text><text fill="#000000" font-family="sans-serif" font-size="14" lengthAdjust="spacing" textLength="62" x="233" y="823.1018">que hace</text></g><g id="Comprensor.Explica"><rect fill="#F1F1F1" height="58.1358" rx="12.5" ry="12.5" style="stroke:#181818;stroke-width:0.5;" width="94" x="217" y="897.0679"/><line style="stroke:#181818;stroke-width:0.5;" x1="217" x2="311" y1="945.2038" y2="945.2038"/><text fill="#000000" font-family="sans-serif" font-size="14" lengthAdjust="spacing" textLength="74" x="227" y="917.0339">Explica sus</text><text fill="#000000" font-family="sans-serif" font-size="14" lengthAdjust="spacing" textLength="71" x="228.5" y="936.1018">decisiones</text></g><g id="Comprensor.DetectaErrores"><rect fill="#F1F1F1" height="58.1358" rx="12.5" ry="12.5" style="stroke:#181818;stroke-width:0.5;" width="124" x="202" y="1010.0679"/><line style="stroke:#181818;stroke-width:0.5;" x1="202" x2="326" y1="1058.2038" y2="1058.2038"/><text fill="#000000" font-family="sans-serif" font-size="14" lengthAdjust="spacing" textLength="78" x="225" y="1030.0339">Detecta sus</text><text fill="#000000" font-family="sans-serif" font-size="14" lengthAdjust="spacing" textLength="104" x="212" y="1049.1018">propios errores</text></g><!--link Entiende to Explica--><g id="link_Entiende_Explica"><path d="M264,842.0779 C264,858.9079 264,874.2379 264,891.0679 " fill="none" id="Entiende-to-Explica" style="stroke:#181818;stroke-width:1.0;"/><polygon fill="#181818" points="264,897.0679,268,888.0679,264,892.0679,260,888.0679,264,897.0679" style="stroke:#181818;stroke-width:1.0;"/><text fill="#000000" font-family="sans-serif" font-size="13" lengthAdjust="spacing" textLength="62" x="265" y="874.9649">Reflexiona</text></g><!--link Explica to DetectaErrores--><g id="link_Explica_DetectaErrores"><path d="M264,955.0779 C264,971.9079 264,987.2379 264,1004.0679 " fill="none" id="Explica-to-DetectaErrores" style="stroke:#181818;stroke-width:1.0;"/><polygon fill="#181818" points="264,1010.0679,268,1001.0679,264,1005.0679,260,1001.0679,264,1010.0679" style="stroke:#181818;stroke-width:1.0;"/><text fill="#000000" font-family="sans-serif" font-size="13" lengthAdjust="spacing" textLength="38" x="265" y="987.9649">Revisa</text></g><path d="M19.5,1193 L237,1193 A12.5,12.5 0 0 1 249.5,1205.5 L249.5,1222.0679 L7,1222.0679 L7,1205.5 A12.5,12.5 0 0 1 19.5,1193 " fill="#ADD8E6" style="stroke:#ADD8E6;stroke-width:1.0;"/><rect fill="none" height="335.2038" rx="12.5" ry="12.5" style="stroke:#181818;stroke-width:0.5;" width="242.5" x="7" y="1193"/><line style="stroke:#181818;stroke-width:0.5;" x1="7" x2="249.5" y1="1222.0679" y2="1222.0679"/><text fill="#000000" font-family="sans-serif" font-size="14" lengthAdjust="spacing" textLength="69" x="93.75" y="1212.9659">Aut&#243;nomo</text><g id="Autonomo.Defiende"><rect fill="#F1F1F1" height="58.1358" rx="12.5" ry="12.5" style="stroke:#181818;stroke-width:0.5;" width="101" x="19" y="1234.0679"/><line style="stroke:#181818;stroke-width:0.5;" x1="19" x2="120" y1="1282.2038" y2="1282.2038"/><text fill="#000000" font-family="sans-serif" font-size="14" lengthAdjust="spacing" textLength="81" x="29" y="1254.0339">Defiende su</text><text fill="#000000" font-family="sans-serif" font-size="14" lengthAdjust="spacing" textLength="45" x="47" y="1273.1018">c&#243;digo</text></g><g id="Autonomo.ProponeAlternativas"><rect fill="#F1F1F1" height="58.1358" rx="12.5" ry="12.5" style="stroke:#181818;stroke-width:0.5;" width="99" x="20" y="1347.0679"/><line style="stroke:#181818;stroke-width:0.5;" x1="20" x2="119" y1="1395.2038" y2="1395.2038"/><text fill="#000000" font-family="sans-serif" font-size="14" lengthAdjust="spacing" textLength="56" x="41.5" y="1367.0339">Propone</text><text fill="#000000" font-family="sans-serif" font-size="14" lengthAdjust="spacing" textLength="79" x="30" y="1386.1018">alternativas</text></g><g id="Autonomo.CopiarNoAyuda"><rect fill="#F1F1F1" height="58.1358" rx="12.5" ry="12.5" style="stroke:#181818;stroke-width:0.5;" width="85" x="27" y="1460.0679"/><line style="stroke:#181818;stroke-width:0.5;" x1="27" x2="112" y1="1508.2038" y2="1508.2038"/><text fill="#000000" font-family="sans-serif" font-size="14" lengthAdjust="spacing" textLength="65" x="37" y="1480.0339">Copiar no</text><text fill="#000000" font-family="sans-serif" font-size="14" lengthAdjust="spacing" textLength="57" x="41" y="1499.1018">le ayuda</text></g><!--link Defiende to ProponeAlternativas--><g id="link_Defiende_ProponeAlternativas"><path d="M69.5,1292.0779 C69.5,1308.9079 69.5,1324.2379 69.5,1341.0679 " fill="none" id="Defiende-to-ProponeAlternativas" style="stroke:#181818;stroke-width:1.0;"/><polygon fill="#181818" points="69.5,1347.0679,73.5,1338.0679,69.5,1342.0679,65.5,1338.0679,69.5,1347.0679" style="stroke:#181818;stroke-width:1.0;"/><text fill="#000000" font-family="sans-serif" font-size="13" lengthAdjust="spacing" textLength="42" x="70.5" y="1324.9649">Analiza</text></g><!--link ProponeAlternativas to CopiarNoAyuda--><g id="link_ProponeAlternativas_CopiarNoAyuda"><path d="M69.5,1405.0779 C69.5,1421.9079 69.5,1437.2379 69.5,1454.0679 " fill="none" id="ProponeAlternativas-to-CopiarNoAyuda" style="stroke:#181818;stroke-width:1.0;"/><polygon fill="#181818" points="69.5,1460.0679,73.5,1451.0679,69.5,1455.0679,65.5,1451.0679,69.5,1460.0679" style="stroke:#181818;stroke-width:1.0;"/><text fill="#000000" font-family="sans-serif" font-size="13" lengthAdjust="spacing" textLength="169" x="70.5" y="1437.9649">Comprende profundamente</text></g><path d="M23.5,1643 L234,1643 A12.5,12.5 0 0 1 246.5,1655.5 L246.5,1672.0679 L11,1672.0679 L11,1655.5 A12.5,12.5 0 0 1 23.5,1643 " fill="#90EE90" style="stroke:#90EE90;stroke-width:1.0;"/><rect fill="none" height="335.2038" rx="12.5" ry="12.5" style="stroke:#181818;stroke-width:0.5;" width="235.5" x="11" y="1643"/><line style="stroke:#181818;stroke-width:0.5;" x1="11" x2="246.5" y1="1672.0679" y2="1672.0679"/><text fill="#000000" font-family="sans-serif" font-size="14" lengthAdjust="spacing" textLength="75" x="91.25" y="1662.9659">Profesional</text><g id="Profesional.UsaIA"><rect fill="#F1F1F1" height="58.1358" rx="12.5" ry="12.5" style="stroke:#181818;stroke-width:0.5;" width="91" x="67" y="1684.0679"/><line style="stroke:#181818;stroke-width:0.5;" x1="67" x2="158" y1="1732.2038" y2="1732.2038"/><text fill="#000000" font-family="sans-serif" font-size="14" lengthAdjust="spacing" textLength="71" x="77" y="1704.0339">Usa IA con</text><text fill="#000000" font-family="sans-serif" font-size="14" lengthAdjust="spacing" textLength="48" x="88.5" y="1723.1018">criterio</text></g><g id="Profesional.Documenta"><rect fill="#F1F1F1" height="58.1358" rx="12.5" ry="12.5" style="stroke:#181818;stroke-width:0.5;" width="117" x="54" y="1797.0679"/><line style="stroke:#181818;stroke-width:0.5;" x1="54" x2="171" y1="1845.2038" y2="1845.2038"/><text fill="#000000" font-family="sans-serif" font-size="14" lengthAdjust="spacing" textLength="97" x="64" y="1817.0339">Documenta su</text><text fill="#000000" font-family="sans-serif" font-size="14" lengthAdjust="spacing" textLength="53" x="86" y="1836.1018">proceso</text></g><g id="Profesional.Responsabilidad"><rect fill="#F1F1F1" height="58.1358" rx="12.5" ry="12.5" style="stroke:#181818;stroke-width:0.5;" width="179" x="23" y="1910.0679"/><line style="stroke:#181818;stroke-width:0.5;" x1="23" x2="202" y1="1958.2038" y2="1958.2038"/><text fill="#000000" font-family="sans-serif" font-size="14" lengthAdjust="spacing" textLength="159" x="33" y="1930.0339">Asume responsabilidad</text><text fill="#000000" font-family="sans-serif" font-size="14" lengthAdjust="spacing" textLength="107" x="59" y="1949.1018">sobre su c&#243;digo</text></g><!--link UsaIA to Documenta--><g id="link_UsaIA_Documenta"><path d="M112.5,1742.0779 C112.5,1758.9079 112.5,1774.2379 112.5,1791.0679 " fill="none" id="UsaIA-to-Documenta" style="stroke:#181818;stroke-width:1.0;"/><polygon fill="#181818" points="112.5,1797.0679,116.5,1788.0679,112.5,1792.0679,108.5,1788.0679,112.5,1797.0679" style="stroke:#181818;stroke-width:1.0;"/><text fill="#000000" font-family="sans-serif" font-size="13" lengthAdjust="spacing" textLength="84" x="113.5" y="1774.9649">Transparencia</text></g><!--link Documenta to Responsabilidad--><g id="link_Documenta_Responsabilidad"><path d="M112.5,1855.0779 C112.5,1871.9079 112.5,1887.2379 112.5,1904.0679 " fill="none" id="Documenta-to-Responsabilidad" style="stroke:#181818;stroke-width:1.0;"/><polygon fill="#181818" points="112.5,1910.0679,116.5,1901.0679,112.5,1905.0679,108.5,1901.0679,112.5,1910.0679" style="stroke:#181818;stroke-width:1.0;"/><text fill="#000000" font-family="sans-serif" font-size="13" lengthAdjust="spacing" textLength="123" x="113.5" y="1887.9649">Madurez profesional</text></g><ellipse cx="128.5" cy="2050" fill="none" rx="11" ry="11" style="stroke:#222222;stroke-width:1.0;"/><ellipse cx="128.5" cy="2050" fill="#222222" rx="6" ry="6" style="stroke:#222222;stroke-width:1.0;"/><g id="elem_GMN36"><path d="M407.5,175.5 L407.5,194 L372.74,198 L407.5,202 L407.5,220.912 A0,0 0 0 0 407.5,220.912 L593.5,220.912 A0,0 0 0 0 593.5,220.912 L593.5,185.5 L583.5,175.5 L407.5,175.5 A0,0 0 0 0 407.5,175.5 " fill="#FEFFDD" style="stroke:#181818;stroke-width:0.5;"/><path d="M583.5,175.5 L583.5,185.5 L593.5,185.5 L583.5,175.5 " fill="#FEFFDD" style="stroke:#181818;stroke-width:0.5;"/><text fill="#000000" font-family="sans-serif" font-size="13" font-weight="bold" lengthAdjust="spacing" textLength="86" x="413.5" y="194.397">Estado inicial</text><text fill="#000000" font-family="sans-serif" font-size="13" lengthAdjust="spacing" textLength="165" x="413.5" y="212.103">T&#237;pico de primeras semanas</text></g><g id="elem_GMN39"><path d="M281.5,1779 L281.5,1806.5 L246.23,1810.5 L281.5,1814.5 L281.5,1842.118 A0,0 0 0 0 281.5,1842.118 L401.5,1842.118 A0,0 0 0 0 401.5,1842.118 L401.5,1789 L391.5,1779 L281.5,1779 A0,0 0 0 0 281.5,1779 " fill="#FEFFDD" style="stroke:#181818;stroke-width:0.5;"/><path d="M391.5,1779 L391.5,1789 L401.5,1789 L391.5,1779 " fill="#FEFFDD" style="stroke:#181818;stroke-width:0.5;"/><text fill="#000000" font-family="sans-serif" font-size="13" font-weight="bold" lengthAdjust="spacing" textLength="99" x="287.5" y="1797.897">Estado objetivo</text><text fill="#000000" font-family="sans-serif" font-size="13" lengthAdjust="spacing" textLength="93" x="287.5" y="1815.603">Preparado para</text><text fill="#000000" font-family="sans-serif" font-size="13" lengthAdjust="spacing" textLength="93" x="287.5" y="1833.309">entorno laboral</text></g><g id="elem_GMN42"><path d="M285.5,1320 L285.5,1400.8241 A0,0 0 0 0 285.5,1400.8241 L509.5,1400.8241 A0,0 0 0 0 509.5,1400.8241 L509.5,1330 L499.5,1320 L389.65,1320 L313.3,1078 L381.65,1320 L285.5,1320 A0,0 0 0 0 285.5,1320 " fill="#FEFFDD" style="stroke:#181818;stroke-width:0.5;"/><path d="M499.5,1320 L499.5,1330 L509.5,1330 L499.5,1320 " fill="#FEFFDD" style="stroke:#181818;stroke-width:0.5;"/><text fill="#000000" font-family="sans-serif" font-size="13" lengthAdjust="spacing" textLength="165" x="291.5" y="1338.897">Aqu&#237; es donde la evaluaci&#243;n</text><text fill="#000000" font-family="sans-serif" font-size="13" lengthAdjust="spacing" textLength="174" x="291.5" y="1356.603">tradicional falla: mide si est&#225;n</text><text fill="#000000" font-family="sans-serif" font-size="13" lengthAdjust="spacing" textLength="203" x="291.5" y="1374.309">en "Ejecutor" cuando necesitamos</text><text fill="#000000" font-family="sans-serif" font-size="13" lengthAdjust="spacing" textLength="165" x="291.5" y="1392.0151">que est&#233;n en "Comprensor"</text></g><!--link *start* to Principiante--><g id="link_*start*_Principiante"><path d="M263.5,26.17 C263.5,38.42 263.5,55.55 263.5,80.91 " fill="none" id="*start*-to-Principiante" style="stroke:#181818;stroke-width:1.0;"/><polygon fill="#181818" points="263.5,86.91,267.5,77.91,263.5,81.91,259.5,77.91,263.5,86.91" style="stroke:#181818;stroke-width:1.0;"/></g><!--link Principiante to Ejecutor--><g id="link_Principiante_Ejecutor"><path d="M263.5,309.43 C263.5,340.7 263.5,368.72 263.5,399.97 " fill="none" id="Principiante-to-Ejecutor" style="stroke:#181818;stroke-width:1.0;"/><polygon fill="#181818" points="263.5,405.97,267.5,396.97,263.5,400.97,259.5,396.97,263.5,405.97" style="stroke:#181818;stroke-width:1.0;"/><text fill="#000000" font-family="sans-serif" font-size="13" lengthAdjust="spacing" textLength="97" x="264.5" y="353.897">Aprende a hacer</text><text fill="#000000" font-family="sans-serif" font-size="13" lengthAdjust="spacing" textLength="69" x="278.5" y="371.603">(Objetivo 1)</text></g><!--link Ejecutor to Comprensor--><g id="link_Ejecutor_Comprensor"><path d="M263.5,628.1 C263.5,663.72 263.5,698.05 263.5,736.83 " fill="none" id="Ejecutor-to-Comprensor" style="stroke:#181818;stroke-width:1.0;"/><polygon fill="#181818" points="263.5,742.83,267.5,733.83,263.5,737.83,259.5,733.83,263.5,742.83" style="stroke:#181818;stroke-width:1.0;"/><text fill="#000000" font-family="sans-serif" font-size="13" lengthAdjust="spacing" textLength="139" x="264.5" y="672.897">Distingue comprensi&#243;n</text><text fill="#000000" font-family="sans-serif" font-size="13" lengthAdjust="spacing" textLength="103" x="282.5" y="690.603">de memorizaci&#243;n</text><text fill="#000000" font-family="sans-serif" font-size="13" lengthAdjust="spacing" textLength="69" x="299.5" y="708.309">(Objetivo 2)</text></g><!--link Comprensor to Autonomo--><g id="link_Comprensor_Autonomo"><path d="M213.33,1078 C202.04,1115.46 191.791,1149.4751 180.501,1186.9451 " fill="none" id="Comprensor-to-Autonomo" style="stroke:#181818;stroke-width:1.0;"/><polygon fill="#181818" points="178.77,1192.69,185.1964,1185.2267,180.2125,1187.9026,177.5365,1182.9187,178.77,1192.69" style="stroke:#181818;stroke-width:1.0;"/><text fill="#000000" font-family="sans-serif" font-size="13" lengthAdjust="spacing" textLength="85" x="205.5" y="1122.897">Ya no necesita</text><text fill="#000000" font-family="sans-serif" font-size="13" lengthAdjust="spacing" textLength="37" x="229.5" y="1140.603">copiar</text><text fill="#000000" font-family="sans-serif" font-size="13" lengthAdjust="spacing" textLength="69" x="213.5" y="1158.309">(Objetivo 3)</text></g><!--link Autonomo to Profesional--><g id="link_Autonomo_Profesional"><path d="M128.5,1528 C128.5,1565.46 128.5,1599.22 128.5,1636.69 " fill="none" id="Autonomo-to-Profesional" style="stroke:#181818;stroke-width:1.0;"/><polygon fill="#181818" points="128.5,1642.69,132.5,1633.69,128.5,1637.69,124.5,1633.69,128.5,1642.69" style="stroke:#181818;stroke-width:1.0;"/><text fill="#000000" font-family="sans-serif" font-size="13" lengthAdjust="spacing" textLength="111" x="129.5" y="1572.897">Listo para entorno</text><text fill="#000000" font-family="sans-serif" font-size="13" lengthAdjust="spacing" textLength="67" x="151.5" y="1590.603">profesional</text><text fill="#000000" font-family="sans-serif" font-size="13" lengthAdjust="spacing" textLength="69" x="150.5" y="1608.309">(Objetivo 4)</text></g><!--link Profesional to *end*--><g id="link_Profesional_*end*"><path d="M128.5,1978.06 C128.5,2004.16 128.5,2020.55 128.5,2032.87 " fill="none" id="Profesional-to-*end*" style="stroke:#181818;stroke-width:1.0;"/><polygon fill="#181818" points="128.5,2038.87,132.5,2029.87,128.5,2033.87,124.5,2029.87,128.5,2038.87" style="stroke:#181818;stroke-width:1.0;"/></g><!--SRC=[VLN9ZjGm4BtdAqgSc9Oui9nQQAHcPWH8B2sM0w8vk9tg6G-9AzZEi8cFuSY14v_GFqQLxIHE3qnkiLyjxzLY_z7OJZdLWWyg87olWBz7IdyyTzJR-eGQSWyVTevsw0rPrHmVmpDpVX4UEqJxRxInHfi9-GwRXZx_3nhGjLWR6j2FcXwh7rNrVl41xjmvXhKpLflEA4PMLShoLdbu2vIVeQ3C817APYzGCukW02-nxHhocqWUBfH65_qCYBCCAArFYFr3fu8ZYspgZGNaUBREnX6mplTLD3tq5odDSB24DqvjrQK2JHPQgb7Y_XYvigdk0wKGmmySI3UZ-OJfW6Id9P0JaZbMRHpge5eST1FeQsDZHgxqyPngipEQazh_gSqvRIn-CJwCXiFz2Sbj8Zjp5fdEKKnrxPGEV53mEw6sSsWz3I8ElpToFBF1YFBGS6gVUemrJ1BbcndwIzS86TzptMhKHdePVSAdkn9-Ya5aId3k_SvmvT0vSjac0yxIKM8_PYJ4Xu1BU8MxXgNZqKceV26WkPU8lJA-r6RLX_qVIot5gFn7ydEZCAUuIsduVcDpyNBEkskwh9aR2x7XkMP_LWLpfNmUg7YpAiwlpO83o-8t2EfhNwjf1DmBMib9qcLCA4tpDRVCUyNnpRSaqByGuz0CdjaczmdxbUN46oLrTI7UUbfQ0wNX7mvNsap2jrx1qvMC8ole32TYaeHyyNGr4vjqBs5LL9jTyhHdjOUR4hxoV0PSQsRerTOqfbOrBnBQEgaNbELwDKSbBMC2gNV6o75_MC-B37a5fdZJhM0FNB75SrNt3hz18O88DzkYiOs7TSCrochdRRcnjrzkBv7hGt3tg1g1gLJZ22_XbBU6iUSyeJeV6svfcK9eiIN7TTVfP79uxwWgV8ZBiVMNy4vnsu7DYvKhb9VSP7x_g1hnkUd6mY_vbV618EvzLeYSz72XG-demP5eCXcBCtwNgieI2-JakGBQpPyeWCNYZEjT4-HNQB7WmpVxtvtH1B5VJOkEI-onLPRdYdK5yNZTxrITmYtbzABVjKEXKYT6V90vGQEsvDZmmFcMGg1Ml4yAizNgKx__3V92K5oghCsLQlfK6huF78B9H1LsgcdK4beZIyQmKTZ_j35o-LZfNjbwgbCRtr9Pr8B_PIEwMFrJddy1]--></g></svg>