<?xml version="1.0" encoding="us-ascii" standalone="no"?><svg xmlns="http://www.w3.org/2000/svg" xmlns:xlink="http://www.w3.org/1999/xlink" contentStyleType="text/css" height="965px" preserveAspectRatio="none" style="width:508px;height:965px;background:#FFFFFF;" version="1.1" viewBox="0 0 508 965" width="508px" zoomAndPan="magnify"><defs/><g><ellipse cx="124.5" cy="16" fill="#222222" rx="10" ry="10" style="stroke:#222222;stroke-width:1.0;"/><g id="Hace"><rect fill="#E0FFFF" height="134.4075" rx="12.5" ry="12.5" style="stroke:#181818;stroke-width:0.5;" width="229" x="10" y="87"/><line style="stroke:#181818;stroke-width:0.5;" x1="10" x2="239" y1="135.1358" y2="135.1358"/><text fill="#000000" font-family="sans-serif" font-size="14" font-weight="bold" lengthAdjust="spacing" textLength="100" x="74.5" y="106.9659">1. Sabe HACER</text><text fill="#000000" font-family="sans-serif" font-size="14" font-weight="bold" lengthAdjust="spacing" textLength="209" x="20" y="126.0339">lo que hacen los profesionales</text><text fill="#000000" font-family="sans-serif" font-size="14" lengthAdjust="spacing" textLength="179" x="15" y="155.1018">Revisar y mantener c&#243;digo</text><text fill="#000000" font-family="sans-serif" font-size="14" lengthAdjust="spacing" textLength="193" x="15" y="174.1697">Justificar decisiones t&#233;cnicas</text><text fill="#000000" font-family="sans-serif" font-size="14" lengthAdjust="spacing" textLength="192" x="15" y="193.2376">Modificar implementaciones</text><text fill="#000000" font-family="sans-serif" font-size="14" lengthAdjust="spacing" textLength="161" x="15" y="212.3055">Asumir responsabilidad</text></g><g id="Entiende"><rect fill="#E0FFFF" height="134.4075" rx="12.5" ry="12.5" style="stroke:#181818;stroke-width:0.5;" width="235" x="7" y="318"/><line style="stroke:#181818;stroke-width:0.5;" x1="7" x2="242" y1="366.1358" y2="366.1358"/><text fill="#000000" font-family="sans-serif" font-size="14" font-weight="bold" lengthAdjust="spacing" textLength="85" x="82" y="337.9659">2. ENTIENDE</text><text fill="#000000" font-family="sans-serif" font-size="14" font-weight="bold" lengthAdjust="spacing" textLength="93" x="78" y="357.0339">vs. memoriza</text><text fill="#000000" font-family="sans-serif" font-size="14" lengthAdjust="spacing" textLength="152" x="12" y="386.1018">Comprende realmente</text><text fill="#000000" font-family="sans-serif" font-size="14" lengthAdjust="spacing" textLength="188" x="12" y="405.1697">No solo reproduce patrones</text><text fill="#000000" font-family="sans-serif" font-size="14" lengthAdjust="spacing" textLength="215" x="12" y="424.2376">Detecta c&#243;digo que no entiende</text><text fill="#000000" font-family="sans-serif" font-size="14" lengthAdjust="spacing" textLength="214" x="12" y="443.3055">Valora el pensamiento evolutivo</text></g><g id="NoCopia"><rect fill="#E0FFFF" height="115.3396" rx="12.5" ry="12.5" style="stroke:#181818;stroke-width:0.5;" width="214" x="17.5" y="549"/><line style="stroke:#181818;stroke-width:0.5;" x1="17.5" x2="231.5" y1="597.1358" y2="597.1358"/><text fill="#000000" font-family="sans-serif" font-size="14" font-weight="bold" lengthAdjust="spacing" textLength="137" x="56" y="568.9659">3. COPIAR no ayuda</text><text fill="#000000" font-family="sans-serif" font-size="14" font-weight="bold" lengthAdjust="spacing" textLength="111" x="69" y="588.0339">en la evaluaci&#243;n</text><text fill="#000000" font-family="sans-serif" font-size="14" lengthAdjust="spacing" textLength="166" x="22.5" y="617.1018">Examen sobre SU c&#243;digo</text><text fill="#000000" font-family="sans-serif" font-size="14" lengthAdjust="spacing" textLength="165" x="22.5" y="636.1697">Copiar genera problema</text><text fill="#000000" font-family="sans-serif" font-size="14" lengthAdjust="spacing" textLength="194" x="22.5" y="655.2376">Estilo evolutivo es detectable</text></g><g id="Listo"><rect fill="#E0FFFF" height="115.3396" rx="12.5" ry="12.5" style="stroke:#181818;stroke-width:0.5;" width="222" x="13.5" y="761"/><line style="stroke:#181818;stroke-width:0.5;" x1="13.5" x2="235.5" y1="809.1358" y2="809.1358"/><text fill="#000000" font-family="sans-serif" font-size="14" font-weight="bold" lengthAdjust="spacing" textLength="91" x="79" y="780.9659">4. LISTO para</text><text fill="#000000" font-family="sans-serif" font-size="14" font-weight="bold" lengthAdjust="spacing" textLength="138" x="55.5" y="800.0339">realidad profesional</text><text fill="#000000" font-family="sans-serif" font-size="14" lengthAdjust="spacing" textLength="201" x="18.5" y="829.1018">IA como herramienta leg&#237;tima</text><text fill="#000000" font-family="sans-serif" font-size="14" lengthAdjust="spacing" textLength="154" x="18.5" y="848.1697">Documenta su proceso</text><text fill="#000000" font-family="sans-serif" font-size="14" lengthAdjust="spacing" textLength="202" x="18.5" y="867.2376">Audita y gestiona lo generado</text></g><ellipse cx="124.5" cy="948" fill="none" rx="11" ry="11" style="stroke:#222222;stroke-width:1.0;"/><ellipse cx="124.5" cy="948" fill="#222222" rx="6" ry="6" style="stroke:#222222;stroke-width:1.0;"/><g id="elem_GMN13"><path d="M274.5,131.5 L274.5,150 L239.3,154 L274.5,158 L274.5,176.912 A0,0 0 0 0 274.5,176.912 L470.5,176.912 A0,0 0 0 0 470.5,176.912 L470.5,141.5 L460.5,131.5 L274.5,131.5 A0,0 0 0 0 274.5,131.5 " fill="#FEFFDD" style="stroke:#181818;stroke-width:0.5;"/><path d="M460.5,131.5 L460.5,141.5 L470.5,141.5 L460.5,131.5 " fill="#FEFFDD" style="stroke:#181818;stroke-width:0.5;"/><text fill="#000000" font-family="sans-serif" font-size="13" font-weight="bold" lengthAdjust="spacing" textLength="110" x="280.5" y="150.397">Punto de partida</text><text fill="#000000" font-family="sans-serif" font-size="13" lengthAdjust="spacing" textLength="175" x="280.5" y="168.103">Adquirir habilidades pr&#225;cticas</text></g><g id="elem_GMN16"><path d="M277.5,353.5 L277.5,381 L242.25,385 L277.5,389 L277.5,416.618 A0,0 0 0 0 277.5,416.618 L501.5,416.618 A0,0 0 0 0 501.5,416.618 L501.5,363.5 L491.5,353.5 L277.5,353.5 A0,0 0 0 0 277.5,353.5 " fill="#FEFFDD" style="stroke:#181818;stroke-width:0.5;"/><path d="M491.5,353.5 L491.5,363.5 L501.5,363.5 L491.5,353.5 " fill="#FEFFDD" style="stroke:#181818;stroke-width:0.5;"/><text fill="#000000" font-family="sans-serif" font-size="13" font-weight="bold" lengthAdjust="spacing" textLength="112" x="283.5" y="372.397">Clave del sistema</text><text fill="#000000" font-family="sans-serif" font-size="13" lengthAdjust="spacing" textLength="203" x="283.5" y="390.103">Aqu&#237; falla la evaluaci&#243;n tradicional:</text><text fill="#000000" font-family="sans-serif" font-size="13" lengthAdjust="spacing" textLength="189" x="283.5" y="407.809">mide "Hace" pero no "Entiende"</text></g><g id="elem_GMN19"><path d="M266.5,566 L266.5,602.5 L231.86,606.5 L266.5,610.5 L266.5,646.8241 A0,0 0 0 0 266.5,646.8241 L420.5,646.8241 A0,0 0 0 0 420.5,646.8241 L420.5,576 L410.5,566 L266.5,566 A0,0 0 0 0 266.5,566 " fill="#FEFFDD" style="stroke:#181818;stroke-width:0.5;"/><path d="M410.5,566 L410.5,576 L420.5,576 L410.5,566 " fill="#FEFFDD" style="stroke:#181818;stroke-width:0.5;"/><text fill="#000000" font-family="sans-serif" font-size="13" font-weight="bold" lengthAdjust="spacing" textLength="94" x="272.5" y="584.897">Efecto natural</text><text fill="#000000" font-family="sans-serif" font-size="13" lengthAdjust="spacing" textLength="133" x="272.5" y="602.603">No prohibimos copiar,</text><text fill="#000000" font-family="sans-serif" font-size="13" lengthAdjust="spacing" textLength="128" x="272.5" y="620.309">simplemente no sirve</text><text fill="#000000" font-family="sans-serif" font-size="13" lengthAdjust="spacing" textLength="78" x="272.5" y="638.0151">para aprobar</text></g><g id="elem_GMN22"><path d="M270.5,787 L270.5,814.5 L235.83,818.5 L270.5,822.5 L270.5,850.118 A0,0 0 0 0 270.5,850.118 L434.5,850.118 A0,0 0 0 0 434.5,850.118 L434.5,797 L424.5,787 L270.5,787 A0,0 0 0 0 270.5,787 " fill="#FEFFDD" style="stroke:#181818;stroke-width:0.5;"/><path d="M424.5,787 L424.5,797 L434.5,797 L424.5,787 " fill="#FEFFDD" style="stroke:#181818;stroke-width:0.5;"/><text fill="#000000" font-family="sans-serif" font-size="13" font-weight="bold" lengthAdjust="spacing" textLength="99" x="276.5" y="805.897">Estado objetivo</text><text fill="#000000" font-family="sans-serif" font-size="13" lengthAdjust="spacing" textLength="143" x="276.5" y="823.603">Profesional competente</text><text fill="#000000" font-family="sans-serif" font-size="13" lengthAdjust="spacing" textLength="70" x="276.5" y="841.309">en era de IA</text></g><!--link *start* to Hace--><g id="link_*start*_Hace"><path d="M124.5,26.35 C124.5,39.13 124.5,57.2 124.5,80.95 " fill="none" id="*start*-to-Hace" style="stroke:#181818;stroke-width:1.0;"/><polygon fill="#181818" points="124.5,86.95,128.5,77.95,124.5,81.95,120.5,77.95,124.5,86.95" style="stroke:#181818;stroke-width:1.0;"/></g><!--link Hace to Entiende--><g id="link_Hace_Entiende"><path d="M124.5,221.24 C124.5,251.62 124.5,281.55 124.5,311.91 " fill="none" id="Hace-to-Entiende" style="stroke:#181818;stroke-width:1.0;"/><polygon fill="#181818" points="124.5,317.91,128.5,308.91,124.5,312.91,120.5,308.91,124.5,317.91" style="stroke:#181818;stroke-width:1.0;"/><text fill="#000000" font-family="sans-serif" font-size="13" lengthAdjust="spacing" textLength="60" x="135" y="265.897">Desarrolla</text><text fill="#000000" font-family="sans-serif" font-size="13" lengthAdjust="spacing" textLength="79" x="125.5" y="283.603">comprensi&#243;n</text></g><!--link Entiende to NoCopia--><g id="link_Entiende_NoCopia"><path d="M124.5,452.15 C124.5,482.96 124.5,513.23 124.5,542.76 " fill="none" id="Entiende-to-NoCopia" style="stroke:#181818;stroke-width:1.0;"/><polygon fill="#181818" points="124.5,548.76,128.5,539.76,124.5,543.76,120.5,539.76,124.5,548.76" style="stroke:#181818;stroke-width:1.0;"/><text fill="#000000" font-family="sans-serif" font-size="13" lengthAdjust="spacing" textLength="33" x="133.5" y="496.897">Ya no</text><text fill="#000000" font-family="sans-serif" font-size="13" lengthAdjust="spacing" textLength="49" x="125.5" y="514.603">necesita</text></g><!--link NoCopia to Listo--><g id="link_NoCopia_Listo"><path d="M124.5,664.05 C124.5,694.06 124.5,724.83 124.5,754.85 " fill="none" id="NoCopia-to-Listo" style="stroke:#181818;stroke-width:1.0;"/><polygon fill="#181818" points="124.5,760.85,128.5,751.85,124.5,755.85,120.5,751.85,124.5,760.85" style="stroke:#181818;stroke-width:1.0;"/><text fill="#000000" font-family="sans-serif" font-size="13" lengthAdjust="spacing" textLength="93" x="139" y="708.897">Preparado para</text><text fill="#000000" font-family="sans-serif" font-size="13" lengthAdjust="spacing" textLength="120" x="125.5" y="726.603">IA + responsabilidad</text></g><!--link Listo to *end*--><g id="link_Listo_*end*"><path d="M124.5,876.17 C124.5,899.31 124.5,917.72 124.5,930.98 " fill="none" id="Listo-to-*end*" style="stroke:#181818;stroke-width:1.0;"/><polygon fill="#181818" points="124.5,936.98,128.5,927.98,124.5,931.98,120.5,927.98,124.5,936.98" style="stroke:#181818;stroke-width:1.0;"/></g><!--SRC=[TLHDRnen4BtlhnXnf2rIsfnGX4J9Lg5A2GfffQhfOV0EuCPhR_o1Igh-c1vxo2a_WJ_MiPVbgmaNm7wUUM_cpRWxgIkqM8Bpw0b-PS2VzoZkvjO4NGoCClRip4n_a9TBq-l1fPml_625EY4_6Eqdye7Wv3JzptvdsRVsTtZpfWSNA2ZBwhYjisdlf0CJd19Sz0VvzQtc4sNWFX0i6AX16GULDJDoqcXKv5g0BWM10m8rnNJUXMjQIeSMLb2YzgJ9WbW_5N9kzb4VW_Do9WK32n8o9Y07VlrNQ3vq-z1FfjWWPLafAabx50c_Z-gxK4eBbbnbjCEfLBB08ehVoNtRWNnqCyn7vtaIktGTAAaqLZvWafPhBqaNpyhRtdLXOChAfj-MK4L2T0mP6N3SA0Pm0Ol052lqTajw3tbEdeJ7faYf_De0RH37y2_8xKSW1HMnpfBFFQENHeL8zr3mkmuChiR3_dMCYAjGOD8TMyiXbgW2LtBzf9FuaHcOIk9psfkhBkG_aVMojgabc7m-QEqEbRujp6FtCLfeodt3ur3i0BL77TW0HLqCXXyAEUt0vN1oSmLnCfA6MFdOuNs39XcNqd51dX5HNtHXs0TXIWCBihQk7uAY-VhHomt71dbkH4Xs0nTY7a7E703weP1yksAbB8OfyCXiL1Uf5ScSSV8E6ixZOOrIB4JKJdAn2TaM4n_iwlGLkNktMXEdvsnPSnDH3P4n-mnZqas1MEEh_sOXgz7n7I-4BDE6gslZyW0pgtS3GBiz3j5HHNIizVomtURZVd4VfEK1MpJXAEw6zH_XqxmoRuZnZgFcEnktsmE5I-B82XmpOKVKeU_3-X5co0KviYLubYH5wcsNaQLaLgr8jCNkjoQwkjLaQBt8OLEmH26ViR_u8VfWKQNyFAhSsuMSofBtdKZMVStdRhjkqa0wQPTHHYmmOFGqsXTJfahN2Td4t9R6ZIdZU6VPQCMAJL-l49wiE32iSjZVnVu7]--></g></svg>