<?xml version="1.0" encoding="us-ascii" standalone="no"?><svg xmlns="http://www.w3.org/2000/svg" xmlns:xlink="http://www.w3.org/1999/xlink" contentStyleType="text/css" height="824px" preserveAspectRatio="none" style="width:689px;height:824px;background:#FFFFFF;" version="1.1" viewBox="0 0 689 824" width="689px" zoomAndPan="magnify"><defs/><g><path d="M106.5,7 L334.5,7 A12.5,12.5 0 0 1 347,19.5 L347,55.1358 L94,55.1358 L94,19.5 A12.5,12.5 0 0 1 106.5,7 " fill="#F1F1F1" style="stroke:#F1F1F1;stroke-width:1.0;"/><rect fill="none" height="427.3396" rx="12.5" ry="12.5" style="stroke:#181818;stroke-width:0.5;" width="253" x="94" y="7"/><line style="stroke:#181818;stroke-width:0.5;" x1="94" x2="347" y1="55.1358" y2="55.1358"/><text fill="#000000" font-family="sans-serif" font-size="14" font-weight="bold" lengthAdjust="spacing" textLength="115" x="163" y="26.9659">Que sepan hacer</text><text fill="#000000" font-family="sans-serif" font-size="14" font-weight="bold" lengthAdjust="spacing" textLength="209" x="116" y="46.0339">lo que hacen los profesionales</text><rect fill="#F1F1F1" height="48.1358" rx="12.5" ry="12.5" style="stroke:#181818;stroke-width:0.5;" width="233" x="106" y="67.1358"/><text fill="#000000" font-family="sans-serif" font-size="14" lengthAdjust="spacing" textLength="223" x="111" y="87.1018">Capacidad de revisar y mantener</text><text fill="#000000" font-family="sans-serif" font-size="14" lengthAdjust="spacing" textLength="145" x="150" y="106.1697">c&#243;digo propio y ajeno</text><rect fill="#F1F1F1" height="67.2038" rx="12.5" ry="12.5" style="stroke:#181818;stroke-width:0.5;" width="167" x="139" y="151.1358"/><text fill="#000000" font-family="sans-serif" font-size="14" lengthAdjust="spacing" textLength="149" x="148" y="171.1018">Habilidad de justificar</text><text fill="#000000" font-family="sans-serif" font-size="14" lengthAdjust="spacing" textLength="157" x="144" y="190.1697">sus decisiones t&#233;cnicas</text><text fill="#000000" font-family="sans-serif" font-size="14" lengthAdjust="spacing" textLength="139" x="153" y="209.2376">ante clientes y pares</text><rect fill="#F1F1F1" height="67.2038" rx="12.5" ry="12.5" style="stroke:#181818;stroke-width:0.5;" width="187" x="129" y="254.1358"/><text fill="#000000" font-family="sans-serif" font-size="14" lengthAdjust="spacing" textLength="177" x="134" y="274.1018">Competencia de modificar</text><text fill="#000000" font-family="sans-serif" font-size="14" lengthAdjust="spacing" textLength="124" x="160.5" y="293.1697">implementaciones</text><text fill="#000000" font-family="sans-serif" font-size="14" lengthAdjust="spacing" textLength="153" x="146" y="312.2376">ante nuevos requisitos</text><rect fill="#F1F1F1" height="67.2038" rx="12.5" ry="12.5" style="stroke:#181818;stroke-width:0.5;" width="191" x="127" y="357.1358"/><text fill="#000000" font-family="sans-serif" font-size="14" lengthAdjust="spacing" textLength="112" x="166.5" y="377.1018">Responsabilidad</text><text fill="#000000" font-family="sans-serif" font-size="14" lengthAdjust="spacing" textLength="181" x="132" y="396.1697">sobre el c&#243;digo entregado:</text><text fill="#000000" font-family="sans-serif" font-size="14" lengthAdjust="spacing" textLength="80" x="182.5" y="415.2376">deontolog&#237;a</text><!--link HACER1 to HACER2--><!--link HACER2 to HACER3--><!--link HACER3 to HACER4--><path d="M394.5,49 L630.5,49 A12.5,12.5 0 0 1 643,61.5 L643,97.1358 L382,97.1358 L382,61.5 A12.5,12.5 0 0 1 394.5,49 " fill="#F1F1F1" style="stroke:#F1F1F1;stroke-width:1.0;"/><rect fill="none" height="343.3396" rx="12.5" ry="12.5" style="stroke:#181818;stroke-width:0.5;" width="261" x="382" y="49"/><line style="stroke:#181818;stroke-width:0.5;" x1="382" x2="643" y1="97.1358" y2="97.1358"/><text fill="#000000" font-family="sans-serif" font-size="14" font-weight="bold" lengthAdjust="spacing" textLength="192" x="416.5" y="68.9659">Distinguir quien *entiende*</text><text fill="#000000" font-family="sans-serif" font-size="14" font-weight="bold" lengthAdjust="spacing" textLength="134" x="445.5" y="88.0339">de quien memoriza</text><rect fill="#F1F1F1" height="67.2038" rx="12.5" ry="12.5" style="stroke:#181818;stroke-width:0.5;" width="241" x="394" y="109.1358"/><text fill="#000000" font-family="sans-serif" font-size="14" lengthAdjust="spacing" textLength="70" x="479.5" y="129.1018">Identificar</text><text fill="#000000" font-family="sans-serif" font-size="14" lengthAdjust="spacing" textLength="193" x="418" y="148.1697">qui&#233;n realmente comprende</text><text fill="#000000" font-family="sans-serif" font-size="14" lengthAdjust="spacing" textLength="231" x="399" y="167.2376">frente a qui&#233;n memoriz&#243; patrones</text><rect fill="#F1F1F1" height="67.2038" rx="12.5" ry="12.5" style="stroke:#181818;stroke-width:0.5;" width="233" x="398" y="212.1358"/><text fill="#000000" font-family="sans-serif" font-size="14" lengthAdjust="spacing" textLength="223" x="403" y="232.1018">Detectar cuando alguien entrega</text><text fill="#000000" font-family="sans-serif" font-size="14" lengthAdjust="spacing" textLength="160" x="434.5" y="251.1697">c&#243;digo que no entiende</text><text fill="#000000" font-family="sans-serif" font-size="14" lengthAdjust="spacing" textLength="223" x="403" y="270.2376">sea de IA, compa&#241;eros o internet</text><rect fill="#F1F1F1" height="67.2038" rx="12.5" ry="12.5" style="stroke:#181818;stroke-width:0.5;" width="207" x="411" y="315.1358"/><text fill="#000000" font-family="sans-serif" font-size="14" lengthAdjust="spacing" textLength="48" x="490.5" y="335.1018">Valorar</text><text fill="#000000" font-family="sans-serif" font-size="14" lengthAdjust="spacing" textLength="197" x="416" y="354.1697">la evoluci&#243;n del pensamiento</text><text fill="#000000" font-family="sans-serif" font-size="14" lengthAdjust="spacing" textLength="177" x="426" y="373.2376">y no solo el resultado final</text><!--link DISTINGUIR1 to DISTINGUIR2--><!--link DISTINGUIR2 to DISTINGUIR3--><path d="M362,503.5 L663,503.5 A12.5,12.5 0 0 1 675.5,516 L675.5,532.5679 L349.5,532.5679 L349.5,516 A12.5,12.5 0 0 1 362,503.5 " fill="#F1F1F1" style="stroke:#F1F1F1;stroke-width:1.0;"/><rect fill="none" height="305.2038" rx="12.5" ry="12.5" style="stroke:#181818;stroke-width:0.5;" width="326" x="349.5" y="503.5"/><line style="stroke:#181818;stroke-width:0.5;" x1="349.5" x2="675.5" y1="532.5679" y2="532.5679"/><text fill="#000000" font-family="sans-serif" font-size="14" font-weight="bold" lengthAdjust="spacing" textLength="197" x="414" y="523.4659">Que copiar no tenga sentido</text><rect fill="#F1F1F1" height="67.2038" rx="12.5" ry="12.5" style="stroke:#181818;stroke-width:0.5;" width="220" x="404.5" y="544.5679"/><text fill="#000000" font-family="sans-serif" font-size="14" lengthAdjust="spacing" textLength="165" x="432" y="564.5339">Si cada examen es &#250;nico</text><text fill="#000000" font-family="sans-serif" font-size="14" lengthAdjust="spacing" textLength="210" x="409.5" y="583.6018">porque deriva del c&#243;digo &#250;nico</text><text fill="#000000" font-family="sans-serif" font-size="14" lengthAdjust="spacing" textLength="129" x="450" y="602.6697">de cada estudiante</text><rect fill="#F1F1F1" height="67.2038" rx="12.5" ry="12.5" style="stroke:#181818;stroke-width:0.5;" width="306" x="361.5" y="647.5679"/><text fill="#000000" font-family="sans-serif" font-size="14" lengthAdjust="spacing" textLength="44" x="492.5" y="667.5339">Copiar</text><text fill="#000000" font-family="sans-serif" font-size="14" lengthAdjust="spacing" textLength="153" x="438" y="686.6018">se vuelve un problema</text><text fill="#000000" font-family="sans-serif" font-size="14" lengthAdjust="spacing" textLength="296" x="366.5" y="705.6697">te examinan sobre c&#243;digo que no entiendes</text><rect fill="#F1F1F1" height="48.1358" rx="12.5" ry="12.5" style="stroke:#181818;stroke-width:0.5;" width="264" x="382.5" y="750.5679"/><text fill="#000000" font-family="sans-serif" font-size="14" lengthAdjust="spacing" textLength="208" x="410.5" y="770.5339">Revisiones evolutivas permiten</text><text fill="#000000" font-family="sans-serif" font-size="14" lengthAdjust="spacing" textLength="254" x="387.5" y="789.6018">detectar cambios repentinos de estilo</text><!--link COPIAR1 to COPIAR2--><!--link COPIAR2 to COPIAR3--><path d="M19.5,494 L301.5,494 A12.5,12.5 0 0 1 314,506.5 L314,561.2038 L7,561.2038 L7,506.5 A12.5,12.5 0 0 1 19.5,494 " fill="#F1F1F1" style="stroke:#F1F1F1;stroke-width:1.0;"/><rect fill="none" height="324.3396" rx="12.5" ry="12.5" style="stroke:#181818;stroke-width:0.5;" width="307" x="7" y="494"/><line style="stroke:#181818;stroke-width:0.5;" x1="7" x2="314" y1="561.2038" y2="561.2038"/><text fill="#000000" font-family="sans-serif" font-size="14" font-weight="bold" lengthAdjust="spacing" textLength="108" x="106.5" y="513.9659">Preparar con IA</text><text fill="#000000" font-family="sans-serif" font-size="14" font-weight="bold" lengthAdjust="spacing" textLength="203" x="59" y="533.0339">para una realidad profesional</text><text fill="#000000" font-family="sans-serif" font-size="14" font-weight="bold" lengthAdjust="spacing" textLength="54" x="133.5" y="552.1018">(con IA)</text><rect fill="#F1F1F1" height="67.2038" rx="12.5" ry="12.5" style="stroke:#181818;stroke-width:0.5;" width="246" x="39.5" y="573.2038"/><text fill="#000000" font-family="sans-serif" font-size="14" lengthAdjust="spacing" textLength="236" x="44.5" y="593.1697">Usar IA como herramienta leg&#237;tima</text><text fill="#000000" font-family="sans-serif" font-size="14" lengthAdjust="spacing" textLength="137" x="94" y="612.2376">con responsabilidad</text><text fill="#000000" font-family="sans-serif" font-size="14" lengthAdjust="spacing" textLength="128" x="98.5" y="631.3055">sobre lo entregado</text><rect fill="#F1F1F1" height="48.1358" rx="12.5" ry="12.5" style="stroke:#181818;stroke-width:0.5;" width="248" x="38.5" y="676.2038"/><text fill="#000000" font-family="sans-serif" font-size="14" lengthAdjust="spacing" textLength="238" x="43.5" y="696.1697">Documentar el proceso de creaci&#243;n</text><text fill="#000000" font-family="sans-serif" font-size="14" lengthAdjust="spacing" textLength="140" x="92.5" y="715.2376">y no solo el producto</text><rect fill="#F1F1F1" height="48.1358" rx="12.5" ry="12.5" style="stroke:#181818;stroke-width:0.5;" width="287" x="19" y="760.2038"/><text fill="#000000" font-family="sans-serif" font-size="14" lengthAdjust="spacing" textLength="219" x="53" y="780.1697">Demostrar capacidad de gesti&#243;n</text><text fill="#000000" font-family="sans-serif" font-size="14" lengthAdjust="spacing" textLength="277" x="24" y="799.2376">Auditar, corregir y extender lo entregado</text><!--link PREPARAR1 to PREPARAR2--><!--link PREPARAR2 to PREPARAR3--><!--link HACER to DISTINGUIR--><!--link DISTINGUIR to COPIAR--><!--reverse link PREPARAR to COPIAR--><!--SRC=[TLLDRnCn4BtxLrWv0GAX4au8LOhQ2dA1KZukX8DZJrCZhxtOteY2-44SEA3UkEQFySRURPPko6KbZ_rcvhqtaojhI5BJvcjfAEbesso35o9bbKc-N9oSNKYLvEpv-lXDHp9HgxoyKfhYokFC1Va5ntpWfGj9jZ5SKWA4SfIUFruVp-Ht8V4R0HuLn1FLAcsDCaWi8srjKb5UoqRvJ9xXzUx6s4rWoDO6XDHdyc5s5-r9GNkfrjODQ9-xbEsbrGeegKiuqfPheYJpxgVsYAILvqHIEqlu9i2tAbAQmCzhiQ5f2NLfgpX14yo0RvlMKGCCDCCPUbpVqHPqHFhI8NKEK-2d1VY2KXjy6gf7lM4TeOYJG_k0ZhHH9ZnRUKF1v-32PlTBpOJuCUXqkdpxRldgnVlbhLYd5XJuJMSZ14AByW5my3Nqe0Y79kfvGqs8zfkQQhK7hO8j3KFqRUFnxgT7Vyfnyo0I34N6N_dBM4wKx2_rANOte3X79cbsC4rLyXGywmmlw4vv4wHocr9epyFU5smyN_YnDM-Y8ivoyR1KetQ_AKA382tAYPxouRHLuG_AXSYTEIKXdUkqtTruu3dP4WHgs2TXvQyvPu86h14CqxaCRUIbXUDdUqLENfyl5_-CZeQBqHLUmqSRXL52uIPKtlyXlhwjfB-rKYk3ahwgXab8SlS7_aKXROZCWA5ejwhKEH0pt00NzMtAdR5iozaaovFUtbmRCoYt7RajoSxptArXRJ2EsvmVBNfP_VaV3T8qmRot-NQOm49kHirO5XGR2pQur45qrQnj6PoMGNtWwUKEh0k5tfxVyukpyyN5dk5pF52H0OA70uh7-G2DgEBIiXj6swdSk5Tltv-QVy2lAhpdtRHSiAs2lA8OgnsKT8HHp9P9OgXuU9hTQ8fd1vBqnW-wAuiaihLGggOKk7kD-eiRxxWFLqodyq78UJzBJKYvq3BUjXlci-0jO0mav869gC_o1gQlcRMCTye6z_NluD77Askm2px5HyUZCHAZ9NHxnU1AzO7e9-8sv10QgksXZ_PH1Ejs5_sIdqJcej_FayXJ8SQxQnmVBHinNZo7xyo566PnVA6V735Cq3I6Xti3ZSEtYekzzeVYS_4N]--></g></svg>