<?xml version="1.0" encoding="us-ascii" standalone="no"?><svg xmlns="http://www.w3.org/2000/svg" xmlns:xlink="http://www.w3.org/1999/xlink" contentStyleType="text/css" height="824px" preserveAspectRatio="none" style="width:689px;height:824px;background:#FFFFFF;" version="1.1" viewBox="0 0 689 824" width="689px" zoomAndPan="magnify"><defs/><g><path d="M106.5,7 L334.5,7 A12.5,12.5 0 0 1 347,19.5 L347,55.1358 L94,55.1358 L94,19.5 A12.5,12.5 0 0 1 106.5,7 " fill="#F1F1F1" style="stroke:#F1F1F1;stroke-width:1.0;"/><rect fill="none" height="427.3396" rx="12.5" ry="12.5" style="stroke:#181818;stroke-width:0.5;" width="253" x="94" y="7"/><line style="stroke:#181818;stroke-width:0.5;" x1="94" x2="347" y1="55.1358" y2="55.1358"/><text fill="#000000" font-family="sans-serif" font-size="14" font-weight="bold" lengthAdjust="spacing" textLength="115" x="163" y="26.9659">Que sepan hacer</text><text fill="#000000" font-family="sans-serif" font-size="14" font-weight="bold" lengthAdjust="spacing" textLength="209" x="116" y="46.0339">lo que hacen los profesionales</text><rect fill="#F1F1F1" height="48.1358" rx="12.5" ry="12.5" style="stroke:#181818;stroke-width:0.5;" width="233" x="106" y="67.1358"/><text fill="#000000" font-family="sans-serif" font-size="14" lengthAdjust="spacing" textLength="223" x="111" y="87.1018">Capacidad de revisar y mantener</text><text fill="#000000" font-family="sans-serif" font-size="14" lengthAdjust="spacing" textLength="145" x="150" y="106.1697">c&#243;digo propio y ajeno</text><rect fill="#F1F1F1" height="67.2038" rx="12.5" ry="12.5" style="stroke:#181818;stroke-width:0.5;" width="167" x="139" y="151.1358"/><text fill="#000000" font-family="sans-serif" font-size="14" lengthAdjust="spacing" textLength="149" x="148" y="171.1018">Habilidad de justificar</text><text fill="#000000" font-family="sans-serif" font-size="14" lengthAdjust="spacing" textLength="157" x="144" y="190.1697">sus decisiones t&#233;cnicas</text><text fill="#000000" font-family="sans-serif" font-size="14" lengthAdjust="spacing" textLength="139" x="153" y="209.2376">ante clientes y pares</text><rect fill="#F1F1F1" height="67.2038" rx="12.5" ry="12.5" style="stroke:#181818;stroke-width:0.5;" width="187" x="129" y="254.1358"/><text fill="#000000" font-family="sans-serif" font-size="14" lengthAdjust="spacing" textLength="177" x="134" y="274.1018">Competencia de modificar</text><text fill="#000000" font-family="sans-serif" font-size="14" lengthAdjust="spacing" textLength="124" x="160.5" y="293.1697">implementaciones</text><text fill="#000000" font-family="sans-serif" font-size="14" lengthAdjust="spacing" textLength="153" x="146" y="312.2376">ante nuevos requisitos</text><rect fill="#F1F1F1" height="67.2038" rx="12.5" ry="12.5" style="stroke:#181818;stroke-width:0.5;" width="191" x="127" y="357.1358"/><text fill="#000000" font-family="sans-serif" font-size="14" lengthAdjust="spacing" textLength="112" x="166.5" y="377.1018">Responsabilidad</text><text fill="#000000" font-family="sans-serif" font-size="14" lengthAdjust="spacing" textLength="181" x="132" y="396.1697">sobre el c&#243;digo entregado:</text><text fill="#000000" font-family="sans-serif" font-size="14" lengthAdjust="spacing" textLength="80" x="182.5" y="415.2376">deontolog&#237;a</text><!--link HACER1 to HACER2--><!--link HACER2 to HACER3--><!--link HACER3 to HACER4--><path d="M394.5,49 L630.5,49 A12.5,12.5 0 0 1 643,61.5 L643,97.1358 L382,97.1358 L382,61.5 A12.5,12.5 0 0 1 394.5,49 " fill="#F1F1F1" style="stroke:#F1F1F1;stroke-width:1.0;"/><rect fill="none" height="343.3396" rx="12.5" ry="12.5" style="stroke:#181818;stroke-width:0.5;" width="261" x="382" y="49"/><line style="stroke:#181818;stroke-width:0.5;" x1="382" x2="643" y1="97.1358" y2="97.1358"/><text fill="#000000" font-family="sans-serif" font-size="14" font-weight="bold" lengthAdjust="spacing" textLength="176" x="424.5" y="68.9659">Distinguir quien entiende</text><text fill="#000000" font-family="sans-serif" font-size="14" font-weight="bold" lengthAdjust="spacing" textLength="134" x="445.5" y="88.0339">de quien memoriza</text><rect fill="#F1F1F1" height="67.2038" rx="12.5" ry="12.5" style="stroke:#181818;stroke-width:0.5;" width="241" x="394" y="109.1358"/><text fill="#000000" font-family="sans-serif" font-size="14" lengthAdjust="spacing" textLength="70" x="479.5" y="129.1018">Identificar</text><text fill="#000000" font-family="sans-serif" font-size="14" lengthAdjust="spacing" textLength="193" x="418" y="148.1697">qui&#233;n realmente comprende</text><text fill="#000000" font-family="sans-serif" font-size="14" lengthAdjust="spacing" textLength="231" x="399" y="167.2376">frente a qui&#233;n memoriz&#243; patrones</text><rect fill="#F1F1F1" height="67.2038" rx="12.5" ry="12.5" style="stroke:#181818;stroke-width:0.5;" width="233" x="398" y="212.1358"/><text fill="#000000" font-family="sans-serif" font-size="14" lengthAdjust="spacing" textLength="223" x="403" y="232.1018">Detectar cuando alguien entrega</text><text fill="#000000" font-family="sans-serif" font-size="14" lengthAdjust="spacing" textLength="160" x="434.5" y="251.1697">c&#243;digo que no entiende</text><text fill="#000000" font-family="sans-serif" font-size="14" lengthAdjust="spacing" textLength="223" x="403" y="270.2376">sea de IA, compa&#241;eros o internet</text><rect fill="#F1F1F1" height="67.2038" rx="12.5" ry="12.5" style="stroke:#181818;stroke-width:0.5;" width="207" x="411" y="315.1358"/><text fill="#000000" font-family="sans-serif" font-size="14" lengthAdjust="spacing" textLength="48" x="490.5" y="335.1018">Valorar</text><text fill="#000000" font-family="sans-serif" font-size="14" lengthAdjust="spacing" textLength="197" x="416" y="354.1697">la evoluci&#243;n del pensamiento</text><text fill="#000000" font-family="sans-serif" font-size="14" lengthAdjust="spacing" textLength="177" x="426" y="373.2376">y no solo el resultado final</text><!--link DISTINGUIR1 to DISTINGUIR2--><!--link DISTINGUIR2 to DISTINGUIR3--><path d="M362,503.5 L663,503.5 A12.5,12.5 0 0 1 675.5,516 L675.5,532.5679 L349.5,532.5679 L349.5,516 A12.5,12.5 0 0 1 362,503.5 " fill="#F1F1F1" style="stroke:#F1F1F1;stroke-width:1.0;"/><rect fill="none" height="305.2038" rx="12.5" ry="12.5" style="stroke:#181818;stroke-width:0.5;" width="326" x="349.5" y="503.5"/><line style="stroke:#181818;stroke-width:0.5;" x1="349.5" x2="675.5" y1="532.5679" y2="532.5679"/><text fill="#000000" font-family="sans-serif" font-size="14" font-weight="bold" lengthAdjust="spacing" textLength="197" x="414" y="523.4659">Que copiar no tenga sentido</text><rect fill="#F1F1F1" height="67.2038" rx="12.5" ry="12.5" style="stroke:#181818;stroke-width:0.5;" width="220" x="404.5" y="544.5679"/><text fill="#000000" font-family="sans-serif" font-size="14" lengthAdjust="spacing" textLength="165" x="432" y="564.5339">Si cada examen es &#250;nico</text><text fill="#000000" font-family="sans-serif" font-size="14" lengthAdjust="spacing" textLength="210" x="409.5" y="583.6018">porque deriva del c&#243;digo &#250;nico</text><text fill="#000000" font-family="sans-serif" font-size="14" lengthAdjust="spacing" textLength="129" x="450" y="602.6697">de cada estudiante</text><rect fill="#F1F1F1" height="67.2038" rx="12.5" ry="12.5" style="stroke:#181818;stroke-width:0.5;" width="306" x="361.5" y="647.5679"/><text fill="#000000" font-family="sans-serif" font-size="14" lengthAdjust="spacing" textLength="44" x="492.5" y="667.5339">Copiar</text><text fill="#000000" font-family="sans-serif" font-size="14" lengthAdjust="spacing" textLength="153" x="438" y="686.6018">se vuelve un problema</text><text fill="#000000" font-family="sans-serif" font-size="14" lengthAdjust="spacing" textLength="296" x="366.5" y="705.6697">te examinan sobre c&#243;digo que no entiendes</text><rect fill="#F1F1F1" height="48.1358" rx="12.5" ry="12.5" style="stroke:#181818;stroke-width:0.5;" width="264" x="382.5" y="750.5679"/><text fill="#000000" font-family="sans-serif" font-size="14" lengthAdjust="spacing" textLength="208" x="410.5" y="770.5339">Revisiones evolutivas permiten</text><text fill="#000000" font-family="sans-serif" font-size="14" lengthAdjust="spacing" textLength="254" x="387.5" y="789.6018">detectar cambios repentinos de estilo</text><!--link COPIAR1 to COPIAR2--><!--link COPIAR2 to COPIAR3--><path d="M19.5,494 L301.5,494 A12.5,12.5 0 0 1 314,506.5 L314,561.2038 L7,561.2038 L7,506.5 A12.5,12.5 0 0 1 19.5,494 " fill="#F1F1F1" style="stroke:#F1F1F1;stroke-width:1.0;"/><rect fill="none" height="324.3396" rx="12.5" ry="12.5" style="stroke:#181818;stroke-width:0.5;" width="307" x="7" y="494"/><line style="stroke:#181818;stroke-width:0.5;" x1="7" x2="314" y1="561.2038" y2="561.2038"/><text fill="#000000" font-family="sans-serif" font-size="14" font-weight="bold" lengthAdjust="spacing" textLength="108" x="106.5" y="513.9659">Preparar con IA</text><text fill="#000000" font-family="sans-serif" font-size="14" font-weight="bold" lengthAdjust="spacing" textLength="203" x="59" y="533.0339">para una realidad profesional</text><text fill="#000000" font-family="sans-serif" font-size="14" font-weight="bold" lengthAdjust="spacing" textLength="54" x="133.5" y="552.1018">(con IA)</text><rect fill="#F1F1F1" height="67.2038" rx="12.5" ry="12.5" style="stroke:#181818;stroke-width:0.5;" width="246" x="39.5" y="573.2038"/><text fill="#000000" font-family="sans-serif" font-size="14" lengthAdjust="spacing" textLength="236" x="44.5" y="593.1697">Usar IA como herramienta leg&#237;tima</text><text fill="#000000" font-family="sans-serif" font-size="14" lengthAdjust="spacing" textLength="137" x="94" y="612.2376">con responsabilidad</text><text fill="#000000" font-family="sans-serif" font-size="14" lengthAdjust="spacing" textLength="128" x="98.5" y="631.3055">sobre lo entregado</text><rect fill="#F1F1F1" height="48.1358" rx="12.5" ry="12.5" style="stroke:#181818;stroke-width:0.5;" width="248" x="38.5" y="676.2038"/><text fill="#000000" font-family="sans-serif" font-size="14" lengthAdjust="spacing" textLength="238" x="43.5" y="696.1697">Documentar el proceso de creaci&#243;n</text><text fill="#000000" font-family="sans-serif" font-size="14" lengthAdjust="spacing" textLength="140" x="92.5" y="715.2376">y no solo el producto</text><rect fill="#F1F1F1" height="48.1358" rx="12.5" ry="12.5" style="stroke:#181818;stroke-width:0.5;" width="287" x="19" y="760.2038"/><text fill="#000000" font-family="sans-serif" font-size="14" lengthAdjust="spacing" textLength="219" x="53" y="780.1697">Demostrar capacidad de gesti&#243;n</text><text fill="#000000" font-family="sans-serif" font-size="14" lengthAdjust="spacing" textLength="277" x="24" y="799.2376">Auditar, corregir y extender lo entregado</text><!--link PREPARAR1 to PREPARAR2--><!--link PREPARAR2 to PREPARAR3--><!--link HACER to DISTINGUIR--><!--link DISTINGUIR to COPIAR--><!--reverse link PREPARAR to COPIAR--><!--SRC=[TLN1RXCn4BtxAwoSG0AX4awegXIr5UG2fGKkb8DZJrCZhxtOteY2-20E751lNFDZlB5tcsqtvBAIntupyzwRoRKr9Abfyuqqb7IqRRR12v6ooYHVBuvFpwLASdQuEdhNaKpKAY-lbQPuwN7cWloAOpxmqeKasnYkA052EKg7prP7C_b3IFn6W0S5yLYrIbkZ31BBI1kRL9Gtib4-asTulRqrTXqOihK18VM5V9WzH7jUq5whbNK3sfSkPNjbjG9AwXAEjEMQACcy_QKz8kdISoAfdILy4-1R5IbDuEUrsD2qXBgqLPoW2MR0jqthg046ck4CFQxlQ0Cw8dtja3g7AV2B0dnEgGq-3TMZth2AKCJ9eNr0Hreh4rvUUaF1v-32UljRpOJuEUXqihnultppwiFoJgmJ2mhykhCH0g55Xi77K94DBTJJXfeGxNSrLMe7MULQ6aRecyRZxI-FxfJZra4Z-8aL_YgM4oNxItsAxIq8pf4fckrDKtKy0SiwmmcwKzu4gTnwA9zPsBc2RUV3gAr4HPhbuacfHct_K8G2GLgK4ptb_MchlX-L2v4xSqf2EDTfkxtrm7Eo9SZJi4l2fR_Xd0aAi4AmI-Sob95N5dwVxVGuVdksNDmR70qFeokyXelM2eE4maselDyZlhwjf5zOgPL1ITzKmoGakVqBzwAGDaHcm52q6rNg78WPRe2B-ZRbpbWsvMoIvNblRgwD6PIRZjo6PETvwbOmDXZ7RSwF5hsixloF1ccQODwRV3FCNo4tesQi2egD1HjSwY2wQbQsZ4tBe3xmx787reL2Ry_lsVdfsU9yn_0P7gZ80C730SNZV816L75fsGoZtLHkFAgt7q_DF-1N5JxmPbeks5P1NbECrGvAEi8WPiiaCLJSFyjkDCEpFKbwumVTbJKIsLeeLLCAtBr6_SMD3zo7AwRJUI_al9-b9gHSQ1dlsZNpMV0MC0OIyi14r6Tv_zAtp5h61sM3-_fdyFJJjJNO1P_ZqwFH68dH2hgxOd2b-a3q4t4NSWWDrVRG1xieWdMtYtx5Jo9pqM_dIUI54EFTDOwFbeqOBvxzT-P23BCulj1FZXWcQ1h3mvs1nk4xnSLE-ttnkVW7]--></g></svg>