<?xml version="1.0" encoding="us-ascii" standalone="no"?><svg xmlns="http://www.w3.org/2000/svg" xmlns:xlink="http://www.w3.org/1999/xlink" contentStyleType="text/css" height="740px" preserveAspectRatio="none" style="width:831px;height:740px;background:#FFFFFF;" version="1.1" viewBox="0 0 831 740" width="831px" zoomAndPan="magnify"><defs/><g><path d="M19.5,7 L342.5,7 A12.5,12.5 0 0 1 355,19.5 L355,36.0679 L7,36.0679 L7,19.5 A12.5,12.5 0 0 1 19.5,7 " fill="#F1F1F1" style="stroke:#F1F1F1;stroke-width:1.0;"/><rect fill="none" height="379.4799" rx="12.5" ry="12.5" style="stroke:#181818;stroke-width:0.5;" width="348" x="7" y="7"/><line style="stroke:#181818;stroke-width:0.5;" x1="7" x2="355" y1="36.0679" y2="36.0679"/><text fill="#000000" font-family="sans-serif" font-size="14" font-weight="bold" lengthAdjust="spacing" textLength="328" x="17" y="26.9659">Que sepan hacer lo que hacen los profesionales</text><g id="HACER.HACER1"><rect fill="#F1F1F1" height="55.412" rx="12.5" ry="12.5" style="stroke:#181818;stroke-width:0.5;" width="292" x="35.5" y="48.0679"/><line style="stroke:#181818;stroke-width:0.5;" x1="35.5" x2="327.5" y1="77.1358" y2="77.1358"/><text fill="#000000" font-family="sans-serif" font-size="14" lengthAdjust="spacing" textLength="272" x="45.5" y="68.0339">Capacidad de revisar y mantener c&#243;digo</text><text fill="#000000" font-family="sans-serif" font-size="12" lengthAdjust="spacing" textLength="79" x="40.5" y="94.9639">propio y ajeno</text></g><g id="HACER.HACER2"><rect fill="#F1F1F1" height="55.412" rx="12.5" ry="12.5" style="stroke:#181818;stroke-width:0.5;" width="303" x="30" y="139.0679"/><line style="stroke:#181818;stroke-width:0.5;" x1="30" x2="333" y1="168.1358" y2="168.1358"/><text fill="#000000" font-family="sans-serif" font-size="14" lengthAdjust="spacing" textLength="283" x="40" y="159.0339">Habilidad de justificar decisiones t&#233;cnicas</text><text fill="#000000" font-family="sans-serif" font-size="12" lengthAdjust="spacing" textLength="115" x="35" y="185.9639">ante clientes y pares</text></g><g id="HACER.HACER3"><rect fill="#F1F1F1" height="55.412" rx="12.5" ry="12.5" style="stroke:#181818;stroke-width:0.5;" width="325" x="19" y="230.0679"/><line style="stroke:#181818;stroke-width:0.5;" x1="19" x2="344" y1="259.1358" y2="259.1358"/><text fill="#000000" font-family="sans-serif" font-size="14" lengthAdjust="spacing" textLength="305" x="29" y="250.0339">Competencia de modificar implementaciones</text><text fill="#000000" font-family="sans-serif" font-size="12" lengthAdjust="spacing" textLength="126" x="24" y="276.9639">ante nuevos requisitos</text></g><g id="HACER.HACER4"><rect fill="#F1F1F1" height="55.412" rx="12.5" ry="12.5" style="stroke:#181818;stroke-width:0.5;" width="312" x="25.5" y="321.0679"/><line style="stroke:#181818;stroke-width:0.5;" x1="25.5" x2="337.5" y1="350.1358" y2="350.1358"/><text fill="#000000" font-family="sans-serif" font-size="14" lengthAdjust="spacing" textLength="292" x="35.5" y="341.0339">Responsabilidad sobre el c&#243;digo producido</text><text fill="#000000" font-family="sans-serif" font-size="12" lengthAdjust="spacing" textLength="66" x="30.5" y="367.9639">deontolog&#237;a</text></g><!--link HACER1 to HACER2--><!--link HACER2 to HACER3--><!--link HACER3 to HACER4--><path d="M402.5,52.5 L805.5,52.5 A12.5,12.5 0 0 1 818,65 L818,81.5679 L390,81.5679 L390,65 A12.5,12.5 0 0 1 402.5,52.5 " fill="#F1F1F1" style="stroke:#F1F1F1;stroke-width:1.0;"/><rect fill="none" height="288.4799" rx="12.5" ry="12.5" style="stroke:#181818;stroke-width:0.5;" width="428" x="390" y="52.5"/><line style="stroke:#181818;stroke-width:0.5;" x1="390" x2="818" y1="81.5679" y2="81.5679"/><text fill="#000000" font-family="sans-serif" font-size="14" font-weight="bold" lengthAdjust="spacing" textLength="330" x="439" y="72.4659">Distinguir quien *entiende* de quien memoriza</text><g id="DISTINGUIR.DISTINGUIR1"><rect fill="#F1F1F1" height="55.412" rx="12.5" ry="12.5" style="stroke:#181818;stroke-width:0.5;" width="287" x="462" y="93.5679"/><line style="stroke:#181818;stroke-width:0.5;" x1="462" x2="749" y1="122.6358" y2="122.6358"/><text fill="#000000" font-family="sans-serif" font-size="14" lengthAdjust="spacing" textLength="267" x="472" y="113.5339">Identificar qui&#233;n realmente comprende</text><text fill="#000000" font-family="sans-serif" font-size="12" lengthAdjust="spacing" textLength="191" x="467" y="140.4639">frente a qui&#233;n memoriz&#243; patrones</text></g><g id="DISTINGUIR.DISTINGUIR2"><rect fill="#F1F1F1" height="55.412" rx="12.5" ry="12.5" style="stroke:#181818;stroke-width:0.5;" width="407" x="402" y="184.5679"/><line style="stroke:#181818;stroke-width:0.5;" x1="402" x2="809" y1="213.6358" y2="213.6358"/><text fill="#000000" font-family="sans-serif" font-size="14" lengthAdjust="spacing" textLength="387" x="412" y="204.5339">Detectar cuando alguien entrega c&#243;digo que no entiende</text><text fill="#000000" font-family="sans-serif" font-size="12" lengthAdjust="spacing" textLength="185" x="407" y="231.4639">sea de IA, compa&#241;eros o internet</text></g><g id="DISTINGUIR.DISTINGUIR3"><rect fill="#F1F1F1" height="55.412" rx="12.5" ry="12.5" style="stroke:#181818;stroke-width:0.5;" width="269" x="471" y="275.5679"/><line style="stroke:#181818;stroke-width:0.5;" x1="471" x2="740" y1="304.6358" y2="304.6358"/><text fill="#000000" font-family="sans-serif" font-size="14" lengthAdjust="spacing" textLength="249" x="481" y="295.5339">Valorar la evoluci&#243;n del pensamiento</text><text fill="#000000" font-family="sans-serif" font-size="12" lengthAdjust="spacing" textLength="145" x="476" y="322.4639">y no solo el resultado final</text></g><!--link DISTINGUIR1 to DISTINGUIR2--><!--link DISTINGUIR2 to DISTINGUIR3--><path d="M445,446 L763,446 A12.5,12.5 0 0 1 775.5,458.5 L775.5,475.0679 L432.5,475.0679 L432.5,458.5 A12.5,12.5 0 0 1 445,446 " fill="#F1F1F1" style="stroke:#F1F1F1;stroke-width:1.0;"/><rect fill="none" height="288.4799" rx="12.5" ry="12.5" style="stroke:#181818;stroke-width:0.5;" width="343" x="432.5" y="446"/><line style="stroke:#181818;stroke-width:0.5;" x1="432.5" x2="775.5" y1="475.0679" y2="475.0679"/><text fill="#000000" font-family="sans-serif" font-size="14" font-weight="bold" lengthAdjust="spacing" textLength="239" x="484.5" y="465.9659">Hacer que copiar no tenga sentido</text><g id="COPIAR.COPIAR1"><rect fill="#F1F1F1" height="55.412" rx="12.5" ry="12.5" style="stroke:#181818;stroke-width:0.5;" width="300" x="455.5" y="487.0679"/><line style="stroke:#181818;stroke-width:0.5;" x1="455.5" x2="755.5" y1="516.1358" y2="516.1358"/><text fill="#000000" font-family="sans-serif" font-size="14" lengthAdjust="spacing" textLength="151" x="530" y="507.0339">Cada examen es &#250;nico</text><text fill="#000000" font-family="sans-serif" font-size="12" lengthAdjust="spacing" textLength="280" x="460.5" y="533.9639">porque deriva del c&#243;digo &#250;nico de cada estudiante</text></g><g id="COPIAR.COPIAR2"><rect fill="#F1F1F1" height="55.412" rx="12.5" ry="12.5" style="stroke:#181818;stroke-width:0.5;" width="322" x="444.5" y="578.0679"/><line style="stroke:#181818;stroke-width:0.5;" x1="444.5" x2="766.5" y1="607.1358" y2="607.1358"/><text fill="#000000" font-family="sans-serif" font-size="14" lengthAdjust="spacing" textLength="302" x="454.5" y="598.0339">Copiar c&#243;digo de otro se vuelve un problema</text><text fill="#000000" font-family="sans-serif" font-size="12" lengthAdjust="spacing" textLength="243" x="449.5" y="624.9639">te examinan sobre c&#243;digo que no entiendes</text></g><g id="COPIAR.COPIAR3"><rect fill="#F1F1F1" height="55.412" rx="12.5" ry="12.5" style="stroke:#181818;stroke-width:0.5;" width="305" x="453" y="669.0679"/><line style="stroke:#181818;stroke-width:0.5;" x1="453" x2="758" y1="698.1358" y2="698.1358"/><text fill="#000000" font-family="sans-serif" font-size="14" lengthAdjust="spacing" textLength="193" x="509" y="689.0339">Las revisiones son evolutivas</text><text fill="#000000" font-family="sans-serif" font-size="12" lengthAdjust="spacing" textLength="285" x="458" y="715.9639">y detectan cuando el estilo cambia repentinamente</text></g><!--link COPIAR1 to COPIAR2--><!--link COPIAR2 to COPIAR3--><path d="M79,446 L385,446 A12.5,12.5 0 0 1 397.5,458.5 L397.5,475.0679 L66.5,475.0679 L66.5,458.5 A12.5,12.5 0 0 1 79,446 " fill="#F1F1F1" style="stroke:#F1F1F1;stroke-width:1.0;"/><rect fill="none" height="288.4799" rx="12.5" ry="12.5" style="stroke:#181818;stroke-width:0.5;" width="331" x="66.5" y="446"/><line style="stroke:#181818;stroke-width:0.5;" x1="66.5" x2="397.5" y1="475.0679" y2="475.0679"/><text fill="#000000" font-family="sans-serif" font-size="14" font-weight="bold" lengthAdjust="spacing" textLength="311" x="76.5" y="465.9659">Preparar para la realidad profesional (con IA)</text><g id="PREPARAR.PREPARAR1"><rect fill="#F1F1F1" height="55.412" rx="12.5" ry="12.5" style="stroke:#181818;stroke-width:0.5;" width="256" x="79.5" y="487.0679"/><line style="stroke:#181818;stroke-width:0.5;" x1="79.5" x2="335.5" y1="516.1358" y2="516.1358"/><text fill="#000000" font-family="sans-serif" font-size="14" lengthAdjust="spacing" textLength="236" x="89.5" y="507.0339">Usar IA como herramienta leg&#237;tima</text><text fill="#000000" font-family="sans-serif" font-size="12" lengthAdjust="spacing" textLength="221" x="84.5" y="533.9639">con responsabilidad sobre lo entregado</text></g><g id="PREPARAR.PREPARAR2"><rect fill="#F1F1F1" height="55.412" rx="12.5" ry="12.5" style="stroke:#181818;stroke-width:0.5;" width="258" x="78.5" y="578.0679"/><line style="stroke:#181818;stroke-width:0.5;" x1="78.5" x2="336.5" y1="607.1358" y2="607.1358"/><text fill="#000000" font-family="sans-serif" font-size="14" lengthAdjust="spacing" textLength="238" x="88.5" y="598.0339">Documentar el proceso de creaci&#243;n</text><text fill="#000000" font-family="sans-serif" font-size="12" lengthAdjust="spacing" textLength="115" x="83.5" y="624.9639">y no solo el producto</text></g><g id="PREPARAR.PREPARAR3"><rect fill="#F1F1F1" height="55.412" rx="12.5" ry="12.5" style="stroke:#181818;stroke-width:0.5;" width="248" x="83.5" y="669.0679"/><line style="stroke:#181818;stroke-width:0.5;" x1="83.5" x2="331.5" y1="698.1358" y2="698.1358"/><text fill="#000000" font-family="sans-serif" font-size="14" lengthAdjust="spacing" textLength="219" x="98" y="689.0339">Demostrar capacidad de gesti&#243;n</text><text fill="#000000" font-family="sans-serif" font-size="12" lengthAdjust="spacing" textLength="228" x="88.5" y="715.9639">Auditar, corregir y extender lo entregado</text></g><!--link PREPARAR1 to PREPARAR2--><!--link PREPARAR2 to PREPARAR3--><!--link HACER to DISTINGUIR--><!--link DISTINGUIR to COPIAR--><!--reverse link PREPARAR to COPIAR--><!--SRC=[TLN1RXCn5BpxAwoU054X6au8LOfQH2CXA8LoGHmS-pKryjfRsnjH41_4WGFgZMj-Z7dsRh9bGm-DibxFcpSpx-NQ6fBKjFbM6aewsZRRu8KGAQjCycn-yl92gYGFNYoFttKa4xNAoskbAKeNv0qUyHUFBqcsCLnHmdtbABruiZm-aD-5nDy8x6b1Er6jqjOeWweoqjec5UMjR9JFv06jDtV6hiA1VCwWhGquL5_8Xt_XZWhScLfQDy1zwLAsLrO3qP2sp8UIp9kVskDXOamk8xMpXCy4w5P5Ilz2pohJqBG4Kjeg1c-2wR5jqpfgW816kC8MrtUqXXYHRZeKps42_Am0Nr1gWqzRvYai8wnmG-_SkEaWKb71KF0vkB3Q_592_1ZyELsy_x1uy-foiJNfrA9xl-fiX3beK3u2HNmQUiJywxE6cX3jDpNrQ0TOZLeOlbuxnjtDJu_6bEE-eI2qYGpD3AzYUQQ6r_eQcpkecoChjBTCDV0K4kkC6hfJtWIftAeG1MIabTfgmddpGGujSTr4nPZ5_77XepQ_AKB-82teH4zvRzbgxaVbGaHLfoGySr1xS-U1vcHBiARXW1JvRxbgWlvi4BBIkQn0yyeYwZitJjwUB-PR9yxAa31ZZGIZ2Y0G97IJcBy9LVrxybU4OKOCQ7rL3UkGvEOFubid8aH6DHJjMXMsWppr7PP3byifTyPoA2SbZlfm5sB3TTmBi0hyvBeZjoRPUOxX4a5N1y_1ll11qxwFwtzyIPDwLU_NAjLfhpEPWg-wPpIIgiwc9i4FIK1tQCD2UQsQ9OOmKijbl2ePPF5xzSylNfxFBtRwd-DDnUxoVxQOWrj6RRIdv0CD4elvm-ae37ZLZKlUK8ivPop8QugnfWF0X9dC5WA1FuF5lOFjmX1c4_OKwSSWwAwibCXzWwQcLEq4znBEIHZhbiZxC6VzQ3KXPTP1ZvVkYbNj0UT82Mho04KmjBoAwMjc9-Dzub2x_YGSVhgs1hlXSpmy7esL62saxIi6hzGKY7v2jaSEHmFT7lhfxXI7TScBVjTFJcQYNzMJasT2Z7VP-7oqVCHu4Ur_PoR4C9NZ5_en4iCuJSzmSHUXyV7MSx5pVz_vJFm5]--></g></svg>