<?xml version="1.0" encoding="us-ascii" standalone="no"?><svg xmlns="http://www.w3.org/2000/svg" xmlns:xlink="http://www.w3.org/1999/xlink" contentStyleType="text/css" height="138px" preserveAspectRatio="none" style="width:839px;height:138px;background:#FFFFFF;" version="1.1" viewBox="0 0 839 138" width="839px" zoomAndPan="magnify"><defs/><g><!--class 5Primeros--><g id="elem_5Primeros"><rect codeLine="2" fill="#F1F1F1" height="124.2717" id="5Primeros" rx="2.5" ry="2.5" style="stroke:#181818;stroke-width:0.5;" width="306" x="7" y="7"/><ellipse cx="101.75" cy="23" fill="#ADD1B2" rx="11" ry="11" style="stroke:#181818;stroke-width:1.0;"/><path d="M101.2188,29.9219 Q99.4688,29.9219 98.3281,29.1875 Q97.2031,28.4375 96.6406,27.0938 Q96.0938,25.7344 96.0938,23.9375 Q96.0938,21.9063 96.75,20.4531 Q97.4063,19 98.6875,18.2188 Q99.9688,17.4375 101.8438,17.4375 Q102.7344,17.4375 103.4063,17.625 Q104.0781,17.7969 104.7656,18.1406 L103.9531,20.1563 Q103.3281,19.8438 102.7813,19.7188 Q102.25,19.5938 101.7656,19.5938 Q100.5938,19.5938 99.8906,20.125 Q99.1875,20.6563 98.8906,21.6094 Q98.5938,22.5625 98.5938,23.8281 Q98.5938,25.8438 99.3125,26.8125 Q100.0313,27.7656 101.625,27.7656 Q102.2188,27.7656 102.8438,27.6094 Q103.4688,27.4531 104.2969,27.0781 L104.2969,29.2969 Q103.5625,29.6094 102.7656,29.7656 Q101.9844,29.9219 101.2188,29.9219 Z " fill="#000000"/><text fill="#000000" font-family="sans-serif" font-size="14" lengthAdjust="spacing" textLength="108" x="122.25" y="28.432">Primeros 5 a&#241;os</text><line style="stroke:#181818;stroke-width:0.5;" x1="8" x2="312" y1="39" y2="39"/><text fill="#000000" font-family="sans-serif" font-size="14" lengthAdjust="spacing" textLength="116" x="13" y="57.9659">Escopeta de feria</text><line style="stroke:#181818;stroke-width:1.0;" x1="8" x2="312" y1="66.0679" y2="66.0679"/><rect fill="none" height="6" style="stroke:#C82930;stroke-width:1.0;" width="6" x="15" y="78.1019"/><text fill="#000000" font-family="sans-serif" font-size="14" lengthAdjust="spacing" textLength="280" x="27" y="85.0339">Lo acaban de inventar/descubrir/publicar</text><rect fill="none" height="6" style="stroke:#C82930;stroke-width:1.0;" width="6" x="15" y="97.1698"/><text fill="#000000" font-family="sans-serif" font-size="14" lengthAdjust="spacing" textLength="218" x="27" y="104.1018">Alguien lo aplica donde no debe</text><rect fill="none" height="6" style="stroke:#C82930;stroke-width:1.0;" width="6" x="15" y="116.2377"/><text fill="#000000" font-family="sans-serif" font-size="14" lengthAdjust="spacing" textLength="240" x="27" y="123.1697">Facciones que pelean por la autor&#237;a</text></g><!--class 5Siguientes--><g id="elem_5Siguientes"><rect codeLine="11" fill="#F1F1F1" height="124.2717" id="5Siguientes" rx="2.5" ry="2.5" style="stroke:#181818;stroke-width:0.5;" width="246" x="348" y="7"/><ellipse cx="425.75" cy="23" fill="#ADD1B2" rx="11" ry="11" style="stroke:#181818;stroke-width:1.0;"/><path d="M425.2188,29.9219 Q423.4688,29.9219 422.3281,29.1875 Q421.2031,28.4375 420.6406,27.0938 Q420.0938,25.7344 420.0938,23.9375 Q420.0938,21.9063 420.75,20.4531 Q421.4063,19 422.6875,18.2188 Q423.9688,17.4375 425.8438,17.4375 Q426.7344,17.4375 427.4063,17.625 Q428.0781,17.7969 428.7656,18.1406 L427.9531,20.1563 Q427.3281,19.8438 426.7813,19.7188 Q426.25,19.5938 425.7656,19.5938 Q424.5938,19.5938 423.8906,20.125 Q423.1875,20.6563 422.8906,21.6094 Q422.5938,22.5625 422.5938,23.8281 Q422.5938,25.8438 423.3125,26.8125 Q424.0313,27.7656 425.625,27.7656 Q426.2188,27.7656 426.8438,27.6094 Q427.4688,27.4531 428.2969,27.0781 L428.2969,29.2969 Q427.5625,29.6094 426.7656,29.7656 Q425.9844,29.9219 425.2188,29.9219 Z " fill="#000000"/><text fill="#000000" font-family="sans-serif" font-size="14" lengthAdjust="spacing" textLength="82" x="446.25" y="28.432">5 siguientes</text><line style="stroke:#181818;stroke-width:0.5;" x1="349" x2="593" y1="39" y2="39"/><text fill="#000000" font-family="sans-serif" font-size="14" lengthAdjust="spacing" textLength="234" x="354" y="57.9659">Reduce significativamente el ruido</text><line style="stroke:#181818;stroke-width:1.0;" x1="349" x2="593" y1="66.0679" y2="66.0679"/><rect fill="none" height="6" style="stroke:#C82930;stroke-width:1.0;" width="6" x="356" y="78.1019"/><text fill="#000000" font-family="sans-serif" font-size="14" lengthAdjust="spacing" textLength="70" x="368" y="85.0339">Se estudia</text><rect fill="none" height="6" style="stroke:#C82930;stroke-width:1.0;" width="6" x="356" y="97.1698"/><text fill="#000000" font-family="sans-serif" font-size="14" lengthAdjust="spacing" textLength="113" x="368" y="104.1018">Se contraestudia</text><rect fill="none" height="6" style="stroke:#C82930;stroke-width:1.0;" width="6" x="356" y="116.2377"/><text fill="#000000" font-family="sans-serif" font-size="14" lengthAdjust="spacing" textLength="170" x="368" y="123.1697">Tesis - Ant&#237;tesis - S&#237;ntesis</text></g><!--class 5Posteriores--><g id="elem_5Posteriores"><rect codeLine="19" fill="#F1F1F1" height="124.2717" id="5Posteriores" rx="2.5" ry="2.5" style="stroke:#181818;stroke-width:0.5;" width="203" x="629.5" y="7"/><ellipse cx="683.75" cy="23" fill="#ADD1B2" rx="11" ry="11" style="stroke:#181818;stroke-width:1.0;"/><path d="M683.2188,29.9219 Q681.4688,29.9219 680.3281,29.1875 Q679.2031,28.4375 678.6406,27.0938 Q678.0938,25.7344 678.0938,23.9375 Q678.0938,21.9063 678.75,20.4531 Q679.4063,19 680.6875,18.2188 Q681.9688,17.4375 683.8438,17.4375 Q684.7344,17.4375 685.4063,17.625 Q686.0781,17.7969 686.7656,18.1406 L685.9531,20.1563 Q685.3281,19.8438 684.7813,19.7188 Q684.25,19.5938 683.7656,19.5938 Q682.5938,19.5938 681.8906,20.125 Q681.1875,20.6563 680.8906,21.6094 Q680.5938,22.5625 680.5938,23.8281 Q680.5938,25.8438 681.3125,26.8125 Q682.0313,27.7656 683.625,27.7656 Q684.2188,27.7656 684.8438,27.6094 Q685.4688,27.4531 686.2969,27.0781 L686.2969,29.2969 Q685.5625,29.6094 684.7656,29.7656 Q683.9844,29.9219 683.2188,29.9219 Z " fill="#000000"/><text fill="#000000" font-family="sans-serif" font-size="14" lengthAdjust="spacing" textLength="82" x="708.25" y="28.432">5 siguientes</text><line style="stroke:#181818;stroke-width:0.5;" x1="630.5" x2="831.5" y1="39" y2="39"/><text fill="#000000" font-family="sans-serif" font-size="14" lengthAdjust="spacing" textLength="69" x="635.5" y="57.9659">Se asienta</text><line style="stroke:#181818;stroke-width:1.0;" x1="630.5" x2="831.5" y1="66.0679" y2="66.0679"/><rect fill="none" height="6" style="stroke:#C82930;stroke-width:1.0;" width="6" x="637.5" y="78.1019"/><text fill="#000000" font-family="sans-serif" font-size="14" lengthAdjust="spacing" textLength="177" x="649.5" y="85.0339">Se conoce d&#243;nde es v&#225;lido</text><rect fill="none" height="6" style="stroke:#C82930;stroke-width:1.0;" width="6" x="637.5" y="97.1698"/><text fill="#000000" font-family="sans-serif" font-size="14" lengthAdjust="spacing" textLength="115" x="649.5" y="104.1018">Se sabe utilizarlo</text><rect fill="none" height="6" style="stroke:#C82930;stroke-width:1.0;" width="6" x="637.5" y="116.2377"/><text fill="#000000" font-family="sans-serif" font-size="14" lengthAdjust="spacing" textLength="99" x="649.5" y="123.1697">Se estandariza</text></g><!--link 5Primeros to 5Siguientes--><g id="link_5Primeros_5Siguientes"><path codeLine="27" d="M313.07,69 C324.69,69 330.31,69 341.93,69 " fill="none" id="5Primeros-to-5Siguientes" style="stroke:#181818;stroke-width:1.0;"/><polygon fill="#181818" points="347.93,69,338.93,65,342.93,69,338.93,73,347.93,69" style="stroke:#181818;stroke-width:1.0;"/></g><!--link 5Siguientes to 5Posteriores--><g id="link_5Siguientes_5Posteriores"><path codeLine="28" d="M594.14,69 C605.91,69 611.67,69 623.43,69 " fill="none" id="5Siguientes-to-5Posteriores" style="stroke:#181818;stroke-width:1.0;"/><polygon fill="#181818" points="629.43,69,620.43,65,624.43,69,620.43,73,629.43,69" style="stroke:#181818;stroke-width:1.0;"/></g><!--SRC=[NP4_JaCn3CRtdCBg7dNgYiG04qD5kO1Vug98QVomamv578O3T40SuLqCftrwhTZYpt- -dvsGKHKsMqa74bP0XTKIR02d7zOLVBed3JnIHOW4UvA4pdllFBmmOC01Iq-aSgHIKTQHDBH1agp7DkGKKApqCR-tH0MojOnTXCZ5kWfRxq1MyOmX92wayD48HifaSqSMo0ZOAijqHlVbd0jNwbswJAnqvTw0Ba9dVgNO0dMnfBtvrNJ4Gyy2PP2M8izBx4pHscBVgWU1InMyIM-aIS4sA7KwrpdOJUToUNUY6MZBMkquB3CH_4UouQWzn9krkR5XnkctNyCwZzDtli3rhE90q6hAwOIIUQ754b5Cw-xBztal_k7kBExkVStT4Re_]--></g></svg>