<?xml version="1.0" encoding="us-ascii" standalone="no"?><svg xmlns="http://www.w3.org/2000/svg" xmlns:xlink="http://www.w3.org/1999/xlink" contentStyleType="text/css" height="497px" preserveAspectRatio="none" style="width:842px;height:497px;background:#FFFFFF;" version="1.1" viewBox="0 0 842 497" width="842px" zoomAndPan="magnify"><defs/><g><!--cluster Internet--><g id="cluster_Internet"><path d="M305.8046,17.8434 C309.1447,11.8405 314.239,10.8097 318.8317,16.4407 C320.9459,9.7623 326.3276,10.4591 330.1641,14.6441 C334.3973,8.039 338.285,7.4466 342.8735,14.3088 C345.8804,6 351.2285,6.8723 356.6414,11.8074 C360.2863,6.2807 365.7971,7.819 368.4354,12.9241 C372.8449,8.0767 378.0193,9.7527 380.0516,15.5245 C384.0167,8.8331 390.6956,9.3676 393.7244,16.4538 C403.1175,10.8045 408.6149,12.8768 412,23.2898 C412.0039,23.2905 412.004,23.2939 412.0018,23.2963 C419.4321,26.4823 419.9945,31.9049 414.7035,37.5092 C420.0916,40.4208 422.2343,44.543 416.6589,49.2764 C422.3612,51.6388 423.182,56.5401 418.0406,60.2658 C424.3602,64.8493 421.9231,70.0372 416.269,72.948 C420.875,78.3075 420.6219,83.1697 413.3971,85.9073 C418.7641,94.9228 415.9993,102.2188 405,103.3598 C405.0834,103.3432 405.1235,103.3928 405.1019,103.4718 C402.2529,110.0779 396.8969,110.3615 392.9853,104.505 C389.0802,111.4034 384.4427,110.6091 380.2027,104.843 C377.5258,109.837 372.7481,110.5461 369.6137,105.317 C364.8511,111.4763 360.4478,113.1143 355.1119,105.9406 C352.0055,111.8941 348.0551,111.7368 344.1389,106.7531 C339.6344,112.0501 334.3752,112.8446 331.2117,105.3933 C327.1807,111.8935 321.2074,110.863 317.5958,104.9339 C306.526,111.7295 300.2013,109.8325 298,96.3598 C298.6476,96.763 298.8669,97.2132 298.1512,97.7632 C292.2383,94.3444 290.9346,89.942 296.2373,84.8597 C290.7079,81.9358 289.0851,77.0571 295.035,72.9721 C288.3493,71.0571 287.5901,66.1878 292.5512,61.7053 C285.8674,56.8885 286.6453,51.5498 294.1112,48.3908 C289.6411,44.2845 290.555,38.4391 296.8061,36.8326 C291.0338,27.192 293.2241,18.9309 305,16.2898 C306.0516,16.3512 306.1978,17.0337 305.8046,17.8434 " fill="none" style="stroke:#181818;stroke-width:1.0;"/><text fill="#000000" font-family="sans-serif" font-size="14" font-weight="bold" lengthAdjust="spacing" textLength="57" x="326.5" y="36.2557">Internet</text></g><!--cluster Casa--><g id="cluster_Casa"><polygon fill="none" points="16,154.3598,26,144.3598,825,144.3598,825,470.5598,815,480.5598,16,480.5598,16,154.3598" style="stroke:#181818;stroke-width:1.0;"/><line style="stroke:#181818;stroke-width:1.0;" x1="815" x2="825" y1="154.3598" y2="144.3598"/><line style="stroke:#181818;stroke-width:1.0;" x1="16" x2="815" y1="154.3598" y2="154.3598"/><line style="stroke:#181818;stroke-width:1.0;" x1="815" x2="815" y1="154.3598" y2="480.5598"/><text fill="#000000" font-family="sans-serif" font-size="14" font-weight="bold" lengthAdjust="spacing" textLength="32" x="400.5" y="172.3257">Casa</text></g><!--entity Movistar--><g id="elem_Movistar"><rect fill="#F1F1F1" height="49.0679" rx="2.5" ry="2.5" style="stroke:#181818;stroke-width:0.5;" width="98" x="306" y="46.2898"/><rect fill="#F1F1F1" height="10" style="stroke:#181818;stroke-width:0.5;" width="15" x="384" y="51.2898"/><rect fill="#F1F1F1" height="2" style="stroke:#181818;stroke-width:0.5;" width="4" x="382" y="53.2898"/><rect fill="#F1F1F1" height="2" style="stroke:#181818;stroke-width:0.5;" width="4" x="382" y="57.2898"/><text fill="#000000" font-family="sans-serif" font-size="14" lengthAdjust="spacing" textLength="58" x="321" y="81.2557">Movistar</text></g><!--entity router--><g id="elem_router"><rect fill="#F1F1F1" height="39.0679" rx="2.5" ry="2.5" style="stroke:#181818;stroke-width:0.5;" width="65" x="322.5" y="187.3598"/><text fill="#000000" font-family="sans-serif" font-size="14" lengthAdjust="spacing" textLength="45" x="332.5" y="212.3257">Router</text></g><!--entity Switch--><g id="elem_Switch"><polygon fill="#F1F1F1" points="32,425.4898,42,415.4898,116,415.4898,116,454.5577,106,464.5577,32,464.5577,32,425.4898" style="stroke:#181818;stroke-width:0.5;"/><line style="stroke:#181818;stroke-width:0.5;" x1="106" x2="116" y1="425.4898" y2="415.4898"/><line style="stroke:#181818;stroke-width:0.5;" x1="32" x2="106" y1="425.4898" y2="425.4898"/><line style="stroke:#181818;stroke-width:0.5;" x1="106" x2="106" y1="425.4898" y2="464.5577"/><text fill="#000000" font-family="sans-serif" font-size="14" lengthAdjust="spacing" textLength="44" x="47" y="450.4557">Switch</text></g><!--entity WiiU--><g id="elem_WiiU"><polygon fill="#F1F1F1" points="151.5,425.4898,161.5,415.4898,222.5,415.4898,222.5,454.5577,212.5,464.5577,151.5,464.5577,151.5,425.4898" style="stroke:#181818;stroke-width:0.5;"/><line style="stroke:#181818;stroke-width:0.5;" x1="212.5" x2="222.5" y1="425.4898" y2="415.4898"/><line style="stroke:#181818;stroke-width:0.5;" x1="151.5" x2="212.5" y1="425.4898" y2="425.4898"/><line style="stroke:#181818;stroke-width:0.5;" x1="212.5" x2="212.5" y1="425.4898" y2="464.5577"/><text fill="#000000" font-family="sans-serif" font-size="14" lengthAdjust="spacing" textLength="31" x="166.5" y="450.4557">WiiU</text></g><!--entity Macbook--><g id="elem_Macbook"><polygon fill="#F1F1F1" points="258,425.4898,268,415.4898,358,415.4898,358,454.5577,348,464.5577,258,464.5577,258,425.4898" style="stroke:#181818;stroke-width:0.5;"/><line style="stroke:#181818;stroke-width:0.5;" x1="348" x2="358" y1="425.4898" y2="415.4898"/><line style="stroke:#181818;stroke-width:0.5;" x1="258" x2="348" y1="425.4898" y2="425.4898"/><line style="stroke:#181818;stroke-width:0.5;" x1="348" x2="348" y1="425.4898" y2="464.5577"/><text fill="#000000" font-family="sans-serif" font-size="14" lengthAdjust="spacing" textLength="60" x="273" y="450.4557">Macbook</text></g><!--entity tv--><g id="elem_tv"><polygon fill="#F1F1F1" points="393,425.4898,403,415.4898,493,415.4898,493,454.5577,483,464.5577,393,464.5577,393,425.4898" style="stroke:#181818;stroke-width:0.5;"/><line style="stroke:#181818;stroke-width:0.5;" x1="483" x2="493" y1="425.4898" y2="415.4898"/><line style="stroke:#181818;stroke-width:0.5;" x1="393" x2="483" y1="425.4898" y2="425.4898"/><line style="stroke:#181818;stroke-width:0.5;" x1="483" x2="483" y1="425.4898" y2="464.5577"/><text fill="#000000" font-family="sans-serif" font-size="14" lengthAdjust="spacing" textLength="60" x="408" y="450.4557">Smart TV</text></g><!--entity sdf1--><g id="elem_sdf1"><polygon fill="#F1F1F1" points="528.5,425.4898,538.5,415.4898,601.5,415.4898,601.5,454.5577,591.5,464.5577,528.5,464.5577,528.5,425.4898" style="stroke:#181818;stroke-width:0.5;"/><line style="stroke:#181818;stroke-width:0.5;" x1="591.5" x2="601.5" y1="425.4898" y2="415.4898"/><line style="stroke:#181818;stroke-width:0.5;" x1="528.5" x2="591.5" y1="425.4898" y2="425.4898"/><line style="stroke:#181818;stroke-width:0.5;" x1="591.5" x2="591.5" y1="425.4898" y2="464.5577"/><text fill="#000000" font-family="sans-serif" font-size="14" lengthAdjust="spacing" textLength="33" x="543.5" y="450.4557">SDF1</text></g><!--entity daedalus--><g id="elem_daedalus"><polygon fill="#F1F1F1" points="391.5,297.4198,401.5,287.4198,494.5,287.4198,494.5,326.4877,484.5,336.4877,391.5,336.4877,391.5,297.4198" style="stroke:#181818;stroke-width:0.5;"/><line style="stroke:#181818;stroke-width:0.5;" x1="484.5" x2="494.5" y1="297.4198" y2="287.4198"/><line style="stroke:#181818;stroke-width:0.5;" x1="391.5" x2="484.5" y1="297.4198" y2="297.4198"/><line style="stroke:#181818;stroke-width:0.5;" x1="484.5" x2="484.5" y1="297.4198" y2="336.4877"/><text fill="#000000" font-family="sans-serif" font-size="14" lengthAdjust="spacing" textLength="63" x="406.5" y="322.3857">Daedalus</text></g><!--entity prometeus--><g id="elem_prometeus"><polygon fill="#F1F1F1" points="637,425.4898,647,415.4898,809,415.4898,809,454.5577,799,464.5577,637,464.5577,637,425.4898" style="stroke:#181818;stroke-width:0.5;"/><line style="stroke:#181818;stroke-width:0.5;" x1="799" x2="809" y1="425.4898" y2="415.4898"/><line style="stroke:#181818;stroke-width:0.5;" x1="637" x2="799" y1="425.4898" y2="425.4898"/><line style="stroke:#181818;stroke-width:0.5;" x1="799" x2="799" y1="425.4898" y2="464.5577"/><text fill="#000000" font-family="sans-serif" font-size="14" lengthAdjust="spacing" textLength="132" x="652" y="450.4557">Prometeus (Port&#225;til)</text></g><!--link Movistar to router--><g id="link_Movistar_router"><path d="M355,95.7898 C355,121.8498 355,156.9698 355,180.8898 " fill="none" id="Movistar-to-router" style="stroke:#181818;stroke-width:1.0;"/><polygon fill="#181818" points="355,186.8898,359,177.8898,355,181.8898,351,177.8898,355,186.8898" style="stroke:#181818;stroke-width:1.0;"/></g><!--link router to tv--><g id="link_router_tv"><path d="M355.2,226.8698 C356.05,252.5598 359.65,299.4498 374,336.4898 C385.39,365.8998 402.6906,390.6736 418.5606,410.4136 " fill="none" id="router-to-tv" style="stroke:#181818;stroke-width:1.0;"/><polygon fill="#181818" points="422.32,415.0898,419.7983,405.5692,419.1871,411.1929,413.5634,410.5818,422.32,415.0898" style="stroke:#181818;stroke-width:1.0;"/></g><!--link router to sdf1--><g id="link_router_sdf1"><path d="M387.82,216.5198 C423.17,227.4198 478.79,249.4898 512,287.4198 C544.51,324.5598 556.5105,376.8761 561.3705,409.2961 " fill="none" id="router-to-sdf1" style="stroke:#181818;stroke-width:1.0;stroke-dasharray:7.0,7.0;"/><polygon fill="#181818" points="562.26,415.2298,564.8815,405.7362,561.5187,410.285,556.9699,406.9222,562.26,415.2298" style="stroke:#181818;stroke-width:1.0;"/></g><!--link router to daedalus--><g id="link_router_daedalus"><path d="M371.14,226.7898 C385.63,243.7598 403.0639,264.1869 418.7239,282.5269 " fill="none" id="router-to-daedalus" style="stroke:#181818;stroke-width:1.0;"/><polygon fill="#181818" points="422.62,287.0898,419.8177,277.648,419.3732,283.2873,413.7339,282.8428,422.62,287.0898" style="stroke:#181818;stroke-width:1.0;"/></g><!--link router to prometeus--><g id="link_router_prometeus"><path d="M387.77,218.3298 C414.28,227.2198 452.27,240.9798 484,256.4198 C571.33,298.9298 653.5812,371.9255 694.4112,410.9255 " fill="none" id="router-to-prometeus" style="stroke:#181818;stroke-width:1.0;stroke-dasharray:7.0,7.0;"/><polygon fill="#181818" points="698.75,415.0698,695.0047,405.9608,695.1344,411.6162,689.479,411.7458,698.75,415.0698" style="stroke:#181818;stroke-width:1.0;"/></g><!--link router to Switch--><g id="link_router_Switch"><path d="M330.05,226.8998 C309.26,242.8398 278.96,266.3198 253,287.4198 C198.64,331.5998 141.0689,380.9257 106.1489,411.1157 " fill="none" id="router-to-Switch" style="stroke:#181818;stroke-width:1.0;stroke-dasharray:7.0,7.0;"/><polygon fill="#181818" points="101.61,415.0398,111.0344,412.1796,105.3924,411.7697,105.8023,406.1277,101.61,415.0398" style="stroke:#181818;stroke-width:1.0;"/></g><!--link router to WiiU--><g id="link_router_WiiU"><path d="M341.25,226.8098 C310.85,268.6398 241.4677,364.0864 207.9377,410.2164 " fill="none" id="router-to-WiiU" style="stroke:#181818;stroke-width:1.0;stroke-dasharray:7.0,7.0;"/><polygon fill="#181818" points="204.41,415.0698,212.9372,410.1415,207.3498,411.0253,206.466,405.4379,204.41,415.0698" style="stroke:#181818;stroke-width:1.0;"/></g><!--link router to Macbook--><g id="link_router_Macbook"><path d="M351.15,226.8098 C342.65,268.6398 323.4456,363.0601 314.0656,409.1901 " fill="none" id="router-to-Macbook" style="stroke:#181818;stroke-width:1.0;stroke-dasharray:7.0,7.0;"/><polygon fill="#181818" points="312.87,415.0698,318.5831,407.0473,313.8663,410.17,310.7436,405.4532,312.87,415.0698" style="stroke:#181818;stroke-width:1.0;"/></g><!--link daedalus to tv--><g id="link_daedalus_tv"><path d="M443,336.9698 C443,359.3998 443,386.6998 443,409.1098 " fill="none" id="daedalus-to-tv" style="stroke:#181818;stroke-width:1.0;"/><polygon fill="#181818" points="443,415.1098,447,406.1098,443,410.1098,439,406.1098,443,415.1098" style="stroke:#181818;stroke-width:1.0;"/><text fill="#000000" font-family="sans-serif" font-size="13" lengthAdjust="spacing" textLength="35" x="447" y="381.3868">HDMI</text></g><!--SRC=[PL2zRi8m4Dxz5AURse58h1qY8K8BKbD5G6507TpO28iG8_j2XweFqsVfYpKvd908BxxxVkoxBozifG0N9MbNQaBu5b2VNMelnfDq7-97YD8g3JYLNhRySZPTJzvUNcU0IrlLNWJfmN4fMC6UrPUX_00tO6lC-wt3LEQVrXxP76hesN5raevWlM41NQuFzVdaUSoSL_ln7Pj8hMHHULQeqDofCcTFcdJDF6JMqTylcUAHBUUEQK9e4u7HA0wRWWXt0pNZXJQAefX7wlFj00DHzyK0RMFhOqroGoG49hhDmXHFW31FqWMAVm00]--></g></svg>