<?xml version="1.0" encoding="us-ascii" standalone="no"?><svg xmlns="http://www.w3.org/2000/svg" xmlns:xlink="http://www.w3.org/1999/xlink" contentStyleType="text/css" height="901px" preserveAspectRatio="none" style="width:3262px;height:901px;background:#FFFFFF;" version="1.1" viewBox="0 0 3262 901" width="3262px" zoomAndPan="magnify"><defs/><g><!--cluster Internet--><g id="cluster_Internet"><path d="M596.8046,17.8434 C600.1447,11.8405 605.239,10.8097 609.8317,16.4407 C611.9459,9.7623 617.3276,10.4591 621.1641,14.6441 C625.3973,8.039 629.285,7.4466 633.8735,14.3088 C636.8804,6 642.2285,6.8723 647.6414,11.8074 C651.2863,6.2807 656.7971,7.819 659.4354,12.9241 C663.8449,8.0767 669.0193,9.7527 671.0516,15.5245 C675.0167,8.8331 681.6956,9.3676 684.7244,16.4538 C694.1175,10.8045 699.6149,12.8768 703,23.2898 C703.0039,23.2905 703.004,23.2939 703.0018,23.2963 C710.4321,26.4823 710.9945,31.9049 705.7035,37.5092 C711.0916,40.4208 713.2343,44.543 707.6589,49.2764 C713.3612,51.6388 714.182,56.5401 709.0406,60.2658 C715.3602,64.8493 712.9231,70.0372 707.269,72.948 C711.875,78.3075 711.6219,83.1697 704.3971,85.9073 C709.7641,94.9228 706.9993,102.2188 696,103.3598 C696.0834,103.3432 696.1235,103.3928 696.1019,103.4718 C693.2529,110.0779 687.8969,110.3615 683.9853,104.505 C680.0802,111.4034 675.4427,110.6091 671.2027,104.843 C668.5258,109.837 663.7481,110.5461 660.6137,105.317 C655.8511,111.4763 651.4478,113.1143 646.1119,105.9406 C643.0055,111.8941 639.0551,111.7368 635.1389,106.7531 C630.6344,112.0501 625.3752,112.8446 622.2117,105.3933 C618.1807,111.8935 612.2074,110.863 608.5958,104.9339 C597.526,111.7295 591.2013,109.8325 589,96.3598 C589.6476,96.763 589.8669,97.2132 589.1512,97.7632 C583.2383,94.3444 581.9346,89.942 587.2373,84.8597 C581.7079,81.9358 580.0851,77.0571 586.035,72.9721 C579.3493,71.0571 578.5901,66.1878 583.5512,61.7053 C576.8674,56.8885 577.6453,51.5498 585.1112,48.3908 C580.6411,44.2845 581.555,38.4391 587.8061,36.8326 C582.0338,27.192 584.2241,18.9309 596,16.2898 C597.0516,16.3512 597.1978,17.0337 596.8046,17.8434 " fill="none" style="stroke:#181818;stroke-width:1.0;"/><text fill="#000000" font-family="sans-serif" font-size="14" font-weight="bold" lengthAdjust="spacing" textLength="57" x="617.5" y="36.2557">Internet</text></g><!--cluster Casa--><g id="cluster_Casa"><polygon fill="none" points="16,172.3598,26,162.3598,3245,162.3598,3245,874.5598,3235,884.5598,16,884.5598,16,172.3598" style="stroke:#181818;stroke-width:1.0;"/><line style="stroke:#181818;stroke-width:1.0;" x1="3235" x2="3245" y1="172.3598" y2="162.3598"/><line style="stroke:#181818;stroke-width:1.0;" x1="16" x2="3235" y1="172.3598" y2="172.3598"/><line style="stroke:#181818;stroke-width:1.0;" x1="3235" x2="3235" y1="172.3598" y2="884.5598"/><text fill="#000000" font-family="sans-serif" font-size="14" font-weight="bold" lengthAdjust="spacing" textLength="32" x="1610.5" y="190.3257">Casa</text></g><!--cluster Macbook--><g id="cluster_Macbook"><polygon fill="none" points="250,453.4198,260,443.4198,598,443.4198,598,627.4898,588,637.4898,250,637.4898,250,453.4198" style="stroke:#181818;stroke-width:1.0;"/><line style="stroke:#181818;stroke-width:1.0;" x1="588" x2="598" y1="453.4198" y2="443.4198"/><line style="stroke:#181818;stroke-width:1.0;" x1="250" x2="588" y1="453.4198" y2="453.4198"/><line style="stroke:#181818;stroke-width:1.0;" x1="588" x2="588" y1="453.4198" y2="637.4898"/><text fill="#000000" font-family="sans-serif" font-size="14" font-weight="bold" lengthAdjust="spacing" textLength="64" x="388" y="471.3857">Macbook</text></g><!--cluster MacOS--><g id="cluster_MacOS"><rect fill="none" height="103.07" rx="2.5" ry="2.5" style="stroke:#181818;stroke-width:1.0;" width="276" x="290" y="502.4198"/><text fill="#000000" font-family="sans-serif" font-size="14" font-weight="bold" lengthAdjust="spacing" textLength="47" x="404.5" y="519.3857">MacOS</text></g><!--cluster tv--><g id="cluster_tv"><polygon fill="none" points="1645,714.4898,1655,704.4898,2011,704.4898,2011,818.5598,2001,828.5598,1645,828.5598,1645,714.4898" style="stroke:#181818;stroke-width:1.0;"/><line style="stroke:#181818;stroke-width:1.0;" x1="2001" x2="2011" y1="714.4898" y2="704.4898"/><line style="stroke:#181818;stroke-width:1.0;" x1="1645" x2="2001" y1="714.4898" y2="714.4898"/><line style="stroke:#181818;stroke-width:1.0;" x1="2001" x2="2001" y1="714.4898" y2="828.5598"/><text fill="#000000" font-family="sans-serif" font-size="14" font-weight="bold" lengthAdjust="spacing" textLength="63" x="1792.5" y="732.4557">Smart TV</text></g><!--cluster sdf1--><g id="cluster_sdf1"><polygon fill="none" points="638,407.4198,648,397.4198,1605,397.4198,1605,842.5598,1595,852.5598,638,852.5598,638,407.4198" style="stroke:#181818;stroke-width:1.0;"/><line style="stroke:#181818;stroke-width:1.0;" x1="1595" x2="1605" y1="407.4198" y2="397.4198"/><line style="stroke:#181818;stroke-width:1.0;" x1="638" x2="1595" y1="407.4198" y2="407.4198"/><line style="stroke:#181818;stroke-width:1.0;" x1="1595" x2="1595" y1="407.4198" y2="852.5598"/><text fill="#000000" font-family="sans-serif" font-size="14" font-weight="bold" lengthAdjust="spacing" textLength="34" x="1100.5" y="425.3857">SDF1</text></g><!--cluster winSDF1--><g id="cluster_winSDF1"><rect fill="none" height="318.14" rx="2.5" ry="2.5" style="stroke:#181818;stroke-width:1.0;" width="318" x="1255" y="502.4198"/><text fill="#000000" font-family="sans-serif" font-size="14" font-weight="bold" lengthAdjust="spacing" textLength="64" x="1382" y="519.3857">Windows</text></g><!--cluster fedoraSDF1--><g id="cluster_fedoraSDF1"><rect fill="none" height="173.07" rx="2.5" ry="2.5" style="stroke:#181818;stroke-width:1.0;" width="553" x="678" y="456.4198"/><text fill="#000000" font-family="sans-serif" font-size="14" font-weight="bold" lengthAdjust="spacing" textLength="48" x="930.5" y="473.3857">Fedora</text></g><!--cluster fedFirefoxSDF1--><g id="cluster_fedFirefoxSDF1"><rect fill="none" height="103.07" rx="2.5" ry="2.5" style="stroke:#181818;stroke-width:1.0;" width="226" x="981" y="502.4198"/><text fill="#000000" font-family="sans-serif" font-size="14" font-weight="bold" lengthAdjust="spacing" textLength="48" x="1070" y="519.3857">Firefox</text></g><!--cluster daedalus--><g id="cluster_daedalus"><polygon fill="none" points="2051,453.4198,2061,443.4198,2441,443.4198,2441,842.5598,2431,852.5598,2051,852.5598,2051,453.4198" style="stroke:#181818;stroke-width:1.0;"/><line style="stroke:#181818;stroke-width:1.0;" x1="2431" x2="2441" y1="453.4198" y2="443.4198"/><line style="stroke:#181818;stroke-width:1.0;" x1="2051" x2="2431" y1="453.4198" y2="453.4198"/><line style="stroke:#181818;stroke-width:1.0;" x1="2431" x2="2431" y1="453.4198" y2="852.5598"/><text fill="#000000" font-family="sans-serif" font-size="14" font-weight="bold" lengthAdjust="spacing" textLength="63" x="2210.5" y="471.3857">Daedalus</text></g><!--cluster fedoraDaedalus--><g id="cluster_fedoraDaedalus"><rect fill="none" height="318.14" rx="2.5" ry="2.5" style="stroke:#181818;stroke-width:1.0;" width="318" x="2091" y="502.4198"/><text fill="#000000" font-family="sans-serif" font-size="14" font-weight="bold" lengthAdjust="spacing" textLength="48" x="2226" y="519.3857">Fedora</text></g><!--cluster prometeus--><g id="cluster_prometeus"><polygon fill="none" points="2481,453.4198,2491,443.4198,3213,443.4198,3213,842.5598,3203,852.5598,2481,852.5598,2481,453.4198" style="stroke:#181818;stroke-width:1.0;"/><line style="stroke:#181818;stroke-width:1.0;" x1="3203" x2="3213" y1="453.4198" y2="443.4198"/><line style="stroke:#181818;stroke-width:1.0;" x1="2481" x2="3203" y1="453.4198" y2="453.4198"/><line style="stroke:#181818;stroke-width:1.0;" x1="3203" x2="3203" y1="453.4198" y2="852.5598"/><text fill="#000000" font-family="sans-serif" font-size="14" font-weight="bold" lengthAdjust="spacing" textLength="142" x="2772" y="471.3857">Prometeus (Port&#225;til)</text></g><!--cluster winPrometeus--><g id="cluster_winPrometeus"><rect fill="none" height="318.14" rx="2.5" ry="2.5" style="stroke:#181818;stroke-width:1.0;" width="318" x="2863" y="502.4198"/><text fill="#000000" font-family="sans-serif" font-size="14" font-weight="bold" lengthAdjust="spacing" textLength="64" x="2990" y="519.3857">Windows</text></g><!--cluster ubuntuPrometeus--><g id="cluster_ubuntuPrometeus"><rect fill="none" height="318.14" rx="2.5" ry="2.5" style="stroke:#181818;stroke-width:1.0;" width="318" x="2521" y="502.4198"/><text fill="#000000" font-family="sans-serif" font-size="14" font-weight="bold" lengthAdjust="spacing" textLength="53" x="2653.5" y="519.3857">Ubuntu</text></g><!--entity Movistar--><g id="elem_Movistar"><rect fill="#F1F1F1" height="49.0679" rx="2.5" ry="2.5" style="stroke:#181818;stroke-width:0.5;" width="98" x="597" y="46.2898"/><rect fill="#F1F1F1" height="10" style="stroke:#181818;stroke-width:0.5;" width="15" x="675" y="51.2898"/><rect fill="#F1F1F1" height="2" style="stroke:#181818;stroke-width:0.5;" width="4" x="673" y="53.2898"/><rect fill="#F1F1F1" height="2" style="stroke:#181818;stroke-width:0.5;" width="4" x="673" y="57.2898"/><text fill="#000000" font-family="sans-serif" font-size="14" lengthAdjust="spacing" textLength="58" x="612" y="81.2557">Movistar</text></g><!--entity router--><g id="elem_router"><rect fill="#F1F1F1" height="39.0679" rx="2.5" ry="2.5" style="stroke:#181818;stroke-width:0.5;" width="65" x="613.5" y="205.3598"/><text fill="#000000" font-family="sans-serif" font-size="14" lengthAdjust="spacing" textLength="45" x="623.5" y="230.3257">Router</text></g><!--entity Switch--><g id="elem_Switch"><polygon fill="#F1F1F1" points="32,550.4198,42,540.4198,116,540.4198,116,579.4877,106,589.4877,32,589.4877,32,550.4198" style="stroke:#181818;stroke-width:0.5;"/><line style="stroke:#181818;stroke-width:0.5;" x1="106" x2="116" y1="550.4198" y2="540.4198"/><line style="stroke:#181818;stroke-width:0.5;" x1="32" x2="106" y1="550.4198" y2="550.4198"/><line style="stroke:#181818;stroke-width:0.5;" x1="106" x2="106" y1="550.4198" y2="589.4877"/><text fill="#000000" font-family="sans-serif" font-size="14" lengthAdjust="spacing" textLength="44" x="47" y="575.3857">Switch</text></g><!--entity WiiU--><g id="elem_WiiU"><polygon fill="#F1F1F1" points="151.5,550.4198,161.5,540.4198,222.5,540.4198,222.5,579.4877,212.5,589.4877,151.5,589.4877,151.5,550.4198" style="stroke:#181818;stroke-width:0.5;"/><line style="stroke:#181818;stroke-width:0.5;" x1="212.5" x2="222.5" y1="550.4198" y2="540.4198"/><line style="stroke:#181818;stroke-width:0.5;" x1="151.5" x2="212.5" y1="550.4198" y2="550.4198"/><line style="stroke:#181818;stroke-width:0.5;" x1="212.5" x2="212.5" y1="550.4198" y2="589.4877"/><text fill="#000000" font-family="sans-serif" font-size="14" lengthAdjust="spacing" textLength="31" x="166.5" y="575.3857">WiiU</text></g><!--entity LogicPro--><g id="elem_LogicPro"><rect fill="#F1F1F1" height="49.0679" rx="2.5" ry="2.5" style="stroke:#181818;stroke-width:0.5;" width="97" x="453.5" y="540.4198"/><rect fill="#F1F1F1" height="10" style="stroke:#181818;stroke-width:0.5;" width="15" x="530.5" y="545.4198"/><rect fill="#F1F1F1" height="2" style="stroke:#181818;stroke-width:0.5;" width="4" x="528.5" y="547.4198"/><rect fill="#F1F1F1" height="2" style="stroke:#181818;stroke-width:0.5;" width="4" x="528.5" y="551.4198"/><text fill="#000000" font-family="sans-serif" font-size="14" lengthAdjust="spacing" textLength="57" x="468.5" y="575.3857">LogicPro</text></g><!--entity MainStage--><g id="elem_MainStage"><rect fill="#F1F1F1" height="49.0679" rx="2.5" ry="2.5" style="stroke:#181818;stroke-width:0.5;" width="112" x="306" y="540.4198"/><rect fill="#F1F1F1" height="10" style="stroke:#181818;stroke-width:0.5;" width="15" x="398" y="545.4198"/><rect fill="#F1F1F1" height="2" style="stroke:#181818;stroke-width:0.5;" width="4" x="396" y="547.4198"/><rect fill="#F1F1F1" height="2" style="stroke:#181818;stroke-width:0.5;" width="4" x="396" y="551.4198"/><text fill="#000000" font-family="sans-serif" font-size="14" lengthAdjust="spacing" textLength="72" x="321" y="575.3857">MainStage</text></g><!--entity Funci?n TV--><g id="elem_Funci&#243;n TV"><rect fill="#F1F1F1" height="49.0679" rx="2.5" ry="2.5" style="stroke:#181818;stroke-width:0.5;" width="113" x="1874.5" y="755.4898"/><rect fill="#F1F1F1" height="10" style="stroke:#181818;stroke-width:0.5;" width="15" x="1967.5" y="760.4898"/><rect fill="#F1F1F1" height="2" style="stroke:#181818;stroke-width:0.5;" width="4" x="1965.5" y="762.4898"/><rect fill="#F1F1F1" height="2" style="stroke:#181818;stroke-width:0.5;" width="4" x="1965.5" y="766.4898"/><text fill="#000000" font-family="sans-serif" font-size="14" lengthAdjust="spacing" textLength="73" x="1889.5" y="790.4557">Funci&#243;n TV</text></g><!--entity Funci?n Pantalla--><g id="elem_Funci&#243;n Pantalla"><rect fill="#F1F1F1" height="49.0679" rx="2.5" ry="2.5" style="stroke:#181818;stroke-width:0.5;" width="151" x="1688.5" y="755.4898"/><rect fill="#F1F1F1" height="10" style="stroke:#181818;stroke-width:0.5;" width="15" x="1819.5" y="760.4898"/><rect fill="#F1F1F1" height="2" style="stroke:#181818;stroke-width:0.5;" width="4" x="1817.5" y="762.4898"/><rect fill="#F1F1F1" height="2" style="stroke:#181818;stroke-width:0.5;" width="4" x="1817.5" y="766.4898"/><text fill="#000000" font-family="sans-serif" font-size="14" lengthAdjust="spacing" textLength="111" x="1703.5" y="790.4557">Funci&#243;n Pantalla</text></g><!--entity winFirefoxSDF1--><g id="elem_winFirefoxSDF1"><rect fill="#F1F1F1" height="49.0679" rx="2.5" ry="2.5" style="stroke:#181818;stroke-width:0.5;" width="85" x="1271.5" y="540.4198"/><rect fill="#F1F1F1" height="10" style="stroke:#181818;stroke-width:0.5;" width="15" x="1336.5" y="545.4198"/><rect fill="#F1F1F1" height="2" style="stroke:#181818;stroke-width:0.5;" width="4" x="1334.5" y="547.4198"/><rect fill="#F1F1F1" height="2" style="stroke:#181818;stroke-width:0.5;" width="4" x="1334.5" y="551.4198"/><text fill="#000000" font-family="sans-serif" font-size="14" lengthAdjust="spacing" textLength="45" x="1286.5" y="575.3857">Firefox</text></g><!--entity winVSCodeSDF1--><g id="elem_winVSCodeSDF1"><rect fill="#F1F1F1" height="49.0679" rx="2.5" ry="2.5" style="stroke:#181818;stroke-width:0.5;" width="165" x="1391.5" y="540.4198"/><rect fill="#F1F1F1" height="10" style="stroke:#181818;stroke-width:0.5;" width="15" x="1536.5" y="545.4198"/><rect fill="#F1F1F1" height="2" style="stroke:#181818;stroke-width:0.5;" width="4" x="1534.5" y="547.4198"/><rect fill="#F1F1F1" height="2" style="stroke:#181818;stroke-width:0.5;" width="4" x="1534.5" y="551.4198"/><text fill="#000000" font-family="sans-serif" font-size="14" lengthAdjust="spacing" textLength="125" x="1406.5" y="575.3857">Visual Studio Code</text></g><!--entity winJavaSDF1--><g id="elem_winJavaSDF1"><rect fill="#F1F1F1" height="49.0679" rx="2.5" ry="2.5" style="stroke:#181818;stroke-width:0.5;" width="67" x="1280.5" y="755.4898"/><rect fill="#F1F1F1" height="10" style="stroke:#181818;stroke-width:0.5;" width="15" x="1327.5" y="760.4898"/><rect fill="#F1F1F1" height="2" style="stroke:#181818;stroke-width:0.5;" width="4" x="1325.5" y="762.4898"/><rect fill="#F1F1F1" height="2" style="stroke:#181818;stroke-width:0.5;" width="4" x="1325.5" y="766.4898"/><text fill="#000000" font-family="sans-serif" font-size="14" lengthAdjust="spacing" textLength="27" x="1295.5" y="790.4557">Java</text></g><!--entity fedVSCodeSDF1--><g id="elem_fedVSCodeSDF1"><rect fill="#F1F1F1" height="49.0679" rx="2.5" ry="2.5" style="stroke:#181818;stroke-width:0.5;" width="165" x="796.5" y="540.4198"/><rect fill="#F1F1F1" height="10" style="stroke:#181818;stroke-width:0.5;" width="15" x="941.5" y="545.4198"/><rect fill="#F1F1F1" height="2" style="stroke:#181818;stroke-width:0.5;" width="4" x="939.5" y="547.4198"/><rect fill="#F1F1F1" height="2" style="stroke:#181818;stroke-width:0.5;" width="4" x="939.5" y="551.4198"/><text fill="#000000" font-family="sans-serif" font-size="14" lengthAdjust="spacing" textLength="125" x="811.5" y="575.3857">Visual Studio Code</text></g><!--entity fedJavaSDF1--><g id="elem_fedJavaSDF1"><rect fill="#F1F1F1" height="49.0679" rx="2.5" ry="2.5" style="stroke:#181818;stroke-width:0.5;" width="67" x="694.5" y="540.4198"/><rect fill="#F1F1F1" height="10" style="stroke:#181818;stroke-width:0.5;" width="15" x="741.5" y="545.4198"/><rect fill="#F1F1F1" height="2" style="stroke:#181818;stroke-width:0.5;" width="4" x="739.5" y="547.4198"/><rect fill="#F1F1F1" height="2" style="stroke:#181818;stroke-width:0.5;" width="4" x="739.5" y="551.4198"/><text fill="#000000" font-family="sans-serif" font-size="14" lengthAdjust="spacing" textLength="27" x="709.5" y="575.3857">Java</text></g><!--entity RemoveElement Plugin--><g id="elem_RemoveElement Plugin"><rect fill="#F1F1F1" height="49.0679" rx="2.5" ry="2.5" style="stroke:#181818;stroke-width:0.5;" width="195" x="996.5" y="540.4198"/><rect fill="#F1F1F1" height="10" style="stroke:#181818;stroke-width:0.5;" width="15" x="1171.5" y="545.4198"/><rect fill="#F1F1F1" height="2" style="stroke:#181818;stroke-width:0.5;" width="4" x="1169.5" y="547.4198"/><rect fill="#F1F1F1" height="2" style="stroke:#181818;stroke-width:0.5;" width="4" x="1169.5" y="551.4198"/><text fill="#000000" font-family="sans-serif" font-size="14" lengthAdjust="spacing" textLength="155" x="1011.5" y="575.3857">RemoveElement Plugin</text></g><!--entity firefoxDaedalus--><g id="elem_firefoxDaedalus"><rect fill="#F1F1F1" height="49.0679" rx="2.5" ry="2.5" style="stroke:#181818;stroke-width:0.5;" width="85" x="2107.5" y="540.4198"/><rect fill="#F1F1F1" height="10" style="stroke:#181818;stroke-width:0.5;" width="15" x="2172.5" y="545.4198"/><rect fill="#F1F1F1" height="2" style="stroke:#181818;stroke-width:0.5;" width="4" x="2170.5" y="547.4198"/><rect fill="#F1F1F1" height="2" style="stroke:#181818;stroke-width:0.5;" width="4" x="2170.5" y="551.4198"/><text fill="#000000" font-family="sans-serif" font-size="14" lengthAdjust="spacing" textLength="45" x="2122.5" y="575.3857">Firefox</text></g><!--entity vscodeDaedalus--><g id="elem_vscodeDaedalus"><rect fill="#F1F1F1" height="49.0679" rx="2.5" ry="2.5" style="stroke:#181818;stroke-width:0.5;" width="165" x="2227.5" y="540.4198"/><rect fill="#F1F1F1" height="10" style="stroke:#181818;stroke-width:0.5;" width="15" x="2372.5" y="545.4198"/><rect fill="#F1F1F1" height="2" style="stroke:#181818;stroke-width:0.5;" width="4" x="2370.5" y="547.4198"/><rect fill="#F1F1F1" height="2" style="stroke:#181818;stroke-width:0.5;" width="4" x="2370.5" y="551.4198"/><text fill="#000000" font-family="sans-serif" font-size="14" lengthAdjust="spacing" textLength="125" x="2242.5" y="575.3857">Visual Studio Code</text></g><!--entity javaDaedalus--><g id="elem_javaDaedalus"><rect fill="#F1F1F1" height="49.0679" rx="2.5" ry="2.5" style="stroke:#181818;stroke-width:0.5;" width="67" x="2116.5" y="755.4898"/><rect fill="#F1F1F1" height="10" style="stroke:#181818;stroke-width:0.5;" width="15" x="2163.5" y="760.4898"/><rect fill="#F1F1F1" height="2" style="stroke:#181818;stroke-width:0.5;" width="4" x="2161.5" y="762.4898"/><rect fill="#F1F1F1" height="2" style="stroke:#181818;stroke-width:0.5;" width="4" x="2161.5" y="766.4898"/><text fill="#000000" font-family="sans-serif" font-size="14" lengthAdjust="spacing" textLength="27" x="2131.5" y="790.4557">Java</text></g><!--entity winFirefoxPrometeus--><g id="elem_winFirefoxPrometeus"><rect fill="#F1F1F1" height="49.0679" rx="2.5" ry="2.5" style="stroke:#181818;stroke-width:0.5;" width="85" x="2879.5" y="540.4198"/><rect fill="#F1F1F1" height="10" style="stroke:#181818;stroke-width:0.5;" width="15" x="2944.5" y="545.4198"/><rect fill="#F1F1F1" height="2" style="stroke:#181818;stroke-width:0.5;" width="4" x="2942.5" y="547.4198"/><rect fill="#F1F1F1" height="2" style="stroke:#181818;stroke-width:0.5;" width="4" x="2942.5" y="551.4198"/><text fill="#000000" font-family="sans-serif" font-size="14" lengthAdjust="spacing" textLength="45" x="2894.5" y="575.3857">Firefox</text></g><!--entity winVSCodePrometeus--><g id="elem_winVSCodePrometeus"><rect fill="#F1F1F1" height="49.0679" rx="2.5" ry="2.5" style="stroke:#181818;stroke-width:0.5;" width="165" x="2999.5" y="540.4198"/><rect fill="#F1F1F1" height="10" style="stroke:#181818;stroke-width:0.5;" width="15" x="3144.5" y="545.4198"/><rect fill="#F1F1F1" height="2" style="stroke:#181818;stroke-width:0.5;" width="4" x="3142.5" y="547.4198"/><rect fill="#F1F1F1" height="2" style="stroke:#181818;stroke-width:0.5;" width="4" x="3142.5" y="551.4198"/><text fill="#000000" font-family="sans-serif" font-size="14" lengthAdjust="spacing" textLength="125" x="3014.5" y="575.3857">Visual Studio Code</text></g><!--entity winJavaPrometeus--><g id="elem_winJavaPrometeus"><rect fill="#F1F1F1" height="49.0679" rx="2.5" ry="2.5" style="stroke:#181818;stroke-width:0.5;" width="67" x="2888.5" y="755.4898"/><rect fill="#F1F1F1" height="10" style="stroke:#181818;stroke-width:0.5;" width="15" x="2935.5" y="760.4898"/><rect fill="#F1F1F1" height="2" style="stroke:#181818;stroke-width:0.5;" width="4" x="2933.5" y="762.4898"/><rect fill="#F1F1F1" height="2" style="stroke:#181818;stroke-width:0.5;" width="4" x="2933.5" y="766.4898"/><text fill="#000000" font-family="sans-serif" font-size="14" lengthAdjust="spacing" textLength="27" x="2903.5" y="790.4557">Java</text></g><!--entity ubuntuFirefoxPrometeus--><g id="elem_ubuntuFirefoxPrometeus"><rect fill="#F1F1F1" height="49.0679" rx="2.5" ry="2.5" style="stroke:#181818;stroke-width:0.5;" width="85" x="2537.5" y="540.4198"/><rect fill="#F1F1F1" height="10" style="stroke:#181818;stroke-width:0.5;" width="15" x="2602.5" y="545.4198"/><rect fill="#F1F1F1" height="2" style="stroke:#181818;stroke-width:0.5;" width="4" x="2600.5" y="547.4198"/><rect fill="#F1F1F1" height="2" style="stroke:#181818;stroke-width:0.5;" width="4" x="2600.5" y="551.4198"/><text fill="#000000" font-family="sans-serif" font-size="14" lengthAdjust="spacing" textLength="45" x="2552.5" y="575.3857">Firefox</text></g><!--entity ubuntuVSCodePrometeus--><g id="elem_ubuntuVSCodePrometeus"><rect fill="#F1F1F1" height="49.0679" rx="2.5" ry="2.5" style="stroke:#181818;stroke-width:0.5;" width="165" x="2657.5" y="540.4198"/><rect fill="#F1F1F1" height="10" style="stroke:#181818;stroke-width:0.5;" width="15" x="2802.5" y="545.4198"/><rect fill="#F1F1F1" height="2" style="stroke:#181818;stroke-width:0.5;" width="4" x="2800.5" y="547.4198"/><rect fill="#F1F1F1" height="2" style="stroke:#181818;stroke-width:0.5;" width="4" x="2800.5" y="551.4198"/><text fill="#000000" font-family="sans-serif" font-size="14" lengthAdjust="spacing" textLength="125" x="2672.5" y="575.3857">Visual Studio Code</text></g><!--entity ubuntuJavaPrometeus--><g id="elem_ubuntuJavaPrometeus"><rect fill="#F1F1F1" height="49.0679" rx="2.5" ry="2.5" style="stroke:#181818;stroke-width:0.5;" width="67" x="2546.5" y="755.4898"/><rect fill="#F1F1F1" height="10" style="stroke:#181818;stroke-width:0.5;" width="15" x="2593.5" y="760.4898"/><rect fill="#F1F1F1" height="2" style="stroke:#181818;stroke-width:0.5;" width="4" x="2591.5" y="762.4898"/><rect fill="#F1F1F1" height="2" style="stroke:#181818;stroke-width:0.5;" width="4" x="2591.5" y="766.4898"/><text fill="#000000" font-family="sans-serif" font-size="14" lengthAdjust="spacing" textLength="27" x="2561.5" y="790.4557">Java</text></g><!--link Movistar to router--><g id="link_Movistar_router"><path d="M646,95.5798 C646,125.8198 646,177.4398 646,205.0898 " fill="none" id="Movistar-router" style="stroke:#181818;stroke-width:1.0;"/><text fill="#000000" font-family="sans-serif" font-size="13" lengthAdjust="spacing" textLength="33" x="647" y="142.2568">Cable</text></g><!--link router to tv--><g id="link_router_tv"><path d="M678.67,226.5898 C827.71,230.4498 1441.4,254.0098 1573,381.4198 C1637.245,443.6248 1657.435,541.9648 1661.47,625.2785 C1662.4788,646.1069 1662.4778,665.9962 1661.9031,684.147 C1661.7595,688.6847 1661.5799,693.1137 1661.3713,697.4216 C1661.2671,699.5756 1661.1555,701.6992 1661.0375,703.791 " fill="none" id="router-tv" style="stroke:#181818;stroke-width:1.0;"/><text fill="#000000" font-family="sans-serif" font-size="13" lengthAdjust="spacing" textLength="88" x="1564" y="369.3168">Cable Ethernet</text></g><!--link router to sdf1--><g id="link_router_sdf1"><path d="M646,244.5498 C646,262.1298 646,290.641 646,323.5788 C646,340.0477 646,357.6233 646,375.4924 C646,379.9597 646,384.4453 646,388.9365 C646,391.1822 646,393.4292 646,395.6761 C646,396.2378 646,390.7995 646,391.3612 " fill="none" id="router-to-sdf1" style="stroke:#181818;stroke-width:1.0;stroke-dasharray:7.0,7.0;"/><polygon fill="#181818" points="646,397.3612,650,388.3612,646,392.3612,642,388.3612,646,397.3612" style="stroke:#181818;stroke-width:1.0;"/><text fill="#000000" font-family="sans-serif" font-size="13" lengthAdjust="spacing" textLength="25" x="647" y="320.3168">WiFi</text></g><!--link router to daedalus--><g id="link_router_daedalus"><path d="M678.82,226.5498 C829.54,229.7198 1456.3,244.4998 1650,274.4198 C1833.99,302.8498 1939.8,235.1698 2055,381.4198 C2067.3575,397.1073 2073.875,416.1285 2076.6784,435.8926 C2077.0289,438.3631 2076.7488,434.8726 2076.9874,437.3612 " fill="none" id="router-to-daedalus" style="stroke:#181818;stroke-width:1.0;stroke-dasharray:7.0,7.0;"/><polygon fill="#181818" points="2077.5598,443.3339,2080.6829,433.9933,2077.0828,438.3567,2072.7194,434.7565,2077.5598,443.3339" style="stroke:#181818;stroke-width:1.0;"/><text fill="#000000" font-family="sans-serif" font-size="13" lengthAdjust="spacing" textLength="25" x="1994" y="320.3168">WiFi</text></g><!--link router to prometeus--><g id="link_router_prometeus"><path d="M678.85,225.7698 C832.24,225.6298 1493.2,229.6798 2028,305.4198 C2198.96,329.6398 2274.45,273.2098 2409,381.4198 C2442.97,408.7448 2462.88,453.3923 2474.3413,491.691 C2475.7739,496.4784 2477.0746,501.1665 2478.2541,505.7092 C2478.8439,507.9806 2479.4035,510.2156 2479.9341,512.4084 C2480.1994,513.5049 2480.4575,514.5908 2480.7086,515.6654 C2480.7713,515.9341 2479.4801,510.3567 2479.542,510.6239 " fill="none" id="router-to-prometeus" style="stroke:#181818;stroke-width:1.0;stroke-dasharray:7.0,7.0;"/><polygon fill="#181818" points="2480.8955,516.4693,2482.7621,506.7989,2479.7676,511.5981,2474.9683,508.6036,2480.8955,516.4693" style="stroke:#181818;stroke-width:1.0;"/><text fill="#000000" font-family="sans-serif" font-size="13" lengthAdjust="spacing" textLength="25" x="2308" y="320.3168">WiFi</text></g><!--link router to Switch--><g id="link_router_Switch"><path d="M613.04,227.9098 C543.71,233.1498 378.79,250.8098 253,305.4198 C195.44,330.4098 172.48,331.8498 134,381.4198 C96.47,429.7798 82.7416,496.6577 77.5116,534.0277 " fill="none" id="router-to-Switch" style="stroke:#181818;stroke-width:1.0;stroke-dasharray:7.0,7.0;"/><polygon fill="#181818" points="76.68,539.9698,81.8888,531.611,77.373,535.018,73.966,530.5022,76.68,539.9698" style="stroke:#181818;stroke-width:1.0;"/><text fill="#000000" font-family="sans-serif" font-size="13" lengthAdjust="spacing" textLength="25" x="254" y="320.3168">WiFi</text></g><!--link router to WiiU--><g id="link_router_WiiU"><path d="M613.02,227.7798 C551.22,232.5798 415.45,249.2098 318,305.4198 C276.62,329.2898 266.52,340.4298 242,381.4198 C211.08,433.1198 197.2977,497.6483 191.3477,534.0583 " fill="none" id="router-to-WiiU" style="stroke:#181818;stroke-width:1.0;stroke-dasharray:7.0,7.0;"/><polygon fill="#181818" points="190.38,539.9798,195.7791,531.7427,191.1864,535.0452,187.8839,530.4525,190.38,539.9798" style="stroke:#181818;stroke-width:1.0;"/><text fill="#000000" font-family="sans-serif" font-size="13" lengthAdjust="spacing" textLength="25" x="319" y="320.3168">WiFi</text></g><!--link router to Macbook--><g id="link_router_Macbook"><path d="M613.25,229.8998 C542.06,240.4498 372.95,275.9098 290,381.4198 C277.4725,397.3548 269.1731,416.5016 263.7795,436.3144 C263.4424,437.5527 263.1167,438.7937 262.802,440.0365 C262.6446,440.658 262.49,441.2799 262.3381,441.9023 C262.2622,442.2134 263.5847,436.6898 263.5101,437.0012 " fill="none" id="router-to-Macbook" style="stroke:#181818;stroke-width:1.0;stroke-dasharray:7.0,7.0;"/><polygon fill="#181818" points="262.1123,442.8361,268.0989,435.0156,263.2771,437.9737,260.319,433.1519,262.1123,442.8361" style="stroke:#181818;stroke-width:1.0;"/><text fill="#000000" font-family="sans-serif" font-size="13" lengthAdjust="spacing" textLength="25" x="381" y="320.3168">WiFi</text></g><!--link daedalus to tv--><g id="link_daedalus_tv"><path d="M2050.596,655.5198 C2048.3196,656.2117 2045.2709,656.9172 2041.5591,657.6318 C2034.1356,659.0609 2024.0597,660.5265 2012.2038,661.9919 C1988.4919,664.9229 1957.66,667.8535 1926.6875,670.4923 C1864.7425,675.7698 1802.235,679.8798 1795,680.4898 C1781.46,681.6398 1683.31,679.6398 1673,688.4898 C1669.1525,691.7935 1665.9491,695.6549 1663.2894,699.8867 C1662.6245,700.9447 1661.9936,702.0258 1661.3951,703.1271 C1661.2455,703.4025 1661.0979,703.6791 1660.9523,703.9569 C1660.8795,704.0958 1660.8072,704.235 1660.7354,704.3745 " fill="none" id="daedalus-tv" style="stroke:#181818;stroke-width:1.0;"/><text fill="#000000" font-family="sans-serif" font-size="13" lengthAdjust="spacing" textLength="71" x="2016" y="676.3868">Cable HDMI</text></g><!--SRC=[dLJDJkCm4BxxAQoSu40bhXoGKDlm8xeRDL0EA8TfuXOlhhrAx7IbLHvcdu57uCLm7EUlSI5i3zLulcyytrTF9sP29TYxvPAad4WF_qLOVvuN8gUPX3H21K9S90HxKyYWnfVpwSFLZ-lxEVQMGkbQ3qE6KnCYmp0ruPxA-0MtYITA7zkJju1uBSIhARQnRT1leh6VOGSn4k_5biP1Ag9-UW6KXnAsfCqNgFhkT0vta4hyi3AjPTwv-zbNFARlRroZaICR09V064IelRfxySm_DvTcoURSQSPxeZmH-yomzbgihZZqvjEKRCIVo5BiiMJsUIkQAM0ub2gX0a-rWhfa5PQdOSKTv51pohZ7A5noVPA858pQZGaTWhlqIclDxqW_g35obcGdSZ9dP4Uun05JMyhx3rgCSgmxVUbOSuuu7hpY34W2J5LlbDY3-pK7FyziI1-ywQQAQ-eeYtaMwz1TqdZyfOC1vOX9_T_P4KcqqfD0fFBzdwJir1ZvtI1Z1ZXmi3-PueR-lL4-KdOupqEQSwWVrufBPHme4uuoKL7_oqTLEivAnVtCJL6kvNf7uxCpkthn1Px2cX5aZnhGkyqcyLo-c2LVevF9vB9QKnTwCVkqbs-6te6ru-40xSvt8ENoT-NhpM-XfdDV_SriSOlG1m00]--></g></svg>