<?xml version="1.0" encoding="us-ascii" standalone="no"?><svg xmlns="http://www.w3.org/2000/svg" xmlns:xlink="http://www.w3.org/1999/xlink" contentStyleType="text/css" height="941px" preserveAspectRatio="none" style="width:3262px;height:941px;background:#FFFFFF;" version="1.1" viewBox="0 0 3262 941" width="3262px" zoomAndPan="magnify"><defs/><g><!--cluster Internet--><g id="cluster_Internet"><path d="M596.8046,17.8434 C600.1447,11.8405 605.239,10.8097 609.8317,16.4407 C611.9459,9.7623 617.3276,10.4591 621.1641,14.6441 C625.3973,8.039 629.285,7.4466 633.8735,14.3088 C636.8804,6 642.2285,6.8723 647.6414,11.8074 C651.2863,6.2807 656.7971,7.819 659.4354,12.9241 C663.8449,8.0767 669.0193,9.7527 671.0516,15.5245 C675.0167,8.8331 681.6956,9.3676 684.7244,16.4538 C694.1175,10.8045 699.6149,12.8768 703,23.2898 C703.0039,23.2905 703.004,23.2939 703.0018,23.2963 C710.4321,26.4823 710.9945,31.9049 705.7035,37.5092 C711.0916,40.4208 713.2343,44.543 707.6589,49.2764 C713.3612,51.6388 714.182,56.5401 709.0406,60.2658 C715.3602,64.8493 712.9231,70.0372 707.269,72.948 C711.875,78.3075 711.6219,83.1697 704.3971,85.9073 C709.7641,94.9228 706.9993,102.2188 696,103.3598 C696.0834,103.3432 696.1235,103.3928 696.1019,103.4718 C693.2529,110.0779 687.8969,110.3615 683.9853,104.505 C680.0802,111.4034 675.4427,110.6091 671.2027,104.843 C668.5258,109.837 663.7481,110.5461 660.6137,105.317 C655.8511,111.4763 651.4478,113.1143 646.1119,105.9406 C643.0055,111.8941 639.0551,111.7368 635.1389,106.7531 C630.6344,112.0501 625.3752,112.8446 622.2117,105.3933 C618.1807,111.8935 612.2074,110.863 608.5958,104.9339 C597.526,111.7295 591.2013,109.8325 589,96.3598 C589.6476,96.763 589.8669,97.2132 589.1512,97.7632 C583.2383,94.3444 581.9346,89.942 587.2373,84.8597 C581.7079,81.9358 580.0851,77.0571 586.035,72.9721 C579.3493,71.0571 578.5901,66.1878 583.5512,61.7053 C576.8674,56.8885 577.6453,51.5498 585.1112,48.3908 C580.6411,44.2845 581.555,38.4391 587.8061,36.8326 C582.0338,27.192 584.2241,18.9309 596,16.2898 C597.0516,16.3512 597.1978,17.0337 596.8046,17.8434 " fill="none" style="stroke:#181818;stroke-width:1.0;"/><text fill="#000000" font-family="sans-serif" font-size="14" font-weight="bold" lengthAdjust="spacing" textLength="57" x="617.5" y="36.2557">Internet</text></g><!--cluster Casa--><g id="cluster_Casa"><polygon fill="none" points="16,154.3598,26,144.3598,3245,144.3598,3245,914.6298,3235,924.6298,16,924.6298,16,154.3598" style="stroke:#181818;stroke-width:1.0;"/><line style="stroke:#181818;stroke-width:1.0;" x1="3235" x2="3245" y1="154.3598" y2="144.3598"/><line style="stroke:#181818;stroke-width:1.0;" x1="16" x2="3235" y1="154.3598" y2="154.3598"/><line style="stroke:#181818;stroke-width:1.0;" x1="3235" x2="3235" y1="154.3598" y2="924.6298"/><text fill="#000000" font-family="sans-serif" font-size="14" font-weight="bold" lengthAdjust="spacing" textLength="32" x="1610.5" y="172.3257">Casa</text></g><!--cluster Macbook--><g id="cluster_Macbook"><polygon fill="none" points="250,556.4898,260,546.4898,598,546.4898,598,730.5598,588,740.5598,250,740.5598,250,556.4898" style="stroke:#181818;stroke-width:1.0;"/><line style="stroke:#181818;stroke-width:1.0;" x1="588" x2="598" y1="556.4898" y2="546.4898"/><line style="stroke:#181818;stroke-width:1.0;" x1="250" x2="588" y1="556.4898" y2="556.4898"/><line style="stroke:#181818;stroke-width:1.0;" x1="588" x2="588" y1="556.4898" y2="740.5598"/><text fill="#000000" font-family="sans-serif" font-size="14" font-weight="bold" lengthAdjust="spacing" textLength="64" x="388" y="574.4557">Macbook</text></g><!--cluster MacOS--><g id="cluster_MacOS"><rect fill="none" height="103.07" rx="2.5" ry="2.5" style="stroke:#181818;stroke-width:1.0;" width="276" x="290" y="605.4898"/><text fill="#000000" font-family="sans-serif" font-size="14" font-weight="bold" lengthAdjust="spacing" textLength="47" x="404.5" y="622.4557">MacOS</text></g><!--cluster tv--><g id="cluster_tv"><polygon fill="none" points="1645,602.4898,1655,592.4898,2011,592.4898,2011,706.5598,2001,716.5598,1645,716.5598,1645,602.4898" style="stroke:#181818;stroke-width:1.0;"/><line style="stroke:#181818;stroke-width:1.0;" x1="2001" x2="2011" y1="602.4898" y2="592.4898"/><line style="stroke:#181818;stroke-width:1.0;" x1="1645" x2="2001" y1="602.4898" y2="602.4898"/><line style="stroke:#181818;stroke-width:1.0;" x1="2001" x2="2001" y1="602.4898" y2="716.5598"/><text fill="#000000" font-family="sans-serif" font-size="14" font-weight="bold" lengthAdjust="spacing" textLength="63" x="1792.5" y="620.4557">Smart TV</text></g><!--cluster sdf1--><g id="cluster_sdf1"><polygon fill="none" points="638,510.4898,648,500.4898,1605,500.4898,1605,882.6298,1595,892.6298,638,892.6298,638,510.4898" style="stroke:#181818;stroke-width:1.0;"/><line style="stroke:#181818;stroke-width:1.0;" x1="1595" x2="1605" y1="510.4898" y2="500.4898"/><line style="stroke:#181818;stroke-width:1.0;" x1="638" x2="1595" y1="510.4898" y2="510.4898"/><line style="stroke:#181818;stroke-width:1.0;" x1="1595" x2="1595" y1="510.4898" y2="892.6298"/><text fill="#000000" font-family="sans-serif" font-size="14" font-weight="bold" lengthAdjust="spacing" textLength="34" x="1100.5" y="528.4557">SDF1</text></g><!--cluster winSDF1--><g id="cluster_winSDF1"><rect fill="none" height="255.14" rx="2.5" ry="2.5" style="stroke:#181818;stroke-width:1.0;" width="318" x="1255" y="605.4898"/><text fill="#000000" font-family="sans-serif" font-size="14" font-weight="bold" lengthAdjust="spacing" textLength="64" x="1382" y="622.4557">Windows</text></g><!--cluster fedoraSDF1--><g id="cluster_fedoraSDF1"><rect fill="none" height="173.07" rx="2.5" ry="2.5" style="stroke:#181818;stroke-width:1.0;" width="553" x="678" y="559.4898"/><text fill="#000000" font-family="sans-serif" font-size="14" font-weight="bold" lengthAdjust="spacing" textLength="48" x="930.5" y="576.4557">Fedora</text></g><!--cluster fedFirefoxSDF1--><g id="cluster_fedFirefoxSDF1"><rect fill="none" height="103.07" rx="2.5" ry="2.5" style="stroke:#181818;stroke-width:1.0;" width="226" x="981" y="605.4898"/><text fill="#000000" font-family="sans-serif" font-size="14" font-weight="bold" lengthAdjust="spacing" textLength="48" x="1070" y="622.4557">Firefox</text></g><!--cluster daedalus--><g id="cluster_daedalus"><polygon fill="none" points="2051,291.4298,2061,281.4298,2441,281.4298,2441,730.5598,2431,740.5598,2051,740.5598,2051,291.4298" style="stroke:#181818;stroke-width:1.0;"/><line style="stroke:#181818;stroke-width:1.0;" x1="2431" x2="2441" y1="291.4298" y2="281.4298"/><line style="stroke:#181818;stroke-width:1.0;" x1="2051" x2="2431" y1="291.4298" y2="291.4298"/><line style="stroke:#181818;stroke-width:1.0;" x1="2431" x2="2431" y1="291.4298" y2="740.5598"/><text fill="#000000" font-family="sans-serif" font-size="14" font-weight="bold" lengthAdjust="spacing" textLength="63" x="2210.5" y="309.3957">Daedalus</text></g><!--cluster fedoraDaedalus--><g id="cluster_fedoraDaedalus"><rect fill="none" height="368.13" rx="2.5" ry="2.5" style="stroke:#181818;stroke-width:1.0;" width="318" x="2091" y="340.4298"/><text fill="#000000" font-family="sans-serif" font-size="14" font-weight="bold" lengthAdjust="spacing" textLength="48" x="2226" y="357.3957">Fedora</text></g><!--cluster prometeus--><g id="cluster_prometeus"><polygon fill="none" points="2481,556.4898,2491,546.4898,3213,546.4898,3213,882.6298,3203,892.6298,2481,892.6298,2481,556.4898" style="stroke:#181818;stroke-width:1.0;"/><line style="stroke:#181818;stroke-width:1.0;" x1="3203" x2="3213" y1="556.4898" y2="546.4898"/><line style="stroke:#181818;stroke-width:1.0;" x1="2481" x2="3203" y1="556.4898" y2="556.4898"/><line style="stroke:#181818;stroke-width:1.0;" x1="3203" x2="3203" y1="556.4898" y2="892.6298"/><text fill="#000000" font-family="sans-serif" font-size="14" font-weight="bold" lengthAdjust="spacing" textLength="142" x="2772" y="574.4557">Prometeus (Port&#225;til)</text></g><!--cluster winPrometeus--><g id="cluster_winPrometeus"><rect fill="none" height="255.14" rx="2.5" ry="2.5" style="stroke:#181818;stroke-width:1.0;" width="318" x="2863" y="605.4898"/><text fill="#000000" font-family="sans-serif" font-size="14" font-weight="bold" lengthAdjust="spacing" textLength="64" x="2990" y="622.4557">Windows</text></g><!--cluster ubuntuPrometeus--><g id="cluster_ubuntuPrometeus"><rect fill="none" height="255.14" rx="2.5" ry="2.5" style="stroke:#181818;stroke-width:1.0;" width="318" x="2521" y="605.4898"/><text fill="#000000" font-family="sans-serif" font-size="14" font-weight="bold" lengthAdjust="spacing" textLength="53" x="2653.5" y="622.4557">Ubuntu</text></g><!--entity Movistar--><g id="elem_Movistar"><rect fill="#F1F1F1" height="49.0679" rx="2.5" ry="2.5" style="stroke:#181818;stroke-width:0.5;" width="98" x="597" y="46.2898"/><rect fill="#F1F1F1" height="10" style="stroke:#181818;stroke-width:0.5;" width="15" x="675" y="51.2898"/><rect fill="#F1F1F1" height="2" style="stroke:#181818;stroke-width:0.5;" width="4" x="673" y="53.2898"/><rect fill="#F1F1F1" height="2" style="stroke:#181818;stroke-width:0.5;" width="4" x="673" y="57.2898"/><text fill="#000000" font-family="sans-serif" font-size="14" lengthAdjust="spacing" textLength="58" x="612" y="81.2557">Movistar</text></g><!--entity router--><g id="elem_router"><rect fill="#F1F1F1" height="39.0679" rx="2.5" ry="2.5" style="stroke:#181818;stroke-width:0.5;" width="65" x="613.5" y="187.3598"/><text fill="#000000" font-family="sans-serif" font-size="14" lengthAdjust="spacing" textLength="45" x="623.5" y="212.3257">Router</text></g><!--entity Switch--><g id="elem_Switch"><polygon fill="#F1F1F1" points="32,653.4898,42,643.4898,116,643.4898,116,682.5577,106,692.5577,32,692.5577,32,653.4898" style="stroke:#181818;stroke-width:0.5;"/><line style="stroke:#181818;stroke-width:0.5;" x1="106" x2="116" y1="653.4898" y2="643.4898"/><line style="stroke:#181818;stroke-width:0.5;" x1="32" x2="106" y1="653.4898" y2="653.4898"/><line style="stroke:#181818;stroke-width:0.5;" x1="106" x2="106" y1="653.4898" y2="692.5577"/><text fill="#000000" font-family="sans-serif" font-size="14" lengthAdjust="spacing" textLength="44" x="47" y="678.4557">Switch</text></g><!--entity WiiU--><g id="elem_WiiU"><polygon fill="#F1F1F1" points="151.5,653.4898,161.5,643.4898,222.5,643.4898,222.5,682.5577,212.5,692.5577,151.5,692.5577,151.5,653.4898" style="stroke:#181818;stroke-width:0.5;"/><line style="stroke:#181818;stroke-width:0.5;" x1="212.5" x2="222.5" y1="653.4898" y2="643.4898"/><line style="stroke:#181818;stroke-width:0.5;" x1="151.5" x2="212.5" y1="653.4898" y2="653.4898"/><line style="stroke:#181818;stroke-width:0.5;" x1="212.5" x2="212.5" y1="653.4898" y2="692.5577"/><text fill="#000000" font-family="sans-serif" font-size="14" lengthAdjust="spacing" textLength="31" x="166.5" y="678.4557">WiiU</text></g><!--entity LogicPro--><g id="elem_LogicPro"><rect fill="#F1F1F1" height="49.0679" rx="2.5" ry="2.5" style="stroke:#181818;stroke-width:0.5;" width="97" x="453.5" y="643.4898"/><rect fill="#F1F1F1" height="10" style="stroke:#181818;stroke-width:0.5;" width="15" x="530.5" y="648.4898"/><rect fill="#F1F1F1" height="2" style="stroke:#181818;stroke-width:0.5;" width="4" x="528.5" y="650.4898"/><rect fill="#F1F1F1" height="2" style="stroke:#181818;stroke-width:0.5;" width="4" x="528.5" y="654.4898"/><text fill="#000000" font-family="sans-serif" font-size="14" lengthAdjust="spacing" textLength="57" x="468.5" y="678.4557">LogicPro</text></g><!--entity MainStage--><g id="elem_MainStage"><rect fill="#F1F1F1" height="49.0679" rx="2.5" ry="2.5" style="stroke:#181818;stroke-width:0.5;" width="112" x="306" y="643.4898"/><rect fill="#F1F1F1" height="10" style="stroke:#181818;stroke-width:0.5;" width="15" x="398" y="648.4898"/><rect fill="#F1F1F1" height="2" style="stroke:#181818;stroke-width:0.5;" width="4" x="396" y="650.4898"/><rect fill="#F1F1F1" height="2" style="stroke:#181818;stroke-width:0.5;" width="4" x="396" y="654.4898"/><text fill="#000000" font-family="sans-serif" font-size="14" lengthAdjust="spacing" textLength="72" x="321" y="678.4557">MainStage</text></g><!--entity Funci?n TV--><g id="elem_Funci&#243;n TV"><rect fill="#F1F1F1" height="49.0679" rx="2.5" ry="2.5" style="stroke:#181818;stroke-width:0.5;" width="113" x="1874.5" y="643.4898"/><rect fill="#F1F1F1" height="10" style="stroke:#181818;stroke-width:0.5;" width="15" x="1967.5" y="648.4898"/><rect fill="#F1F1F1" height="2" style="stroke:#181818;stroke-width:0.5;" width="4" x="1965.5" y="650.4898"/><rect fill="#F1F1F1" height="2" style="stroke:#181818;stroke-width:0.5;" width="4" x="1965.5" y="654.4898"/><text fill="#000000" font-family="sans-serif" font-size="14" lengthAdjust="spacing" textLength="73" x="1889.5" y="678.4557">Funci&#243;n TV</text></g><!--entity Funci?n Pantalla--><g id="elem_Funci&#243;n Pantalla"><rect fill="#F1F1F1" height="49.0679" rx="2.5" ry="2.5" style="stroke:#181818;stroke-width:0.5;" width="151" x="1688.5" y="643.4898"/><rect fill="#F1F1F1" height="10" style="stroke:#181818;stroke-width:0.5;" width="15" x="1819.5" y="648.4898"/><rect fill="#F1F1F1" height="2" style="stroke:#181818;stroke-width:0.5;" width="4" x="1817.5" y="650.4898"/><rect fill="#F1F1F1" height="2" style="stroke:#181818;stroke-width:0.5;" width="4" x="1817.5" y="654.4898"/><text fill="#000000" font-family="sans-serif" font-size="14" lengthAdjust="spacing" textLength="111" x="1703.5" y="678.4557">Funci&#243;n Pantalla</text></g><!--entity winFirefoxSDF1--><g id="elem_winFirefoxSDF1"><rect fill="#F1F1F1" height="49.0679" rx="2.5" ry="2.5" style="stroke:#181818;stroke-width:0.5;" width="85" x="1271.5" y="643.4898"/><rect fill="#F1F1F1" height="10" style="stroke:#181818;stroke-width:0.5;" width="15" x="1336.5" y="648.4898"/><rect fill="#F1F1F1" height="2" style="stroke:#181818;stroke-width:0.5;" width="4" x="1334.5" y="650.4898"/><rect fill="#F1F1F1" height="2" style="stroke:#181818;stroke-width:0.5;" width="4" x="1334.5" y="654.4898"/><text fill="#000000" font-family="sans-serif" font-size="14" lengthAdjust="spacing" textLength="45" x="1286.5" y="678.4557">Firefox</text></g><!--entity winVSCodeSDF1--><g id="elem_winVSCodeSDF1"><rect fill="#F1F1F1" height="49.0679" rx="2.5" ry="2.5" style="stroke:#181818;stroke-width:0.5;" width="165" x="1391.5" y="643.4898"/><rect fill="#F1F1F1" height="10" style="stroke:#181818;stroke-width:0.5;" width="15" x="1536.5" y="648.4898"/><rect fill="#F1F1F1" height="2" style="stroke:#181818;stroke-width:0.5;" width="4" x="1534.5" y="650.4898"/><rect fill="#F1F1F1" height="2" style="stroke:#181818;stroke-width:0.5;" width="4" x="1534.5" y="654.4898"/><text fill="#000000" font-family="sans-serif" font-size="14" lengthAdjust="spacing" textLength="125" x="1406.5" y="678.4557">Visual Studio Code</text></g><!--entity winJavaSDF1--><g id="elem_winJavaSDF1"><rect fill="#F1F1F1" height="49.0679" rx="2.5" ry="2.5" style="stroke:#181818;stroke-width:0.5;" width="67" x="1280.5" y="795.5598"/><rect fill="#F1F1F1" height="10" style="stroke:#181818;stroke-width:0.5;" width="15" x="1327.5" y="800.5598"/><rect fill="#F1F1F1" height="2" style="stroke:#181818;stroke-width:0.5;" width="4" x="1325.5" y="802.5598"/><rect fill="#F1F1F1" height="2" style="stroke:#181818;stroke-width:0.5;" width="4" x="1325.5" y="806.5598"/><text fill="#000000" font-family="sans-serif" font-size="14" lengthAdjust="spacing" textLength="27" x="1295.5" y="830.5257">Java</text></g><!--entity fedVSCodeSDF1--><g id="elem_fedVSCodeSDF1"><rect fill="#F1F1F1" height="49.0679" rx="2.5" ry="2.5" style="stroke:#181818;stroke-width:0.5;" width="165" x="796.5" y="643.4898"/><rect fill="#F1F1F1" height="10" style="stroke:#181818;stroke-width:0.5;" width="15" x="941.5" y="648.4898"/><rect fill="#F1F1F1" height="2" style="stroke:#181818;stroke-width:0.5;" width="4" x="939.5" y="650.4898"/><rect fill="#F1F1F1" height="2" style="stroke:#181818;stroke-width:0.5;" width="4" x="939.5" y="654.4898"/><text fill="#000000" font-family="sans-serif" font-size="14" lengthAdjust="spacing" textLength="125" x="811.5" y="678.4557">Visual Studio Code</text></g><!--entity fedJavaSDF1--><g id="elem_fedJavaSDF1"><rect fill="#F1F1F1" height="49.0679" rx="2.5" ry="2.5" style="stroke:#181818;stroke-width:0.5;" width="67" x="694.5" y="643.4898"/><rect fill="#F1F1F1" height="10" style="stroke:#181818;stroke-width:0.5;" width="15" x="741.5" y="648.4898"/><rect fill="#F1F1F1" height="2" style="stroke:#181818;stroke-width:0.5;" width="4" x="739.5" y="650.4898"/><rect fill="#F1F1F1" height="2" style="stroke:#181818;stroke-width:0.5;" width="4" x="739.5" y="654.4898"/><text fill="#000000" font-family="sans-serif" font-size="14" lengthAdjust="spacing" textLength="27" x="709.5" y="678.4557">Java</text></g><!--entity RemoveElement Plugin--><g id="elem_RemoveElement Plugin"><rect fill="#F1F1F1" height="49.0679" rx="2.5" ry="2.5" style="stroke:#181818;stroke-width:0.5;" width="195" x="996.5" y="643.4898"/><rect fill="#F1F1F1" height="10" style="stroke:#181818;stroke-width:0.5;" width="15" x="1171.5" y="648.4898"/><rect fill="#F1F1F1" height="2" style="stroke:#181818;stroke-width:0.5;" width="4" x="1169.5" y="650.4898"/><rect fill="#F1F1F1" height="2" style="stroke:#181818;stroke-width:0.5;" width="4" x="1169.5" y="654.4898"/><text fill="#000000" font-family="sans-serif" font-size="14" lengthAdjust="spacing" textLength="155" x="1011.5" y="678.4557">RemoveElement Plugin</text></g><!--entity firefoxDaedalus--><g id="elem_firefoxDaedalus"><rect fill="#F1F1F1" height="49.0679" rx="2.5" ry="2.5" style="stroke:#181818;stroke-width:0.5;" width="85" x="2107.5" y="378.4298"/><rect fill="#F1F1F1" height="10" style="stroke:#181818;stroke-width:0.5;" width="15" x="2172.5" y="383.4298"/><rect fill="#F1F1F1" height="2" style="stroke:#181818;stroke-width:0.5;" width="4" x="2170.5" y="385.4298"/><rect fill="#F1F1F1" height="2" style="stroke:#181818;stroke-width:0.5;" width="4" x="2170.5" y="389.4298"/><text fill="#000000" font-family="sans-serif" font-size="14" lengthAdjust="spacing" textLength="45" x="2122.5" y="413.3957">Firefox</text></g><!--entity vscodeDaedalus--><g id="elem_vscodeDaedalus"><rect fill="#F1F1F1" height="49.0679" rx="2.5" ry="2.5" style="stroke:#181818;stroke-width:0.5;" width="165" x="2227.5" y="378.4298"/><rect fill="#F1F1F1" height="10" style="stroke:#181818;stroke-width:0.5;" width="15" x="2372.5" y="383.4298"/><rect fill="#F1F1F1" height="2" style="stroke:#181818;stroke-width:0.5;" width="4" x="2370.5" y="385.4298"/><rect fill="#F1F1F1" height="2" style="stroke:#181818;stroke-width:0.5;" width="4" x="2370.5" y="389.4298"/><text fill="#000000" font-family="sans-serif" font-size="14" lengthAdjust="spacing" textLength="125" x="2242.5" y="413.3957">Visual Studio Code</text></g><!--entity javaDaedalus--><g id="elem_javaDaedalus"><rect fill="#F1F1F1" height="49.0679" rx="2.5" ry="2.5" style="stroke:#181818;stroke-width:0.5;" width="67" x="2116.5" y="643.4898"/><rect fill="#F1F1F1" height="10" style="stroke:#181818;stroke-width:0.5;" width="15" x="2163.5" y="648.4898"/><rect fill="#F1F1F1" height="2" style="stroke:#181818;stroke-width:0.5;" width="4" x="2161.5" y="650.4898"/><rect fill="#F1F1F1" height="2" style="stroke:#181818;stroke-width:0.5;" width="4" x="2161.5" y="654.4898"/><text fill="#000000" font-family="sans-serif" font-size="14" lengthAdjust="spacing" textLength="27" x="2131.5" y="678.4557">Java</text></g><!--entity winFirefoxPrometeus--><g id="elem_winFirefoxPrometeus"><rect fill="#F1F1F1" height="49.0679" rx="2.5" ry="2.5" style="stroke:#181818;stroke-width:0.5;" width="85" x="2879.5" y="643.4898"/><rect fill="#F1F1F1" height="10" style="stroke:#181818;stroke-width:0.5;" width="15" x="2944.5" y="648.4898"/><rect fill="#F1F1F1" height="2" style="stroke:#181818;stroke-width:0.5;" width="4" x="2942.5" y="650.4898"/><rect fill="#F1F1F1" height="2" style="stroke:#181818;stroke-width:0.5;" width="4" x="2942.5" y="654.4898"/><text fill="#000000" font-family="sans-serif" font-size="14" lengthAdjust="spacing" textLength="45" x="2894.5" y="678.4557">Firefox</text></g><!--entity winVSCodePrometeus--><g id="elem_winVSCodePrometeus"><rect fill="#F1F1F1" height="49.0679" rx="2.5" ry="2.5" style="stroke:#181818;stroke-width:0.5;" width="165" x="2999.5" y="643.4898"/><rect fill="#F1F1F1" height="10" style="stroke:#181818;stroke-width:0.5;" width="15" x="3144.5" y="648.4898"/><rect fill="#F1F1F1" height="2" style="stroke:#181818;stroke-width:0.5;" width="4" x="3142.5" y="650.4898"/><rect fill="#F1F1F1" height="2" style="stroke:#181818;stroke-width:0.5;" width="4" x="3142.5" y="654.4898"/><text fill="#000000" font-family="sans-serif" font-size="14" lengthAdjust="spacing" textLength="125" x="3014.5" y="678.4557">Visual Studio Code</text></g><!--entity winJavaPrometeus--><g id="elem_winJavaPrometeus"><rect fill="#F1F1F1" height="49.0679" rx="2.5" ry="2.5" style="stroke:#181818;stroke-width:0.5;" width="67" x="2888.5" y="795.5598"/><rect fill="#F1F1F1" height="10" style="stroke:#181818;stroke-width:0.5;" width="15" x="2935.5" y="800.5598"/><rect fill="#F1F1F1" height="2" style="stroke:#181818;stroke-width:0.5;" width="4" x="2933.5" y="802.5598"/><rect fill="#F1F1F1" height="2" style="stroke:#181818;stroke-width:0.5;" width="4" x="2933.5" y="806.5598"/><text fill="#000000" font-family="sans-serif" font-size="14" lengthAdjust="spacing" textLength="27" x="2903.5" y="830.5257">Java</text></g><!--entity ubuntuFirefoxPrometeus--><g id="elem_ubuntuFirefoxPrometeus"><rect fill="#F1F1F1" height="49.0679" rx="2.5" ry="2.5" style="stroke:#181818;stroke-width:0.5;" width="85" x="2537.5" y="643.4898"/><rect fill="#F1F1F1" height="10" style="stroke:#181818;stroke-width:0.5;" width="15" x="2602.5" y="648.4898"/><rect fill="#F1F1F1" height="2" style="stroke:#181818;stroke-width:0.5;" width="4" x="2600.5" y="650.4898"/><rect fill="#F1F1F1" height="2" style="stroke:#181818;stroke-width:0.5;" width="4" x="2600.5" y="654.4898"/><text fill="#000000" font-family="sans-serif" font-size="14" lengthAdjust="spacing" textLength="45" x="2552.5" y="678.4557">Firefox</text></g><!--entity ubuntuVSCodePrometeus--><g id="elem_ubuntuVSCodePrometeus"><rect fill="#F1F1F1" height="49.0679" rx="2.5" ry="2.5" style="stroke:#181818;stroke-width:0.5;" width="165" x="2657.5" y="643.4898"/><rect fill="#F1F1F1" height="10" style="stroke:#181818;stroke-width:0.5;" width="15" x="2802.5" y="648.4898"/><rect fill="#F1F1F1" height="2" style="stroke:#181818;stroke-width:0.5;" width="4" x="2800.5" y="650.4898"/><rect fill="#F1F1F1" height="2" style="stroke:#181818;stroke-width:0.5;" width="4" x="2800.5" y="654.4898"/><text fill="#000000" font-family="sans-serif" font-size="14" lengthAdjust="spacing" textLength="125" x="2672.5" y="678.4557">Visual Studio Code</text></g><!--entity ubuntuJavaPrometeus--><g id="elem_ubuntuJavaPrometeus"><rect fill="#F1F1F1" height="49.0679" rx="2.5" ry="2.5" style="stroke:#181818;stroke-width:0.5;" width="67" x="2546.5" y="795.5598"/><rect fill="#F1F1F1" height="10" style="stroke:#181818;stroke-width:0.5;" width="15" x="2593.5" y="800.5598"/><rect fill="#F1F1F1" height="2" style="stroke:#181818;stroke-width:0.5;" width="4" x="2591.5" y="802.5598"/><rect fill="#F1F1F1" height="2" style="stroke:#181818;stroke-width:0.5;" width="4" x="2591.5" y="806.5598"/><text fill="#000000" font-family="sans-serif" font-size="14" lengthAdjust="spacing" textLength="27" x="2561.5" y="830.5257">Java</text></g><!--link Movistar to router--><g id="link_Movistar_router"><path d="M646,95.7898 C646,121.8498 646,156.9698 646,180.8898 " fill="none" id="Movistar-to-router" style="stroke:#181818;stroke-width:1.0;"/><polygon fill="#181818" points="646,186.8898,650,177.8898,646,181.8898,642,177.8898,646,186.8898" style="stroke:#181818;stroke-width:1.0;"/></g><!--link router to tv--><g id="link_router_tv"><path d="M678.97,208.2398 C809.42,211.3298 1295.84,239.5098 1573,484.4898 C1605.665,513.3648 1625.555,558.0348 1637.3325,595.9573 C1640.2769,605.4379 1642.7142,614.4968 1644.7174,622.7818 C1644.78,623.0407 1643.4423,617.4644 1643.5041,617.7218 " fill="none" id="router-to-tv" style="stroke:#181818;stroke-width:1.0;"/><polygon fill="#181818" points="1644.9039,623.5562,1646.6938,613.8713,1643.7374,618.6942,1638.9145,615.7378,1644.9039,623.5562" style="stroke:#181818;stroke-width:1.0;"/></g><!--link router to sdf1--><g id="link_router_sdf1"><path d="M646,226.7498 C646,269.6098 646,378.2998 646,476.956 C646,483.122 646,489.2488 646,495.318 C646,496.8352 646,492.3489 646,493.8587 " fill="none" id="router-to-sdf1" style="stroke:#181818;stroke-width:1.0;stroke-dasharray:7.0,7.0;"/><polygon fill="#181818" points="646,499.8587,650,490.8587,646,494.8587,642,490.8587,646,499.8587" style="stroke:#181818;stroke-width:1.0;"/></g><!--link router to daedalus--><g id="link_router_daedalus"><path d="M678.84,207.9798 C886.04,208.6898 2005.03,214.8798 2055,265.4298 C2057.6256,268.086 2059.9433,270.9322 2061.981,273.9349 C2062.9999,275.4362 2063.9488,276.9766 2064.8311,278.5521 C2065.2723,279.3398 2062.9815,274.7858 2063.3899,275.5905 " fill="none" id="router-to-daedalus" style="stroke:#181818;stroke-width:1.0;"/><polygon fill="#181818" points="2066.1052,280.9409,2065.5991,271.105,2063.8424,276.4822,2058.4652,274.7255,2066.1052,280.9409" style="stroke:#181818;stroke-width:1.0;"/></g><!--link router to prometeus--><g id="link_router_prometeus"><path d="M678.63,207.8098 C913.64,207.3998 2340.43,207.2698 2409,265.4298 C2477.86,323.8248 2498.0875,423.1173 2500.9875,508.3585 C2501.35,519.0137 2501.4418,529.4493 2501.3239,539.558 C2501.3092,540.8216 2501.2912,542.0801 2501.27,543.3332 C2501.2594,543.9598 2501.3648,538.5862 2501.3527,539.2101 " fill="none" id="router-to-prometeus" style="stroke:#181818;stroke-width:1.0;stroke-dasharray:7.0,7.0;"/><polygon fill="#181818" points="2501.2359,545.209,2505.4103,536.2885,2501.3332,540.2099,2497.4118,536.1328,2501.2359,545.209" style="stroke:#181818;stroke-width:1.0;"/></g><!--link router to Switch--><g id="link_router_Switch"><path d="M613.22,208.4398 C526.24,210.5198 292.13,220.2698 232,265.4298 C105.44,360.4698 80.5784,566.1344 75.6084,637.2344 " fill="none" id="router-to-Switch" style="stroke:#181818;stroke-width:1.0;stroke-dasharray:7.0,7.0;"/><polygon fill="#181818" points="75.19,643.2198,79.8078,634.5206,75.5387,638.2319,71.8273,633.9627,75.19,643.2198" style="stroke:#181818;stroke-width:1.0;"/></g><!--link router to WiiU--><g id="link_router_WiiU"><path d="M613.21,210.7898 C546.01,217.2998 395.54,234.9298 355,265.4298 C227.56,361.2798 196.6695,565.9798 189.5295,637.0798 " fill="none" id="router-to-WiiU" style="stroke:#181818;stroke-width:1.0;stroke-dasharray:7.0,7.0;"/><polygon fill="#181818" points="188.93,643.0498,193.8093,634.4945,189.4296,638.0748,185.8493,633.6951,188.93,643.0498" style="stroke:#181818;stroke-width:1.0;"/></g><!--link router to Macbook--><g id="link_router_Macbook"><path d="M621.58,226.8198 C541.32,289.0398 290.68,483.3698 290,484.4898 C279.545,501.8548 272.2981,521.7279 267.3134,541.823 C267.0019,543.079 268.066,538.4936 267.7719,539.7507 " fill="none" id="router-to-Macbook" style="stroke:#181818;stroke-width:1.0;stroke-dasharray:7.0,7.0;"/><polygon fill="#181818" points="266.4051,545.5929,272.3501,537.7407,267.5441,540.7244,264.5604,535.9184,266.4051,545.5929" style="stroke:#181818;stroke-width:1.0;"/></g><!--link daedalus to tv--><g id="link_daedalus_tv"><path d="M2050.2349,432.2224 C2049.9188,432.528 2049.6029,432.8317 2049.2874,433.1334 C2048.6563,433.7367 2048.0265,434.3323 2047.3977,434.9202 C2044.8828,437.2718 2042.3864,439.5002 2039.906,441.6112 C2034.9452,445.8334 2030.0487,449.5865 2025.1978,452.9184 C2015.4961,459.5821 2005.9769,464.561 1996.4906,468.2379 C1977.5181,475.5916 1958.6775,477.7373 1938.7725,477.7373 C1898.9625,477.7373 1854.895,469.1548 1797,476.4898 C1783.3,478.2298 1682.98,474.9498 1673,484.4898 C1643.97,512.2548 1638.6725,556.9073 1640.7775,595.0985 C1641.3038,604.6463 1642.2927,613.7903 1643.4891,622.1656 C1643.7882,624.2595 1644.1002,626.3053 1644.4213,628.2973 C1644.5818,629.2933 1643.7397,624.3607 1643.9042,625.3291 " fill="none" id="daedalus-to-tv" style="stroke:#181818;stroke-width:1.0;"/><polygon fill="#181818" points="1644.9091,631.2444,1647.3453,621.7016,1644.0717,626.315,1639.4583,623.0414,1644.9091,631.2444" style="stroke:#181818;stroke-width:1.0;"/><text fill="#000000" font-family="sans-serif" font-size="13" lengthAdjust="spacing" textLength="35" x="2021" y="472.3868">HDMI</text></g><!--SRC=[dLHBJiCm4Dtx59PNiA0IMnP8g1y-eX0rK1OeYsdY5aDgeyHEaL0Emnau0XV3SUmqQL88T97EvutzNcOoOInKXCabbpJXL1ByZh3-FKv5nb89IO1oXBY8A2P3IC7bP-FXtTdD-VKOavbGkfPWI75YJ6GGfiRVC1a-uMtWWR7xhKUc42w4U375rhOND2_HkLk_bZ4KhyMAXLuYWcPu2epx4bPq6yzH-QpTxAyXaVXkRgwMMUtinudY8Vlwv3eRT4Gzu1BY60AqFRf-y6XoR0vDe-LnfnZom7WaDgb1RJHPNR6hRS8IkXHlWOLOjq0sSNEMAeYnBrN411vg1gvaxXTUk-8ACd2OmcuWyYww4ng910pRfJ4x2DVX9LU7hr7VgJ5qPdGjCZgEwPfoYRrOhHXlDZJlfLZVzAjYZTcZkDN54T08ObNsAB9ETpTRhsVKXhTwkYnj1-qbCKj3RNQNL1gVjT62x16flvqrbLGpFV148hy-98iFZP3NAjDdWBqEz0zJNC7_DifxodRdkGth7EhxXU9I6GNAcBr4bD1_wIXB-qafiJ-foOkrx7OqFZewjRiN8_jVXFHQS-vWC3Wr6wcUTtFT05MjRqJT8g_7YbtUZDWLZgeFnh8umGHVZAQN127q3G00]--></g></svg>