<svg xmlns="http://www.w3.org/2000/svg" xmlns:xlink="http://www.w3.org/1999/xlink" contentStyleType="text/css" height="922px" preserveAspectRatio="none" style="width:2261px;height:922px;background:#FFFFFF;" version="1.1" viewBox="0 0 2261 922" width="2261px" zoomAndPan="magnify"><defs/><g><rect fill="#F1F1F1" height="36.2969" rx="12.5" ry="12.5" style="stroke:#181818;stroke-width:1.5;" width="46.9131" x="1094.7949" y="442.2266"/><text fill="#000000" font-family="sans-serif" font-size="14" font-weight="bold" lengthAdjust="spacing" textLength="26.9131" x="1104.7949" y="465.2217">DSI</text><rect fill="#F1F1F1" height="36.2969" rx="12.5" ry="12.5" style="stroke:#181818;stroke-width:1.5;" width="252.9893" x="1191.708" y="301.4844"/><text fill="#000000" font-family="sans-serif" font-size="14" lengthAdjust="spacing" textLength="232.9893" x="1201.708" y="324.4795">Modelos de negocio e innovaci&#243;n</text><rect fill="#F1F1F1" height="36.2969" rx="12.5" ry="12.5" style="stroke:#181818;stroke-width:1.5;" width="138.5078" x="1494.6973" y="76.2969"/><text fill="#000000" font-family="sans-serif" font-size="14" lengthAdjust="spacing" textLength="118.5078" x="1504.6973" y="99.292">Econom&#237;a Digital</text><path d="M1444.6973,319.6328 L1454.6973,319.6328 C1469.6973,319.6328 1469.6973,94.4453 1484.6973,94.4453 L1494.6973,94.4453 " fill="none" style="stroke:#181818;stroke-width:1.0;"/><rect fill="#F1F1F1" height="36.2969" rx="12.5" ry="12.5" style="stroke:#181818;stroke-width:1.5;" width="260.4678" x="1494.6973" y="132.5938"/><text fill="#000000" font-family="sans-serif" font-size="14" lengthAdjust="spacing" textLength="240.4678" x="1504.6973" y="155.5889">Herramientas y marcos de trabajo</text><rect fill="#F1F1F1" height="36.2969" rx="12.5" ry="12.5" style="stroke:#181818;stroke-width:1.5;" width="238.415" x="1805.165" y="48.1484"/><text fill="#000000" font-family="sans-serif" font-size="14" lengthAdjust="spacing" textLength="218.415" x="1815.165" y="71.1436">El lienzo de modelo de negocio</text><path d="M1755.165,150.7422 L1765.165,150.7422 C1780.165,150.7422 1780.165,66.2969 1795.165,66.2969 L1805.165,66.2969 " fill="none" style="stroke:#181818;stroke-width:1.0;"/><rect fill="#F1F1F1" height="36.2969" rx="12.5" ry="12.5" style="stroke:#181818;stroke-width:1.5;" width="59.4297" x="1805.165" y="104.4453"/><text fill="#000000" font-family="sans-serif" font-size="14" lengthAdjust="spacing" textLength="39.4297" x="1815.165" y="127.4404">DAFO</text><path d="M1755.165,150.7422 L1765.165,150.7422 C1780.165,150.7422 1780.165,122.5938 1795.165,122.5938 L1805.165,122.5938 " fill="none" style="stroke:#181818;stroke-width:1.0;"/><rect fill="#F1F1F1" height="36.2969" rx="12.5" ry="12.5" style="stroke:#181818;stroke-width:1.5;" width="183.666" x="1805.165" y="160.7422"/><text fill="#000000" font-family="sans-serif" font-size="14" lengthAdjust="spacing" textLength="163.666" x="1815.165" y="183.7373">Cinco fuerzas de Porter</text><path d="M1755.165,150.7422 L1765.165,150.7422 C1780.165,150.7422 1780.165,178.8906 1795.165,178.8906 L1805.165,178.8906 " fill="none" style="stroke:#181818;stroke-width:1.0;"/><rect fill="#F1F1F1" height="36.2969" rx="12.5" ry="12.5" style="stroke:#181818;stroke-width:1.5;" width="190.249" x="1805.165" y="217.0391"/><text fill="#000000" font-family="sans-serif" font-size="14" lengthAdjust="spacing" textLength="170.249" x="1815.165" y="240.0342">Otros marcos de trabajo</text><path d="M1755.165,150.7422 L1765.165,150.7422 C1780.165,150.7422 1780.165,235.1875 1795.165,235.1875 L1805.165,235.1875 " fill="none" style="stroke:#181818;stroke-width:1.0;"/><path d="M1444.6973,319.6328 L1454.6973,319.6328 C1469.6973,319.6328 1469.6973,150.7422 1484.6973,150.7422 L1494.6973,150.7422 " fill="none" style="stroke:#181818;stroke-width:1.0;"/><rect fill="#F1F1F1" height="36.2969" rx="12.5" ry="12.5" style="stroke:#181818;stroke-width:1.5;" width="96.3301" x="1494.6973" y="414.0781"/><text fill="#000000" font-family="sans-serif" font-size="14" lengthAdjust="spacing" textLength="76.3301" x="1504.6973" y="437.0732">Innovaci&#243;n</text><rect fill="#F1F1F1" height="36.2969" rx="12.5" ry="12.5" style="stroke:#181818;stroke-width:1.5;" width="159.6787" x="1641.0273" y="273.3359"/><text fill="#000000" font-family="sans-serif" font-size="14" lengthAdjust="spacing" textLength="139.6787" x="1651.0273" y="296.3311">Tipos de innovaci&#243;n</text><path d="M1591.0273,432.2266 L1601.0273,432.2266 C1616.0273,432.2266 1616.0273,291.4844 1631.0273,291.4844 L1641.0273,291.4844 " fill="none" style="stroke:#181818;stroke-width:1.0;"/><rect fill="#F1F1F1" height="36.2969" rx="12.5" ry="12.5" style="stroke:#181818;stroke-width:1.5;" width="199.0742" x="1641.0273" y="329.6328"/><text fill="#000000" font-family="sans-serif" font-size="14" lengthAdjust="spacing" textLength="179.0742" x="1651.0273" y="352.6279">Innovaci&#243;n como proceso</text><path d="M1591.0273,432.2266 L1601.0273,432.2266 C1616.0273,432.2266 1616.0273,347.7813 1631.0273,347.7813 L1641.0273,347.7813 " fill="none" style="stroke:#181818;stroke-width:1.0;"/><rect fill="#F1F1F1" height="36.2969" rx="12.5" ry="12.5" style="stroke:#181818;stroke-width:1.5;" width="178.4023" x="1641.0273" y="470.375"/><text fill="#000000" font-family="sans-serif" font-size="14" lengthAdjust="spacing" textLength="158.4023" x="1651.0273" y="493.3701">Enfoques para innovar</text><rect fill="#F1F1F1" height="36.2969" rx="12.5" ry="12.5" style="stroke:#181818;stroke-width:1.5;" width="107.4863" x="1869.4297" y="385.9297"/><text fill="#000000" font-family="sans-serif" font-size="14" lengthAdjust="spacing" textLength="87.4863" x="1879.4297" y="408.9248">Oc&#233;ano Azul</text><path d="M1819.4297,488.5234 L1829.4297,488.5234 C1844.4297,488.5234 1844.4297,404.0781 1859.4297,404.0781 L1869.4297,404.0781 " fill="none" style="stroke:#181818;stroke-width:1.0;"/><rect fill="#F1F1F1" height="36.2969" rx="12.5" ry="12.5" style="stroke:#181818;stroke-width:1.5;" width="281.6729" x="1869.4297" y="442.2266"/><text fill="#000000" font-family="sans-serif" font-size="14" lengthAdjust="spacing" textLength="261.6729" x="1879.4297" y="465.2217">Innovaci&#243;n abierta (Open innovation)</text><path d="M1819.4297,488.5234 L1829.4297,488.5234 C1844.4297,488.5234 1844.4297,460.375 1859.4297,460.375 L1869.4297,460.375 " fill="none" style="stroke:#181818;stroke-width:1.0;"/><rect fill="#F1F1F1" height="36.2969" rx="12.5" ry="12.5" style="stroke:#181818;stroke-width:1.5;" width="380.2061" x="1869.4297" y="498.5234"/><text fill="#000000" font-family="sans-serif" font-size="14" lengthAdjust="spacing" textLength="360.2061" x="1879.4297" y="521.5186">Teor&#237;a de los trabajos por realizar (Jobs to be done)</text><path d="M1819.4297,488.5234 L1829.4297,488.5234 C1844.4297,488.5234 1844.4297,516.6719 1859.4297,516.6719 L1869.4297,516.6719 " fill="none" style="stroke:#181818;stroke-width:1.0;"/><rect fill="#F1F1F1" height="36.2969" rx="12.5" ry="12.5" style="stroke:#181818;stroke-width:1.5;" width="206.915" x="1869.4297" y="554.8203"/><text fill="#000000" font-family="sans-serif" font-size="14" lengthAdjust="spacing" textLength="186.915" x="1879.4297" y="577.8154">Innovaci&#243;n de plataformas</text><path d="M1819.4297,488.5234 L1829.4297,488.5234 C1844.4297,488.5234 1844.4297,572.9688 1859.4297,572.9688 L1869.4297,572.9688 " fill="none" style="stroke:#181818;stroke-width:1.0;"/><path d="M1591.0273,432.2266 L1601.0273,432.2266 C1616.0273,432.2266 1616.0273,488.5234 1631.0273,488.5234 L1641.0273,488.5234 " fill="none" style="stroke:#181818;stroke-width:1.0;"/><path d="M1444.6973,319.6328 L1454.6973,319.6328 C1469.6973,319.6328 1469.6973,432.2266 1484.6973,432.2266 L1494.6973,432.2266 " fill="none" style="stroke:#181818;stroke-width:1.0;"/><path d="M1141.708,460.375 L1151.708,460.375 C1166.708,460.375 1166.708,319.6328 1181.708,319.6328 L1191.708,319.6328 " fill="none" style="stroke:#181818;stroke-width:1.0;"/><rect fill="#F1F1F1" height="36.2969" rx="12.5" ry="12.5" style="stroke:#181818;stroke-width:1.5;" width="157.8467" x="1191.708" y="723.7109"/><text fill="#000000" font-family="sans-serif" font-size="14" lengthAdjust="spacing" textLength="137.8467" x="1201.708" y="746.7061">Funciones de la DSI</text><rect fill="#F1F1F1" height="36.2969" rx="12.5" ry="12.5" style="stroke:#181818;stroke-width:1.5;" width="285.4258" x="1399.5547" y="611.1172"/><text fill="#000000" font-family="sans-serif" font-size="14" lengthAdjust="spacing" textLength="265.4258" x="1409.5547" y="634.1123">Definici&#243;n de SI en las organizaciones</text><path d="M1349.5547,741.8594 L1359.5547,741.8594 C1374.5547,741.8594 1374.5547,629.2656 1389.5547,629.2656 L1399.5547,629.2656 " fill="none" style="stroke:#181818;stroke-width:1.0;"/><rect fill="#F1F1F1" height="36.2969" rx="12.5" ry="12.5" style="stroke:#181818;stroke-width:1.5;" width="151.9678" x="1399.5547" y="667.4141"/><text fill="#000000" font-family="sans-serif" font-size="14" lengthAdjust="spacing" textLength="131.9678" x="1409.5547" y="690.4092">Evoluci&#243;n hist&#243;rica</text><path d="M1349.5547,741.8594 L1359.5547,741.8594 C1374.5547,741.8594 1374.5547,685.5625 1389.5547,685.5625 L1399.5547,685.5625 " fill="none" style="stroke:#181818;stroke-width:1.0;"/><rect fill="#F1F1F1" height="36.2969" rx="12.5" ry="12.5" style="stroke:#181818;stroke-width:1.5;" width="117.1865" x="1399.5547" y="723.7109"/><text fill="#000000" font-family="sans-serif" font-size="14" lengthAdjust="spacing" textLength="97.1865" x="1409.5547" y="746.7061">Componentes</text><path d="M1349.5547,741.8594 L1359.5547,741.8594 C1374.5547,741.8594 1374.5547,741.8594 1389.5547,741.8594 L1399.5547,741.8594 " fill="none" style="stroke:#181818;stroke-width:1.0;"/><rect fill="#F1F1F1" height="36.2969" rx="12.5" ry="12.5" style="stroke:#181818;stroke-width:1.5;" width="269.5186" x="1399.5547" y="780.0078"/><text fill="#000000" font-family="sans-serif" font-size="14" lengthAdjust="spacing" textLength="249.5186" x="1409.5547" y="803.0029">Personas: &#191;c&#243;mo nos organizamos?</text><rect fill="#F1F1F1" height="36.2969" rx="12.5" ry="12.5" style="stroke:#181818;stroke-width:1.5;" width="90.7314" x="1719.0732" y="751.8594"/><text fill="#000000" font-family="sans-serif" font-size="14" lengthAdjust="spacing" textLength="70.7314" x="1729.0732" y="774.8545">Funciones</text><path d="M1669.0732,798.1563 L1679.0732,798.1563 C1694.0732,798.1563 1694.0732,770.0078 1709.0732,770.0078 L1719.0732,770.0078 " fill="none" style="stroke:#181818;stroke-width:1.0;"/><rect fill="#F1F1F1" height="36.2969" rx="12.5" ry="12.5" style="stroke:#181818;stroke-width:1.5;" width="116.4346" x="1719.0732" y="808.1563"/><text fill="#000000" font-family="sans-serif" font-size="14" lengthAdjust="spacing" textLength="96.4346" x="1729.0732" y="831.1514">Conocimiento</text><path d="M1669.0732,798.1563 L1679.0732,798.1563 C1694.0732,798.1563 1694.0732,826.3047 1709.0732,826.3047 L1719.0732,826.3047 " fill="none" style="stroke:#181818;stroke-width:1.0;"/><path d="M1349.5547,741.8594 L1359.5547,741.8594 C1374.5547,741.8594 1374.5547,798.1563 1389.5547,798.1563 L1399.5547,798.1563 " fill="none" style="stroke:#181818;stroke-width:1.0;"/><rect fill="#F1F1F1" height="36.2969" rx="12.5" ry="12.5" style="stroke:#181818;stroke-width:1.5;" width="168.2031" x="1399.5547" y="836.3047"/><text fill="#000000" font-family="sans-serif" font-size="14" lengthAdjust="spacing" textLength="148.2031" x="1409.5547" y="859.2998">Actividades de la DSI</text><path d="M1349.5547,741.8594 L1359.5547,741.8594 C1374.5547,741.8594 1374.5547,854.4531 1389.5547,854.4531 L1399.5547,854.4531 " fill="none" style="stroke:#181818;stroke-width:1.0;"/><path d="M1141.708,460.375 L1151.708,460.375 C1166.708,460.375 1166.708,741.8594 1181.708,741.8594 L1191.708,741.8594 " fill="none" style="stroke:#181818;stroke-width:1.0;"/><rect fill="#F1F1F1" height="36.2969" rx="12.5" ry="12.5" style="stroke:#181818;stroke-width:1.5;" width="260.4609" x="784.334" y="160.7422"/><text fill="#000000" font-family="sans-serif" font-size="14" lengthAdjust="spacing" textLength="240.4609" x="794.334" y="183.7373">Estrategia y planificaci&#243;n de los SI</text><rect fill="#F1F1F1" height="36.2969" rx="12.5" ry="12.5" style="stroke:#181818;stroke-width:1.5;" width="177.5068" x="556.8271" y="20"/><text fill="#000000" font-family="sans-serif" font-size="14" lengthAdjust="spacing" textLength="157.5068" x="566.8271" y="42.9951">Transformaci&#243;n digital</text><path d="M784.334,178.8906 L774.334,178.8906 C759.334,178.8906 759.334,38.1484 744.334,38.1484 L734.334,38.1484 " fill="none" style="stroke:#181818;stroke-width:1.0;"/><rect fill="#F1F1F1" height="36.2969" rx="12.5" ry="12.5" style="stroke:#181818;stroke-width:1.5;" width="67.6738" x="666.6602" y="76.2969"/><text fill="#000000" font-family="sans-serif" font-size="14" lengthAdjust="spacing" textLength="47.6738" x="676.6602" y="99.292">Etapas</text><path d="M784.334,178.8906 L774.334,178.8906 C759.334,178.8906 759.334,94.4453 744.334,94.4453 L734.334,94.4453 " fill="none" style="stroke:#181818;stroke-width:1.0;"/><rect fill="#F1F1F1" height="36.2969" rx="12.5" ry="12.5" style="stroke:#181818;stroke-width:1.5;" width="171.0879" x="563.2461" y="132.5938"/><text fill="#000000" font-family="sans-serif" font-size="14" lengthAdjust="spacing" textLength="151.0879" x="573.2461" y="155.5889">Planificaci&#243;n de las TI</text><path d="M784.334,178.8906 L774.334,178.8906 C759.334,178.8906 759.334,150.7422 744.334,150.7422 L734.334,150.7422 " fill="none" style="stroke:#181818;stroke-width:1.0;"/><rect fill="#F1F1F1" height="36.2969" rx="12.5" ry="12.5" style="stroke:#181818;stroke-width:1.5;" width="306.6377" x="427.6963" y="188.8906"/><text fill="#000000" font-family="sans-serif" font-size="14" lengthAdjust="spacing" textLength="286.6377" x="437.6963" y="211.8857">Frameworks de arquitectura empresarial</text><path d="M784.334,178.8906 L774.334,178.8906 C759.334,178.8906 759.334,207.0391 744.334,207.0391 L734.334,207.0391 " fill="none" style="stroke:#181818;stroke-width:1.0;"/><rect fill="#F1F1F1" height="36.2969" rx="12.5" ry="12.5" style="stroke:#181818;stroke-width:1.5;" width="185.1289" x="549.2051" y="245.1875"/><text fill="#000000" font-family="sans-serif" font-size="14" lengthAdjust="spacing" textLength="165.1289" x="559.2051" y="268.1826">El capital humano de TI</text><path d="M784.334,178.8906 L774.334,178.8906 C759.334,178.8906 759.334,263.3359 744.334,263.3359 L734.334,263.3359 " fill="none" style="stroke:#181818;stroke-width:1.0;"/><rect fill="#F1F1F1" height="36.2969" rx="12.5" ry="12.5" style="stroke:#181818;stroke-width:1.5;" width="126.5859" x="607.748" y="301.4844"/><text fill="#000000" font-family="sans-serif" font-size="14" lengthAdjust="spacing" textLength="106.5859" x="617.748" y="324.4795">Ciberseguridad</text><path d="M784.334,178.8906 L774.334,178.8906 C759.334,178.8906 759.334,319.6328 744.334,319.6328 L734.334,319.6328 " fill="none" style="stroke:#181818;stroke-width:1.0;"/><path d="M1094.7949,460.375 L1084.7949,460.375 C1069.7949,460.375 1069.7949,178.8906 1054.7949,178.8906 L1044.7949,178.8906 " fill="none" style="stroke:#181818;stroke-width:1.0;"/><rect fill="#F1F1F1" height="36.2969" rx="12.5" ry="12.5" style="stroke:#181818;stroke-width:1.5;" width="363.1299" x="681.665" y="611.1172"/><text fill="#000000" font-family="sans-serif" font-size="14" lengthAdjust="spacing" textLength="343.1299" x="691.665" y="634.1123">Gesti&#243;n de proyectos de integraci&#243;n de sistemas</text><rect fill="#F1F1F1" height="36.2969" rx="12.5" ry="12.5" style="stroke:#181818;stroke-width:1.5;" width="115.6074" x="516.0576" y="442.2266"/><text fill="#000000" font-family="sans-serif" font-size="14" lengthAdjust="spacing" textLength="95.6074" x="526.0576" y="465.2217">Herramientas</text><rect fill="#F1F1F1" height="36.2969" rx="12.5" ry="12.5" style="stroke:#181818;stroke-width:1.5;" width="215.4941" x="250.5635" y="357.7813"/><text fill="#000000" font-family="sans-serif" font-size="14" lengthAdjust="spacing" textLength="195.4941" x="260.5635" y="380.7764">Lenguajes de programaci&#243;n</text><path d="M516.0576,460.375 L506.0576,460.375 C491.0576,460.375 491.0576,375.9297 476.0576,375.9297 L466.0576,375.9297 " fill="none" style="stroke:#181818;stroke-width:1.0;"/><rect fill="#F1F1F1" height="36.2969" rx="12.5" ry="12.5" style="stroke:#181818;stroke-width:1.5;" width="77.8525" x="388.2051" y="414.0781"/><text fill="#000000" font-family="sans-serif" font-size="14" lengthAdjust="spacing" textLength="57.8525" x="398.2051" y="437.0732">No-code</text><path d="M516.0576,460.375 L506.0576,460.375 C491.0576,460.375 491.0576,432.2266 476.0576,432.2266 L466.0576,432.2266 " fill="none" style="stroke:#181818;stroke-width:1.0;"/><rect fill="#F1F1F1" height="36.2969" rx="12.5" ry="12.5" style="stroke:#181818;stroke-width:1.5;" width="209.499" x="256.5586" y="470.375"/><text fill="#000000" font-family="sans-serif" font-size="14" lengthAdjust="spacing" textLength="189.499" x="266.5586" y="493.3701">Metodolog&#237;as de desarrollo</text><rect fill="#F1F1F1" height="36.2969" rx="12.5" ry="12.5" style="stroke:#181818;stroke-width:1.5;" width="196.5586" x="10" y="470.375"/><text fill="#000000" font-family="sans-serif" font-size="14" lengthAdjust="spacing" textLength="176.5586" x="20" y="493.3701">Tipolog&#237;a de aplicaciones</text><path d="M256.5586,488.5234 L246.5586,488.5234 C231.5586,488.5234 231.5586,488.5234 216.5586,488.5234 L206.5586,488.5234 " fill="none" style="stroke:#181818;stroke-width:1.0;"/><path d="M516.0576,460.375 L506.0576,460.375 C491.0576,460.375 491.0576,488.5234 476.0576,488.5234 L466.0576,488.5234 " fill="none" style="stroke:#181818;stroke-width:1.0;"/><rect fill="#F1F1F1" height="36.2969" rx="12.5" ry="12.5" style="stroke:#181818;stroke-width:1.5;" width="115.1494" x="350.9082" y="526.6719"/><text fill="#000000" font-family="sans-serif" font-size="14" lengthAdjust="spacing" textLength="95.1494" x="360.9082" y="549.667">Sistemas ERP</text><path d="M516.0576,460.375 L506.0576,460.375 C491.0576,460.375 491.0576,544.8203 476.0576,544.8203 L466.0576,544.8203 " fill="none" style="stroke:#181818;stroke-width:1.0;"/><path d="M681.665,629.2656 L671.665,629.2656 C656.665,629.2656 656.665,460.375 641.665,460.375 L631.665,460.375 " fill="none" style="stroke:#181818;stroke-width:1.0;"/><rect fill="#F1F1F1" height="36.2969" rx="12.5" ry="12.5" style="stroke:#181818;stroke-width:1.5;" width="68.0156" x="563.6494" y="611.1172"/><text fill="#000000" font-family="sans-serif" font-size="14" lengthAdjust="spacing" textLength="48.0156" x="573.6494" y="634.1123">Dise&#241;o</text><rect fill="#F1F1F1" height="36.2969" rx="12.5" ry="12.5" style="stroke:#181818;stroke-width:1.5;" width="92.5225" x="421.127" y="582.9688"/><text fill="#000000" font-family="sans-serif" font-size="14" lengthAdjust="spacing" textLength="72.5225" x="431.127" y="605.9639">Requisitos</text><path d="M563.6494,629.2656 L553.6494,629.2656 C538.6494,629.2656 538.6494,601.1172 523.6494,601.1172 L513.6494,601.1172 " fill="none" style="stroke:#181818;stroke-width:1.0;"/><rect fill="#F1F1F1" height="36.2969" rx="12.5" ry="12.5" style="stroke:#181818;stroke-width:1.5;" width="107.4795" x="406.1699" y="639.2656"/><text fill="#000000" font-family="sans-serif" font-size="14" lengthAdjust="spacing" textLength="87.4795" x="416.1699" y="662.2607">Arquitectura</text><path d="M563.6494,629.2656 L553.6494,629.2656 C538.6494,629.2656 538.6494,657.4141 523.6494,657.4141 L513.6494,657.4141 " fill="none" style="stroke:#181818;stroke-width:1.0;"/><path d="M681.665,629.2656 L671.665,629.2656 C656.665,629.2656 656.665,629.2656 641.665,629.2656 L631.665,629.2656 " fill="none" style="stroke:#181818;stroke-width:1.0;"/><rect fill="#F1F1F1" height="36.2969" rx="12.5" ry="12.5" style="stroke:#181818;stroke-width:1.5;" width="111.0889" x="520.5762" y="723.7109"/><text fill="#000000" font-family="sans-serif" font-size="14" lengthAdjust="spacing" textLength="91.0889" x="530.5762" y="746.7061">Implantaci&#243;n</text><rect fill="#F1F1F1" height="36.2969" rx="12.5" ry="12.5" style="stroke:#181818;stroke-width:1.5;" width="155.1191" x="315.457" y="695.5625"/><text fill="#000000" font-family="sans-serif" font-size="14" lengthAdjust="spacing" textLength="135.1191" x="325.457" y="718.5576">Gesti&#243;n del cambio</text><path d="M520.5762,741.8594 L510.5762,741.8594 C495.5762,741.8594 495.5762,713.7109 480.5762,713.7109 L470.5762,713.7109 " fill="none" style="stroke:#181818;stroke-width:1.0;"/><rect fill="#F1F1F1" height="36.2969" rx="12.5" ry="12.5" style="stroke:#181818;stroke-width:1.5;" width="324.1172" x="146.459" y="751.8594"/><text fill="#000000" font-family="sans-serif" font-size="14" lengthAdjust="spacing" textLength="304.1172" x="156.459" y="774.8545">Gesti&#243;n de seguridad e integridad de datos</text><path d="M520.5762,741.8594 L510.5762,741.8594 C495.5762,741.8594 495.5762,770.0078 480.5762,770.0078 L470.5762,770.0078 " fill="none" style="stroke:#181818;stroke-width:1.0;"/><path d="M681.665,629.2656 L671.665,629.2656 C656.665,629.2656 656.665,741.8594 641.665,741.8594 L631.665,741.8594 " fill="none" style="stroke:#181818;stroke-width:1.0;"/><rect fill="#F1F1F1" height="36.2969" rx="12.5" ry="12.5" style="stroke:#181818;stroke-width:1.5;" width="93.9717" x="537.6934" y="836.3047"/><text fill="#000000" font-family="sans-serif" font-size="14" lengthAdjust="spacing" textLength="73.9717" x="547.6934" y="859.2998">Valoraci&#243;n</text><rect fill="#F1F1F1" height="36.2969" rx="12.5" ry="12.5" style="stroke:#181818;stroke-width:1.5;" width="101.1699" x="386.5234" y="808.1563"/><text fill="#000000" font-family="sans-serif" font-size="14" lengthAdjust="spacing" textLength="81.1699" x="396.5234" y="831.1514">Indicadores</text><path d="M537.6934,854.4531 L527.6934,854.4531 C512.6934,854.4531 512.6934,826.3047 497.6934,826.3047 L487.6934,826.3047 " fill="none" style="stroke:#181818;stroke-width:1.0;"/><rect fill="#F1F1F1" height="36.2969" rx="12.5" ry="12.5" style="stroke:#181818;stroke-width:1.5;" width="150.2725" x="337.4209" y="864.4531"/><text fill="#000000" font-family="sans-serif" font-size="14" lengthAdjust="spacing" textLength="130.2725" x="347.4209" y="887.4482">Gesti&#243;n de riesgos</text><path d="M537.6934,854.4531 L527.6934,854.4531 C512.6934,854.4531 512.6934,882.6016 497.6934,882.6016 L487.6934,882.6016 " fill="none" style="stroke:#181818;stroke-width:1.0;"/><path d="M681.665,629.2656 L671.665,629.2656 C656.665,629.2656 656.665,854.4531 641.665,854.4531 L631.665,854.4531 " fill="none" style="stroke:#181818;stroke-width:1.0;"/><path d="M1094.7949,460.375 L1084.7949,460.375 C1069.7949,460.375 1069.7949,629.2656 1054.7949,629.2656 L1044.7949,629.2656 " fill="none" style="stroke:#181818;stroke-width:1.0;"/><!--SRC=[RLJ1Sjis4BtpA_PeZqQfateygIQJnfNiLAfLQop5zoK9CKW1BBC0bR7_g8SUElw0pbG_rWL0oagJ6u5z-_RjsmNV-O0Sh7QrnROeHl2cV3jRpz_yKBujHYDOKgqCUQWLEDLGfGaKQETeXvNUFpd1ZE2g8aTs_nV2J3Swe4ctlofcj5gvW1uUm29NcIWmblY98aXo3HZ1F5ACs5Jjg5Z6p2wlR_FNLBkAODifViJ4jI8EYdFmDh0K-6uTc7yjUGGRtMQK_d_a20eLMOAMgL9-qEkszBbJ7bfax9DpVH5GxVz4Ht3vs9d-wfWCIwqu89pSjihrgK6JE-sn6qKSJHHHqV9UlbGY1bPez2Cod2oeb1X1gQ0cfqw_KqW8MeC1jyGMVHpZTUV4JQTInqRcj9udMsPggvq-PAtd8CgCM4lSe9E2EIjFUKUcoz2FseVz4-iAKsHAjXMO2profTYJGp-1V_-fzazYeQDdIal-v-pbGLK_NDcYIgUDoKExh8BUwHhhhtMFuSgBEK4r6cMnf5MdjwBbq4PqBm77i65qFldGHuS5bTXLm3RQ8v-hRpd4X4tck9OrLb-8_qWga3ztEgWgT39_PLjM7baFb0OgR6C5-DZPk0kIqTDCTIc-gARZs59iuxtouJ0mfWSX7NPIckDdCLxyLhRNUlokuiKORfHhEloKNH8YIRN3HiVuxpIkv6Nbmr85gibG8wkM4khO09Cnb03Zz3HoFFNRckHBdbEChtirS7MtIefcsglztpaTxfJuuxLqai-NHtubzDp6YOLZWKT6H0DjgUcR01oiWy6WT8WTO5yDxj4G7pFFNItgQ-91_34ZQ-KRoIpUAVdz3R_0k0lXm_86TZ8kQHjUldXrzkhynSN96WCiEWDd5t3sq-Jb-UJ7r_1XCuKOFYrEtgzkm5F7bIWIYrYNNNxU2zmXt7KkQAic45__OlRRS25_b9rcSbO6MYpkby-0Y_FnBph0Mh4eWVjb8QyLEnCaGyQfNJEHwjVZryKDnlatmgrSCINXvGU9hVy3]--></g></svg>