<?xml version="1.0" encoding="us-ascii" standalone="no"?><svg xmlns="http://www.w3.org/2000/svg" xmlns:xlink="http://www.w3.org/1999/xlink" contentStyleType="text/css" height="1085px" preserveAspectRatio="none" style="width:1784px;height:1085px;background:#FFFFFF;" version="1.1" viewBox="0 0 1784 1085" width="1784px" zoomAndPan="magnify"><defs/><g><rect fill="#F1F1F1" height="39.0679" rx="12.5" ry="12.5" style="stroke:#181818;stroke-width:1.5;" width="43" x="655" y="522.0773"/><text fill="#000000" font-family="sans-serif" font-size="14" font-weight="bold" lengthAdjust="spacing" textLength="23" x="665" y="547.0432">DSI</text><rect fill="#F1F1F1" height="39.0679" rx="12.5" ry="12.5" style="stroke:#181818;stroke-width:1.5;" width="244" x="748" y="374.4075"/><text fill="#000000" font-family="sans-serif" font-size="14" lengthAdjust="spacing" textLength="224" x="758" y="399.3734">Modelos de negocio e innovaci&#243;n</text><rect fill="#F1F1F1" height="39.0679" rx="12.5" ry="12.5" style="stroke:#181818;stroke-width:1.5;" width="133" x="1042" y="138.1358"/><text fill="#000000" font-family="sans-serif" font-size="14" lengthAdjust="spacing" textLength="113" x="1052" y="163.1018">Econom&#237;a Digital</text><path d="M992,393.9415 L1002,393.9415 C1017,393.9415 1017,157.6698 1032,157.6698 L1042,157.6698 " fill="none" style="stroke:#181818;stroke-width:1.0;"/><rect fill="#F1F1F1" height="39.0679" rx="12.5" ry="12.5" style="stroke:#181818;stroke-width:1.5;" width="249" x="1042" y="197.2038"/><text fill="#000000" font-family="sans-serif" font-size="14" lengthAdjust="spacing" textLength="229" x="1052" y="222.1697">Herramientas y marcos de trabajo</text><rect fill="#F1F1F1" height="39.0679" rx="12.5" ry="12.5" style="stroke:#181818;stroke-width:1.5;" width="229" x="1341" y="108.6019"/><text fill="#000000" font-family="sans-serif" font-size="14" lengthAdjust="spacing" textLength="209" x="1351" y="133.5678">El lienzo de modelo de negocio</text><path d="M1291,216.7377 L1301,216.7377 C1316,216.7377 1316,128.1358 1331,128.1358 L1341,128.1358 " fill="none" style="stroke:#181818;stroke-width:1.0;"/><rect fill="#F1F1F1" height="39.0679" rx="12.5" ry="12.5" style="stroke:#181818;stroke-width:1.5;" width="57" x="1341" y="167.6698"/><text fill="#000000" font-family="sans-serif" font-size="14" lengthAdjust="spacing" textLength="37" x="1351" y="192.6357">DAFO</text><path d="M1291,216.7377 L1301,216.7377 C1316,216.7377 1316,187.2038 1331,187.2038 L1341,187.2038 " fill="none" style="stroke:#181818;stroke-width:1.0;"/><rect fill="#F1F1F1" height="39.0679" rx="12.5" ry="12.5" style="stroke:#181818;stroke-width:1.5;" width="177" x="1341" y="226.7377"/><text fill="#000000" font-family="sans-serif" font-size="14" lengthAdjust="spacing" textLength="157" x="1351" y="251.7036">Cinco fuerzas de Porter</text><path d="M1291,216.7377 L1301,216.7377 C1316,216.7377 1316,246.2717 1331,246.2717 L1341,246.2717 " fill="none" style="stroke:#181818;stroke-width:1.0;"/><rect fill="#F1F1F1" height="39.0679" rx="12.5" ry="12.5" style="stroke:#181818;stroke-width:1.5;" width="183" x="1341" y="285.8056"/><text fill="#000000" font-family="sans-serif" font-size="14" lengthAdjust="spacing" textLength="163" x="1351" y="310.7716">Otros marcos de trabajo</text><path d="M1291,216.7377 L1301,216.7377 C1316,216.7377 1316,305.3396 1331,305.3396 L1341,305.3396 " fill="none" style="stroke:#181818;stroke-width:1.0;"/><path d="M992,393.9415 L1002,393.9415 C1017,393.9415 1017,216.7377 1032,216.7377 L1042,216.7377 " fill="none" style="stroke:#181818;stroke-width:1.0;"/><rect fill="#F1F1F1" height="39.0679" rx="12.5" ry="12.5" style="stroke:#181818;stroke-width:1.5;" width="94" x="1042" y="492.5433"/><text fill="#000000" font-family="sans-serif" font-size="14" lengthAdjust="spacing" textLength="74" x="1052" y="517.5093">Innovaci&#243;n</text><rect fill="#F1F1F1" height="39.0679" rx="12.5" ry="12.5" style="stroke:#181818;stroke-width:1.5;" width="154" x="1186" y="344.8735"/><text fill="#000000" font-family="sans-serif" font-size="14" lengthAdjust="spacing" textLength="134" x="1196" y="369.8395">Tipos de innovaci&#243;n</text><path d="M1136,512.0773 L1146,512.0773 C1161,512.0773 1161,364.4075 1176,364.4075 L1186,364.4075 " fill="none" style="stroke:#181818;stroke-width:1.0;"/><rect fill="#F1F1F1" height="39.0679" rx="12.5" ry="12.5" style="stroke:#181818;stroke-width:1.5;" width="191" x="1186" y="403.9415"/><text fill="#000000" font-family="sans-serif" font-size="14" lengthAdjust="spacing" textLength="171" x="1196" y="428.9074">Innovaci&#243;n como proceso</text><path d="M1136,512.0773 L1146,512.0773 C1161,512.0773 1161,423.4754 1176,423.4754 L1186,423.4754 " fill="none" style="stroke:#181818;stroke-width:1.0;"/><rect fill="#F1F1F1" height="39.0679" rx="12.5" ry="12.5" style="stroke:#181818;stroke-width:1.5;" width="173" x="1186" y="551.6113"/><text fill="#000000" font-family="sans-serif" font-size="14" lengthAdjust="spacing" textLength="153" x="1196" y="576.5772">Enfoques para innovar</text><rect fill="#F1F1F1" height="39.0679" rx="12.5" ry="12.5" style="stroke:#181818;stroke-width:1.5;" width="104" x="1409" y="463.0094"/><text fill="#000000" font-family="sans-serif" font-size="14" lengthAdjust="spacing" textLength="84" x="1419" y="487.9753">Oc&#233;ano Azul</text><path d="M1359,571.1452 L1369,571.1452 C1384,571.1452 1384,482.5433 1399,482.5433 L1409,482.5433 " fill="none" style="stroke:#181818;stroke-width:1.0;"/><rect fill="#F1F1F1" height="39.0679" rx="12.5" ry="12.5" style="stroke:#181818;stroke-width:1.5;" width="270" x="1409" y="522.0773"/><text fill="#000000" font-family="sans-serif" font-size="14" lengthAdjust="spacing" textLength="250" x="1419" y="547.0432">Innovaci&#243;n abierta (Open innovation)</text><path d="M1359,571.1452 L1369,571.1452 C1384,571.1452 1384,541.6113 1399,541.6113 L1409,541.6113 " fill="none" style="stroke:#181818;stroke-width:1.0;"/><rect fill="#F1F1F1" height="39.0679" rx="12.5" ry="12.5" style="stroke:#181818;stroke-width:1.5;" width="363" x="1409" y="581.1452"/><text fill="#000000" font-family="sans-serif" font-size="14" lengthAdjust="spacing" textLength="343" x="1419" y="606.1111">Teor&#237;a de los trabajos por realizar (Jobs to be done)</text><path d="M1359,571.1452 L1369,571.1452 C1384,571.1452 1384,600.6792 1399,600.6792 L1409,600.6792 " fill="none" style="stroke:#181818;stroke-width:1.0;"/><rect fill="#F1F1F1" height="39.0679" rx="12.5" ry="12.5" style="stroke:#181818;stroke-width:1.5;" width="200" x="1409" y="640.2131"/><text fill="#000000" font-family="sans-serif" font-size="14" lengthAdjust="spacing" textLength="180" x="1419" y="665.1791">Innovaci&#243;n de plataformas</text><path d="M1359,571.1452 L1369,571.1452 C1384,571.1452 1384,659.7471 1399,659.7471 L1409,659.7471 " fill="none" style="stroke:#181818;stroke-width:1.0;"/><path d="M1136,512.0773 L1146,512.0773 C1161,512.0773 1161,571.1452 1176,571.1452 L1186,571.1452 " fill="none" style="stroke:#181818;stroke-width:1.0;"/><path d="M992,393.9415 L1002,393.9415 C1017,393.9415 1017,512.0773 1032,512.0773 L1042,512.0773 " fill="none" style="stroke:#181818;stroke-width:1.0;"/><path d="M698,541.6113 L708,541.6113 C723,541.6113 723,393.9415 738,393.9415 L748,393.9415 " fill="none" style="stroke:#181818;stroke-width:1.0;"/><rect fill="#F1F1F1" height="39.0679" rx="12.5" ry="12.5" style="stroke:#181818;stroke-width:1.5;" width="152" x="748" y="817.4169"/><text fill="#000000" font-family="sans-serif" font-size="14" lengthAdjust="spacing" textLength="132" x="758" y="842.3828">Funciones de la DSI</text><rect fill="#F1F1F1" height="39.0679" rx="12.5" ry="12.5" style="stroke:#181818;stroke-width:1.5;" width="276" x="950" y="699.281"/><text fill="#000000" font-family="sans-serif" font-size="14" lengthAdjust="spacing" textLength="256" x="960" y="724.247">Definici&#243;n de SI en las organizaciones</text><path d="M900,836.9508 L910,836.9508 C925,836.9508 925,718.815 940,718.815 L950,718.815 " fill="none" style="stroke:#181818;stroke-width:1.0;"/><rect fill="#F1F1F1" height="39.0679" rx="12.5" ry="12.5" style="stroke:#181818;stroke-width:1.5;" width="146" x="950" y="758.349"/><text fill="#000000" font-family="sans-serif" font-size="14" lengthAdjust="spacing" textLength="126" x="960" y="783.3149">Evoluci&#243;n hist&#243;rica</text><path d="M900,836.9508 L910,836.9508 C925,836.9508 925,777.8829 940,777.8829 L950,777.8829 " fill="none" style="stroke:#181818;stroke-width:1.0;"/><rect fill="#F1F1F1" height="39.0679" rx="12.5" ry="12.5" style="stroke:#181818;stroke-width:1.5;" width="113" x="950" y="817.4169"/><text fill="#000000" font-family="sans-serif" font-size="14" lengthAdjust="spacing" textLength="93" x="960" y="842.3828">Componentes</text><path d="M900,836.9508 L910,836.9508 C925,836.9508 925,836.9508 940,836.9508 L950,836.9508 " fill="none" style="stroke:#181818;stroke-width:1.0;"/><rect fill="#F1F1F1" height="39.0679" rx="12.5" ry="12.5" style="stroke:#181818;stroke-width:1.5;" width="256" x="950" y="876.4848"/><text fill="#000000" font-family="sans-serif" font-size="14" lengthAdjust="spacing" textLength="236" x="960" y="901.4507">Personas: &#191;c&#243;mo nos organizamos?</text><rect fill="#F1F1F1" height="39.0679" rx="12.5" ry="12.5" style="stroke:#181818;stroke-width:1.5;" width="88" x="1256" y="846.9508"/><text fill="#000000" font-family="sans-serif" font-size="14" lengthAdjust="spacing" textLength="68" x="1266" y="871.9168">Funciones</text><path d="M1206,896.0188 L1216,896.0188 C1231,896.0188 1231,866.4848 1246,866.4848 L1256,866.4848 " fill="none" style="stroke:#181818;stroke-width:1.0;"/><rect fill="#F1F1F1" height="39.0679" rx="12.5" ry="12.5" style="stroke:#181818;stroke-width:1.5;" width="112" x="1256" y="906.0188"/><text fill="#000000" font-family="sans-serif" font-size="14" lengthAdjust="spacing" textLength="92" x="1266" y="930.9847">Conocimiento</text><path d="M1206,896.0188 L1216,896.0188 C1231,896.0188 1231,925.5527 1246,925.5527 L1256,925.5527 " fill="none" style="stroke:#181818;stroke-width:1.0;"/><path d="M900,836.9508 L910,836.9508 C925,836.9508 925,896.0188 940,896.0188 L950,896.0188 " fill="none" style="stroke:#181818;stroke-width:1.0;"/><rect fill="#F1F1F1" height="39.0679" rx="12.5" ry="12.5" style="stroke:#181818;stroke-width:1.5;" width="161" x="950" y="935.5527"/><text fill="#000000" font-family="sans-serif" font-size="14" lengthAdjust="spacing" textLength="141" x="960" y="960.5186">Actividades de la DSI</text><path d="M900,836.9508 L910,836.9508 C925,836.9508 925,955.0867 940,955.0867 L950,955.0867 " fill="none" style="stroke:#181818;stroke-width:1.0;"/><path d="M698,541.6113 L708,541.6113 C723,541.6113 723,836.9508 738,836.9508 L748,836.9508 " fill="none" style="stroke:#181818;stroke-width:1.0;"/><rect fill="#F1F1F1" height="39.0679" rx="12.5" ry="12.5" style="stroke:#181818;stroke-width:1.5;" width="250" x="355" y="167.6698"/><text fill="#000000" font-family="sans-serif" font-size="14" lengthAdjust="spacing" textLength="230" x="365" y="192.6357">Estrategia y planificaci&#243;n de los SI</text><rect fill="#F1F1F1" height="39.0679" rx="12.5" ry="12.5" style="stroke:#181818;stroke-width:1.5;" width="173" x="132" y="20"/><text fill="#000000" font-family="sans-serif" font-size="14" lengthAdjust="spacing" textLength="153" x="142" y="44.9659">Transformaci&#243;n digital</text><path d="M355,187.2038 L345,187.2038 C330,187.2038 330,39.534 315,39.534 L305,39.534 " fill="none" style="stroke:#181818;stroke-width:1.0;"/><rect fill="#F1F1F1" height="39.0679" rx="12.5" ry="12.5" style="stroke:#181818;stroke-width:1.5;" width="65" x="240" y="79.0679"/><text fill="#000000" font-family="sans-serif" font-size="14" lengthAdjust="spacing" textLength="45" x="250" y="104.0339">Etapas</text><path d="M355,187.2038 L345,187.2038 C330,187.2038 330,98.6019 315,98.6019 L305,98.6019 " fill="none" style="stroke:#181818;stroke-width:1.0;"/><rect fill="#F1F1F1" height="39.0679" rx="12.5" ry="12.5" style="stroke:#181818;stroke-width:1.5;" width="166" x="139" y="138.1358"/><text fill="#000000" font-family="sans-serif" font-size="14" lengthAdjust="spacing" textLength="146" x="149" y="163.1018">Planificaci&#243;n de las TI</text><path d="M355,187.2038 L345,187.2038 C330,187.2038 330,157.6698 315,157.6698 L305,157.6698 " fill="none" style="stroke:#181818;stroke-width:1.0;"/><rect fill="#F1F1F1" height="39.0679" rx="12.5" ry="12.5" style="stroke:#181818;stroke-width:1.5;" width="295" x="10" y="197.2038"/><text fill="#000000" font-family="sans-serif" font-size="14" lengthAdjust="spacing" textLength="275" x="20" y="222.1697">Frameworks de arquitectura empresarial</text><path d="M355,187.2038 L345,187.2038 C330,187.2038 330,216.7377 315,216.7377 L305,216.7377 " fill="none" style="stroke:#181818;stroke-width:1.0;"/><rect fill="#F1F1F1" height="39.0679" rx="12.5" ry="12.5" style="stroke:#181818;stroke-width:1.5;" width="179" x="126" y="256.2717"/><text fill="#000000" font-family="sans-serif" font-size="14" lengthAdjust="spacing" textLength="159" x="136" y="281.2376">El capital humano de TI</text><path d="M355,187.2038 L345,187.2038 C330,187.2038 330,275.8056 315,275.8056 L305,275.8056 " fill="none" style="stroke:#181818;stroke-width:1.0;"/><rect fill="#F1F1F1" height="39.0679" rx="12.5" ry="12.5" style="stroke:#181818;stroke-width:1.5;" width="125" x="180" y="315.3396"/><text fill="#000000" font-family="sans-serif" font-size="14" lengthAdjust="spacing" textLength="105" x="190" y="340.3055">Ciberseguridad</text><path d="M355,187.2038 L345,187.2038 C330,187.2038 330,334.8735 315,334.8735 L305,334.8735 " fill="none" style="stroke:#181818;stroke-width:1.0;"/><path d="M655,541.6113 L645,541.6113 C630,541.6113 630,187.2038 615,187.2038 L605,187.2038 " fill="none" style="stroke:#181818;stroke-width:1.0;"/><rect fill="#F1F1F1" height="39.0679" rx="12.5" ry="12.5" style="stroke:#181818;stroke-width:1.5;" width="347" x="258" y="374.4075"/><text fill="#000000" font-family="sans-serif" font-size="14" lengthAdjust="spacing" textLength="327" x="268" y="399.3734">Gesti&#243;n de proyectos de integraci&#243;n de sistemas</text><path d="M655,541.6113 L645,541.6113 C630,541.6113 630,393.9415 615,393.9415 L605,393.9415 " fill="none" style="stroke:#181818;stroke-width:1.0;"/><rect fill="#F1F1F1" height="39.0679" rx="12.5" ry="12.5" style="stroke:#181818;stroke-width:1.5;" width="112" x="493" y="551.6113"/><text fill="#000000" font-family="sans-serif" font-size="14" lengthAdjust="spacing" textLength="92" x="503" y="576.5772">Herramientas</text><rect fill="#F1F1F1" height="39.0679" rx="12.5" ry="12.5" style="stroke:#181818;stroke-width:1.5;" width="209" x="234" y="433.4754"/><text fill="#000000" font-family="sans-serif" font-size="14" lengthAdjust="spacing" textLength="189" x="244" y="458.4414">Lenguajes de programaci&#243;n</text><path d="M493,571.1452 L483,571.1452 C468,571.1452 468,453.0094 453,453.0094 L443,453.0094 " fill="none" style="stroke:#181818;stroke-width:1.0;"/><rect fill="#F1F1F1" height="39.0679" rx="12.5" ry="12.5" style="stroke:#181818;stroke-width:1.5;" width="76" x="367" y="492.5433"/><text fill="#000000" font-family="sans-serif" font-size="14" lengthAdjust="spacing" textLength="56" x="377" y="517.5093">No-code</text><path d="M493,571.1452 L483,571.1452 C468,571.1452 468,512.0773 453,512.0773 L443,512.0773 " fill="none" style="stroke:#181818;stroke-width:1.0;"/><rect fill="#F1F1F1" height="39.0679" rx="12.5" ry="12.5" style="stroke:#181818;stroke-width:1.5;" width="204" x="239" y="551.6113"/><text fill="#000000" font-family="sans-serif" font-size="14" lengthAdjust="spacing" textLength="184" x="249" y="576.5772">Metodolog&#237;as de desarrollo</text><path d="M493,571.1452 L483,571.1452 C468,571.1452 468,571.1452 453,571.1452 L443,571.1452 " fill="none" style="stroke:#181818;stroke-width:1.0;"/><rect fill="#F1F1F1" height="39.0679" rx="12.5" ry="12.5" style="stroke:#181818;stroke-width:1.5;" width="190" x="253" y="610.6792"/><text fill="#000000" font-family="sans-serif" font-size="14" lengthAdjust="spacing" textLength="170" x="263" y="635.6451">Tipolog&#237;a de aplicaciones</text><path d="M493,571.1452 L483,571.1452 C468,571.1452 468,630.2131 453,630.2131 L443,630.2131 " fill="none" style="stroke:#181818;stroke-width:1.0;"/><rect fill="#F1F1F1" height="39.0679" rx="12.5" ry="12.5" style="stroke:#181818;stroke-width:1.5;" width="109" x="334" y="669.7471"/><text fill="#000000" font-family="sans-serif" font-size="14" lengthAdjust="spacing" textLength="89" x="344" y="694.713">Sistemas ERP</text><path d="M493,571.1452 L483,571.1452 C468,571.1452 468,689.281 453,689.281 L443,689.281 " fill="none" style="stroke:#181818;stroke-width:1.0;"/><path d="M655,541.6113 L645,541.6113 C630,541.6113 630,571.1452 615,571.1452 L605,571.1452 " fill="none" style="stroke:#181818;stroke-width:1.0;"/><rect fill="#F1F1F1" height="39.0679" rx="12.5" ry="12.5" style="stroke:#181818;stroke-width:1.5;" width="66" x="539" y="758.349"/><text fill="#000000" font-family="sans-serif" font-size="14" lengthAdjust="spacing" textLength="46" x="549" y="783.3149">Dise&#241;o</text><rect fill="#F1F1F1" height="39.0679" rx="12.5" ry="12.5" style="stroke:#181818;stroke-width:1.5;" width="90" x="399" y="728.815"/><text fill="#000000" font-family="sans-serif" font-size="14" lengthAdjust="spacing" textLength="70" x="409" y="753.7809">Requisitos</text><path d="M539,777.8829 L529,777.8829 C514,777.8829 514,748.349 499,748.349 L489,748.349 " fill="none" style="stroke:#181818;stroke-width:1.0;"/><rect fill="#F1F1F1" height="39.0679" rx="12.5" ry="12.5" style="stroke:#181818;stroke-width:1.5;" width="105" x="384" y="787.8829"/><text fill="#000000" font-family="sans-serif" font-size="14" lengthAdjust="spacing" textLength="85" x="394" y="812.8489">Arquitectura</text><path d="M539,777.8829 L529,777.8829 C514,777.8829 514,807.4169 499,807.4169 L489,807.4169 " fill="none" style="stroke:#181818;stroke-width:1.0;"/><path d="M655,541.6113 L645,541.6113 C630,541.6113 630,777.8829 615,777.8829 L605,777.8829 " fill="none" style="stroke:#181818;stroke-width:1.0;"/><rect fill="#F1F1F1" height="39.0679" rx="12.5" ry="12.5" style="stroke:#181818;stroke-width:1.5;" width="109" x="496" y="876.4848"/><text fill="#000000" font-family="sans-serif" font-size="14" lengthAdjust="spacing" textLength="89" x="506" y="901.4507">Implantaci&#243;n</text><rect fill="#F1F1F1" height="39.0679" rx="12.5" ry="12.5" style="stroke:#181818;stroke-width:1.5;" width="149" x="297" y="846.9508"/><text fill="#000000" font-family="sans-serif" font-size="14" lengthAdjust="spacing" textLength="129" x="307" y="871.9168">Gesti&#243;n del cambio</text><path d="M496,896.0188 L486,896.0188 C471,896.0188 471,866.4848 456,866.4848 L446,866.4848 " fill="none" style="stroke:#181818;stroke-width:1.0;"/><rect fill="#F1F1F1" height="39.0679" rx="12.5" ry="12.5" style="stroke:#181818;stroke-width:1.5;" width="314" x="132" y="906.0188"/><text fill="#000000" font-family="sans-serif" font-size="14" lengthAdjust="spacing" textLength="294" x="142" y="930.9847">Gesti&#243;n de seguridad e integridad de datos</text><path d="M496,896.0188 L486,896.0188 C471,896.0188 471,925.5527 456,925.5527 L446,925.5527 " fill="none" style="stroke:#181818;stroke-width:1.0;"/><path d="M655,541.6113 L645,541.6113 C630,541.6113 630,896.0188 615,896.0188 L605,896.0188 " fill="none" style="stroke:#181818;stroke-width:1.0;"/><rect fill="#F1F1F1" height="39.0679" rx="12.5" ry="12.5" style="stroke:#181818;stroke-width:1.5;" width="90" x="515" y="994.6206"/><text fill="#000000" font-family="sans-serif" font-size="14" lengthAdjust="spacing" textLength="70" x="525" y="1019.5866">Valoraci&#243;n</text><rect fill="#F1F1F1" height="39.0679" rx="12.5" ry="12.5" style="stroke:#181818;stroke-width:1.5;" width="100" x="365" y="965.0867"/><text fill="#000000" font-family="sans-serif" font-size="14" lengthAdjust="spacing" textLength="80" x="375" y="990.0526">Indicadores</text><path d="M515,1014.1546 L505,1014.1546 C490,1014.1546 490,984.6206 475,984.6206 L465,984.6206 " fill="none" style="stroke:#181818;stroke-width:1.0;"/><rect fill="#F1F1F1" height="39.0679" rx="12.5" ry="12.5" style="stroke:#181818;stroke-width:1.5;" width="145" x="320" y="1024.1546"/><text fill="#000000" font-family="sans-serif" font-size="14" lengthAdjust="spacing" textLength="125" x="330" y="1049.1205">Gesti&#243;n de riesgos</text><path d="M515,1014.1546 L505,1014.1546 C490,1014.1546 490,1043.6885 475,1043.6885 L465,1043.6885 " fill="none" style="stroke:#181818;stroke-width:1.0;"/><path d="M655,541.6113 L645,541.6113 C630,541.6113 630,1014.1546 615,1014.1546 L605,1014.1546 " fill="none" style="stroke:#181818;stroke-width:1.0;"/><!--SRC=[RLHDRzj83BtxL_2Om72RPjDYOHJTPltHEeqR8tPpfoHQcQuqL3aZ5ya_saCFHNv0WVgFBMT6TfnkRwCX-VZu7aTldKVnjR55ZKslruVNsPlnSlRwUVQcr-_3d0kgs451OAdat30G66jvWxdPFbZDwSCaPylrzXl2s9J6OnLltvC8reQiHmTtKAFa2SWBPlYPGvBMLb1fpZs7I1sx7JHBEUFpwLKwZOpD6TOjoJr6h0MB9qd1Ao_QuBTzOFQKSXzMfabPvjV8GIhaN3CqmZcv7L-xvYyjEMXGi2jE_PL0llqNBSFvVLjrLuTWc1aIZt1qrP3jIhrXUzpbheWbYAYaWkGTVUt40a9OcNiKEBhWJ6CC6K71bev_qqW1cWezhbbgTC76QMjLJKjnuafzMiwYB6DQ6slsLSiPABDAfMKfqMh3L9LStd3LfjHRu_psGKoECJBYkj4qwxlC1ObZYsu8Ft_asmULqF8ZPCtkhwJbdbLdhcvHRkB69DFESsysfi3YAUy1J9oAuwaqg8kbergpLYxxCO9wCN40Aq7heWvTTBUW6fjuR88yUbpy7qD5M2MCgQunVMNv9x90-T8QJxblrN-g6o67OdQG5UJOX0vmszPX5xIYWncPJ7MXifKmKXZZ7Jc_DqpuJa5tEwd3oICPftfJj7Bmv5b5t4koPOkVaqOAeuNrRfyr_947kJwhU9wJvu8hBdNDOdeHo0jN5IUrz56aQ9oqgQ8YoI4DBpiQCBbU12fZusZxFPLUayhYZ0uGFyyFL0gfiphOv0zu7GmVHAipmx_Umrujs6aIFm9nJ9tW1YkM0zYPBPHqmT9nFeGJGwxKijvRqj_TxfSNlFUVvfUmKNjqM7ZnxFJazEpP7qUhsnQcbC6Bbt1wCZmx6PwyXD5a1I5yt3jwjxZSd8BZLd8bfDg8oThqe2zmWt3TMczg6a9uxnVZ3xiB_OTiZB2jrSFUnStyCU7LsU1lus59ebpWPjxJzubjvRL2FJIs7CAdrNJmP-yIW-UbOkkO8rPSkHl2PFaV]--></g></svg>