<?xml version="1.0" encoding="us-ascii" standalone="no"?><svg xmlns="http://www.w3.org/2000/svg" xmlns:xlink="http://www.w3.org/1999/xlink" contentStyleType="text/css" height="937px" preserveAspectRatio="none" style="width:1936px;height:937px;background:#FFFFFF;" version="1.1" viewBox="0 0 1936 937" width="1936px" zoomAndPan="magnify"><defs/><g><rect fill="#F1F1F1" height="39.0679" rx="12.5" ry="12.5" style="stroke:#181818;stroke-width:1.5;" width="43" x="807" y="448.2424"/><text fill="#000000" font-family="sans-serif" font-size="14" font-weight="bold" lengthAdjust="spacing" textLength="23" x="817" y="473.2083">DSI</text><rect fill="#F1F1F1" height="39.0679" rx="12.5" ry="12.5" style="stroke:#181818;stroke-width:1.5;" width="244" x="900" y="300.5726"/><text fill="#000000" font-family="sans-serif" font-size="14" lengthAdjust="spacing" textLength="224" x="910" y="325.5385">Modelos de negocio e innovaci&#243;n</text><rect fill="#F1F1F1" height="39.0679" rx="12.5" ry="12.5" style="stroke:#181818;stroke-width:1.5;" width="133" x="1194" y="64.3009"/><text fill="#000000" font-family="sans-serif" font-size="14" lengthAdjust="spacing" textLength="113" x="1204" y="89.2669">Econom&#237;a Digital</text><path d="M1144,320.1066 L1154,320.1066 C1169,320.1066 1169,83.8349 1184,83.8349 L1194,83.8349 " fill="none" style="stroke:#181818;stroke-width:1.0;"/><rect fill="#F1F1F1" height="39.0679" rx="12.5" ry="12.5" style="stroke:#181818;stroke-width:1.5;" width="249" x="1194" y="123.3689"/><text fill="#000000" font-family="sans-serif" font-size="14" lengthAdjust="spacing" textLength="229" x="1204" y="148.3348">Herramientas y marcos de trabajo</text><rect fill="#F1F1F1" height="39.0679" rx="12.5" ry="12.5" style="stroke:#181818;stroke-width:1.5;" width="229" x="1493" y="34.767"/><text fill="#000000" font-family="sans-serif" font-size="14" lengthAdjust="spacing" textLength="209" x="1503" y="59.7329">El lienzo de modelo de negocio</text><path d="M1443,142.9028 L1453,142.9028 C1468,142.9028 1468,54.3009 1483,54.3009 L1493,54.3009 " fill="none" style="stroke:#181818;stroke-width:1.0;"/><rect fill="#F1F1F1" height="39.0679" rx="12.5" ry="12.5" style="stroke:#181818;stroke-width:1.5;" width="57" x="1493" y="93.8349"/><text fill="#000000" font-family="sans-serif" font-size="14" lengthAdjust="spacing" textLength="37" x="1503" y="118.8008">DAFO</text><path d="M1443,142.9028 L1453,142.9028 C1468,142.9028 1468,113.3689 1483,113.3689 L1493,113.3689 " fill="none" style="stroke:#181818;stroke-width:1.0;"/><rect fill="#F1F1F1" height="39.0679" rx="12.5" ry="12.5" style="stroke:#181818;stroke-width:1.5;" width="177" x="1493" y="152.9028"/><text fill="#000000" font-family="sans-serif" font-size="14" lengthAdjust="spacing" textLength="157" x="1503" y="177.8687">Cinco fuerzas de Porter</text><path d="M1443,142.9028 L1453,142.9028 C1468,142.9028 1468,172.4368 1483,172.4368 L1493,172.4368 " fill="none" style="stroke:#181818;stroke-width:1.0;"/><rect fill="#F1F1F1" height="39.0679" rx="12.5" ry="12.5" style="stroke:#181818;stroke-width:1.5;" width="183" x="1493" y="211.9707"/><text fill="#000000" font-family="sans-serif" font-size="14" lengthAdjust="spacing" textLength="163" x="1503" y="236.9367">Otros marcos de trabajo</text><path d="M1443,142.9028 L1453,142.9028 C1468,142.9028 1468,231.5047 1483,231.5047 L1493,231.5047 " fill="none" style="stroke:#181818;stroke-width:1.0;"/><path d="M1144,320.1066 L1154,320.1066 C1169,320.1066 1169,142.9028 1184,142.9028 L1194,142.9028 " fill="none" style="stroke:#181818;stroke-width:1.0;"/><rect fill="#F1F1F1" height="39.0679" rx="12.5" ry="12.5" style="stroke:#181818;stroke-width:1.5;" width="94" x="1194" y="418.7084"/><text fill="#000000" font-family="sans-serif" font-size="14" lengthAdjust="spacing" textLength="74" x="1204" y="443.6744">Innovaci&#243;n</text><rect fill="#F1F1F1" height="39.0679" rx="12.5" ry="12.5" style="stroke:#181818;stroke-width:1.5;" width="154" x="1338" y="271.0386"/><text fill="#000000" font-family="sans-serif" font-size="14" lengthAdjust="spacing" textLength="134" x="1348" y="296.0046">Tipos de innovaci&#243;n</text><path d="M1288,438.2424 L1298,438.2424 C1313,438.2424 1313,290.5726 1328,290.5726 L1338,290.5726 " fill="none" style="stroke:#181818;stroke-width:1.0;"/><rect fill="#F1F1F1" height="39.0679" rx="12.5" ry="12.5" style="stroke:#181818;stroke-width:1.5;" width="191" x="1338" y="330.1066"/><text fill="#000000" font-family="sans-serif" font-size="14" lengthAdjust="spacing" textLength="171" x="1348" y="355.0725">Innovaci&#243;n como proceso</text><path d="M1288,438.2424 L1298,438.2424 C1313,438.2424 1313,349.6405 1328,349.6405 L1338,349.6405 " fill="none" style="stroke:#181818;stroke-width:1.0;"/><rect fill="#F1F1F1" height="39.0679" rx="12.5" ry="12.5" style="stroke:#181818;stroke-width:1.5;" width="173" x="1338" y="477.7764"/><text fill="#000000" font-family="sans-serif" font-size="14" lengthAdjust="spacing" textLength="153" x="1348" y="502.7423">Enfoques para innovar</text><rect fill="#F1F1F1" height="39.0679" rx="12.5" ry="12.5" style="stroke:#181818;stroke-width:1.5;" width="104" x="1561" y="389.1745"/><text fill="#000000" font-family="sans-serif" font-size="14" lengthAdjust="spacing" textLength="84" x="1571" y="414.1404">Oc&#233;ano Azul</text><path d="M1511,497.3103 L1521,497.3103 C1536,497.3103 1536,408.7084 1551,408.7084 L1561,408.7084 " fill="none" style="stroke:#181818;stroke-width:1.0;"/><rect fill="#F1F1F1" height="39.0679" rx="12.5" ry="12.5" style="stroke:#181818;stroke-width:1.5;" width="270" x="1561" y="448.2424"/><text fill="#000000" font-family="sans-serif" font-size="14" lengthAdjust="spacing" textLength="250" x="1571" y="473.2083">Innovaci&#243;n abierta (Open innovation)</text><path d="M1511,497.3103 L1521,497.3103 C1536,497.3103 1536,467.7764 1551,467.7764 L1561,467.7764 " fill="none" style="stroke:#181818;stroke-width:1.0;"/><rect fill="#F1F1F1" height="39.0679" rx="12.5" ry="12.5" style="stroke:#181818;stroke-width:1.5;" width="363" x="1561" y="507.3103"/><text fill="#000000" font-family="sans-serif" font-size="14" lengthAdjust="spacing" textLength="343" x="1571" y="532.2762">Teor&#237;a de los trabajos por realizar (Jobs to be done)</text><path d="M1511,497.3103 L1521,497.3103 C1536,497.3103 1536,526.8443 1551,526.8443 L1561,526.8443 " fill="none" style="stroke:#181818;stroke-width:1.0;"/><rect fill="#F1F1F1" height="39.0679" rx="12.5" ry="12.5" style="stroke:#181818;stroke-width:1.5;" width="200" x="1561" y="566.3782"/><text fill="#000000" font-family="sans-serif" font-size="14" lengthAdjust="spacing" textLength="180" x="1571" y="591.3442">Innovaci&#243;n de plataformas</text><path d="M1511,497.3103 L1521,497.3103 C1536,497.3103 1536,585.9122 1551,585.9122 L1561,585.9122 " fill="none" style="stroke:#181818;stroke-width:1.0;"/><path d="M1288,438.2424 L1298,438.2424 C1313,438.2424 1313,497.3103 1328,497.3103 L1338,497.3103 " fill="none" style="stroke:#181818;stroke-width:1.0;"/><path d="M1144,320.1066 L1154,320.1066 C1169,320.1066 1169,438.2424 1184,438.2424 L1194,438.2424 " fill="none" style="stroke:#181818;stroke-width:1.0;"/><path d="M850,467.7764 L860,467.7764 C875,467.7764 875,320.1066 890,320.1066 L900,320.1066 " fill="none" style="stroke:#181818;stroke-width:1.0;"/><rect fill="#F1F1F1" height="39.0679" rx="12.5" ry="12.5" style="stroke:#181818;stroke-width:1.5;" width="381" x="900" y="743.582"/><text fill="#000000" font-family="sans-serif" font-size="14" lengthAdjust="spacing" textLength="361" x="910" y="768.5479">Funciones de la direcci&#243;n de sistemas de informaci&#243;n</text><rect fill="#F1F1F1" height="39.0679" rx="12.5" ry="12.5" style="stroke:#181818;stroke-width:1.5;" width="445" x="1331" y="625.4461"/><text fill="#000000" font-family="sans-serif" font-size="14" lengthAdjust="spacing" textLength="425" x="1341" y="650.4121">Definici&#243;n de Sistemas de la informaci&#243;n en las organizaciones</text><path d="M1281,763.1159 L1291,763.1159 C1306,763.1159 1306,644.9801 1321,644.9801 L1331,644.9801 " fill="none" style="stroke:#181818;stroke-width:1.0;"/><rect fill="#F1F1F1" height="39.0679" rx="12.5" ry="12.5" style="stroke:#181818;stroke-width:1.5;" width="146" x="1331" y="684.5141"/><text fill="#000000" font-family="sans-serif" font-size="14" lengthAdjust="spacing" textLength="126" x="1341" y="709.48">Evoluci&#243;n hist&#243;rica</text><path d="M1281,763.1159 L1291,763.1159 C1306,763.1159 1306,704.048 1321,704.048 L1331,704.048 " fill="none" style="stroke:#181818;stroke-width:1.0;"/><rect fill="#F1F1F1" height="39.0679" rx="12.5" ry="12.5" style="stroke:#181818;stroke-width:1.5;" width="113" x="1331" y="743.582"/><text fill="#000000" font-family="sans-serif" font-size="14" lengthAdjust="spacing" textLength="93" x="1341" y="768.5479">Componentes</text><path d="M1281,763.1159 L1291,763.1159 C1306,763.1159 1306,763.1159 1321,763.1159 L1331,763.1159 " fill="none" style="stroke:#181818;stroke-width:1.0;"/><rect fill="#F1F1F1" height="39.0679" rx="12.5" ry="12.5" style="stroke:#181818;stroke-width:1.5;" width="244" x="1331" y="802.6499"/><text fill="#000000" font-family="sans-serif" font-size="14" lengthAdjust="spacing" textLength="224" x="1341" y="827.6158">Personas: como nos organizamos</text><rect fill="#F1F1F1" height="39.0679" rx="12.5" ry="12.5" style="stroke:#181818;stroke-width:1.5;" width="88" x="1625" y="773.1159"/><text fill="#000000" font-family="sans-serif" font-size="14" lengthAdjust="spacing" textLength="68" x="1635" y="798.0819">Funciones</text><path d="M1575,822.1839 L1585,822.1839 C1600,822.1839 1600,792.6499 1615,792.6499 L1625,792.6499 " fill="none" style="stroke:#181818;stroke-width:1.0;"/><rect fill="#F1F1F1" height="39.0679" rx="12.5" ry="12.5" style="stroke:#181818;stroke-width:1.5;" width="112" x="1625" y="832.1839"/><text fill="#000000" font-family="sans-serif" font-size="14" lengthAdjust="spacing" textLength="92" x="1635" y="857.1498">Conocimiento</text><path d="M1575,822.1839 L1585,822.1839 C1600,822.1839 1600,851.7178 1615,851.7178 L1625,851.7178 " fill="none" style="stroke:#181818;stroke-width:1.0;"/><path d="M1281,763.1159 L1291,763.1159 C1306,763.1159 1306,822.1839 1321,822.1839 L1331,822.1839 " fill="none" style="stroke:#181818;stroke-width:1.0;"/><rect fill="#F1F1F1" height="39.0679" rx="12.5" ry="12.5" style="stroke:#181818;stroke-width:1.5;" width="161" x="1331" y="861.7178"/><text fill="#000000" font-family="sans-serif" font-size="14" lengthAdjust="spacing" textLength="141" x="1341" y="886.6838">Actividades de la DSI</text><path d="M1281,763.1159 L1291,763.1159 C1306,763.1159 1306,881.2518 1321,881.2518 L1331,881.2518 " fill="none" style="stroke:#181818;stroke-width:1.0;"/><path d="M850,467.7764 L860,467.7764 C875,467.7764 875,763.1159 890,763.1159 L900,763.1159 " fill="none" style="stroke:#181818;stroke-width:1.0;"/><rect fill="#F1F1F1" height="39.0679" rx="12.5" ry="12.5" style="stroke:#181818;stroke-width:1.5;" width="402" x="355" y="167.6698"/><text fill="#000000" font-family="sans-serif" font-size="14" lengthAdjust="spacing" textLength="382" x="365" y="192.6357">Estrategia y planificaci&#243;n de los sistemas de informaci&#243;n</text><rect fill="#F1F1F1" height="39.0679" rx="12.5" ry="12.5" style="stroke:#181818;stroke-width:1.5;" width="173" x="132" y="20"/><text fill="#000000" font-family="sans-serif" font-size="14" lengthAdjust="spacing" textLength="153" x="142" y="44.9659">Transformaci&#243;n digital</text><path d="M355,187.2038 L345,187.2038 C330,187.2038 330,39.534 315,39.534 L305,39.534 " fill="none" style="stroke:#181818;stroke-width:1.0;"/><rect fill="#F1F1F1" height="39.0679" rx="12.5" ry="12.5" style="stroke:#181818;stroke-width:1.5;" width="65" x="240" y="79.0679"/><text fill="#000000" font-family="sans-serif" font-size="14" lengthAdjust="spacing" textLength="45" x="250" y="104.0339">Etapas</text><path d="M355,187.2038 L345,187.2038 C330,187.2038 330,98.6019 315,98.6019 L305,98.6019 " fill="none" style="stroke:#181818;stroke-width:1.0;"/><rect fill="#F1F1F1" height="39.0679" rx="12.5" ry="12.5" style="stroke:#181818;stroke-width:1.5;" width="166" x="139" y="138.1358"/><text fill="#000000" font-family="sans-serif" font-size="14" lengthAdjust="spacing" textLength="146" x="149" y="163.1018">Planificaci&#243;n de las TI</text><path d="M355,187.2038 L345,187.2038 C330,187.2038 330,157.6698 315,157.6698 L305,157.6698 " fill="none" style="stroke:#181818;stroke-width:1.0;"/><rect fill="#F1F1F1" height="39.0679" rx="12.5" ry="12.5" style="stroke:#181818;stroke-width:1.5;" width="295" x="10" y="197.2038"/><text fill="#000000" font-family="sans-serif" font-size="14" lengthAdjust="spacing" textLength="275" x="20" y="222.1697">Frameworks de arquitectura empresarial</text><path d="M355,187.2038 L345,187.2038 C330,187.2038 330,216.7377 315,216.7377 L305,216.7377 " fill="none" style="stroke:#181818;stroke-width:1.0;"/><rect fill="#F1F1F1" height="39.0679" rx="12.5" ry="12.5" style="stroke:#181818;stroke-width:1.5;" width="179" x="126" y="256.2717"/><text fill="#000000" font-family="sans-serif" font-size="14" lengthAdjust="spacing" textLength="159" x="136" y="281.2376">El capital humano de TI</text><path d="M355,187.2038 L345,187.2038 C330,187.2038 330,275.8056 315,275.8056 L305,275.8056 " fill="none" style="stroke:#181818;stroke-width:1.0;"/><rect fill="#F1F1F1" height="39.0679" rx="12.5" ry="12.5" style="stroke:#181818;stroke-width:1.5;" width="125" x="180" y="315.3396"/><text fill="#000000" font-family="sans-serif" font-size="14" lengthAdjust="spacing" textLength="105" x="190" y="340.3055">Ciberseguridad</text><path d="M355,187.2038 L345,187.2038 C330,187.2038 330,334.8735 315,334.8735 L305,334.8735 " fill="none" style="stroke:#181818;stroke-width:1.0;"/><path d="M807,467.7764 L797,467.7764 C782,467.7764 782,187.2038 767,187.2038 L757,187.2038 " fill="none" style="stroke:#181818;stroke-width:1.0;"/><rect fill="#F1F1F1" height="39.0679" rx="12.5" ry="12.5" style="stroke:#181818;stroke-width:1.5;" width="347" x="410" y="226.7377"/><text fill="#000000" font-family="sans-serif" font-size="14" lengthAdjust="spacing" textLength="327" x="420" y="251.7036">Gesti&#243;n de proyectos de integraci&#243;n de sistemas</text><path d="M807,467.7764 L797,467.7764 C782,467.7764 782,246.2717 767,246.2717 L757,246.2717 " fill="none" style="stroke:#181818;stroke-width:1.0;"/><rect fill="#F1F1F1" height="39.0679" rx="12.5" ry="12.5" style="stroke:#181818;stroke-width:1.5;" width="112" x="645" y="403.9415"/><text fill="#000000" font-family="sans-serif" font-size="14" lengthAdjust="spacing" textLength="92" x="655" y="428.9074">Herramientas</text><rect fill="#F1F1F1" height="39.0679" rx="12.5" ry="12.5" style="stroke:#181818;stroke-width:1.5;" width="209" x="386" y="285.8056"/><text fill="#000000" font-family="sans-serif" font-size="14" lengthAdjust="spacing" textLength="189" x="396" y="310.7716">Lenguajes de programaci&#243;n</text><path d="M645,423.4754 L635,423.4754 C620,423.4754 620,305.3396 605,305.3396 L595,305.3396 " fill="none" style="stroke:#181818;stroke-width:1.0;"/><rect fill="#F1F1F1" height="39.0679" rx="12.5" ry="12.5" style="stroke:#181818;stroke-width:1.5;" width="76" x="519" y="344.8735"/><text fill="#000000" font-family="sans-serif" font-size="14" lengthAdjust="spacing" textLength="56" x="529" y="369.8395">No-code</text><path d="M645,423.4754 L635,423.4754 C620,423.4754 620,364.4075 605,364.4075 L595,364.4075 " fill="none" style="stroke:#181818;stroke-width:1.0;"/><rect fill="#F1F1F1" height="39.0679" rx="12.5" ry="12.5" style="stroke:#181818;stroke-width:1.5;" width="204" x="391" y="403.9415"/><text fill="#000000" font-family="sans-serif" font-size="14" lengthAdjust="spacing" textLength="184" x="401" y="428.9074">Metodolog&#237;as de desarrollo</text><path d="M645,423.4754 L635,423.4754 C620,423.4754 620,423.4754 605,423.4754 L595,423.4754 " fill="none" style="stroke:#181818;stroke-width:1.0;"/><rect fill="#F1F1F1" height="39.0679" rx="12.5" ry="12.5" style="stroke:#181818;stroke-width:1.5;" width="190" x="405" y="463.0094"/><text fill="#000000" font-family="sans-serif" font-size="14" lengthAdjust="spacing" textLength="170" x="415" y="487.9753">Tipolog&#237;a de aplicaciones</text><path d="M645,423.4754 L635,423.4754 C620,423.4754 620,482.5433 605,482.5433 L595,482.5433 " fill="none" style="stroke:#181818;stroke-width:1.0;"/><rect fill="#F1F1F1" height="39.0679" rx="12.5" ry="12.5" style="stroke:#181818;stroke-width:1.5;" width="109" x="486" y="522.0773"/><text fill="#000000" font-family="sans-serif" font-size="14" lengthAdjust="spacing" textLength="89" x="496" y="547.0432">Sistemas ERP</text><path d="M645,423.4754 L635,423.4754 C620,423.4754 620,541.6113 605,541.6113 L595,541.6113 " fill="none" style="stroke:#181818;stroke-width:1.0;"/><path d="M807,467.7764 L797,467.7764 C782,467.7764 782,423.4754 767,423.4754 L757,423.4754 " fill="none" style="stroke:#181818;stroke-width:1.0;"/><rect fill="#F1F1F1" height="39.0679" rx="12.5" ry="12.5" style="stroke:#181818;stroke-width:1.5;" width="66" x="691" y="610.6792"/><text fill="#000000" font-family="sans-serif" font-size="14" lengthAdjust="spacing" textLength="46" x="701" y="635.6451">Dise&#241;o</text><rect fill="#F1F1F1" height="39.0679" rx="12.5" ry="12.5" style="stroke:#181818;stroke-width:1.5;" width="90" x="551" y="581.1452"/><text fill="#000000" font-family="sans-serif" font-size="14" lengthAdjust="spacing" textLength="70" x="561" y="606.1111">Requisitos</text><path d="M691,630.2131 L681,630.2131 C666,630.2131 666,600.6792 651,600.6792 L641,600.6792 " fill="none" style="stroke:#181818;stroke-width:1.0;"/><rect fill="#F1F1F1" height="39.0679" rx="12.5" ry="12.5" style="stroke:#181818;stroke-width:1.5;" width="105" x="536" y="640.2131"/><text fill="#000000" font-family="sans-serif" font-size="14" lengthAdjust="spacing" textLength="85" x="546" y="665.1791">Arquitectura</text><path d="M691,630.2131 L681,630.2131 C666,630.2131 666,659.7471 651,659.7471 L641,659.7471 " fill="none" style="stroke:#181818;stroke-width:1.0;"/><path d="M807,467.7764 L797,467.7764 C782,467.7764 782,630.2131 767,630.2131 L757,630.2131 " fill="none" style="stroke:#181818;stroke-width:1.0;"/><rect fill="#F1F1F1" height="39.0679" rx="12.5" ry="12.5" style="stroke:#181818;stroke-width:1.5;" width="109" x="648" y="728.815"/><text fill="#000000" font-family="sans-serif" font-size="14" lengthAdjust="spacing" textLength="89" x="658" y="753.7809">Implantaci&#243;n</text><rect fill="#F1F1F1" height="39.0679" rx="12.5" ry="12.5" style="stroke:#181818;stroke-width:1.5;" width="149" x="449" y="699.281"/><text fill="#000000" font-family="sans-serif" font-size="14" lengthAdjust="spacing" textLength="129" x="459" y="724.247">Gesti&#243;n del cambio</text><path d="M648,748.349 L638,748.349 C623,748.349 623,718.815 608,718.815 L598,718.815 " fill="none" style="stroke:#181818;stroke-width:1.0;"/><rect fill="#F1F1F1" height="39.0679" rx="12.5" ry="12.5" style="stroke:#181818;stroke-width:1.5;" width="314" x="284" y="758.349"/><text fill="#000000" font-family="sans-serif" font-size="14" lengthAdjust="spacing" textLength="294" x="294" y="783.3149">Gesti&#243;n de seguridad e integridad de datos</text><path d="M648,748.349 L638,748.349 C623,748.349 623,777.8829 608,777.8829 L598,777.8829 " fill="none" style="stroke:#181818;stroke-width:1.0;"/><path d="M807,467.7764 L797,467.7764 C782,467.7764 782,748.349 767,748.349 L757,748.349 " fill="none" style="stroke:#181818;stroke-width:1.0;"/><rect fill="#F1F1F1" height="39.0679" rx="12.5" ry="12.5" style="stroke:#181818;stroke-width:1.5;" width="90" x="667" y="846.9508"/><text fill="#000000" font-family="sans-serif" font-size="14" lengthAdjust="spacing" textLength="70" x="677" y="871.9168">Valoraci&#243;n</text><rect fill="#F1F1F1" height="39.0679" rx="12.5" ry="12.5" style="stroke:#181818;stroke-width:1.5;" width="100" x="517" y="817.4169"/><text fill="#000000" font-family="sans-serif" font-size="14" lengthAdjust="spacing" textLength="80" x="527" y="842.3828">Indicadores</text><path d="M667,866.4848 L657,866.4848 C642,866.4848 642,836.9508 627,836.9508 L617,836.9508 " fill="none" style="stroke:#181818;stroke-width:1.0;"/><rect fill="#F1F1F1" height="39.0679" rx="12.5" ry="12.5" style="stroke:#181818;stroke-width:1.5;" width="145" x="472" y="876.4848"/><text fill="#000000" font-family="sans-serif" font-size="14" lengthAdjust="spacing" textLength="125" x="482" y="901.4507">Gesti&#243;n de riesgos</text><path d="M667,866.4848 L657,866.4848 C642,866.4848 642,896.0188 627,896.0188 L617,896.0188 " fill="none" style="stroke:#181818;stroke-width:1.0;"/><path d="M807,467.7764 L797,467.7764 C782,467.7764 782,866.4848 767,866.4848 L757,866.4848 " fill="none" style="stroke:#181818;stroke-width:1.0;"/><!--SRC=[TLJRSjj637tdL-3H7eqIntKw7Kqc4rUNLAuLQsp5xo09qPik5mnsgOpzHtteGoUVe1yhbal9pALlvEBWuE00k-zyG0crSMMDJPQDu4t-TdQtVFCoVvkDHh3YaYnxA0aSLLmO1WBZ7E-mCFklJZ4Zc1VikDx_Wp0pbGbekzC_I0HhGowWXqUeKOf450Hp_CGHfBaMh6AUE4RghjgWMCBCBXStwMjgNC6mRKcUiEDQimII5Bm9eWL-MWUMtqeUmSOq2MM-ZmoWK73Dq0WNv0zwtPO_j-IXGS4-ETLN0SN-RtGCbq-jxO-6P9WRae1mSjEGwrE3ONVQOpV44arKKT7oNhvMOW4XjEO91KwkEDSOGqvGigFJdnHIWiPYm2rBZJwEST4wTTDHrx7L4aQeE8AzyO5gxEteifw7EwEjSUQ8lHjWBNu31-tAQeIbGgTYKyMq8JksRG8zAC7-gvW2kyYKwqPXBlJ8DObdXtwIl7Vyp5UpJpCuTjClXMvVORfDIyE-B8BPcHBBOx-wqTbe37ElfWQg3Ef2gaNER5N7iRVe-lzxCHx3Hj3vGSFbOTqrDW_OHBFrS_qZin9kbbrmePU2lh3yrPL0-ToQG4LeTPkeReGyYZbGMYYmYHNWeQtZPcb6JpCrkJf5LIknqTZSU_BXE7xXHoKzRBYsBFZ3k6FIy99slDVagXO_9UUKHXE73dpWSQ6NjFjUKU2IBLUwj1syZEA5hUNabbwn5EqwRMpdI9gRXe-RDBzTHoapusd_Rqgz9RN5cy09UZbmAKANTHnU6EWQD1zDgtF3tv_3qIquUDBzHE6OAi4zMfO1xTALAhfawJKFwSIGhpGjUqVwU1uUq3Zxy75r3JiTZpOBhrwSdvrVlFZbPFFGme9oUFKQpiyc5sUJizSmdMyWXa-pa_VhwzqvU6wbK47gZPYyJS_35UuGRbiNJ4qJYA_7rUpFmu6-I3iZx6gTONPrlte6_7en_jq4k2DHBN2_olGgOsk3PkWCZQicy76p6F-MNMESUQNSskQKbLSU9p2_-my0]--></g></svg>