<?xml version="1.0" encoding="us-ascii" standalone="no"?><svg xmlns="http://www.w3.org/2000/svg" xmlns:xlink="http://www.w3.org/1999/xlink" contentStyleType="text/css" height="334px" preserveAspectRatio="none" style="width:897px;height:334px;background:#FFFFFF;" version="1.1" viewBox="0 0 897 334" width="897px" zoomAndPan="magnify"><defs/><g><!--cluster TeoriaMusical--><g id="cluster_TeoriaMusical"><path d="M69.5,241 L165.5,241 A3.75,3.75 0 0 1 168,243.5 L175,266.0679 L610.5,266.0679 A2.5,2.5 0 0 1 613,268.5679 L613,324.5 A2.5,2.5 0 0 1 610.5,327 L69.5,327 A2.5,2.5 0 0 1 67,324.5 L67,243.5 A2.5,2.5 0 0 1 69.5,241 " fill="none" style="stroke:#000000;stroke-width:1.5;"/><line style="stroke:#000000;stroke-width:1.5;" x1="67" x2="175" y1="266.0679" y2="266.0679"/><text fill="#000000" font-family="sans-serif" font-size="14" font-weight="bold" lengthAdjust="spacing" textLength="95" x="71" y="257.9659">TeoriaMusical</text></g><!--cluster SistemaArmonico--><g id="cluster_SistemaArmonico"><path d="M8.5,104 L132.5,104 A3.75,3.75 0 0 1 135,106.5 L142,129.0679 L805.5,129.0679 A2.5,2.5 0 0 1 808,131.5679 L808,187.5 A2.5,2.5 0 0 1 805.5,190 L8.5,190 A2.5,2.5 0 0 1 6,187.5 L6,106.5 A2.5,2.5 0 0 1 8.5,104 " fill="none" style="stroke:#000000;stroke-width:1.5;"/><line style="stroke:#000000;stroke-width:1.5;" x1="6" x2="142" y1="129.0679" y2="129.0679"/><text fill="#000000" font-family="sans-serif" font-size="14" font-weight="bold" lengthAdjust="spacing" textLength="123" x="10" y="120.9659">SistemaArmonico</text></g><!--class Nota--><g id="elem_Nota"><rect codeLine="8" fill="#F1F1F1" height="32" id="Nota" rx="2.5" ry="2.5" style="stroke:#181818;stroke-width:0.5;" width="64" x="246" y="279"/><ellipse cx="261" cy="295" fill="#ADD1B2" rx="11" ry="11" style="stroke:#181818;stroke-width:1.0;"/><path d="M260.4688,301.9219 Q258.7188,301.9219 257.5781,301.1875 Q256.4531,300.4375 255.8906,299.0938 Q255.3438,297.7344 255.3438,295.9375 Q255.3438,293.9063 256,292.4531 Q256.6563,291 257.9375,290.2188 Q259.2188,289.4375 261.0938,289.4375 Q261.9844,289.4375 262.6563,289.625 Q263.3281,289.7969 264.0156,290.1406 L263.2031,292.1563 Q262.5781,291.8438 262.0313,291.7188 Q261.5,291.5938 261.0156,291.5938 Q259.8438,291.5938 259.1406,292.125 Q258.4375,292.6563 258.1406,293.6094 Q257.8438,294.5625 257.8438,295.8281 Q257.8438,297.8438 258.5625,298.8125 Q259.2813,299.7656 260.875,299.7656 Q261.4688,299.7656 262.0938,299.6094 Q262.7188,299.4531 263.5469,299.0781 L263.5469,301.2969 Q262.8125,301.6094 262.0156,301.7656 Q261.2344,301.9219 260.4688,301.9219 Z " fill="#000000"/><text fill="#000000" font-family="sans-serif" font-size="14" lengthAdjust="spacing" textLength="32" x="275" y="300.432">Nota</text></g><!--class Calidad--><g id="elem_Calidad"><rect codeLine="9" fill="#F1F1F1" height="32" id="Calidad" rx="2.5" ry="2.5" style="stroke:#181818;stroke-width:0.5;" width="83" x="513.5" y="279"/><ellipse cx="528.5" cy="295" fill="#ADD1B2" rx="11" ry="11" style="stroke:#181818;stroke-width:1.0;"/><path d="M527.9688,301.9219 Q526.2188,301.9219 525.0781,301.1875 Q523.9531,300.4375 523.3906,299.0938 Q522.8438,297.7344 522.8438,295.9375 Q522.8438,293.9063 523.5,292.4531 Q524.1563,291 525.4375,290.2188 Q526.7188,289.4375 528.5938,289.4375 Q529.4844,289.4375 530.1563,289.625 Q530.8281,289.7969 531.5156,290.1406 L530.7031,292.1563 Q530.0781,291.8438 529.5313,291.7188 Q529,291.5938 528.5156,291.5938 Q527.3438,291.5938 526.6406,292.125 Q525.9375,292.6563 525.6406,293.6094 Q525.3438,294.5625 525.3438,295.8281 Q525.3438,297.8438 526.0625,298.8125 Q526.7813,299.7656 528.375,299.7656 Q528.9688,299.7656 529.5938,299.6094 Q530.2188,299.4531 531.0469,299.0781 L531.0469,301.2969 Q530.3125,301.6094 529.5156,301.7656 Q528.7344,301.9219 527.9688,301.9219 Z " fill="#000000"/><text fill="#000000" font-family="sans-serif" font-size="14" lengthAdjust="spacing" textLength="51" x="542.5" y="300.432">Calidad</text></g><!--class Acorde--><g id="elem_Acorde"><rect codeLine="10" fill="#F1F1F1" height="32" id="Acorde" rx="2.5" ry="2.5" style="stroke:#181818;stroke-width:0.5;" width="79" x="367.5" y="279"/><ellipse cx="382.5" cy="295" fill="#ADD1B2" rx="11" ry="11" style="stroke:#181818;stroke-width:1.0;"/><path d="M381.9688,301.9219 Q380.2188,301.9219 379.0781,301.1875 Q377.9531,300.4375 377.3906,299.0938 Q376.8438,297.7344 376.8438,295.9375 Q376.8438,293.9063 377.5,292.4531 Q378.1563,291 379.4375,290.2188 Q380.7188,289.4375 382.5938,289.4375 Q383.4844,289.4375 384.1563,289.625 Q384.8281,289.7969 385.5156,290.1406 L384.7031,292.1563 Q384.0781,291.8438 383.5313,291.7188 Q383,291.5938 382.5156,291.5938 Q381.3438,291.5938 380.6406,292.125 Q379.9375,292.6563 379.6406,293.6094 Q379.3438,294.5625 379.3438,295.8281 Q379.3438,297.8438 380.0625,298.8125 Q380.7813,299.7656 382.375,299.7656 Q382.9688,299.7656 383.5938,299.6094 Q384.2188,299.4531 385.0469,299.0781 L385.0469,301.2969 Q384.3125,301.6094 383.5156,301.7656 Q382.7344,301.9219 381.9688,301.9219 Z " fill="#000000"/><text fill="#000000" font-family="sans-serif" font-size="14" lengthAdjust="spacing" textLength="47" x="396.5" y="300.432">Acorde</text></g><!--class Escala--><g id="elem_Escala"><rect codeLine="11" fill="#F1F1F1" height="32" id="Escala" rx="2.5" ry="2.5" style="stroke:#181818;stroke-width:0.5;" width="74" x="83" y="279"/><ellipse cx="98" cy="295" fill="#ADD1B2" rx="11" ry="11" style="stroke:#181818;stroke-width:1.0;"/><path d="M97.4688,301.9219 Q95.7188,301.9219 94.5781,301.1875 Q93.4531,300.4375 92.8906,299.0938 Q92.3438,297.7344 92.3438,295.9375 Q92.3438,293.9063 93,292.4531 Q93.6563,291 94.9375,290.2188 Q96.2188,289.4375 98.0938,289.4375 Q98.9844,289.4375 99.6563,289.625 Q100.3281,289.7969 101.0156,290.1406 L100.2031,292.1563 Q99.5781,291.8438 99.0313,291.7188 Q98.5,291.5938 98.0156,291.5938 Q96.8438,291.5938 96.1406,292.125 Q95.4375,292.6563 95.1406,293.6094 Q94.8438,294.5625 94.8438,295.8281 Q94.8438,297.8438 95.5625,298.8125 Q96.2813,299.7656 97.875,299.7656 Q98.4688,299.7656 99.0938,299.6094 Q99.7188,299.4531 100.5469,299.0781 L100.5469,301.2969 Q99.8125,301.6094 99.0156,301.7656 Q98.2344,301.9219 97.4688,301.9219 Z " fill="#000000"/><text fill="#000000" font-family="sans-serif" font-size="14" lengthAdjust="spacing" textLength="42" x="112" y="300.432">Escala</text></g><!--class GradoArmonico--><g id="elem_GradoArmonico"><rect codeLine="15" fill="#F1F1F1" height="32" id="GradoArmonico" rx="2.5" ry="2.5" style="stroke:#181818;stroke-width:0.5;" width="137" x="425.5" y="142"/><ellipse cx="440.5" cy="158" fill="#ADD1B2" rx="11" ry="11" style="stroke:#181818;stroke-width:1.0;"/><path d="M439.9688,164.9219 Q438.2188,164.9219 437.0781,164.1875 Q435.9531,163.4375 435.3906,162.0938 Q434.8438,160.7344 434.8438,158.9375 Q434.8438,156.9063 435.5,155.4531 Q436.1563,154 437.4375,153.2188 Q438.7188,152.4375 440.5938,152.4375 Q441.4844,152.4375 442.1563,152.625 Q442.8281,152.7969 443.5156,153.1406 L442.7031,155.1563 Q442.0781,154.8438 441.5313,154.7188 Q441,154.5938 440.5156,154.5938 Q439.3438,154.5938 438.6406,155.125 Q437.9375,155.6563 437.6406,156.6094 Q437.3438,157.5625 437.3438,158.8281 Q437.3438,160.8438 438.0625,161.8125 Q438.7813,162.7656 440.375,162.7656 Q440.9688,162.7656 441.5938,162.6094 Q442.2188,162.4531 443.0469,162.0781 L443.0469,164.2969 Q442.3125,164.6094 441.5156,164.7656 Q440.7344,164.9219 439.9688,164.9219 Z " fill="#000000"/><text fill="#000000" font-family="sans-serif" font-size="14" lengthAdjust="spacing" textLength="105" x="454.5" y="163.432">GradoArmonico</text></g><!--class FuncionArmonica--><g id="elem_FuncionArmonica"><rect codeLine="16" fill="#F1F1F1" height="32" id="FuncionArmonica" rx="2.5" ry="2.5" style="stroke:#181818;stroke-width:0.5;" width="149" x="643.5" y="142"/><ellipse cx="658.5" cy="158" fill="#ADD1B2" rx="11" ry="11" style="stroke:#181818;stroke-width:1.0;"/><path d="M657.9688,164.9219 Q656.2188,164.9219 655.0781,164.1875 Q653.9531,163.4375 653.3906,162.0938 Q652.8438,160.7344 652.8438,158.9375 Q652.8438,156.9063 653.5,155.4531 Q654.1563,154 655.4375,153.2188 Q656.7188,152.4375 658.5938,152.4375 Q659.4844,152.4375 660.1563,152.625 Q660.8281,152.7969 661.5156,153.1406 L660.7031,155.1563 Q660.0781,154.8438 659.5313,154.7188 Q659,154.5938 658.5156,154.5938 Q657.3438,154.5938 656.6406,155.125 Q655.9375,155.6563 655.6406,156.6094 Q655.3438,157.5625 655.3438,158.8281 Q655.3438,160.8438 656.0625,161.8125 Q656.7813,162.7656 658.375,162.7656 Q658.9688,162.7656 659.5938,162.6094 Q660.2188,162.4531 661.0469,162.0781 L661.0469,164.2969 Q660.3125,164.6094 659.5156,164.7656 Q658.7344,164.9219 657.9688,164.9219 Z " fill="#000000"/><text fill="#000000" font-family="sans-serif" font-size="14" lengthAdjust="spacing" textLength="117" x="672.5" y="163.432">FuncionArmonica</text></g><!--class EnlaceArmonico--><g id="elem_EnlaceArmonico"><rect codeLine="17" fill="#F1F1F1" height="32" id="EnlaceArmonico" rx="2.5" ry="2.5" style="stroke:#181818;stroke-width:0.5;" width="140" x="250" y="142"/><ellipse cx="265" cy="158" fill="#ADD1B2" rx="11" ry="11" style="stroke:#181818;stroke-width:1.0;"/><path d="M264.4688,164.9219 Q262.7188,164.9219 261.5781,164.1875 Q260.4531,163.4375 259.8906,162.0938 Q259.3438,160.7344 259.3438,158.9375 Q259.3438,156.9063 260,155.4531 Q260.6563,154 261.9375,153.2188 Q263.2188,152.4375 265.0938,152.4375 Q265.9844,152.4375 266.6563,152.625 Q267.3281,152.7969 268.0156,153.1406 L267.2031,155.1563 Q266.5781,154.8438 266.0313,154.7188 Q265.5,154.5938 265.0156,154.5938 Q263.8438,154.5938 263.1406,155.125 Q262.4375,155.6563 262.1406,156.6094 Q261.8438,157.5625 261.8438,158.8281 Q261.8438,160.8438 262.5625,161.8125 Q263.2813,162.7656 264.875,162.7656 Q265.4688,162.7656 266.0938,162.6094 Q266.7188,162.4531 267.5469,162.0781 L267.5469,164.2969 Q266.8125,164.6094 266.0156,164.7656 Q265.2344,164.9219 264.4688,164.9219 Z " fill="#000000"/><text fill="#000000" font-family="sans-serif" font-size="14" lengthAdjust="spacing" textLength="108" x="279" y="163.432">EnlaceArmonico</text></g><!--class MapaArmonico--><g id="elem_MapaArmonico"><rect codeLine="18" fill="#F1F1F1" height="32" id="MapaArmonico" rx="2.5" ry="2.5" style="stroke:#181818;stroke-width:0.5;" width="134" x="22" y="142"/><ellipse cx="37" cy="158" fill="#ADD1B2" rx="11" ry="11" style="stroke:#181818;stroke-width:1.0;"/><path d="M36.4688,164.9219 Q34.7188,164.9219 33.5781,164.1875 Q32.4531,163.4375 31.8906,162.0938 Q31.3438,160.7344 31.3438,158.9375 Q31.3438,156.9063 32,155.4531 Q32.6563,154 33.9375,153.2188 Q35.2188,152.4375 37.0938,152.4375 Q37.9844,152.4375 38.6563,152.625 Q39.3281,152.7969 40.0156,153.1406 L39.2031,155.1563 Q38.5781,154.8438 38.0313,154.7188 Q37.5,154.5938 37.0156,154.5938 Q35.8438,154.5938 35.1406,155.125 Q34.4375,155.6563 34.1406,156.6094 Q33.8438,157.5625 33.8438,158.8281 Q33.8438,160.8438 34.5625,161.8125 Q35.2813,162.7656 36.875,162.7656 Q37.4688,162.7656 38.0938,162.6094 Q38.7188,162.4531 39.5469,162.0781 L39.5469,164.2969 Q38.8125,164.6094 38.0156,164.7656 Q37.2344,164.9219 36.4688,164.9219 Z " fill="#000000"/><text fill="#000000" font-family="sans-serif" font-size="14" lengthAdjust="spacing" textLength="102" x="51" y="163.432">MapaArmonico</text></g><!--class ProgresionArmonica--><g id="elem_ProgresionArmonica"><rect codeLine="5" fill="#F1F1F1" height="32" id="ProgresionArmonica" rx="2.5" ry="2.5" style="stroke:#181818;stroke-width:0.5;" width="169" x="391.5" y="7"/><ellipse cx="406.5" cy="23" fill="#ADD1B2" rx="11" ry="11" style="stroke:#181818;stroke-width:1.0;"/><path d="M405.9688,29.9219 Q404.2188,29.9219 403.0781,29.1875 Q401.9531,28.4375 401.3906,27.0938 Q400.8438,25.7344 400.8438,23.9375 Q400.8438,21.9063 401.5,20.4531 Q402.1563,19 403.4375,18.2188 Q404.7188,17.4375 406.5938,17.4375 Q407.4844,17.4375 408.1563,17.625 Q408.8281,17.7969 409.5156,18.1406 L408.7031,20.1563 Q408.0781,19.8438 407.5313,19.7188 Q407,19.5938 406.5156,19.5938 Q405.3438,19.5938 404.6406,20.125 Q403.9375,20.6563 403.6406,21.6094 Q403.3438,22.5625 403.3438,23.8281 Q403.3438,25.8438 404.0625,26.8125 Q404.7813,27.7656 406.375,27.7656 Q406.9688,27.7656 407.5938,27.6094 Q408.2188,27.4531 409.0469,27.0781 L409.0469,29.2969 Q408.3125,29.6094 407.5156,29.7656 Q406.7344,29.9219 405.9688,29.9219 Z " fill="#000000"/><text fill="#000000" font-family="sans-serif" font-size="14" lengthAdjust="spacing" textLength="137" x="420.5" y="28.432">ProgresionArmonica</text></g><!--reverse link Escala to Nota--><g id="link_Escala_Nota"><path codeLine="22" d="M169.04,295 C196.04,295 220.25,295 246,295 " fill="none" id="Escala-backto-Nota" style="stroke:#181818;stroke-width:1.0;"/><polygon fill="#181818" points="157.04,295,163.04,299,169.04,295,163.04,291,157.04,295" style="stroke:#181818;stroke-width:1.0;"/><text fill="#000000" font-family="sans-serif" font-size="13" lengthAdjust="spacing" textLength="52" x="175.5" y="287.897">contiene</text></g><!--link Nota to Acorde--><g id="link_Nota_Acorde"><path codeLine="23" d="M310.22,295 C327.53,295 337.03,295 355.36,295 " fill="none" id="Nota-to-Acorde" style="stroke:#181818;stroke-width:1.0;"/><polygon fill="none" points="367.36,295,361.36,291,355.36,295,361.36,299,367.36,295" style="stroke:#181818;stroke-width:1.0;"/><text fill="#000000" font-family="sans-serif" font-size="13" lengthAdjust="spacing" textLength="21" x="328.25" y="287.897">ra&#237;z</text></g><!--reverse link Acorde to Calidad--><g id="link_Acorde_Calidad"><path codeLine="24" d="M458.66,295 C479.3,295 492.51,295 513.42,295 " fill="none" id="Acorde-backto-Calidad" style="stroke:#181818;stroke-width:1.0;"/><polygon fill="none" points="446.66,295,452.66,299,458.66,295,452.66,291,446.66,295" style="stroke:#181818;stroke-width:1.0;"/><text fill="#000000" font-family="sans-serif" font-size="13" lengthAdjust="spacing" textLength="30" x="465" y="287.897">tiene</text></g><!--reverse link MapaArmonico to EnlaceArmonico--><g id="link_MapaArmonico_EnlaceArmonico"><path codeLine="27" d="M168.13,158 C197.56,158 220.12,158 249.89,158 " fill="none" id="MapaArmonico-backto-EnlaceArmonico" style="stroke:#181818;stroke-width:1.0;"/><polygon fill="#181818" points="156.13,158,162.13,162,168.13,158,162.13,154,156.13,158" style="stroke:#181818;stroke-width:1.0;"/><text fill="#000000" font-family="sans-serif" font-size="13" lengthAdjust="spacing" textLength="57" x="174.5" y="150.897">compone</text></g><!--reverse link GradoArmonico to Acorde--><g id="link_GradoArmonico_Acorde"><path codeLine="28" d="M477.9496,184.3779 C469.4696,197.7679 463.18,207.65 452,225 C439.99,243.64 426.03,265 416.88,278.96 " fill="none" id="GradoArmonico-backto-Acorde" style="stroke:#181818;stroke-width:1.0;"/><polygon fill="none" points="484.37,174.24,477.7805,177.1688,477.9496,184.3779,484.5391,181.4491,484.37,174.24" style="stroke:#181818;stroke-width:1.0;"/><text fill="#000000" font-family="sans-serif" font-size="13" lengthAdjust="spacing" textLength="65" x="464" y="220.897">representa</text></g><!--reverse link GradoArmonico to FuncionArmonica--><g id="link_GradoArmonico_FuncionArmonica"><path codeLine="29" d="M574.73,158 C600.19,158 617.18,158 643.16,158 " fill="none" id="GradoArmonico-backto-FuncionArmonica" style="stroke:#181818;stroke-width:1.0;"/><polygon fill="none" points="562.73,158,568.73,162,574.73,158,568.73,154,562.73,158" style="stroke:#181818;stroke-width:1.0;"/><text fill="#000000" font-family="sans-serif" font-size="13" lengthAdjust="spacing" textLength="44" x="581" y="150.897">cumple</text></g><!--link Acorde to EnlaceArmonico--><g id="link_Acorde_EnlaceArmonico"><path codeLine="30" d="M402.24,278.78 C396.08,260.49 384.19,229.34 368,206 C359.76,194.12 357.215,190.6855 347.525,182.0855 " fill="none" id="Acorde-to-EnlaceArmonico" style="stroke:#181818;stroke-width:1.0;"/><polygon fill="none" points="338.55,174.12,340.3824,181.0944,347.525,182.0855,345.6927,175.1111,338.55,174.12" style="stroke:#181818;stroke-width:1.0;"/><text fill="#000000" font-family="sans-serif" font-size="13" lengthAdjust="spacing" textLength="39" x="379" y="220.897">origen</text></g><!--reverse link EnlaceArmonico to Acorde--><g id="link_EnlaceArmonico_Acorde"><path codeLine="31" d="M309.5301,185.5543 C304.5801,199.6743 303.98,209.45 313,225 C316.6,231.2 321.03,229.04 327,233 C348.98,247.57 372.87,266.17 388.76,278.99 " fill="none" id="EnlaceArmonico-backto-Acorde" style="stroke:#181818;stroke-width:1.0;"/><polygon fill="none" points="313.5,174.23,307.7403,178.5688,309.5301,185.5543,315.2898,181.2155,313.5,174.23" style="stroke:#181818;stroke-width:1.0;"/><text fill="#000000" font-family="sans-serif" font-size="13" lengthAdjust="spacing" textLength="45" x="314" y="220.897">destino</text></g><!--reverse link MapaArmonico to Escala--><g id="link_MapaArmonico_Escala"><path codeLine="32" d="M95.1838,185.916 C101.1338,211.846 110.49,252.59 116.47,278.62 " fill="none" id="MapaArmonico-backto-Escala" style="stroke:#181818;stroke-width:1.0;"/><polygon fill="none" points="92.5,174.22,89.9432,180.9626,95.1838,185.916,97.7406,179.1734,92.5,174.22" style="stroke:#181818;stroke-width:1.0;"/><text fill="#000000" font-family="sans-serif" font-size="13" lengthAdjust="spacing" textLength="86" x="105" y="220.897">corresponde a</text></g><!--reverse link MapaArmonico to ProgresionArmonica--><g id="link_MapaArmonico_ProgresionArmonica"><path codeLine="35" d="M126.6897,139.4917 C155.3897,126.4117 193.27,109.92 232,96 C294.76,73.44 368.37,52.44 418.2,39.02 " fill="none" id="MapaArmonico-backto-ProgresionArmonica" style="stroke:#181818;stroke-width:1.0;stroke-dasharray:7.0,7.0;"/><polygon fill="#181818" points="121.23,141.98,131.0784,141.8874,125.7798,139.9064,127.7607,134.6078,121.23,141.98" style="stroke:#181818;stroke-width:1.0;"/><text fill="#000000" font-family="sans-serif" font-size="13" lengthAdjust="spacing" textLength="51" x="313" y="83.897">consulta</text></g><!--reverse link ProgresionArmonica to Acorde--><g id="link_ProgresionArmonica_Acorde"><path codeLine="36" d="M572.7915,31.6932 C660.7015,40.4032 777.5,58.18 808,96 C836.46,131.29 838.22,164.2 808,198 C761.5,250.01 561.39,208.67 496,233 C468.09,243.39 440.51,264.4 423.63,278.84 " fill="none" id="ProgresionArmonica-backto-Acorde" style="stroke:#181818;stroke-width:1.0;"/><polygon fill="none" points="560.85,30.51,566.4264,35.0821,572.7915,31.6932,567.2151,27.1211,560.85,30.51" style="stroke:#181818;stroke-width:1.0;"/><text fill="#000000" font-family="sans-serif" font-size="13" lengthAdjust="spacing" textLength="58" x="831" y="163.397">secuencia</text></g><!--SRC=[RL9BJiCm4Dtx5BEhX9GSW0LIXO1LKGLSOB17mQf_ifD5G1ofAuwGYp7vjKxIx3oVzvliqacxW14j6EseRWD1yARj7-9BAmAoeMx1alsac8IG1bE2O_HLfAIzsqVhdPOeH41vmehWWtpKU6WILmty2E1lt7hrDMRFHpHQeSegU-cZegpmb1W3nUyL_LsdcYnEj7w1_n9H-RcJrPyR9tEf6RupAEd6oW73XQEdty4RyIYZK08rckpE29DDCGg5ko8MWqsu1-bThObZ75s1Byob5x4xVryRl3I5mRrnQSrePkV0ihg_GLSkagbNRWO9Dl2-M0J3VCMKTA-40X-I75zcFRNEhGTiR30aLaI-Q394ldv5RZkJZIXAjNOh0_t456ElFB8i5i_pk8r__lyu2B7z5w4iIrC-B8uu7YGrXetUs63oJ5yYsH1xH_4F]--></g></svg>