<?xml version="1.0" encoding="us-ascii" standalone="no"?><svg xmlns="http://www.w3.org/2000/svg" xmlns:xlink="http://www.w3.org/1999/xlink" contentStyleType="text/css" height="509px" preserveAspectRatio="none" style="width:899px;height:509px;background:#FFFFFF;" version="1.1" viewBox="0 0 899 509" width="899px" zoomAndPan="magnify"><defs/><g><!--cluster TeoriaMusical--><g id="cluster_TeoriaMusical"><path d="M202.5,273 L298.5,273 A3.75,3.75 0 0 1 301,275.5 L308,298.0679 L453.5,298.0679 A2.5,2.5 0 0 1 456,300.5679 L456,499.5 A2.5,2.5 0 0 1 453.5,502 L202.5,502 A2.5,2.5 0 0 1 200,499.5 L200,275.5 A2.5,2.5 0 0 1 202.5,273 " fill="none" style="stroke:#000000;stroke-width:1.5;"/><line style="stroke:#000000;stroke-width:1.5;" x1="200" x2="308" y1="298.0679" y2="298.0679"/><text fill="#000000" font-family="sans-serif" font-size="14" font-weight="bold" lengthAdjust="spacing" textLength="95" x="204" y="289.9659">TeoriaMusical</text></g><!--cluster SistemaArmonico--><g id="cluster_SistemaArmonico"><path d="M8.5,120 L132.5,120 A3.75,3.75 0 0 1 135,122.5 L142,145.0679 L805.5,145.0679 A2.5,2.5 0 0 1 808,147.5679 L808,219.5 A2.5,2.5 0 0 1 805.5,222 L8.5,222 A2.5,2.5 0 0 1 6,219.5 L6,122.5 A2.5,2.5 0 0 1 8.5,120 " fill="none" style="stroke:#000000;stroke-width:1.5;"/><line style="stroke:#000000;stroke-width:1.5;" x1="6" x2="142" y1="145.0679" y2="145.0679"/><text fill="#000000" font-family="sans-serif" font-size="14" font-weight="bold" lengthAdjust="spacing" textLength="123" x="10" y="136.9659">SistemaArmonico</text></g><!--class Nota--><g id="elem_Nota"><rect codeLine="7" fill="#F1F1F1" height="48" id="Nota" rx="2.5" ry="2.5" style="stroke:#181818;stroke-width:0.5;" width="64" x="238" y="438"/><ellipse cx="253" cy="454" fill="#ADD1B2" rx="11" ry="11" style="stroke:#181818;stroke-width:1.0;"/><path d="M252.4688,460.9219 Q250.7188,460.9219 249.5781,460.1875 Q248.4531,459.4375 247.8906,458.0938 Q247.3438,456.7344 247.3438,454.9375 Q247.3438,452.9063 248,451.4531 Q248.6563,450 249.9375,449.2188 Q251.2188,448.4375 253.0938,448.4375 Q253.9844,448.4375 254.6563,448.625 Q255.3281,448.7969 256.0156,449.1406 L255.2031,451.1563 Q254.5781,450.8438 254.0313,450.7188 Q253.5,450.5938 253.0156,450.5938 Q251.8438,450.5938 251.1406,451.125 Q250.4375,451.6563 250.1406,452.6094 Q249.8438,453.5625 249.8438,454.8281 Q249.8438,456.8438 250.5625,457.8125 Q251.2813,458.7656 252.875,458.7656 Q253.4688,458.7656 254.0938,458.6094 Q254.7188,458.4531 255.5469,458.0781 L255.5469,460.2969 Q254.8125,460.6094 254.0156,460.7656 Q253.2344,460.9219 252.4688,460.9219 Z " fill="#000000"/><text fill="#000000" font-family="sans-serif" font-size="14" lengthAdjust="spacing" textLength="32" x="267" y="459.432">Nota</text><line style="stroke:#181818;stroke-width:0.5;" x1="239" x2="301" y1="470" y2="470"/><line style="stroke:#181818;stroke-width:0.5;" x1="239" x2="301" y1="478" y2="478"/></g><!--class Calidad--><g id="elem_Calidad"><rect codeLine="8" fill="#F1F1F1" height="48" id="Calidad" rx="2.5" ry="2.5" style="stroke:#181818;stroke-width:0.5;" width="83" x="356.5" y="438"/><ellipse cx="371.5" cy="454" fill="#ADD1B2" rx="11" ry="11" style="stroke:#181818;stroke-width:1.0;"/><path d="M370.9688,460.9219 Q369.2188,460.9219 368.0781,460.1875 Q366.9531,459.4375 366.3906,458.0938 Q365.8438,456.7344 365.8438,454.9375 Q365.8438,452.9063 366.5,451.4531 Q367.1563,450 368.4375,449.2188 Q369.7188,448.4375 371.5938,448.4375 Q372.4844,448.4375 373.1563,448.625 Q373.8281,448.7969 374.5156,449.1406 L373.7031,451.1563 Q373.0781,450.8438 372.5313,450.7188 Q372,450.5938 371.5156,450.5938 Q370.3438,450.5938 369.6406,451.125 Q368.9375,451.6563 368.6406,452.6094 Q368.3438,453.5625 368.3438,454.8281 Q368.3438,456.8438 369.0625,457.8125 Q369.7813,458.7656 371.375,458.7656 Q371.9688,458.7656 372.5938,458.6094 Q373.2188,458.4531 374.0469,458.0781 L374.0469,460.2969 Q373.3125,460.6094 372.5156,460.7656 Q371.7344,460.9219 370.9688,460.9219 Z " fill="#000000"/><text fill="#000000" font-family="sans-serif" font-size="14" lengthAdjust="spacing" textLength="51" x="385.5" y="459.432">Calidad</text><line style="stroke:#181818;stroke-width:0.5;" x1="357.5" x2="438.5" y1="470" y2="470"/><line style="stroke:#181818;stroke-width:0.5;" x1="357.5" x2="438.5" y1="478" y2="478"/></g><!--class Acorde--><g id="elem_Acorde"><rect codeLine="9" fill="#F1F1F1" height="48" id="Acorde" rx="2.5" ry="2.5" style="stroke:#181818;stroke-width:0.5;" width="79" x="361.5" y="311"/><ellipse cx="376.5" cy="327" fill="#ADD1B2" rx="11" ry="11" style="stroke:#181818;stroke-width:1.0;"/><path d="M375.9688,333.9219 Q374.2188,333.9219 373.0781,333.1875 Q371.9531,332.4375 371.3906,331.0938 Q370.8438,329.7344 370.8438,327.9375 Q370.8438,325.9063 371.5,324.4531 Q372.1563,323 373.4375,322.2188 Q374.7188,321.4375 376.5938,321.4375 Q377.4844,321.4375 378.1563,321.625 Q378.8281,321.7969 379.5156,322.1406 L378.7031,324.1563 Q378.0781,323.8438 377.5313,323.7188 Q377,323.5938 376.5156,323.5938 Q375.3438,323.5938 374.6406,324.125 Q373.9375,324.6563 373.6406,325.6094 Q373.3438,326.5625 373.3438,327.8281 Q373.3438,329.8438 374.0625,330.8125 Q374.7813,331.7656 376.375,331.7656 Q376.9688,331.7656 377.5938,331.6094 Q378.2188,331.4531 379.0469,331.0781 L379.0469,333.2969 Q378.3125,333.6094 377.5156,333.7656 Q376.7344,333.9219 375.9688,333.9219 Z " fill="#000000"/><text fill="#000000" font-family="sans-serif" font-size="14" lengthAdjust="spacing" textLength="47" x="390.5" y="332.432">Acorde</text><line style="stroke:#181818;stroke-width:0.5;" x1="362.5" x2="439.5" y1="343" y2="343"/><line style="stroke:#181818;stroke-width:0.5;" x1="362.5" x2="439.5" y1="351" y2="351"/></g><!--class Escala--><g id="elem_Escala"><rect codeLine="10" fill="#F1F1F1" height="48" id="Escala" rx="2.5" ry="2.5" style="stroke:#181818;stroke-width:0.5;" width="74" x="216" y="311"/><ellipse cx="231" cy="327" fill="#ADD1B2" rx="11" ry="11" style="stroke:#181818;stroke-width:1.0;"/><path d="M230.4688,333.9219 Q228.7188,333.9219 227.5781,333.1875 Q226.4531,332.4375 225.8906,331.0938 Q225.3438,329.7344 225.3438,327.9375 Q225.3438,325.9063 226,324.4531 Q226.6563,323 227.9375,322.2188 Q229.2188,321.4375 231.0938,321.4375 Q231.9844,321.4375 232.6563,321.625 Q233.3281,321.7969 234.0156,322.1406 L233.2031,324.1563 Q232.5781,323.8438 232.0313,323.7188 Q231.5,323.5938 231.0156,323.5938 Q229.8438,323.5938 229.1406,324.125 Q228.4375,324.6563 228.1406,325.6094 Q227.8438,326.5625 227.8438,327.8281 Q227.8438,329.8438 228.5625,330.8125 Q229.2813,331.7656 230.875,331.7656 Q231.4688,331.7656 232.0938,331.6094 Q232.7188,331.4531 233.5469,331.0781 L233.5469,333.2969 Q232.8125,333.6094 232.0156,333.7656 Q231.2344,333.9219 230.4688,333.9219 Z " fill="#000000"/><text fill="#000000" font-family="sans-serif" font-size="14" lengthAdjust="spacing" textLength="42" x="245" y="332.432">Escala</text><line style="stroke:#181818;stroke-width:0.5;" x1="217" x2="289" y1="343" y2="343"/><line style="stroke:#181818;stroke-width:0.5;" x1="217" x2="289" y1="351" y2="351"/></g><!--class GradoArmonico--><g id="elem_GradoArmonico"><rect codeLine="14" fill="#F1F1F1" height="48" id="GradoArmonico" rx="2.5" ry="2.5" style="stroke:#181818;stroke-width:0.5;" width="137" x="425.5" y="158"/><ellipse cx="440.5" cy="174" fill="#ADD1B2" rx="11" ry="11" style="stroke:#181818;stroke-width:1.0;"/><path d="M439.9688,180.9219 Q438.2188,180.9219 437.0781,180.1875 Q435.9531,179.4375 435.3906,178.0938 Q434.8438,176.7344 434.8438,174.9375 Q434.8438,172.9063 435.5,171.4531 Q436.1563,170 437.4375,169.2188 Q438.7188,168.4375 440.5938,168.4375 Q441.4844,168.4375 442.1563,168.625 Q442.8281,168.7969 443.5156,169.1406 L442.7031,171.1563 Q442.0781,170.8438 441.5313,170.7188 Q441,170.5938 440.5156,170.5938 Q439.3438,170.5938 438.6406,171.125 Q437.9375,171.6563 437.6406,172.6094 Q437.3438,173.5625 437.3438,174.8281 Q437.3438,176.8438 438.0625,177.8125 Q438.7813,178.7656 440.375,178.7656 Q440.9688,178.7656 441.5938,178.6094 Q442.2188,178.4531 443.0469,178.0781 L443.0469,180.2969 Q442.3125,180.6094 441.5156,180.7656 Q440.7344,180.9219 439.9688,180.9219 Z " fill="#000000"/><text fill="#000000" font-family="sans-serif" font-size="14" lengthAdjust="spacing" textLength="105" x="454.5" y="179.432">GradoArmonico</text><line style="stroke:#181818;stroke-width:0.5;" x1="426.5" x2="561.5" y1="190" y2="190"/><line style="stroke:#181818;stroke-width:0.5;" x1="426.5" x2="561.5" y1="198" y2="198"/></g><!--class FuncionArmonica--><g id="elem_FuncionArmonica"><rect codeLine="15" fill="#F1F1F1" height="48" id="FuncionArmonica" rx="2.5" ry="2.5" style="stroke:#181818;stroke-width:0.5;" width="149" x="643.5" y="158"/><ellipse cx="658.5" cy="174" fill="#ADD1B2" rx="11" ry="11" style="stroke:#181818;stroke-width:1.0;"/><path d="M657.9688,180.9219 Q656.2188,180.9219 655.0781,180.1875 Q653.9531,179.4375 653.3906,178.0938 Q652.8438,176.7344 652.8438,174.9375 Q652.8438,172.9063 653.5,171.4531 Q654.1563,170 655.4375,169.2188 Q656.7188,168.4375 658.5938,168.4375 Q659.4844,168.4375 660.1563,168.625 Q660.8281,168.7969 661.5156,169.1406 L660.7031,171.1563 Q660.0781,170.8438 659.5313,170.7188 Q659,170.5938 658.5156,170.5938 Q657.3438,170.5938 656.6406,171.125 Q655.9375,171.6563 655.6406,172.6094 Q655.3438,173.5625 655.3438,174.8281 Q655.3438,176.8438 656.0625,177.8125 Q656.7813,178.7656 658.375,178.7656 Q658.9688,178.7656 659.5938,178.6094 Q660.2188,178.4531 661.0469,178.0781 L661.0469,180.2969 Q660.3125,180.6094 659.5156,180.7656 Q658.7344,180.9219 657.9688,180.9219 Z " fill="#000000"/><text fill="#000000" font-family="sans-serif" font-size="14" lengthAdjust="spacing" textLength="117" x="672.5" y="179.432">FuncionArmonica</text><line style="stroke:#181818;stroke-width:0.5;" x1="644.5" x2="791.5" y1="190" y2="190"/><line style="stroke:#181818;stroke-width:0.5;" x1="644.5" x2="791.5" y1="198" y2="198"/></g><!--class EnlaceArmonico--><g id="elem_EnlaceArmonico"><rect codeLine="16" fill="#F1F1F1" height="48" id="EnlaceArmonico" rx="2.5" ry="2.5" style="stroke:#181818;stroke-width:0.5;" width="140" x="250" y="158"/><ellipse cx="265" cy="174" fill="#ADD1B2" rx="11" ry="11" style="stroke:#181818;stroke-width:1.0;"/><path d="M264.4688,180.9219 Q262.7188,180.9219 261.5781,180.1875 Q260.4531,179.4375 259.8906,178.0938 Q259.3438,176.7344 259.3438,174.9375 Q259.3438,172.9063 260,171.4531 Q260.6563,170 261.9375,169.2188 Q263.2188,168.4375 265.0938,168.4375 Q265.9844,168.4375 266.6563,168.625 Q267.3281,168.7969 268.0156,169.1406 L267.2031,171.1563 Q266.5781,170.8438 266.0313,170.7188 Q265.5,170.5938 265.0156,170.5938 Q263.8438,170.5938 263.1406,171.125 Q262.4375,171.6563 262.1406,172.6094 Q261.8438,173.5625 261.8438,174.8281 Q261.8438,176.8438 262.5625,177.8125 Q263.2813,178.7656 264.875,178.7656 Q265.4688,178.7656 266.0938,178.6094 Q266.7188,178.4531 267.5469,178.0781 L267.5469,180.2969 Q266.8125,180.6094 266.0156,180.7656 Q265.2344,180.9219 264.4688,180.9219 Z " fill="#000000"/><text fill="#000000" font-family="sans-serif" font-size="14" lengthAdjust="spacing" textLength="108" x="279" y="179.432">EnlaceArmonico</text><line style="stroke:#181818;stroke-width:0.5;" x1="251" x2="389" y1="190" y2="190"/><line style="stroke:#181818;stroke-width:0.5;" x1="251" x2="389" y1="198" y2="198"/></g><!--class MapaArmonico--><g id="elem_MapaArmonico"><rect codeLine="17" fill="#F1F1F1" height="48" id="MapaArmonico" rx="2.5" ry="2.5" style="stroke:#181818;stroke-width:0.5;" width="134" x="22" y="158"/><ellipse cx="37" cy="174" fill="#ADD1B2" rx="11" ry="11" style="stroke:#181818;stroke-width:1.0;"/><path d="M36.4688,180.9219 Q34.7188,180.9219 33.5781,180.1875 Q32.4531,179.4375 31.8906,178.0938 Q31.3438,176.7344 31.3438,174.9375 Q31.3438,172.9063 32,171.4531 Q32.6563,170 33.9375,169.2188 Q35.2188,168.4375 37.0938,168.4375 Q37.9844,168.4375 38.6563,168.625 Q39.3281,168.7969 40.0156,169.1406 L39.2031,171.1563 Q38.5781,170.8438 38.0313,170.7188 Q37.5,170.5938 37.0156,170.5938 Q35.8438,170.5938 35.1406,171.125 Q34.4375,171.6563 34.1406,172.6094 Q33.8438,173.5625 33.8438,174.8281 Q33.8438,176.8438 34.5625,177.8125 Q35.2813,178.7656 36.875,178.7656 Q37.4688,178.7656 38.0938,178.6094 Q38.7188,178.4531 39.5469,178.0781 L39.5469,180.2969 Q38.8125,180.6094 38.0156,180.7656 Q37.2344,180.9219 36.4688,180.9219 Z " fill="#000000"/><text fill="#000000" font-family="sans-serif" font-size="14" lengthAdjust="spacing" textLength="102" x="51" y="179.432">MapaArmonico</text><line style="stroke:#181818;stroke-width:0.5;" x1="23" x2="155" y1="190" y2="190"/><line style="stroke:#181818;stroke-width:0.5;" x1="23" x2="155" y1="198" y2="198"/></g><!--class ProgresionArmonica--><g id="elem_ProgresionArmonica"><rect codeLine="4" fill="#F1F1F1" height="48" id="ProgresionArmonica" rx="2.5" ry="2.5" style="stroke:#181818;stroke-width:0.5;" width="169" x="391.5" y="7"/><ellipse cx="406.5" cy="23" fill="#ADD1B2" rx="11" ry="11" style="stroke:#181818;stroke-width:1.0;"/><path d="M405.9688,29.9219 Q404.2188,29.9219 403.0781,29.1875 Q401.9531,28.4375 401.3906,27.0938 Q400.8438,25.7344 400.8438,23.9375 Q400.8438,21.9063 401.5,20.4531 Q402.1563,19 403.4375,18.2188 Q404.7188,17.4375 406.5938,17.4375 Q407.4844,17.4375 408.1563,17.625 Q408.8281,17.7969 409.5156,18.1406 L408.7031,20.1563 Q408.0781,19.8438 407.5313,19.7188 Q407,19.5938 406.5156,19.5938 Q405.3438,19.5938 404.6406,20.125 Q403.9375,20.6563 403.6406,21.6094 Q403.3438,22.5625 403.3438,23.8281 Q403.3438,25.8438 404.0625,26.8125 Q404.7813,27.7656 406.375,27.7656 Q406.9688,27.7656 407.5938,27.6094 Q408.2188,27.4531 409.0469,27.0781 L409.0469,29.2969 Q408.3125,29.6094 407.5156,29.7656 Q406.7344,29.9219 405.9688,29.9219 Z " fill="#000000"/><text fill="#000000" font-family="sans-serif" font-size="14" lengthAdjust="spacing" textLength="137" x="420.5" y="28.432">ProgresionArmonica</text><line style="stroke:#181818;stroke-width:0.5;" x1="392.5" x2="559.5" y1="39" y2="39"/><line style="stroke:#181818;stroke-width:0.5;" x1="392.5" x2="559.5" y1="47" y2="47"/></g><!--reverse link Escala to Nota--><g id="link_Escala_Nota"><path codeLine="21" d="M246.5275,371.0899 C244.4175,385.2999 244.79,391.9 248,408 C250.03,418.16 254.04,428.81 258.08,437.88 " fill="none" id="Escala-backto-Nota" style="stroke:#181818;stroke-width:1.0;"/><polygon fill="#181818" points="248.29,359.22,243.4521,364.5674,246.5275,371.0899,251.3654,365.7424,248.29,359.22" style="stroke:#181818;stroke-width:1.0;"/><text fill="#000000" font-family="sans-serif" font-size="13" lengthAdjust="spacing" textLength="52" x="249" y="403.897">contiene</text></g><!--reverse link Acorde to Nota--><g id="link_Acorde_Nota"><path codeLine="22" d="M367.9878,367.5037 C344.4578,389.9537 317.69,415.5 294.2,437.91 " fill="none" id="Acorde-backto-Nota" style="stroke:#181818;stroke-width:1.0;"/><polygon fill="none" points="376.67,359.22,369.5677,360.4678,367.9878,367.5037,375.0901,366.2559,376.67,359.22" style="stroke:#181818;stroke-width:1.0;"/><text fill="#000000" font-family="sans-serif" font-size="13" lengthAdjust="spacing" textLength="21" x="344" y="403.897">ra&#237;z</text></g><!--reverse link Acorde to Calidad--><g id="link_Acorde_Calidad"><path codeLine="23" d="M400.1514,371.2165 C399.6114,393.6665 399.09,415.5 398.55,437.91 " fill="none" id="Acorde-backto-Calidad" style="stroke:#181818;stroke-width:1.0;"/><polygon fill="none" points="400.44,359.22,396.2969,365.1221,400.1514,371.2165,404.2946,365.3145,400.44,359.22" style="stroke:#181818;stroke-width:1.0;"/><text fill="#000000" font-family="sans-serif" font-size="13" lengthAdjust="spacing" textLength="30" x="400" y="403.897">tiene</text></g><!--reverse link MapaArmonico to EnlaceArmonico--><g id="link_MapaArmonico_EnlaceArmonico"><path codeLine="26" d="M168.13,182 C197.56,182 220.12,182 249.89,182 " fill="none" id="MapaArmonico-backto-EnlaceArmonico" style="stroke:#181818;stroke-width:1.0;"/><polygon fill="#181818" points="156.13,182,162.13,186,168.13,182,162.13,178,156.13,182" style="stroke:#181818;stroke-width:1.0;"/><text fill="#000000" font-family="sans-serif" font-size="13" lengthAdjust="spacing" textLength="57" x="174.5" y="174.897">compone</text></g><!--reverse link GradoArmonico to Acorde--><g id="link_GradoArmonico_Acorde"><path codeLine="27" d="M473.3792,216.4789 C455.8592,244.9389 432.66,282.6 415.19,310.96 " fill="none" id="GradoArmonico-backto-Acorde" style="stroke:#181818;stroke-width:1.0;"/><polygon fill="none" points="479.67,206.26,473.1183,209.2725,473.3792,216.4789,479.9309,213.4664,479.67,206.26" style="stroke:#181818;stroke-width:1.0;"/><text fill="#000000" font-family="sans-serif" font-size="13" lengthAdjust="spacing" textLength="65" x="459" y="252.897">representa</text></g><!--reverse link GradoArmonico to FuncionArmonica--><g id="link_GradoArmonico_FuncionArmonica"><path codeLine="28" d="M574.73,182 C600.19,182 617.18,182 643.16,182 " fill="none" id="GradoArmonico-backto-FuncionArmonica" style="stroke:#181818;stroke-width:1.0;"/><polygon fill="none" points="562.73,182,568.73,186,574.73,182,568.73,178,562.73,182" style="stroke:#181818;stroke-width:1.0;"/><text fill="#000000" font-family="sans-serif" font-size="13" lengthAdjust="spacing" textLength="44" x="581" y="174.897">cumple</text></g><!--reverse link EnlaceArmonico to Acorde--><g id="link_EnlaceArmonico_Acorde"><path codeLine="29" d="M311.8175,218.1308 C309.1075,233.2108 310.01,241.11 317,257 C326.72,279.09 346.25,297.62 364.04,310.95 " fill="none" id="EnlaceArmonico-backto-Acorde" style="stroke:#181818;stroke-width:1.0;"/><polygon fill="none" points="313.94,206.32,308.9418,211.5179,311.8175,218.1308,316.8157,212.9329,313.94,206.32" style="stroke:#181818;stroke-width:1.0;"/><text fill="#000000" font-family="sans-serif" font-size="13" lengthAdjust="spacing" textLength="39" x="318" y="252.897">origen</text></g><!--reverse link EnlaceArmonico to Acorde--><g id="link_EnlaceArmonico_Acorde"><path codeLine="30" d="M347.3258,215.5168 C354.8758,224.9968 355.68,226.94 362,238 C375.47,261.59 386.62,290.75 393.5,310.7 " fill="none" id="EnlaceArmonico-backto-Acorde-1" style="stroke:#181818;stroke-width:1.0;"/><polygon fill="none" points="339.85,206.13,340.459,213.3153,347.3258,215.5168,346.7168,208.3315,339.85,206.13" style="stroke:#181818;stroke-width:1.0;"/><text fill="#000000" font-family="sans-serif" font-size="13" lengthAdjust="spacing" textLength="45" x="372" y="252.897">destino</text></g><!--reverse link MapaArmonico to Escala--><g id="link_MapaArmonico_Escala"><path codeLine="31" d="M123.0966,214.3896 C153.9966,242.8496 197.18,282.6 227.97,310.96 " fill="none" id="MapaArmonico-backto-Escala" style="stroke:#181818;stroke-width:1.0;"/><polygon fill="none" points="114.27,206.26,115.9734,213.267,123.0966,214.3896,121.3932,207.3826,114.27,206.26" style="stroke:#181818;stroke-width:1.0;"/><text fill="#000000" font-family="sans-serif" font-size="13" lengthAdjust="spacing" textLength="15" x="167" y="252.897">en</text></g><!--reverse link ProgresionArmonica to Acorde--><g id="link_ProgresionArmonica_Acorde"><path codeLine="34" d="M572.4693,42.0424 C660.4693,52.9224 777.73,73.58 808,112 C840.45,153.2 840.17,188.58 808,230 C762.65,288.39 533.84,319.53 440.62,329.95 " fill="none" id="ProgresionArmonica-backto-Acorde" style="stroke:#181818;stroke-width:1.0;"/><polygon fill="none" points="560.56,40.57,566.0239,45.276,572.4693,42.0424,567.0055,37.3364,560.56,40.57" style="stroke:#181818;stroke-width:1.0;"/><text fill="#000000" font-family="sans-serif" font-size="13" lengthAdjust="spacing" textLength="58" x="833" y="187.397">secuencia</text></g><!--link ProgresionArmonica to MapaArmonico--><g id="link_ProgresionArmonica_MapaArmonico"><path codeLine="35" d="M397.38,55.06 C349.35,69.85 286.98,90.29 233,112 C198.92,125.71 166.8978,141.0092 138.7678,155.1892 " fill="none" id="ProgresionArmonica-to-MapaArmonico" style="stroke:#181818;stroke-width:1.0;stroke-dasharray:7.0,7.0;"/><polygon fill="#181818" points="133.41,157.89,143.2472,157.4107,137.8748,155.6393,139.6461,150.267,133.41,157.89" style="stroke:#181818;stroke-width:1.0;"/><text fill="#000000" font-family="sans-serif" font-size="13" lengthAdjust="spacing" textLength="51" x="306" y="99.897">consulta</text></g><!--SRC=[VLBDJiCm3BxdANoRXBGzm0v84m9EGmXu0IknfcXf4iNjOI0UQISUeI-6sxGipIPoYsD_VywAZzP7JDY0ivxQKoI8mPs6YrBQ8JEyfd18n3RuNMg2jngLYgYFU23ue90ixZkMgeCl1NBor4jeiRW-eBC6JL7PwP0C5OL75WnKtnVqTyijDJZHXWN-Sq8JvfUY_jHvNKejyBr3JJT6zXZ_E0Rw5RoHj0eACPXiiZyZJ3PL5Wftw_Ne4hQWWsyjIMJP58JBKyB-_5dMfoJaAO_KT6ws3QAf_nb5bGg5jx8o2cYYpAj5AYFTn2n2ACeMoSjQwguwj06mQw8ZLH4j06Np1_B_jXZYrlfA_z0nHRW50RZAU_vmObvTVxub0vFkICJZhSxDvdwntBmfxfnay0i0]--></g></svg>