<?xml version="1.0" encoding="us-ascii" standalone="no"?><svg xmlns="http://www.w3.org/2000/svg" xmlns:xlink="http://www.w3.org/1999/xlink" contentStyleType="text/css" height="553px" preserveAspectRatio="none" style="width:843px;height:553px;background:#FFFFFF;" version="1.1" viewBox="0 0 843 553" width="843px" zoomAndPan="magnify"><defs/><g><!--cluster TeoriaMusical--><g id="cluster_TeoriaMusical"><path d="M265.5,295 L361.5,295 A3.75,3.75 0 0 1 364,297.5 L371,320.0679 L516.5,320.0679 A2.5,2.5 0 0 1 519,322.5679 L519,543.5 A2.5,2.5 0 0 1 516.5,546 L265.5,546 A2.5,2.5 0 0 1 263,543.5 L263,297.5 A2.5,2.5 0 0 1 265.5,295 " fill="none" style="stroke:#000000;stroke-width:1.5;"/><line style="stroke:#000000;stroke-width:1.5;" x1="263" x2="371" y1="320.0679" y2="320.0679"/><text fill="#000000" font-family="sans-serif" font-size="14" font-weight="bold" lengthAdjust="spacing" textLength="95" x="267" y="311.9659">TeoriaMusical</text></g><!--cluster SistemaArmonico--><g id="cluster_SistemaArmonico"><path d="M8.5,120 L132.5,120 A3.75,3.75 0 0 1 135,122.5 L142,145.0679 L747.5,145.0679 A2.5,2.5 0 0 1 750,147.5679 L750,241.5 A2.5,2.5 0 0 1 747.5,244 L8.5,244 A2.5,2.5 0 0 1 6,241.5 L6,122.5 A2.5,2.5 0 0 1 8.5,120 " fill="none" style="stroke:#000000;stroke-width:1.5;"/><line style="stroke:#000000;stroke-width:1.5;" x1="6" x2="142" y1="145.0679" y2="145.0679"/><text fill="#000000" font-family="sans-serif" font-size="14" font-weight="bold" lengthAdjust="spacing" textLength="123" x="10" y="136.9659">SistemaArmonico</text></g><!--class Nota--><g id="elem_Nota"><rect codeLine="7" fill="#F1F1F1" height="48" id="Nota" rx="2.5" ry="2.5" style="stroke:#181818;stroke-width:0.5;" width="64" x="301" y="482"/><ellipse cx="316" cy="498" fill="#ADD1B2" rx="11" ry="11" style="stroke:#181818;stroke-width:1.0;"/><path d="M315.4688,504.9219 Q313.7188,504.9219 312.5781,504.1875 Q311.4531,503.4375 310.8906,502.0938 Q310.3438,500.7344 310.3438,498.9375 Q310.3438,496.9063 311,495.4531 Q311.6563,494 312.9375,493.2188 Q314.2188,492.4375 316.0938,492.4375 Q316.9844,492.4375 317.6563,492.625 Q318.3281,492.7969 319.0156,493.1406 L318.2031,495.1563 Q317.5781,494.8438 317.0313,494.7188 Q316.5,494.5938 316.0156,494.5938 Q314.8438,494.5938 314.1406,495.125 Q313.4375,495.6563 313.1406,496.6094 Q312.8438,497.5625 312.8438,498.8281 Q312.8438,500.8438 313.5625,501.8125 Q314.2813,502.7656 315.875,502.7656 Q316.4688,502.7656 317.0938,502.6094 Q317.7188,502.4531 318.5469,502.0781 L318.5469,504.2969 Q317.8125,504.6094 317.0156,504.7656 Q316.2344,504.9219 315.4688,504.9219 Z " fill="#000000"/><text fill="#000000" font-family="sans-serif" font-size="14" lengthAdjust="spacing" textLength="32" x="330" y="503.432">Nota</text><line style="stroke:#181818;stroke-width:0.5;" x1="302" x2="364" y1="514" y2="514"/><line style="stroke:#181818;stroke-width:0.5;" x1="302" x2="364" y1="522" y2="522"/></g><!--class Calidad--><g id="elem_Calidad"><rect codeLine="8" fill="#F1F1F1" height="48" id="Calidad" rx="2.5" ry="2.5" style="stroke:#181818;stroke-width:0.5;" width="83" x="419.5" y="482"/><ellipse cx="434.5" cy="498" fill="#ADD1B2" rx="11" ry="11" style="stroke:#181818;stroke-width:1.0;"/><path d="M433.9688,504.9219 Q432.2188,504.9219 431.0781,504.1875 Q429.9531,503.4375 429.3906,502.0938 Q428.8438,500.7344 428.8438,498.9375 Q428.8438,496.9063 429.5,495.4531 Q430.1563,494 431.4375,493.2188 Q432.7188,492.4375 434.5938,492.4375 Q435.4844,492.4375 436.1563,492.625 Q436.8281,492.7969 437.5156,493.1406 L436.7031,495.1563 Q436.0781,494.8438 435.5313,494.7188 Q435,494.5938 434.5156,494.5938 Q433.3438,494.5938 432.6406,495.125 Q431.9375,495.6563 431.6406,496.6094 Q431.3438,497.5625 431.3438,498.8281 Q431.3438,500.8438 432.0625,501.8125 Q432.7813,502.7656 434.375,502.7656 Q434.9688,502.7656 435.5938,502.6094 Q436.2188,502.4531 437.0469,502.0781 L437.0469,504.2969 Q436.3125,504.6094 435.5156,504.7656 Q434.7344,504.9219 433.9688,504.9219 Z " fill="#000000"/><text fill="#000000" font-family="sans-serif" font-size="14" lengthAdjust="spacing" textLength="51" x="448.5" y="503.432">Calidad</text><line style="stroke:#181818;stroke-width:0.5;" x1="420.5" x2="501.5" y1="514" y2="514"/><line style="stroke:#181818;stroke-width:0.5;" x1="420.5" x2="501.5" y1="522" y2="522"/></g><!--class Acorde--><g id="elem_Acorde"><rect codeLine="9" fill="#F1F1F1" height="48" id="Acorde" rx="2.5" ry="2.5" style="stroke:#181818;stroke-width:0.5;" width="79" x="424.5" y="355"/><ellipse cx="439.5" cy="371" fill="#ADD1B2" rx="11" ry="11" style="stroke:#181818;stroke-width:1.0;"/><path d="M438.9688,377.9219 Q437.2188,377.9219 436.0781,377.1875 Q434.9531,376.4375 434.3906,375.0938 Q433.8438,373.7344 433.8438,371.9375 Q433.8438,369.9063 434.5,368.4531 Q435.1563,367 436.4375,366.2188 Q437.7188,365.4375 439.5938,365.4375 Q440.4844,365.4375 441.1563,365.625 Q441.8281,365.7969 442.5156,366.1406 L441.7031,368.1563 Q441.0781,367.8438 440.5313,367.7188 Q440,367.5938 439.5156,367.5938 Q438.3438,367.5938 437.6406,368.125 Q436.9375,368.6563 436.6406,369.6094 Q436.3438,370.5625 436.3438,371.8281 Q436.3438,373.8438 437.0625,374.8125 Q437.7813,375.7656 439.375,375.7656 Q439.9688,375.7656 440.5938,375.6094 Q441.2188,375.4531 442.0469,375.0781 L442.0469,377.2969 Q441.3125,377.6094 440.5156,377.7656 Q439.7344,377.9219 438.9688,377.9219 Z " fill="#000000"/><text fill="#000000" font-family="sans-serif" font-size="14" lengthAdjust="spacing" textLength="47" x="453.5" y="376.432">Acorde</text><line style="stroke:#181818;stroke-width:0.5;" x1="425.5" x2="502.5" y1="387" y2="387"/><line style="stroke:#181818;stroke-width:0.5;" x1="425.5" x2="502.5" y1="395" y2="395"/></g><!--class Escala--><g id="elem_Escala"><rect codeLine="10" fill="#F1F1F1" height="48" id="Escala" rx="2.5" ry="2.5" style="stroke:#181818;stroke-width:0.5;" width="74" x="279" y="355"/><ellipse cx="294" cy="371" fill="#ADD1B2" rx="11" ry="11" style="stroke:#181818;stroke-width:1.0;"/><path d="M293.4688,377.9219 Q291.7188,377.9219 290.5781,377.1875 Q289.4531,376.4375 288.8906,375.0938 Q288.3438,373.7344 288.3438,371.9375 Q288.3438,369.9063 289,368.4531 Q289.6563,367 290.9375,366.2188 Q292.2188,365.4375 294.0938,365.4375 Q294.9844,365.4375 295.6563,365.625 Q296.3281,365.7969 297.0156,366.1406 L296.2031,368.1563 Q295.5781,367.8438 295.0313,367.7188 Q294.5,367.5938 294.0156,367.5938 Q292.8438,367.5938 292.1406,368.125 Q291.4375,368.6563 291.1406,369.6094 Q290.8438,370.5625 290.8438,371.8281 Q290.8438,373.8438 291.5625,374.8125 Q292.2813,375.7656 293.875,375.7656 Q294.4688,375.7656 295.0938,375.6094 Q295.7188,375.4531 296.5469,375.0781 L296.5469,377.2969 Q295.8125,377.6094 295.0156,377.7656 Q294.2344,377.9219 293.4688,377.9219 Z " fill="#000000"/><text fill="#000000" font-family="sans-serif" font-size="14" lengthAdjust="spacing" textLength="42" x="308" y="376.432">Escala</text><line style="stroke:#181818;stroke-width:0.5;" x1="280" x2="352" y1="387" y2="387"/><line style="stroke:#181818;stroke-width:0.5;" x1="280" x2="352" y1="395" y2="395"/></g><!--class GradoArmonico--><g id="elem_GradoArmonico"><rect codeLine="14" fill="#F1F1F1" height="48" id="GradoArmonico" rx="2.5" ry="2.5" style="stroke:#181818;stroke-width:0.5;" width="137" x="191.5" y="180"/><ellipse cx="206.5" cy="196" fill="#ADD1B2" rx="11" ry="11" style="stroke:#181818;stroke-width:1.0;"/><path d="M205.9688,202.9219 Q204.2188,202.9219 203.0781,202.1875 Q201.9531,201.4375 201.3906,200.0938 Q200.8438,198.7344 200.8438,196.9375 Q200.8438,194.9063 201.5,193.4531 Q202.1563,192 203.4375,191.2188 Q204.7188,190.4375 206.5938,190.4375 Q207.4844,190.4375 208.1563,190.625 Q208.8281,190.7969 209.5156,191.1406 L208.7031,193.1563 Q208.0781,192.8438 207.5313,192.7188 Q207,192.5938 206.5156,192.5938 Q205.3438,192.5938 204.6406,193.125 Q203.9375,193.6563 203.6406,194.6094 Q203.3438,195.5625 203.3438,196.8281 Q203.3438,198.8438 204.0625,199.8125 Q204.7813,200.7656 206.375,200.7656 Q206.9688,200.7656 207.5938,200.6094 Q208.2188,200.4531 209.0469,200.0781 L209.0469,202.2969 Q208.3125,202.6094 207.5156,202.7656 Q206.7344,202.9219 205.9688,202.9219 Z " fill="#000000"/><text fill="#000000" font-family="sans-serif" font-size="14" lengthAdjust="spacing" textLength="105" x="220.5" y="201.432">GradoArmonico</text><line style="stroke:#181818;stroke-width:0.5;" x1="192.5" x2="327.5" y1="212" y2="212"/><line style="stroke:#181818;stroke-width:0.5;" x1="192.5" x2="327.5" y1="220" y2="220"/></g><!--class FuncionArmonica--><g id="elem_FuncionArmonica"><rect codeLine="15" fill="#F1F1F1" height="48" id="FuncionArmonica" rx="2.5" ry="2.5" style="stroke:#181818;stroke-width:0.5;" width="149" x="409.5" y="180"/><ellipse cx="424.5" cy="196" fill="#ADD1B2" rx="11" ry="11" style="stroke:#181818;stroke-width:1.0;"/><path d="M423.9688,202.9219 Q422.2188,202.9219 421.0781,202.1875 Q419.9531,201.4375 419.3906,200.0938 Q418.8438,198.7344 418.8438,196.9375 Q418.8438,194.9063 419.5,193.4531 Q420.1563,192 421.4375,191.2188 Q422.7188,190.4375 424.5938,190.4375 Q425.4844,190.4375 426.1563,190.625 Q426.8281,190.7969 427.5156,191.1406 L426.7031,193.1563 Q426.0781,192.8438 425.5313,192.7188 Q425,192.5938 424.5156,192.5938 Q423.3438,192.5938 422.6406,193.125 Q421.9375,193.6563 421.6406,194.6094 Q421.3438,195.5625 421.3438,196.8281 Q421.3438,198.8438 422.0625,199.8125 Q422.7813,200.7656 424.375,200.7656 Q424.9688,200.7656 425.5938,200.6094 Q426.2188,200.4531 427.0469,200.0781 L427.0469,202.2969 Q426.3125,202.6094 425.5156,202.7656 Q424.7344,202.9219 423.9688,202.9219 Z " fill="#000000"/><text fill="#000000" font-family="sans-serif" font-size="14" lengthAdjust="spacing" textLength="117" x="438.5" y="201.432">FuncionArmonica</text><line style="stroke:#181818;stroke-width:0.5;" x1="410.5" x2="557.5" y1="212" y2="212"/><line style="stroke:#181818;stroke-width:0.5;" x1="410.5" x2="557.5" y1="220" y2="220"/></g><!--class EnlaceArmonico--><g id="elem_EnlaceArmonico"><rect codeLine="16" fill="#F1F1F1" height="48" id="EnlaceArmonico" rx="2.5" ry="2.5" style="stroke:#181818;stroke-width:0.5;" width="140" x="594" y="180"/><ellipse cx="609" cy="196" fill="#ADD1B2" rx="11" ry="11" style="stroke:#181818;stroke-width:1.0;"/><path d="M608.4688,202.9219 Q606.7188,202.9219 605.5781,202.1875 Q604.4531,201.4375 603.8906,200.0938 Q603.3438,198.7344 603.3438,196.9375 Q603.3438,194.9063 604,193.4531 Q604.6563,192 605.9375,191.2188 Q607.2188,190.4375 609.0938,190.4375 Q609.9844,190.4375 610.6563,190.625 Q611.3281,190.7969 612.0156,191.1406 L611.2031,193.1563 Q610.5781,192.8438 610.0313,192.7188 Q609.5,192.5938 609.0156,192.5938 Q607.8438,192.5938 607.1406,193.125 Q606.4375,193.6563 606.1406,194.6094 Q605.8438,195.5625 605.8438,196.8281 Q605.8438,198.8438 606.5625,199.8125 Q607.2813,200.7656 608.875,200.7656 Q609.4688,200.7656 610.0938,200.6094 Q610.7188,200.4531 611.5469,200.0781 L611.5469,202.2969 Q610.8125,202.6094 610.0156,202.7656 Q609.2344,202.9219 608.4688,202.9219 Z " fill="#000000"/><text fill="#000000" font-family="sans-serif" font-size="14" lengthAdjust="spacing" textLength="108" x="623" y="201.432">EnlaceArmonico</text><line style="stroke:#181818;stroke-width:0.5;" x1="595" x2="733" y1="212" y2="212"/><line style="stroke:#181818;stroke-width:0.5;" x1="595" x2="733" y1="220" y2="220"/></g><!--class MapaArmonico--><g id="elem_MapaArmonico"><rect codeLine="17" fill="#F1F1F1" height="48" id="MapaArmonico" rx="2.5" ry="2.5" style="stroke:#181818;stroke-width:0.5;" width="134" x="22" y="180"/><ellipse cx="37" cy="196" fill="#ADD1B2" rx="11" ry="11" style="stroke:#181818;stroke-width:1.0;"/><path d="M36.4688,202.9219 Q34.7188,202.9219 33.5781,202.1875 Q32.4531,201.4375 31.8906,200.0938 Q31.3438,198.7344 31.3438,196.9375 Q31.3438,194.9063 32,193.4531 Q32.6563,192 33.9375,191.2188 Q35.2188,190.4375 37.0938,190.4375 Q37.9844,190.4375 38.6563,190.625 Q39.3281,190.7969 40.0156,191.1406 L39.2031,193.1563 Q38.5781,192.8438 38.0313,192.7188 Q37.5,192.5938 37.0156,192.5938 Q35.8438,192.5938 35.1406,193.125 Q34.4375,193.6563 34.1406,194.6094 Q33.8438,195.5625 33.8438,196.8281 Q33.8438,198.8438 34.5625,199.8125 Q35.2813,200.7656 36.875,200.7656 Q37.4688,200.7656 38.0938,200.6094 Q38.7188,200.4531 39.5469,200.0781 L39.5469,202.2969 Q38.8125,202.6094 38.0156,202.7656 Q37.2344,202.9219 36.4688,202.9219 Z " fill="#000000"/><text fill="#000000" font-family="sans-serif" font-size="14" lengthAdjust="spacing" textLength="102" x="51" y="201.432">MapaArmonico</text><line style="stroke:#181818;stroke-width:0.5;" x1="23" x2="155" y1="212" y2="212"/><line style="stroke:#181818;stroke-width:0.5;" x1="23" x2="155" y1="220" y2="220"/></g><!--class ProgresionArmonica--><g id="elem_ProgresionArmonica"><rect codeLine="4" fill="#F1F1F1" height="48" id="ProgresionArmonica" rx="2.5" ry="2.5" style="stroke:#181818;stroke-width:0.5;" width="169" x="363.5" y="7"/><ellipse cx="378.5" cy="23" fill="#ADD1B2" rx="11" ry="11" style="stroke:#181818;stroke-width:1.0;"/><path d="M377.9688,29.9219 Q376.2188,29.9219 375.0781,29.1875 Q373.9531,28.4375 373.3906,27.0938 Q372.8438,25.7344 372.8438,23.9375 Q372.8438,21.9063 373.5,20.4531 Q374.1563,19 375.4375,18.2188 Q376.7188,17.4375 378.5938,17.4375 Q379.4844,17.4375 380.1563,17.625 Q380.8281,17.7969 381.5156,18.1406 L380.7031,20.1563 Q380.0781,19.8438 379.5313,19.7188 Q379,19.5938 378.5156,19.5938 Q377.3438,19.5938 376.6406,20.125 Q375.9375,20.6563 375.6406,21.6094 Q375.3438,22.5625 375.3438,23.8281 Q375.3438,25.8438 376.0625,26.8125 Q376.7813,27.7656 378.375,27.7656 Q378.9688,27.7656 379.5938,27.6094 Q380.2188,27.4531 381.0469,27.0781 L381.0469,29.2969 Q380.3125,29.6094 379.5156,29.7656 Q378.7344,29.9219 377.9688,29.9219 Z " fill="#000000"/><text fill="#000000" font-family="sans-serif" font-size="14" lengthAdjust="spacing" textLength="137" x="392.5" y="28.432">ProgresionArmonica</text><line style="stroke:#181818;stroke-width:0.5;" x1="364.5" x2="531.5" y1="39" y2="39"/><line style="stroke:#181818;stroke-width:0.5;" x1="364.5" x2="531.5" y1="47" y2="47"/></g><!--reverse link Escala to Nota--><g id="link_Escala_Nota"><path codeLine="21" d="M309.5275,415.0899 C307.4175,429.2999 307.79,435.9 311,452 C313.03,462.16 317.04,472.81 321.08,481.88 " fill="none" id="Escala-backto-Nota" style="stroke:#181818;stroke-width:1.0;"/><polygon fill="#181818" points="311.29,403.22,306.4521,408.5674,309.5275,415.0899,314.3654,409.7424,311.29,403.22" style="stroke:#181818;stroke-width:1.0;"/><text fill="#000000" font-family="sans-serif" font-size="13" lengthAdjust="spacing" textLength="52" x="312" y="447.897">contiene</text></g><!--reverse link Acorde to Nota--><g id="link_Acorde_Nota"><path codeLine="22" d="M430.9878,411.5037 C407.4578,433.9537 380.69,459.5 357.2,481.91 " fill="none" id="Acorde-backto-Nota" style="stroke:#181818;stroke-width:1.0;"/><polygon fill="none" points="439.67,403.22,432.5677,404.4678,430.9878,411.5037,438.0901,410.2559,439.67,403.22" style="stroke:#181818;stroke-width:1.0;"/><text fill="#000000" font-family="sans-serif" font-size="13" lengthAdjust="spacing" textLength="21" x="407" y="447.897">ra&#237;z</text></g><!--reverse link Acorde to Calidad--><g id="link_Acorde_Calidad"><path codeLine="23" d="M463.1514,415.2165 C462.6114,437.6665 462.09,459.5 461.55,481.91 " fill="none" id="Acorde-backto-Calidad" style="stroke:#181818;stroke-width:1.0;"/><polygon fill="none" points="463.44,403.22,459.2969,409.1221,463.1514,415.2165,467.2946,409.3145,463.44,403.22" style="stroke:#181818;stroke-width:1.0;"/><text fill="#000000" font-family="sans-serif" font-size="13" lengthAdjust="spacing" textLength="30" x="463" y="447.897">tiene</text></g><!--reverse link MapaArmonico to EnlaceArmonico--><g id="link_MapaArmonico_EnlaceArmonico"><path codeLine="26" d="M109.8882,169.5537 C124.4782,147.2937 142.8,125.87 174,112 C255.63,75.71 494.06,76.42 576,112 C608.03,125.91 634.05,157.69 649.27,179.99 " fill="none" id="MapaArmonico-backto-EnlaceArmonico" style="stroke:#181818;stroke-width:1.0;"/><polygon fill="#181818" points="103.31,179.59,109.9445,176.7646,109.8882,169.5537,103.2536,172.3791,103.31,179.59" style="stroke:#181818;stroke-width:1.0;"/><text fill="#000000" font-family="sans-serif" font-size="13" lengthAdjust="spacing" textLength="57" x="346.5" y="99.897">compone</text></g><!--reverse link GradoArmonico to Acorde--><g id="link_GradoArmonico_Acorde"><path codeLine="27" d="M303.0333,235.1248 C316.7033,244.8048 322.83,249.32 337,260 C352.41,271.61 356.53,274.24 371,287 C396.07,309.12 423.24,336.08 441.7,354.89 " fill="none" id="GradoArmonico-backto-Acorde" style="stroke:#181818;stroke-width:1.0;"/><polygon fill="none" points="293.24,228.19,295.825,234.9218,303.0333,235.1248,300.4482,228.393,293.24,228.19" style="stroke:#181818;stroke-width:1.0;"/><text fill="#000000" font-family="sans-serif" font-size="13" lengthAdjust="spacing" textLength="65" x="362" y="274.897">representa</text></g><!--reverse link GradoArmonico to FuncionArmonica--><g id="link_GradoArmonico_FuncionArmonica"><path codeLine="28" d="M340.73,204 C366.19,204 383.18,204 409.16,204 " fill="none" id="GradoArmonico-backto-FuncionArmonica" style="stroke:#181818;stroke-width:1.0;"/><polygon fill="none" points="328.73,204,334.73,208,340.73,204,334.73,200,328.73,204" style="stroke:#181818;stroke-width:1.0;"/><text fill="#000000" font-family="sans-serif" font-size="13" lengthAdjust="spacing" textLength="44" x="347" y="196.897">cumple</text></g><!--reverse link EnlaceArmonico to Acorde--><g id="link_EnlaceArmonico_Acorde"><path codeLine="29" d="M617.1457,234.0042 C601.7657,242.7742 593.76,246.11 576,252 C553.39,259.5 542.27,245.99 523,260 C491.5,282.89 475.82,327.42 468.84,354.75 " fill="none" id="EnlaceArmonico-backto-Acorde" style="stroke:#181818;stroke-width:1.0;"/><polygon fill="none" points="627.57,228.06,620.3764,227.5573,617.1457,234.0042,624.3392,234.5069,627.57,228.06" style="stroke:#181818;stroke-width:1.0;"/><text fill="#000000" font-family="sans-serif" font-size="13" lengthAdjust="spacing" textLength="39" x="524" y="274.897">origen</text></g><!--reverse link EnlaceArmonico to Acorde--><g id="link_EnlaceArmonico_Acorde"><path codeLine="30" d="M627.954,236.1802 C589.674,269.2902 529.08,321.7 490.86,354.76 " fill="none" id="EnlaceArmonico-backto-Acorde-1" style="stroke:#181818;stroke-width:1.0;"/><polygon fill="none" points="637.03,228.33,629.8753,229.2298,627.954,236.1802,635.1087,235.2804,637.03,228.33" style="stroke:#181818;stroke-width:1.0;"/><text fill="#000000" font-family="sans-serif" font-size="13" lengthAdjust="spacing" textLength="45" x="600" y="274.897">destino</text></g><!--reverse link MapaArmonico to Escala--><g id="link_MapaArmonico_Escala"><path codeLine="31" d="M129.1546,235.6032 C172.6046,268.7132 242.13,321.7 285.51,354.76 " fill="none" id="MapaArmonico-backto-Escala" style="stroke:#181818;stroke-width:1.0;"/><polygon fill="none" points="119.61,228.33,121.9579,235.1482,129.1546,235.6032,126.8067,228.7851,119.61,228.33" style="stroke:#181818;stroke-width:1.0;"/><text fill="#000000" font-family="sans-serif" font-size="13" lengthAdjust="spacing" textLength="15" x="183" y="274.897">en</text></g><!--reverse link GradoArmonico to Escala--><g id="link_GradoArmonico_Escala"><path codeLine="32" d="M263.6248,239.9239 C265.4048,254.7039 267.02,262.29 272,279 C280,305.86 293.59,334.99 303.56,354.65 " fill="none" id="GradoArmonico-backto-Escala" style="stroke:#181818;stroke-width:1.0;"/><polygon fill="none" points="262.19,228.01,258.9361,234.4452,263.6248,239.9239,266.8787,233.4887,262.19,228.01" style="stroke:#181818;stroke-width:1.0;"/><text fill="#000000" font-family="sans-serif" font-size="13" lengthAdjust="spacing" textLength="59" x="273" y="274.897">dentro de</text></g><!--reverse link ProgresionArmonica to Acorde--><g id="link_ProgresionArmonica_Acorde"><path codeLine="35" d="M544.6227,44.6698 C624.3927,56.8398 723.58,77.67 750,112 C787.95,161.31 783.99,199.88 750,252 C694.72,336.76 568.2,364.89 503.57,373.92 " fill="none" id="ProgresionArmonica-backto-Acorde" style="stroke:#181818;stroke-width:1.0;"/><polygon fill="none" points="532.76,42.86,538.0881,47.7192,544.6227,44.6698,539.2946,39.8107,532.76,42.86" style="stroke:#181818;stroke-width:1.0;"/><text fill="#000000" font-family="sans-serif" font-size="13" lengthAdjust="spacing" textLength="58" x="777" y="209.397">secuencia</text></g><!--link ProgresionArmonica to MapaArmonico--><g id="link_ProgresionArmonica_MapaArmonico"><path codeLine="36" d="M363.21,44.66 C306.49,55.93 231.92,76.35 174,112 C145.46,129.57 123.9032,154.4075 108.5132,175.0775 " fill="none" id="ProgresionArmonica-to-MapaArmonico" style="stroke:#181818;stroke-width:1.0;stroke-dasharray:7.0,7.0;"/><polygon fill="#181818" points="104.93,179.89,113.5132,175.06,107.916,175.8795,107.0965,170.2824,104.93,179.89" style="stroke:#181818;stroke-width:1.0;"/><text fill="#000000" font-family="sans-serif" font-size="13" lengthAdjust="spacing" textLength="51" x="223" y="99.897">consulta</text></g><!--SRC=[VL9BQiCm4Dth5BCB5983P548fUqg9RIzm20DHaJM2CbUfAL7ogf7yCKw_YIHvL1lZERptfitiqf7wmD6hC5PJyqf40Hsf_wXb7QO4XmYLv6IPR-BDNkhKQc0-eWLmITnjBXlaqGTV2kGR-nwumQpvnCwQz1aaPtcQ2WBF2V1GFLpG_-mgQ4Q9rgUuRz6D7p9PF6NrkjSQeRl7MgwqxB7SENewLVmJb8gA9J0Z4DsPuHfJ3KAXOVrUfWIjg3PDvR4id4eu5igOdV-okEJ4v8QMqewTnaRH5FtEuZA5GflCSeWe0xIhsQk37GJimYX85iaBsifgqhJUi2s3evKGJG3bCrNvFyjCPGQwmlzVSLauHO4OAdvcZKYDxBybakvNAKuf9ONEfUHIBSa4-AzoitcSNO1upfJwyIeFm00]--></g></svg>