<?xml version="1.0" encoding="us-ascii" standalone="no"?><svg xmlns="http://www.w3.org/2000/svg" xmlns:xlink="http://www.w3.org/1999/xlink" contentStyleType="text/css" height="509px" preserveAspectRatio="none" style="width:883px;height:509px;background:#FFFFFF;" version="1.1" viewBox="0 0 883 509" width="883px" zoomAndPan="magnify"><defs/><g><!--cluster TeoriaMusical--><g id="cluster_TeoriaMusical"><path d="M198.5,273 L294.5,273 A3.75,3.75 0 0 1 297,275.5 L304,298.0679 L449.5,298.0679 A2.5,2.5 0 0 1 452,300.5679 L452,499.5 A2.5,2.5 0 0 1 449.5,502 L198.5,502 A2.5,2.5 0 0 1 196,499.5 L196,275.5 A2.5,2.5 0 0 1 198.5,273 " fill="none" style="stroke:#000000;stroke-width:1.5;"/><line style="stroke:#000000;stroke-width:1.5;" x1="196" x2="304" y1="298.0679" y2="298.0679"/><text fill="#000000" font-family="sans-serif" font-size="14" font-weight="bold" lengthAdjust="spacing" textLength="95" x="200" y="289.9659">TeoriaMusical</text></g><!--cluster SistemaArmonico--><g id="cluster_SistemaArmonico"><path d="M8.5,120 L132.5,120 A3.75,3.75 0 0 1 135,122.5 L142,145.0679 L789.5,145.0679 A2.5,2.5 0 0 1 792,147.5679 L792,219.5 A2.5,2.5 0 0 1 789.5,222 L8.5,222 A2.5,2.5 0 0 1 6,219.5 L6,122.5 A2.5,2.5 0 0 1 8.5,120 " fill="none" style="stroke:#000000;stroke-width:1.5;"/><line style="stroke:#000000;stroke-width:1.5;" x1="6" x2="142" y1="145.0679" y2="145.0679"/><text fill="#000000" font-family="sans-serif" font-size="14" font-weight="bold" lengthAdjust="spacing" textLength="123" x="10" y="136.9659">SistemaArmonico</text></g><!--class Nota--><g id="elem_Nota"><rect codeLine="7" fill="#F1F1F1" height="48" id="Nota" rx="2.5" ry="2.5" style="stroke:#181818;stroke-width:0.5;" width="64" x="234" y="438"/><ellipse cx="249" cy="454" fill="#ADD1B2" rx="11" ry="11" style="stroke:#181818;stroke-width:1.0;"/><path d="M248.4688,460.9219 Q246.7188,460.9219 245.5781,460.1875 Q244.4531,459.4375 243.8906,458.0938 Q243.3438,456.7344 243.3438,454.9375 Q243.3438,452.9063 244,451.4531 Q244.6563,450 245.9375,449.2188 Q247.2188,448.4375 249.0938,448.4375 Q249.9844,448.4375 250.6563,448.625 Q251.3281,448.7969 252.0156,449.1406 L251.2031,451.1563 Q250.5781,450.8438 250.0313,450.7188 Q249.5,450.5938 249.0156,450.5938 Q247.8438,450.5938 247.1406,451.125 Q246.4375,451.6563 246.1406,452.6094 Q245.8438,453.5625 245.8438,454.8281 Q245.8438,456.8438 246.5625,457.8125 Q247.2813,458.7656 248.875,458.7656 Q249.4688,458.7656 250.0938,458.6094 Q250.7188,458.4531 251.5469,458.0781 L251.5469,460.2969 Q250.8125,460.6094 250.0156,460.7656 Q249.2344,460.9219 248.4688,460.9219 Z " fill="#000000"/><text fill="#000000" font-family="sans-serif" font-size="14" lengthAdjust="spacing" textLength="32" x="263" y="459.432">Nota</text><line style="stroke:#181818;stroke-width:0.5;" x1="235" x2="297" y1="470" y2="470"/><line style="stroke:#181818;stroke-width:0.5;" x1="235" x2="297" y1="478" y2="478"/></g><!--class Calidad--><g id="elem_Calidad"><rect codeLine="8" fill="#F1F1F1" height="48" id="Calidad" rx="2.5" ry="2.5" style="stroke:#181818;stroke-width:0.5;" width="83" x="352.5" y="438"/><ellipse cx="367.5" cy="454" fill="#ADD1B2" rx="11" ry="11" style="stroke:#181818;stroke-width:1.0;"/><path d="M366.9688,460.9219 Q365.2188,460.9219 364.0781,460.1875 Q362.9531,459.4375 362.3906,458.0938 Q361.8438,456.7344 361.8438,454.9375 Q361.8438,452.9063 362.5,451.4531 Q363.1563,450 364.4375,449.2188 Q365.7188,448.4375 367.5938,448.4375 Q368.4844,448.4375 369.1563,448.625 Q369.8281,448.7969 370.5156,449.1406 L369.7031,451.1563 Q369.0781,450.8438 368.5313,450.7188 Q368,450.5938 367.5156,450.5938 Q366.3438,450.5938 365.6406,451.125 Q364.9375,451.6563 364.6406,452.6094 Q364.3438,453.5625 364.3438,454.8281 Q364.3438,456.8438 365.0625,457.8125 Q365.7813,458.7656 367.375,458.7656 Q367.9688,458.7656 368.5938,458.6094 Q369.2188,458.4531 370.0469,458.0781 L370.0469,460.2969 Q369.3125,460.6094 368.5156,460.7656 Q367.7344,460.9219 366.9688,460.9219 Z " fill="#000000"/><text fill="#000000" font-family="sans-serif" font-size="14" lengthAdjust="spacing" textLength="51" x="381.5" y="459.432">Calidad</text><line style="stroke:#181818;stroke-width:0.5;" x1="353.5" x2="434.5" y1="470" y2="470"/><line style="stroke:#181818;stroke-width:0.5;" x1="353.5" x2="434.5" y1="478" y2="478"/></g><!--class Acorde--><g id="elem_Acorde"><rect codeLine="9" fill="#F1F1F1" height="48" id="Acorde" rx="2.5" ry="2.5" style="stroke:#181818;stroke-width:0.5;" width="79" x="357.5" y="311"/><ellipse cx="372.5" cy="327" fill="#ADD1B2" rx="11" ry="11" style="stroke:#181818;stroke-width:1.0;"/><path d="M371.9688,333.9219 Q370.2188,333.9219 369.0781,333.1875 Q367.9531,332.4375 367.3906,331.0938 Q366.8438,329.7344 366.8438,327.9375 Q366.8438,325.9063 367.5,324.4531 Q368.1563,323 369.4375,322.2188 Q370.7188,321.4375 372.5938,321.4375 Q373.4844,321.4375 374.1563,321.625 Q374.8281,321.7969 375.5156,322.1406 L374.7031,324.1563 Q374.0781,323.8438 373.5313,323.7188 Q373,323.5938 372.5156,323.5938 Q371.3438,323.5938 370.6406,324.125 Q369.9375,324.6563 369.6406,325.6094 Q369.3438,326.5625 369.3438,327.8281 Q369.3438,329.8438 370.0625,330.8125 Q370.7813,331.7656 372.375,331.7656 Q372.9688,331.7656 373.5938,331.6094 Q374.2188,331.4531 375.0469,331.0781 L375.0469,333.2969 Q374.3125,333.6094 373.5156,333.7656 Q372.7344,333.9219 371.9688,333.9219 Z " fill="#000000"/><text fill="#000000" font-family="sans-serif" font-size="14" lengthAdjust="spacing" textLength="47" x="386.5" y="332.432">Acorde</text><line style="stroke:#181818;stroke-width:0.5;" x1="358.5" x2="435.5" y1="343" y2="343"/><line style="stroke:#181818;stroke-width:0.5;" x1="358.5" x2="435.5" y1="351" y2="351"/></g><!--class Escala--><g id="elem_Escala"><rect codeLine="10" fill="#F1F1F1" height="48" id="Escala" rx="2.5" ry="2.5" style="stroke:#181818;stroke-width:0.5;" width="74" x="212" y="311"/><ellipse cx="227" cy="327" fill="#ADD1B2" rx="11" ry="11" style="stroke:#181818;stroke-width:1.0;"/><path d="M226.4688,333.9219 Q224.7188,333.9219 223.5781,333.1875 Q222.4531,332.4375 221.8906,331.0938 Q221.3438,329.7344 221.3438,327.9375 Q221.3438,325.9063 222,324.4531 Q222.6563,323 223.9375,322.2188 Q225.2188,321.4375 227.0938,321.4375 Q227.9844,321.4375 228.6563,321.625 Q229.3281,321.7969 230.0156,322.1406 L229.2031,324.1563 Q228.5781,323.8438 228.0313,323.7188 Q227.5,323.5938 227.0156,323.5938 Q225.8438,323.5938 225.1406,324.125 Q224.4375,324.6563 224.1406,325.6094 Q223.8438,326.5625 223.8438,327.8281 Q223.8438,329.8438 224.5625,330.8125 Q225.2813,331.7656 226.875,331.7656 Q227.4688,331.7656 228.0938,331.6094 Q228.7188,331.4531 229.5469,331.0781 L229.5469,333.2969 Q228.8125,333.6094 228.0156,333.7656 Q227.2344,333.9219 226.4688,333.9219 Z " fill="#000000"/><text fill="#000000" font-family="sans-serif" font-size="14" lengthAdjust="spacing" textLength="42" x="241" y="332.432">Escala</text><line style="stroke:#181818;stroke-width:0.5;" x1="213" x2="285" y1="343" y2="343"/><line style="stroke:#181818;stroke-width:0.5;" x1="213" x2="285" y1="351" y2="351"/></g><!--class GradoArmonico--><g id="elem_GradoArmonico"><rect codeLine="14" fill="#F1F1F1" height="48" id="GradoArmonico" rx="2.5" ry="2.5" style="stroke:#181818;stroke-width:0.5;" width="137" x="423.5" y="158"/><ellipse cx="438.5" cy="174" fill="#ADD1B2" rx="11" ry="11" style="stroke:#181818;stroke-width:1.0;"/><path d="M437.9688,180.9219 Q436.2188,180.9219 435.0781,180.1875 Q433.9531,179.4375 433.3906,178.0938 Q432.8438,176.7344 432.8438,174.9375 Q432.8438,172.9063 433.5,171.4531 Q434.1563,170 435.4375,169.2188 Q436.7188,168.4375 438.5938,168.4375 Q439.4844,168.4375 440.1563,168.625 Q440.8281,168.7969 441.5156,169.1406 L440.7031,171.1563 Q440.0781,170.8438 439.5313,170.7188 Q439,170.5938 438.5156,170.5938 Q437.3438,170.5938 436.6406,171.125 Q435.9375,171.6563 435.6406,172.6094 Q435.3438,173.5625 435.3438,174.8281 Q435.3438,176.8438 436.0625,177.8125 Q436.7813,178.7656 438.375,178.7656 Q438.9688,178.7656 439.5938,178.6094 Q440.2188,178.4531 441.0469,178.0781 L441.0469,180.2969 Q440.3125,180.6094 439.5156,180.7656 Q438.7344,180.9219 437.9688,180.9219 Z " fill="#000000"/><text fill="#000000" font-family="sans-serif" font-size="14" lengthAdjust="spacing" textLength="105" x="452.5" y="179.432">GradoArmonico</text><line style="stroke:#181818;stroke-width:0.5;" x1="424.5" x2="559.5" y1="190" y2="190"/><line style="stroke:#181818;stroke-width:0.5;" x1="424.5" x2="559.5" y1="198" y2="198"/></g><!--class FuncionArmonica--><g id="elem_FuncionArmonica"><rect codeLine="15" fill="#F1F1F1" height="48" id="FuncionArmonica" rx="2.5" ry="2.5" style="stroke:#181818;stroke-width:0.5;" width="149" x="627.5" y="158"/><ellipse cx="642.5" cy="174" fill="#ADD1B2" rx="11" ry="11" style="stroke:#181818;stroke-width:1.0;"/><path d="M641.9688,180.9219 Q640.2188,180.9219 639.0781,180.1875 Q637.9531,179.4375 637.3906,178.0938 Q636.8438,176.7344 636.8438,174.9375 Q636.8438,172.9063 637.5,171.4531 Q638.1563,170 639.4375,169.2188 Q640.7188,168.4375 642.5938,168.4375 Q643.4844,168.4375 644.1563,168.625 Q644.8281,168.7969 645.5156,169.1406 L644.7031,171.1563 Q644.0781,170.8438 643.5313,170.7188 Q643,170.5938 642.5156,170.5938 Q641.3438,170.5938 640.6406,171.125 Q639.9375,171.6563 639.6406,172.6094 Q639.3438,173.5625 639.3438,174.8281 Q639.3438,176.8438 640.0625,177.8125 Q640.7813,178.7656 642.375,178.7656 Q642.9688,178.7656 643.5938,178.6094 Q644.2188,178.4531 645.0469,178.0781 L645.0469,180.2969 Q644.3125,180.6094 643.5156,180.7656 Q642.7344,180.9219 641.9688,180.9219 Z " fill="#000000"/><text fill="#000000" font-family="sans-serif" font-size="14" lengthAdjust="spacing" textLength="117" x="656.5" y="179.432">FuncionArmonica</text><line style="stroke:#181818;stroke-width:0.5;" x1="628.5" x2="775.5" y1="190" y2="190"/><line style="stroke:#181818;stroke-width:0.5;" x1="628.5" x2="775.5" y1="198" y2="198"/></g><!--class VectorArmonico--><g id="elem_VectorArmonico"><rect codeLine="16" fill="#F1F1F1" height="48" id="VectorArmonico" rx="2.5" ry="2.5" style="stroke:#181818;stroke-width:0.5;" width="138" x="250" y="158"/><ellipse cx="265" cy="174" fill="#ADD1B2" rx="11" ry="11" style="stroke:#181818;stroke-width:1.0;"/><path d="M264.4688,180.9219 Q262.7188,180.9219 261.5781,180.1875 Q260.4531,179.4375 259.8906,178.0938 Q259.3438,176.7344 259.3438,174.9375 Q259.3438,172.9063 260,171.4531 Q260.6563,170 261.9375,169.2188 Q263.2188,168.4375 265.0938,168.4375 Q265.9844,168.4375 266.6563,168.625 Q267.3281,168.7969 268.0156,169.1406 L267.2031,171.1563 Q266.5781,170.8438 266.0313,170.7188 Q265.5,170.5938 265.0156,170.5938 Q263.8438,170.5938 263.1406,171.125 Q262.4375,171.6563 262.1406,172.6094 Q261.8438,173.5625 261.8438,174.8281 Q261.8438,176.8438 262.5625,177.8125 Q263.2813,178.7656 264.875,178.7656 Q265.4688,178.7656 266.0938,178.6094 Q266.7188,178.4531 267.5469,178.0781 L267.5469,180.2969 Q266.8125,180.6094 266.0156,180.7656 Q265.2344,180.9219 264.4688,180.9219 Z " fill="#000000"/><text fill="#000000" font-family="sans-serif" font-size="14" lengthAdjust="spacing" textLength="106" x="279" y="179.432">VectorArmonico</text><line style="stroke:#181818;stroke-width:0.5;" x1="251" x2="387" y1="190" y2="190"/><line style="stroke:#181818;stroke-width:0.5;" x1="251" x2="387" y1="198" y2="198"/></g><!--class MapaArmonico--><g id="elem_MapaArmonico"><rect codeLine="17" fill="#F1F1F1" height="48" id="MapaArmonico" rx="2.5" ry="2.5" style="stroke:#181818;stroke-width:0.5;" width="134" x="22" y="158"/><ellipse cx="37" cy="174" fill="#ADD1B2" rx="11" ry="11" style="stroke:#181818;stroke-width:1.0;"/><path d="M36.4688,180.9219 Q34.7188,180.9219 33.5781,180.1875 Q32.4531,179.4375 31.8906,178.0938 Q31.3438,176.7344 31.3438,174.9375 Q31.3438,172.9063 32,171.4531 Q32.6563,170 33.9375,169.2188 Q35.2188,168.4375 37.0938,168.4375 Q37.9844,168.4375 38.6563,168.625 Q39.3281,168.7969 40.0156,169.1406 L39.2031,171.1563 Q38.5781,170.8438 38.0313,170.7188 Q37.5,170.5938 37.0156,170.5938 Q35.8438,170.5938 35.1406,171.125 Q34.4375,171.6563 34.1406,172.6094 Q33.8438,173.5625 33.8438,174.8281 Q33.8438,176.8438 34.5625,177.8125 Q35.2813,178.7656 36.875,178.7656 Q37.4688,178.7656 38.0938,178.6094 Q38.7188,178.4531 39.5469,178.0781 L39.5469,180.2969 Q38.8125,180.6094 38.0156,180.7656 Q37.2344,180.9219 36.4688,180.9219 Z " fill="#000000"/><text fill="#000000" font-family="sans-serif" font-size="14" lengthAdjust="spacing" textLength="102" x="51" y="179.432">MapaArmonico</text><line style="stroke:#181818;stroke-width:0.5;" x1="23" x2="155" y1="190" y2="190"/><line style="stroke:#181818;stroke-width:0.5;" x1="23" x2="155" y1="198" y2="198"/></g><!--class ProgresionArmonica--><g id="elem_ProgresionArmonica"><rect codeLine="4" fill="#F1F1F1" height="48" id="ProgresionArmonica" rx="2.5" ry="2.5" style="stroke:#181818;stroke-width:0.5;" width="169" x="383.5" y="7"/><ellipse cx="398.5" cy="23" fill="#ADD1B2" rx="11" ry="11" style="stroke:#181818;stroke-width:1.0;"/><path d="M397.9688,29.9219 Q396.2188,29.9219 395.0781,29.1875 Q393.9531,28.4375 393.3906,27.0938 Q392.8438,25.7344 392.8438,23.9375 Q392.8438,21.9063 393.5,20.4531 Q394.1563,19 395.4375,18.2188 Q396.7188,17.4375 398.5938,17.4375 Q399.4844,17.4375 400.1563,17.625 Q400.8281,17.7969 401.5156,18.1406 L400.7031,20.1563 Q400.0781,19.8438 399.5313,19.7188 Q399,19.5938 398.5156,19.5938 Q397.3438,19.5938 396.6406,20.125 Q395.9375,20.6563 395.6406,21.6094 Q395.3438,22.5625 395.3438,23.8281 Q395.3438,25.8438 396.0625,26.8125 Q396.7813,27.7656 398.375,27.7656 Q398.9688,27.7656 399.5938,27.6094 Q400.2188,27.4531 401.0469,27.0781 L401.0469,29.2969 Q400.3125,29.6094 399.5156,29.7656 Q398.7344,29.9219 397.9688,29.9219 Z " fill="#000000"/><text fill="#000000" font-family="sans-serif" font-size="14" lengthAdjust="spacing" textLength="137" x="412.5" y="28.432">ProgresionArmonica</text><line style="stroke:#181818;stroke-width:0.5;" x1="384.5" x2="551.5" y1="39" y2="39"/><line style="stroke:#181818;stroke-width:0.5;" x1="384.5" x2="551.5" y1="47" y2="47"/></g><!--reverse link Escala to Nota--><g id="link_Escala_Nota"><path codeLine="21" d="M242.5275,371.0899 C240.4175,385.2999 240.79,391.9 244,408 C246.03,418.16 250.04,428.81 254.08,437.88 " fill="none" id="Escala-backto-Nota" style="stroke:#181818;stroke-width:1.0;"/><polygon fill="#181818" points="244.29,359.22,239.4521,364.5674,242.5275,371.0899,247.3654,365.7424,244.29,359.22" style="stroke:#181818;stroke-width:1.0;"/><text fill="#000000" font-family="sans-serif" font-size="13" lengthAdjust="spacing" textLength="52" x="245" y="403.897">contiene</text></g><!--reverse link Acorde to Nota--><g id="link_Acorde_Nota"><path codeLine="22" d="M363.9878,367.5037 C340.4578,389.9537 313.69,415.5 290.2,437.91 " fill="none" id="Acorde-backto-Nota" style="stroke:#181818;stroke-width:1.0;"/><polygon fill="none" points="372.67,359.22,365.5677,360.4678,363.9878,367.5037,371.0901,366.2559,372.67,359.22" style="stroke:#181818;stroke-width:1.0;"/><text fill="#000000" font-family="sans-serif" font-size="13" lengthAdjust="spacing" textLength="21" x="340" y="403.897">ra&#237;z</text></g><!--reverse link Acorde to Calidad--><g id="link_Acorde_Calidad"><path codeLine="23" d="M396.1514,371.2165 C395.6114,393.6665 395.09,415.5 394.55,437.91 " fill="none" id="Acorde-backto-Calidad" style="stroke:#181818;stroke-width:1.0;"/><polygon fill="none" points="396.44,359.22,392.2969,365.1221,396.1514,371.2165,400.2946,365.3145,396.44,359.22" style="stroke:#181818;stroke-width:1.0;"/><text fill="#000000" font-family="sans-serif" font-size="13" lengthAdjust="spacing" textLength="30" x="396" y="403.897">tiene</text></g><!--reverse link MapaArmonico to VectorArmonico--><g id="link_MapaArmonico_VectorArmonico"><path codeLine="26" d="M168.14,182 C197.58,182 220.11,182 249.78,182 " fill="none" id="MapaArmonico-backto-VectorArmonico" style="stroke:#181818;stroke-width:1.0;"/><polygon fill="#181818" points="156.14,182,162.14,186,168.14,182,162.14,178,156.14,182" style="stroke:#181818;stroke-width:1.0;"/><text fill="#000000" font-family="sans-serif" font-size="13" lengthAdjust="spacing" textLength="57" x="174.5" y="174.897">compone</text></g><!--reverse link GradoArmonico to Acorde--><g id="link_GradoArmonico_Acorde"><path codeLine="27" d="M470.9712,216.4179 C453.0712,244.8779 429.34,282.6 411.5,310.96 " fill="none" id="GradoArmonico-backto-Acorde" style="stroke:#181818;stroke-width:1.0;"/><polygon fill="none" points="477.36,206.26,470.7796,209.2093,470.9712,216.4179,477.5515,213.4686,477.36,206.26" style="stroke:#181818;stroke-width:1.0;"/><text fill="#000000" font-family="sans-serif" font-size="13" lengthAdjust="spacing" textLength="65" x="456" y="252.897">representa</text></g><!--reverse link GradoArmonico to FuncionArmonica--><g id="link_GradoArmonico_FuncionArmonica"><path codeLine="28" d="M572.76,182 C594.05,182 605.61,182 627.29,182 " fill="none" id="GradoArmonico-backto-FuncionArmonica" style="stroke:#181818;stroke-width:1.0;"/><polygon fill="none" points="560.76,182,566.76,186,572.76,182,566.76,178,560.76,182" style="stroke:#181818;stroke-width:1.0;"/><text fill="#000000" font-family="sans-serif" font-size="13" lengthAdjust="spacing" textLength="30" x="579" y="174.897">tiene</text></g><!--reverse link VectorArmonico to Acorde--><g id="link_VectorArmonico_Acorde"><path codeLine="29" d="M310.9376,218.0944 C308.2576,233.1544 309.15,241.05 316,257 C325.33,278.75 344.17,297.26 361.33,310.67 " fill="none" id="VectorArmonico-backto-Acorde" style="stroke:#181818;stroke-width:1.0;"/><polygon fill="none" points="313.04,206.28,308.0507,211.4864,310.9376,218.0944,315.9269,212.888,313.04,206.28" style="stroke:#181818;stroke-width:1.0;"/><text fill="#000000" font-family="sans-serif" font-size="13" lengthAdjust="spacing" textLength="36" x="317" y="252.897">desde</text></g><!--reverse link VectorArmonico to Acorde--><g id="link_VectorArmonico_Acorde"><path codeLine="30" d="M344.2508,215.7063 C351.2908,225.2763 351.98,227.02 358,238 C371.06,261.82 382.28,290.94 389.29,310.82 " fill="none" id="VectorArmonico-backto-Acorde-1" style="stroke:#181818;stroke-width:1.0;"/><polygon fill="none" points="337.14,206.04,337.4733,213.2434,344.2508,215.7063,343.9175,208.5029,337.14,206.04" style="stroke:#181818;stroke-width:1.0;"/><text fill="#000000" font-family="sans-serif" font-size="13" lengthAdjust="spacing" textLength="31" x="367" y="252.897">hacia</text></g><!--reverse link MapaArmonico to Escala--><g id="link_MapaArmonico_Escala"><path codeLine="31" d="M122.3763,214.4972 C152.5263,242.9572 194.54,282.6 224.59,310.96 " fill="none" id="MapaArmonico-backto-Escala" style="stroke:#181818;stroke-width:1.0;"/><polygon fill="none" points="113.65,206.26,115.2674,213.2874,122.3763,214.4972,120.7589,207.4698,113.65,206.26" style="stroke:#181818;stroke-width:1.0;"/><text fill="#000000" font-family="sans-serif" font-size="13" lengthAdjust="spacing" textLength="62" x="165" y="252.897">basado en</text></g><!--reverse link ProgresionArmonica to Acorde--><g id="link_ProgresionArmonica_Acorde"><path codeLine="34" d="M564.3988,42.6849 C650.2588,53.9049 762.75,74.65 792,112 C824.33,153.29 824.02,188.46 792,230 C748.33,286.66 528.16,318.61 436.81,329.6 " fill="none" id="ProgresionArmonica-backto-Acorde" style="stroke:#181818;stroke-width:1.0;"/><polygon fill="none" points="552.5,41.13,557.9311,45.8737,564.3988,42.6849,558.9677,37.9412,552.5,41.13" style="stroke:#181818;stroke-width:1.0;"/><text fill="#000000" font-family="sans-serif" font-size="13" lengthAdjust="spacing" textLength="58" x="817" y="187.397">secuencia</text></g><!--link ProgresionArmonica to MapaArmonico--><g id="link_ProgresionArmonica_MapaArmonico"><path codeLine="35" d="M392.81,55.08 C346.27,69.98 285.57,90.54 233,112 C199.12,125.83 167.2524,141.0483 139.1424,155.1583 " fill="none" id="ProgresionArmonica-to-MapaArmonico" style="stroke:#181818;stroke-width:1.0;stroke-dasharray:7.0,7.0;"/><polygon fill="#181818" points="133.78,157.85,143.618,157.3874,138.2486,155.6069,140.0291,150.2376,133.78,157.85" style="stroke:#181818;stroke-width:1.0;"/><text fill="#000000" font-family="sans-serif" font-size="13" lengthAdjust="spacing" textLength="21" x="304" y="99.897">usa</text></g><!--SRC=[VL9BJiCm4Dtx5BEhXDGUe0ka2W6hLWWG-y4U1QkEnx8Jf88uKbSS8HTZycdZf1NUpVTznekqjpvWn1ASzLGT0a5WTsW3fRJ3bE0fSX4fMVQRMBAt6fKAgFTO4BmIHulREadMmRS2UVtKZYlCmZjqrg39CXlDqL2Mk4-o0zNFkFt5fefA761vilynek5J9Si_r5xdLCVA6-cAuvMHBOOpHWk_W6Tos6wX1AONsHmH1fcg9metosMd4jQWsLUMnB9U5F1OYjWSl_Byu8IK-f4vd3l91k7K_7QaSeQ2EvFI4IY3pAk9AntSW2n4ACWLoSjPvbrpqyxSPZYJVOQI-R_ZGqJXb7jR7-nRmpicuG7aBotVuISL4ej-TVd_fZ29T4s-XRhIkLhTJkuh_NL2zGS0]--></g></svg>