<?xml version="1.0" encoding="us-ascii" standalone="no"?><svg xmlns="http://www.w3.org/2000/svg" xmlns:xlink="http://www.w3.org/1999/xlink" contentStyleType="text/css" height="754px" preserveAspectRatio="none" style="width:418px;height:754px;background:#FFFFFF;" version="1.1" viewBox="0 0 418 754" width="418px" zoomAndPan="magnify"><defs/><g><!--class Draught--><g id="elem_Draught"><rect codeLine="4" fill="#F1F1F1" height="29.0679" id="Draught" rx="2.5" ry="2.5" style="stroke:#181818;stroke-width:0.5;" width="62" x="157" y="630"/><text fill="#000000" font-family="sans-serif" font-size="14" lengthAdjust="spacing" textLength="56" x="160" y="649.9659">Draught</text></g><!--class Piece--><g id="elem_Piece"><rect codeLine="5" fill="#F1F1F1" height="29.0679" id="Piece" rx="2.5" ry="2.5" style="stroke:#181818;stroke-width:0.5;" width="41" x="254.5" y="541"/><text fill="#000000" font-family="sans-serif" font-size="14" lengthAdjust="spacing" textLength="35" x="257.5" y="560.9659">Piece</text></g><!--class Pawn--><g id="elem_Pawn"><rect codeLine="6" fill="#F1F1F1" height="29.0679" id="Pawn" rx="2.5" ry="2.5" style="stroke:#181818;stroke-width:0.5;" width="42" x="254" y="630"/><text fill="#000000" font-family="sans-serif" font-size="14" lengthAdjust="spacing" textLength="36" x="257" y="649.9659">Pawn</text></g><!--class Board--><g id="elem_Board"><rect codeLine="7" fill="#F1F1F1" height="29.0679" id="Board" rx="2.5" ry="2.5" style="stroke:#181818;stroke-width:0.5;" width="46" x="145" y="274"/><text fill="#000000" font-family="sans-serif" font-size="14" lengthAdjust="spacing" textLength="40" x="148" y="293.9659">Board</text></g><!--class Square--><g id="elem_Square"><rect codeLine="8" fill="#F1F1F1" height="29.0679" id="Square" rx="2.5" ry="2.5" style="stroke:#181818;stroke-width:0.5;" width="54" x="123" y="452"/><text fill="#000000" font-family="sans-serif" font-size="14" lengthAdjust="spacing" textLength="48" x="126" y="471.9659">Square</text></g><!--class Coordinate--><g id="elem_Coordinate"><rect codeLine="9" fill="#F1F1F1" height="29.0679" id="Coordinate" rx="2.5" ry="2.5" style="stroke:#181818;stroke-width:0.5;" width="80" x="110" y="541"/><text fill="#000000" font-family="sans-serif" font-size="14" lengthAdjust="spacing" textLength="74" x="113" y="560.9659">Coordinate</text></g><!--class Player--><g id="elem_Player"><rect codeLine="10" fill="#F1F1F1" height="29.0679" id="Player" rx="2.5" ry="2.5" style="stroke:#181818;stroke-width:0.5;" width="47" x="68.5" y="185"/><text fill="#000000" font-family="sans-serif" font-size="14" lengthAdjust="spacing" textLength="41" x="71.5" y="204.9659">Player</text></g><!--class WasteStack--><g id="elem_WasteStack"><rect codeLine="11" fill="#F1F1F1" height="29.0679" id="WasteStack" rx="2.5" ry="2.5" style="stroke:#181818;stroke-width:0.5;" width="82" x="234" y="363"/><text fill="#000000" font-family="sans-serif" font-size="14" lengthAdjust="spacing" textLength="76" x="237" y="382.9659">WasteStack</text></g><!--class Color--><g id="elem_Color"><rect codeLine="12" fill="#F1F1F1" height="29.0679" id="Color" rx="2.5" ry="2.5" style="stroke:#181818;stroke-width:0.5;" width="41" x="331.5" y="630"/><text fill="#000000" font-family="sans-serif" font-size="14" lengthAdjust="spacing" textLength="35" x="334.5" y="649.9659">Color</text></g><!--class White--><g id="elem_White"><rect codeLine="13" fill="#F1F1F1" height="29.0679" id="White" rx="2.5" ry="2.5" style="stroke:#181818;stroke-width:0.5;" width="45" x="290.5" y="719"/><text fill="#000000" font-family="sans-serif" font-size="14" lengthAdjust="spacing" textLength="39" x="293.5" y="738.9659">White</text></g><!--class Black--><g id="elem_Black"><rect codeLine="14" fill="#F1F1F1" height="29.0679" id="Black" rx="2.5" ry="2.5" style="stroke:#181818;stroke-width:0.5;" width="41" x="370.5" y="719"/><text fill="#000000" font-family="sans-serif" font-size="14" lengthAdjust="spacing" textLength="35" x="373.5" y="738.9659">Black</text></g><!--class Draughts--><g id="elem_Draughts"><rect codeLine="15" fill="#F1F1F1" height="29.0679" id="Draughts" rx="2.5" ry="2.5" style="stroke:#181818;stroke-width:0.5;" width="69" x="63.5" y="7"/><text fill="#000000" font-family="sans-serif" font-size="14" lengthAdjust="spacing" textLength="63" x="66.5" y="26.9659">Draughts</text></g><!--class Move--><g id="elem_Move"><rect codeLine="16" fill="#F1F1F1" height="29.0679" id="Move" rx="2.5" ry="2.5" style="stroke:#181818;stroke-width:0.5;" width="42" x="46" y="452"/><text fill="#000000" font-family="sans-serif" font-size="14" lengthAdjust="spacing" textLength="36" x="49" y="471.9659">Move</text></g><!--class Turn--><g id="elem_Turn"><rect codeLine="17" fill="#F1F1F1" height="29.0679" id="Turn" rx="2.5" ry="2.5" style="stroke:#181818;stroke-width:0.5;" width="38" x="7" y="96"/><text fill="#000000" font-family="sans-serif" font-size="14" lengthAdjust="spacing" textLength="32" x="10" y="115.9659">Turn</text></g><!--class Goal--><g id="elem_Goal"><rect codeLine="18" fill="#F1F1F1" height="29.0679" id="Goal" rx="2.5" ry="2.5" style="stroke:#181818;stroke-width:0.5;" width="36" x="74" y="363"/><text fill="#000000" font-family="sans-serif" font-size="14" lengthAdjust="spacing" textLength="30" x="77" y="382.9659">Goal</text></g><!--class WasteStackLooser--><g id="elem_WasteStackLooser"><rect codeLine="19" fill="#F1F1F1" height="29.0679" id="WasteStackLooser" rx="2.5" ry="2.5" style="stroke:#181818;stroke-width:0.5;" width="126" x="212" y="452"/><text fill="#000000" font-family="sans-serif" font-size="14" lengthAdjust="spacing" textLength="120" x="215" y="471.9659">WasteStackLooser</text></g><!--class Jump--><g id="elem_Jump"><rect codeLine="20" fill="#F1F1F1" height="29.0679" id="Jump" rx="2.5" ry="2.5" style="stroke:#181818;stroke-width:0.5;" width="41" x="33.5" y="541"/><text fill="#000000" font-family="sans-serif" font-size="14" lengthAdjust="spacing" textLength="35" x="36.5" y="560.9659">Jump</text></g><!--reverse link Draughts to Player--><g id="link_Draughts_Player"><path codeLine="22" d="M97.1326,48.0131 C96.0226,80.6931 93.59,151.72 92.47,184.69 " fill="none" id="Draughts-backto-Player" style="stroke:#181818;stroke-width:1.0;"/><polygon fill="#181818" points="97.54,36.02,93.3386,41.8808,97.1326,48.0131,101.334,42.1523,97.54,36.02" style="stroke:#181818;stroke-width:1.0;"/><text fill="#000000" font-family="sans-serif" font-size="13" lengthAdjust="spacing" textLength="7" x="84.3527" y="173.1091">2</text></g><!--reverse link Draughts to Board--><g id="link_Draughts_Board"><path codeLine="23" d="M106.3305,47.6388 C111.1705,62.3488 115.15,75.01 121,96 C139.48,162.28 157.92,242.53 164.98,273.96 " fill="none" id="Draughts-backto-Board" style="stroke:#181818;stroke-width:1.0;"/><polygon fill="#181818" points="102.58,36.24,100.6557,43.1896,106.3305,47.6388,108.2549,40.6892,102.58,36.24" style="stroke:#181818;stroke-width:1.0;"/></g><!--reverse link Draughts to Turn--><g id="link_Draughts_Turn"><path codeLine="24" d="M79.0986,45.3343 C65.6486,61.5843 50.93,79.38 37.41,95.71 " fill="none" id="Draughts-backto-Turn" style="stroke:#181818;stroke-width:1.0;"/><polygon fill="#181818" points="86.75,36.09,79.8429,38.1617,79.0986,45.3343,86.0057,43.2626,86.75,36.09" style="stroke:#181818;stroke-width:1.0;"/></g><!--reverse link Turn to Player--><g id="link_Turn_Player"><path codeLine="25" d="M43.5635,134.6496 C55.8935,150.8996 69.15,168.38 81.54,184.71 " fill="none" id="Turn-backto-Player" style="stroke:#181818;stroke-width:1.0;"/><polygon fill="#181818" points="36.31,125.09,36.7502,132.2877,43.5635,134.6496,43.1233,127.452,36.31,125.09" style="stroke:#181818;stroke-width:1.0;"/><text fill="#000000" font-family="sans-serif" font-size="13" lengthAdjust="spacing" textLength="7" x="69.3923" y="173.1365">2</text></g><!--reverse link WasteStack to Piece--><g id="link_WasteStack_Piece"><path codeLine="27" d="M308.8877,398.7807 C328.3377,411.4807 344.39,425.78 356,452 C372.72,489.74 324.72,525.63 295.58,543.22 " fill="none" id="WasteStack-backto-Piece" style="stroke:#181818;stroke-width:1.0;"/><polygon fill="none" points="298.84,392.22,301.677,398.8496,308.8877,398.7807,306.0508,392.1511,298.84,392.22" style="stroke:#181818;stroke-width:1.0;"/><text fill="#000000" font-family="sans-serif" font-size="13" lengthAdjust="spacing" textLength="27" x="303.461" y="556.3167">0..23</text></g><!--reverse link Piece to Color--><g id="link_Piece_Color"><path codeLine="29" d="M294.9824,579.0766 C309.3624,595.3266 325.34,613.38 339.8,629.71 " fill="none" id="Piece-backto-Color" style="stroke:#181818;stroke-width:1.0;"/><polygon fill="#181818" points="287.03,570.09,288.0107,577.2341,294.9824,579.0766,294.0017,571.9325,287.03,570.09" style="stroke:#181818;stroke-width:1.0;"/></g><!--reverse link Piece to Pawn--><g id="link_Piece_Pawn"><path codeLine="30" d="M275,588.09 C275,604.34 275,613.38 275,629.71 " fill="none" id="Piece-backto-Pawn" style="stroke:#181818;stroke-width:1.0;"/><polygon fill="none" points="275,570.09,269,588.09,281,588.09,275,570.09" style="stroke:#181818;stroke-width:1.0;"/></g><!--reverse link Piece to Draught--><g id="link_Piece_Draught"><path codeLine="31" d="M248.6821,582.8179 C232.4321,599.0679 218.12,613.38 201.79,629.71 " fill="none" id="Piece-backto-Draught" style="stroke:#181818;stroke-width:1.0;"/><polygon fill="none" points="261.41,570.09,244.4394,578.5753,252.9247,587.0606,261.41,570.09" style="stroke:#181818;stroke-width:1.0;"/></g><!--reverse link Color to White--><g id="link_Color_White"><path codeLine="32" d="M338.5424,675.5131 C331.2524,691.7631 326.5,702.38 319.18,718.71 " fill="none" id="Color-backto-White" style="stroke:#181818;stroke-width:1.0;"/><polygon fill="none" points="345.91,659.09,333.068,673.0572,344.0167,677.969,345.91,659.09" style="stroke:#181818;stroke-width:1.0;"/></g><!--reverse link Color to Black--><g id="link_Color_Black"><path codeLine="33" d="M365.4576,675.5131 C372.7476,691.7631 377.5,702.38 384.82,718.71 " fill="none" id="Color-backto-Black" style="stroke:#181818;stroke-width:1.0;"/><polygon fill="none" points="358.09,659.09,359.9833,677.969,370.932,673.0572,358.09,659.09" style="stroke:#181818;stroke-width:1.0;"/></g><!--reverse link Move to Jump--><g id="link_Move_Jump"><path codeLine="34" d="M62.3079,498.8921 C59.8779,515.1421 58.5,524.38 56.06,540.71 " fill="none" id="Move-backto-Jump" style="stroke:#181818;stroke-width:1.0;"/><polygon fill="none" points="64.97,481.09,56.3739,498.0047,68.2419,499.7794,64.97,481.09" style="stroke:#181818;stroke-width:1.0;"/></g><!--reverse link WasteStack to WasteStackLooser--><g id="link_WasteStack_WasteStackLooser"><path codeLine="35" d="M275,410.09 C275,426.34 275,435.38 275,451.71 " fill="none" id="WasteStack-backto-WasteStackLooser" style="stroke:#181818;stroke-width:1.0;"/><polygon fill="none" points="275,392.09,269,410.09,281,410.09,275,392.09" style="stroke:#181818;stroke-width:1.0;"/></g><!--reverse link Board to Square--><g id="link_Board_Square"><path codeLine="37" d="M165.3999,314.9578 C162.0599,347.6378 154.78,418.72 151.41,451.69 " fill="none" id="Board-backto-Square" style="stroke:#181818;stroke-width:1.0;"/><polygon fill="none" points="166.62,303.02,162.0307,308.5822,165.3999,314.9578,169.9892,309.3956,166.62,303.02" style="stroke:#181818;stroke-width:1.0;"/><text fill="#000000" font-family="sans-serif" font-size="13" lengthAdjust="spacing" textLength="21" x="127.0581" y="440.1091">8x8</text></g><!--reverse link Square to Piece--><g id="link_Square_Piece"><path codeLine="38" d="M179.3796,487.9446 C202.7296,504.1946 231.73,524.38 255.19,540.71 " fill="none" id="Square-backto-Piece" style="stroke:#181818;stroke-width:1.0;"/><polygon fill="none" points="169.53,481.09,172.1699,487.8005,179.3796,487.9446,176.7397,481.2341,169.53,481.09" style="stroke:#181818;stroke-width:1.0;"/><text fill="#000000" font-family="sans-serif" font-size="13" lengthAdjust="spacing" textLength="20" x="226.4333" y="530.8593">0..1</text></g><!--reverse link Square to Coordinate--><g id="link_Square_Coordinate"><path codeLine="39" d="M150,493.09 C150,509.34 150,524.38 150,540.71 " fill="none" id="Square-backto-Coordinate" style="stroke:#181818;stroke-width:1.0;"/><polygon fill="#181818" points="150,481.09,146,487.09,150,493.09,154,487.09,150,481.09" style="stroke:#181818;stroke-width:1.0;"/></g><!--link Goal to WasteStackLooser--><g id="link_Goal_WasteStackLooser"><path codeLine="40" d="M110.22,387.16 C142.13,402.33 202.9515,431.2432 241.0115,449.3432 " fill="none" id="Goal-to-WasteStackLooser" style="stroke:#181818;stroke-width:1.0;"/><polygon fill="#181818" points="246.43,451.92,240.0202,444.4424,241.9146,449.7726,236.5844,451.6671,246.43,451.92" style="stroke:#181818;stroke-width:1.0;"/></g><!--reverse link Board to WasteStack--><g id="link_Board_WasteStack"><path codeLine="41" d="M194.0297,310.6617 C214.0097,326.9117 237.96,346.38 258.05,362.71 " fill="none" id="Board-backto-WasteStack" style="stroke:#181818;stroke-width:1.0;"/><polygon fill="#181818" points="184.72,303.09,186.8509,309.9791,194.0297,310.6617,191.8987,303.7726,184.72,303.09" style="stroke:#181818;stroke-width:1.0;"/></g><!--reverse link Player to Goal--><g id="link_Player_Goal"><path codeLine="42" d="M92,226.02 C92,258.7 92,329.72 92,362.69 " fill="none" id="Player-backto-Goal" style="stroke:#181818;stroke-width:1.0;"/><polygon fill="#181818" points="92,214.02,88,220.02,92,226.02,96,220.02,92,214.02" style="stroke:#181818;stroke-width:1.0;"/></g><!--link Player to Board--><g id="link_Player_Board"><path codeLine="43" d="M103.88,214.09 C118.07,230.34 137.7419,252.862 152.0119,269.192 " fill="none" id="Player-to-Board" style="stroke:#181818;stroke-width:1.0;"/><polygon fill="#181818" points="155.96,273.71,153.0499,264.3009,152.6699,269.945,147.0258,269.565,155.96,273.71" style="stroke:#181818;stroke-width:1.0;"/></g><!--reverse link WasteStackLooser to Piece--><g id="link_WasteStackLooser_Piece"><path codeLine="44" d="M275,493.09 C275,509.34 275,524.38 275,540.71 " fill="none" id="WasteStackLooser-backto-Piece" style="stroke:#181818;stroke-width:1.0;"/><polygon fill="none" points="275,481.09,271,487.09,275,493.09,279,487.09,275,481.09" style="stroke:#181818;stroke-width:1.0;"/><text fill="#000000" font-family="sans-serif" font-size="13" lengthAdjust="spacing" textLength="48" x="283.85" y="529.1365">12+0..11</text></g><!--link Goal to Move--><g id="link_Goal_Move"><path codeLine="45" d="M88.09,392.09 C83.42,408.34 77.3063,429.6131 72.6163,445.9431 " fill="none" id="Goal-to-Move" style="stroke:#181818;stroke-width:1.0;stroke-dasharray:7.0,7.0;"/><polygon fill="#181818" points="70.96,451.71,77.289,444.1639,72.3402,446.9043,69.5998,441.9555,70.96,451.71" style="stroke:#181818;stroke-width:1.0;"/><text fill="#000000" font-family="sans-serif" font-size="13" lengthAdjust="spacing" textLength="7" x="64.1296" y="440.1365">*</text></g><!--link Move to Coordinate--><g id="link_Move_Coordinate"><path codeLine="46" d="M79.97,481.09 C95.47,497.34 117.1282,520.0388 132.7082,536.3688 " fill="none" id="Move-to-Coordinate" style="stroke:#181818;stroke-width:1.0;stroke-dasharray:7.0,7.0;"/><polygon fill="#181818" points="136.85,540.71,133.5314,531.4371,133.3985,537.0924,127.7432,536.9594,136.85,540.71" style="stroke:#181818;stroke-width:1.0;"/></g><!--SRC=[RL9DJyGW4BtpAmZ7cZPklUp1x67NnCHeOh8cdf4IIwHb1UgwYJzUOHXeMYymlFbwyuPUTP8APOMMf0-s74x-GWSvl4dh216QEqVlB9_UUvzUpqeAYJO_ZydS6swxP1y_9sunvc2CxTJ8VKxI_29jUhnov-NHS_6HmxN9pbxbhBqkCOcGIyydyuLHBvD5GlU6wrMJHsDSxlqm3IT2i1YjwiwSnvgobY77bG-cNC6nRJZ-Aq9AUsfgz5ytJNl3afeaNZaPD03izYU18FO2nDN4Z0A3S0iG50nYqG963MO4PpMMef4u_6o4xVUMuQxX2awh_WZ1W1kSBtdBVFbBX2rHW7Vhbj2nMZ4Y86tsn5qd38l1gfObvmmtxLKWcLb6BaspewnYyAcYM04fZ7y1]--></g></svg>