<?xml version="1.0" encoding="us-ascii" standalone="no"?><svg xmlns="http://www.w3.org/2000/svg" xmlns:xlink="http://www.w3.org/1999/xlink" contentStyleType="text/css" height="307px" preserveAspectRatio="none" style="width:365px;height:307px;background:#FFFFFF;" version="1.1" viewBox="0 0 365 307" width="365px" zoomAndPan="magnify"><defs/><g><!--class Natural--><g id="elem_Natural"><rect codeLine="4" fill="#F1F1F1" height="45.0679" id="Natural" rx="2.5" ry="2.5" style="stroke:#181818;stroke-width:0.5;" width="57" x="75" y="7"/><text fill="#000000" font-family="sans-serif" font-size="14" lengthAdjust="spacing" textLength="51" x="78" y="26.9659">Natural</text><line style="stroke:#181818;stroke-width:0.5;" x1="76" x2="131" y1="36.0679" y2="36.0679"/><line style="stroke:#181818;stroke-width:0.5;" x1="76" x2="131" y1="44.0679" y2="44.0679"/></g><!--class Unidad--><g id="elem_Unidad"><rect codeLine="5" fill="#F1F1F1" height="45.0679" id="Unidad" rx="2.5" ry="2.5" style="stroke:#181818;stroke-width:0.5;" width="55" x="7" y="131"/><text fill="#000000" font-family="sans-serif" font-size="14" lengthAdjust="spacing" textLength="49" x="10" y="150.9659">Unidad</text><line style="stroke:#181818;stroke-width:0.5;" x1="8" x2="61" y1="160.0679" y2="160.0679"/><line style="stroke:#181818;stroke-width:0.5;" x1="8" x2="61" y1="168.0679" y2="168.0679"/></g><!--class Primo--><g id="elem_Primo"><rect codeLine="6" fill="#F1F1F1" height="45.0679" id="Primo" rx="2.5" ry="2.5" style="stroke:#181818;stroke-width:0.5;" width="45" x="143" y="255"/><text fill="#000000" font-family="sans-serif" font-size="14" lengthAdjust="spacing" textLength="39" x="146" y="274.9659">Primo</text><line style="stroke:#181818;stroke-width:0.5;" x1="144" x2="187" y1="284.0679" y2="284.0679"/><line style="stroke:#181818;stroke-width:0.5;" x1="144" x2="187" y1="292.0679" y2="292.0679"/></g><!--class Compuesto--><g id="elem_Compuesto"><rect codeLine="7" fill="#F1F1F1" height="45.0679" id="Compuesto" rx="2.5" ry="2.5" style="stroke:#181818;stroke-width:0.5;" width="82" x="189.5" y="131"/><text fill="#000000" font-family="sans-serif" font-size="14" lengthAdjust="spacing" textLength="76" x="192.5" y="150.9659">Compuesto</text><line style="stroke:#181818;stroke-width:0.5;" x1="190.5" x2="270.5" y1="160.0679" y2="160.0679"/><line style="stroke:#181818;stroke-width:0.5;" x1="190.5" x2="270.5" y1="168.0679" y2="168.0679"/></g><!--reverse link Natural to Unidad--><g id="link_Natural_Unidad"><path codeLine="9" d="M59.3792,53.3471 C44.7792,61.9871 43.86,65.48 35.5,82 C27.87,97.07 28.18,116.38 30.08,130.98 " fill="none" id="Natural-backto-Unidad" style="stroke:#181818;stroke-width:1.0;"/><polygon fill="none" points="74.87,44.18,56.3235,48.1835,62.435,58.5107,74.87,44.18" style="stroke:#181818;stroke-width:1.0;"/></g><!--link Natural to Unidad--><g id="link_Natural_Unidad"><path codeLine="13" d="M87.78,52.1 C81.47,61.14 74.33,71.89 68.5,82 C59.34,97.89 52.8576,111.1654 46.4376,125.3254 " fill="none" id="Natural-to-Unidad" style="stroke:#181818;stroke-width:1.0;"/><polygon fill="#181818" points="43.96,130.79,51.3194,124.2449,46.0247,126.2362,44.0333,120.9414,43.96,130.79" style="stroke:#181818;stroke-width:1.0;"/><text fill="#000000" font-family="sans-serif" font-size="13" lengthAdjust="spacing" textLength="40" x="69.5" y="96.897">divisor</text><text fill="#000000" font-family="sans-serif" font-size="13" lengthAdjust="spacing" textLength="7" x="75.8549" y="74.0481">1</text><text fill="#000000" font-family="sans-serif" font-size="13" lengthAdjust="spacing" textLength="7" x="38.6363" y="118.9989">1</text></g><!--reverse link Natural to Primo--><g id="link_Natural_Primo"><path codeLine="10" d="M113.4008,69.7837 C125.1708,116.4637 148.26,208.08 160.01,254.72 " fill="none" id="Natural-backto-Primo" style="stroke:#181818;stroke-width:1.0;"/><polygon fill="none" points="109,52.33,107.5829,71.2507,119.2187,68.3168,109,52.33" style="stroke:#181818;stroke-width:1.0;"/></g><!--reverse link Natural to Compuesto--><g id="link_Natural_Compuesto"><path codeLine="11" d="M142.8364,63.8278 C153.3464,72.8678 151.86,71.88 162.5,82 C179.13,97.82 197.13,116.56 210.43,130.74 " fill="none" id="Natural-backto-Compuesto" style="stroke:#181818;stroke-width:1.0;"/><polygon fill="none" points="129.19,52.09,138.9239,68.3766,146.749,59.2789,129.19,52.09" style="stroke:#181818;stroke-width:1.0;"/></g><!--link Primo to Primo--><g id="link_Primo_Primo"><path codeLine="14" d="M188.23,267.31 C205.49,263.63 223,267.03 223,277.5 C223,287.97 211.3581,292.6211 194.0981,288.9411 " fill="none" id="Primo-to-Primo" style="stroke:#181818;stroke-width:1.0;"/><polygon fill="#181818" points="188.23,287.69,196.1981,293.4788,193.1201,288.7326,197.8662,285.6546,188.23,287.69" style="stroke:#181818;stroke-width:1.0;"/><text fill="#000000" font-family="sans-serif" font-size="13" lengthAdjust="spacing" textLength="40" x="229" y="282.897">divisor</text><text fill="#000000" font-family="sans-serif" font-size="13" lengthAdjust="spacing" textLength="7" x="195.9351" y="258.8105">1</text><text fill="#000000" font-family="sans-serif" font-size="13" lengthAdjust="spacing" textLength="7" x="195.9351" y="285.1772">1</text></g><!--link Compuesto to Primo--><g id="link_Compuesto_Primo"><path codeLine="15" d="M219.03,176.03 C207.22,198.19 191.7406,227.2443 179.9006,249.4743 " fill="none" id="Compuesto-to-Primo" style="stroke:#181818;stroke-width:1.0;"/><polygon fill="#181818" points="177.08,254.77,184.8413,248.7068,179.4305,250.3569,177.7804,244.9461,177.08,254.77" style="stroke:#181818;stroke-width:1.0;"/><text fill="#000000" font-family="sans-serif" font-size="13" lengthAdjust="spacing" textLength="40" x="202.5" y="220.897">divisor</text><text fill="#000000" font-family="sans-serif" font-size="13" lengthAdjust="spacing" textLength="7" x="208.1939" y="197.9602">1</text><text fill="#000000" font-family="sans-serif" font-size="13" lengthAdjust="spacing" textLength="21" x="156.3703" y="243.3597">1..p</text></g><!--link Compuesto to Compuesto--><g id="link_Compuesto_Compuesto"><path codeLine="16" d="M271.55,142.08 C290.25,140.91 306.5,144.72 306.5,153.5 C306.5,162.28 296.2383,166.4647 277.5383,165.2947 " fill="none" id="Compuesto-to-Compuesto" style="stroke:#181818;stroke-width:1.0;"/><polygon fill="#181818" points="271.55,164.92,280.2827,169.4742,276.5402,165.2322,280.7822,161.4898,271.55,164.92" style="stroke:#181818;stroke-width:1.0;"/><text fill="#000000" font-family="sans-serif" font-size="13" lengthAdjust="spacing" textLength="40" x="312.5" y="158.897">divisor</text><text fill="#000000" font-family="sans-serif" font-size="13" lengthAdjust="spacing" textLength="7" x="279.4855" y="135.4856">1</text><text fill="#000000" font-family="sans-serif" font-size="13" lengthAdjust="spacing" textLength="19" x="279.6064" y="162.3332">1..c</text></g><!--SRC=[oyXCILL8pYnApadboW2nYqjIYrBpIoeBKhcuadCIYuiL_19BIeiISw2yqBpCbCGKA2UWA3Ct7yfspiyjA4qjBiddueBgKB2fqKt9By_JXMd248Venn36OfIIePA2hguTc8QOfc2ba99PbbcSNyG5DWP52KG4eG9k8f8gFRq2OXKcAo7SX50C0000]--></g></svg>