<?xml version="1.0" encoding="us-ascii" standalone="no"?><svg xmlns="http://www.w3.org/2000/svg" xmlns:xlink="http://www.w3.org/1999/xlink" contentStyleType="text/css" height="406px" preserveAspectRatio="none" style="width:363px;height:406px;background:#FFFFFF;" version="1.1" viewBox="0 0 363 406" width="363px" zoomAndPan="magnify"><defs/><g><g id="elem_o1"><rect fill="#F1F1F1" height="39.0679" style="stroke:#181818;stroke-width:0.5;" width="22" x="213" y="361"/><text fill="#000000" font-family="sans-serif" font-size="14" lengthAdjust="spacing" textLength="8" x="220" y="377.9659">1</text><line style="stroke:#181818;stroke-width:0.5;" x1="214" x2="234" y1="384.0679" y2="384.0679"/></g><g id="elem_o2"><rect fill="#F1F1F1" height="39.0679" style="stroke:#181818;stroke-width:0.5;" width="22" x="95" y="243"/><text fill="#000000" font-family="sans-serif" font-size="14" lengthAdjust="spacing" textLength="8" x="102" y="259.9659">2</text><line style="stroke:#181818;stroke-width:0.5;" x1="96" x2="116" y1="266.0679" y2="266.0679"/></g><g id="elem_o3"><rect fill="#F1F1F1" height="39.0679" style="stroke:#181818;stroke-width:0.5;" width="22" x="271" y="243"/><text fill="#000000" font-family="sans-serif" font-size="14" lengthAdjust="spacing" textLength="8" x="278" y="259.9659">3</text><line style="stroke:#181818;stroke-width:0.5;" x1="272" x2="292" y1="266.0679" y2="266.0679"/></g><g id="elem_o4"><rect fill="#F1F1F1" height="39.0679" style="stroke:#181818;stroke-width:0.5;" width="22" x="7" y="125"/><text fill="#000000" font-family="sans-serif" font-size="14" lengthAdjust="spacing" textLength="8" x="14" y="141.9659">4</text><line style="stroke:#181818;stroke-width:0.5;" x1="8" x2="28" y1="148.0679" y2="148.0679"/></g><g id="elem_o6"><rect fill="#F1F1F1" height="39.0679" style="stroke:#181818;stroke-width:0.5;" width="22" x="185" y="125"/><text fill="#000000" font-family="sans-serif" font-size="14" lengthAdjust="spacing" textLength="8" x="192" y="141.9659">6</text><line style="stroke:#181818;stroke-width:0.5;" x1="186" x2="206" y1="148.0679" y2="148.0679"/></g><g id="elem_o12"><rect fill="#F1F1F1" height="39.0679" style="stroke:#181818;stroke-width:0.5;" width="30" x="181" y="7"/><text fill="#000000" font-family="sans-serif" font-size="14" lengthAdjust="spacing" textLength="16" x="188" y="23.9659">12</text><line style="stroke:#181818;stroke-width:0.5;" x1="182" x2="210" y1="30.0679" y2="30.0679"/></g><!--link o1 to o1--><g id="link_o1_o1"><path codeLine="12" d="M235.32,373.26 C250.91,366.65 270,369.06 270,380.5 C270,391.94 256.434,396.6921 240.844,390.0821 " fill="none" id="o1-to-o1" style="stroke:#181818;stroke-width:1.0;"/><polygon fill="#181818" points="235.32,387.74,242.0446,394.9358,239.9233,389.6918,245.1674,387.5705,235.32,387.74" style="stroke:#181818;stroke-width:1.0;"/><text fill="#000000" font-family="sans-serif" font-size="13" lengthAdjust="spacing" textLength="7" x="276" y="385.897">1</text></g><!--link o2 to o1--><g id="link_o2_o1"><path codeLine="13" d="M117.31,274.62 C139.93,296.85 186.1713,342.3137 208.6113,364.3737 " fill="none" id="o2-to-o1" style="stroke:#181818;stroke-width:1.0;"/><polygon fill="#181818" points="212.89,368.58,209.2761,359.4181,209.3244,365.0748,203.6678,365.1231,212.89,368.58" style="stroke:#181818;stroke-width:1.0;"/><text fill="#000000" font-family="sans-serif" font-size="13" lengthAdjust="spacing" textLength="7" x="173" y="326.897">2</text></g><!--link o3 to o1--><g id="link_o3_o1"><path codeLine="14" d="M272.68,282.14 C261.86,303.78 246.7923,333.9129 235.9823,355.5429 " fill="none" id="o3-to-o1" style="stroke:#181818;stroke-width:1.0;"/><polygon fill="#181818" points="233.3,360.91,240.9015,354.6476,235.5352,356.4375,233.7454,351.0712,233.3,360.91" style="stroke:#181818;stroke-width:1.0;"/><text fill="#000000" font-family="sans-serif" font-size="13" lengthAdjust="spacing" textLength="7" x="257" y="326.897">3</text></g><!--link o4 to o1--><g id="link_o4_o1"><path codeLine="15" d="M20.86,164.18 C26,192.39 39.06,246.33 68,282 C109.25,332.84 178.8577,362.6583 207.1877,373.3683 " fill="none" id="o4-to-o1" style="stroke:#181818;stroke-width:1.0;"/><polygon fill="#181818" points="212.8,375.49,205.796,368.5659,208.1231,373.7219,202.967,376.049,212.8,375.49" style="stroke:#181818;stroke-width:1.0;"/><text fill="#000000" font-family="sans-serif" font-size="13" lengthAdjust="spacing" textLength="7" x="69" y="267.897">4</text></g><!--link o6 to o1--><g id="link_o6_o1"><path codeLine="16" d="M198.24,164.25 C203.5,208.18 215.8482,311.3324 221.0682,355.0224 " fill="none" id="o6-to-o1" style="stroke:#181818;stroke-width:1.0;"/><polygon fill="#181818" points="221.78,360.98,224.684,351.569,221.1868,356.0153,216.7405,352.5181,221.78,360.98" style="stroke:#181818;stroke-width:1.0;"/><text fill="#000000" font-family="sans-serif" font-size="13" lengthAdjust="spacing" textLength="7" x="213" y="267.897">6</text></g><!--link o12 to o1--><g id="link_o12_o1"><path codeLine="17" d="M211.01,34.76 C226.67,42.95 251.11,57.57 267,76 C320.87,138.48 329.53,162.6 348,243 C351.88,259.89 355.57,266.41 348,282 C323.95,331.51 266.7087,360.9564 240.8687,372.3664 " fill="none" id="o12-to-o1" style="stroke:#181818;stroke-width:1.0;"/><polygon fill="#181818" points="235.38,374.79,245.2288,374.8137,239.9539,372.7703,241.9973,367.4954,235.38,374.79" style="stroke:#181818;stroke-width:1.0;"/><text fill="#000000" font-family="sans-serif" font-size="13" lengthAdjust="spacing" textLength="14" x="341" y="208.897">12</text></g><!--link o2 to o2--><g id="link_o2_o2"><path codeLine="19" d="M117.32,255.26 C132.91,248.65 152,251.06 152,262.5 C152,273.94 138.434,278.6921 122.844,272.0821 " fill="none" id="o2-to-o2" style="stroke:#181818;stroke-width:1.0;"/><polygon fill="#181818" points="117.32,269.74,124.0446,276.9358,121.9233,271.6918,127.1674,269.5705,117.32,269.74" style="stroke:#181818;stroke-width:1.0;"/><text fill="#000000" font-family="sans-serif" font-size="13" lengthAdjust="spacing" textLength="7" x="158" y="267.897">1</text></g><!--link o4 to o2--><g id="link_o4_o2"><path codeLine="20" d="M29.15,160.19 C46.07,182.5 74.4426,219.9107 91.3226,242.1507 " fill="none" id="o4-to-o2" style="stroke:#181818;stroke-width:1.0;"/><polygon fill="#181818" points="94.95,246.93,92.695,237.3428,91.9271,242.9473,86.3226,242.1794,94.95,246.93" style="stroke:#181818;stroke-width:1.0;"/><text fill="#000000" font-family="sans-serif" font-size="13" lengthAdjust="spacing" textLength="7" x="69" y="208.897">2</text></g><!--link o6 to o2--><g id="link_o6_o2"><path codeLine="21" d="M185.46,164.23 C177.29,178.17 165.31,197.41 153,213 C141.81,227.17 131.4226,237.7103 121.4626,247.1603 " fill="none" id="o6-to-o2" style="stroke:#181818;stroke-width:1.0;"/><polygon fill="#181818" points="117.11,251.29,126.3921,247.9971,120.7372,247.8486,120.8858,242.1936,117.11,251.29" style="stroke:#181818;stroke-width:1.0;"/><text fill="#000000" font-family="sans-serif" font-size="13" lengthAdjust="spacing" textLength="7" x="166" y="208.897">3</text></g><!--link o12 to o2--><g id="link_o12_o2"><path codeLine="22" d="M188.79,46.25 C171.89,90.18 132.0846,193.6902 115.2746,237.3802 " fill="none" id="o12-to-o2" style="stroke:#181818;stroke-width:1.0;"/><polygon fill="#181818" points="113.12,242.98,120.085,236.0167,114.9155,238.3135,112.6186,233.1439,113.12,242.98" style="stroke:#181818;stroke-width:1.0;"/><text fill="#000000" font-family="sans-serif" font-size="13" lengthAdjust="spacing" textLength="7" x="159" y="149.897">6</text></g><!--link o3 to o3--><g id="link_o3_o3"><path codeLine="24" d="M293.32,255.26 C308.91,248.65 328,251.06 328,262.5 C328,273.94 314.434,278.6921 298.844,272.0821 " fill="none" id="o3-to-o3" style="stroke:#181818;stroke-width:1.0;"/><polygon fill="#181818" points="293.32,269.74,300.0446,276.9358,297.9233,271.6918,303.1674,269.5705,293.32,269.74" style="stroke:#181818;stroke-width:1.0;"/><text fill="#000000" font-family="sans-serif" font-size="13" lengthAdjust="spacing" textLength="7" x="334" y="267.897">1</text></g><!--link o6 to o3--><g id="link_o6_o3"><path codeLine="25" d="M207.26,155.6 C217.32,164.97 232.12,179.59 243,194 C254.74,209.55 262.8594,223.6428 270.1194,237.6528 " fill="none" id="o6-to-o3" style="stroke:#181818;stroke-width:1.0;"/><polygon fill="#181818" points="272.88,242.98,272.2906,233.1488,270.5795,238.5407,265.1877,236.8296,272.88,242.98" style="stroke:#181818;stroke-width:1.0;"/><text fill="#000000" font-family="sans-serif" font-size="13" lengthAdjust="spacing" textLength="7" x="256" y="208.897">2</text></g><!--link o12 to o3--><g id="link_o12_o3"><path codeLine="26" d="M211.03,44.46 C226.48,62.91 249.94,93.94 262,125 C277.51,164.97 280.9409,209.7824 281.7009,236.7324 " fill="none" id="o12-to-o3" style="stroke:#181818;stroke-width:1.0;"/><polygon fill="#181818" points="281.87,242.73,285.6147,233.6208,281.7291,237.732,277.6179,233.8463,281.87,242.73" style="stroke:#181818;stroke-width:1.0;"/><text fill="#000000" font-family="sans-serif" font-size="13" lengthAdjust="spacing" textLength="7" x="274" y="149.897">4</text></g><!--link o4 to o4--><g id="link_o4_o4"><path codeLine="28" d="M29.32,137.26 C44.91,130.65 64,133.06 64,144.5 C64,155.94 50.434,160.6921 34.844,154.0821 " fill="none" id="o4-to-o4" style="stroke:#181818;stroke-width:1.0;"/><polygon fill="#181818" points="29.32,151.74,36.0446,158.9358,33.9233,153.6918,39.1674,151.5705,29.32,151.74" style="stroke:#181818;stroke-width:1.0;"/><text fill="#000000" font-family="sans-serif" font-size="13" lengthAdjust="spacing" textLength="7" x="70" y="149.897">1</text></g><!--link o12 to o4--><g id="link_o12_o4"><path codeLine="29" d="M180.98,33.97 C161.79,42.51 127.84,58.51 101,76 C73.61,93.84 49.0908,115.0253 33.6708,129.0353 " fill="none" id="o12-to-o4" style="stroke:#181818;stroke-width:1.0;"/><polygon fill="#181818" points="29.23,133.07,38.5811,129.9784,32.9307,129.7077,33.2014,124.0573,29.23,133.07" style="stroke:#181818;stroke-width:1.0;"/><text fill="#000000" font-family="sans-serif" font-size="13" lengthAdjust="spacing" textLength="7" x="102" y="90.897">3</text></g><!--link o6 to o6--><g id="link_o6_o6"><path codeLine="31" d="M207.32,137.26 C222.91,130.65 242,133.06 242,144.5 C242,155.94 228.434,160.6921 212.844,154.0821 " fill="none" id="o6-to-o6" style="stroke:#181818;stroke-width:1.0;"/><polygon fill="#181818" points="207.32,151.74,214.0446,158.9358,211.9233,153.6918,217.1674,151.5705,207.32,151.74" style="stroke:#181818;stroke-width:1.0;"/><text fill="#000000" font-family="sans-serif" font-size="13" lengthAdjust="spacing" textLength="7" x="248" y="149.897">1</text></g><!--link o12 to o6--><g id="link_o12_o6"><path codeLine="32" d="M196,46.14 C196,67.78 196,97.28 196,118.91 " fill="none" id="o12-to-o6" style="stroke:#181818;stroke-width:1.0;"/><polygon fill="#181818" points="196,124.91,200,115.91,196,119.91,192,115.91,196,124.91" style="stroke:#181818;stroke-width:1.0;"/><text fill="#000000" font-family="sans-serif" font-size="13" lengthAdjust="spacing" textLength="7" x="197" y="90.897">2</text></g><!--link o12 to o12--><g id="link_o12_o12"><path codeLine="34" d="M211.1,18.26 C227.44,12.93 246,15.68 246,26.5 C246,37.32 233.1442,41.9307 216.8042,36.6007 " fill="none" id="o12-to-o12" style="stroke:#181818;stroke-width:1.0;"/><polygon fill="#181818" points="211.1,34.74,218.4159,41.3338,215.8535,36.2906,220.8967,33.7282,211.1,34.74" style="stroke:#181818;stroke-width:1.0;"/><text fill="#000000" font-family="sans-serif" font-size="13" lengthAdjust="spacing" textLength="7" x="252" y="31.897">1</text></g><!--SRC=[LOun3iCm24Ltdm9bps2C63hqBgrhAQagkKgyzFObHW5dyt-6zrdMLu6yRlbJmdAyzrQsKjllMqAeptV93QOumME76WsW0ZIG52G3f80Ci09sgKXKYq6g8ippNGBSG7hGavGaJz90daJFdiGTXyN3UufGjUG9RHLL6uTH3bQQT9CzeS-cVeDvIMVFN-fYs-NhBtVLS7A_yGy0]--></g></svg>