<?xml version="1.0" encoding="us-ascii" standalone="no"?><svg xmlns="http://www.w3.org/2000/svg" xmlns:xlink="http://www.w3.org/1999/xlink" contentStyleType="text/css" height="640px" preserveAspectRatio="none" style="width:818px;height:640px;background:#FFFFFF;" version="1.1" viewBox="0 0 818 640" width="818px" zoomAndPan="magnify"><defs/><g><!--cluster motivacion--><g id="cluster_motivacion"><path d="M113.5,278.5 L192.5,278.5 A3.75,3.75 0 0 1 195,281 L202,303.5679 L711.5,303.5679 A2.5,2.5 0 0 1 714,306.0679 L714,583 A2.5,2.5 0 0 1 711.5,585.5 L113.5,585.5 A2.5,2.5 0 0 1 111,583 L111,281 A2.5,2.5 0 0 1 113.5,278.5 " fill="none" style="stroke:#000000;stroke-width:1.5;"/><line style="stroke:#000000;stroke-width:1.5;" x1="111" x2="202" y1="303.5679" y2="303.5679"/><text fill="#000000" font-family="sans-serif" font-size="14" font-weight="bold" lengthAdjust="spacing" textLength="78" x="115" y="295.4659">motivacion</text></g><!--cluster mecanicista--><g id="cluster_mecanicista"><path d="M315.5,334 L398.5,334 A3.75,3.75 0 0 1 401,336.5 L408,359.0679 L519.5,359.0679 A2.5,2.5 0 0 1 522,361.5679 L522,559 A2.5,2.5 0 0 1 519.5,561.5 L315.5,561.5 A2.5,2.5 0 0 1 313,559 L313,336.5 A2.5,2.5 0 0 1 315.5,334 " fill="none" style="stroke:#000000;stroke-width:1.5;"/><line style="stroke:#000000;stroke-width:1.5;" x1="313" x2="408" y1="359.0679" y2="359.0679"/><text fill="#000000" font-family="sans-serif" font-size="14" font-weight="bold" lengthAdjust="spacing" textLength="82" x="317" y="350.9659">mecanicista</text></g><!--cluster psicosociologico--><g id="cluster_psicosociologico"><path d="M137.5,324.5 L252.5,324.5 A3.75,3.75 0 0 1 255,327 L262,349.5679 L286.5,349.5679 A2.5,2.5 0 0 1 289,352.0679 L289,470 A2.5,2.5 0 0 1 286.5,472.5 L137.5,472.5 A2.5,2.5 0 0 1 135,470 L135,327 A2.5,2.5 0 0 1 137.5,324.5 " fill="none" style="stroke:#000000;stroke-width:1.5;"/><line style="stroke:#000000;stroke-width:1.5;" x1="135" x2="262" y1="349.5679" y2="349.5679"/><text fill="#000000" font-family="sans-serif" font-size="14" font-weight="bold" lengthAdjust="spacing" textLength="114" x="139" y="341.4659">psicosociologico</text></g><!--cluster antropologico--><g id="cluster_antropologico"><path d="M548.5,324.5 L647.5,324.5 A3.75,3.75 0 0 1 650,327 L657,349.5679 L687.5,349.5679 A2.5,2.5 0 0 1 690,352.0679 L690,470 A2.5,2.5 0 0 1 687.5,472.5 L548.5,472.5 A2.5,2.5 0 0 1 546,470 L546,327 A2.5,2.5 0 0 1 548.5,324.5 " fill="none" style="stroke:#000000;stroke-width:1.5;"/><line style="stroke:#000000;stroke-width:1.5;" x1="546" x2="657" y1="349.5679" y2="349.5679"/><text fill="#000000" font-family="sans-serif" font-size="14" font-weight="bold" lengthAdjust="spacing" textLength="98" x="550" y="341.4659">antropologico</text></g><!--class extrinseca--><g id="elem_extrinseca"><rect codeLine="22" fill="#F1F1F1" height="75.2038" id="extrinseca" rx="2.5" ry="2.5" style="stroke:#181818;stroke-width:0.5;" width="75" x="328.5" y="372"/><text fill="#000000" font-family="sans-serif" font-size="14" lengthAdjust="spacing" textLength="69" x="331.5" y="391.9659">extrinseca</text><line style="stroke:#181818;stroke-width:0.5;" x1="329.5" x2="402.5" y1="401.0679" y2="401.0679"/><text fill="#000000" font-family="sans-serif" font-size="14" lengthAdjust="spacing" textLength="26" x="334.5" y="420.0339">qu&#233;</text><text fill="#000000" font-family="sans-serif" font-size="14" lengthAdjust="spacing" textLength="46" x="334.5" y="439.1018">cu&#225;nto</text></g><!--class incentivo--><g id="elem_incentivo"><rect fill="#F1F1F1" height="29.0679" id="incentivo" rx="2.5" ry="2.5" style="stroke:#181818;stroke-width:0.5;" width="67" x="438.5" y="395"/><text fill="#000000" font-family="sans-serif" font-size="14" lengthAdjust="spacing" textLength="61" x="441.5" y="414.9659">incentivo</text></g><!--class retribucion--><g id="elem_retribucion"><rect fill="#F1F1F1" height="29.0679" id="retribucion" rx="2.5" ry="2.5" style="stroke:#181818;stroke-width:0.5;" width="81" x="376.5" y="516.5"/><text fill="#000000" font-family="sans-serif" font-size="14" lengthAdjust="spacing" textLength="75" x="379.5" y="536.4659">retribucion</text></g><!--class intrinseca--><g id="elem_intrinseca"><rect codeLine="38" fill="#F1F1F1" height="94.2717" id="intrinseca" rx="2.5" ry="2.5" style="stroke:#181818;stroke-width:0.5;" width="121" x="151.5" y="362.5"/><text fill="#000000" font-family="sans-serif" font-size="14" lengthAdjust="spacing" textLength="67" x="178.5" y="382.4659">intrinseca</text><line style="stroke:#181818;stroke-width:0.5;" x1="152.5" x2="271.5" y1="391.5679" y2="391.5679"/><text fill="#000000" font-family="sans-serif" font-size="14" lengthAdjust="spacing" textLength="42" x="157.5" y="410.5339">logros</text><text fill="#000000" font-family="sans-serif" font-size="14" lengthAdjust="spacing" textLength="80" x="157.5" y="429.6018">aprendizaje</text><text fill="#000000" font-family="sans-serif" font-size="14" lengthAdjust="spacing" textLength="109" x="157.5" y="448.6697">responsabilidad</text></g><!--class trascendente--><g id="elem_trascendente"><rect codeLine="49" fill="#F1F1F1" height="94.2717" id="trascendente" rx="2.5" ry="2.5" style="stroke:#181818;stroke-width:0.5;" width="112" x="562" y="362.5"/><text fill="#000000" font-family="sans-serif" font-size="14" lengthAdjust="spacing" textLength="89" x="573.5" y="382.4659">trascendente</text><line style="stroke:#181818;stroke-width:0.5;" x1="563" x2="673" y1="391.5679" y2="391.5679"/><text fill="#000000" font-family="sans-serif" font-size="14" lengthAdjust="spacing" textLength="42" x="568" y="410.5339">logros</text><text fill="#000000" font-family="sans-serif" font-size="14" lengthAdjust="spacing" textLength="80" x="568" y="429.6018">aprendizaje</text><text fill="#000000" font-family="sans-serif" font-size="14" lengthAdjust="spacing" textLength="100" x="568" y="448.6697">resposabilidad</text></g><!--entity persona--><g id="elem_persona"><ellipse cx="460" cy="14" fill="#F1F1F1" rx="8" ry="8" style="stroke:#181818;stroke-width:0.5;"/><path d="M460,22 L460,49 M447,30 L473,30 M460,49 L447,64 M460,49 L473,64 " fill="none" style="stroke:#181818;stroke-width:0.5;"/><text fill="#000000" font-family="sans-serif" font-size="14" lengthAdjust="spacing" textLength="91" x="414.5" y="80.4659">Agente activo</text></g><!--entity persona2--><g id="elem_persona2"><ellipse cx="759" cy="14" fill="#F1F1F1" rx="8" ry="8" style="stroke:#181818;stroke-width:0.5;"/><path d="M759,22 L759,49 M746,30 L772,30 M759,49 L746,64 M759,49 L772,64 " fill="none" style="stroke:#181818;stroke-width:0.5;"/><text fill="#000000" font-family="sans-serif" font-size="14" lengthAdjust="spacing" textLength="105" x="706.5" y="80.4659">Agente reactivo</text></g><!--class actuacion--><g id="elem_actuacion"><rect fill="#F1F1F1" height="29.0679" id="actuacion" rx="2.5" ry="2.5" style="stroke:#181818;stroke-width:0.5;" width="71" x="540.5" y="30.5"/><text fill="#000000" font-family="sans-serif" font-size="14" lengthAdjust="spacing" textLength="65" x="543.5" y="50.4659">actuacion</text></g><!--class produccion--><g id="elem_produccion"><rect fill="#F1F1F1" height="29.0679" id="produccion" rx="2.5" ry="2.5" style="stroke:#181818;stroke-width:0.5;" width="82" x="182" y="605.5"/><text fill="#000000" font-family="sans-serif" font-size="14" lengthAdjust="spacing" textLength="76" x="185" y="625.4659">produccion</text></g><!--class resultados--><g id="elem_resultados"><rect fill="#F1F1F1" height="29.0679" id="resultados" rx="2.5" ry="2.5" style="stroke:#181818;stroke-width:0.5;" width="77" x="537.5" y="144.5"/><text fill="#000000" font-family="sans-serif" font-size="14" lengthAdjust="spacing" textLength="71" x="540.5" y="164.4659">resultados</text></g><!--class percepcion--><g id="elem_percepcion"><rect fill="#F1F1F1" height="29.0679" id="percepcion" rx="2.5" ry="2.5" style="stroke:#181818;stroke-width:0.5;" width="81" x="337.5" y="233.5"/><text fill="#000000" font-family="sans-serif" font-size="14" lengthAdjust="spacing" textLength="75" x="340.5" y="253.4659">percepcion</text></g><!--link persona to actuacion--><g id="link_persona_actuacion"><path codeLine="8" d="M505.77,73.31 C523.6,77.15 536.5766,76.1177 554.4066,63.1577 " fill="none" id="persona-to-actuacion" style="stroke:#181818;stroke-width:1.0;"/><polygon fill="#181818" points="559.26,59.63,549.6281,61.686,555.2155,62.5698,554.3318,68.1572,559.26,59.63" style="stroke:#181818;stroke-width:1.0;"/></g><!--link persona to actuacion--><g id="link_persona_actuacion"><path codeLine="14" d="M505.77,16.69 C523.6,12.85 541.43,17.41 559.26,30.37 " fill="none" id="persona-actuacion" style="stroke:#181818;stroke-width:1.0;stroke-dasharray:7.0,7.0;"/></g><!--link actuacion to persona2--><g id="link_actuacion_persona2"><path codeLine="9" d="M611.74,45 C643.28,45 668.83,45 700.37,45 " fill="none" id="actuacion-to-persona2" style="stroke:#181818;stroke-width:1.0;stroke-dasharray:7.0,7.0;"/><polygon fill="#181818" points="706.37,45,697.37,41,701.37,45,697.37,49,706.37,45" style="stroke:#181818;stroke-width:1.0;"/></g><!--link persona to produccion--><g id="link_persona_produccion"><path codeLine="11" d="M414.39,45.69 C299.26,47.54 6,69.65 6,247 C6,247 6,247 6,410.5 C6,512.9 62.58,534.1 146,593.5 C156.55,601.01 169.47,606.42 181.68,610.26 " fill="none" id="persona-produccion" style="stroke:#181818;stroke-width:1.0;stroke-dasharray:7.0,7.0;"/></g><!--link resultados to produccion--><g id="link_resultados_produccion"><path codeLine="12" d="M598.8,173.78 C626.41,191.97 671.52,226.84 690,270.5 C726.39,356.45 733.87,398.12 690,480.5 C647.7,559.92 606.88,563.61 522,593.5 C475.56,609.85 334.72,615.96 264.18,618.03 " fill="none" id="resultados-produccion" style="stroke:#181818;stroke-width:1.0;stroke-dasharray:7.0,7.0;"/></g><!--link percepcion to produccion--><g id="link_percepcion_produccion"><path codeLine="13" d="M337.47,249.66 C271.87,251.16 148.37,255.9 135,270.5 C42.93,371.07 172.13,553.84 211.96,605.23 " fill="none" id="percepcion-produccion" style="stroke:#181818;stroke-width:1.0;stroke-dasharray:7.0,7.0;"/></g><!--link persona to percepcion--><g id="link_persona_percepcion"><path codeLine="16" d="M444.19,84.75 C425.67,130.16 395.95,203.01 383.63,233.2 " fill="none" id="persona-percepcion" style="stroke:#181818;stroke-width:1.0;stroke-dasharray:7.0,7.0;"/></g><!--link incentivo to retribucion--><g id="link_incentivo_retribucion"><path codeLine="27" d="M465.69,424.21 C455.08,447.26 436.3089,488.0597 425.7489,510.9997 " fill="none" id="incentivo-to-retribucion" style="stroke:#181818;stroke-width:1.0;"/><polygon fill="#181818" points="423.24,516.45,430.6369,509.9472,425.3308,511.9081,423.3699,506.602,423.24,516.45" style="stroke:#181818;stroke-width:1.0;"/></g><!--reverse link extrinseca to incentivo--><g id="link_extrinseca_incentivo"><path codeLine="28" d="M409.68,409.5 C421.24,409.5 426.81,409.5 438.37,409.5 " fill="none" id="extrinseca-backto-incentivo" style="stroke:#181818;stroke-width:1.0;"/><polygon fill="#181818" points="403.68,409.5,412.68,413.5,408.68,409.5,412.68,405.5,403.68,409.5" style="stroke:#181818;stroke-width:1.0;"/></g><!--link retribucion to produccion--><g id="link_retribucion_produccion"><path codeLine="29" d="M386.69,545.59 C350.35,561.89 289.81,589.04 253.42,605.36 " fill="none" id="retribucion-produccion" style="stroke:#181818;stroke-width:1.0;stroke-dasharray:7.0,7.0;"/></g><!--link persona to incentivo--><g id="link_persona_incentivo"><path codeLine="30" d="M461.28,84.79 C463.93,164.61 469.86,343.99 471.55,394.84 " fill="none" id="persona-incentivo" style="stroke:#181818;stroke-width:1.0;stroke-dasharray:7.0,7.0;"/></g><!--link actuacion to resultados--><g id="link_actuacion_resultados"><path codeLine="34" d="M576,59.73 C576,81.23 576,122.59 576,144.15 " fill="none" id="actuacion-resultados" style="stroke:#181818;stroke-width:1.0;stroke-dasharray:7.0,7.0;"/></g><!--link resultados to percepcion--><g id="link_resultados_percepcion"><path codeLine="35" d="M545.06,173.59 C507.97,189.89 451.6728,214.6257 414.5428,230.9457 " fill="none" id="resultados-to-percepcion" style="stroke:#181818;stroke-width:1.0;"/><polygon fill="#181818" points="409.05,233.36,418.8988,233.4004,413.6274,231.3481,415.6797,226.0767,409.05,233.36" style="stroke:#181818;stroke-width:1.0;"/></g><!--link percepcion to intrinseca--><g id="link_percepcion_intrinseca"><path codeLine="45" d="M337.28,258.18 C328.77,261.24 320.21,265.25 313,270.5 C280.11,294.44 256.5399,327.1071 238.9099,357.1071 " fill="none" id="percepcion-to-intrinseca" style="stroke:#181818;stroke-width:1.0;"/><polygon fill="#181818" points="235.87,362.28,243.8785,356.5473,238.4033,357.9693,236.9813,352.494,235.87,362.28" style="stroke:#181818;stroke-width:1.0;"/></g><!--link persona2 to trascendente--><g id="link_persona2_trascendente"><path codeLine="54" d="M743.91,84.79 C717.73,152.1 664.01,290.2 635.96,362.33 " fill="none" id="persona2-trascendente" style="stroke:#181818;stroke-width:1.0;stroke-dasharray:7.0,7.0;"/></g><!--link percepcion to trascendente--><g id="link_percepcion_trascendente"><path codeLine="56" d="M418.73,251.49 C455.12,254.36 505.2,260.07 522,270.5 C556.71,292.05 579.4368,325.9587 595.3768,357.1087 " fill="none" id="percepcion-to-trascendente" style="stroke:#181818;stroke-width:1.0;"/><polygon fill="#181818" points="598.11,362.45,597.571,352.6159,595.8323,357.9989,590.4493,356.2602,598.11,362.45" style="stroke:#181818;stroke-width:1.0;"/></g><!--SRC=[fP9BSiCW38Rtd8B9FYnoWCpq91q5DAvQ31HmcxIJmtJPS-HYbP_WF5Pb9KiVqgyVWxN-yxcb8xb6l911YMt89zbYUy2OnfIcg2qA0JhxA3TF3RgCah_emsya91aOzGxa5H7nbja9CTFRkDttNJhGv9rO8gcYsj_XbL4oH6ywFV0bbAfJF2nrDeFnQLMngk-aCOntgbPbSaclOCw3VeC6PUjvZL7Rjn2Ipr913OuqfGnSajFH5bAIUCoHN6AYAlNdlRlyhXAwk_oux9VSMImXESrUieboosv5v9Q7Rf1tXx2CbAaBKTqQLYmUpaGnG9L-euX9I_KwAw_7_lFd8BAsiFOg9D8-UIvOtt1uOnYv1uOn7wTPyu4GqHdwWbTSvLbBy2x1WImPCBMbzRQJm45l6LilFAi6hlhmI7AEaDWkC_pl_nDzJ_FL- -pw1rAheGloQBiRcFSxYpy0]--></g></svg>