<?xml version="1.0" encoding="us-ascii" standalone="no"?><svg xmlns="http://www.w3.org/2000/svg" xmlns:xlink="http://www.w3.org/1999/xlink" contentStyleType="text/css" height="764px" preserveAspectRatio="none" style="width:1038px;height:764px;background:#FFFFFF;" version="1.1" viewBox="0 0 1038 764" width="1038px" zoomAndPan="magnify"><defs/><g><rect fill="none" height="417.8842" style="stroke:#000000;stroke-width:1.5;" width="838" x="194.5" y="182.186"/><line style="stroke:#181818;stroke-width:0.5;stroke-dasharray:5.0,5.0;" x1="36" x2="36" y1="84.0679" y2="680.4822"/><line style="stroke:#181818;stroke-width:0.5;stroke-dasharray:5.0,5.0;" x1="251.5" x2="251.5" y1="84.0679" y2="680.4822"/><line style="stroke:#181818;stroke-width:0.5;stroke-dasharray:5.0,5.0;" x1="434" x2="434" y1="84.0679" y2="680.4822"/><line style="stroke:#181818;stroke-width:0.5;stroke-dasharray:5.0,5.0;" x1="606.5" x2="606.5" y1="84.0679" y2="680.4822"/><line style="stroke:#181818;stroke-width:0.5;stroke-dasharray:5.0,5.0;" x1="726.5" x2="726.5" y1="84.0679" y2="680.4822"/><line style="stroke:#181818;stroke-width:0.5;stroke-dasharray:5.0,5.0;" x1="860.5" x2="860.5" y1="84.0679" y2="680.4822"/><line style="stroke:#181818;stroke-width:0.5;stroke-dasharray:5.0,5.0;" x1="977.5" x2="977.5" y1="84.0679" y2="680.4822"/><text fill="#000000" font-family="sans-serif" font-size="14" lengthAdjust="spacing" textLength="57" x="5" y="79.9659">Humano</text><ellipse cx="36.5" cy="13.5" fill="#E2E2F0" rx="8" ry="8" style="stroke:#181818;stroke-width:0.5;"/><path d="M36.5,21.5 L36.5,48.5 M23.5,29.5 L49.5,29.5 M36.5,48.5 L23.5,63.5 M36.5,48.5 L49.5,63.5 " fill="none" style="stroke:#181818;stroke-width:0.5;"/><text fill="#000000" font-family="sans-serif" font-size="14" lengthAdjust="spacing" textLength="57" x="5" y="694.4482">Humano</text><ellipse cx="36.5" cy="707.0501" fill="#E2E2F0" rx="8" ry="8" style="stroke:#181818;stroke-width:0.5;"/><path d="M36.5,715.0501 L36.5,742.0501 M23.5,723.0501 L49.5,723.0501 M36.5,742.0501 L23.5,757.0501 M36.5,742.0501 L49.5,757.0501 " fill="none" style="stroke:#181818;stroke-width:0.5;"/><rect fill="#E2E2F0" height="33.0679" rx="2.5" ry="2.5" style="stroke:#181818;stroke-width:0.5;" width="94" x="204.5" y="50"/><text fill="#000000" font-family="sans-serif" font-size="14" lengthAdjust="spacing" textLength="80" x="211.5" y="71.9659">Controlador</text><rect fill="#E2E2F0" height="33.0679" rx="2.5" ry="2.5" style="stroke:#181818;stroke-width:0.5;" width="94" x="204.5" y="679.4822"/><text fill="#000000" font-family="sans-serif" font-size="14" lengthAdjust="spacing" textLength="80" x="211.5" y="701.4482">Controlador</text><rect fill="#E2E2F0" height="33.0679" rx="2.5" ry="2.5" style="stroke:#181818;stroke-width:0.5;" width="89" x="390" y="50"/><text fill="#000000" font-family="sans-serif" font-size="14" lengthAdjust="spacing" textLength="75" x="397" y="71.9659">Blackboard</text><rect fill="#E2E2F0" height="33.0679" rx="2.5" ry="2.5" style="stroke:#181818;stroke-width:0.5;" width="89" x="390" y="679.4822"/><text fill="#000000" font-family="sans-serif" font-size="14" lengthAdjust="spacing" textLength="75" x="397" y="701.4482">Blackboard</text><rect fill="#E2E2F0" height="52.1358" rx="2.5" ry="2.5" style="stroke:#181818;stroke-width:0.5;" width="98" x="557.5" y="30.9321"/><text fill="#000000" font-family="sans-serif" font-size="14" lengthAdjust="spacing" textLength="61" x="576" y="52.898">Agente A</text><text fill="#000000" font-family="sans-serif" font-size="14" lengthAdjust="spacing" textLength="84" x="564.5" y="71.9659">(formalismo)</text><rect fill="#E2E2F0" height="52.1358" rx="2.5" ry="2.5" style="stroke:#181818;stroke-width:0.5;" width="98" x="557.5" y="679.4822"/><text fill="#000000" font-family="sans-serif" font-size="14" lengthAdjust="spacing" textLength="61" x="576" y="701.4482">Agente A</text><text fill="#000000" font-family="sans-serif" font-size="14" lengthAdjust="spacing" textLength="84" x="564.5" y="720.5161">(formalismo)</text><rect fill="#E2E2F0" height="52.1358" rx="2.5" ry="2.5" style="stroke:#181818;stroke-width:0.5;" width="123" x="665.5" y="30.9321"/><text fill="#000000" font-family="sans-serif" font-size="14" lengthAdjust="spacing" textLength="61" x="696.5" y="52.898">Agente B</text><text fill="#000000" font-family="sans-serif" font-size="14" lengthAdjust="spacing" textLength="109" x="672.5" y="71.9659">(fenomenolog&#237;a)</text><rect fill="#E2E2F0" height="52.1358" rx="2.5" ry="2.5" style="stroke:#181818;stroke-width:0.5;" width="123" x="665.5" y="679.4822"/><text fill="#000000" font-family="sans-serif" font-size="14" lengthAdjust="spacing" textLength="61" x="696.5" y="701.4482">Agente B</text><text fill="#000000" font-family="sans-serif" font-size="14" lengthAdjust="spacing" textLength="109" x="672.5" y="720.5161">(fenomenolog&#237;a)</text><rect fill="#E2E2F0" height="52.1358" rx="2.5" ry="2.5" style="stroke:#181818;stroke-width:0.5;" width="125" x="798.5" y="30.9321"/><text fill="#000000" font-family="sans-serif" font-size="14" lengthAdjust="spacing" textLength="61" x="830.5" y="52.898">Agente C</text><text fill="#000000" font-family="sans-serif" font-size="14" lengthAdjust="spacing" textLength="111" x="805.5" y="71.9659">(deconstrucci&#243;n)</text><rect fill="#E2E2F0" height="52.1358" rx="2.5" ry="2.5" style="stroke:#181818;stroke-width:0.5;" width="125" x="798.5" y="679.4822"/><text fill="#000000" font-family="sans-serif" font-size="14" lengthAdjust="spacing" textLength="61" x="830.5" y="701.4482">Agente C</text><text fill="#000000" font-family="sans-serif" font-size="14" lengthAdjust="spacing" textLength="111" x="805.5" y="720.5161">(deconstrucci&#243;n)</text><rect fill="#E2E2F0" height="33.0679" rx="2.5" ry="2.5" style="stroke:#181818;stroke-width:0.5;" width="89" x="933.5" y="50"/><text fill="#000000" font-family="sans-serif" font-size="14" lengthAdjust="spacing" textLength="75" x="940.5" y="71.9659">Moderador</text><rect fill="#E2E2F0" height="33.0679" rx="2.5" ry="2.5" style="stroke:#181818;stroke-width:0.5;" width="89" x="933.5" y="679.4822"/><text fill="#000000" font-family="sans-serif" font-size="14" lengthAdjust="spacing" textLength="75" x="940.5" y="701.4482">Moderador</text><polygon fill="#181818" points="239.5,113.7739,249.5,117.7739,239.5,121.7739,243.5,117.7739" style="stroke:#181818;stroke-width:1.0;"/><line style="stroke:#181818;stroke-width:1.0;" x1="36.5" x2="245.5" y1="117.7739" y2="117.7739"/><text fill="#000000" font-family="sans-serif" font-size="13" lengthAdjust="spacing" textLength="191" x="43.5" y="111.9649">define objeto + marcos + rondas</text><polygon fill="#181818" points="422.5,163.186,432.5,167.186,422.5,171.186,426.5,167.186" style="stroke:#181818;stroke-width:1.0;"/><line style="stroke:#181818;stroke-width:1.0;" x1="251.5" x2="428.5" y1="167.186" y2="167.186"/><text fill="#000000" font-family="sans-serif" font-size="13" lengthAdjust="spacing" textLength="117" x="258.5" y="143.6709">inicializa debate.md</text><text fill="#000000" font-family="sans-serif" font-size="13" lengthAdjust="spacing" textLength="159" x="258.5" y="161.377">con objeto y configuraci&#243;n</text><path d="M194.5,182.186 L267.5,182.186 L267.5,191.892 L257.5,201.892 L194.5,201.892 L194.5,182.186 " fill="#EEEEEE" style="stroke:#000000;stroke-width:1.5;"/><rect fill="none" height="417.8842" style="stroke:#000000;stroke-width:1.5;" width="838" x="194.5" y="182.186"/><text fill="#000000" font-family="sans-serif" font-size="13" font-weight="bold" lengthAdjust="spacing" textLength="28" x="209.5" y="197.083">loop</text><text fill="#000000" font-family="sans-serif" font-size="11" font-weight="bold" lengthAdjust="spacing" textLength="100" x="282.5" y="195.9449">[para cada ronda]</text><polygon fill="#181818" points="594.5,221.598,604.5,225.598,594.5,229.598,598.5,225.598" style="stroke:#181818;stroke-width:1.0;"/><line style="stroke:#181818;stroke-width:1.0;" x1="251.5" x2="600.5" y1="225.598" y2="225.598"/><text fill="#000000" font-family="sans-serif" font-size="13" lengthAdjust="spacing" textLength="34" x="258.5" y="219.789">turno</text><polygon fill="#181818" points="445.5,253.304,435.5,257.304,445.5,261.304,441.5,257.304" style="stroke:#181818;stroke-width:1.0;"/><line style="stroke:#181818;stroke-width:1.0;" x1="439.5" x2="605.5" y1="257.304" y2="257.304"/><text fill="#000000" font-family="sans-serif" font-size="13" lengthAdjust="spacing" textLength="121" x="451.5" y="251.495">lee estado completo</text><polygon fill="#181818" points="445.5,285.01,435.5,289.01,445.5,293.01,441.5,289.01" style="stroke:#181818;stroke-width:1.0;"/><line style="stroke:#181818;stroke-width:1.0;" x1="439.5" x2="605.5" y1="289.01" y2="289.01"/><text fill="#000000" font-family="sans-serif" font-size="13" lengthAdjust="spacing" textLength="148" x="451.5" y="283.201">escribe an&#225;lisis (marco A)</text><polygon fill="#181818" points="715,316.716,725,320.716,715,324.716,719,320.716" style="stroke:#181818;stroke-width:1.0;"/><line style="stroke:#181818;stroke-width:1.0;" x1="251.5" x2="721" y1="320.716" y2="320.716"/><text fill="#000000" font-family="sans-serif" font-size="13" lengthAdjust="spacing" textLength="34" x="258.5" y="314.907">turno</text><polygon fill="#181818" points="445.5,348.4221,435.5,352.4221,445.5,356.4221,441.5,352.4221" style="stroke:#181818;stroke-width:1.0;"/><line style="stroke:#181818;stroke-width:1.0;" x1="439.5" x2="726" y1="352.4221" y2="352.4221"/><text fill="#000000" font-family="sans-serif" font-size="13" lengthAdjust="spacing" textLength="121" x="451.5" y="346.6131">lee estado completo</text><polygon fill="#181818" points="445.5,380.1281,435.5,384.1281,445.5,388.1281,441.5,384.1281" style="stroke:#181818;stroke-width:1.0;"/><line style="stroke:#181818;stroke-width:1.0;" x1="439.5" x2="726" y1="384.1281" y2="384.1281"/><text fill="#000000" font-family="sans-serif" font-size="13" lengthAdjust="spacing" textLength="148" x="451.5" y="378.3191">escribe an&#225;lisis (marco B)</text><polygon fill="#181818" points="849,411.8341,859,415.8341,849,419.8341,853,415.8341" style="stroke:#181818;stroke-width:1.0;"/><line style="stroke:#181818;stroke-width:1.0;" x1="251.5" x2="855" y1="415.8341" y2="415.8341"/><text fill="#000000" font-family="sans-serif" font-size="13" lengthAdjust="spacing" textLength="34" x="258.5" y="410.0251">turno</text><polygon fill="#181818" points="445.5,443.5401,435.5,447.5401,445.5,451.5401,441.5,447.5401" style="stroke:#181818;stroke-width:1.0;"/><line style="stroke:#181818;stroke-width:1.0;" x1="439.5" x2="860" y1="447.5401" y2="447.5401"/><text fill="#000000" font-family="sans-serif" font-size="13" lengthAdjust="spacing" textLength="121" x="451.5" y="441.7311">lee estado completo</text><polygon fill="#181818" points="445.5,475.2461,435.5,479.2461,445.5,483.2461,441.5,479.2461" style="stroke:#181818;stroke-width:1.0;"/><line style="stroke:#181818;stroke-width:1.0;" x1="439.5" x2="860" y1="479.2461" y2="479.2461"/><text fill="#000000" font-family="sans-serif" font-size="13" lengthAdjust="spacing" textLength="148" x="451.5" y="473.4371">escribe an&#225;lisis (marco C)</text><polygon fill="#181818" points="966,506.9521,976,510.9521,966,514.9521,970,510.9521" style="stroke:#181818;stroke-width:1.0;"/><line style="stroke:#181818;stroke-width:1.0;" x1="251.5" x2="972" y1="510.9521" y2="510.9521"/><text fill="#000000" font-family="sans-serif" font-size="13" lengthAdjust="spacing" textLength="34" x="258.5" y="505.1431">turno</text><polygon fill="#181818" points="445.5,538.6582,435.5,542.6582,445.5,546.6582,441.5,542.6582" style="stroke:#181818;stroke-width:1.0;"/><line style="stroke:#181818;stroke-width:1.0;" x1="439.5" x2="977" y1="542.6582" y2="542.6582"/><text fill="#000000" font-family="sans-serif" font-size="13" lengthAdjust="spacing" textLength="121" x="451.5" y="536.8492">lee estado completo</text><polygon fill="#181818" points="445.5,588.0702,435.5,592.0702,445.5,596.0702,441.5,592.0702" style="stroke:#181818;stroke-width:1.0;"/><line style="stroke:#181818;stroke-width:1.0;" x1="439.5" x2="977" y1="592.0702" y2="592.0702"/><text fill="#000000" font-family="sans-serif" font-size="13" lengthAdjust="spacing" textLength="136" x="451.5" y="568.5552">identifica desacuerdos,</text><text fill="#000000" font-family="sans-serif" font-size="13" lengthAdjust="spacing" textLength="136" x="451.5" y="586.2612">provoca confrontaci&#243;n</text><polygon fill="#181818" points="422.5,626.7762,432.5,630.7762,422.5,634.7762,426.5,630.7762" style="stroke:#181818;stroke-width:1.0;"/><line style="stroke:#181818;stroke-width:1.0;" x1="251.5" x2="428.5" y1="630.7762" y2="630.7762"/><text fill="#000000" font-family="sans-serif" font-size="13" lengthAdjust="spacing" textLength="117" x="258.5" y="624.9672">genera s&#237;ntesis final</text><polygon fill="#181818" points="47.5,658.4822,37.5,662.4822,47.5,666.4822,43.5,662.4822" style="stroke:#181818;stroke-width:1.0;"/><line style="stroke:#181818;stroke-width:1.0;" x1="41.5" x2="433.5" y1="662.4822" y2="662.4822"/><text fill="#000000" font-family="sans-serif" font-size="13" lengthAdjust="spacing" textLength="102" x="53.5" y="656.6732">debate completo</text><!--SRC=[XP9DRiCW48Ntd6AKLQB-7A2BIiPTUD6eKjLbDcCW4IrcBC2Lsjlq05dr2BvOnwH9InJ9bf0CVBptO0PLeW2BPkZGqm8mGYDw3CagswDFiAZ9fq0EDOMyNRyyFvQ4TAZUMiAWCo1bkLtjZ4y6gerVRYbqw6piQ9NHwY8f9z9uwdWuserxFD2NTMkcjL7aOmg3KdRyzWUyBl4rQHDEjrW_FGZHmCrzlW_SWJPRwmrG-seImHLq61H5_WdaDKQHCSQbPDXwbkMBV2AVQp6PsqvlF6Sudly0dcpjRWYO4mdXY7hWG0WADHvK1V1t5AvODmt1KrwjJbxE630nSNBMx7h7ycU4YIhOrW3wyOiVrqPOvlHGhKHX8GiBEMiXvotacKLTMDIp5lMyHNrcmQKhJARvdCr_nchk6xkrQYfUH3MOe2bURtmVw9ruTIeTroVzbivuBShoS-DnAq4Szzo0Kr9k7NH2vlTgSZDDJV4NuGS0]--></g></svg>