<?xml version="1.0" encoding="us-ascii" standalone="no"?><svg xmlns="http://www.w3.org/2000/svg" xmlns:xlink="http://www.w3.org/1999/xlink" contentStyleType="text/css" height="487px" preserveAspectRatio="none" style="width:1034px;height:487px;background:#FFFFFF;" version="1.1" viewBox="0 0 1034 487" width="1034px" zoomAndPan="magnify"><defs/><g><!--cluster LYCAEUM--><g id="cluster_LYCAEUM"><path d="M219,6.602 L288,6.602 A3.75,3.75 0 0 1 290.5,9.102 L297.5,31.6699 L1011,31.6699 A2.5,2.5 0 0 1 1013.5,34.1699 L1013.5,478.042 A2.5,2.5 0 0 1 1011,480.542 L219,480.542 A2.5,2.5 0 0 1 216.5,478.042 L216.5,9.102 A2.5,2.5 0 0 1 219,6.602 " fill="none" style="stroke:#000000;stroke-width:1.5;"/><line style="stroke:#000000;stroke-width:1.5;" x1="216.5" x2="297.5" y1="31.6699" y2="31.6699"/><text fill="#000000" font-family="sans-serif" font-size="14" font-weight="bold" lengthAdjust="spacing" textLength="68" x="220.5" y="23.5679">LYCAEUM</text></g><!--cluster Agentes--><g id="cluster_Agentes"><path d="M301,334.402 L359,334.402 A3.75,3.75 0 0 1 361.5,336.902 L368.5,359.4699 L863,359.4699 A2.5,2.5 0 0 1 865.5,361.9699 L865.5,454.042 A2.5,2.5 0 0 1 863,456.542 L301,456.542 A2.5,2.5 0 0 1 298.5,454.042 L298.5,336.902 A2.5,2.5 0 0 1 301,334.402 " fill="none" style="stroke:#000000;stroke-width:1.5;"/><line style="stroke:#000000;stroke-width:1.5;" x1="298.5" x2="368.5" y1="359.4699" y2="359.4699"/><text fill="#000000" font-family="sans-serif" font-size="14" font-weight="bold" lengthAdjust="spacing" textLength="57" x="302.5" y="351.3679">Agentes</text></g><!--entity BB--><g id="elem_BB"><rect fill="#F1F1F1" height="68.1358" rx="2.5" ry="2.5" style="stroke:#181818;stroke-width:0.5;" width="116" x="407.5" y="201.272"/><rect fill="#F1F1F1" height="10" style="stroke:#181818;stroke-width:0.5;" width="15" x="503.5" y="206.272"/><rect fill="#F1F1F1" height="2" style="stroke:#181818;stroke-width:0.5;" width="4" x="501.5" y="208.272"/><rect fill="#F1F1F1" height="2" style="stroke:#181818;stroke-width:0.5;" width="4" x="501.5" y="212.272"/><text fill="#000000" font-family="sans-serif" font-size="14" lengthAdjust="spacing" textLength="75" x="422.5" y="236.2379">Blackboard</text><text fill="#000000" font-family="sans-serif" font-size="14" lengthAdjust="spacing" textLength="76" x="422.5" y="255.3058">(filesystem)</text></g><!--entity CTRL--><g id="elem_CTRL"><rect fill="#F1F1F1" height="68.1358" rx="2.5" ry="2.5" style="stroke:#181818;stroke-width:0.5;" width="167" x="510" y="44.602"/><rect fill="#F1F1F1" height="10" style="stroke:#181818;stroke-width:0.5;" width="15" x="657" y="49.602"/><rect fill="#F1F1F1" height="2" style="stroke:#181818;stroke-width:0.5;" width="4" x="655" y="51.602"/><rect fill="#F1F1F1" height="2" style="stroke:#181818;stroke-width:0.5;" width="4" x="655" y="55.602"/><text fill="#000000" font-family="sans-serif" font-size="14" lengthAdjust="spacing" textLength="80" x="525" y="79.5679">Controlador</text><text fill="#000000" font-family="sans-serif" font-size="14" lengthAdjust="spacing" textLength="127" x="525" y="98.6358">(inotifywait + bash)</text></g><!--entity A--><g id="elem_A"><rect fill="#F1F1F1" height="68.1358" rx="2.5" ry="2.5" style="stroke:#181818;stroke-width:0.5;" width="102" x="610.5" y="372.402"/><rect fill="#F1F1F1" height="10" style="stroke:#181818;stroke-width:0.5;" width="15" x="692.5" y="377.402"/><rect fill="#F1F1F1" height="2" style="stroke:#181818;stroke-width:0.5;" width="4" x="690.5" y="379.402"/><rect fill="#F1F1F1" height="2" style="stroke:#181818;stroke-width:0.5;" width="4" x="690.5" y="383.402"/><text fill="#000000" font-family="sans-serif" font-size="14" lengthAdjust="spacing" textLength="61" x="625.5" y="407.3679">Agente A</text><text fill="#000000" font-family="sans-serif" font-size="14" lengthAdjust="spacing" textLength="62" x="625.5" y="426.4358">(marco 1)</text></g><!--entity B--><g id="elem_B"><rect fill="#F1F1F1" height="68.1358" rx="2.5" ry="2.5" style="stroke:#181818;stroke-width:0.5;" width="102" x="314.5" y="372.402"/><rect fill="#F1F1F1" height="10" style="stroke:#181818;stroke-width:0.5;" width="15" x="396.5" y="377.402"/><rect fill="#F1F1F1" height="2" style="stroke:#181818;stroke-width:0.5;" width="4" x="394.5" y="379.402"/><rect fill="#F1F1F1" height="2" style="stroke:#181818;stroke-width:0.5;" width="4" x="394.5" y="383.402"/><text fill="#000000" font-family="sans-serif" font-size="14" lengthAdjust="spacing" textLength="61" x="329.5" y="407.3679">Agente B</text><text fill="#000000" font-family="sans-serif" font-size="14" lengthAdjust="spacing" textLength="62" x="329.5" y="426.4358">(marco 2)</text></g><!--entity C--><g id="elem_C"><rect fill="#F1F1F1" height="68.1358" rx="2.5" ry="2.5" style="stroke:#181818;stroke-width:0.5;" width="102" x="747.5" y="372.402"/><rect fill="#F1F1F1" height="10" style="stroke:#181818;stroke-width:0.5;" width="15" x="829.5" y="377.402"/><rect fill="#F1F1F1" height="2" style="stroke:#181818;stroke-width:0.5;" width="4" x="827.5" y="379.402"/><rect fill="#F1F1F1" height="2" style="stroke:#181818;stroke-width:0.5;" width="4" x="827.5" y="383.402"/><text fill="#000000" font-family="sans-serif" font-size="14" lengthAdjust="spacing" textLength="61" x="762.5" y="407.3679">Agente C</text><text fill="#000000" font-family="sans-serif" font-size="14" lengthAdjust="spacing" textLength="62" x="762.5" y="426.4358">(marco 3)</text></g><!--entity MOD--><g id="elem_MOD"><rect fill="#F1F1F1" height="68.1358" rx="2.5" ry="2.5" style="stroke:#181818;stroke-width:0.5;" width="123" x="452" y="372.402"/><rect fill="#F1F1F1" height="10" style="stroke:#181818;stroke-width:0.5;" width="15" x="555" y="377.402"/><rect fill="#F1F1F1" height="2" style="stroke:#181818;stroke-width:0.5;" width="4" x="553" y="379.402"/><rect fill="#F1F1F1" height="2" style="stroke:#181818;stroke-width:0.5;" width="4" x="553" y="383.402"/><text fill="#000000" font-family="sans-serif" font-size="14" lengthAdjust="spacing" textLength="75" x="467" y="407.3679">Moderador</text><text fill="#000000" font-family="sans-serif" font-size="14" lengthAdjust="spacing" textLength="83" x="467" y="426.4358">(adversarial)</text></g><!--entity OBJ--><g id="elem_OBJ"><rect fill="#F1F1F1" height="87.2038" rx="2.5" ry="2.5" style="stroke:#181818;stroke-width:0.5;" width="193" x="7" y="35.062"/><rect fill="#F1F1F1" height="10" style="stroke:#181818;stroke-width:0.5;" width="15" x="180" y="40.062"/><rect fill="#F1F1F1" height="2" style="stroke:#181818;stroke-width:0.5;" width="4" x="178" y="42.062"/><rect fill="#F1F1F1" height="2" style="stroke:#181818;stroke-width:0.5;" width="4" x="178" y="46.062"/><text fill="#000000" font-family="sans-serif" font-size="14" lengthAdjust="spacing" textLength="121" x="22" y="70.0279">Objeto de an&#225;lisis</text><text fill="#000000" font-family="sans-serif" font-size="14" lengthAdjust="spacing" textLength="136" x="22" y="89.0958">(poemas, requisitos,</text><text fill="#000000" font-family="sans-serif" font-size="14" lengthAdjust="spacing" textLength="153" x="22" y="108.1638">arquitectura, c&#243;digo...)</text></g><!--link OBJ to BB--><g id="link_OBJ_BB"><path d="M200.03,120.912 C266.01,149.102 345.7724,183.1848 401.6224,207.0448 " fill="none" id="OBJ-to-BB" style="stroke:#181818;stroke-width:1.0;"/><polygon fill="#181818" points="407.14,209.402,400.4351,202.1878,402.542,207.4377,397.2922,209.5446,407.14,209.402" style="stroke:#181818;stroke-width:1.0;"/><text fill="#000000" font-family="sans-serif" font-size="13" lengthAdjust="spacing" textLength="68" x="317.92" y="167.169">input inicial</text></g><!--link BB to A--><g id="link_BB_A"><path d="M529.4396,260.3785 C552.1696,270.6285 571.92,282.032 591.5,299.402 C614.44,319.762 630.2599,344.0021 642.5299,366.7321 " fill="none" id="BB-A" style="stroke:#181818;stroke-width:1.0;"/><polygon fill="#181818" points="523.97,257.912,530.5301,265.2581,528.528,259.9674,533.8187,257.9653,523.97,257.912" style="stroke:#181818;stroke-width:1.0;"/><polygon fill="#181818" points="645.38,372.012,644.6247,362.1921,643.0049,367.6121,637.5849,365.9923,645.38,372.012" style="stroke:#181818;stroke-width:1.0;"/><text fill="#000000" font-family="sans-serif" font-size="13" lengthAdjust="spacing" textLength="151" x="609.36" y="314.299">lee estado / escribe turno</text></g><!--link BB to B--><g id="link_BB_B"><path d="M401.7182,256.8501 C356.8582,271.8101 307.02,289.932 300.5,299.402 C284.21,323.072 298.1404,346.5364 319.3704,367.6964 " fill="none" id="BB-B" style="stroke:#181818;stroke-width:1.0;"/><polygon fill="#181818" points="407.41,254.952,397.6068,254.0046,402.6668,256.5338,400.1376,261.5937,407.41,254.952" style="stroke:#181818;stroke-width:1.0;"/><polygon fill="#181818" points="323.62,371.932,320.0693,362.7454,320.0786,368.4023,314.4218,368.4116,323.62,371.932" style="stroke:#181818;stroke-width:1.0;"/><text fill="#000000" font-family="sans-serif" font-size="13" lengthAdjust="spacing" textLength="151" x="301.5" y="314.299">lee estado / escribe turno</text></g><!--link BB to C--><g id="link_BB_C"><path d="M529.5531,263.1227 C538.3531,266.2527 541.76,267.142 550.5,269.402 C598.05,281.732 732.57,267.012 769.5,299.402 C789.95,317.342 796.1452,342.2008 798.0352,366.0108 " fill="none" id="BB-C" style="stroke:#181818;stroke-width:1.0;"/><polygon fill="#181818" points="523.9,261.112,531.0391,267.8967,528.6109,262.7876,533.7201,260.3593,523.9,261.112" style="stroke:#181818;stroke-width:1.0;"/><polygon fill="#181818" points="798.51,371.992,801.7853,362.7037,798.1144,367.0077,793.8104,363.3367,798.51,371.992" style="stroke:#181818;stroke-width:1.0;"/><text fill="#000000" font-family="sans-serif" font-size="13" lengthAdjust="spacing" textLength="151" x="784.93" y="314.299">lee estado / escribe turno</text></g><!--link BB to MOD--><g id="link_BB_MOD"><path d="M460.7282,275.5592 C459.7382,290.6892 460.38,302.692 464.5,318.402 C469.47,337.362 476.4059,351.4728 486.1659,366.9928 " fill="none" id="BB-MOD" style="stroke:#181818;stroke-width:1.0;"/><polygon fill="#181818" points="461.12,269.572,456.5409,278.2916,460.7935,274.5613,464.5238,278.814,461.12,269.572" style="stroke:#181818;stroke-width:1.0;"/><polygon fill="#181818" points="489.36,372.072,487.9549,362.3239,486.6982,367.8394,481.1828,366.5827,489.36,372.072" style="stroke:#181818;stroke-width:1.0;"/><text fill="#000000" font-family="sans-serif" font-size="13" lengthAdjust="spacing" textLength="121" x="465.5" y="314.299">lee estado / provoca</text></g><!--link CTRL to BB--><g id="link_CTRL_BB"><path d="M509.8,109.872 C491.78,120.432 475.01,134.302 464.5,152.272 C456.01,166.782 454.8144,179.3985 456.7944,195.2085 " fill="none" id="CTRL-to-BB" style="stroke:#181818;stroke-width:1.0;"/><polygon fill="#181818" points="457.54,201.162,460.3906,191.7347,456.9187,196.2007,452.4526,192.7288,457.54,201.162" style="stroke:#181818;stroke-width:1.0;"/><text fill="#000000" font-family="sans-serif" font-size="13" lengthAdjust="spacing" textLength="118" x="465.5" y="167.169">monitoriza cambios</text></g><!--link CTRL to A--><g id="link_CTRL_A"><path d="M615.72,112.912 C646.71,156.412 707.2,231.522 778.5,269.402 C844.71,304.582 896.43,241.872 944.5,299.402 C949.91,305.882 950.36,312.322 944.5,318.402 C927.91,335.622 751.04,316.032 729.5,326.402 C709.11,336.222 695.8363,350.3796 684.0963,367.3296 " fill="none" id="CTRL-to-A" style="stroke:#181818;stroke-width:1.0;"/><polygon fill="#181818" points="680.68,372.262,689.0928,367.1409,683.5269,368.1516,682.5162,362.5858,680.68,372.262" style="stroke:#181818;stroke-width:1.0;"/><text fill="#000000" font-family="sans-serif" font-size="13" lengthAdjust="spacing" textLength="86" x="779.5" y="240.739">se&#241;al de turno</text></g><!--link CTRL to B--><g id="link_CTRL_B"><path d="M509.64,92.152 C443.04,106.652 352.97,137.342 302.5,201.272 C269.94,242.512 267.58,269.392 286.5,318.402 C294.37,338.782 305.1888,353.1181 320.0888,367.8181 " fill="none" id="CTRL-to-B" style="stroke:#181818;stroke-width:1.0;"/><polygon fill="#181818" points="324.36,372.032,320.7624,362.8637,320.8007,368.5204,315.1439,368.5586,324.36,372.032" style="stroke:#181818;stroke-width:1.0;"/><text fill="#000000" font-family="sans-serif" font-size="13" lengthAdjust="spacing" textLength="86" x="303.5" y="240.739">se&#241;al de turno</text></g><!--link CTRL to C--><g id="link_CTRL_C"><path d="M677.12,98.692 C769.93,125.212 912.35,183.672 955.5,299.402 C974.63,350.722 908.2611,378.5825 855.4611,392.8925 " fill="none" id="CTRL-to-C" style="stroke:#181818;stroke-width:1.0;"/><polygon fill="#181818" points="849.67,394.462,859.403,395.9684,854.4959,393.1541,857.3103,388.247,849.67,394.462" style="stroke:#181818;stroke-width:1.0;"/><text fill="#000000" font-family="sans-serif" font-size="13" lengthAdjust="spacing" textLength="86" x="940.43" y="240.739">se&#241;al de turno</text></g><!--link CTRL to MOD--><g id="link_CTRL_MOD"><path d="M591.76,113.102 C589.43,164.402 586.62,257.862 596.5,269.402 C648.44,330.142 824.72,260.642 769.5,318.402 C755.9,332.642 610.51,318.462 592.5,326.402 C570.31,336.192 554.768,350.6535 540.778,367.6135 " fill="none" id="CTRL-to-MOD" style="stroke:#181818;stroke-width:1.0;"/><polygon fill="#181818" points="536.96,372.242,545.7726,367.8445,540.1416,368.3849,539.6013,362.7539,536.96,372.242" style="stroke:#181818;stroke-width:1.0;"/><text fill="#000000" font-family="sans-serif" font-size="13" lengthAdjust="spacing" textLength="86" x="597.5" y="240.739">se&#241;al de turno</text></g><!--SRC=[ZP71JW8n48RlVOe99us0KM_6cEokNWo4nEZ1e8VPxe3LtSxQ5WmQ7iP7C3u2B-Oi2sm22Q67IJl_DpD_snBrEuu9Mhsd9BfzxBVWMu6iOPoBaZAwxDaUZKnEVkO35SSlW1xYk8OIji5nZXaxeOpbO4QpJpG1JY15_rhJoSDzJoqBolMqQ4msa5zFMpQhSn19fmATPZYhowCT9DuWvoi_EqYoGIvM9XgapncvbMVCfkGyEeDvpVK7DqjohkPA3GVf6mM6Z03juYSttdWfAfaAz6rmz36HL63VVhRev118Xud3DkZ5NsR6tErswxQ3-4uf2T3fNClpmIKOMqw2HADbjfBKLIL5ekH4G3w8GpYLZNOc9P2sbZTOV1YM78R9dRV1ql6KDQhgxnhF1LkvhJDV21gBrB1lWCgvfyKlvjLprGEQwdrYia-ilMtB_m00]--></g></svg>