<?xml version="1.0" encoding="us-ascii" standalone="no"?><svg xmlns="http://www.w3.org/2000/svg" xmlns:xlink="http://www.w3.org/1999/xlink" contentStyleType="text/css" height="448px" preserveAspectRatio="none" style="width:288px;height:448px;background:#FFFFFF;" version="1.1" viewBox="0 0 288 448" width="288px" zoomAndPan="magnify"><defs/><g><g id="elem_if"><rect fill="#F1F1F1" height="39.0679" style="stroke:#181818;stroke-width:0.5;" width="23" x="102" y="7"/><text fill="#000000" font-family="sans-serif" font-size="14" lengthAdjust="spacing" textLength="9" x="109" y="23.9659">if</text><line style="stroke:#181818;stroke-width:0.5;" x1="103" x2="124" y1="30.0679" y2="30.0679"/></g><g id="elem_greater"><rect fill="#F1F1F1" height="39.0679" style="stroke:#181818;stroke-width:0.5;" width="22" x="60.5" y="106"/><text fill="#000000" font-family="sans-serif" font-size="14" lengthAdjust="spacing" textLength="8" x="67.5" y="122.9659">&gt;</text><line style="stroke:#181818;stroke-width:0.5;" x1="61.5" x2="81.5" y1="129.0679" y2="129.0679"/></g><g id="elem_x1"><rect fill="#F1F1F1" height="39.0679" style="stroke:#181818;stroke-width:0.5;" width="21" x="7" y="205"/><text fill="#000000" font-family="sans-serif" font-size="14" lengthAdjust="spacing" textLength="7" x="14" y="221.9659">x</text><line style="stroke:#181818;stroke-width:0.5;" x1="8" x2="27" y1="228.0679" y2="228.0679"/></g><g id="elem_zero"><rect fill="#F1F1F1" height="39.0679" style="stroke:#181818;stroke-width:0.5;" width="22" x="63.5" y="205"/><text fill="#000000" font-family="sans-serif" font-size="14" lengthAdjust="spacing" textLength="8" x="70.5" y="221.9659">0</text><line style="stroke:#181818;stroke-width:0.5;" x1="64.5" x2="84.5" y1="228.0679" y2="228.0679"/></g><g id="elem_thenelse"><rect fill="#F1F1F1" height="39.0679" style="stroke:#181818;stroke-width:0.5;" width="77" x="118" y="106"/><text fill="#000000" font-family="sans-serif" font-size="14" lengthAdjust="spacing" textLength="63" x="125" y="122.9659">then-else</text><line style="stroke:#181818;stroke-width:0.5;" x1="119" x2="194" y1="129.0679" y2="129.0679"/></g><g id="elem_ret1"><rect fill="#F1F1F1" height="39.0679" style="stroke:#181818;stroke-width:0.5;" width="57" x="126" y="205"/><text fill="#000000" font-family="sans-serif" font-size="14" lengthAdjust="spacing" textLength="43" x="133" y="221.9659">return</text><line style="stroke:#181818;stroke-width:0.5;" x1="127" x2="182" y1="228.0679" y2="228.0679"/></g><g id="elem_x2"><rect fill="#F1F1F1" height="39.0679" style="stroke:#181818;stroke-width:0.5;" width="21" x="144" y="304"/><text fill="#000000" font-family="sans-serif" font-size="14" lengthAdjust="spacing" textLength="7" x="151" y="320.9659">x</text><line style="stroke:#181818;stroke-width:0.5;" x1="145" x2="164" y1="327.0679" y2="327.0679"/></g><g id="elem_ret2"><rect fill="#F1F1F1" height="39.0679" style="stroke:#181818;stroke-width:0.5;" width="57" x="218" y="205"/><text fill="#000000" font-family="sans-serif" font-size="14" lengthAdjust="spacing" textLength="43" x="225" y="221.9659">return</text><line style="stroke:#181818;stroke-width:0.5;" x1="219" x2="274" y1="228.0679" y2="228.0679"/></g><g id="elem_neg"><rect fill="#F1F1F1" height="39.0679" style="stroke:#181818;stroke-width:0.5;" width="72" x="210.5" y="304"/><text fill="#000000" font-family="sans-serif" font-size="14" lengthAdjust="spacing" textLength="58" x="217.5" y="320.9659">negativo</text><line style="stroke:#181818;stroke-width:0.5;" x1="211.5" x2="281.5" y1="327.0679" y2="327.0679"/></g><g id="elem_x3"><rect fill="#F1F1F1" height="39.0679" style="stroke:#181818;stroke-width:0.5;" width="21" x="236" y="403"/><text fill="#000000" font-family="sans-serif" font-size="14" lengthAdjust="spacing" textLength="7" x="243" y="419.9659">x</text><line style="stroke:#181818;stroke-width:0.5;" x1="237" x2="256" y1="426.0679" y2="426.0679"/></g><!--link if to greater--><g id="link_if_greater"><path codeLine="12" d="M105.4,46.2 C97.96,63.38 87,88.7 79.57,105.85 " fill="none" id="if-greater" style="stroke:#181818;stroke-width:1.0;"/></g><!--link greater to x1--><g id="link_greater_x1"><path codeLine="13" d="M61.09,145.2 C51.53,162.38 37.43,187.7 27.88,204.85 " fill="none" id="greater-x1" style="stroke:#181818;stroke-width:1.0;"/></g><!--link greater to zero--><g id="link_greater_zero"><path codeLine="14" d="M72.08,145.2 C72.61,162.38 73.39,187.7 73.92,204.85 " fill="none" id="greater-zero" style="stroke:#181818;stroke-width:1.0;"/></g><!--link if to thenelse--><g id="link_if_thenelse"><path codeLine="15" d="M121.79,46.2 C129.41,63.38 140.63,88.7 148.23,105.85 " fill="none" id="if-thenelse" style="stroke:#181818;stroke-width:1.0;"/></g><!--link thenelse to ret1--><g id="link_thenelse_ret1"><path codeLine="16" d="M156.11,145.2 C155.76,162.38 155.24,187.7 154.88,204.85 " fill="none" id="thenelse-ret1" style="stroke:#181818;stroke-width:1.0;"/></g><!--link ret1 to x2--><g id="link_ret1_x2"><path codeLine="17" d="M154.5,244.2 C154.5,261.38 154.5,286.7 154.5,303.85 " fill="none" id="ret1-x2" style="stroke:#181818;stroke-width:1.0;"/></g><!--link thenelse to ret2--><g id="link_thenelse_ret2"><path codeLine="18" d="M173.85,145.2 C189.79,162.38 213.28,187.7 229.2,204.85 " fill="none" id="thenelse-ret2" style="stroke:#181818;stroke-width:1.0;"/></g><!--link ret2 to neg--><g id="link_ret2_neg"><path codeLine="19" d="M246.5,244.2 C246.5,261.38 246.5,286.7 246.5,303.85 " fill="none" id="ret2-neg" style="stroke:#181818;stroke-width:1.0;"/></g><!--link neg to x3--><g id="link_neg_x3"><path codeLine="20" d="M246.5,343.2 C246.5,360.38 246.5,385.7 246.5,402.85 " fill="none" id="neg-x3" style="stroke:#181818;stroke-width:1.0;"/></g><!--SRC=[TOx12iCW44JlVeNaBZJctd-nPKqjGM5ZI-ZNrvscso3qeEwy6PSfbpjTgnrI76nOROgcxEGCC3E5Ignq0zr61IU05t5HL6-K7IqhmH8bGcsc-k0ChurZlzh_2VvufZdKz2nmckWtJCQaQ9tJylihg3K_ADJ-PBNcTn28VdBXg-yzBvuN8ItQGMnw0m00]--></g></svg>