<?xml version="1.0" encoding="us-ascii" standalone="no"?><svg xmlns="http://www.w3.org/2000/svg" xmlns:xlink="http://www.w3.org/1999/xlink" contentStyleType="text/css" height="448px" preserveAspectRatio="none" style="width:300px;height:448px;background:#FFFFFF;" version="1.1" viewBox="0 0 300 448" width="300px" zoomAndPan="magnify"><defs/><g><g id="elem_while"><rect fill="#F1F1F1" height="39.0679" style="stroke:#181818;stroke-width:0.5;" width="50" x="84" y="7"/><text fill="#000000" font-family="sans-serif" font-size="14" lengthAdjust="spacing" textLength="36" x="91" y="23.9659">while</text><line style="stroke:#181818;stroke-width:0.5;" x1="85" x2="133" y1="30.0679" y2="30.0679"/></g><g id="elem_less"><rect fill="#F1F1F1" height="39.0679" style="stroke:#181818;stroke-width:0.5;" width="22" x="60" y="106"/><text fill="#000000" font-family="sans-serif" font-size="14" lengthAdjust="spacing" textLength="8" x="67" y="122.9659">&lt;</text><line style="stroke:#181818;stroke-width:0.5;" x1="61" x2="81" y1="129.0679" y2="129.0679"/></g><g id="elem_i1"><rect fill="#F1F1F1" height="39.0679" style="stroke:#181818;stroke-width:0.5;" width="18" x="7" y="205"/><text fill="#000000" font-family="sans-serif" font-size="14" lengthAdjust="spacing" textLength="4" x="14" y="221.9659">i</text><line style="stroke:#181818;stroke-width:0.5;" x1="8" x2="24" y1="228.0679" y2="228.0679"/></g><g id="elem_ten"><rect fill="#F1F1F1" height="39.0679" style="stroke:#181818;stroke-width:0.5;" width="30" x="60" y="205"/><text fill="#000000" font-family="sans-serif" font-size="14" lengthAdjust="spacing" textLength="16" x="67" y="221.9659">10</text><line style="stroke:#181818;stroke-width:0.5;" x1="61" x2="89" y1="228.0679" y2="228.0679"/></g><g id="elem_block"><rect fill="#F1F1F1" height="39.0679" style="stroke:#181818;stroke-width:0.5;" width="61" x="117.5" y="106"/><text fill="#000000" font-family="sans-serif" font-size="14" lengthAdjust="spacing" textLength="47" x="124.5" y="122.9659">bloque</text><line style="stroke:#181818;stroke-width:0.5;" x1="118.5" x2="177.5" y1="129.0679" y2="129.0679"/></g><g id="elem_assign1"><rect fill="#F1F1F1" height="39.0679" style="stroke:#181818;stroke-width:0.5;" width="22" x="133" y="205"/><text fill="#000000" font-family="sans-serif" font-size="14" lengthAdjust="spacing" textLength="8" x="140" y="221.9659">=</text><line style="stroke:#181818;stroke-width:0.5;" x1="134" x2="154" y1="228.0679" y2="228.0679"/></g><g id="elem_sum1"><rect fill="#F1F1F1" height="39.0679" style="stroke:#181818;stroke-width:0.5;" width="43" x="55.5" y="304"/><text fill="#000000" font-family="sans-serif" font-size="14" lengthAdjust="spacing" textLength="29" x="62.5" y="320.9659">sum</text><line style="stroke:#181818;stroke-width:0.5;" x1="56.5" x2="97.5" y1="327.0679" y2="327.0679"/></g><g id="elem_plus1"><rect fill="#F1F1F1" height="39.0679" style="stroke:#181818;stroke-width:0.5;" width="22" x="134" y="304"/><text fill="#000000" font-family="sans-serif" font-size="14" lengthAdjust="spacing" textLength="8" x="141" y="320.9659">+</text><line style="stroke:#181818;stroke-width:0.5;" x1="135" x2="155" y1="327.0679" y2="327.0679"/></g><g id="elem_sum2"><rect fill="#F1F1F1" height="39.0679" style="stroke:#181818;stroke-width:0.5;" width="43" x="86.5" y="403"/><text fill="#000000" font-family="sans-serif" font-size="14" lengthAdjust="spacing" textLength="29" x="93.5" y="419.9659">sum</text><line style="stroke:#181818;stroke-width:0.5;" x1="87.5" x2="128.5" y1="426.0679" y2="426.0679"/></g><g id="elem_i2"><rect fill="#F1F1F1" height="39.0679" style="stroke:#181818;stroke-width:0.5;" width="18" x="165" y="403"/><text fill="#000000" font-family="sans-serif" font-size="14" lengthAdjust="spacing" textLength="4" x="172" y="419.9659">i</text><line style="stroke:#181818;stroke-width:0.5;" x1="166" x2="182" y1="426.0679" y2="426.0679"/></g><g id="elem_assign2"><rect fill="#F1F1F1" height="39.0679" style="stroke:#181818;stroke-width:0.5;" width="22" x="190" y="205"/><text fill="#000000" font-family="sans-serif" font-size="14" lengthAdjust="spacing" textLength="8" x="197" y="221.9659">=</text><line style="stroke:#181818;stroke-width:0.5;" x1="191" x2="211" y1="228.0679" y2="228.0679"/></g><g id="elem_i3"><rect fill="#F1F1F1" height="39.0679" style="stroke:#181818;stroke-width:0.5;" width="18" x="192" y="304"/><text fill="#000000" font-family="sans-serif" font-size="14" lengthAdjust="spacing" textLength="4" x="199" y="320.9659">i</text><line style="stroke:#181818;stroke-width:0.5;" x1="193" x2="209" y1="327.0679" y2="327.0679"/></g><g id="elem_plus2"><rect fill="#F1F1F1" height="39.0679" style="stroke:#181818;stroke-width:0.5;" width="22" x="245" y="304"/><text fill="#000000" font-family="sans-serif" font-size="14" lengthAdjust="spacing" textLength="8" x="252" y="320.9659">+</text><line style="stroke:#181818;stroke-width:0.5;" x1="246" x2="266" y1="327.0679" y2="327.0679"/></g><g id="elem_i4"><rect fill="#F1F1F1" height="39.0679" style="stroke:#181818;stroke-width:0.5;" width="18" x="219" y="403"/><text fill="#000000" font-family="sans-serif" font-size="14" lengthAdjust="spacing" textLength="4" x="226" y="419.9659">i</text><line style="stroke:#181818;stroke-width:0.5;" x1="220" x2="236" y1="426.0679" y2="426.0679"/></g><g id="elem_one"><rect fill="#F1F1F1" height="39.0679" style="stroke:#181818;stroke-width:0.5;" width="22" x="272" y="403"/><text fill="#000000" font-family="sans-serif" font-size="14" lengthAdjust="spacing" textLength="8" x="279" y="419.9659">1</text><line style="stroke:#181818;stroke-width:0.5;" x1="273" x2="293" y1="426.0679" y2="426.0679"/></g><!--link while to less--><g id="link_while_less"><path codeLine="17" d="M101.67,46.2 C94.94,63.38 85.03,88.7 78.3,105.85 " fill="none" id="while-less" style="stroke:#181818;stroke-width:1.0;"/></g><!--link less to i1--><g id="link_less_i1"><path codeLine="18" d="M60.4,145.2 C50.16,163.26 34.82,190.31 25.11,207.43 " fill="none" id="less-i1" style="stroke:#181818;stroke-width:1.0;"/></g><!--link less to ten--><g id="link_less_ten"><path codeLine="19" d="M71.77,145.2 C72.48,162.38 73.52,187.7 74.23,204.85 " fill="none" id="less-ten" style="stroke:#181818;stroke-width:1.0;"/></g><!--link while to block--><g id="link_while_block"><path codeLine="20" d="M116.52,46.2 C123.43,63.38 133.6,88.7 140.5,105.85 " fill="none" id="while-block" style="stroke:#181818;stroke-width:1.0;"/></g><!--link block to assign1--><g id="link_block_assign1"><path codeLine="21" d="M147.23,145.2 C146.52,162.38 145.48,187.7 144.77,204.85 " fill="none" id="block-assign1" style="stroke:#181818;stroke-width:1.0;"/></g><!--link assign1 to sum1--><g id="link_assign1_sum1"><path codeLine="22" d="M132.94,241.52 C121.12,258.63 102.4,285.72 89.92,303.8 " fill="none" id="assign1-sum1" style="stroke:#181818;stroke-width:1.0;"/></g><!--link assign1 to plus1--><g id="link_assign1_plus1"><path codeLine="23" d="M144.19,244.2 C144.37,261.38 144.63,286.7 144.81,303.85 " fill="none" id="assign1-plus1" style="stroke:#181818;stroke-width:1.0;"/></g><!--link plus1 to sum2--><g id="link_plus1_sum2"><path codeLine="24" d="M137.87,343.2 C131.31,360.38 121.66,385.7 115.11,402.85 " fill="none" id="plus1-sum2" style="stroke:#181818;stroke-width:1.0;"/></g><!--link plus1 to i2--><g id="link_plus1_i2"><path codeLine="25" d="M150.59,343.2 C155.73,360.38 163.3,385.7 168.43,402.85 " fill="none" id="plus1-i2" style="stroke:#181818;stroke-width:1.0;"/></g><!--link block to assign2--><g id="link_block_assign2"><path codeLine="26" d="M158.22,145.2 C167.6,162.38 181.44,187.7 190.81,204.85 " fill="none" id="block-assign2" style="stroke:#181818;stroke-width:1.0;"/></g><!--link assign2 to i3--><g id="link_assign2_i3"><path codeLine="27" d="M201,244.2 C201,261.38 201,286.7 201,303.85 " fill="none" id="assign2-i3" style="stroke:#181818;stroke-width:1.0;"/></g><!--link assign2 to plus2--><g id="link_assign2_plus2"><path codeLine="28" d="M211.6,244.2 C221.34,261.38 235.7,286.7 245.43,303.85 " fill="none" id="assign2-plus2" style="stroke:#181818;stroke-width:1.0;"/></g><!--link plus2 to i4--><g id="link_plus2_i4"><path codeLine="29" d="M250.6,343.2 C245.64,360.38 238.34,385.7 233.38,402.85 " fill="none" id="plus2-i4" style="stroke:#181818;stroke-width:1.0;"/></g><!--link plus2 to one--><g id="link_plus2_one"><path codeLine="30" d="M261.21,343.2 C265.99,360.38 273.03,385.7 277.81,402.85 " fill="none" id="plus2-one" style="stroke:#181818;stroke-width:1.0;"/></g><!--SRC=[RP3RRi8m38RlynGMLw09r8OoJTKcJUCmYO66nk4-BLd9rYQiIJhjxPUwfKN0ZMD_Tlxajug-U6oWytiGAUy0qu0PKJL_H9PohHia40c_0Rw7n73Pe2XLFxRISsdytJIUa36jHI9R1MqpvEviuHsYOshrpK5w-I5wyv6hiU6D1ww6WjOS0YKv8RWPwFUhTPIXBDmYJccvWMQeyesnB4-MwxD4wFQihgnYhDkqhPoz2orQtwNO7fvNbIUCs0pQl7JopENUPeIiKYRDThc0WkTQA0d-W7eq60oxcuE56O_07m7rmi0BlH6CfniesptIVLqj2WfQsJpci1VQv2AonYdqo9mL33wiD2BZ8RmVkPnFtau0fh8GkP8PbuRCTyjsu3xelmW3Qvwxly1kIIRyazdKk1knsWkPXB3TpFeFPC5aObdYjBacO-LqyxyGfkj_]--></g></svg>