<?xml version="1.0" encoding="us-ascii" standalone="no"?><svg xmlns="http://www.w3.org/2000/svg" xmlns:xlink="http://www.w3.org/1999/xlink" contentStyleType="text/css" height="349px" preserveAspectRatio="none" style="width:147px;height:349px;background:#FFFFFF;" version="1.1" viewBox="0 0 147 349" width="147px" zoomAndPan="magnify"><defs/><g><g id="elem_assign"><rect fill="#F1F1F1" height="39.0679" style="stroke:#181818;stroke-width:0.5;" width="22" x="34.5" y="7"/><text fill="#000000" font-family="sans-serif" font-size="14" lengthAdjust="spacing" textLength="8" x="41.5" y="23.9659">=</text><line style="stroke:#181818;stroke-width:0.5;" x1="35.5" x2="55.5" y1="30.0679" y2="30.0679"/></g><g id="elem_x"><rect fill="#F1F1F1" height="39.0679" style="stroke:#181818;stroke-width:0.5;" width="21" x="7" y="106"/><text fill="#000000" font-family="sans-serif" font-size="14" lengthAdjust="spacing" textLength="7" x="14" y="122.9659">x</text><line style="stroke:#181818;stroke-width:0.5;" x1="8" x2="27" y1="129.0679" y2="129.0679"/></g><g id="elem_plus"><rect fill="#F1F1F1" height="39.0679" style="stroke:#181818;stroke-width:0.5;" width="22" x="63.5" y="106"/><text fill="#000000" font-family="sans-serif" font-size="14" lengthAdjust="spacing" textLength="8" x="70.5" y="122.9659">+</text><line style="stroke:#181818;stroke-width:0.5;" x1="64.5" x2="84.5" y1="129.0679" y2="129.0679"/></g><g id="elem_five"><rect fill="#F1F1F1" height="39.0679" style="stroke:#181818;stroke-width:0.5;" width="22" x="34.5" y="205"/><text fill="#000000" font-family="sans-serif" font-size="14" lengthAdjust="spacing" textLength="8" x="41.5" y="221.9659">5</text><line style="stroke:#181818;stroke-width:0.5;" x1="35.5" x2="55.5" y1="228.0679" y2="228.0679"/></g><g id="elem_mult"><rect fill="#F1F1F1" height="39.0679" style="stroke:#181818;stroke-width:0.5;" width="22" x="91.5" y="205"/><text fill="#000000" font-family="sans-serif" font-size="14" lengthAdjust="spacing" textLength="8" x="98.5" y="221.9659">*</text><line style="stroke:#181818;stroke-width:0.5;" x1="92.5" x2="112.5" y1="228.0679" y2="228.0679"/></g><g id="elem_three"><rect fill="#F1F1F1" height="39.0679" style="stroke:#181818;stroke-width:0.5;" width="22" x="62.5" y="304"/><text fill="#000000" font-family="sans-serif" font-size="14" lengthAdjust="spacing" textLength="8" x="69.5" y="320.9659">3</text><line style="stroke:#181818;stroke-width:0.5;" x1="63.5" x2="83.5" y1="327.0679" y2="327.0679"/></g><g id="elem_two"><rect fill="#F1F1F1" height="39.0679" style="stroke:#181818;stroke-width:0.5;" width="22" x="119.5" y="304"/><text fill="#000000" font-family="sans-serif" font-size="14" lengthAdjust="spacing" textLength="8" x="126.5" y="320.9659">2</text><line style="stroke:#181818;stroke-width:0.5;" x1="120.5" x2="140.5" y1="327.0679" y2="327.0679"/></g><!--link assign to x--><g id="link_assign_x"><path codeLine="9" d="M40.1,46.2 C35.14,63.38 27.84,88.7 22.88,105.85 " fill="none" id="assign-x" style="stroke:#181818;stroke-width:1.0;"/></g><!--link assign to plus--><g id="link_assign_plus"><path codeLine="10" d="M51.09,46.2 C56.23,63.38 63.8,88.7 68.93,105.85 " fill="none" id="assign-plus" style="stroke:#181818;stroke-width:1.0;"/></g><!--link plus to five--><g id="link_plus_five"><path codeLine="11" d="M68.91,145.2 C63.77,162.38 56.2,187.7 51.07,204.85 " fill="none" id="plus-five" style="stroke:#181818;stroke-width:1.0;"/></g><!--link plus to mult--><g id="link_plus_mult"><path codeLine="12" d="M79.9,145.2 C84.86,162.38 92.16,187.7 97.12,204.85 " fill="none" id="plus-mult" style="stroke:#181818;stroke-width:1.0;"/></g><!--link mult to three--><g id="link_mult_three"><path codeLine="13" d="M96.91,244.2 C91.77,261.38 84.2,286.7 79.07,303.85 " fill="none" id="mult-three" style="stroke:#181818;stroke-width:1.0;"/></g><!--link mult to two--><g id="link_mult_two"><path codeLine="14" d="M107.9,244.2 C112.86,261.38 120.16,286.7 125.12,303.85 " fill="none" id="mult-two" style="stroke:#181818;stroke-width:1.0;"/></g><!--SRC=[oq_AIaqkKL2oLL98B0QYuipqFAvyg605MB02pjS6ymjoIelXGgPWeRJCibIua1POABSqfmGkP0mMAiaeIaKeCuA8bUTpSK6iLT3L1Tg5O8Fj0H4W3jW660TiDeW0SI2cmddb-G00]--></g></svg>