<?xml version="1.0" encoding="us-ascii" standalone="no"?><svg xmlns="http://www.w3.org/2000/svg" xmlns:xlink="http://www.w3.org/1999/xlink" contentStyleType="text/css" height="1142px" preserveAspectRatio="none" style="width:773px;height:1142px;background:#FFFFFF;" version="1.1" viewBox="0 0 773 1142" width="773px" zoomAndPan="magnify"><defs/><g><ellipse cx="367.5" cy="20" fill="#222222" rx="10" ry="10" style="stroke:#222222;stroke-width:1.0;"/><rect fill="#F1F1F1" height="36.3441" rx="12.5" ry="12.5" style="stroke:#181818;stroke-width:0.5;" width="206" x="264.5" y="50"/><text fill="#000000" font-family="sans-serif" font-size="12" lengthAdjust="spacing" textLength="186" x="274.5" y="72.8281">Identificar informaci&#243;n de inter&#233;s</text><path d="M470.5,96.3441 L470.5,168.1682 L450.5,172.1682 L470.5,176.1682 L470.5,247.9922 A0,0 0 0 0 470.5,247.9922 L652.5,247.9922 A0,0 0 0 0 652.5,247.9922 L652.5,106.3441 L642.5,96.3441 L470.5,96.3441 A0,0 0 0 0 470.5,96.3441 " fill="#FEFFDD" style="stroke:#181818;stroke-width:0.5;"/><path d="M642.5,96.3441 L642.5,106.3441 L652.5,106.3441 L642.5,96.3441 " fill="#FEFFDD" style="stroke:#181818;stroke-width:0.5;"/><text fill="#000000" font-family="sans-serif" font-size="13" lengthAdjust="spacing" textLength="81" x="476.5" y="115.2411">- Institucional</text><text fill="#000000" font-family="sans-serif" font-size="13" lengthAdjust="spacing" textLength="87" x="476.5" y="132.9471">- Investigaci&#243;n</text><text fill="#000000" font-family="sans-serif" font-size="13" lengthAdjust="spacing" textLength="161" x="476.5" y="150.6532">- Premios/reconocimientos</text><text fill="#000000" font-family="sans-serif" font-size="13" lengthAdjust="spacing" textLength="127" x="476.5" y="168.3592">- Estancias extranjero</text><text fill="#000000" font-family="sans-serif" font-size="13" lengthAdjust="spacing" textLength="105" x="476.5" y="186.0652">- Eventos campus</text><text fill="#000000" font-family="sans-serif" font-size="13" lengthAdjust="spacing" textLength="103" x="476.5" y="203.7712">- Actividades aula</text><text fill="#000000" font-family="sans-serif" font-size="13" lengthAdjust="spacing" textLength="159" x="476.5" y="221.4772">- Actividades fuera campus</text><text fill="#000000" font-family="sans-serif" font-size="13" lengthAdjust="spacing" textLength="110" x="476.5" y="239.1832">- Vida universitaria</text><rect fill="#F1F1F1" height="36.3441" rx="12.5" ry="12.5" style="stroke:#181818;stroke-width:0.5;" width="166" x="284.5" y="153.9961"/><text fill="#000000" font-family="sans-serif" font-size="12" lengthAdjust="spacing" textLength="146" x="294.5" y="176.8242">Determinar tipo de noticia</text><rect fill="#F1F1F1" height="52.6882" rx="12.5" ry="12.5" style="stroke:#181818;stroke-width:0.5;" width="225" x="255" y="267.9922"/><text fill="#000000" font-family="sans-serif" font-size="12" lengthAdjust="spacing" textLength="205" x="265" y="290.8203">Determinar momento de publicaci&#243;n</text><text fill="#000000" font-family="sans-serif" font-size="12" lengthAdjust="spacing" textLength="98" x="265" y="307.1645">(previo/posterior)</text><rect fill="#F1F1F1" height="52.6882" rx="12.5" ry="12.5" style="stroke:#181818;stroke-width:0.5;" width="223" x="256" y="340.6805"/><text fill="#000000" font-family="sans-serif" font-size="12" lengthAdjust="spacing" textLength="163" x="266" y="363.5086">Componer asunto del correo:</text><text fill="#000000" font-family="sans-serif" font-size="12" lengthAdjust="spacing" textLength="203" x="266" y="379.8527">TIPO_NOTICIA_(previo/post)_(titular)</text><rect fill="#F1F1F1" height="69.0323" rx="12.5" ry="12.5" style="stroke:#181818;stroke-width:0.5;" width="167" x="284" y="413.3687"/><text fill="#000000" font-family="sans-serif" font-size="12" lengthAdjust="spacing" textLength="147" x="294" y="436.1968">Incluir informaci&#243;n b&#225;sica:</text><text fill="#000000" font-family="sans-serif" font-size="12" lengthAdjust="spacing" textLength="139" x="294" y="452.5409">- Nombres protagonistas</text><text fill="#000000" font-family="sans-serif" font-size="12" lengthAdjust="spacing" textLength="127" x="294" y="468.885">- Contexto de la noticia</text><rect fill="#555555" height="6" rx="2.5" ry="2.5" style="stroke:#555555;stroke-width:1.0;" width="751" x="11" y="502.401"/><rect fill="#F1F1F1" height="36.3441" rx="12.5" ry="12.5" style="stroke:#181818;stroke-width:0.5;" width="175" x="23" y="671.4761"/><text fill="#000000" font-family="sans-serif" font-size="12" lengthAdjust="spacing" textLength="155" x="33" y="694.3042">Incluir objetivo del convenio</text><polygon fill="#F1F1F1" points="74.5,621.9851,146.5,621.9851,158.5,633.9851,146.5,645.9851,74.5,645.9851,62.5,633.9851,74.5,621.9851" style="stroke:#181818;stroke-width:0.5;"/><text fill="#000000" font-family="sans-serif" font-size="11" lengthAdjust="spacing" textLength="8" x="114.5" y="657.744">s&#237;</text><text fill="#000000" font-family="sans-serif" font-size="11" lengthAdjust="spacing" textLength="72" x="74.5" y="638.2531">&#191;Es convenio?</text><polygon fill="#F1F1F1" points="110.5,733.3111,122.5,745.3111,110.5,757.3111,98.5,745.3111,110.5,733.3111" style="stroke:#181818;stroke-width:0.5;"/><rect fill="#F1F1F1" height="36.3441" rx="12.5" ry="12.5" style="stroke:#181818;stroke-width:0.5;" width="134" x="252.5" y="577.892"/><text fill="#000000" font-family="sans-serif" font-size="12" lengthAdjust="spacing" textLength="114" x="262.5" y="600.7201">Preparar fotograf&#237;as</text><path d="M437,649.2361 L437,685.6481 L417,689.6481 L437,693.6481 L437,730.0602 A0,0 0 0 0 437,730.0602 L736,730.0602 A0,0 0 0 0 736,730.0602 L736,659.2361 L726,649.2361 L437,649.2361 A0,0 0 0 0 437,649.2361 " fill="#FEFFDD" style="stroke:#181818;stroke-width:0.5;"/><path d="M726,649.2361 L726,659.2361 L736,659.2361 L726,649.2361 " fill="#FEFFDD" style="stroke:#181818;stroke-width:0.5;"/><text fill="#000000" font-family="sans-serif" font-size="13" lengthAdjust="spacing" textLength="189" x="443" y="668.1331">- Formato horizontal (16:9 o 4:3)</text><text fill="#000000" font-family="sans-serif" font-size="13" lengthAdjust="spacing" textLength="112" x="443" y="685.8391">- Archivo jpg o png</text><text fill="#000000" font-family="sans-serif" font-size="13" lengthAdjust="spacing" textLength="239" x="443" y="703.5452">- Bien enfocada y con buena iluminaci&#243;n</text><text fill="#000000" font-family="sans-serif" font-size="13" lengthAdjust="spacing" textLength="278" x="443" y="721.2512">- Protagonista: miembro comunidad educativa</text><rect fill="#F1F1F1" height="36.3441" rx="12.5" ry="12.5" style="stroke:#181818;stroke-width:0.5;" width="195" x="222" y="671.4761"/><text fill="#000000" font-family="sans-serif" font-size="12" lengthAdjust="spacing" textLength="175" x="232" y="694.3042">Verificar requisitos fotogr&#225;ficos</text><rect fill="#F1F1F1" height="36.3441" rx="12.5" ry="12.5" style="stroke:#181818;stroke-width:0.5;" width="148" x="245.5" y="765.0602"/><text fill="#000000" font-family="sans-serif" font-size="12" lengthAdjust="spacing" textLength="128" x="255.5" y="787.8883">Indicar foto de portada</text><polygon fill="#F1F1F1" points="237.5,528.401,401.5,528.401,413.5,540.401,401.5,552.401,237.5,552.401,225.5,540.401,237.5,528.401" style="stroke:#181818;stroke-width:0.5;"/><text fill="#000000" font-family="sans-serif" font-size="11" lengthAdjust="spacing" textLength="8" x="323.5" y="564.16">s&#237;</text><text fill="#000000" font-family="sans-serif" font-size="11" lengthAdjust="spacing" textLength="164" x="237.5" y="544.669">&#191;Es actividad fuera del campus?</text><polygon fill="#F1F1F1" points="319.5,821.4043,331.5,833.4043,319.5,845.4043,307.5,833.4043,319.5,821.4043" style="stroke:#181818;stroke-width:0.5;"/><rect fill="#555555" height="6" rx="2.5" ry="2.5" style="stroke:#555555;stroke-width:1.0;" width="751" x="11" y="865.4043"/><rect fill="#F1F1F1" height="52.6882" rx="12.5" ry="12.5" style="stroke:#181818;stroke-width:0.5;" width="193" x="271" y="891.4043"/><text fill="#000000" font-family="sans-serif" font-size="12" lengthAdjust="spacing" textLength="88" x="281" y="914.2324">Enviar correo a:</text><text fill="#000000" font-family="sans-serif" font-size="12" lengthAdjust="spacing" textLength="173" x="281" y="930.5765">comunicacion@uneatlantico.es</text><rect fill="#F1F1F1" height="52.6882" rx="12.5" ry="12.5" style="stroke:#181818;stroke-width:0.5;" width="201" x="267" y="964.0925"/><text fill="#000000" font-family="sans-serif" font-size="12" lengthAdjust="spacing" textLength="181" x="277" y="986.9206">Departamento de Comunicaci&#243;n</text><text fill="#000000" font-family="sans-serif" font-size="12" lengthAdjust="spacing" textLength="86" x="277" y="1003.2647">eval&#250;a solicitud</text><rect fill="#F1F1F1" height="52.6882" rx="12.5" ry="12.5" style="stroke:#181818;stroke-width:0.5;" width="142" x="296.5" y="1036.7807"/><text fill="#000000" font-family="sans-serif" font-size="12" lengthAdjust="spacing" textLength="122" x="306.5" y="1059.6088">Publicaci&#243;n en tiempo</text><text fill="#000000" font-family="sans-serif" font-size="12" lengthAdjust="spacing" textLength="107" x="306.5" y="1075.9529">y forma adecuados</text><ellipse cx="367.5" cy="1120.469" fill="none" rx="11" ry="11" style="stroke:#222222;stroke-width:1.0;"/><ellipse cx="367.5" cy="1120.469" fill="#222222" rx="6" ry="6" style="stroke:#222222;stroke-width:1.0;"/><line style="stroke:#181818;stroke-width:1.0;" x1="367.5" x2="367.5" y1="30" y2="50"/><polygon fill="#181818" points="363.5,40,367.5,50,371.5,40,367.5,44" style="stroke:#181818;stroke-width:1.0;"/><line style="stroke:#181818;stroke-width:1.0;" x1="367.5" x2="367.5" y1="86.3441" y2="153.9961"/><polygon fill="#181818" points="363.5,143.9961,367.5,153.9961,371.5,143.9961,367.5,147.9961" style="stroke:#181818;stroke-width:1.0;"/><line style="stroke:#181818;stroke-width:1.0;" x1="367.5" x2="367.5" y1="190.3402" y2="267.9922"/><polygon fill="#181818" points="363.5,257.9922,367.5,267.9922,371.5,257.9922,367.5,261.9922" style="stroke:#181818;stroke-width:1.0;"/><line style="stroke:#181818;stroke-width:1.0;" x1="367.5" x2="367.5" y1="320.6805" y2="340.6805"/><polygon fill="#181818" points="363.5,330.6805,367.5,340.6805,371.5,330.6805,367.5,334.6805" style="stroke:#181818;stroke-width:1.0;"/><line style="stroke:#181818;stroke-width:1.0;" x1="367.5" x2="367.5" y1="393.3687" y2="413.3687"/><polygon fill="#181818" points="363.5,403.3687,367.5,413.3687,371.5,403.3687,367.5,407.3687" style="stroke:#181818;stroke-width:1.0;"/><line style="stroke:#181818;stroke-width:1.0;" x1="110.5" x2="110.5" y1="645.9851" y2="671.4761"/><polygon fill="#181818" points="106.5,661.4761,110.5,671.4761,114.5,661.4761,110.5,665.4761" style="stroke:#181818;stroke-width:1.0;"/><line style="stroke:#181818;stroke-width:1.0;" x1="158.5" x2="208" y1="633.9851" y2="633.9851"/><polygon fill="#181818" points="204,679.6481,208,689.6481,212,679.6481,208,683.6481" style="stroke:#181818;stroke-width:1.0;"/><line style="stroke:#181818;stroke-width:1.0;" x1="208" x2="208" y1="633.9851" y2="745.3111"/><line style="stroke:#181818;stroke-width:1.0;" x1="208" x2="122.5" y1="745.3111" y2="745.3111"/><polygon fill="#181818" points="132.5,741.3111,122.5,745.3111,132.5,749.3111,128.5,745.3111" style="stroke:#181818;stroke-width:1.0;"/><line style="stroke:#181818;stroke-width:1.0;" x1="110.5" x2="110.5" y1="707.8202" y2="733.3111"/><polygon fill="#181818" points="106.5,723.3111,110.5,733.3111,114.5,723.3111,110.5,727.3111" style="stroke:#181818;stroke-width:1.0;"/><line style="stroke:#181818;stroke-width:1.0;" x1="319.5" x2="319.5" y1="614.2361" y2="671.4761"/><polygon fill="#181818" points="315.5,661.4761,319.5,671.4761,323.5,661.4761,319.5,665.4761" style="stroke:#181818;stroke-width:1.0;"/><line style="stroke:#181818;stroke-width:1.0;" x1="319.5" x2="319.5" y1="707.8202" y2="765.0602"/><polygon fill="#181818" points="315.5,755.0602,319.5,765.0602,323.5,755.0602,319.5,759.0602" style="stroke:#181818;stroke-width:1.0;"/><line style="stroke:#181818;stroke-width:1.0;" x1="319.5" x2="319.5" y1="552.401" y2="577.892"/><polygon fill="#181818" points="315.5,567.892,319.5,577.892,323.5,567.892,319.5,571.892" style="stroke:#181818;stroke-width:1.0;"/><line style="stroke:#181818;stroke-width:1.0;" x1="413.5" x2="746" y1="540.401" y2="540.401"/><polygon fill="#181818" points="742,679.6481,746,689.6481,750,679.6481,746,683.6481" style="stroke:#181818;stroke-width:1.0;"/><line style="stroke:#181818;stroke-width:1.0;" x1="746" x2="746" y1="540.401" y2="833.4043"/><line style="stroke:#181818;stroke-width:1.0;" x1="746" x2="331.5" y1="833.4043" y2="833.4043"/><polygon fill="#181818" points="341.5,829.4043,331.5,833.4043,341.5,837.4043,337.5,833.4043" style="stroke:#181818;stroke-width:1.0;"/><line style="stroke:#181818;stroke-width:1.0;" x1="319.5" x2="319.5" y1="801.4043" y2="821.4043"/><polygon fill="#181818" points="315.5,811.4043,319.5,821.4043,323.5,811.4043,319.5,815.4043" style="stroke:#181818;stroke-width:1.0;"/><line style="stroke:#181818;stroke-width:1.0;" x1="110.5" x2="110.5" y1="508.401" y2="621.9851"/><polygon fill="#181818" points="106.5,611.9851,110.5,621.9851,114.5,611.9851,110.5,615.9851" style="stroke:#181818;stroke-width:1.0;"/><line style="stroke:#181818;stroke-width:1.0;" x1="319.5" x2="319.5" y1="508.401" y2="528.401"/><polygon fill="#181818" points="315.5,518.401,319.5,528.401,323.5,518.401,319.5,522.401" style="stroke:#181818;stroke-width:1.0;"/><line style="stroke:#181818;stroke-width:1.0;" x1="110.5" x2="110.5" y1="757.3111" y2="865.4043"/><polygon fill="#181818" points="106.5,855.4043,110.5,865.4043,114.5,855.4043,110.5,859.4043" style="stroke:#181818;stroke-width:1.0;"/><line style="stroke:#181818;stroke-width:1.0;" x1="319.5" x2="319.5" y1="845.4043" y2="865.4043"/><polygon fill="#181818" points="315.5,855.4043,319.5,865.4043,323.5,855.4043,319.5,859.4043" style="stroke:#181818;stroke-width:1.0;"/><line style="stroke:#181818;stroke-width:1.0;" x1="367.5" x2="367.5" y1="482.401" y2="502.401"/><polygon fill="#181818" points="363.5,492.401,367.5,502.401,371.5,492.401,367.5,496.401" style="stroke:#181818;stroke-width:1.0;"/><line style="stroke:#181818;stroke-width:1.0;" x1="367.5" x2="367.5" y1="871.4043" y2="891.4043"/><polygon fill="#181818" points="363.5,881.4043,367.5,891.4043,371.5,881.4043,367.5,885.4043" style="stroke:#181818;stroke-width:1.0;"/><line style="stroke:#181818;stroke-width:1.0;" x1="367.5" x2="367.5" y1="944.0925" y2="964.0925"/><polygon fill="#181818" points="363.5,954.0925,367.5,964.0925,371.5,954.0925,367.5,958.0925" style="stroke:#181818;stroke-width:1.0;"/><line style="stroke:#181818;stroke-width:1.0;" x1="367.5" x2="367.5" y1="1016.7807" y2="1036.7807"/><polygon fill="#181818" points="363.5,1026.7807,367.5,1036.7807,371.5,1026.7807,367.5,1030.7807" style="stroke:#181818;stroke-width:1.0;"/><line style="stroke:#181818;stroke-width:1.0;" x1="367.5" x2="367.5" y1="1089.469" y2="1109.469"/><polygon fill="#181818" points="363.5,1099.469,367.5,1109.469,371.5,1099.469,367.5,1103.469" style="stroke:#181818;stroke-width:1.0;"/><!--SRC=[RPE_Rjj03CPtFGL7UqY3eaM1saERkYcW9V4GP0eGq2TAPYeTrViZ97sRZ1qoTUjIe7gny4wEuxJr91y_aiSVl_C1NIYAHLcH3LopGGTiQt4T6Xv_MgX8_mToum-_LDrdqk-EhSe2zvB2LW8RncMX7mIEcsqe08wWj3vmY8R5Ohix6KZFcgbqFbexwbZyiICZLWnthFSGdsEdFg3LoXxeDZYqD-Ha2WnP10QxFaxQ4nDuu0ehye2nnNyEwqWE3pCkDG3Hya3Eir9WBCXMQHfwEMSdNMgNHktZfbL4-VfNTjOx6bYEU_4gPd7pH6WbNI-M7A2FKreBHfmZMLpPYt9zVdrsVb6kofFhm_pvzIp1Qd4gKbhJHlvh5PlntcjtBNC4Pz9jd8xLEmdOY6LbvLDW9Rgjs-cwBJulfz12NtLmhc7sv_UfmXFTXcNvC8Um9GipFpxCLG2mxowR6rA2JpDC-gLg51JNkI9WWsmFw-8Jz1tod9kn_wUJhhz7fv1h2T8uhCS7zCiScmIN2dPofQDlaNLJklT9FDvhG7Rg5zvBloFuaiWfYAqu_gvKi8NPwtUBzo3mTl5cljUTEBDDGzxqZOPws-mZdzICEcij1jKhTma1R29P16vZCiUJZoVv-c0N2r0dwuf4apfrMU91LJIeS31dxCtsF6ofMCqEHhQRkA2TducddBp7Od5g1rRfv2n8ffWQ9NUA_HWjOMXHtxIHLxHxkeewuDxCgxq-kva6RCTV25xKuch5AkMi3molTz0tJ-hkAti7sPUWJyj4hD8M2X-aBnu1]--></g></svg>