<?xml version="1.0" encoding="us-ascii" standalone="no"?><svg xmlns="http://www.w3.org/2000/svg" xmlns:xlink="http://www.w3.org/1999/xlink" contentStyleType="text/css" height="1163px" preserveAspectRatio="none" style="width:1471px;height:1163px;background:#FFFFFF;" version="1.1" viewBox="0 0 1471 1163" width="1471px" zoomAndPan="magnify"><defs/><g><!--class Solicitud--><g id="elem_Solicitud"><rect codeLine="4" fill="#F1F1F1" height="116.2717" id="Solicitud" rx="2.5" ry="2.5" style="stroke:#181818;stroke-width:0.5;" width="136" x="1119.5" y="45.5"/><ellipse cx="1155.2" cy="61.5" fill="#ADD1B2" rx="11" ry="11" style="stroke:#181818;stroke-width:1.0;"/><path d="M1158.1688,67.1406 Q1157.5906,67.4375 1156.95,67.5781 Q1156.3094,67.7344 1155.6063,67.7344 Q1153.1063,67.7344 1151.7781,66.0938 Q1150.4656,64.4375 1150.4656,61.3125 Q1150.4656,58.1875 1151.7781,56.5313 Q1153.1063,54.875 1155.6063,54.875 Q1156.3094,54.875 1156.95,55.0313 Q1157.6063,55.1875 1158.1688,55.4844 L1158.1688,58.2031 Q1157.5438,57.625 1156.95,57.3594 Q1156.3563,57.0781 1155.7313,57.0781 Q1154.3875,57.0781 1153.7,58.1563 Q1153.0125,59.2188 1153.0125,61.3125 Q1153.0125,63.4063 1153.7,64.4844 Q1154.3875,65.5469 1155.7313,65.5469 Q1156.3563,65.5469 1156.95,65.2813 Q1157.5438,65 1158.1688,64.4219 L1158.1688,67.1406 Z " fill="#000000"/><text fill="#000000" font-family="sans-serif" font-size="14" lengthAdjust="spacing" textLength="58" x="1173.8" y="66.932">Solicitud</text><line style="stroke:#181818;stroke-width:0.5;" x1="1120.5" x2="1254.5" y1="77.5" y2="77.5"/><text fill="#000000" font-family="sans-serif" font-size="14" lengthAdjust="spacing" textLength="81" x="1125.5" y="96.4659">destinatario</text><text fill="#000000" font-family="sans-serif" font-size="14" lengthAdjust="spacing" textLength="95" x="1125.5" y="115.5339">fechaSolicitud</text><text fill="#000000" font-family="sans-serif" font-size="14" lengthAdjust="spacing" textLength="46" x="1125.5" y="134.6018">asunto</text><text fill="#000000" font-family="sans-serif" font-size="14" lengthAdjust="spacing" textLength="124" x="1125.5" y="153.6697">informacionBasica</text></g><!--class Noticia--><g id="elem_Noticia"><rect codeLine="11" fill="#F1F1F1" height="154.4075" id="Noticia" rx="2.5" ry="2.5" style="stroke:#181818;stroke-width:0.5;" width="126" x="581.5" y="279"/><ellipse cx="618.55" cy="295" fill="#A9DCDF" rx="11" ry="11" style="stroke:#181818;stroke-width:1.0;"/><path d="M618.6594,290.3438 L617.5031,295.4219 L619.8313,295.4219 L618.6594,290.3438 Z M617.175,288.1094 L620.1594,288.1094 L623.5188,300.5 L621.0656,300.5 L620.3,297.4375 L617.0188,297.4375 L616.2688,300.5 L613.8313,300.5 L617.175,288.1094 Z " fill="#000000"/><text fill="#000000" font-family="sans-serif" font-size="14" font-style="italic" lengthAdjust="spacing" textLength="45" x="637.45" y="300.432">Noticia</text><line style="stroke:#181818;stroke-width:0.5;" x1="582.5" x2="706.5" y1="311" y2="311"/><text fill="#000000" font-family="sans-serif" font-size="14" lengthAdjust="spacing" textLength="26" x="587.5" y="329.9659">tipo</text><text fill="#000000" font-family="sans-serif" font-size="14" lengthAdjust="spacing" textLength="64" x="587.5" y="349.0339">momento</text><text fill="#000000" font-family="sans-serif" font-size="14" lengthAdjust="spacing" textLength="41" x="587.5" y="368.1018">titular</text><text fill="#000000" font-family="sans-serif" font-size="14" lengthAdjust="spacing" textLength="93" x="587.5" y="387.1697">protagonistas</text><text fill="#000000" font-family="sans-serif" font-size="14" lengthAdjust="spacing" textLength="57" x="587.5" y="406.2376">contexto</text><text fill="#000000" font-family="sans-serif" font-size="14" lengthAdjust="spacing" textLength="114" x="587.5" y="425.3055">fechaPublicacion</text></g><!--class TipoNoticia--><g id="elem_TipoNoticia"><rect codeLine="20" fill="#F1F1F1" height="192.5433" id="TipoNoticia" rx="2.5" ry="2.5" style="stroke:#181818;stroke-width:0.5;" width="217" x="223" y="7"/><ellipse cx="289.25" cy="23" fill="#EB937F" rx="11" ry="11" style="stroke:#181818;stroke-width:1.0;"/><path d="M293.3594,29 L285.6406,29 L285.6406,16.6094 L293.3594,16.6094 L293.3594,18.7656 L288.0938,18.7656 L288.0938,21.4375 L292.8594,21.4375 L292.8594,23.5938 L288.0938,23.5938 L288.0938,26.8438 L293.3594,26.8438 L293.3594,29 Z " fill="#000000"/><text fill="#000000" font-family="sans-serif" font-size="14" lengthAdjust="spacing" textLength="76" x="309.75" y="28.432">TipoNoticia</text><line style="stroke:#181818;stroke-width:0.5;" x1="224" x2="439" y1="39" y2="39"/><text fill="#000000" font-family="sans-serif" font-size="14" lengthAdjust="spacing" textLength="107" x="229" y="57.9659">INSTITUCIONAL</text><text fill="#000000" font-family="sans-serif" font-size="14" lengthAdjust="spacing" textLength="108" x="229" y="77.0339">INVESTIGACION</text><text fill="#000000" font-family="sans-serif" font-size="14" lengthAdjust="spacing" textLength="205" x="229" y="96.1018">PREMIOS_RECONOCIMIENTOS</text><text fill="#000000" font-family="sans-serif" font-size="14" lengthAdjust="spacing" textLength="166" x="229" y="115.1697">ESTANCIAS_EXTRANJERO</text><text fill="#000000" font-family="sans-serif" font-size="14" lengthAdjust="spacing" textLength="125" x="229" y="134.2376">EVENTOS_CAMPUS</text><text fill="#000000" font-family="sans-serif" font-size="14" lengthAdjust="spacing" textLength="130" x="229" y="153.3055">ACTIVIDADES_AULA</text><text fill="#000000" font-family="sans-serif" font-size="14" lengthAdjust="spacing" textLength="201" x="229" y="172.3734">ACTIVIDADES_FUERA_CAMPUS</text><text fill="#000000" font-family="sans-serif" font-size="14" lengthAdjust="spacing" textLength="142" x="229" y="191.4414">VIDA_UNIVERSITARIA</text></g><!--class MomentoPublicacion--><g id="elem_MomentoPublicacion"><rect codeLine="31" fill="#F1F1F1" height="78.1358" id="MomentoPublicacion" rx="2.5" ry="2.5" style="stroke:#181818;stroke-width:0.5;" width="173" x="475" y="64.5"/><ellipse cx="490" cy="80.5" fill="#EB937F" rx="11" ry="11" style="stroke:#181818;stroke-width:1.0;"/><path d="M494.1094,86.5 L486.3906,86.5 L486.3906,74.1094 L494.1094,74.1094 L494.1094,76.2656 L488.8438,76.2656 L488.8438,78.9375 L493.6094,78.9375 L493.6094,81.0938 L488.8438,81.0938 L488.8438,84.3438 L494.1094,84.3438 L494.1094,86.5 Z " fill="#000000"/><text fill="#000000" font-family="sans-serif" font-size="14" lengthAdjust="spacing" textLength="141" x="504" y="85.932">MomentoPublicacion</text><line style="stroke:#181818;stroke-width:0.5;" x1="476" x2="647" y1="96.5" y2="96.5"/><text fill="#000000" font-family="sans-serif" font-size="14" lengthAdjust="spacing" textLength="49" x="481" y="115.4659">PREVIO</text><text fill="#000000" font-family="sans-serif" font-size="14" lengthAdjust="spacing" textLength="77" x="481" y="134.5339">POSTERIOR</text></g><!--class NoticiaInstitucional--><g id="elem_NoticiaInstitucional"><rect codeLine="36" fill="#F1F1F1" height="32" id="NoticiaInstitucional" rx="2.5" ry="2.5" style="stroke:#181818;stroke-width:0.5;" width="163" x="7" y="544.5"/><ellipse cx="22" cy="560.5" fill="#ADD1B2" rx="11" ry="11" style="stroke:#181818;stroke-width:1.0;"/><path d="M24.9688,566.1406 Q24.3906,566.4375 23.75,566.5781 Q23.1094,566.7344 22.4063,566.7344 Q19.9063,566.7344 18.5781,565.0938 Q17.2656,563.4375 17.2656,560.3125 Q17.2656,557.1875 18.5781,555.5313 Q19.9063,553.875 22.4063,553.875 Q23.1094,553.875 23.75,554.0313 Q24.4063,554.1875 24.9688,554.4844 L24.9688,557.2031 Q24.3438,556.625 23.75,556.3594 Q23.1563,556.0781 22.5313,556.0781 Q21.1875,556.0781 20.5,557.1563 Q19.8125,558.2188 19.8125,560.3125 Q19.8125,562.4063 20.5,563.4844 Q21.1875,564.5469 22.5313,564.5469 Q23.1563,564.5469 23.75,564.2813 Q24.3438,564 24.9688,563.4219 L24.9688,566.1406 Z " fill="#000000"/><text fill="#000000" font-family="sans-serif" font-size="14" lengthAdjust="spacing" textLength="131" x="36" y="565.932">NoticiaInstitucional</text></g><!--class NoticiaInvestigacion--><g id="elem_NoticiaInvestigacion"><rect codeLine="38" fill="#F1F1F1" height="32" id="NoticiaInvestigacion" rx="2.5" ry="2.5" style="stroke:#181818;stroke-width:0.5;" width="169" x="205" y="544.5"/><ellipse cx="220" cy="560.5" fill="#ADD1B2" rx="11" ry="11" style="stroke:#181818;stroke-width:1.0;"/><path d="M222.9688,566.1406 Q222.3906,566.4375 221.75,566.5781 Q221.1094,566.7344 220.4063,566.7344 Q217.9063,566.7344 216.5781,565.0938 Q215.2656,563.4375 215.2656,560.3125 Q215.2656,557.1875 216.5781,555.5313 Q217.9063,553.875 220.4063,553.875 Q221.1094,553.875 221.75,554.0313 Q222.4063,554.1875 222.9688,554.4844 L222.9688,557.2031 Q222.3438,556.625 221.75,556.3594 Q221.1563,556.0781 220.5313,556.0781 Q219.1875,556.0781 218.5,557.1563 Q217.8125,558.2188 217.8125,560.3125 Q217.8125,562.4063 218.5,563.4844 Q219.1875,564.5469 220.5313,564.5469 Q221.1563,564.5469 221.75,564.2813 Q222.3438,564 222.9688,563.4219 L222.9688,566.1406 Z " fill="#000000"/><text fill="#000000" font-family="sans-serif" font-size="14" lengthAdjust="spacing" textLength="137" x="234" y="565.932">NoticiaInvestigacion</text></g><!--class NoticiaPremios--><g id="elem_NoticiaPremios"><rect codeLine="40" fill="#F1F1F1" height="32" id="NoticiaPremios" rx="2.5" ry="2.5" style="stroke:#181818;stroke-width:0.5;" width="133" x="409" y="544.5"/><ellipse cx="424" cy="560.5" fill="#ADD1B2" rx="11" ry="11" style="stroke:#181818;stroke-width:1.0;"/><path d="M426.9688,566.1406 Q426.3906,566.4375 425.75,566.5781 Q425.1094,566.7344 424.4063,566.7344 Q421.9063,566.7344 420.5781,565.0938 Q419.2656,563.4375 419.2656,560.3125 Q419.2656,557.1875 420.5781,555.5313 Q421.9063,553.875 424.4063,553.875 Q425.1094,553.875 425.75,554.0313 Q426.4063,554.1875 426.9688,554.4844 L426.9688,557.2031 Q426.3438,556.625 425.75,556.3594 Q425.1563,556.0781 424.5313,556.0781 Q423.1875,556.0781 422.5,557.1563 Q421.8125,558.2188 421.8125,560.3125 Q421.8125,562.4063 422.5,563.4844 Q423.1875,564.5469 424.5313,564.5469 Q425.1563,564.5469 425.75,564.2813 Q426.3438,564 426.9688,563.4219 L426.9688,566.1406 Z " fill="#000000"/><text fill="#000000" font-family="sans-serif" font-size="14" lengthAdjust="spacing" textLength="101" x="438" y="565.932">NoticiaPremios</text></g><!--class NoticiaEstancia--><g id="elem_NoticiaEstancia"><rect codeLine="42" fill="#F1F1F1" height="59.0679" id="NoticiaEstancia" rx="2.5" ry="2.5" style="stroke:#181818;stroke-width:0.5;" width="135" x="577" y="531"/><ellipse cx="592" cy="547" fill="#ADD1B2" rx="11" ry="11" style="stroke:#181818;stroke-width:1.0;"/><path d="M594.9688,552.6406 Q594.3906,552.9375 593.75,553.0781 Q593.1094,553.2344 592.4063,553.2344 Q589.9063,553.2344 588.5781,551.5938 Q587.2656,549.9375 587.2656,546.8125 Q587.2656,543.6875 588.5781,542.0313 Q589.9063,540.375 592.4063,540.375 Q593.1094,540.375 593.75,540.5313 Q594.4063,540.6875 594.9688,540.9844 L594.9688,543.7031 Q594.3438,543.125 593.75,542.8594 Q593.1563,542.5781 592.5313,542.5781 Q591.1875,542.5781 590.5,543.6563 Q589.8125,544.7188 589.8125,546.8125 Q589.8125,548.9063 590.5,549.9844 Q591.1875,551.0469 592.5313,551.0469 Q593.1563,551.0469 593.75,550.7813 Q594.3438,550.5 594.9688,549.9219 L594.9688,552.6406 Z " fill="#000000"/><text fill="#000000" font-family="sans-serif" font-size="14" lengthAdjust="spacing" textLength="103" x="606" y="552.432">NoticiaEstancia</text><line style="stroke:#181818;stroke-width:0.5;" x1="578" x2="711" y1="563" y2="563"/><text fill="#000000" font-family="sans-serif" font-size="14" lengthAdjust="spacing" textLength="79" x="583" y="581.9659">paisDestino</text></g><!--class NoticiaEvento--><g id="elem_NoticiaEvento"><rect codeLine="46" fill="#F1F1F1" height="32" id="NoticiaEvento" rx="2.5" ry="2.5" style="stroke:#181818;stroke-width:0.5;" width="124" x="747.5" y="544.5"/><ellipse cx="762.5" cy="560.5" fill="#ADD1B2" rx="11" ry="11" style="stroke:#181818;stroke-width:1.0;"/><path d="M765.4688,566.1406 Q764.8906,566.4375 764.25,566.5781 Q763.6094,566.7344 762.9063,566.7344 Q760.4063,566.7344 759.0781,565.0938 Q757.7656,563.4375 757.7656,560.3125 Q757.7656,557.1875 759.0781,555.5313 Q760.4063,553.875 762.9063,553.875 Q763.6094,553.875 764.25,554.0313 Q764.9063,554.1875 765.4688,554.4844 L765.4688,557.2031 Q764.8438,556.625 764.25,556.3594 Q763.6563,556.0781 763.0313,556.0781 Q761.6875,556.0781 761,557.1563 Q760.3125,558.2188 760.3125,560.3125 Q760.3125,562.4063 761,563.4844 Q761.6875,564.5469 763.0313,564.5469 Q763.6563,564.5469 764.25,564.2813 Q764.8438,564 765.4688,563.4219 L765.4688,566.1406 Z " fill="#000000"/><text fill="#000000" font-family="sans-serif" font-size="14" lengthAdjust="spacing" textLength="92" x="776.5" y="565.932">NoticiaEvento</text></g><!--class Evento--><g id="elem_Evento"><rect codeLine="48" fill="#F1F1F1" height="135.3396" id="Evento" rx="2.5" ry="2.5" style="stroke:#181818;stroke-width:0.5;" width="181" x="577" y="688"/><ellipse cx="640.75" cy="704" fill="#ADD1B2" rx="11" ry="11" style="stroke:#181818;stroke-width:1.0;"/><path d="M643.7188,709.6406 Q643.1406,709.9375 642.5,710.0781 Q641.8594,710.2344 641.1563,710.2344 Q638.6563,710.2344 637.3281,708.5938 Q636.0156,706.9375 636.0156,703.8125 Q636.0156,700.6875 637.3281,699.0313 Q638.6563,697.375 641.1563,697.375 Q641.8594,697.375 642.5,697.5313 Q643.1563,697.6875 643.7188,697.9844 L643.7188,700.7031 Q643.0938,700.125 642.5,699.8594 Q641.9063,699.5781 641.2813,699.5781 Q639.9375,699.5781 639.25,700.6563 Q638.5625,701.7188 638.5625,703.8125 Q638.5625,705.9063 639.25,706.9844 Q639.9375,708.0469 641.2813,708.0469 Q641.9063,708.0469 642.5,707.7813 Q643.0938,707.5 643.7188,706.9219 L643.7188,709.6406 Z " fill="#000000"/><text fill="#000000" font-family="sans-serif" font-size="14" lengthAdjust="spacing" textLength="45" x="661.25" y="709.432">Evento</text><line style="stroke:#181818;stroke-width:0.5;" x1="578" x2="757" y1="720" y2="720"/><text fill="#000000" font-family="sans-serif" font-size="14" lengthAdjust="spacing" textLength="37" x="583" y="738.9659">fecha</text><text fill="#000000" font-family="sans-serif" font-size="14" lengthAdjust="spacing" textLength="31" x="583" y="758.0339">hora</text><text fill="#000000" font-family="sans-serif" font-size="14" lengthAdjust="spacing" textLength="29" x="583" y="777.1018">aula</text><text fill="#000000" font-family="sans-serif" font-size="14" lengthAdjust="spacing" textLength="65" x="583" y="796.1697">ubicacion</text><text fill="#000000" font-family="sans-serif" font-size="14" lengthAdjust="spacing" textLength="169" x="583" y="815.2376">diasAnticipacionMinimos</text></g><!--class UbicacionEvento--><g id="elem_UbicacionEvento"><rect codeLine="56" fill="#F1F1F1" height="78.1358" id="UbicacionEvento" rx="2.5" ry="2.5" style="stroke:#181818;stroke-width:0.5;" width="143" x="683" y="64.5"/><ellipse cx="698" cy="80.5" fill="#EB937F" rx="11" ry="11" style="stroke:#181818;stroke-width:1.0;"/><path d="M702.1094,86.5 L694.3906,86.5 L694.3906,74.1094 L702.1094,74.1094 L702.1094,76.2656 L696.8438,76.2656 L696.8438,78.9375 L701.6094,78.9375 L701.6094,81.0938 L696.8438,81.0938 L696.8438,84.3438 L702.1094,84.3438 L702.1094,86.5 Z " fill="#000000"/><text fill="#000000" font-family="sans-serif" font-size="14" lengthAdjust="spacing" textLength="111" x="712" y="85.932">UbicacionEvento</text><line style="stroke:#181818;stroke-width:0.5;" x1="684" x2="825" y1="96.5" y2="96.5"/><text fill="#000000" font-family="sans-serif" font-size="14" lengthAdjust="spacing" textLength="120" x="689" y="115.4659">DENTRO_CAMPUS</text><text fill="#000000" font-family="sans-serif" font-size="14" lengthAdjust="spacing" textLength="106" x="689" y="134.5339">FUERA_CAMPUS</text></g><!--class EventoCampus--><g id="elem_EventoCampus"><rect codeLine="61" fill="#F1F1F1" height="78.1358" id="EventoCampus" rx="2.5" ry="2.5" style="stroke:#181818;stroke-width:0.5;" width="215" x="419" y="911.5"/><ellipse cx="472.25" cy="927.5" fill="#ADD1B2" rx="11" ry="11" style="stroke:#181818;stroke-width:1.0;"/><path d="M475.2188,933.1406 Q474.6406,933.4375 474,933.5781 Q473.3594,933.7344 472.6563,933.7344 Q470.1563,933.7344 468.8281,932.0938 Q467.5156,930.4375 467.5156,927.3125 Q467.5156,924.1875 468.8281,922.5313 Q470.1563,920.875 472.6563,920.875 Q473.3594,920.875 474,921.0313 Q474.6563,921.1875 475.2188,921.4844 L475.2188,924.2031 Q474.5938,923.625 474,923.3594 Q473.4063,923.0781 472.7813,923.0781 Q471.4375,923.0781 470.75,924.1563 Q470.0625,925.2188 470.0625,927.3125 Q470.0625,929.4063 470.75,930.4844 Q471.4375,931.5469 472.7813,931.5469 Q473.4063,931.5469 474,931.2813 Q474.5938,931 475.2188,930.4219 L475.2188,933.1406 Z " fill="#000000"/><text fill="#000000" font-family="sans-serif" font-size="14" lengthAdjust="spacing" textLength="100" x="492.75" y="932.932">EventoCampus</text><line style="stroke:#181818;stroke-width:0.5;" x1="420" x2="633" y1="943.5" y2="943.5"/><text fill="#000000" font-family="sans-serif" font-size="14" lengthAdjust="spacing" textLength="150" x="425" y="962.4659">requiereCreatividades</text><text fill="#000000" font-family="sans-serif" font-size="14" lengthAdjust="spacing" textLength="203" x="425" y="981.5339">diasAnticipacionCreatividades</text></g><!--class ActividadPonente--><g id="elem_ActividadPonente"><rect codeLine="66" fill="#F1F1F1" height="59.0679" id="ActividadPonente" rx="2.5" ry="2.5" style="stroke:#181818;stroke-width:0.5;" width="181" x="669" y="921"/><ellipse cx="698.4" cy="937" fill="#ADD1B2" rx="11" ry="11" style="stroke:#181818;stroke-width:1.0;"/><path d="M701.3688,942.6406 Q700.7906,942.9375 700.15,943.0781 Q699.5094,943.2344 698.8063,943.2344 Q696.3063,943.2344 694.9781,941.5938 Q693.6656,939.9375 693.6656,936.8125 Q693.6656,933.6875 694.9781,932.0313 Q696.3063,930.375 698.8063,930.375 Q699.5094,930.375 700.15,930.5313 Q700.8063,930.6875 701.3688,930.9844 L701.3688,933.7031 Q700.7438,933.125 700.15,932.8594 Q699.5563,932.5781 698.9313,932.5781 Q697.5875,932.5781 696.9,933.6563 Q696.2125,934.7188 696.2125,936.8125 Q696.2125,938.9063 696.9,939.9844 Q697.5875,941.0469 698.9313,941.0469 Q699.5563,941.0469 700.15,940.7813 Q700.7438,940.5 701.3688,939.9219 L701.3688,942.6406 Z " fill="#000000"/><text fill="#000000" font-family="sans-serif" font-size="14" lengthAdjust="spacing" textLength="117" x="715.6" y="942.432">ActividadPonente</text><line style="stroke:#181818;stroke-width:0.5;" x1="670" x2="849" y1="953" y2="953"/><text fill="#000000" font-family="sans-serif" font-size="14" lengthAdjust="spacing" textLength="169" x="675" y="971.9659">diasAnticipacionMinimos</text></g><!--class Ponente--><g id="elem_Ponente"><rect codeLine="70" fill="#F1F1F1" height="78.1358" id="Ponente" rx="2.5" ry="2.5" style="stroke:#181818;stroke-width:0.5;" width="87" x="716" y="1078"/><ellipse cx="731" cy="1094" fill="#ADD1B2" rx="11" ry="11" style="stroke:#181818;stroke-width:1.0;"/><path d="M733.9688,1099.6406 Q733.3906,1099.9375 732.75,1100.0781 Q732.1094,1100.2344 731.4063,1100.2344 Q728.9063,1100.2344 727.5781,1098.5938 Q726.2656,1096.9375 726.2656,1093.8125 Q726.2656,1090.6875 727.5781,1089.0313 Q728.9063,1087.375 731.4063,1087.375 Q732.1094,1087.375 732.75,1087.5313 Q733.4063,1087.6875 733.9688,1087.9844 L733.9688,1090.7031 Q733.3438,1090.125 732.75,1089.8594 Q732.1563,1089.5781 731.5313,1089.5781 Q730.1875,1089.5781 729.5,1090.6563 Q728.8125,1091.7188 728.8125,1093.8125 Q728.8125,1095.9063 729.5,1096.9844 Q730.1875,1098.0469 731.5313,1098.0469 Q732.1563,1098.0469 732.75,1097.7813 Q733.3438,1097.5 733.9688,1096.9219 L733.9688,1099.6406 Z " fill="#000000"/><text fill="#000000" font-family="sans-serif" font-size="14" lengthAdjust="spacing" textLength="55" x="745" y="1099.432">Ponente</text><line style="stroke:#181818;stroke-width:0.5;" x1="717" x2="802" y1="1110" y2="1110"/><text fill="#000000" font-family="sans-serif" font-size="14" lengthAdjust="spacing" textLength="53" x="722" y="1128.9659">nombre</text><text fill="#000000" font-family="sans-serif" font-size="14" lengthAdjust="spacing" textLength="71" x="722" y="1148.0339">institucion</text></g><!--class Cobertura--><g id="elem_Cobertura"><rect codeLine="75" fill="#F1F1F1" height="97.2038" id="Cobertura" rx="2.5" ry="2.5" style="stroke:#181818;stroke-width:0.5;" width="107" x="1022" y="902"/><ellipse cx="1040.15" cy="918" fill="#ADD1B2" rx="11" ry="11" style="stroke:#181818;stroke-width:1.0;"/><path d="M1043.1188,923.6406 Q1042.5406,923.9375 1041.9,924.0781 Q1041.2594,924.2344 1040.5563,924.2344 Q1038.0563,924.2344 1036.7281,922.5938 Q1035.4156,920.9375 1035.4156,917.8125 Q1035.4156,914.6875 1036.7281,913.0313 Q1038.0563,911.375 1040.5563,911.375 Q1041.2594,911.375 1041.9,911.5313 Q1042.5563,911.6875 1043.1188,911.9844 L1043.1188,914.7031 Q1042.4938,914.125 1041.9,913.8594 Q1041.3063,913.5781 1040.6813,913.5781 Q1039.3375,913.5781 1038.65,914.6563 Q1037.9625,915.7188 1037.9625,917.8125 Q1037.9625,919.9063 1038.65,920.9844 Q1039.3375,922.0469 1040.6813,922.0469 Q1041.3063,922.0469 1041.9,921.7813 Q1042.4938,921.5 1043.1188,920.9219 L1043.1188,923.6406 Z " fill="#000000"/><text fill="#000000" font-family="sans-serif" font-size="14" lengthAdjust="spacing" textLength="68" x="1054.85" y="923.432">Cobertura</text><line style="stroke:#181818;stroke-width:0.5;" x1="1023" x2="1128" y1="934" y2="934"/><text fill="#000000" font-family="sans-serif" font-size="14" lengthAdjust="spacing" textLength="86" x="1028" y="952.9659">requiereFoto</text><text fill="#000000" font-family="sans-serif" font-size="14" lengthAdjust="spacing" textLength="95" x="1028" y="972.0339">requiereVideo</text><text fill="#000000" font-family="sans-serif" font-size="14" lengthAdjust="spacing" textLength="64" x="1028" y="991.1018">solicitada</text></g><!--class Fotografia--><g id="elem_Fotografia"><rect codeLine="81" fill="#F1F1F1" height="97.2038" id="Fotografia" rx="2.5" ry="2.5" style="stroke:#181818;stroke-width:0.5;" width="100" x="906.5" y="512"/><ellipse cx="921.5" cy="528" fill="#ADD1B2" rx="11" ry="11" style="stroke:#181818;stroke-width:1.0;"/><path d="M924.4688,533.6406 Q923.8906,533.9375 923.25,534.0781 Q922.6094,534.2344 921.9063,534.2344 Q919.4063,534.2344 918.0781,532.5938 Q916.7656,530.9375 916.7656,527.8125 Q916.7656,524.6875 918.0781,523.0313 Q919.4063,521.375 921.9063,521.375 Q922.6094,521.375 923.25,521.5313 Q923.9063,521.6875 924.4688,521.9844 L924.4688,524.7031 Q923.8438,524.125 923.25,523.8594 Q922.6563,523.5781 922.0313,523.5781 Q920.6875,523.5781 920,524.6563 Q919.3125,525.7188 919.3125,527.8125 Q919.3125,529.9063 920,530.9844 Q920.6875,532.0469 922.0313,532.0469 Q922.6563,532.0469 923.25,531.7813 Q923.8438,531.5 924.4688,530.9219 L924.4688,533.6406 Z " fill="#000000"/><text fill="#000000" font-family="sans-serif" font-size="14" lengthAdjust="spacing" textLength="68" x="935.5" y="533.432">Fotografia</text><line style="stroke:#181818;stroke-width:0.5;" x1="907.5" x2="1005.5" y1="544" y2="544"/><text fill="#000000" font-family="sans-serif" font-size="14" lengthAdjust="spacing" textLength="53" x="912.5" y="562.9659">formato</text><text fill="#000000" font-family="sans-serif" font-size="14" lengthAdjust="spacing" textLength="76" x="912.5" y="582.0339">tipoArchivo</text><text fill="#000000" font-family="sans-serif" font-size="14" lengthAdjust="spacing" textLength="67" x="912.5" y="601.1018">esPortada</text></g><!--class FormatoFoto--><g id="elem_FormatoFoto"><rect codeLine="87" fill="#F1F1F1" height="78.1358" id="FormatoFoto" rx="2.5" ry="2.5" style="stroke:#181818;stroke-width:0.5;" width="137" x="263" y="317"/><ellipse cx="287.9" cy="333" fill="#EB937F" rx="11" ry="11" style="stroke:#181818;stroke-width:1.0;"/><path d="M292.0094,339 L284.2906,339 L284.2906,326.6094 L292.0094,326.6094 L292.0094,328.7656 L286.7438,328.7656 L286.7438,331.4375 L291.5094,331.4375 L291.5094,333.5938 L286.7438,333.5938 L286.7438,336.8438 L292.0094,336.8438 L292.0094,339 Z " fill="#000000"/><text fill="#000000" font-family="sans-serif" font-size="14" lengthAdjust="spacing" textLength="83" x="304.1" y="338.432">FormatoFoto</text><line style="stroke:#181818;stroke-width:0.5;" x1="264" x2="399" y1="349" y2="349"/><text fill="#000000" font-family="sans-serif" font-size="14" lengthAdjust="spacing" textLength="125" x="269" y="367.9659">HORIZONTAL_16_9</text><text fill="#000000" font-family="sans-serif" font-size="14" lengthAdjust="spacing" textLength="117" x="269" y="387.0339">HORIZONTAL_4_3</text></g><!--class TipoArchivo--><g id="elem_TipoArchivo"><rect codeLine="92" fill="#F1F1F1" height="78.1358" id="TipoArchivo" rx="2.5" ry="2.5" style="stroke:#181818;stroke-width:0.5;" width="111" x="435" y="317"/><ellipse cx="450" cy="333" fill="#EB937F" rx="11" ry="11" style="stroke:#181818;stroke-width:1.0;"/><path d="M454.1094,339 L446.3906,339 L446.3906,326.6094 L454.1094,326.6094 L454.1094,328.7656 L448.8438,328.7656 L448.8438,331.4375 L453.6094,331.4375 L453.6094,333.5938 L448.8438,333.5938 L448.8438,336.8438 L454.1094,336.8438 L454.1094,339 Z " fill="#000000"/><text fill="#000000" font-family="sans-serif" font-size="14" lengthAdjust="spacing" textLength="79" x="464" y="338.432">TipoArchivo</text><line style="stroke:#181818;stroke-width:0.5;" x1="436" x2="545" y1="349" y2="349"/><text fill="#000000" font-family="sans-serif" font-size="14" lengthAdjust="spacing" textLength="22" x="441" y="367.9659">JPG</text><text fill="#000000" font-family="sans-serif" font-size="14" lengthAdjust="spacing" textLength="29" x="441" y="387.0339">PNG</text></g><!--class CalidadFoto--><g id="elem_CalidadFoto"><rect codeLine="97" fill="#F1F1F1" height="78.1358" id="CalidadFoto" rx="2.5" ry="2.5" style="stroke:#181818;stroke-width:0.5;" width="135" x="793" y="716.5"/><ellipse cx="818.8" cy="732.5" fill="#ADD1B2" rx="11" ry="11" style="stroke:#181818;stroke-width:1.0;"/><path d="M821.7688,738.1406 Q821.1906,738.4375 820.55,738.5781 Q819.9094,738.7344 819.2063,738.7344 Q816.7063,738.7344 815.3781,737.0938 Q814.0656,735.4375 814.0656,732.3125 Q814.0656,729.1875 815.3781,727.5313 Q816.7063,725.875 819.2063,725.875 Q819.9094,725.875 820.55,726.0313 Q821.2063,726.1875 821.7688,726.4844 L821.7688,729.2031 Q821.1438,728.625 820.55,728.3594 Q819.9563,728.0781 819.3313,728.0781 Q817.9875,728.0781 817.3,729.1563 Q816.6125,730.2188 816.6125,732.3125 Q816.6125,734.4063 817.3,735.4844 Q817.9875,736.5469 819.3313,736.5469 Q819.9563,736.5469 820.55,736.2813 Q821.1438,736 821.7688,735.4219 L821.7688,738.1406 Z " fill="#000000"/><text fill="#000000" font-family="sans-serif" font-size="14" lengthAdjust="spacing" textLength="79" x="835.2" y="737.932">CalidadFoto</text><line style="stroke:#181818;stroke-width:0.5;" x1="794" x2="927" y1="748.5" y2="748.5"/><text fill="#000000" font-family="sans-serif" font-size="14" lengthAdjust="spacing" textLength="92" x="799" y="767.4659">bienEnfocada</text><text fill="#000000" font-family="sans-serif" font-size="14" lengthAdjust="spacing" textLength="123" x="799" y="786.5339">buenaIluminacion</text></g><!--class MiembroComunidad--><g id="elem_MiembroComunidad"><rect codeLine="102" fill="#F1F1F1" height="78.1358" id="MiembroComunidad" rx="2.5" ry="2.5" style="stroke:#181818;stroke-width:0.5;" width="171" x="963" y="716.5"/><ellipse cx="978" cy="732.5" fill="#ADD1B2" rx="11" ry="11" style="stroke:#181818;stroke-width:1.0;"/><path d="M980.9688,738.1406 Q980.3906,738.4375 979.75,738.5781 Q979.1094,738.7344 978.4063,738.7344 Q975.9063,738.7344 974.5781,737.0938 Q973.2656,735.4375 973.2656,732.3125 Q973.2656,729.1875 974.5781,727.5313 Q975.9063,725.875 978.4063,725.875 Q979.1094,725.875 979.75,726.0313 Q980.4063,726.1875 980.9688,726.4844 L980.9688,729.2031 Q980.3438,728.625 979.75,728.3594 Q979.1563,728.0781 978.5313,728.0781 Q977.1875,728.0781 976.5,729.1563 Q975.8125,730.2188 975.8125,732.3125 Q975.8125,734.4063 976.5,735.4844 Q977.1875,736.5469 978.5313,736.5469 Q979.1563,736.5469 979.75,736.2813 Q980.3438,736 980.9688,735.4219 L980.9688,738.1406 Z " fill="#000000"/><text fill="#000000" font-family="sans-serif" font-size="14" lengthAdjust="spacing" textLength="139" x="992" y="737.932">MiembroComunidad</text><line style="stroke:#181818;stroke-width:0.5;" x1="964" x2="1133" y1="748.5" y2="748.5"/><text fill="#000000" font-family="sans-serif" font-size="14" lengthAdjust="spacing" textLength="53" x="969" y="767.4659">nombre</text><text fill="#000000" font-family="sans-serif" font-size="14" lengthAdjust="spacing" textLength="18" x="969" y="786.5339">rol</text></g><!--class Convenio--><g id="elem_Convenio"><rect codeLine="107" fill="#F1F1F1" height="78.1358" id="Convenio" rx="2.5" ry="2.5" style="stroke:#181818;stroke-width:0.5;" width="94" x="41.5" y="716.5"/><ellipse cx="56.5" cy="732.5" fill="#ADD1B2" rx="11" ry="11" style="stroke:#181818;stroke-width:1.0;"/><path d="M59.4688,738.1406 Q58.8906,738.4375 58.25,738.5781 Q57.6094,738.7344 56.9063,738.7344 Q54.4063,738.7344 53.0781,737.0938 Q51.7656,735.4375 51.7656,732.3125 Q51.7656,729.1875 53.0781,727.5313 Q54.4063,725.875 56.9063,725.875 Q57.6094,725.875 58.25,726.0313 Q58.9063,726.1875 59.4688,726.4844 L59.4688,729.2031 Q58.8438,728.625 58.25,728.3594 Q57.6563,728.0781 57.0313,728.0781 Q55.6875,728.0781 55,729.1563 Q54.3125,730.2188 54.3125,732.3125 Q54.3125,734.4063 55,735.4844 Q55.6875,736.5469 57.0313,736.5469 Q57.6563,736.5469 58.25,736.2813 Q58.8438,736 59.4688,735.4219 L59.4688,738.1406 Z " fill="#000000"/><text fill="#000000" font-family="sans-serif" font-size="14" lengthAdjust="spacing" textLength="62" x="70.5" y="737.932">Convenio</text><line style="stroke:#181818;stroke-width:0.5;" x1="42.5" x2="134.5" y1="748.5" y2="748.5"/><text fill="#000000" font-family="sans-serif" font-size="14" lengthAdjust="spacing" textLength="53" x="47.5" y="767.4659">objetivo</text><text fill="#000000" font-family="sans-serif" font-size="14" lengthAdjust="spacing" textLength="43" x="47.5" y="786.5339">partes</text></g><!--class MaterialGrafico--><g id="elem_MaterialGrafico"><rect codeLine="112" fill="#F1F1F1" height="78.1358" id="MaterialGrafico" rx="2.5" ry="2.5" style="stroke:#181818;stroke-width:0.5;" width="136" x="289.5" y="1078"/><ellipse cx="304.5" cy="1094" fill="#ADD1B2" rx="11" ry="11" style="stroke:#181818;stroke-width:1.0;"/><path d="M307.4688,1099.6406 Q306.8906,1099.9375 306.25,1100.0781 Q305.6094,1100.2344 304.9063,1100.2344 Q302.4063,1100.2344 301.0781,1098.5938 Q299.7656,1096.9375 299.7656,1093.8125 Q299.7656,1090.6875 301.0781,1089.0313 Q302.4063,1087.375 304.9063,1087.375 Q305.6094,1087.375 306.25,1087.5313 Q306.9063,1087.6875 307.4688,1087.9844 L307.4688,1090.7031 Q306.8438,1090.125 306.25,1089.8594 Q305.6563,1089.5781 305.0313,1089.5781 Q303.6875,1089.5781 303,1090.6563 Q302.3125,1091.7188 302.3125,1093.8125 Q302.3125,1095.9063 303,1096.9844 Q303.6875,1098.0469 305.0313,1098.0469 Q305.6563,1098.0469 306.25,1097.7813 Q306.8438,1097.5 307.4688,1096.9219 L307.4688,1099.6406 Z " fill="#000000"/><text fill="#000000" font-family="sans-serif" font-size="14" lengthAdjust="spacing" textLength="104" x="318.5" y="1099.432">MaterialGrafico</text><line style="stroke:#181818;stroke-width:0.5;" x1="290.5" x2="424.5" y1="1110" y2="1110"/><text fill="#000000" font-family="sans-serif" font-size="14" lengthAdjust="spacing" textLength="26" x="295.5" y="1128.9659">tipo</text><text fill="#000000" font-family="sans-serif" font-size="14" lengthAdjust="spacing" textLength="78" x="295.5" y="1148.0339">descripcion</text></g><!--class DepartamentoComunicacion--><g id="elem_DepartamentoComunicacion"><rect codeLine="117" fill="#F1F1F1" height="59.0679" id="DepartamentoComunicacion" rx="2.5" ry="2.5" style="stroke:#181818;stroke-width:0.5;" width="224" x="1240.5" y="326.5"/><ellipse cx="1255.5" cy="342.5" fill="#ADD1B2" rx="11" ry="11" style="stroke:#181818;stroke-width:1.0;"/><path d="M1258.4688,348.1406 Q1257.8906,348.4375 1257.25,348.5781 Q1256.6094,348.7344 1255.9063,348.7344 Q1253.4063,348.7344 1252.0781,347.0938 Q1250.7656,345.4375 1250.7656,342.3125 Q1250.7656,339.1875 1252.0781,337.5313 Q1253.4063,335.875 1255.9063,335.875 Q1256.6094,335.875 1257.25,336.0313 Q1257.9063,336.1875 1258.4688,336.4844 L1258.4688,339.2031 Q1257.8438,338.625 1257.25,338.3594 Q1256.6563,338.0781 1256.0313,338.0781 Q1254.6875,338.0781 1254,339.1563 Q1253.3125,340.2188 1253.3125,342.3125 Q1253.3125,344.4063 1254,345.4844 Q1254.6875,346.5469 1256.0313,346.5469 Q1256.6563,346.5469 1257.25,346.2813 Q1257.8438,346 1258.4688,345.4219 L1258.4688,348.1406 Z " fill="#000000"/><text fill="#000000" font-family="sans-serif" font-size="14" lengthAdjust="spacing" textLength="192" x="1269.5" y="347.932">DepartamentoComunicacion</text><line style="stroke:#181818;stroke-width:0.5;" x1="1241.5" x2="1463.5" y1="358.5" y2="358.5"/><text fill="#000000" font-family="sans-serif" font-size="14" lengthAdjust="spacing" textLength="43" x="1246.5" y="377.4659">correo</text></g><!--class DepartamentoProtocolo--><g id="elem_DepartamentoProtocolo"><rect codeLine="121" fill="#F1F1F1" height="59.0679" id="DepartamentoProtocolo" rx="2.5" ry="2.5" style="stroke:#181818;stroke-width:0.5;" width="191" x="461" y="1087.5"/><ellipse cx="476" cy="1103.5" fill="#ADD1B2" rx="11" ry="11" style="stroke:#181818;stroke-width:1.0;"/><path d="M478.9688,1109.1406 Q478.3906,1109.4375 477.75,1109.5781 Q477.1094,1109.7344 476.4063,1109.7344 Q473.9063,1109.7344 472.5781,1108.0938 Q471.2656,1106.4375 471.2656,1103.3125 Q471.2656,1100.1875 472.5781,1098.5313 Q473.9063,1096.875 476.4063,1096.875 Q477.1094,1096.875 477.75,1097.0313 Q478.4063,1097.1875 478.9688,1097.4844 L478.9688,1100.2031 Q478.3438,1099.625 477.75,1099.3594 Q477.1563,1099.0781 476.5313,1099.0781 Q475.1875,1099.0781 474.5,1100.1563 Q473.8125,1101.2188 473.8125,1103.3125 Q473.8125,1105.4063 474.5,1106.4844 Q475.1875,1107.5469 476.5313,1107.5469 Q477.1563,1107.5469 477.75,1107.2813 Q478.3438,1107 478.9688,1106.4219 L478.9688,1109.1406 Z " fill="#000000"/><text fill="#000000" font-family="sans-serif" font-size="14" lengthAdjust="spacing" textLength="159" x="490" y="1108.932">DepartamentoProtocolo</text><line style="stroke:#181818;stroke-width:0.5;" x1="462" x2="651" y1="1119.5" y2="1119.5"/><text fill="#000000" font-family="sans-serif" font-size="14" lengthAdjust="spacing" textLength="43" x="467" y="1138.4659">correo</text></g><!--reverse link Noticia to NoticiaInstitucional--><g id="link_Noticia_NoticiaInstitucional"><path d="M566.8681,432.2937 C561.0481,436.4637 569.66,429.79 563.5,433 C487.78,472.45 268.35,484.56 187.5,512 C162.23,520.58 134.99,533.98 115.49,544.36 " fill="none" id="Noticia-backto-NoticiaInstitucional" style="stroke:#181818;stroke-width:1.0;"/><polygon fill="none" points="581.5,421.81,563.3735,427.4164,570.3627,437.171,581.5,421.81" style="stroke:#181818;stroke-width:1.0;"/></g><!--reverse link Noticia to NoticiaInvestigacion--><g id="link_Noticia_NoticiaInvestigacion"><path d="M567.0747,431.2448 C561.3047,435.8948 569.42,429.02 563.5,433 C493.7,479.95 467.85,476.69 391.5,512 C368.1,522.82 341.71,535.11 321.64,544.48 " fill="none" id="Noticia-backto-NoticiaInvestigacion" style="stroke:#181818;stroke-width:1.0;"/><polygon fill="none" points="581.09,419.95,563.3098,426.573,570.8397,435.9165,581.09,419.95" style="stroke:#181818;stroke-width:1.0;"/></g><!--reverse link Noticia to NoticiaPremios--><g id="link_Noticia_NoticiaPremios"><path d="M569.7981,446.5108 C535.4881,487.6308 507.68,520.94 488.04,544.48 " fill="none" id="Noticia-backto-NoticiaPremios" style="stroke:#181818;stroke-width:1.0;"/><polygon fill="none" points="581.33,432.69,565.1911,442.6668,574.405,450.3548,581.33,432.69" style="stroke:#181818;stroke-width:1.0;"/></g><!--reverse link Noticia to NoticiaEstancia--><g id="link_Noticia_NoticiaEstancia"><path d="M644.5,451.27 C644.5,485.35 644.5,505.46 644.5,530.8 " fill="none" id="Noticia-backto-NoticiaEstancia" style="stroke:#181818;stroke-width:1.0;"/><polygon fill="none" points="644.5,433.27,638.5,451.27,650.5,451.27,644.5,433.27" style="stroke:#181818;stroke-width:1.0;"/></g><!--reverse link Noticia to NoticiaEvento--><g id="link_Noticia_NoticiaEvento"><path d="M718.0116,447.223 C751.2716,488.033 777.85,520.66 797.02,544.18 " fill="none" id="Noticia-backto-NoticiaEvento" style="stroke:#181818;stroke-width:1.0;"/><polygon fill="none" points="706.64,433.27,713.3606,451.0135,722.6626,443.4324,706.64,433.27" style="stroke:#181818;stroke-width:1.0;"/></g><!--reverse link Evento to EventoCampus--><g id="link_Evento_EventoCampus"><path d="M608.1627,837.7252 C586.6727,867.1452 572.8,886.13 554.45,911.24 " fill="none" id="Evento-backto-EventoCampus" style="stroke:#181818;stroke-width:1.0;"/><polygon fill="none" points="618.78,823.19,603.3176,834.1861,613.0077,841.2643,618.78,823.19" style="stroke:#181818;stroke-width:1.0;"/></g><!--reverse link Evento to ActividadPonente--><g id="link_Evento_ActividadPonente"><path d="M707.0343,839.4389 C722.9243,872.7789 733.59,895.14 745.82,920.8 " fill="none" id="Evento-backto-ActividadPonente" style="stroke:#181818;stroke-width:1.0;"/><polygon fill="none" points="699.29,823.19,701.618,842.0203,712.4506,836.8574,699.29,823.19" style="stroke:#181818;stroke-width:1.0;"/></g><!--link Solicitud to Noticia--><g id="link_Solicitud_Noticia"><path codeLine="125" d="M1119.28,135.97 C1013.32,184.85 816.1483,275.8169 713.2583,323.2769 " fill="none" id="Solicitud-to-Noticia" style="stroke:#181818;stroke-width:1.0;"/><polygon fill="#181818" points="707.81,325.79,717.6579,325.6525,712.3503,323.6957,714.307,318.3881,707.81,325.79" style="stroke:#181818;stroke-width:1.0;"/><text fill="#000000" font-family="sans-serif" font-size="13" lengthAdjust="spacing" textLength="52" x="901.5" y="244.897">contiene</text><text fill="#000000" font-family="sans-serif" font-size="13" lengthAdjust="spacing" textLength="7" x="1104.4356" y="135.5125">1</text><text fill="#000000" font-family="sans-serif" font-size="13" lengthAdjust="spacing" textLength="7" x="715.5349" y="318.2284">1</text></g><!--link Solicitud to Cobertura--><g id="link_Solicitud_Cobertura"><path codeLine="126" d="M1187.5,161.71 C1187.5,212.48 1187.5,288.68 1187.5,355 C1187.5,355 1187.5,355 1187.5,756.5 C1187.5,811.7 1156.6592,860.6558 1125.8892,897.2858 " fill="none" id="Solicitud-to-Cobertura" style="stroke:#181818;stroke-width:1.0;"/><polygon fill="#181818" points="1122.03,901.88,1130.8816,897.5615,1125.246,898.0515,1124.756,892.4159,1122.03,901.88" style="stroke:#181818;stroke-width:1.0;"/><text fill="#000000" font-family="sans-serif" font-size="13" lengthAdjust="spacing" textLength="41" x="1188.5" y="565.897">solicita</text><text fill="#000000" font-family="sans-serif" font-size="13" lengthAdjust="spacing" textLength="7" x="1180.0734" y="183.7638">1</text><text fill="#000000" font-family="sans-serif" font-size="13" lengthAdjust="spacing" textLength="20" x="1107.6237" y="890.069">0..1</text></g><!--link Solicitud to DepartamentoComunicacion--><g id="link_Solicitud_DepartamentoComunicacion"><path codeLine="127" d="M1225.15,161.66 C1259.01,213.06 1304.0491,281.4496 1330.3691,321.3996 " fill="none" id="Solicitud-to-DepartamentoComunicacion" style="stroke:#181818;stroke-width:1.0;"/><polygon fill="#181818" points="1333.67,326.41,1332.0588,316.6938,1330.9192,322.2347,1325.3783,321.0951,1333.67,326.41" style="stroke:#181818;stroke-width:1.0;"/><text fill="#000000" font-family="sans-serif" font-size="13" lengthAdjust="spacing" textLength="57" x="1281.5" y="244.897">enviada a</text></g><!--link NoticiaEvento to Evento--><g id="link_NoticiaEvento_Evento"><path codeLine="129" d="M798.36,576.64 C780.9,600.37 749.6156,642.887 720.2756,682.767 " fill="none" id="NoticiaEvento-to-Evento" style="stroke:#181818;stroke-width:1.0;"/><polygon fill="#181818" points="716.72,687.6,725.2754,682.721,719.683,683.5725,718.8315,677.9801,716.72,687.6" style="stroke:#181818;stroke-width:1.0;"/><text fill="#000000" font-family="sans-serif" font-size="13" lengthAdjust="spacing" textLength="50" x="752.5" y="653.897">describe</text><text fill="#000000" font-family="sans-serif" font-size="13" lengthAdjust="spacing" textLength="7" x="786.6935" y="598.5035">1</text><text fill="#000000" font-family="sans-serif" font-size="13" lengthAdjust="spacing" textLength="7" x="714.7206" y="676.1608">1</text></g><!--link Evento to Cobertura--><g id="link_Evento_Cobertura"><path codeLine="130" d="M758.26,813.74 C764.05,816.96 769.82,820.08 775.5,823 C859.17,866.08 955.2996,904.5032 1016.2096,927.5932 " fill="none" id="Evento-to-Cobertura" style="stroke:#181818;stroke-width:1.0;"/><polygon fill="#181818" points="1021.82,929.72,1014.8223,922.7895,1017.1447,927.9477,1011.9865,930.27,1021.82,929.72" style="stroke:#181818;stroke-width:1.0;"/><text fill="#000000" font-family="sans-serif" font-size="13" lengthAdjust="spacing" textLength="50" x="874.5" y="867.897">requiere</text><text fill="#000000" font-family="sans-serif" font-size="13" lengthAdjust="spacing" textLength="7" x="766.0659" y="814.7713">1</text><text fill="#000000" font-family="sans-serif" font-size="13" lengthAdjust="spacing" textLength="20" x="994.059" y="923.0791">0..1</text></g><!--link EventoCampus to DepartamentoProtocolo--><g id="link_EventoCampus_DepartamentoProtocolo"><path codeLine="131" d="M533.46,989.65 C538.89,1019.46 545.2532,1054.3174 550.1932,1081.3974 " fill="none" id="EventoCampus-to-DepartamentoProtocolo" style="stroke:#181818;stroke-width:1.0;"/><polygon fill="#181818" points="551.27,1087.3,553.5899,1077.7283,550.3727,1082.3812,545.7198,1079.164,551.27,1087.3" style="stroke:#181818;stroke-width:1.0;"/><text fill="#000000" font-family="sans-serif" font-size="13" lengthAdjust="spacing" textLength="78" x="544.5" y="1043.897">coordina con</text></g><!--link EventoCampus to MaterialGrafico--><g id="link_EventoCampus_MaterialGrafico"><path codeLine="132" d="M487.3,989.65 C460.1,1016.13 428.2991,1047.0846 401.0791,1073.5846 " fill="none" id="EventoCampus-to-MaterialGrafico" style="stroke:#181818;stroke-width:1.0;"/><polygon fill="#181818" points="396.78,1077.77,406.0189,1074.358,400.3626,1074.2822,400.4384,1068.6258,396.78,1077.77" style="stroke:#181818;stroke-width:1.0;"/><text fill="#000000" font-family="sans-serif" font-size="13" lengthAdjust="spacing" textLength="50" x="443.5" y="1043.897">requiere</text><text fill="#000000" font-family="sans-serif" font-size="13" lengthAdjust="spacing" textLength="7" x="473.2278" y="1011.4863">1</text><text fill="#000000" font-family="sans-serif" font-size="13" lengthAdjust="spacing" textLength="20" x="381.9955" y="1066.2159">0..*</text></g><!--link ActividadPonente to Ponente--><g id="link_ActividadPonente_Ponente"><path codeLine="134" d="M759.5,980.15 C759.5,1007.22 759.5,1041.99 759.5,1071.81 " fill="none" id="ActividadPonente-to-Ponente" style="stroke:#181818;stroke-width:1.0;"/><polygon fill="#181818" points="759.5,1077.81,763.5,1068.81,759.5,1072.81,755.5,1068.81,759.5,1077.81" style="stroke:#181818;stroke-width:1.0;"/><text fill="#000000" font-family="sans-serif" font-size="13" lengthAdjust="spacing" textLength="42" x="760.5" y="1043.897">incluye</text><text fill="#000000" font-family="sans-serif" font-size="13" lengthAdjust="spacing" textLength="7" x="751.7781" y="1001.9813">1</text><text fill="#000000" font-family="sans-serif" font-size="13" lengthAdjust="spacing" textLength="7" x="751.8766" y="1066.263">1</text></g><!--link Noticia to Fotografia--><g id="link_Noticia_Fotografia"><path codeLine="136" d="M707.67,396.07 C757.22,426.97 827.74,471.51 888.5,512 C894.25,515.83 895.297,516.4991 901.227,520.5791 " fill="none" id="Noticia-to-Fotografia" style="stroke:#181818;stroke-width:1.0;"/><polygon fill="#181818" points="906.17,523.98,901.0227,515.5832,902.0508,521.1459,896.4882,522.1739,906.17,523.98" style="stroke:#181818;stroke-width:1.0;"/><text fill="#000000" font-family="sans-serif" font-size="13" lengthAdjust="spacing" textLength="52" x="843.5" y="477.897">contiene</text><text fill="#000000" font-family="sans-serif" font-size="13" lengthAdjust="spacing" textLength="7" x="715.3787" y="396.6346">1</text><text fill="#000000" font-family="sans-serif" font-size="13" lengthAdjust="spacing" textLength="20" x="878.4402" y="515.141">0..*</text></g><!--link Fotografia to MiembroComunidad--><g id="link_Fotografia_MiembroComunidad"><path codeLine="137" d="M979.24,609.21 C994.99,642.25 1013.098,680.234 1027.748,710.964 " fill="none" id="Fotografia-to-MiembroComunidad" style="stroke:#181818;stroke-width:1.0;"/><polygon fill="#181818" points="1030.33,716.38,1030.0677,706.5346,1028.1783,711.8666,1022.8463,709.9773,1030.33,716.38" style="stroke:#181818;stroke-width:1.0;"/><text fill="#000000" font-family="sans-serif" font-size="13" lengthAdjust="spacing" textLength="73" x="1003.5" y="653.897">protagoniza</text><text fill="#000000" font-family="sans-serif" font-size="13" lengthAdjust="spacing" textLength="7" x="974.9456" y="631.1875">1</text><text fill="#000000" font-family="sans-serif" font-size="13" lengthAdjust="spacing" textLength="7" x="1019.3346" y="704.5496">1</text></g><!--link Fotografia to CalidadFoto--><g id="link_Fotografia_CalidadFoto"><path codeLine="138" d="M932.77,609.21 C916.33,642.25 897.4228,680.2782 882.1328,711.0082 " fill="none" id="Fotografia-to-CalidadFoto" style="stroke:#181818;stroke-width:1.0;"/><polygon fill="#181818" points="879.46,716.38,887.0504,710.1042,881.6873,711.9035,879.888,706.5404,879.46,716.38" style="stroke:#181818;stroke-width:1.0;"/><text fill="#000000" font-family="sans-serif" font-size="13" lengthAdjust="spacing" textLength="44" x="918.5" y="653.897">cumple</text><text fill="#000000" font-family="sans-serif" font-size="13" lengthAdjust="spacing" textLength="7" x="921.9408" y="631.1875">1</text><text fill="#000000" font-family="sans-serif" font-size="13" lengthAdjust="spacing" textLength="7" x="875.3104" y="704.5496">1</text></g><!--link NoticiaInstitucional to Convenio--><g id="link_NoticiaInstitucional_Convenio"><path codeLine="140" d="M88.5,576.64 C88.5,606.5 88.5,667.77 88.5,710.48 " fill="none" id="NoticiaInstitucional-to-Convenio" style="stroke:#181818;stroke-width:1.0;"/><polygon fill="#181818" points="88.5,716.48,92.5,707.48,88.5,711.48,84.5,707.48,88.5,716.48" style="stroke:#181818;stroke-width:1.0;"/><text fill="#000000" font-family="sans-serif" font-size="13" lengthAdjust="spacing" textLength="69" x="89.5" y="653.897">documenta</text><text fill="#000000" font-family="sans-serif" font-size="13" lengthAdjust="spacing" textLength="20" x="65.3125" y="598.5035">0..1</text><text fill="#000000" font-family="sans-serif" font-size="13" lengthAdjust="spacing" textLength="20" x="66.6563" y="704.6681">0..1</text></g><!--SRC=[XLNBRjim4BphAuGS2oHeqA90VIZ0oehB89O4MJQANeorpCGi95AbAADfq7_ladfHjfEUP2vdNxCxz87lcS_AIZ_x9IjtJDMUbnTGr_vA5ZpdkjdxBvxlxrcjkG0DYaiyFhBy00C23L0tGfiRBXwbAY7dKdo5ckVW_VKysDLQGQxzDdGaDJg23QnvPTnAMR8sWCQ81IZyLIcfuKaANckeyPnBeTblFUHFcXqMO5EP94mqfPzXE3SyZLOPpTO1ZIFoOC-R42qBOYnuJj9mIUFLDWs3E8e3kgHXbCKhl44OYG9ALjlmUvQIw3vCOsFUMC0s8CjaRN0aoEY6piayN6t9-e6ScExMOKf6j35lrn7TXEcAPYIbP2XzsLBWT6Kxm0etr6HEubKMfZHEZSU4I2fgmvfnWS97YfZO3vTdsACPvLERu6riebZ9PVqVL8ZZ4ORl4vYjlW9Up-tkoBEomwFfzxNetUrBFsty7gGo7y3zm4-pwuUFwycX9iBuLzQqv8ANiXwuNVTO9-eS1vd6usWca_exBIE0icf68fmeYlrgE5CiK0mqF_8ze5GkL3Iz7yAJl3CcKc1CTYd56ysrGNfV0nQot2bcXJWinOWC94fSDmecjTz9Awh-kC4tmPphLj-mXp60WJufUEp6QxNUoRQIHEK7VZGdLYTIzPvs0dSjqlXRpsznId_4KKOUjhUVjf-dbe_R3nD5Tu6jutsoC6A85avNK1WAXzWxpaI8xr1k2i1ZmmJGeYdn0PlIiUJuvYaPoB8H9iAKGIKBbpaKZk1j0hdxoNJRQGLAkmDTWcQAGx4m9ENIVUDmyBdYrRI4EJCHm4g_hSFHVYwLOl8oEC7NKUQoa2V8yTs-khtohw-_s6-loPbzHP4VTWdu_kO6VuvBCXjsm44RvAjLptmcZXnvzr78KvsxvNIcMSV9ZdcdeFDI-lNq9f8yhMQanRGgrHw7RdgUUhbftbsT3Sr9vfqfrEsZjyrGRddHFBEXwTCKZd2S6JXMD-pPNix6FyC_y9gNAmFCqPHLCTOp_O_ew9qmtUqtpaIYBxO5tZy0]--></g></svg>