<?xml version="1.0" encoding="us-ascii" standalone="no"?><svg xmlns="http://www.w3.org/2000/svg" xmlns:xlink="http://www.w3.org/1999/xlink" contentStyleType="text/css" height="245px" preserveAspectRatio="none" style="width:352px;height:245px;background:#FFFFFF;" version="1.1" viewBox="0 0 352 245" width="352px" zoomAndPan="magnify"><defs/><g><text fill="#000000" font-family="sans-serif" font-size="14" font-weight="bold" lengthAdjust="spacing" textLength="208" x="7" y="21.9659">Generador de Mapa Arm&#243;nico</text><text fill="#000000" font-family="sans-serif" font-size="12" lengthAdjust="spacing" textLength="40" x="8" y="41.896">T&#243;nica:</text><rect fill="#EEEEEE" height="19.3441" style="stroke:#000000;stroke-width:1.0;" width="23" x="50" y="29.0679"/><text fill="#000000" font-family="sans-serif" font-size="12" lengthAdjust="spacing" textLength="8" x="52" y="43.896">C</text><line style="stroke:#000000;stroke-width:1.0;" x1="62" x2="62" y1="29.0679" y2="48.412"/><polygon fill="#000000" points="65,35.0679,71,35.0679,68,43.412" style="stroke:#000000;stroke-width:1.0;"/><text fill="#000000" font-family="sans-serif" font-size="12" lengthAdjust="spacing" textLength="35" x="8" y="64.2401">Modo:</text><rect fill="#EEEEEE" height="19.3441" style="stroke:#000000;stroke-width:1.0;" width="55" x="50" y="51.412"/><text fill="#000000" font-family="sans-serif" font-size="12" lengthAdjust="spacing" textLength="36" x="52" y="66.2401">Mayor</text><line style="stroke:#000000;stroke-width:1.0;" x1="94" x2="94" y1="51.412" y2="70.7561"/><polygon fill="#000000" points="97,57.412,103,57.412,100,65.7561" style="stroke:#000000;stroke-width:1.0;"/><rect fill="#EEEEEE" height="20.3441" rx="5" ry="5" style="stroke:#000000;stroke-width:2.5;" width="188" x="10.5" y="78.2561"/><text fill="#000000" font-family="sans-serif" font-size="12" lengthAdjust="spacing" textLength="139" x="35" y="93.0842">Generar Mapa Arm&#243;nico</text><text fill="#000000" font-family="sans-serif" font-size="14" font-weight="bold" lengthAdjust="spacing" textLength="192" x="8" y="120.0662">Mapa Arm&#243;nico de C Mayor</text><text fill="#000000" font-family="sans-serif" font-size="12" lengthAdjust="spacing" textLength="87" x="14" y="139.9963">De d&#243;nde viene</text><text fill="#000000" font-family="sans-serif" font-size="12" lengthAdjust="spacing" textLength="40" x="103" y="139.9963">Acorde</text><text fill="#000000" font-family="sans-serif" font-size="12" lengthAdjust="spacing" textLength="43" x="145" y="139.9963">Funci&#243;n</text><text fill="#000000" font-family="sans-serif" font-size="12" lengthAdjust="spacing" textLength="62" x="250" y="139.9963">A d&#243;nde va</text><text fill="#000000" font-family="sans-serif" font-size="12" lengthAdjust="spacing" textLength="69" x="14" y="158.3404">V, VII, SubV7</text><text fill="#000000" font-family="sans-serif" font-size="12" lengthAdjust="spacing" textLength="8" x="103" y="158.3404">C</text><text fill="#000000" font-family="sans-serif" font-size="12" lengthAdjust="spacing" textLength="52" x="145" y="158.3404">T&#243;nica (I)</text><text fill="#000000" font-family="sans-serif" font-size="12" lengthAdjust="spacing" textLength="62" x="250" y="158.3404">F / Am / Fm</text><text fill="#000000" font-family="sans-serif" font-size="12" lengthAdjust="spacing" textLength="54" x="14" y="176.6845">Am, I, V/II</text><text fill="#000000" font-family="sans-serif" font-size="12" lengthAdjust="spacing" textLength="20" x="103" y="176.6845">Dm</text><text fill="#000000" font-family="sans-serif" font-size="12" lengthAdjust="spacing" textLength="86" x="145" y="176.6845">Supert&#243;nica (II)</text><text fill="#000000" font-family="sans-serif" font-size="12" lengthAdjust="spacing" textLength="61" x="250" y="176.6845">G7 / SubV7</text><text fill="#000000" font-family="sans-serif" font-size="12" lengthAdjust="spacing" textLength="46" x="14" y="195.0286">I, II, V/IV</text><text fill="#000000" font-family="sans-serif" font-size="12" lengthAdjust="spacing" textLength="6" x="103" y="195.0286">F</text><text fill="#000000" font-family="sans-serif" font-size="12" lengthAdjust="spacing" textLength="103" x="145" y="195.0286">Subdominante (IV)</text><text fill="#000000" font-family="sans-serif" font-size="12" lengthAdjust="spacing" textLength="61" x="250" y="195.0286">G7 / SubV7</text><text fill="#000000" font-family="sans-serif" font-size="12" lengthAdjust="spacing" textLength="46" x="14" y="213.3727">II, IV, VII</text><text fill="#000000" font-family="sans-serif" font-size="12" lengthAdjust="spacing" textLength="16" x="103" y="213.3727">G7</text><text fill="#000000" font-family="sans-serif" font-size="12" lengthAdjust="spacing" textLength="80" x="145" y="213.3727">Dominante (V)</text><text fill="#000000" font-family="sans-serif" font-size="12" lengthAdjust="spacing" textLength="42" x="250" y="213.3727">C (Res.)</text><line style="stroke:#AAAAAA;stroke-width:1.0;stroke-dasharray:1.0,2.0;" x1="14" x2="102" y1="227.5608" y2="227.5608"/><line style="stroke:#AAAAAA;stroke-width:1.0;stroke-dasharray:1.0,2.0;" x1="103" x2="144" y1="227.5608" y2="227.5608"/><line style="stroke:#AAAAAA;stroke-width:1.0;stroke-dasharray:1.0,2.0;" x1="145" x2="249" y1="227.5608" y2="227.5608"/><line style="stroke:#AAAAAA;stroke-width:1.0;stroke-dasharray:1.0,2.0;" x1="250" x2="313" y1="227.5608" y2="227.5608"/><line style="stroke:#000000;stroke-width:1.0;" x1="8" x2="13" y1="126.1682" y2="126.1682"/><line style="stroke:#000000;stroke-width:1.0;" x1="249" x2="313" y1="199.5446" y2="199.5446"/><line style="stroke:#000000;stroke-width:1.0;" x1="13" x2="102" y1="126.1682" y2="126.1682"/><line style="stroke:#000000;stroke-width:1.0;" x1="102" x2="144" y1="126.1682" y2="126.1682"/><line style="stroke:#000000;stroke-width:1.0;" x1="144" x2="249" y1="126.1682" y2="126.1682"/><line style="stroke:#000000;stroke-width:1.0;" x1="249" x2="313" y1="126.1682" y2="126.1682"/><line style="stroke:#000000;stroke-width:1.0;" x1="8" x2="13" y1="181.2005" y2="181.2005"/><line style="stroke:#000000;stroke-width:1.0;" x1="13" x2="102" y1="181.2005" y2="181.2005"/><line style="stroke:#000000;stroke-width:1.0;" x1="102" x2="144" y1="181.2005" y2="181.2005"/><line style="stroke:#000000;stroke-width:1.0;" x1="144" x2="249" y1="181.2005" y2="181.2005"/><line style="stroke:#000000;stroke-width:1.0;" x1="249" x2="313" y1="181.2005" y2="181.2005"/><line style="stroke:#000000;stroke-width:1.0;" x1="8" x2="13" y1="236.2329" y2="236.2329"/><line style="stroke:#000000;stroke-width:1.0;" x1="13" x2="102" y1="236.2329" y2="236.2329"/><line style="stroke:#000000;stroke-width:1.0;" x1="102" x2="144" y1="236.2329" y2="236.2329"/><line style="stroke:#000000;stroke-width:1.0;" x1="144" x2="249" y1="236.2329" y2="236.2329"/><line style="stroke:#000000;stroke-width:1.0;" x1="249" x2="313" y1="236.2329" y2="236.2329"/><line style="stroke:#000000;stroke-width:1.0;" x1="8" x2="13" y1="162.8564" y2="162.8564"/><line style="stroke:#000000;stroke-width:1.0;" x1="13" x2="102" y1="162.8564" y2="162.8564"/><line style="stroke:#000000;stroke-width:1.0;" x1="102" x2="144" y1="162.8564" y2="162.8564"/><line style="stroke:#000000;stroke-width:1.0;" x1="144" x2="249" y1="162.8564" y2="162.8564"/><line style="stroke:#000000;stroke-width:1.0;" x1="249" x2="313" y1="162.8564" y2="162.8564"/><line style="stroke:#000000;stroke-width:1.0;" x1="8" x2="13" y1="217.8887" y2="217.8887"/><line style="stroke:#000000;stroke-width:1.0;" x1="13" x2="102" y1="217.8887" y2="217.8887"/><line style="stroke:#000000;stroke-width:1.0;" x1="102" x2="144" y1="217.8887" y2="217.8887"/><line style="stroke:#000000;stroke-width:1.0;" x1="144" x2="249" y1="217.8887" y2="217.8887"/><line style="stroke:#000000;stroke-width:1.0;" x1="8" x2="13" y1="144.5123" y2="144.5123"/><line style="stroke:#000000;stroke-width:1.0;" x1="249" x2="313" y1="217.8887" y2="217.8887"/><line style="stroke:#000000;stroke-width:1.0;" x1="13" x2="102" y1="144.5123" y2="144.5123"/><line style="stroke:#000000;stroke-width:1.0;" x1="102" x2="144" y1="144.5123" y2="144.5123"/><line style="stroke:#000000;stroke-width:1.0;" x1="144" x2="249" y1="144.5123" y2="144.5123"/><line style="stroke:#000000;stroke-width:1.0;" x1="249" x2="313" y1="144.5123" y2="144.5123"/><line style="stroke:#000000;stroke-width:1.0;" x1="8" x2="13" y1="199.5446" y2="199.5446"/><line style="stroke:#000000;stroke-width:1.0;" x1="13" x2="102" y1="199.5446" y2="199.5446"/><line style="stroke:#000000;stroke-width:1.0;" x1="102" x2="144" y1="199.5446" y2="199.5446"/><line style="stroke:#000000;stroke-width:1.0;" x1="144" x2="249" y1="199.5446" y2="199.5446"/><line style="stroke:#000000;stroke-width:1.0;" x1="8" x2="8" y1="126.1682" y2="144.5123"/><line style="stroke:#000000;stroke-width:1.0;" x1="249" x2="249" y1="199.5446" y2="217.8887"/><line style="stroke:#000000;stroke-width:1.0;" x1="313" x2="313" y1="199.5446" y2="217.8887"/><line style="stroke:#000000;stroke-width:1.0;" x1="13" x2="13" y1="126.1682" y2="144.5123"/><line style="stroke:#000000;stroke-width:1.0;" x1="102" x2="102" y1="126.1682" y2="144.5123"/><line style="stroke:#000000;stroke-width:1.0;" x1="144" x2="144" y1="126.1682" y2="144.5123"/><line style="stroke:#000000;stroke-width:1.0;" x1="249" x2="249" y1="126.1682" y2="144.5123"/><line style="stroke:#000000;stroke-width:1.0;" x1="313" x2="313" y1="126.1682" y2="144.5123"/><line style="stroke:#000000;stroke-width:1.0;" x1="8" x2="8" y1="181.2005" y2="199.5446"/><line style="stroke:#000000;stroke-width:1.0;" x1="13" x2="13" y1="181.2005" y2="199.5446"/><line style="stroke:#000000;stroke-width:1.0;" x1="102" x2="102" y1="181.2005" y2="199.5446"/><line style="stroke:#000000;stroke-width:1.0;" x1="144" x2="144" y1="181.2005" y2="199.5446"/><line style="stroke:#000000;stroke-width:1.0;" x1="249" x2="249" y1="181.2005" y2="199.5446"/><line style="stroke:#000000;stroke-width:1.0;" x1="313" x2="313" y1="181.2005" y2="199.5446"/><line style="stroke:#000000;stroke-width:1.0;" x1="8" x2="8" y1="162.8564" y2="181.2005"/><line style="stroke:#000000;stroke-width:1.0;" x1="13" x2="13" y1="162.8564" y2="181.2005"/><line style="stroke:#000000;stroke-width:1.0;" x1="102" x2="102" y1="162.8564" y2="181.2005"/><line style="stroke:#000000;stroke-width:1.0;" x1="144" x2="144" y1="162.8564" y2="181.2005"/><line style="stroke:#000000;stroke-width:1.0;" x1="249" x2="249" y1="162.8564" y2="181.2005"/><line style="stroke:#000000;stroke-width:1.0;" x1="313" x2="313" y1="162.8564" y2="181.2005"/><line style="stroke:#000000;stroke-width:1.0;" x1="8" x2="8" y1="217.8887" y2="236.2329"/><line style="stroke:#000000;stroke-width:1.0;" x1="13" x2="13" y1="217.8887" y2="236.2329"/><line style="stroke:#000000;stroke-width:1.0;" x1="102" x2="102" y1="217.8887" y2="236.2329"/><line style="stroke:#000000;stroke-width:1.0;" x1="144" x2="144" y1="217.8887" y2="236.2329"/><line style="stroke:#000000;stroke-width:1.0;" x1="8" x2="8" y1="144.5123" y2="162.8564"/><line style="stroke:#000000;stroke-width:1.0;" x1="249" x2="249" y1="217.8887" y2="236.2329"/><line style="stroke:#000000;stroke-width:1.0;" x1="313" x2="313" y1="217.8887" y2="236.2329"/><line style="stroke:#000000;stroke-width:1.0;" x1="13" x2="13" y1="144.5123" y2="162.8564"/><line style="stroke:#000000;stroke-width:1.0;" x1="102" x2="102" y1="144.5123" y2="162.8564"/><line style="stroke:#000000;stroke-width:1.0;" x1="144" x2="144" y1="144.5123" y2="162.8564"/><line style="stroke:#000000;stroke-width:1.0;" x1="249" x2="249" y1="144.5123" y2="162.8564"/><line style="stroke:#000000;stroke-width:1.0;" x1="313" x2="313" y1="144.5123" y2="162.8564"/><line style="stroke:#000000;stroke-width:1.0;" x1="8" x2="8" y1="199.5446" y2="217.8887"/><line style="stroke:#000000;stroke-width:1.0;" x1="13" x2="13" y1="199.5446" y2="217.8887"/><line style="stroke:#000000;stroke-width:1.0;" x1="102" x2="102" y1="199.5446" y2="217.8887"/><line style="stroke:#000000;stroke-width:1.0;" x1="144" x2="144" y1="199.5446" y2="217.8887"/><line style="stroke:#000000;stroke-width:1.0;" x1="7" x2="314" y1="104.1003" y2="104.1003"/><line style="stroke:#000000;stroke-width:1.0;" x1="7" x2="314" y1="237.2329" y2="237.2329"/><line style="stroke:#000000;stroke-width:1.0;" x1="7" x2="7" y1="104.1003" y2="125.1682"/><line style="stroke:#000000;stroke-width:1.0;" x1="314" x2="314" y1="125.1682" y2="237.2329"/><line style="stroke:#000000;stroke-width:1.0;" x1="314" x2="314" y1="104.1003" y2="125.1682"/><line style="stroke:#000000;stroke-width:1.0;" x1="7" x2="7" y1="125.1682" y2="237.2329"/><rect fill="none" height="133.1326" style="stroke:#000000;stroke-width:1.0;" width="15" x="318" y="104.1003"/><line style="stroke:#000000;stroke-width:1.0;" x1="318" x2="333" y1="116.1003" y2="116.1003"/><line style="stroke:#000000;stroke-width:1.0;" x1="318" x2="333" y1="225.2329" y2="225.2329"/><path d="M325,108.1003 L328,113.1003 L322,113.1003 L325,108.1003 " fill="#000000" style="stroke:#000000;stroke-width:1.0;"/><path d="M325,234.2329 L328,229.2329 L322,229.2329 L325,234.2329 " fill="#000000" style="stroke:#000000;stroke-width:1.0;"/><line style="stroke:#000000;stroke-width:1.0;" x1="6" x2="345" y1="6" y2="6"/><line style="stroke:#000000;stroke-width:1.0;" x1="6" x2="345" y1="238.2329" y2="238.2329"/><line style="stroke:#000000;stroke-width:1.0;" x1="6" x2="6" y1="6" y2="27.0679"/><line style="stroke:#000000;stroke-width:1.0;" x1="345" x2="345" y1="27.0679" y2="73.7561"/><line style="stroke:#000000;stroke-width:1.0;" x1="345" x2="345" y1="6" y2="27.0679"/><line style="stroke:#000000;stroke-width:1.0;" x1="6" x2="6" y1="103.1003" y2="238.2329"/><line style="stroke:#000000;stroke-width:1.0;" x1="6" x2="6" y1="73.7561" y2="103.1003"/><line style="stroke:#000000;stroke-width:1.0;" x1="345" x2="345" y1="103.1003" y2="238.2329"/><line style="stroke:#000000;stroke-width:1.0;" x1="6" x2="6" y1="27.0679" y2="73.7561"/><line style="stroke:#000000;stroke-width:1.0;" x1="345" x2="345" y1="73.7561" y2="103.1003"/><rect fill="none" height="133.1326" style="stroke:#000000;stroke-width:1.0;" width="15" x="318" y="104.1003"/><line style="stroke:#000000;stroke-width:1.0;" x1="318" x2="333" y1="116.1003" y2="116.1003"/><line style="stroke:#000000;stroke-width:1.0;" x1="318" x2="333" y1="225.2329" y2="225.2329"/><path d="M325,108.1003 L328,113.1003 L322,113.1003 L325,108.1003 " fill="#000000" style="stroke:#000000;stroke-width:1.0;"/><path d="M325,234.2329 L328,229.2329 L322,229.2329 L325,234.2329 " fill="#000000" style="stroke:#000000;stroke-width:1.0;"/><!--SRC=[VPFVQjim6CNlzHG7TfEmr4spz0-6GZCd3avZ5khKknWhABQQ2MefoBAXf7cgFS9UR9__99rxCLzy5aVd_3u9INUvvSRc_CN22Aba8hbP6Rqr8fTQVPT6F1kUYPpj6R3_J0MulSLSA65ugWrIWP3lE2Oc-_ERyfhLddrTWNKjSXTlUFAUMZ7KgNRfJrh8NxLfz4Ct-QDjOZxmyRFZZeBMJwlwOAIbUQWRiDQp_zGE08UwJmLIyfAlbDIBb4cYJLeD_48bakOgxMJYdNGyG1m40qJ59hwkDkCrSs_7JQCNz2iKpZ79gFXP9p_91g1uV1u4JMoQjVces0bZJv2QChycGjsg0o50q43Y9klZ1DcaEfEAAoi84lyFKb6QxJHPyhLBUYVK00-z1v4x_KxSSHpyyvs4Pb3NrdzWntfWT81tGgNLrMDizK9D7iCbIc6gYuSBPpGSZPqllVMl0hxOuE8Iew4x7hh3ItYpDQhfFklDLyjoX5mN9g73bBarSbDO8lJPWfSS3uMoCXCklks4MaplZm9cgfH6gqmeonPn-6wu6fzzbHQHCBGMn26RYcTUqFkOgKIdKcrTFAxzinksv6fRy2snwNbuchZcrSKi-Wi0]--></g></svg>