<?xml version="1.0" encoding="us-ascii" standalone="no"?><svg xmlns="http://www.w3.org/2000/svg" xmlns:xlink="http://www.w3.org/1999/xlink" contentStyleType="text/css" height="750px" preserveAspectRatio="none" style="width:497px;height:750px;background:#FFFFFF;" version="1.1" viewBox="0 0 497 750" width="497px" zoomAndPan="magnify"><defs/><g><g id="PROGRESION_EN_CONSTRUCCION_1"><rect fill="#F1F1F1" height="50" rx="12.5" ry="12.5" style="stroke:#181818;stroke-width:0.5;" width="252" x="7" y="7"/><line style="stroke:#181818;stroke-width:0.5;" x1="7" x2="259" y1="36.0679" y2="36.0679"/><text fill="#000000" font-family="sans-serif" font-size="14" lengthAdjust="spacing" textLength="232" x="17" y="26.9659">PROGRESION_EN_CONSTRUCCION</text></g><path d="M53.5,117 L470.5,117 A12.5,12.5 0 0 1 483,129.5 L483,146.0679 L41,146.0679 L41,129.5 A12.5,12.5 0 0 1 53.5,117 " fill="#F1F1F1" style="stroke:#F1F1F1;stroke-width:1.0;"/><rect fill="none" height="517.0679" rx="12.5" ry="12.5" style="stroke:#181818;stroke-width:0.5;" width="442" x="41" y="117"/><line style="stroke:#181818;stroke-width:0.5;" x1="41" x2="483" y1="146.0679" y2="146.0679"/><text fill="#000000" font-family="sans-serif" font-size="14" lengthAdjust="spacing" textLength="137" x="193.5" y="136.9659">reiniciarProgresi&#243;n()</text><g id="reiniciarProgresion.SolicitandoReinicio"><rect fill="#F1F1F1" height="50" rx="12.5" ry="12.5" style="stroke:#181818;stroke-width:0.5;" width="50" x="53" y="250.0679"/><line style="stroke:#181818;stroke-width:0.5;" x1="53" x2="103" y1="279.1358" y2="279.1358"/><text fill="#000000" font-family="sans-serif" font-size="14" lengthAdjust="spacing" textLength="4" x="76" y="270.0339">&#160;</text></g><g id="reiniciarProgresion.ProgresionReinicada"><rect fill="#F1F1F1" height="50" rx="12.5" ry="12.5" style="stroke:#181818;stroke-width:0.5;" width="50" x="53" y="515.0679"/><line style="stroke:#181818;stroke-width:0.5;" x1="53" x2="103" y1="544.1358" y2="544.1358"/><text fill="#000000" font-family="sans-serif" font-size="14" lengthAdjust="spacing" textLength="4" x="76" y="535.0339">&#160;</text></g><ellipse cx="78" cy="167.0679" fill="#222222" rx="10" ry="10" style="stroke:#222222;stroke-width:1.0;"/><ellipse cx="78" cy="613.0679" fill="none" rx="11" ry="11" style="stroke:#222222;stroke-width:1.0;"/><ellipse cx="78" cy="613.0679" fill="#222222" rx="6" ry="6" style="stroke:#222222;stroke-width:1.0;"/><!--link *start*reiniciarProgresion to SolicitandoReinicio--><g id="link_*start*reiniciarProgresion_SolicitandoReinicio"><path d="M78,177.1079 C78,193.0279 78,220.5779 78,243.7079 " fill="none" id="*start*reiniciarProgresion-to-SolicitandoReinicio" style="stroke:#008000;stroke-width:1.0;"/><polygon fill="#008000" points="78,249.7079,82,240.7079,78,244.7079,74,240.7079,78,249.7079" style="stroke:#008000;stroke-width:1.0;"/><path d="M83,200.0679 L83,227.0679 L313,227.0679 L313,210.0679 L303,200.0679 L83,200.0679 " fill="#FEFFDD" style="stroke:#181818;stroke-width:0.5;"/><path d="M303,200.0679 L303,210.0679 L313,210.0679 L303,200.0679 " fill="#FEFFDD" style="stroke:#181818;stroke-width:0.5;"/><text fill="#000000" font-family="sans-serif" font-size="13" font-weight="bold" lengthAdjust="spacing" textLength="46" x="89" y="218.9649">M&#250;sico</text><text fill="#000000" font-family="sans-serif" font-size="13" lengthAdjust="spacing" textLength="160" x="138" y="218.9649">solicita reiniciar progresi&#243;n</text></g><!--link SolicitandoReinicio to ProgresionReinicada--><g id="link_SolicitandoReinicio_ProgresionReinicada"><path d="M78,300.3379 C78,350.4379 78,458.8079 78,508.8579 " fill="none" id="SolicitandoReinicio-to-ProgresionReinicada" style="stroke:#008000;stroke-width:1.0;"/><polygon fill="#008000" points="78,514.8579,82,505.8579,78,509.8579,74,505.8579,78,514.8579" style="stroke:#008000;stroke-width:1.0;"/><path d="M83,323.0679 L83,492.0679 L474,492.0679 L474,333.0679 L464,323.0679 L83,323.0679 " fill="#FEFFDD" style="stroke:#181818;stroke-width:0.5;"/><path d="M464,323.0679 L464,333.0679 L474,333.0679 L464,323.0679 " fill="#FEFFDD" style="stroke:#181818;stroke-width:0.5;"/><text fill="#000000" font-family="sans-serif" font-size="13" font-weight="bold" lengthAdjust="spacing" textLength="52" x="89" y="341.9649">Sistema</text><text fill="#000000" font-family="sans-serif" font-size="13" lengthAdjust="spacing" textLength="150" x="144" y="341.9649">presenta mapa arm&#243;nico</text><text fill="#000000" font-family="sans-serif" font-size="13" lengthAdjust="spacing" textLength="186" x="89" y="359.6709">&#8226; Limpia historial de progresi&#243;n</text><text fill="#000000" font-family="sans-serif" font-size="13" lengthAdjust="spacing" textLength="324" x="89" y="377.377">&#8226; Restablece mapa arm&#243;nico con contexto tonal actual</text><text fill="#000000" font-family="sans-serif" font-size="13" lengthAdjust="spacing" textLength="370" x="89" y="395.083">&#8226; Presenta todos los acordes disponibles sin navegaci&#243;n activa</text><text fill="#000000" font-family="sans-serif" font-size="13" lengthAdjust="spacing" textLength="3" x="89" y="412.789">&#160;</text><text fill="#000000" font-family="sans-serif" font-size="13" font-weight="bold" lengthAdjust="spacing" textLength="52" x="89" y="430.495">Sistema</text><text fill="#000000" font-family="sans-serif" font-size="13" lengthAdjust="spacing" textLength="99" x="144" y="430.495">permite solicitar:</text><text fill="#000000" font-family="sans-serif" font-size="13" lengthAdjust="spacing" textLength="152" x="89" y="448.201">&#8226; iniciar nueva progresi&#243;n</text><text fill="#000000" font-family="sans-serif" font-size="13" lengthAdjust="spacing" textLength="104" x="89" y="465.907">&#8226; modificar t&#243;nica</text><text fill="#000000" font-family="sans-serif" font-size="13" lengthAdjust="spacing" textLength="103" x="89" y="483.6131">&#8226; modificar modo</text></g><!--link ProgresionReinicada to *end*reiniciarProgresion--><g id="link_ProgresionReinicada_*end*reiniciarProgresion"><path d="M78,565.1079 C78,577.6579 78,586.3479 78,595.9179 " fill="none" id="ProgresionReinicada-to-*end*reiniciarProgresion" style="stroke:#008000;stroke-width:1.0;"/><polygon fill="#008000" points="78,601.9179,82,592.9179,78,596.9179,74,592.9179,78,601.9179" style="stroke:#008000;stroke-width:1.0;"/></g><g id="PROGRESION_FINALIZADA"><rect fill="#F1F1F1" height="50" rx="12.5" ry="12.5" style="stroke:#181818;stroke-width:0.5;" width="196" x="294" y="7"/><line style="stroke:#181818;stroke-width:0.5;" x1="294" x2="490" y1="36.0679" y2="36.0679"/><text fill="#000000" font-family="sans-serif" font-size="14" lengthAdjust="spacing" textLength="176" x="304" y="26.9659">PROGRESION_FINALIZADA</text></g><g id="MAPA_DISPONIBLE"><rect fill="#F1F1F1" height="50" rx="12.5" ry="12.5" style="stroke:#181818;stroke-width:0.5;" width="147" x="188.5" y="694"/><line style="stroke:#181818;stroke-width:0.5;" x1="188.5" x2="335.5" y1="723.0679" y2="723.0679"/><text fill="#000000" font-family="sans-serif" font-size="14" lengthAdjust="spacing" textLength="127" x="198.5" y="713.9659">MAPA_DISPONIBLE</text></g><!--link PROGRESION_EN_CONSTRUCCION_1 to reiniciarProgresion--><g id="link_PROGRESION_EN_CONSTRUCCION_1_reiniciarProgresion"><path d="M142.07,57.01 C147.69,71.89 153.4296,87.0972 162.4696,111.0272 " fill="none" id="PROGRESION_EN_CONSTRUCCION_1-to-reiniciarProgresion" style="stroke:#008000;stroke-width:1.0;"/><polygon fill="#008000" points="164.59,116.64,165.1514,106.8072,162.823,111.9626,157.6676,109.6343,164.59,116.64" style="stroke:#008000;stroke-width:1.0;"/></g><!--link PROGRESION_FINALIZADA to reiniciarProgresion--><g id="link_PROGRESION_FINALIZADA_reiniciarProgresion"><path d="M382.86,57.01 C377.19,71.89 371.4047,87.1026 362.2947,111.0326 " fill="none" id="PROGRESION_FINALIZADA-to-reiniciarProgresion" style="stroke:#008000;stroke-width:1.0;"/><polygon fill="#008000" points="360.16,116.64,367.1003,109.652,361.9389,111.9672,359.6238,106.8057,360.16,116.64" style="stroke:#008000;stroke-width:1.0;"/></g><!--link reiniciarProgresion to MAPA_DISPONIBLE--><g id="link_reiniciarProgresion_MAPA_DISPONIBLE"><path d="M262,634.02 C262,657.98 262,672.84 262,687.77 " fill="none" id="reiniciarProgresion-to-MAPA_DISPONIBLE" style="stroke:#008000;stroke-width:1.0;"/><polygon fill="#008000" points="262,693.77,266,684.77,262,688.77,258,684.77,262,693.77" style="stroke:#008000;stroke-width:1.0;"/></g><!--SRC=[XLB1Qjj04BtlLmpE9Is4aci81jLnYy2HXTHU6e8PIvDqYBGZTZSceHJwBVs5tdhDd_HBEfBiE8xbLc9XT_QzDszcrj-nRT1X3HLR2eyDGIFLOtimnWSC16as_vXDytYUBAR9OZ9Fya_PvycaFPy2UXWT1epCFyadLqUtZiXUdup14Lik65tgH8EUnRuaVuYJQ1P_YIwY_xBMjWUkEhTxyQTVzlZD2BuP0_hrv97-2iwbKcX0MqhMqsGVjDNlCLXYBtNrzdh7x24rAogcxhJfTrtWV3c-VFhjkP3pTyin-3LlMn8qM-yTWspPoVI91nBj61boVCX8pZvGZPsHHabarKYD3GAwMjEhoGxwvyTFc77TCC9NfOXZhA2aFQSjBYDjuBAYWbufGQ7PTGLw2091h6fW4UwnUkQc6mz1Il5GwS92N4aUIlQDM5PX3vujM5pHBHPjwbQ5L-kvlAwANCrQ-ARDxkmvsQRTzfvME5XABINVQ0STXAu47BZHdGnCQM0AErFIvsFCTsE67l9Bt6MKHekBE4_dIVn-DZL_0G00]--></g></svg>