<?xml version="1.0" encoding="us-ascii" standalone="no"?><svg xmlns="http://www.w3.org/2000/svg" xmlns:xlink="http://www.w3.org/1999/xlink" contentStyleType="text/css" height="210px" preserveAspectRatio="none" style="width:389px;height:210px;background:#FFFFFF;" version="1.1" viewBox="0 0 389 210" width="389px" zoomAndPan="magnify"><defs/><g><text fill="#000000" font-family="sans-serif" font-size="14" font-weight="bold" lengthAdjust="spacing" textLength="208" x="7" y="21.9659">Generador de Mapa Arm&#243;nico</text><text fill="#000000" font-family="sans-serif" font-size="12" lengthAdjust="spacing" textLength="40" x="8" y="41.896">T&#243;nica:</text><rect fill="#EEEEEE" height="19.3441" style="stroke:#000000;stroke-width:1.0;" width="23" x="50" y="29.0679"/><text fill="#000000" font-family="sans-serif" font-size="12" lengthAdjust="spacing" textLength="8" x="52" y="43.896">C</text><line style="stroke:#000000;stroke-width:1.0;" x1="62" x2="62" y1="29.0679" y2="48.412"/><polygon fill="#000000" points="65,35.0679,71,35.0679,68,43.412" style="stroke:#000000;stroke-width:1.0;"/><text fill="#000000" font-family="sans-serif" font-size="12" lengthAdjust="spacing" textLength="35" x="8" y="64.2401">Modo:</text><rect fill="#EEEEEE" height="19.3441" style="stroke:#000000;stroke-width:1.0;" width="55" x="50" y="51.412"/><text fill="#000000" font-family="sans-serif" font-size="12" lengthAdjust="spacing" textLength="36" x="52" y="66.2401">Mayor</text><line style="stroke:#000000;stroke-width:1.0;" x1="94" x2="94" y1="51.412" y2="70.7561"/><polygon fill="#000000" points="97,57.412,103,57.412,100,65.7561" style="stroke:#000000;stroke-width:1.0;"/><rect fill="#EEEEEE" height="20.3441" rx="5" ry="5" style="stroke:#000000;stroke-width:2.5;" width="228" x="10.5" y="78.2561"/><text fill="#000000" font-family="sans-serif" font-size="12" lengthAdjust="spacing" textLength="158" x="45.5" y="93.0842">Nueva Progresi&#243;n / Reiniciar</text><rect fill="#EEEEEE" height="20.3441" rx="5" ry="5" style="stroke:#000000;stroke-width:2.5;" width="132" x="245.5" y="78.2561"/><text fill="#000000" font-family="sans-serif" font-size="12" lengthAdjust="spacing" textLength="68" x="277.5" y="93.0842">Volver Atr&#225;s</text><text fill="#000000" font-family="sans-serif" font-size="12" font-weight="bold" lengthAdjust="spacing" textLength="144" x="8" y="117.9283">Progresi&#243;n actual: C &#8594; F</text><text fill="#000000" font-family="sans-serif" font-size="12" lengthAdjust="spacing" textLength="130" x="155" y="117.9283">(antes era C &#8594; F &#8594; G7)</text><line style="stroke:#000000;stroke-width:1.0;" x1="7" x2="286" y1="104.1003" y2="104.1003"/><line style="stroke:#000000;stroke-width:1.0;" x1="7" x2="286" y1="122.4444" y2="122.4444"/><line style="stroke:#000000;stroke-width:1.0;" x1="7" x2="7" y1="104.1003" y2="122.4444"/><line style="stroke:#000000;stroke-width:1.0;" x1="286" x2="286" y1="104.1003" y2="122.4444"/><text fill="#000000" font-family="sans-serif" font-size="14" font-weight="bold" lengthAdjust="spacing" textLength="192" x="8" y="140.4103">Mapa Arm&#243;nico de C Mayor</text><text fill="#000000" font-family="sans-serif" font-size="12" lengthAdjust="spacing" textLength="87" x="14" y="160.3404">De d&#243;nde viene</text><text fill="#000000" font-family="sans-serif" font-size="12" font-weight="bold" lengthAdjust="spacing" textLength="41" x="103" y="160.3404">Acorde</text><text fill="#000000" font-family="sans-serif" font-size="12" lengthAdjust="spacing" textLength="43" x="146" y="160.3404">Funci&#243;n</text><text fill="#000000" font-family="sans-serif" font-size="12" lengthAdjust="spacing" textLength="62" x="251" y="160.3404">A d&#243;nde va</text><text fill="#000000" font-family="sans-serif" font-size="12" lengthAdjust="spacing" textLength="46" x="14" y="178.6845">I, II, V/IV</text><text fill="#000000" font-family="sans-serif" font-size="12" font-weight="bold" lengthAdjust="spacing" textLength="7" x="103" y="178.6845">F</text><text fill="#000000" font-family="sans-serif" font-size="12" lengthAdjust="spacing" textLength="103" x="146" y="178.6845">Subdominante (IV)</text><text fill="#000000" font-family="sans-serif" font-size="12" lengthAdjust="spacing" textLength="61" x="251" y="178.6845">G7 / SubV7</text><line style="stroke:#AAAAAA;stroke-width:1.0;stroke-dasharray:1.0,2.0;" x1="14" x2="102" y1="192.8726" y2="192.8726"/><line style="stroke:#AAAAAA;stroke-width:1.0;stroke-dasharray:1.0,2.0;" x1="103" x2="145" y1="192.8726" y2="192.8726"/><line style="stroke:#AAAAAA;stroke-width:1.0;stroke-dasharray:1.0,2.0;" x1="146" x2="250" y1="192.8726" y2="192.8726"/><line style="stroke:#AAAAAA;stroke-width:1.0;stroke-dasharray:1.0,2.0;" x1="251" x2="314" y1="192.8726" y2="192.8726"/><line style="stroke:#000000;stroke-width:1.0;" x1="8" x2="13" y1="146.5123" y2="146.5123"/><line style="stroke:#000000;stroke-width:1.0;" x1="102" x2="145" y1="183.2005" y2="183.2005"/><line style="stroke:#000000;stroke-width:1.0;" x1="13" x2="102" y1="146.5123" y2="146.5123"/><line style="stroke:#000000;stroke-width:1.0;" x1="145" x2="250" y1="183.2005" y2="183.2005"/><line style="stroke:#000000;stroke-width:1.0;" x1="102" x2="145" y1="146.5123" y2="146.5123"/><line style="stroke:#000000;stroke-width:1.0;" x1="250" x2="314" y1="183.2005" y2="183.2005"/><line style="stroke:#000000;stroke-width:1.0;" x1="145" x2="250" y1="146.5123" y2="146.5123"/><line style="stroke:#000000;stroke-width:1.0;" x1="250" x2="314" y1="146.5123" y2="146.5123"/><line style="stroke:#000000;stroke-width:1.0;" x1="8" x2="13" y1="201.5446" y2="201.5446"/><line style="stroke:#000000;stroke-width:1.0;" x1="13" x2="102" y1="201.5446" y2="201.5446"/><line style="stroke:#000000;stroke-width:1.0;" x1="102" x2="145" y1="201.5446" y2="201.5446"/><line style="stroke:#000000;stroke-width:1.0;" x1="8" x2="13" y1="164.8564" y2="164.8564"/><line style="stroke:#000000;stroke-width:1.0;" x1="145" x2="250" y1="201.5446" y2="201.5446"/><line style="stroke:#000000;stroke-width:1.0;" x1="13" x2="102" y1="164.8564" y2="164.8564"/><line style="stroke:#000000;stroke-width:1.0;" x1="250" x2="314" y1="201.5446" y2="201.5446"/><line style="stroke:#000000;stroke-width:1.0;" x1="102" x2="145" y1="164.8564" y2="164.8564"/><line style="stroke:#000000;stroke-width:1.0;" x1="145" x2="250" y1="164.8564" y2="164.8564"/><line style="stroke:#000000;stroke-width:1.0;" x1="250" x2="314" y1="164.8564" y2="164.8564"/><line style="stroke:#000000;stroke-width:1.0;" x1="8" x2="13" y1="183.2005" y2="183.2005"/><line style="stroke:#000000;stroke-width:1.0;" x1="13" x2="102" y1="183.2005" y2="183.2005"/><line style="stroke:#000000;stroke-width:1.0;" x1="8" x2="8" y1="146.5123" y2="164.8564"/><line style="stroke:#000000;stroke-width:1.0;" x1="102" x2="102" y1="183.2005" y2="201.5446"/><line style="stroke:#000000;stroke-width:1.0;" x1="13" x2="13" y1="146.5123" y2="164.8564"/><line style="stroke:#000000;stroke-width:1.0;" x1="145" x2="145" y1="183.2005" y2="201.5446"/><line style="stroke:#000000;stroke-width:1.0;" x1="102" x2="102" y1="146.5123" y2="164.8564"/><line style="stroke:#000000;stroke-width:1.0;" x1="250" x2="250" y1="183.2005" y2="201.5446"/><line style="stroke:#000000;stroke-width:1.0;" x1="314" x2="314" y1="183.2005" y2="201.5446"/><line style="stroke:#000000;stroke-width:1.0;" x1="145" x2="145" y1="146.5123" y2="164.8564"/><line style="stroke:#000000;stroke-width:1.0;" x1="250" x2="250" y1="146.5123" y2="164.8564"/><line style="stroke:#000000;stroke-width:1.0;" x1="314" x2="314" y1="146.5123" y2="164.8564"/><line style="stroke:#000000;stroke-width:1.0;" x1="8" x2="8" y1="164.8564" y2="183.2005"/><line style="stroke:#000000;stroke-width:1.0;" x1="13" x2="13" y1="164.8564" y2="183.2005"/><line style="stroke:#000000;stroke-width:1.0;" x1="102" x2="102" y1="164.8564" y2="183.2005"/><line style="stroke:#000000;stroke-width:1.0;" x1="145" x2="145" y1="164.8564" y2="183.2005"/><line style="stroke:#000000;stroke-width:1.0;" x1="250" x2="250" y1="164.8564" y2="183.2005"/><line style="stroke:#000000;stroke-width:1.0;" x1="314" x2="314" y1="164.8564" y2="183.2005"/><line style="stroke:#000000;stroke-width:1.0;" x1="8" x2="8" y1="183.2005" y2="201.5446"/><line style="stroke:#000000;stroke-width:1.0;" x1="13" x2="13" y1="183.2005" y2="201.5446"/><line style="stroke:#000000;stroke-width:1.0;" x1="7" x2="315" y1="124.4444" y2="124.4444"/><line style="stroke:#000000;stroke-width:1.0;" x1="7" x2="315" y1="202.5446" y2="202.5446"/><line style="stroke:#000000;stroke-width:1.0;" x1="7" x2="7" y1="124.4444" y2="145.5123"/><line style="stroke:#000000;stroke-width:1.0;" x1="315" x2="315" y1="145.5123" y2="202.5446"/><line style="stroke:#000000;stroke-width:1.0;" x1="315" x2="315" y1="124.4444" y2="145.5123"/><line style="stroke:#000000;stroke-width:1.0;" x1="7" x2="7" y1="145.5123" y2="202.5446"/><rect fill="none" height="78.1003" style="stroke:#000000;stroke-width:1.0;" width="15" x="319" y="124.4444"/><line style="stroke:#000000;stroke-width:1.0;" x1="319" x2="334" y1="136.4444" y2="136.4444"/><line style="stroke:#000000;stroke-width:1.0;" x1="319" x2="334" y1="190.5446" y2="190.5446"/><path d="M326,128.4444 L329,133.4444 L323,133.4444 L326,128.4444 " fill="#000000" style="stroke:#000000;stroke-width:1.0;"/><path d="M326,199.5446 L329,194.5446 L323,194.5446 L326,199.5446 " fill="#000000" style="stroke:#000000;stroke-width:1.0;"/><line style="stroke:#000000;stroke-width:1.0;" x1="6" x2="382" y1="6" y2="6"/><line style="stroke:#000000;stroke-width:1.0;" x1="6" x2="382" y1="203.5446" y2="203.5446"/><line style="stroke:#000000;stroke-width:1.0;" x1="6" x2="6" y1="6" y2="27.0679"/><line style="stroke:#000000;stroke-width:1.0;" x1="382" x2="382" y1="27.0679" y2="73.7561"/><line style="stroke:#000000;stroke-width:1.0;" x1="382" x2="382" y1="6" y2="27.0679"/><line style="stroke:#000000;stroke-width:1.0;" x1="6" x2="6" y1="123.4444" y2="203.5446"/><line style="stroke:#000000;stroke-width:1.0;" x1="6" x2="6" y1="103.1003" y2="123.4444"/><line style="stroke:#000000;stroke-width:1.0;" x1="382" x2="382" y1="123.4444" y2="203.5446"/><line style="stroke:#000000;stroke-width:1.0;" x1="6" x2="6" y1="73.7561" y2="103.1003"/><line style="stroke:#000000;stroke-width:1.0;" x1="382" x2="382" y1="103.1003" y2="123.4444"/><line style="stroke:#000000;stroke-width:1.0;" x1="6" x2="6" y1="27.0679" y2="73.7561"/><line style="stroke:#000000;stroke-width:1.0;" x1="382" x2="382" y1="73.7561" y2="103.1003"/><rect fill="none" height="78.1003" style="stroke:#000000;stroke-width:1.0;" width="15" x="319" y="124.4444"/><line style="stroke:#000000;stroke-width:1.0;" x1="319" x2="334" y1="136.4444" y2="136.4444"/><line style="stroke:#000000;stroke-width:1.0;" x1="319" x2="334" y1="190.5446" y2="190.5446"/><path d="M326,128.4444 L329,133.4444 L323,133.4444 L326,128.4444 " fill="#000000" style="stroke:#000000;stroke-width:1.0;"/><path d="M326,199.5446 L329,194.5446 L323,194.5446 L326,199.5446 " fill="#000000" style="stroke:#000000;stroke-width:1.0;"/><!--SRC=[LL9jRjf04Fs_ftXI_u3RE8IIKbcA5CgN83X5WRW_eaHQx0bT2NQZzHef0lxs0Br1pv0Zv2OzISV6fB4bZxLltxoPUPxBr4dhKhboiEIiYIaXszTJQvQMKcNq3sNfqSerfM8hWEr73i351OQaoSh4M2I4K3v9TEpwzKMhs8Y2ioqYC2z06M27X-v32OOcCG5_6Glbix47V5_DlBlEQ2DnR8PrS8eRKYodfBtdv3iWCgiDMNISVVsJ0lSLeG-bakUz5v6no-GgG1T_V_t6mFDGazfH2Xxe21PnsAvNv6QZKe_dhuwScz15COeeEM_50PzRxH4IvZ9lezWwHZol4nkR4DVVOP3fk6XkXyuRKLOKHfymuZSw7KKehFEyl7SS3hDiaPYrqlaag8sYEcF3DXl65r6x8kJxFjuz5U1mA6APinV7k1Tin2Nf9DyN8QOhhdKRJi3-vwk2Cx_PQBRypxNvpmm3Mk3i7Cr6q6e4ZNDq-tFartLH6qudcoPIazcOJL6fisgHELQeYx7a7twJQQVM5E3x4-bnx-e8eAytoXgz9kt4E0h_4xwqJhufXndPV1UYKFJeKMQyr7qTcqJfPO3R-U3agvX8lSpaahLveRk6TUrpWFxi7m00]--></g></svg>