<?xml version="1.0" encoding="us-ascii" standalone="no"?><svg xmlns="http://www.w3.org/2000/svg" xmlns:xlink="http://www.w3.org/1999/xlink" contentStyleType="text/css" height="785px" preserveAspectRatio="none" style="width:388px;height:785px;background:#FFFFFF;" version="1.1" viewBox="0 0 388 785" width="388px" zoomAndPan="magnify"><defs/><g><g id="PROGRESION_EN_CONSTRUCCION_1"><rect fill="#F1F1F1" height="50" rx="12.5" ry="12.5" style="stroke:#181818;stroke-width:0.5;" width="252" x="65" y="7"/><line style="stroke:#181818;stroke-width:0.5;" x1="65" x2="317" y1="36.0679" y2="36.0679"/><text fill="#000000" font-family="sans-serif" font-size="14" lengthAdjust="spacing" textLength="232" x="75" y="26.9659">PROGRESION_EN_CONSTRUCCION</text></g><path d="M19.5,117 L362.5,117 A12.5,12.5 0 0 1 375,129.5 L375,146.0679 L7,146.0679 L7,129.5 A12.5,12.5 0 0 1 19.5,117 " fill="#F1F1F1" style="stroke:#F1F1F1;stroke-width:1.0;"/><rect fill="none" height="552.0679" rx="12.5" ry="12.5" style="stroke:#181818;stroke-width:0.5;" width="368" x="7" y="117"/><line style="stroke:#181818;stroke-width:0.5;" x1="7" x2="375" y1="146.0679" y2="146.0679"/><text fill="#000000" font-family="sans-serif" font-size="14" lengthAdjust="spacing" textLength="169" x="106.5" y="136.9659">retrocederEnProgresi&#243;n()</text><g id="retrocederEnProgresion.SolicitandoRetroceso"><rect fill="#F1F1F1" height="50" rx="12.5" ry="12.5" style="stroke:#181818;stroke-width:0.5;" width="50" x="19" y="250.0679"/><line style="stroke:#181818;stroke-width:0.5;" x1="19" x2="69" y1="279.1358" y2="279.1358"/><text fill="#000000" font-family="sans-serif" font-size="14" lengthAdjust="spacing" textLength="4" x="42" y="270.0339">&#160;</text></g><g id="retrocederEnProgresion.ProgresionRetrocedida"><rect fill="#F1F1F1" height="50" rx="12.5" ry="12.5" style="stroke:#181818;stroke-width:0.5;" width="50" x="19" y="550.0679"/><line style="stroke:#181818;stroke-width:0.5;" x1="19" x2="69" y1="579.1358" y2="579.1358"/><text fill="#000000" font-family="sans-serif" font-size="14" lengthAdjust="spacing" textLength="4" x="42" y="570.0339">&#160;</text></g><ellipse cx="44" cy="167.0679" fill="#222222" rx="10" ry="10" style="stroke:#222222;stroke-width:1.0;"/><ellipse cx="44" cy="648.0679" fill="none" rx="11" ry="11" style="stroke:#222222;stroke-width:1.0;"/><ellipse cx="44" cy="648.0679" fill="#222222" rx="6" ry="6" style="stroke:#222222;stroke-width:1.0;"/><!--link *start*retrocederEnProgresion to SolicitandoRetroceso--><g id="link_*start*retrocederEnProgresion_SolicitandoRetroceso"><path d="M44,177.1079 C44,193.0279 44,220.5779 44,243.7079 " fill="none" id="*start*retrocederEnProgresion-to-SolicitandoRetroceso" style="stroke:#008000;stroke-width:1.0;"/><polygon fill="#008000" points="44,249.7079,48,240.7079,44,244.7079,40,240.7079,44,249.7079" style="stroke:#008000;stroke-width:1.0;"/><path d="M49,200.0679 L49,227.0679 L313,227.0679 L313,210.0679 L303,200.0679 L49,200.0679 " fill="#FEFFDD" style="stroke:#181818;stroke-width:0.5;"/><path d="M303,200.0679 L303,210.0679 L313,210.0679 L303,200.0679 " fill="#FEFFDD" style="stroke:#181818;stroke-width:0.5;"/><text fill="#000000" font-family="sans-serif" font-size="13" font-weight="bold" lengthAdjust="spacing" textLength="46" x="55" y="218.9649">M&#250;sico</text><text fill="#000000" font-family="sans-serif" font-size="13" lengthAdjust="spacing" textLength="194" x="104" y="218.9649">solicita retroceder en progresi&#243;n</text></g><!--link SolicitandoRetroceso to ProgresionRetrocedida--><g id="link_SolicitandoRetroceso_ProgresionRetrocedida"><path d="M44,300.1979 C44,356.0379 44,487.6479 44,543.7079 " fill="none" id="SolicitandoRetroceso-to-ProgresionRetrocedida" style="stroke:#008000;stroke-width:1.0;"/><polygon fill="#008000" points="44,549.7079,48,540.7079,44,544.7079,40,540.7079,44,549.7079" style="stroke:#008000;stroke-width:1.0;"/><path d="M49,323.0679 L49,527.0679 L366,527.0679 L366,333.0679 L356,323.0679 L49,323.0679 " fill="#FEFFDD" style="stroke:#181818;stroke-width:0.5;"/><path d="M356,323.0679 L356,333.0679 L366,333.0679 L356,323.0679 " fill="#FEFFDD" style="stroke:#181818;stroke-width:0.5;"/><text fill="#000000" font-family="sans-serif" font-size="13" font-weight="bold" lengthAdjust="spacing" textLength="52" x="55" y="341.9649">Sistema</text><text fill="#000000" font-family="sans-serif" font-size="13" lengthAdjust="spacing" textLength="192" x="110" y="341.9649">presenta progresi&#243;n actualizada</text><text fill="#000000" font-family="sans-serif" font-size="13" lengthAdjust="spacing" textLength="296" x="55" y="359.6709">&#8226; Elimina &#250;ltimo acorde del historial de progresi&#243;n</text><text fill="#000000" font-family="sans-serif" font-size="13" lengthAdjust="spacing" textLength="279" x="55" y="377.377">&#8226; Establece acorde anterior como acorde actual</text><text fill="#000000" font-family="sans-serif" font-size="13" lengthAdjust="spacing" textLength="183" x="55" y="395.083">&#8226; Presenta historial actualizado</text><text fill="#000000" font-family="sans-serif" font-size="13" lengthAdjust="spacing" textLength="280" x="55" y="412.789">&#8226; Presenta mapa arm&#243;nico desde acorde actual</text><text fill="#000000" font-family="sans-serif" font-size="13" lengthAdjust="spacing" textLength="3" x="55" y="430.495">&#160;</text><text fill="#000000" font-family="sans-serif" font-size="13" font-weight="bold" lengthAdjust="spacing" textLength="52" x="55" y="448.201">Sistema</text><text fill="#000000" font-family="sans-serif" font-size="13" lengthAdjust="spacing" textLength="99" x="110" y="448.201">permite solicitar:</text><text fill="#000000" font-family="sans-serif" font-size="13" lengthAdjust="spacing" textLength="267" x="55" y="465.907">&#8226; extender progresi&#243;n hacia siguiente acorde</text><text fill="#000000" font-family="sans-serif" font-size="13" lengthAdjust="spacing" textLength="282" x="55" y="483.6131">&#8226; retroceder en progresi&#243;n (si historial no vac&#237;o)</text><text fill="#000000" font-family="sans-serif" font-size="13" lengthAdjust="spacing" textLength="160" x="55" y="501.3191">&#8226; modificar modo de escala</text><text fill="#000000" font-family="sans-serif" font-size="13" lengthAdjust="spacing" textLength="124" x="55" y="519.0251">&#8226; reiniciar progresi&#243;n</text></g><!--link ProgresionRetrocedida to *end*retrocederEnProgresion--><g id="link_ProgresionRetrocedida_*end*retrocederEnProgresion"><path d="M44,600.1079 C44,612.6579 44,621.3479 44,630.9179 " fill="none" id="ProgresionRetrocedida-to-*end*retrocederEnProgresion" style="stroke:#008000;stroke-width:1.0;"/><polygon fill="#008000" points="44,636.9179,48,627.9179,44,631.9179,40,627.9179,44,636.9179" style="stroke:#008000;stroke-width:1.0;"/></g><g id="PROGRESION_EN_CONSTRUCCION_2"><rect fill="#F1F1F1" height="50" rx="12.5" ry="12.5" style="stroke:#181818;stroke-width:0.5;" width="252" x="65" y="729"/><line style="stroke:#181818;stroke-width:0.5;" x1="65" x2="317" y1="758.0679" y2="758.0679"/><text fill="#000000" font-family="sans-serif" font-size="14" lengthAdjust="spacing" textLength="232" x="75" y="748.9659">PROGRESION_EN_CONSTRUCCION</text></g><!--link PROGRESION_EN_CONSTRUCCION_1 to retrocederEnProgresion--><g id="link_PROGRESION_EN_CONSTRUCCION_1_retrocederEnProgresion"><path d="M191,57.11 C191,71.97 191,86.75 191,110.76 " fill="none" id="PROGRESION_EN_CONSTRUCCION_1-to-retrocederEnProgresion" style="stroke:#008000;stroke-width:1.0;"/><polygon fill="#008000" points="191,116.76,195,107.76,191,111.76,187,107.76,191,116.76" style="stroke:#008000;stroke-width:1.0;"/></g><!--link retrocederEnProgresion to PROGRESION_EN_CONSTRUCCION_2--><g id="link_retrocederEnProgresion_PROGRESION_EN_CONSTRUCCION_2"><path d="M191,669.28 C191,693.31 191,708.1 191,722.96 " fill="none" id="retrocederEnProgresion-to-PROGRESION_EN_CONSTRUCCION_2" style="stroke:#008000;stroke-width:1.0;"/><polygon fill="#008000" points="191,728.96,195,719.96,191,723.96,187,719.96,191,728.96" style="stroke:#008000;stroke-width:1.0;"/></g><!--SRC=[ZLFDJXin4BxlKupI2o2XgZrMA9Segdfe4YNqX12Qs0ECy7fMjgcW5HBFqdjFtBZcJNWI9hlPxARPXQulQtk-d_bnl65VOC0S77jAzmL18Uv-lScoc30HpERJh_FnujjqSZ6UN8ocayNf_CTejDv_0emmw0yOP6-2Zyy-N0KYVtuyX40fY25BOUndGVGyilZQG_TjgTvrjNho1uS3-9rbe5z5CT2byGjnR3YXjpAla57sengDJP1bYnNRsT7vZl5UGY_AfoQrbZVbmSbo-7tr7Dd8oSVb4E86s4eEo4FHv52YoDkIgbBlKjknq-sypy-2Ow8SIp-5miYhdvO3G9DkqV4lt92yFFw1iUESFSBgsINEHMCaM09B3gwLJmAZqzrU9YLMoxnqPAX6eKyKM08OQQWgrIreLZjhw1jViX-MOu608LTXBRPQYPR-eUui08MSjKPrOyANBJNT9Us3DgXTcsiqZ13vwfPLjbROOdhR2WUHMwbuWPzeLd_bS0lDnV8b6mphltK2GD6WmnOtQsgCuPrnwPo6dNdHSSwoX_zuwv_VVUizZtHdEj_Wpru1]--></g></svg>