<?xml version="1.0" encoding="us-ascii" standalone="no"?><svg xmlns="http://www.w3.org/2000/svg" xmlns:xlink="http://www.w3.org/1999/xlink" contentStyleType="text/css" height="779px" preserveAspectRatio="none" style="width:470px;height:779px;background:#FFFFFF;" version="1.1" viewBox="0 0 470 779" width="470px" zoomAndPan="magnify"><defs/><g><!--cluster Sistema Gesti?n Tareas--><g id="cluster_Sistema Gesti&#243;n Tareas"><rect fill="none" height="766" rx="2.5" ry="2.5" style="stroke:#181818;stroke-width:1.0;" width="221" x="243" y="7"/><text fill="#000000" font-family="sans-serif" font-size="14" font-weight="bold" lengthAdjust="spacing" textLength="161" x="273" y="23.9659">Sistema Gesti&#243;n Tareas</text></g><g id="elem_UC1"><ellipse cx="353.4332" cy="445.025" fill="#F1F1F1" rx="69.9332" ry="17.025" style="stroke:#181818;stroke-width:0.5;"/><text fill="#000000" font-family="sans-serif" font-size="14" lengthAdjust="spacing" textLength="79" x="310.9332" y="449.758">Crear Tarea</text></g><g id="elem_UC2"><ellipse cx="353.2761" cy="516.1552" fill="#F1F1F1" rx="81.2761" ry="18.6552" style="stroke:#181818;stroke-width:0.5;"/><text fill="#000000" font-family="sans-serif" font-size="14" lengthAdjust="spacing" textLength="107" x="296.7761" y="520.8882">Consultar Tarea</text></g><g id="elem_UC3"><ellipse cx="353.7218" cy="587.2444" fill="#F1F1F1" rx="76.7218" ry="17.7444" style="stroke:#181818;stroke-width:0.5;"/><text fill="#000000" font-family="sans-serif" font-size="14" lengthAdjust="spacing" textLength="94" x="303.7218" y="591.9773">Aceptar Tarea</text></g><g id="elem_UC4"><ellipse cx="353.3387" cy="659.1677" fill="#F1F1F1" rx="83.8387" ry="19.1677" style="stroke:#181818;stroke-width:0.5;"/><text fill="#000000" font-family="sans-serif" font-size="14" lengthAdjust="spacing" textLength="114" x="293.3387" y="663.9007">Solicitar Revisi&#243;n</text></g><g id="elem_UC5"><ellipse cx="353.711" cy="734.8422" fill="#F1F1F1" rx="94.711" ry="21.3422" style="stroke:#181818;stroke-width:0.5;"/><text fill="#000000" font-family="sans-serif" font-size="14" lengthAdjust="spacing" textLength="142" x="279.711" y="739.5752">Consultar Mis Tareas</text></g><g id="elem_UC6"><ellipse cx="353.7218" cy="63.2444" fill="#F1F1F1" rx="76.7218" ry="17.7444" style="stroke:#181818;stroke-width:0.5;"/><text fill="#000000" font-family="sans-serif" font-size="14" lengthAdjust="spacing" textLength="94" x="303.7218" y="67.9773">Asignar Tarea</text></g><g id="elem_UC7"><ellipse cx="353.7473" cy="133.9495" fill="#F1F1F1" rx="77.7473" ry="17.9495" style="stroke:#181818;stroke-width:0.5;"/><text fill="#000000" font-family="sans-serif" font-size="14" lengthAdjust="spacing" textLength="97" x="302.2473" y="138.6824">Aprobar Tarea</text></g><g id="elem_UC8"><ellipse cx="353.7004" cy="205.9401" fill="#F1F1F1" rx="80.2004" ry="18.4401" style="stroke:#181818;stroke-width:0.5;"/><text fill="#000000" font-family="sans-serif" font-size="14" lengthAdjust="spacing" textLength="104" x="298.7004" y="210.673">Rechazar Tarea</text></g><g id="elem_UC9"><ellipse cx="353.639" cy="278.2278" fill="#F1F1F1" rx="79.139" ry="18.2278" style="stroke:#181818;stroke-width:0.5;"/><text fill="#000000" font-family="sans-serif" font-size="14" lengthAdjust="spacing" textLength="101" x="300.139" y="282.9608">Cancelar Tarea</text></g><g id="elem_UC10"><ellipse cx="353.5044" cy="361.7638" fill="#F1F1F1" rx="89.5044" ry="30.2638" style="stroke:#181818;stroke-width:0.5;"/><text fill="#000000" font-family="sans-serif" font-size="14" lengthAdjust="spacing" textLength="109" x="296.0044" y="356.9628">Consultar Todas</text><text fill="#000000" font-family="sans-serif" font-size="14" lengthAdjust="spacing" textLength="68" x="316.5044" y="376.0307">las Tareas</text></g><!--entity member--><g id="elem_member"><ellipse cx="36.5" cy="521" fill="#F1F1F1" rx="8" ry="8" style="stroke:#181818;stroke-width:0.5;"/><path d="M36.5,529 L36.5,556 M23.5,537 L49.5,537 M36.5,556 L23.5,571 M36.5,556 L49.5,571 " fill="none" style="stroke:#181818;stroke-width:0.5;"/><text fill="#000000" font-family="sans-serif" font-size="14" lengthAdjust="spacing" textLength="61" x="6" y="587.4659">Miembro</text></g><!--entity supervisor--><g id="elem_supervisor"><ellipse cx="163" cy="211" fill="#F1F1F1" rx="8" ry="8" style="stroke:#181818;stroke-width:0.5;"/><path d="M163,219 L163,246 M150,227 L176,227 M163,246 L150,261 M163,246 L176,261 " fill="none" style="stroke:#181818;stroke-width:0.5;"/><text fill="#000000" font-family="sans-serif" font-size="14" lengthAdjust="spacing" textLength="72" x="127" y="277.4659">Supervisor</text></g><!--reverse link member to supervisor--><g id="link_member_supervisor"><path d="M60.1007,495.7177 C83.9707,436.3077 122.08,341.39 146,281.83 " fill="none" id="member-backto-supervisor" style="stroke:#181818;stroke-width:1.0;"/><polygon fill="none" points="53.39,512.42,65.6681,497.9546,54.5333,493.4808,53.39,512.42" style="stroke:#181818;stroke-width:1.0;"/></g><!--link member to UC1--><g id="link_member_UC1"><path d="M67.28,537.04 C84.48,528.74 106.66,518.59 127,511 C186.81,488.68 251.9615,470.4938 298.0815,458.5538 " fill="none" id="member-to-UC1" style="stroke:#181818;stroke-width:1.0;"/><polygon fill="#181818" points="303.89,457.05,294.1747,455.4333,299.0496,458.3031,296.1798,463.178,303.89,457.05" style="stroke:#181818;stroke-width:1.0;"/></g><!--link member to UC2--><g id="link_member_UC2"><path d="M67.31,547.8 C84.7,545.4 107.08,542.4 127,540 C177.52,533.93 228.5412,528.4811 272.5912,523.9711 " fill="none" id="member-to-UC2" style="stroke:#181818;stroke-width:1.0;"/><polygon fill="#181818" points="278.56,523.36,269.1994,520.2975,273.586,523.8693,270.0142,528.2559,278.56,523.36" style="stroke:#181818;stroke-width:1.0;"/></g><!--link member to UC3--><g id="link_member_UC3"><path d="M67.13,555.29 C116.53,560.78 210.9567,571.2778 278.4967,578.7778 " fill="none" id="member-to-UC3" style="stroke:#181818;stroke-width:1.0;"/><polygon fill="#181818" points="284.46,579.44,275.9564,574.4711,279.4905,578.8882,275.0735,582.4223,284.46,579.44" style="stroke:#181818;stroke-width:1.0;"/></g><!--link member to UC4--><g id="link_member_UC4"><path d="M67.17,562.89 C105.7,576.94 175.14,601.98 235,622 C257.21,629.43 276.1922,635.4835 297.1922,642.0335 " fill="none" id="member-to-UC4" style="stroke:#181818;stroke-width:1.0;"/><polygon fill="#181818" points="302.92,643.82,295.5193,637.3216,298.1468,642.3312,293.1372,644.9588,302.92,643.82" style="stroke:#181818;stroke-width:1.0;"/></g><!--link member to UC5--><g id="link_member_UC5"><path d="M67.06,577.9 C104.1,609.27 170.58,661.97 235,695 C253.12,704.29 268.171,710.2934 287.151,716.5434 " fill="none" id="member-to-UC5" style="stroke:#181818;stroke-width:1.0;"/><polygon fill="#181818" points="292.85,718.42,285.5526,711.8057,288.1009,716.8561,283.0505,719.4044,292.85,718.42" style="stroke:#181818;stroke-width:1.0;"/></g><!--link supervisor to UC6--><g id="link_supervisor_UC6"><path d="M174.01,202.25 C184.17,169.77 203.05,124.97 235,98 C249.96,85.37 263.5664,78.8968 282.2564,73.7368 " fill="none" id="supervisor-to-UC6" style="stroke:#181818;stroke-width:1.0;"/><polygon fill="#181818" points="288.04,72.14,278.3,70.6794,283.2203,73.4706,280.4291,78.3909,288.04,72.14" style="stroke:#181818;stroke-width:1.0;"/></g><!--link supervisor to UC7--><g id="link_supervisor_UC7"><path d="M196.36,202.27 C207.57,190.53 220.89,178.55 235,170 C252.97,159.11 268.7333,152.8916 288.4333,147.3616 " fill="none" id="supervisor-to-UC7" style="stroke:#181818;stroke-width:1.0;"/><polygon fill="#181818" points="294.21,145.74,284.4639,144.3212,289.3961,147.0913,286.626,152.0235,294.21,145.74" style="stroke:#181818;stroke-width:1.0;"/></g><!--link supervisor to UC8--><g id="link_supervisor_UC8"><path d="M199.01,235.31 C224.89,230.37 254.8766,224.6459 285.4466,218.8059 " fill="none" id="supervisor-to-UC8" style="stroke:#181818;stroke-width:1.0;"/><polygon fill="#181818" points="291.34,217.68,281.7493,215.4398,286.4288,218.6182,283.2504,223.2977,291.34,217.68" style="stroke:#181818;stroke-width:1.0;"/></g><!--link supervisor to UC9--><g id="link_supervisor_UC9"><path d="M199.01,248.69 C225.21,253.69 255.7667,259.5234 286.5767,265.4134 " fill="none" id="supervisor-to-UC9" style="stroke:#181818;stroke-width:1.0;"/><polygon fill="#181818" points="292.47,266.54,284.3812,260.9212,287.5589,265.6011,282.879,268.7789,292.47,266.54" style="stroke:#181818;stroke-width:1.0;"/></g><!--link supervisor to UC10--><g id="link_supervisor_UC10"><path d="M198.4,281.83 C209.32,292.9 221.97,304.27 235,313 C251.43,324.01 265.1879,331.0353 283.3479,338.4753 " fill="none" id="supervisor-to-UC10" style="stroke:#181818;stroke-width:1.0;"/><polygon fill="#181818" points="288.9,340.75,282.0883,333.6366,284.2732,338.8545,279.0554,341.0394,288.9,340.75" style="stroke:#181818;stroke-width:1.0;"/></g><!--SRC=[TP8xRW8n48Pxds94GxLIU4E3X2XIqK3IfHdC09QyzihZJP77ONA0L3a25uinBzaBhloFlndFFxQchGTlmQdTtiD6EP9UMIC4IcyTj1QAohMpBK26Ccp9NKvMTKNkNR5ryP2lKjosKDJ5r_IIA8x5qUmqXMp5dag4PsAl3dy6Nj0HSWi-1OJLXZcoPTWGr6nXVVXX9OEkq26SUufWpIIHGy5vI7UdAh6Vrtad0wpXMliCwgRGJ5AL8xqKMLcjf3f2ImecZysVmVwZ2nUAh_uYEH3tN19N90-_s-Wqn6uJpffajJDPayCCgPnTPyWeHPOaz_YHCUFC0Xf9EcCc3-TgDyXlHcFcjlCaleLeXtbfbE5p4L-VyFGpe2YcyS4IsKrbBvNzL0wo2rRtlsDaXytGg1aQDqEJPYXu-mS0]--></g></svg>