<?xml version="1.0" encoding="us-ascii" standalone="no"?><svg xmlns="http://www.w3.org/2000/svg" xmlns:xlink="http://www.w3.org/1999/xlink" contentStyleType="text/css" height="563px" preserveAspectRatio="none" style="width:363px;height:563px;background:#FFFFFF;" version="1.1" viewBox="0 0 363 563" width="363px" zoomAndPan="magnify"><defs/><g><!--cluster Sistema Gesti?n Tareas--><g id="cluster_Sistema Gesti&#243;n Tareas"><rect fill="none" height="457" rx="2.5" ry="2.5" style="stroke:#181818;stroke-width:1.0;" width="259" x="98" y="100"/><text fill="#000000" font-family="sans-serif" font-size="14" font-weight="bold" lengthAdjust="spacing" textLength="161" x="147" y="116.9659">Sistema Gesti&#243;n Tareas</text></g><!--cluster Gesti?n de Usuarios--><g id="cluster_Gesti&#243;n de Usuarios"><path d="M124.5,146 L264.5,146 A3.75,3.75 0 0 1 267,148.5 L274,171.0679 L330.5,171.0679 A2.5,2.5 0 0 1 333,173.5679 L333,530.5 A2.5,2.5 0 0 1 330.5,533 L124.5,533 A2.5,2.5 0 0 1 122,530.5 L122,148.5 A2.5,2.5 0 0 1 124.5,146 " fill="none" style="stroke:#000000;stroke-width:1.5;"/><line style="stroke:#000000;stroke-width:1.5;" x1="122" x2="274" y1="171.0679" y2="171.0679"/><text fill="#000000" font-family="sans-serif" font-size="14" font-weight="bold" lengthAdjust="spacing" textLength="139" x="126" y="162.9659">Gesti&#243;n de Usuarios</text></g><g id="elem_UCU1"><ellipse cx="227.3836" cy="202.1767" fill="#F1F1F1" rx="76.3836" ry="17.6767" style="stroke:#181818;stroke-width:0.5;"/><text fill="#000000" font-family="sans-serif" font-size="14" lengthAdjust="spacing" textLength="93" x="177.8836" y="206.9097">Crear Usuario</text></g><g id="elem_UCU2"><ellipse cx="227.4912" cy="272.7982" fill="#F1F1F1" rx="79.4912" ry="18.2982" style="stroke:#181818;stroke-width:0.5;"/><text fill="#000000" font-family="sans-serif" font-size="14" lengthAdjust="spacing" textLength="102" x="173.4912" y="277.5312">Activar Usuario</text></g><g id="elem_UCU3"><ellipse cx="227.5514" cy="346.8103" fill="#F1F1F1" rx="89.5514" ry="20.3103" style="stroke:#181818;stroke-width:0.5;"/><text fill="#000000" font-family="sans-serif" font-size="14" lengthAdjust="spacing" textLength="129" x="160.0514" y="351.5433">Suspender Usuario</text></g><g id="elem_UCU4"><ellipse cx="227.3341" cy="421.9668" fill="#F1F1F1" rx="85.3341" ry="19.4668" style="stroke:#181818;stroke-width:0.5;"/><text fill="#000000" font-family="sans-serif" font-size="14" lengthAdjust="spacing" textLength="118" x="165.3341" y="426.6998">Reactivar Usuario</text></g><g id="elem_UCU5"><ellipse cx="227.3868" cy="497.0774" fill="#F1F1F1" rx="88.3868" ry="20.0774" style="stroke:#181818;stroke-width:0.5;"/><text fill="#000000" font-family="sans-serif" font-size="14" lengthAdjust="spacing" textLength="126" x="161.3868" y="501.8103">Desactivar Usuario</text></g><!--entity member--><g id="elem_member"><ellipse cx="227.5" cy="14" fill="#F1F1F1" rx="8" ry="8" style="stroke:#181818;stroke-width:0.5;"/><path d="M227.5,22 L227.5,49 M214.5,30 L240.5,30 M227.5,49 L214.5,64 M227.5,49 L240.5,64 " fill="none" style="stroke:#181818;stroke-width:0.5;"/><text fill="#000000" font-family="sans-serif" font-size="14" lengthAdjust="spacing" textLength="61" x="197" y="80.4659">Miembro</text></g><!--entity supervisor--><g id="elem_supervisor"><ellipse cx="42" cy="279" fill="#F1F1F1" rx="8" ry="8" style="stroke:#181818;stroke-width:0.5;"/><path d="M42,287 L42,314 M29,295 L55,295 M42,314 L29,329 M42,314 L55,329 " fill="none" style="stroke:#181818;stroke-width:0.5;"/><text fill="#000000" font-family="sans-serif" font-size="14" lengthAdjust="spacing" textLength="72" x="6" y="345.4659">Supervisor</text></g><!--link supervisor to member--><g id="link_supervisor_member"><path d="M50.38,270.22 C57.24,240.33 69.55,199.31 90,168 C118.43,124.46 151.303,96.9063 182.113,75.0763 " fill="none" id="supervisor-to-member" style="stroke:#181818;stroke-width:1.0;"/><polygon fill="none" points="196.8,64.67,178.6442,70.1806,185.5817,79.972,196.8,64.67" style="stroke:#181818;stroke-width:1.0;"/></g><!--link supervisor to UCU1--><g id="link_supervisor_UCU1"><path d="M61.15,270.4 C68.52,258.11 78.14,245.55 90,237 C109.64,222.83 128.6473,215.6661 151.7573,210.6361 " fill="none" id="supervisor-to-UCU1" style="stroke:#181818;stroke-width:1.0;"/><polygon fill="#181818" points="157.62,209.36,147.9752,207.3656,152.7344,210.4234,149.6766,215.1826,157.62,209.36" style="stroke:#181818;stroke-width:1.0;"/></g><!--link supervisor to UCU2--><g id="link_supervisor_UCU2"><path d="M78.38,302.87 C103.38,297.83 131.5985,292.1368 160.7885,286.2468 " fill="none" id="supervisor-to-UCU2" style="stroke:#181818;stroke-width:1.0;"/><polygon fill="#181818" points="166.67,285.06,157.0566,282.9192,161.7688,286.049,158.639,290.7611,166.67,285.06" style="stroke:#181818;stroke-width:1.0;"/></g><!--link supervisor to UCU3--><g id="link_supervisor_UCU3"><path d="M78.38,317.13 C101.4,321.77 126.2585,326.7834 153.7685,332.3334 " fill="none" id="supervisor-to-UCU3" style="stroke:#181818;stroke-width:1.0;"/><polygon fill="#181818" points="159.65,333.52,151.6188,327.8192,154.7487,332.5312,150.0367,335.6612,159.65,333.52" style="stroke:#181818;stroke-width:1.0;"/></g><!--link supervisor to UCU4--><g id="link_supervisor_UCU4"><path d="M60.56,349.8 C67.98,362.67 77.78,375.94 90,385 C108.15,398.45 125.061,405.5472 146.741,410.9972 " fill="none" id="supervisor-to-UCU4" style="stroke:#181818;stroke-width:1.0;"/><polygon fill="#181818" points="152.56,412.46,144.8068,406.3865,147.7109,411.241,142.8564,414.1451,152.56,412.46" style="stroke:#181818;stroke-width:1.0;"/></g><!--link supervisor to UCU5--><g id="link_supervisor_UCU5"><path d="M45.29,349.61 C49.34,383.19 60.35,430.35 90,459 C105.39,473.87 120.2897,481.4575 140.9097,487.0575 " fill="none" id="supervisor-to-UCU5" style="stroke:#181818;stroke-width:1.0;"/><polygon fill="#181818" points="146.7,488.63,139.063,482.411,141.8748,487.3196,136.9663,490.1314,146.7,488.63" style="stroke:#181818;stroke-width:1.0;"/></g><!--SRC=[TP113e9034NtSug6FGiLjYP64rTkH0vGeU94OKWxi55EvH6yc2C6Z1diglF_-qqxLpfPi0PO5sSBkMRAh3QLKfXPmn3iD9L7DW6WGEbQui59cfgurMAuDsLygcyBOHxUbqDGlOTZLLp9fRLOAX6s95O_7nKSa0abW9i2LpLc5omSD_evGIeDiZOZzAv6A4DnuDh5UK3wZT9rElEvbRklzScvJoQDr5JbvB4BdzqJJi-DV7P3yWUEUxXJdVhvmt3vkSNNvXFQOaAB9hHOlG00]--></g></svg>