<?xml version="1.0" encoding="us-ascii" standalone="no"?><svg xmlns="http://www.w3.org/2000/svg" xmlns:xlink="http://www.w3.org/1999/xlink" contentStyleType="text/css" height="1147px" preserveAspectRatio="none" style="width:470px;height:1147px;background:#FFFFFF;" version="1.1" viewBox="0 0 470 1147" width="470px" zoomAndPan="magnify"><defs/><g><!--cluster Sistema Gesti?n Tareas--><g id="cluster_Sistema Gesti&#243;n Tareas"><rect fill="none" height="1134" rx="2.5" ry="2.5" style="stroke:#181818;stroke-width:1.0;" width="221" x="243" y="7"/><text fill="#000000" font-family="sans-serif" font-size="14" font-weight="bold" lengthAdjust="spacing" textLength="161" x="273" y="23.9659">Sistema Gesti&#243;n Tareas</text></g><g id="elem_UC1"><ellipse cx="353.4332" cy="813.025" fill="#F1F1F1" rx="69.9332" ry="17.025" style="stroke:#181818;stroke-width:0.5;"/><text fill="#000000" font-family="sans-serif" font-size="14" lengthAdjust="spacing" textLength="79" x="310.9332" y="817.758">Crear Tarea</text></g><g id="elem_UC2"><ellipse cx="353.2761" cy="884.1552" fill="#F1F1F1" rx="81.2761" ry="18.6552" style="stroke:#181818;stroke-width:0.5;"/><text fill="#000000" font-family="sans-serif" font-size="14" lengthAdjust="spacing" textLength="107" x="296.7761" y="888.8882">Consultar Tarea</text></g><g id="elem_UC3"><ellipse cx="353.7218" cy="955.2444" fill="#F1F1F1" rx="76.7218" ry="17.7444" style="stroke:#181818;stroke-width:0.5;"/><text fill="#000000" font-family="sans-serif" font-size="14" lengthAdjust="spacing" textLength="94" x="303.7218" y="959.9773">Aceptar Tarea</text></g><g id="elem_UC4"><ellipse cx="353.3387" cy="1027.1677" fill="#F1F1F1" rx="83.8387" ry="19.1677" style="stroke:#181818;stroke-width:0.5;"/><text fill="#000000" font-family="sans-serif" font-size="14" lengthAdjust="spacing" textLength="114" x="293.3387" y="1031.9007">Solicitar Revisi&#243;n</text></g><g id="elem_UC5"><ellipse cx="353.711" cy="1102.8422" fill="#F1F1F1" rx="94.711" ry="21.3422" style="stroke:#181818;stroke-width:0.5;"/><text fill="#000000" font-family="sans-serif" font-size="14" lengthAdjust="spacing" textLength="142" x="279.711" y="1107.5752">Consultar Mis Tareas</text></g><g id="elem_UC6"><ellipse cx="353.7218" cy="431.2444" fill="#F1F1F1" rx="76.7218" ry="17.7444" style="stroke:#181818;stroke-width:0.5;"/><text fill="#000000" font-family="sans-serif" font-size="14" lengthAdjust="spacing" textLength="94" x="303.7218" y="435.9773">Asignar Tarea</text></g><g id="elem_UC7"><ellipse cx="353.7473" cy="501.9495" fill="#F1F1F1" rx="77.7473" ry="17.9495" style="stroke:#181818;stroke-width:0.5;"/><text fill="#000000" font-family="sans-serif" font-size="14" lengthAdjust="spacing" textLength="97" x="302.2473" y="506.6824">Aprobar Tarea</text></g><g id="elem_UC8"><ellipse cx="353.7004" cy="573.9401" fill="#F1F1F1" rx="80.2004" ry="18.4401" style="stroke:#181818;stroke-width:0.5;"/><text fill="#000000" font-family="sans-serif" font-size="14" lengthAdjust="spacing" textLength="104" x="298.7004" y="578.673">Rechazar Tarea</text></g><g id="elem_UC9"><ellipse cx="353.639" cy="646.2278" fill="#F1F1F1" rx="79.139" ry="18.2278" style="stroke:#181818;stroke-width:0.5;"/><text fill="#000000" font-family="sans-serif" font-size="14" lengthAdjust="spacing" textLength="101" x="300.139" y="650.9608">Cancelar Tarea</text></g><g id="elem_UC10"><ellipse cx="353.5044" cy="729.7638" fill="#F1F1F1" rx="89.5044" ry="30.2638" style="stroke:#181818;stroke-width:0.5;"/><text fill="#000000" font-family="sans-serif" font-size="14" lengthAdjust="spacing" textLength="109" x="296.0044" y="724.9628">Consultar Todas</text><text fill="#000000" font-family="sans-serif" font-size="14" lengthAdjust="spacing" textLength="68" x="316.5044" y="744.0307">las Tareas</text></g><g id="elem_UCU1"><ellipse cx="353.3836" cy="63.1767" fill="#F1F1F1" rx="76.3836" ry="17.6767" style="stroke:#181818;stroke-width:0.5;"/><text fill="#000000" font-family="sans-serif" font-size="14" lengthAdjust="spacing" textLength="93" x="303.8836" y="67.9097">Crear Usuario</text></g><g id="elem_UCU2"><ellipse cx="353.4912" cy="133.7982" fill="#F1F1F1" rx="79.4912" ry="18.2982" style="stroke:#181818;stroke-width:0.5;"/><text fill="#000000" font-family="sans-serif" font-size="14" lengthAdjust="spacing" textLength="102" x="299.4912" y="138.5312">Activar Usuario</text></g><g id="elem_UCU3"><ellipse cx="353.5514" cy="207.8103" fill="#F1F1F1" rx="89.5514" ry="20.3103" style="stroke:#181818;stroke-width:0.5;"/><text fill="#000000" font-family="sans-serif" font-size="14" lengthAdjust="spacing" textLength="129" x="286.0514" y="212.5433">Suspender Usuario</text></g><g id="elem_UCU4"><ellipse cx="353.3341" cy="282.9668" fill="#F1F1F1" rx="85.3341" ry="19.4668" style="stroke:#181818;stroke-width:0.5;"/><text fill="#000000" font-family="sans-serif" font-size="14" lengthAdjust="spacing" textLength="118" x="291.3341" y="287.6998">Reactivar Usuario</text></g><g id="elem_UCU5"><ellipse cx="353.3868" cy="358.0774" fill="#F1F1F1" rx="88.3868" ry="20.0774" style="stroke:#181818;stroke-width:0.5;"/><text fill="#000000" font-family="sans-serif" font-size="14" lengthAdjust="spacing" textLength="126" x="287.3868" y="362.8103">Desactivar Usuario</text></g><!--entity member--><g id="elem_member"><ellipse cx="36.5" cy="889" fill="#F1F1F1" rx="8" ry="8" style="stroke:#181818;stroke-width:0.5;"/><path d="M36.5,897 L36.5,924 M23.5,905 L49.5,905 M36.5,924 L23.5,939 M36.5,924 L49.5,939 " fill="none" style="stroke:#181818;stroke-width:0.5;"/><text fill="#000000" font-family="sans-serif" font-size="14" lengthAdjust="spacing" textLength="61" x="6" y="955.4659">Miembro</text></g><!--entity supervisor--><g id="elem_supervisor"><ellipse cx="163" cy="400" fill="#F1F1F1" rx="8" ry="8" style="stroke:#181818;stroke-width:0.5;"/><path d="M163,408 L163,435 M150,416 L176,416 M163,435 L150,450 M163,435 L176,450 " fill="none" style="stroke:#181818;stroke-width:0.5;"/><text fill="#000000" font-family="sans-serif" font-size="14" lengthAdjust="spacing" textLength="72" x="127" y="466.4659">Supervisor</text></g><!--reverse link member to supervisor--><g id="link_member_supervisor"><path d="M52.0212,862.9565 C75.3812,771.2065 128.54,562.4 151.91,470.63 " fill="none" id="member-backto-supervisor" style="stroke:#181818;stroke-width:1.0;"/><polygon fill="none" points="47.58,880.4,57.8357,864.4369,46.2067,861.4761,47.58,880.4" style="stroke:#181818;stroke-width:1.0;"/></g><!--link member to UC1--><g id="link_member_UC1"><path d="M67.28,905.04 C84.48,896.74 106.66,886.59 127,879 C186.81,856.68 251.9615,838.4938 298.0815,826.5538 " fill="none" id="member-to-UC1" style="stroke:#181818;stroke-width:1.0;"/><polygon fill="#181818" points="303.89,825.05,294.1747,823.4333,299.0496,826.3031,296.1798,831.178,303.89,825.05" style="stroke:#181818;stroke-width:1.0;"/></g><!--link member to UC2--><g id="link_member_UC2"><path d="M67.31,915.8 C84.7,913.4 107.08,910.4 127,908 C177.52,901.93 228.5412,896.4811 272.5912,891.9711 " fill="none" id="member-to-UC2" style="stroke:#181818;stroke-width:1.0;"/><polygon fill="#181818" points="278.56,891.36,269.1994,888.2975,273.586,891.8693,270.0142,896.2559,278.56,891.36" style="stroke:#181818;stroke-width:1.0;"/></g><!--link member to UC3--><g id="link_member_UC3"><path d="M67.13,923.29 C116.53,928.78 210.9567,939.2778 278.4967,946.7778 " fill="none" id="member-to-UC3" style="stroke:#181818;stroke-width:1.0;"/><polygon fill="#181818" points="284.46,947.44,275.9564,942.4711,279.4905,946.8882,275.0735,950.4223,284.46,947.44" style="stroke:#181818;stroke-width:1.0;"/></g><!--link member to UC4--><g id="link_member_UC4"><path d="M67.17,930.89 C105.7,944.94 175.14,969.98 235,990 C257.21,997.43 276.1922,1003.4835 297.1922,1010.0335 " fill="none" id="member-to-UC4" style="stroke:#181818;stroke-width:1.0;"/><polygon fill="#181818" points="302.92,1011.82,295.5193,1005.3216,298.1468,1010.3312,293.1372,1012.9588,302.92,1011.82" style="stroke:#181818;stroke-width:1.0;"/></g><!--link member to UC5--><g id="link_member_UC5"><path d="M67.06,945.9 C104.1,977.27 170.58,1029.97 235,1063 C253.12,1072.29 268.171,1078.2934 287.151,1084.5434 " fill="none" id="member-to-UC5" style="stroke:#181818;stroke-width:1.0;"/><polygon fill="#181818" points="292.85,1086.42,285.5526,1079.8057,288.1009,1084.8561,283.0505,1087.4044,292.85,1086.42" style="stroke:#181818;stroke-width:1.0;"/></g><!--link supervisor to UC6--><g id="link_supervisor_UC6"><path d="M199.01,431 C220.84,431 243.79,431 270.67,431 " fill="none" id="supervisor-to-UC6" style="stroke:#181818;stroke-width:1.0;"/><polygon fill="#181818" points="276.67,431,267.67,427,271.67,431,267.67,435,276.67,431" style="stroke:#181818;stroke-width:1.0;"/></g><!--link supervisor to UC7--><g id="link_supervisor_UC7"><path d="M199.25,449.77 C210.5,455.38 223.12,461.29 235,466 C256.62,474.58 275.3699,480.6902 296.3899,486.8202 " fill="none" id="supervisor-to-UC7" style="stroke:#181818;stroke-width:1.0;"/><polygon fill="#181818" points="302.15,488.5,294.6298,482.1403,297.3499,487.1002,292.39,489.8204,302.15,488.5" style="stroke:#181818;stroke-width:1.0;"/></g><!--link supervisor to UC8--><g id="link_supervisor_UC8"><path d="M182.2,470.73 C194.28,493.09 212.13,519.87 235,537 C251.01,548.99 265.2315,555.4647 284.1615,561.0047 " fill="none" id="supervisor-to-UC8" style="stroke:#181818;stroke-width:1.0;"/><polygon fill="#181818" points="289.92,562.69,282.4058,556.3231,285.1213,561.2856,280.1588,564.0011,289.92,562.69" style="stroke:#181818;stroke-width:1.0;"/></g><!--link supervisor to UC9--><g id="link_supervisor_UC9"><path d="M169.59,470.82 C177.34,511.35 195.2,573.27 235,610 C249.03,622.95 261.8602,629.5592 280.0902,634.8792 " fill="none" id="supervisor-to-UC9" style="stroke:#181818;stroke-width:1.0;"/><polygon fill="#181818" points="285.85,636.56,278.3309,630.1989,281.0502,635.1593,276.0898,637.8786,285.85,636.56" style="stroke:#181818;stroke-width:1.0;"/></g><!--link supervisor to UC10--><g id="link_supervisor_UC10"><path d="M164.96,470.67 C168.33,524.64 181.97,621.29 235,681 C247.25,694.8 258.4964,702.4669 275.5164,709.6869 " fill="none" id="supervisor-to-UC10" style="stroke:#181818;stroke-width:1.0;"/><polygon fill="#181818" points="281.04,712.03,274.3167,704.8329,276.437,710.0774,271.1926,712.1977,281.04,712.03" style="stroke:#181818;stroke-width:1.0;"/></g><!--link supervisor to UCU1--><g id="link_supervisor_UCU1"><path d="M167.42,391.41 C175.01,312.71 195.75,140.5 235,98 C247.85,84.08 260.1957,77.2403 278.3657,72.1103 " fill="none" id="supervisor-to-UCU1" style="stroke:#181818;stroke-width:1.0;"/><polygon fill="#181818" points="284.14,70.48,274.3917,69.0759,279.3281,71.8386,276.5654,76.7749,284.14,70.48" style="stroke:#181818;stroke-width:1.0;"/></g><!--link supervisor to UCU2--><g id="link_supervisor_UCU2"><path d="M163.52,391.23 C165.04,334.5 176.35,230.54 235,170 C247.92,156.67 259.8726,149.9626 277.6226,144.6426 " fill="none" id="supervisor-to-UCU2" style="stroke:#181818;stroke-width:1.0;"/><polygon fill="#181818" points="283.37,142.92,273.6005,141.6723,278.5805,144.3555,275.8973,149.3355,283.37,142.92" style="stroke:#181818;stroke-width:1.0;"/></g><!--link supervisor to UCU3--><g id="link_supervisor_UCU3"><path d="M169.12,391.15 C176.54,349.42 194.17,284.69 235,246 C247.68,233.98 258.5162,227.682 275.1362,222.062 " fill="none" id="supervisor-to-UCU3" style="stroke:#181818;stroke-width:1.0;"/><polygon fill="#181818" points="280.82,220.14,271.0129,219.2337,276.0835,221.7416,273.5756,226.8122,280.82,220.14" style="stroke:#181818;stroke-width:1.0;"/></g><!--link supervisor to UCU4--><g id="link_supervisor_UCU4"><path d="M180.83,391.29 C192.76,367.51 210.93,338.43 235,320 C249.94,308.56 262.7644,302.3714 280.6744,296.8714 " fill="none" id="supervisor-to-UCU4" style="stroke:#181818;stroke-width:1.0;"/><polygon fill="#181818" points="286.41,295.11,276.6323,293.9283,281.6303,296.5778,278.9808,301.5758,286.41,295.11" style="stroke:#181818;stroke-width:1.0;"/></g><!--link supervisor to UCU5--><g id="link_supervisor_UCU5"><path d="M199.29,412.34 C210.55,406.74 223.16,400.8 235,396 C255.36,387.74 272.5347,381.7947 292.6647,375.4847 " fill="none" id="supervisor-to-UCU5" style="stroke:#181818;stroke-width:1.0;"/><polygon fill="#181818" points="298.39,373.69,288.6056,372.5651,293.6189,375.1856,290.9985,380.1989,298.39,373.69" style="stroke:#181818;stroke-width:1.0;"/></g><!--SRC=[TP8xRiCm38PtdKB8Rg29xJoM04KATCgID5iNHc4J0OvaY7A6FaxL8_HYbPr7Ayhn9Fxy9FucMU6RbzvAf_S7BtVQeVBQ6Y50UUlaOAdnk7Ls887aCHpHNJFhfaPtqcHTbwHRAFwECckop_drecWV1xElCDpMvF48yXd9wvzl8r_08T10VWWPlePG0GLk4LHtJdPbDeiX0woXfl8C6iNGeyAQ8tcCh6sbbMwX5GRlhQSBMDmhkDHqizsHfM1bIUyDApjcIEtibY6J65cXEi0xOwRC51Y55MDcTpjbTq2lfWBcV_WW-hg_eGQSjXTeC-IzzVgKKcm2wuPgD3jCk9p_BFI_nwRmX7G7BCMN4EUDarasxpOc2aTncCTX4OTXfF_NkTF6gJH9fMagpLAfRNaYXXQdsgX7otkqeaShnIy0]--></g></svg>