<?xml version="1.0" encoding="us-ascii" standalone="no"?><svg xmlns="http://www.w3.org/2000/svg" xmlns:xlink="http://www.w3.org/1999/xlink" contentStyleType="text/css" height="1034px" preserveAspectRatio="none" style="width:893px;height:1034px;background:#FFFFFF;" version="1.1" viewBox="0 0 893 1034" width="893px" zoomAndPan="magnify"><defs/><g><ellipse cx="496.72" cy="16" fill="#222222" rx="10" ry="10" style="stroke:#222222;stroke-width:1.0;"/><g id="Nueva"><rect fill="#F1F1F1" height="50" rx="12.5" ry="12.5" style="stroke:#181818;stroke-width:0.5;" width="63" x="465.22" y="123"/><line style="stroke:#181818;stroke-width:0.5;" x1="465.22" x2="528.22" y1="152.0679" y2="152.0679"/><text fill="#000000" font-family="sans-serif" font-size="14" lengthAdjust="spacing" textLength="43" x="475.22" y="142.9659">Nueva</text></g><g id="EnEdicion"><rect fill="#F1F1F1" height="50" rx="12.5" ry="12.5" style="stroke:#181818;stroke-width:0.5;" width="86" x="453.72" y="288"/><line style="stroke:#181818;stroke-width:0.5;" x1="453.72" x2="539.72" y1="317.0679" y2="317.0679"/><text fill="#000000" font-family="sans-serif" font-size="14" lengthAdjust="spacing" textLength="66" x="463.72" y="307.9659">EnEdicion</text></g><g id="Validacion"><rect fill="#F1F1F1" height="50" rx="12.5" ry="12.5" style="stroke:#181818;stroke-width:0.5;" width="89" x="174.22" y="508.5"/><line style="stroke:#181818;stroke-width:0.5;" x1="174.22" x2="263.22" y1="537.5679" y2="537.5679"/><text fill="#000000" font-family="sans-serif" font-size="14" lengthAdjust="spacing" textLength="69" x="184.22" y="528.4659">Validacion</text></g><g id="Borrador"><rect fill="#F1F1F1" height="50" rx="12.5" ry="12.5" style="stroke:#181818;stroke-width:0.5;" width="80" x="386.72" y="676"/><line style="stroke:#181818;stroke-width:0.5;" x1="386.72" x2="466.72" y1="705.0679" y2="705.0679"/><text fill="#000000" font-family="sans-serif" font-size="14" lengthAdjust="spacing" textLength="60" x="396.72" y="695.9659">Borrador</text></g><g id="Pendiente"><rect fill="#F1F1F1" height="50" rx="12.5" ry="12.5" style="stroke:#181818;stroke-width:0.5;" width="88" x="121.72" y="676"/><line style="stroke:#181818;stroke-width:0.5;" x1="121.72" x2="209.72" y1="705.0679" y2="705.0679"/><text fill="#000000" font-family="sans-serif" font-size="14" lengthAdjust="spacing" textLength="68" x="131.72" y="695.9659">Pendiente</text></g><g id="Asignada"><rect fill="#F1F1F1" height="50" rx="12.5" ry="12.5" style="stroke:#181818;stroke-width:0.5;" width="83" x="129.22" y="841"/><line style="stroke:#181818;stroke-width:0.5;" x1="129.22" x2="212.22" y1="870.0679" y2="870.0679"/><text fill="#000000" font-family="sans-serif" font-size="14" lengthAdjust="spacing" textLength="63" x="139.22" y="860.9659">Asignada</text></g><g id="Rechazada"><rect fill="#F1F1F1" height="50" rx="12.5" ry="12.5" style="stroke:#181818;stroke-width:0.5;" width="93" x="317.22" y="841"/><line style="stroke:#181818;stroke-width:0.5;" x1="317.22" x2="410.22" y1="870.0679" y2="870.0679"/><text fill="#000000" font-family="sans-serif" font-size="14" lengthAdjust="spacing" textLength="73" x="327.22" y="860.9659">Rechazada</text></g><ellipse cx="268.72" cy="1017" fill="none" rx="11" ry="11" style="stroke:#222222;stroke-width:1.0;"/><ellipse cx="268.72" cy="1017" fill="#222222" rx="6" ry="6" style="stroke:#222222;stroke-width:1.0;"/><!--link *start* to Nueva--><g id="link_*start*_Nueva"><path d="M496.72,26.35 C496.72,46.32 496.72,87.68 496.72,116.77 " fill="none" id="*start*-to-Nueva" style="stroke:#181818;stroke-width:1.0;"/><polygon fill="#181818" points="496.72,122.77,500.72,113.77,496.72,117.77,492.72,113.77,496.72,122.77" style="stroke:#181818;stroke-width:1.0;"/><path d="M501.72,61 L501.72,88 L715.72,88 L715.72,71 L705.72,61 L501.72,61 " fill="#FEFFDD" style="stroke:#181818;stroke-width:0.5;"/><path d="M705.72,61 L705.72,71 L715.72,71 L705.72,61 " fill="#FEFFDD" style="stroke:#181818;stroke-width:0.5;"/><text fill="#000000" font-family="sans-serif" font-size="13" lengthAdjust="spacing" textLength="193" x="507.72" y="79.897">Miembro inicia creaci&#243;n de tarea</text></g><!--link Nueva to EnEdicion--><g id="link_Nueva_EnEdicion"><path d="M496.72,173.05 C496.72,203.87 496.72,250.98 496.72,281.85 " fill="none" id="Nueva-to-EnEdicion" style="stroke:#181818;stroke-width:1.0;"/><polygon fill="#181818" points="496.72,287.85,500.72,278.85,496.72,282.85,492.72,278.85,496.72,287.85" style="stroke:#181818;stroke-width:1.0;"/><path d="M501.72,208 L501.72,253 L691.72,253 L691.72,218 L681.72,208 L501.72,208 " fill="#FEFFDD" style="stroke:#181818;stroke-width:0.5;"/><path d="M681.72,208 L681.72,218 L691.72,218 L681.72,208 " fill="#FEFFDD" style="stroke:#181818;stroke-width:0.5;"/><text fill="#000000" font-family="sans-serif" font-size="13" lengthAdjust="spacing" textLength="169" x="507.72" y="226.897">Sistema presenta formulario</text><text fill="#000000" font-family="sans-serif" font-size="13" lengthAdjust="spacing" textLength="89" x="507.72" y="244.603">de nueva tarea</text></g><!--link EnEdicion to Validacion--><g id="link_EnEdicion_Validacion"><path d="M453.6,314.87 C376.01,317.43 217.73,327.62 183.72,368 C152.8,404.71 170.58,429.83 183.72,476 C186.97,487.43 189.9333,493.8233 196.3033,503.3433 " fill="none" id="EnEdicion-to-Validacion" style="stroke:#181818;stroke-width:1.0;"/><polygon fill="#181818" points="199.64,508.33,197.9594,498.6256,196.8595,504.1745,191.3106,503.0745,199.64,508.33" style="stroke:#181818;stroke-width:1.0;"/><path d="M188.72,373 L188.72,471 L351.72,471 L351.72,383 L341.72,373 L188.72,373 " fill="#FEFFDD" style="stroke:#181818;stroke-width:0.5;"/><path d="M341.72,373 L341.72,383 L351.72,383 L341.72,373 " fill="#FEFFDD" style="stroke:#181818;stroke-width:0.5;"/><text fill="#000000" font-family="sans-serif" font-size="13" lengthAdjust="spacing" textLength="142" x="194.72" y="391.897">Miembro ingresa datos:</text><text fill="#000000" font-family="sans-serif" font-size="13" lengthAdjust="spacing" textLength="41" x="194.72" y="409.603">- T&#237;tulo</text><text fill="#000000" font-family="sans-serif" font-size="13" lengthAdjust="spacing" textLength="76" x="194.72" y="427.309">- Descripci&#243;n</text><text fill="#000000" font-family="sans-serif" font-size="13" lengthAdjust="spacing" textLength="78" x="194.72" y="445.0151">- Fecha l&#237;mite</text><text fill="#000000" font-family="sans-serif" font-size="13" lengthAdjust="spacing" textLength="62" x="194.72" y="462.7211">- Prioridad</text></g><!--link Validacion to EnEdicion--><g id="link_Validacion_EnEdicion"><path d="M263.39,525 C294.56,517.57 335.03,503.2 360.72,476 C395.46,439.22 364.17,406.74 396.72,368 C411.63,350.25 428.4277,339.8354 448.1877,331.1454 " fill="none" id="Validacion-to-EnEdicion" style="stroke:#181818;stroke-width:1.0;"/><polygon fill="#181818" points="453.68,328.73,443.8312,328.6915,449.103,330.7428,447.0518,336.0147,453.68,328.73" style="stroke:#181818;stroke-width:1.0;"/><path d="M401.72,399.5 L401.72,444.5 L563.72,444.5 L563.72,409.5 L553.72,399.5 L401.72,399.5 " fill="#FEFFDD" style="stroke:#181818;stroke-width:0.5;"/><path d="M553.72,399.5 L553.72,409.5 L563.72,409.5 L553.72,399.5 " fill="#FEFFDD" style="stroke:#181818;stroke-width:0.5;"/><text fill="#000000" font-family="sans-serif" font-size="13" lengthAdjust="spacing" textLength="132" x="407.72" y="418.397">Sistema detecta datos</text><text fill="#000000" font-family="sans-serif" font-size="13" lengthAdjust="spacing" textLength="141" x="407.72" y="436.103">incompletos o inv&#225;lidos</text></g><!--link Validacion to Borrador--><g id="link_Validacion_Borrador"><path d="M210.02,558.54 C202.79,583.15 196.48,621.22 215.72,646 C236.47,672.73 325.4085,687.7189 380.6185,694.7789 " fill="none" id="Validacion-to-Borrador" style="stroke:#181818;stroke-width:1.0;"/><polygon fill="#181818" points="386.57,695.54,378.1501,690.4307,381.6104,694.9058,377.1353,698.3661,386.57,695.54" style="stroke:#181818;stroke-width:1.0;"/><path d="M220.72,596 L220.72,641 L378.72,641 L378.72,606 L368.72,596 L220.72,596 " fill="#FEFFDD" style="stroke:#181818;stroke-width:0.5;"/><path d="M368.72,596 L368.72,606 L378.72,606 L368.72,596 " fill="#FEFFDD" style="stroke:#181818;stroke-width:0.5;"/><text fill="#000000" font-family="sans-serif" font-size="13" lengthAdjust="spacing" textLength="137" x="226.72" y="614.897">Miembro elige guardar</text><text fill="#000000" font-family="sans-serif" font-size="13" lengthAdjust="spacing" textLength="91" x="226.72" y="632.603">como borrador</text></g><!--link Borrador to Validacion--><g id="link_Borrador_Validacion"><path d="M424.22,675.92 C420.42,651.38 410.98,613.78 387.72,591 C354.23,558.21 307.121,545.3473 269.401,539.5773 " fill="none" id="Borrador-to-Validacion" style="stroke:#181818;stroke-width:1.0;"/><polygon fill="#181818" points="263.47,538.67,271.7617,543.9849,268.4125,539.4261,272.9714,536.0769,263.47,538.67" style="stroke:#181818;stroke-width:1.0;"/><path d="M422.72,596 L422.72,641 L557.72,641 L557.72,606 L547.72,596 L422.72,596 " fill="#FEFFDD" style="stroke:#181818;stroke-width:0.5;"/><path d="M547.72,596 L547.72,606 L557.72,606 L547.72,596 " fill="#FEFFDD" style="stroke:#181818;stroke-width:0.5;"/><text fill="#000000" font-family="sans-serif" font-size="13" lengthAdjust="spacing" textLength="114" x="428.72" y="614.897">Miembro completa</text><text fill="#000000" font-family="sans-serif" font-size="13" lengthAdjust="spacing" textLength="100" x="428.72" y="632.603">datos para env&#237;o</text></g><!--link Validacion to Pendiente--><g id="link_Validacion_Pendiente"><path d="M173.82,540.98 C121.29,549.59 39.13,566.6 20.72,591 C6,610.51 6.77,625.92 20.72,646 C43.25,678.43 81.7896,690.5088 115.5696,695.6988 " fill="none" id="Validacion-to-Pendiente" style="stroke:#181818;stroke-width:1.0;"/><polygon fill="#181818" points="121.5,696.61,113.2118,691.2897,116.558,695.8507,111.9969,699.1969,121.5,696.61" style="stroke:#181818;stroke-width:1.0;"/><path d="M25.72,596 L25.72,641 L170.72,641 L170.72,606 L160.72,596 L25.72,596 " fill="#FEFFDD" style="stroke:#181818;stroke-width:0.5;"/><path d="M160.72,596 L160.72,606 L170.72,606 L160.72,596 " fill="#FEFFDD" style="stroke:#181818;stroke-width:0.5;"/><text fill="#000000" font-family="sans-serif" font-size="13" lengthAdjust="spacing" textLength="124" x="31.72" y="614.897">Miembro env&#237;a tarea</text><text fill="#000000" font-family="sans-serif" font-size="13" lengthAdjust="spacing" textLength="94" x="31.72" y="632.603">para asignaci&#243;n</text></g><!--link Borrador to EnEdicion--><g id="link_Borrador_EnEdicion"><path d="M466.83,697 C500.71,692.11 547.33,679.33 570.72,646 C589.96,618.58 587,395.66 572.72,368 C565.52,354.05 557.8837,346.2006 544.9437,337.7506 " fill="none" id="Borrador-to-EnEdicion" style="stroke:#181818;stroke-width:1.0;"/><polygon fill="#181818" points="539.92,334.47,545.2686,342.74,544.1064,337.2038,549.6426,336.0417,539.92,334.47" style="stroke:#181818;stroke-width:1.0;"/><path d="M588.72,511 L588.72,556 L713.72,556 L713.72,521 L703.72,511 L588.72,511 " fill="#FEFFDD" style="stroke:#181818;stroke-width:0.5;"/><path d="M703.72,511 L703.72,521 L713.72,521 L703.72,511 " fill="#FEFFDD" style="stroke:#181818;stroke-width:0.5;"/><text fill="#000000" font-family="sans-serif" font-size="13" lengthAdjust="spacing" textLength="97" x="594.72" y="529.897">Miembro decide</text><text fill="#000000" font-family="sans-serif" font-size="13" lengthAdjust="spacing" textLength="104" x="594.72" y="547.603">continuar edici&#243;n</text></g><!--link Pendiente to Asignada--><g id="link_Pendiente_Asignada"><path d="M163.65,726.28 C162.1,748.39 160.58,781.93 162.72,811 C163.44,820.83 163.9642,825.6534 165.4342,834.9634 " fill="none" id="Pendiente-to-Asignada" style="stroke:#181818;stroke-width:1.0;"/><polygon fill="#181818" points="166.37,840.89,168.9174,831.3763,165.5902,835.9512,161.0153,832.624,166.37,840.89" style="stroke:#181818;stroke-width:1.0;"/><path d="M167.72,761 L167.72,806 L315.72,806 L315.72,771 L305.72,761 L167.72,761 " fill="#FEFFDD" style="stroke:#181818;stroke-width:0.5;"/><path d="M305.72,761 L305.72,771 L315.72,771 L305.72,761 " fill="#FEFFDD" style="stroke:#181818;stroke-width:0.5;"/><text fill="#000000" font-family="sans-serif" font-size="13" lengthAdjust="spacing" textLength="127" x="173.72" y="779.897">Supervisor aprueba y</text><text fill="#000000" font-family="sans-serif" font-size="13" lengthAdjust="spacing" textLength="86" x="173.72" y="797.603">asigna la tarea</text></g><!--link Pendiente to Rechazada--><g id="link_Pendiente_Rechazada"><path d="M209.96,706.51 C245.3,712.33 293.86,725.64 324.72,756 C347.93,778.84 356.4588,810.4911 360.2688,835.0111 " fill="none" id="Pendiente-to-Rechazada" style="stroke:#181818;stroke-width:1.0;"/><polygon fill="#181818" points="361.19,840.94,363.7607,831.4326,360.4223,835.9993,355.8556,832.6609,361.19,840.94" style="stroke:#181818;stroke-width:1.0;"/><path d="M359.72,761 L359.72,806 L493.72,806 L493.72,771 L483.72,761 L359.72,761 " fill="#FEFFDD" style="stroke:#181818;stroke-width:0.5;"/><path d="M483.72,761 L483.72,771 L493.72,771 L483.72,761 " fill="#FEFFDD" style="stroke:#181818;stroke-width:0.5;"/><text fill="#000000" font-family="sans-serif" font-size="13" lengthAdjust="spacing" textLength="113" x="365.72" y="779.897">Supervisor rechaza</text><text fill="#000000" font-family="sans-serif" font-size="13" lengthAdjust="spacing" textLength="44" x="365.72" y="797.603">la tarea</text></g><!--link Rechazada to EnEdicion--><g id="link_Rechazada_EnEdicion"><path d="M410.27,853.68 C439.66,845.08 477.47,831.23 506.72,811 C628.45,726.81 674.47,699.48 726.72,561 C766.49,455.61 622.2422,371.7789 545.2222,335.2889 " fill="none" id="Rechazada-to-EnEdicion" style="stroke:#181818;stroke-width:1.0;"/><polygon fill="#181818" points="539.8,332.72,546.2208,340.1882,544.3185,334.8608,549.646,332.9585,539.8,332.72" style="stroke:#181818;stroke-width:1.0;"/><path d="M719.72,596 L719.72,641 L886.72,641 L886.72,606 L876.72,596 L719.72,596 " fill="#FEFFDD" style="stroke:#181818;stroke-width:0.5;"/><path d="M876.72,596 L876.72,606 L886.72,606 L876.72,596 " fill="#FEFFDD" style="stroke:#181818;stroke-width:0.5;"/><text fill="#000000" font-family="sans-serif" font-size="13" lengthAdjust="spacing" textLength="146" x="725.72" y="614.897">Miembro modifica datos</text><text fill="#000000" font-family="sans-serif" font-size="13" lengthAdjust="spacing" textLength="75" x="725.72" y="632.603">para reenv&#237;o</text></g><!--link Rechazada to *end*--><g id="link_Rechazada_*end*"><path d="M357.21,891.27 C350.14,914.59 337.17,950.02 317.72,976 C306.53,990.94 293.6498,1000.4554 282.8698,1007.3254 " fill="none" id="Rechazada-to-*end*" style="stroke:#181818;stroke-width:1.0;"/><polygon fill="#181818" points="277.81,1010.55,287.5495,1009.0863,282.0265,1007.8628,283.25,1002.3399,277.81,1010.55" style="stroke:#181818;stroke-width:1.0;"/><path d="M351.72,926 L351.72,971 L474.72,971 L474.72,936 L464.72,926 L351.72,926 " fill="#FEFFDD" style="stroke:#181818;stroke-width:0.5;"/><path d="M464.72,926 L464.72,936 L474.72,936 L464.72,926 " fill="#FEFFDD" style="stroke:#181818;stroke-width:0.5;"/><text fill="#000000" font-family="sans-serif" font-size="13" lengthAdjust="spacing" textLength="102" x="357.72" y="944.897">Miembro cancela</text><text fill="#000000" font-family="sans-serif" font-size="13" lengthAdjust="spacing" textLength="44" x="357.72" y="962.603">la tarea</text></g><!--link Asignada to *end*--><g id="link_Asignada_*end*"><path d="M168.73,891.07 C168.03,914.9 170.51,951.3 188.72,976 C205.86,999.25 234.4835,1008.4816 252.0435,1012.5316 " fill="none" id="Asignada-to-*end*" style="stroke:#181818;stroke-width:1.0;"/><polygon fill="#181818" points="257.89,1013.88,250.0192,1007.9597,253.0179,1012.7563,248.2213,1015.755,257.89,1013.88" style="stroke:#181818;stroke-width:1.0;"/><path d="M193.72,926 L193.72,971 L304.72,971 L304.72,936 L294.72,926 L193.72,926 " fill="#FEFFDD" style="stroke:#181818;stroke-width:0.5;"/><path d="M294.72,926 L294.72,936 L304.72,936 L294.72,926 " fill="#FEFFDD" style="stroke:#181818;stroke-width:0.5;"/><text fill="#000000" font-family="sans-serif" font-size="13" lengthAdjust="spacing" textLength="90" x="199.72" y="944.897">Tarea lista para</text><text fill="#000000" font-family="sans-serif" font-size="13" lengthAdjust="spacing" textLength="79" x="199.72" y="962.603">ser ejecutada</text></g><!--SRC=[ZPDDRkCm34RtFWNN1NA1MHHeCPdT54LRpAReWf6O35jPCcWvG7kR7Y2h7i4N6vgsypE9ctWdKNhyz2G_Nxt0R7ODTmsjiOWf4wG8WUDR0VhzPYeNae0ZEqPmGkYu_OhW2JBggA3eeTjM58Oms3pElQvFyHZuo7Mc4g4IgYbcX6MIiWaedAokt6YS_-bRfdNuWu4zdcwnoxpI9WWUSwf_M6a6J-qcDo4DevzKE-7AZZHC_IBt5o6qcvArRJzth-b4-_czFBi45kWsYQ1FCXs70gy8LWsAHx6AIsM2nRXn4dsl5LPNz0qxhjlDwAmhL2W8MFCgzlSrJR_WhZnbSdaGQHMEchqAf6FeHA_RJuLgSTTc57AkoNW4Juuz3LvYvgYYWBfTX_4Fk9SyWo5fxyMEqDinPscFlFLiw1kJvq_y4uzDHRBcMZDW9Gqj4DwjqFk6SFnu3z4FtHFxECUMVfLDdq1k8PSABfFd9RlzQpGFGaSc3jdFLo_VsCNeA4oc72rEWvww7JgizO5rUMoo9htxLt9DxYoDk7y0]--></g></svg>