<?xml version="1.0" encoding="us-ascii" standalone="no"?><svg xmlns="http://www.w3.org/2000/svg" xmlns:xlink="http://www.w3.org/1999/xlink" contentStyleType="text/css" height="1286px" preserveAspectRatio="none" style="width:892px;height:1286px;background:#FFFFFF;" version="1.1" viewBox="0 0 892 1286" width="892px" zoomAndPan="magnify"><defs/><g><path d="M19.5,234 L484.32,234 A12.5,12.5 0 0 1 496.82,246.5 L496.82,263.0679 L7,263.0679 L7,246.5 A12.5,12.5 0 0 1 19.5,234 " fill="#FFFFFF" style="stroke:#FFFFFF;stroke-width:1.0;"/><rect fill="none" height="705.1358" rx="12.5" ry="12.5" style="stroke:#000000;stroke-width:0.5;" width="489.82" x="7" y="234"/><line style="stroke:#000000;stroke-width:0.5;" x1="7" x2="496.82" y1="263.0679" y2="263.0679"/><text fill="#000000" font-family="sans-serif" font-size="14" lengthAdjust="spacing" textLength="96" x="203.91" y="253.9659">Usuario Activo</text><path d="M31.5,275.0679 L475.32,275.0679 A12.5,12.5 0 0 1 487.82,287.5679 L487.82,304.1358 L19,304.1358 L19,287.5679 A12.5,12.5 0 0 1 31.5,275.0679 " fill="#FFFFFF" style="stroke:#FFFFFF;stroke-width:1.0;"/><rect fill="none" height="654.0679" rx="12.5" ry="12.5" style="stroke:#000000;stroke-width:0.5;" width="468.82" x="19" y="275.0679"/><line style="stroke:#000000;stroke-width:0.5;" x1="19" x2="487.82" y1="304.1358" y2="304.1358"/><text fill="#000000" font-family="sans-serif" font-size="14" lengthAdjust="spacing" textLength="38" x="234.41" y="295.0339">Tarea</text><ellipse cx="376.82" cy="325.1358" fill="#222222" rx="10" ry="10" style="stroke:#222222;stroke-width:1.0;"/><g id="UA.T.Nueva"><rect fill="#FFFFFF" height="50" rx="12.5" ry="12.5" style="stroke:#000000;stroke-width:0.5;" width="63" x="345.32" y="390.1358"/><line style="stroke:#000000;stroke-width:0.5;" x1="345.32" x2="408.32" y1="419.2038" y2="419.2038"/><text fill="#000000" font-family="sans-serif" font-size="14" lengthAdjust="spacing" textLength="43" x="355.32" y="410.1018">Nueva</text></g><g id="UA.T.Asignada"><rect fill="#FFFFFF" height="50" rx="12.5" ry="12.5" style="stroke:#000000;stroke-width:0.5;" width="83" x="286.32" y="495.1358"/><line style="stroke:#000000;stroke-width:0.5;" x1="286.32" x2="369.32" y1="524.2038" y2="524.2038"/><text fill="#000000" font-family="sans-serif" font-size="14" lengthAdjust="spacing" textLength="63" x="296.32" y="515.1018">Asignada</text></g><g id="UA.T.EnProgreso"><rect fill="#FFFFFF" height="50" rx="12.5" ry="12.5" style="stroke:#000000;stroke-width:0.5;" width="97" x="143.32" y="600.1358"/><line style="stroke:#000000;stroke-width:0.5;" x1="143.32" x2="240.32" y1="629.2038" y2="629.2038"/><text fill="#000000" font-family="sans-serif" font-size="14" lengthAdjust="spacing" textLength="77" x="153.32" y="620.1018">EnProgreso</text></g><g id="UA.T.EnRevision"><rect fill="#FFFFFF" height="50" rx="12.5" ry="12.5" style="stroke:#000000;stroke-width:0.5;" width="93" x="87.32" y="705.1358"/><line style="stroke:#000000;stroke-width:0.5;" x1="87.32" x2="180.32" y1="734.2038" y2="734.2038"/><text fill="#000000" font-family="sans-serif" font-size="14" lengthAdjust="spacing" textLength="73" x="97.32" y="725.1018">EnRevision</text></g><g id="UA.T.Completada"><rect fill="#FFFFFF" height="50" rx="12.5" ry="12.5" style="stroke:#000000;stroke-width:0.5;" width="101" x="80.32" y="810.1358"/><line style="stroke:#000000;stroke-width:0.5;" x1="80.32" x2="181.32" y1="839.2038" y2="839.2038"/><text fill="#000000" font-family="sans-serif" font-size="14" lengthAdjust="spacing" textLength="81" x="90.32" y="830.1018">Completada</text></g><g id="UA.T.Cancelada"><rect fill="#FFFFFF" height="50" rx="12.5" ry="12.5" style="stroke:#000000;stroke-width:0.5;" width="90" x="231.82" y="810.1358"/><line style="stroke:#000000;stroke-width:0.5;" x1="231.82" x2="321.82" y1="839.2038" y2="839.2038"/><text fill="#000000" font-family="sans-serif" font-size="14" lengthAdjust="spacing" textLength="70" x="241.82" y="830.1018">Cancelada</text></g><ellipse cx="186.82" cy="908.1358" fill="none" rx="11" ry="11" style="stroke:#222222;stroke-width:1.0;"/><ellipse cx="186.82" cy="908.1358" fill="#222222" rx="6" ry="6" style="stroke:#222222;stroke-width:1.0;"/><!--link *start*T to Nueva--><g id="link_*start*T_Nueva"><path d="M376.82,335.2258 C376.82,348.0458 376.82,365.9058 376.82,384.0458 " fill="none" id="*start*T-to-Nueva" style="stroke:#000000;stroke-width:1.0;"/><polygon fill="#000000" points="376.82,390.0458,380.82,381.0458,376.82,385.0458,372.82,381.0458,376.82,390.0458" style="stroke:#000000;stroke-width:1.0;"/><text fill="#000000" font-family="sans-serif" font-size="13" lengthAdjust="spacing" textLength="68" x="377.82" y="368.0328">Crear Tarea</text></g><!--link Nueva to Asignada--><g id="link_Nueva_Asignada"><path d="M345.23,436.9958 C338.63,442.9858 332.54,450.0958 328.82,458.1358 C323.56,469.4758 322.503,477.3318 323.353,488.9718 " fill="none" id="Nueva-to-Asignada" style="stroke:#000000;stroke-width:1.0;"/><polygon fill="#000000" points="323.79,494.9558,327.1239,485.6884,323.4258,489.9691,319.1452,486.2711,323.79,494.9558" style="stroke:#000000;stroke-width:1.0;"/><text fill="#000000" font-family="sans-serif" font-size="13" lengthAdjust="spacing" textLength="81" x="329.82" y="473.0328">Asignar Tarea</text></g><!--link Asignada to EnProgreso--><g id="link_Asignada_EnProgreso"><path d="M286.05,545.3058 C277.19,550.8858 268.04,556.9858 259.82,563.1358 C244.83,574.3458 233.5942,584.0897 221.1142,595.7497 " fill="none" id="Asignada-to-EnProgreso" style="stroke:#000000;stroke-width:1.0;"/><polygon fill="#000000" points="216.73,599.8458,226.0371,596.6244,220.3835,596.4324,220.5756,590.7788,216.73,599.8458" style="stroke:#000000;stroke-width:1.0;"/><text fill="#000000" font-family="sans-serif" font-size="13" lengthAdjust="spacing" textLength="82" x="260.82" y="578.0328">Aceptar Tarea</text></g><!--link EnProgreso to EnRevision--><g id="link_EnProgreso_EnRevision"><path d="M143.19,633.7158 C105.47,640.7058 57.68,652.3858 45.82,668.1358 C30,689.1458 52.9144,703.5067 81.6244,713.9967 " fill="none" id="EnProgreso-to-EnRevision" style="stroke:#000000;stroke-width:1.0;"/><polygon fill="#000000" points="87.26,716.0558,80.1793,709.2101,82.5637,714.3399,77.4338,716.7242,87.26,716.0558" style="stroke:#000000;stroke-width:1.0;"/><text fill="#000000" font-family="sans-serif" font-size="13" lengthAdjust="spacing" textLength="100" x="46.82" y="683.0328">Solicitar Revisi&#243;n</text></g><!--link EnRevision to Completada--><g id="link_EnRevision_Completada"><path d="M109.87,755.1658 C105.75,760.6558 102.07,766.7658 99.82,773.1358 C95.38,785.6758 97.3807,793.968 104.8307,804.898 " fill="none" id="EnRevision-to-Completada" style="stroke:#000000;stroke-width:1.0;"/><polygon fill="#000000" points="108.21,809.8558,106.4463,800.1662,105.3939,805.7243,99.8358,804.6719,108.21,809.8558" style="stroke:#000000;stroke-width:1.0;"/><text fill="#000000" font-family="sans-serif" font-size="13" lengthAdjust="spacing" textLength="85" x="100.82" y="788.0328">Aprobar Tarea</text></g><!--link EnRevision to EnProgreso--><g id="link_EnRevision_EnProgreso"><path d="M147.53,704.7858 C156.8,688.3258 166.0362,671.924 175.2762,655.514 " fill="none" id="EnRevision-to-EnProgreso" style="stroke:#000000;stroke-width:1.0;"/><polygon fill="#000000" points="178.22,650.2858,170.3188,656.1655,175.7668,654.6426,177.2897,660.0907,178.22,650.2858" style="stroke:#000000;stroke-width:1.0;"/><text fill="#000000" font-family="sans-serif" font-size="13" lengthAdjust="spacing" textLength="90" x="169.82" y="683.0328">Rechazar Tarea</text></g><!--link Nueva to Cancelada--><g id="link_Nueva_Cancelada"><path d="M400.36,440.5458 C404.69,446.0158 408.78,452.0158 411.82,458.1358 C424.17,483.0558 425.82,491.3158 425.82,519.1358 C425.82,519.1358 425.82,519.1358 425.82,731.1358 C425.82,782.2358 371.5166,808.2076 327.6666,821.6476 " fill="none" id="Nueva-to-Cancelada" style="stroke:#000000;stroke-width:1.0;"/><polygon fill="#000000" points="321.93,823.4058,331.7071,824.5928,326.7105,821.9406,329.3627,816.944,321.93,823.4058" style="stroke:#000000;stroke-width:1.0;"/><text fill="#000000" font-family="sans-serif" font-size="13" lengthAdjust="spacing" textLength="51" x="426.82" y="630.5328">Cancelar</text></g><!--link Asignada to Cancelada--><g id="link_Asignada_Cancelada"><path d="M338.83,545.5758 C340.9,551.2358 342.74,557.3058 343.82,563.1358 C346.18,575.9558 361.27,698.9458 340.82,755.1358 C333.21,776.0358 321.7616,791.1833 307.8516,805.5633 " fill="none" id="Asignada-to-Cancelada" style="stroke:#000000;stroke-width:1.0;"/><polygon fill="#000000" points="303.68,809.8758,312.8124,806.1881,307.1563,806.2821,307.0623,800.626,303.68,809.8758" style="stroke:#000000;stroke-width:1.0;"/><text fill="#000000" font-family="sans-serif" font-size="13" lengthAdjust="spacing" textLength="51" x="351.82" y="683.0328">Cancelar</text></g><!--link EnProgreso to Cancelada--><g id="link_EnProgreso_Cancelada"><path d="M240.63,646.5058 C249.32,652.2558 257.34,659.4058 262.82,668.1358 C290.33,711.9858 287.0677,769.7375 282.1077,804.0775 " fill="none" id="EnProgreso-to-Cancelada" style="stroke:#000000;stroke-width:1.0;"/><polygon fill="#000000" points="281.25,810.0158,286.4955,801.6801,281.9648,805.0672,278.5777,800.5365,281.25,810.0158" style="stroke:#000000;stroke-width:1.0;"/><text fill="#000000" font-family="sans-serif" font-size="13" lengthAdjust="spacing" textLength="51" x="284.82" y="735.5328">Cancelar</text></g><!--link EnRevision to Cancelada--><g id="link_EnRevision_Cancelada"><path d="M164.45,755.2358 C171.8,761.0658 179.61,767.3058 186.82,773.1358 C197.12,781.4758 199.07,784.3758 209.82,792.1358 C218.28,798.2458 222.5515,801.2148 231.5015,806.8848 " fill="none" id="EnRevision-to-Cancelada" style="stroke:#000000;stroke-width:1.0;"/><polygon fill="#000000" points="236.57,810.0958,231.1079,801.9004,232.3463,807.42,226.8266,808.6583,236.57,810.0958" style="stroke:#000000;stroke-width:1.0;"/><text fill="#000000" font-family="sans-serif" font-size="13" lengthAdjust="spacing" textLength="51" x="210.82" y="788.0328">Cancelar</text></g><!--link Completada to *end*T--><g id="link_Completada_*end*T"><path d="M149.78,860.1758 C160.44,873.6858 169.3455,884.9838 176.7555,894.3838 " fill="none" id="Completada-to-*end*T" style="stroke:#000000;stroke-width:1.0;"/><polygon fill="#000000" points="180.47,899.0958,178.0396,889.5515,177.3746,895.1692,171.757,894.5041,180.47,899.0958" style="stroke:#000000;stroke-width:1.0;"/></g><!--link Cancelada to *end*T--><g id="link_Cancelada_*end*T"><path d="M246.35,860.1758 C228.19,874.4958 211.2098,887.8886 199.6798,896.9886 " fill="none" id="Cancelada-to-*end*T" style="stroke:#000000;stroke-width:1.0;"/><polygon fill="#000000" points="194.97,900.7058,204.5129,898.2699,198.8948,897.6082,199.5566,891.9901,194.97,900.7058" style="stroke:#000000;stroke-width:1.0;"/></g><g id="UP"><rect fill="#FFFFFF" height="50" rx="12.5" ry="12.5" style="stroke:#000000;stroke-width:0.5;" width="144" x="432" y="105"/><line style="stroke:#000000;stroke-width:0.5;" x1="432" x2="576" y1="134.0679" y2="134.0679"/><text fill="#000000" font-family="sans-serif" font-size="14" lengthAdjust="spacing" textLength="124" x="442" y="124.9659">Usuario Pendiente</text></g><g id="US"><rect fill="#FFFFFF" height="50" rx="12.5" ry="12.5" style="stroke:#000000;stroke-width:0.5;" width="156" x="243" y="1018"/><line style="stroke:#000000;stroke-width:0.5;" x1="243" x2="399" y1="1047.0679" y2="1047.0679"/><text fill="#000000" font-family="sans-serif" font-size="14" lengthAdjust="spacing" textLength="136" x="253" y="1037.9659">Usuario Suspendido</text></g><g id="UI"><rect fill="#FFFFFF" height="50" rx="12.5" ry="12.5" style="stroke:#000000;stroke-width:0.5;" width="129" x="404.5" y="1147"/><line style="stroke:#000000;stroke-width:0.5;" x1="404.5" x2="533.5" y1="1176.0679" y2="1176.0679"/><text fill="#000000" font-family="sans-serif" font-size="14" lengthAdjust="spacing" textLength="109" x="414.5" y="1166.9659">Usuario Inactivo</text></g><ellipse cx="504" cy="16" fill="#222222" rx="10" ry="10" style="stroke:#222222;stroke-width:1.0;"/><ellipse cx="469" cy="1269" fill="none" rx="11" ry="11" style="stroke:#222222;stroke-width:1.0;"/><ellipse cx="469" cy="1269" fill="#222222" rx="6" ry="6" style="stroke:#222222;stroke-width:1.0;"/><g id="elem_GMN37"><path d="M532.5,564 L532.5,582.5 L497.23,586.5 L532.5,590.5 L532.5,609.412 A0,0 0 0 0 532.5,609.412 L701.5,609.412 A0,0 0 0 0 701.5,609.412 L701.5,574 L691.5,564 L532.5,564 A0,0 0 0 0 532.5,564 " fill="#FEFFDD" style="stroke:#181818;stroke-width:0.5;"/><path d="M691.5,564 L691.5,574 L701.5,574 L691.5,564 " fill="#FEFFDD" style="stroke:#181818;stroke-width:0.5;"/><text fill="#000000" font-family="sans-serif" font-size="13" lengthAdjust="spacing" textLength="126" x="538.5" y="582.897">Solo usuarios Activos</text><text fill="#000000" font-family="sans-serif" font-size="13" lengthAdjust="spacing" textLength="148" x="538.5" y="600.603">pueden gestionar Tareas</text></g><!--link *start* to UP--><g id="link_*start*_UP"><path d="M504,26.17 C504,43.2 504,74.23 504,98.89 " fill="none" id="*start*-to-UP" style="stroke:#000000;stroke-width:1.0;"/><polygon fill="#000000" points="504,104.89,508,95.89,504,99.89,500,95.89,504,104.89" style="stroke:#000000;stroke-width:1.0;"/><text fill="#000000" font-family="sans-serif" font-size="13" lengthAdjust="spacing" textLength="82" x="505" y="70.897">Crear Usuario</text></g><!--link UP to UA--><g id="link_UP_UA"><path d="M490.63,155.11 C480.45,173.47 468.0592,195.8225 450.0192,228.3625 " fill="none" id="UP-to-UA" style="stroke:#000000;stroke-width:1.0;"/><polygon fill="#000000" points="447.11,233.61,454.9722,227.6782,449.5343,229.2371,447.9754,223.7992,447.11,233.61" style="stroke:#000000;stroke-width:1.0;"/><text fill="#000000" font-family="sans-serif" font-size="13" lengthAdjust="spacing" textLength="91" x="473" y="199.897">Activar Usuario</text></g><!--link UA to US--><g id="link_UA_US"><path d="M147.51,939.42 C152.63,956.44 160.29,972.76 171,988 C187.55,1011.55 209.6262,1023.2839 236.8762,1030.8039 " fill="none" id="UA-to-US" style="stroke:#000000;stroke-width:1.0;"/><polygon fill="#000000" points="242.66,1032.4,235.0484,1026.15,237.8402,1031.0699,232.9202,1033.8617,242.66,1032.4" style="stroke:#000000;stroke-width:1.0;"/><text fill="#000000" font-family="sans-serif" font-size="13" lengthAdjust="spacing" textLength="114" x="172" y="983.897">Suspender Usuario</text></g><!--link US to UA--><g id="link_US_UA"><path d="M317.34,1017.9 C314.55,999.5 311.2394,977.7322 306.2894,945.0822 " fill="none" id="US-to-UA" style="stroke:#000000;stroke-width:1.0;"/><polygon fill="#000000" points="305.39,939.15,302.7842,948.6479,306.1395,944.0935,310.6939,947.4487,305.39,939.15" style="stroke:#000000;stroke-width:1.0;"/><text fill="#000000" font-family="sans-serif" font-size="13" lengthAdjust="spacing" textLength="105" x="314" y="983.897">Reactivar Usuario</text></g><!--link UP to UI--><g id="link_UP_UI"><path d="M576.09,144.71 C625.62,158.29 687.85,184.53 719,234 C885.97,499.14 844.29,651.81 719,939 C676.74,1035.88 576.9962,1107.332 517.3662,1143.602 " fill="none" id="UP-to-UI" style="stroke:#000000;stroke-width:1.0;"/><polygon fill="#000000" points="512.24,1146.72,522.008,1145.4604,516.5118,1144.1217,517.8506,1138.6255,512.24,1146.72" style="stroke:#000000;stroke-width:1.0;"/><text fill="#000000" font-family="sans-serif" font-size="13" lengthAdjust="spacing" textLength="62" x="703" y="983.897">Desactivar</text></g><!--link UA to UI--><g id="link_UA_UI"><path d="M417.78,939.16 C421.35,949.16 424.77,959.12 428,969 C448.48,1031.58 459.8862,1102.6054 465.1362,1140.9554 " fill="none" id="UA-to-UI" style="stroke:#000000;stroke-width:1.0;"/><polygon fill="#000000" points="465.95,1146.9,468.6923,1137.4406,465.2718,1141.9462,460.7663,1138.5257,465.95,1146.9" style="stroke:#000000;stroke-width:1.0;"/><text fill="#000000" font-family="sans-serif" font-size="13" lengthAdjust="spacing" textLength="62" x="453" y="1048.397">Desactivar</text></g><!--link US to UI--><g id="link_US_UI"><path d="M336.85,1068.19 C347.57,1083.37 362.69,1102.7 379,1117 C391.74,1128.17 401.9236,1135.3161 416.3236,1143.7561 " fill="none" id="US-to-UI" style="stroke:#000000;stroke-width:1.0;"/><polygon fill="#000000" points="421.5,1146.79,415.758,1138.7881,417.1863,1144.2617,411.7128,1145.69,421.5,1146.79" style="stroke:#000000;stroke-width:1.0;"/><text fill="#000000" font-family="sans-serif" font-size="13" lengthAdjust="spacing" textLength="62" x="380" y="1112.897">Desactivar</text></g><!--link UI to *end*--><g id="link_UI_*end*"><path d="M469,1197.46 C469,1217.04 469,1237.49 469,1251.8 " fill="none" id="UI-to-*end*" style="stroke:#000000;stroke-width:1.0;"/><polygon fill="#000000" points="469,1257.8,473,1248.8,469,1252.8,465,1248.8,469,1257.8" style="stroke:#000000;stroke-width:1.0;"/></g><!--SRC=[XPD1JiCm44NtFiM89L8lm08f11RPeAXfLy32JORKQkg9RAULG3qLH-1YsB7hkY62hApvxtiyze_U2TbpnVUW3JS8dmpizy3hNQjea4rE7IauReL1hv1gKFdgfhFOMCsKecDQF37czxjPwu4hGP3LHXpe1hY6THRQ16J55V9HMGN1VI-tRx1OtCFpW0SETv1RIC78HiPhZigqQ2Ll7EYNKpG2ZdwIfQ9MeIR7rzYRNto2UCSI3q8BajPHKITguJo- -Fqb4ry4dI-dVT-X2IVh5MrcEbqvhiwsn7hBFw9bPl2SonexltzOg_cX_oGdu_x3NeyunqOukG07srUzID6OAgUPy9Ge6u7IeCzFETMhGVSEQKB0AfWIXUH900l6pl5Qbp5RWMMsD2hP60xhIhNCQvMBWU-AYLfTd4la4s_SkB3o8-gWnpsdvMg-NCJhOfBiZ4gqMmFqxjlQR18ClgCEVvr-bVs03KfeKHlxRkT0QVO3]--></g></svg>