<?xml version="1.0" encoding="us-ascii" standalone="no"?><svg xmlns="http://www.w3.org/2000/svg" xmlns:xlink="http://www.w3.org/1999/xlink" contentStyleType="text/css" height="849px" preserveAspectRatio="none" style="width:494px;height:849px;background:#FFFFFF;" version="1.1" viewBox="0 0 494 849" width="494px" zoomAndPan="magnify"><defs/><g><!--cluster Sistema Gesti?n Tareas--><g id="cluster_Sistema Gesti&#243;n Tareas"><rect fill="none" height="836" rx="2.5" ry="2.5" style="stroke:#181818;stroke-width:1.0;" width="269" x="219" y="7"/><text fill="#000000" font-family="sans-serif" font-size="14" font-weight="bold" lengthAdjust="spacing" textLength="161" x="273" y="23.9659">Sistema Gesti&#243;n Tareas</text></g><!--cluster Gesti?n de Tareas--><g id="cluster_Gesti&#243;n de Tareas"><path d="M245.5,53 L369.5,53 A3.75,3.75 0 0 1 372,55.5 L379,78.0679 L461.5,78.0679 A2.5,2.5 0 0 1 464,80.5679 L464,816.5 A2.5,2.5 0 0 1 461.5,819 L245.5,819 A2.5,2.5 0 0 1 243,816.5 L243,55.5 A2.5,2.5 0 0 1 245.5,53 " fill="none" style="stroke:#000000;stroke-width:1.5;"/><line style="stroke:#000000;stroke-width:1.5;" x1="243" x2="379" y1="78.0679" y2="78.0679"/><text fill="#000000" font-family="sans-serif" font-size="14" font-weight="bold" lengthAdjust="spacing" textLength="123" x="247" y="69.9659">Gesti&#243;n de Tareas</text></g><g id="elem_UC1"><ellipse cx="353.4332" cy="491.025" fill="#F1F1F1" rx="69.9332" ry="17.025" style="stroke:#181818;stroke-width:0.5;"/><text fill="#000000" font-family="sans-serif" font-size="14" lengthAdjust="spacing" textLength="79" x="310.9332" y="495.758">Crear Tarea</text></g><g id="elem_UC2"><ellipse cx="353.2761" cy="562.1552" fill="#F1F1F1" rx="81.2761" ry="18.6552" style="stroke:#181818;stroke-width:0.5;"/><text fill="#000000" font-family="sans-serif" font-size="14" lengthAdjust="spacing" textLength="107" x="296.7761" y="566.8882">Consultar Tarea</text></g><g id="elem_UC3"><ellipse cx="353.7218" cy="633.2444" fill="#F1F1F1" rx="76.7218" ry="17.7444" style="stroke:#181818;stroke-width:0.5;"/><text fill="#000000" font-family="sans-serif" font-size="14" lengthAdjust="spacing" textLength="94" x="303.7218" y="637.9773">Aceptar Tarea</text></g><g id="elem_UC4"><ellipse cx="353.3387" cy="705.1677" fill="#F1F1F1" rx="83.8387" ry="19.1677" style="stroke:#181818;stroke-width:0.5;"/><text fill="#000000" font-family="sans-serif" font-size="14" lengthAdjust="spacing" textLength="114" x="293.3387" y="709.9007">Solicitar Revisi&#243;n</text></g><g id="elem_UC5"><ellipse cx="353.711" cy="780.8422" fill="#F1F1F1" rx="94.711" ry="21.3422" style="stroke:#181818;stroke-width:0.5;"/><text fill="#000000" font-family="sans-serif" font-size="14" lengthAdjust="spacing" textLength="142" x="279.711" y="785.5752">Consultar Mis Tareas</text></g><g id="elem_UC6"><ellipse cx="353.7218" cy="109.2444" fill="#F1F1F1" rx="76.7218" ry="17.7444" style="stroke:#181818;stroke-width:0.5;"/><text fill="#000000" font-family="sans-serif" font-size="14" lengthAdjust="spacing" textLength="94" x="303.7218" y="113.9773">Asignar Tarea</text></g><g id="elem_UC7"><ellipse cx="353.7473" cy="179.9495" fill="#F1F1F1" rx="77.7473" ry="17.9495" style="stroke:#181818;stroke-width:0.5;"/><text fill="#000000" font-family="sans-serif" font-size="14" lengthAdjust="spacing" textLength="97" x="302.2473" y="184.6824">Aprobar Tarea</text></g><g id="elem_UC8"><ellipse cx="353.7004" cy="251.9401" fill="#F1F1F1" rx="80.2004" ry="18.4401" style="stroke:#181818;stroke-width:0.5;"/><text fill="#000000" font-family="sans-serif" font-size="14" lengthAdjust="spacing" textLength="104" x="298.7004" y="256.673">Rechazar Tarea</text></g><g id="elem_UC9"><ellipse cx="353.639" cy="324.2278" fill="#F1F1F1" rx="79.139" ry="18.2278" style="stroke:#181818;stroke-width:0.5;"/><text fill="#000000" font-family="sans-serif" font-size="14" lengthAdjust="spacing" textLength="101" x="300.139" y="328.9608">Cancelar Tarea</text></g><g id="elem_UC10"><ellipse cx="353.5044" cy="407.7638" fill="#F1F1F1" rx="89.5044" ry="30.2638" style="stroke:#181818;stroke-width:0.5;"/><text fill="#000000" font-family="sans-serif" font-size="14" lengthAdjust="spacing" textLength="109" x="296.0044" y="402.9628">Consultar Todas</text><text fill="#000000" font-family="sans-serif" font-size="14" lengthAdjust="spacing" textLength="68" x="316.5044" y="422.0307">las Tareas</text></g><!--entity member--><g id="elem_member"><ellipse cx="36.5" cy="567" fill="#F1F1F1" rx="8" ry="8" style="stroke:#181818;stroke-width:0.5;"/><path d="M36.5,575 L36.5,602 M23.5,583 L49.5,583 M36.5,602 L23.5,617 M36.5,602 L49.5,617 " fill="none" style="stroke:#181818;stroke-width:0.5;"/><text fill="#000000" font-family="sans-serif" font-size="14" lengthAdjust="spacing" textLength="61" x="6" y="633.4659">Miembro</text></g><!--entity supervisor--><g id="elem_supervisor"><ellipse cx="163" cy="257" fill="#F1F1F1" rx="8" ry="8" style="stroke:#181818;stroke-width:0.5;"/><path d="M163,265 L163,292 M150,273 L176,273 M163,292 L150,307 M163,292 L176,307 " fill="none" style="stroke:#181818;stroke-width:0.5;"/><text fill="#000000" font-family="sans-serif" font-size="14" lengthAdjust="spacing" textLength="72" x="127" y="323.4659">Supervisor</text></g><!--reverse link member to supervisor--><g id="link_member_supervisor"><path d="M60.1007,541.7177 C83.9707,482.3077 122.08,387.39 146,327.83 " fill="none" id="member-backto-supervisor" style="stroke:#181818;stroke-width:1.0;"/><polygon fill="none" points="53.39,558.42,65.6681,543.9546,54.5333,539.4808,53.39,558.42" style="stroke:#181818;stroke-width:1.0;"/></g><!--link member to UC1--><g id="link_member_UC1"><path d="M67.08,583.76 C84.4,575.6 106.78,565.35 127,557 C163.78,541.81 172.96,537.68 211,526 C240.51,516.93 268.1859,509.9188 295.1959,503.6388 " fill="none" id="member-to-UC1" style="stroke:#181818;stroke-width:1.0;"/><polygon fill="#181818" points="301.04,502.28,291.368,500.4221,296.1699,503.4123,293.1797,508.2143,301.04,502.28" style="stroke:#181818;stroke-width:1.0;"/></g><!--link member to UC2--><g id="link_member_UC2"><path d="M67.31,593.8 C84.7,591.4 107.08,588.4 127,586 C177.52,579.93 228.5412,574.4811 272.5912,569.9711 " fill="none" id="member-to-UC2" style="stroke:#181818;stroke-width:1.0;"/><polygon fill="#181818" points="278.56,569.36,269.1994,566.2975,273.586,569.8693,270.0142,574.2559,278.56,569.36" style="stroke:#181818;stroke-width:1.0;"/></g><!--link member to UC3--><g id="link_member_UC3"><path d="M67.13,601.29 C116.53,606.78 210.9567,617.2778 278.4967,624.7778 " fill="none" id="member-to-UC3" style="stroke:#181818;stroke-width:1.0;"/><polygon fill="#181818" points="284.46,625.44,275.9564,620.4711,279.4905,624.8882,275.0735,628.4223,284.46,625.44" style="stroke:#181818;stroke-width:1.0;"/></g><!--link member to UC4--><g id="link_member_UC4"><path d="M67.16,611.32 C101.36,626.36 159.5,650.96 211,668 C238,676.94 262.6376,683.6812 288.3576,690.0812 " fill="none" id="member-to-UC4" style="stroke:#181818;stroke-width:1.0;"/><polygon fill="#181818" points="294.18,691.53,286.4122,685.4751,289.328,690.3226,284.4804,693.2384,294.18,691.53" style="stroke:#181818;stroke-width:1.0;"/></g><!--link member to UC5--><g id="link_member_UC5"><path d="M67.23,629.24 C99.69,661.61 154.61,711.53 211,741 C232.72,752.35 252.2508,759.2707 275.4208,765.4207 " fill="none" id="member-to-UC5" style="stroke:#181818;stroke-width:1.0;"/><polygon fill="#181818" points="281.22,766.96,273.5474,760.785,276.3873,765.6773,271.495,768.5172,281.22,766.96" style="stroke:#181818;stroke-width:1.0;"/></g><!--link supervisor to UC6--><g id="link_supervisor_UC6"><path d="M166.64,248.19 C170.94,215.68 182.11,170.86 211,144 C229.35,126.94 248.7823,118.9956 272.9323,114.2556 " fill="none" id="supervisor-to-UC6" style="stroke:#181818;stroke-width:1.0;"/><polygon fill="#181818" points="278.82,113.1,269.2181,110.9083,273.9136,114.063,270.7589,118.7585,278.82,113.1" style="stroke:#181818;stroke-width:1.0;"/></g><!--link supervisor to UC7--><g id="link_supervisor_UC7"><path d="M182.7,248.17 C190.02,236.29 199.46,224.25 211,216 C231.72,201.18 252.1103,193.6936 276.3703,188.5536 " fill="none" id="supervisor-to-UC7" style="stroke:#181818;stroke-width:1.0;"/><polygon fill="#181818" points="282.24,187.31,272.6064,185.2623,277.3486,188.3464,274.2645,193.0886,282.24,187.31" style="stroke:#181818;stroke-width:1.0;"/></g><!--link supervisor to UC8--><g id="link_supervisor_UC8"><path d="M199.01,281.31 C224.89,276.37 254.8766,270.6459 285.4466,264.8059 " fill="none" id="supervisor-to-UC8" style="stroke:#181818;stroke-width:1.0;"/><polygon fill="#181818" points="291.34,263.68,281.7493,261.4398,286.4288,264.6182,283.2504,269.2977,291.34,263.68" style="stroke:#181818;stroke-width:1.0;"/></g><!--link supervisor to UC9--><g id="link_supervisor_UC9"><path d="M199.01,294.69 C225.21,299.69 255.7667,305.5234 286.5767,311.4134 " fill="none" id="supervisor-to-UC9" style="stroke:#181818;stroke-width:1.0;"/><polygon fill="#181818" points="292.47,312.54,284.3812,306.9212,287.5589,311.6011,282.879,314.7789,292.47,312.54" style="stroke:#181818;stroke-width:1.0;"/></g><!--link supervisor to UC10--><g id="link_supervisor_UC10"><path d="M183.92,327.82 C191.16,339.15 200.25,350.66 211,359 C230.21,373.9 248.5523,382.6 271.3523,389.99 " fill="none" id="supervisor-to-UC10" style="stroke:#181818;stroke-width:1.0;"/><polygon fill="#181818" points="277.06,391.84,269.7318,385.2599,272.3036,390.2983,267.2652,392.8701,277.06,391.84" style="stroke:#181818;stroke-width:1.0;"/></g><!--SRC=[VP8zRiCm38LtdOBmRg3vJvO0HOPEMP9swyB8h2DKbWnHxj2VK_K8lLXbft5XoOZWGU_ne_neMTEB1s_1gVBieL2Ef5VM287IMmVPNb5rSZO3PAZ2bjorScngSc-AhUkAt4lnluMyoJ-trqRH7ewcr1Iw5Nkg41w8lVhvDl28Zf0p-10GLeto5Sl0zVM28gHT3PD43jWkLDm5wD8yxIOZa3NSQ1-1qnIybrJ7s2p5ZbOhgLhmG67SDkOVFB_ryhtYVfIENemaO5MQAC5o1AkTFKNOAiKE9C_u7d7haOne9Ec8szpyaBP0VZOQev4cTrtNbn3XkLm_vFcskvU1d0xbR2ZdGxaGWt-hyvQfjKgjTMfjKYka_WK0]--></g></svg>