<?xml version="1.0" encoding="us-ascii" standalone="no"?><svg xmlns="http://www.w3.org/2000/svg" xmlns:xlink="http://www.w3.org/1999/xlink" contentStyleType="text/css" height="732px" preserveAspectRatio="none" style="width:750px;height:732px;background:#FFFFFF;" version="1.1" viewBox="0 0 750 732" width="750px" zoomAndPan="magnify"><defs/><g><ellipse cx="427" cy="16" fill="#222222" rx="10" ry="10" style="stroke:#222222;stroke-width:1.0;"/><g id="Nueva"><rect fill="#F1F1F1" height="50" rx="12.5" ry="12.5" style="stroke:#181818;stroke-width:0.5;" width="63" x="395.5" y="123"/><line style="stroke:#181818;stroke-width:0.5;" x1="395.5" x2="458.5" y1="152.0679" y2="152.0679"/><text fill="#000000" font-family="sans-serif" font-size="14" lengthAdjust="spacing" textLength="43" x="405.5" y="142.9659">Nueva</text></g><g id="EnEdicion"><rect fill="#F1F1F1" height="50" rx="12.5" ry="12.5" style="stroke:#181818;stroke-width:0.5;" width="86" x="384" y="288"/><line style="stroke:#181818;stroke-width:0.5;" x1="384" x2="470" y1="317.0679" y2="317.0679"/><text fill="#000000" font-family="sans-serif" font-size="14" lengthAdjust="spacing" textLength="66" x="394" y="307.9659">EnEdicion</text></g><g id="Validacion"><rect fill="#F1F1F1" height="50" rx="12.5" ry="12.5" style="stroke:#181818;stroke-width:0.5;" width="89" x="201.5" y="508.5"/><line style="stroke:#181818;stroke-width:0.5;" x1="201.5" x2="290.5" y1="537.5679" y2="537.5679"/><text fill="#000000" font-family="sans-serif" font-size="14" lengthAdjust="spacing" textLength="69" x="211.5" y="528.4659">Validacion</text></g><g id="Borrador"><rect fill="#F1F1F1" height="50" rx="12.5" ry="12.5" style="stroke:#181818;stroke-width:0.5;" width="80" x="391" y="676"/><line style="stroke:#181818;stroke-width:0.5;" x1="391" x2="471" y1="705.0679" y2="705.0679"/><text fill="#000000" font-family="sans-serif" font-size="14" lengthAdjust="spacing" textLength="60" x="401" y="695.9659">Borrador</text></g><g id="Pendiente"><rect fill="#F1F1F1" height="50" rx="12.5" ry="12.5" style="stroke:#181818;stroke-width:0.5;" width="88" x="7" y="676"/><line style="stroke:#181818;stroke-width:0.5;" x1="7" x2="95" y1="705.0679" y2="705.0679"/><text fill="#000000" font-family="sans-serif" font-size="14" lengthAdjust="spacing" textLength="68" x="17" y="695.9659">Pendiente</text></g><!--link *start* to Nueva--><g id="link_*start*_Nueva"><path d="M427,26.35 C427,46.32 427,87.68 427,116.77 " fill="none" id="*start*-to-Nueva" style="stroke:#181818;stroke-width:1.0;"/><polygon fill="#181818" points="427,122.77,431,113.77,427,117.77,423,113.77,427,122.77" style="stroke:#181818;stroke-width:1.0;"/><path d="M432,61 L432,88 L646,88 L646,71 L636,61 L432,61 " fill="#FEFFDD" style="stroke:#181818;stroke-width:0.5;"/><path d="M636,61 L636,71 L646,71 L636,61 " fill="#FEFFDD" style="stroke:#181818;stroke-width:0.5;"/><text fill="#000000" font-family="sans-serif" font-size="13" lengthAdjust="spacing" textLength="193" x="438" y="79.897">Miembro inicia creaci&#243;n de tarea</text></g><!--link Nueva to EnEdicion--><g id="link_Nueva_EnEdicion"><path d="M427,173.05 C427,203.87 427,250.98 427,281.85 " fill="none" id="Nueva-to-EnEdicion" style="stroke:#181818;stroke-width:1.0;"/><polygon fill="#181818" points="427,287.85,431,278.85,427,282.85,423,278.85,427,287.85" style="stroke:#181818;stroke-width:1.0;"/><path d="M432,208 L432,253 L622,253 L622,218 L612,208 L432,208 " fill="#FEFFDD" style="stroke:#181818;stroke-width:0.5;"/><path d="M612,208 L612,218 L622,218 L612,208 " fill="#FEFFDD" style="stroke:#181818;stroke-width:0.5;"/><text fill="#000000" font-family="sans-serif" font-size="13" lengthAdjust="spacing" textLength="169" x="438" y="226.897">Sistema presenta formulario</text><text fill="#000000" font-family="sans-serif" font-size="13" lengthAdjust="spacing" textLength="89" x="438" y="244.603">de nueva tarea</text></g><!--link EnEdicion to Validacion--><g id="link_EnEdicion_Validacion"><path d="M383.52,318.61 C326.71,325.63 231.99,341.11 211,368 C181.46,405.83 197.86,429.83 211,476 C214.25,487.43 217.2133,493.8233 223.5833,503.3433 " fill="none" id="EnEdicion-to-Validacion" style="stroke:#181818;stroke-width:1.0;"/><polygon fill="#181818" points="226.92,508.33,225.2394,498.6256,224.1395,504.1745,218.5906,503.0745,226.92,508.33" style="stroke:#181818;stroke-width:1.0;"/><path d="M216,373 L216,471 L379,471 L379,383 L369,373 L216,373 " fill="#FEFFDD" style="stroke:#181818;stroke-width:0.5;"/><path d="M369,373 L369,383 L379,383 L369,373 " fill="#FEFFDD" style="stroke:#181818;stroke-width:0.5;"/><text fill="#000000" font-family="sans-serif" font-size="13" lengthAdjust="spacing" textLength="142" x="222" y="391.897">Miembro ingresa datos:</text><text fill="#000000" font-family="sans-serif" font-size="13" lengthAdjust="spacing" textLength="41" x="222" y="409.603">- T&#237;tulo</text><text fill="#000000" font-family="sans-serif" font-size="13" lengthAdjust="spacing" textLength="76" x="222" y="427.309">- Descripci&#243;n</text><text fill="#000000" font-family="sans-serif" font-size="13" lengthAdjust="spacing" textLength="78" x="222" y="445.0151">- Fecha l&#237;mite</text><text fill="#000000" font-family="sans-serif" font-size="13" lengthAdjust="spacing" textLength="62" x="222" y="462.7211">- Prioridad</text></g><!--link Validacion to EnEdicion--><g id="link_Validacion_EnEdicion"><path d="M290.72,525.8 C322.33,518.74 363.32,504.47 388,476 C405.76,455.51 417.6115,384.0739 423.1115,344.1339 " fill="none" id="Validacion-to-EnEdicion" style="stroke:#181818;stroke-width:1.0;"/><polygon fill="#181818" points="423.93,338.19,418.7396,346.5602,423.2479,343.1433,426.6648,347.6515,423.93,338.19" style="stroke:#181818;stroke-width:1.0;"/><path d="M423,399.5 L423,444.5 L585,444.5 L585,409.5 L575,399.5 L423,399.5 " fill="#FEFFDD" style="stroke:#181818;stroke-width:0.5;"/><path d="M575,399.5 L575,409.5 L585,409.5 L575,399.5 " fill="#FEFFDD" style="stroke:#181818;stroke-width:0.5;"/><text fill="#000000" font-family="sans-serif" font-size="13" lengthAdjust="spacing" textLength="132" x="429" y="418.397">Sistema detecta datos</text><text fill="#000000" font-family="sans-serif" font-size="13" lengthAdjust="spacing" textLength="141" x="429" y="436.103">incompletos o inv&#225;lidos</text></g><!--link Validacion to Borrador--><g id="link_Validacion_Borrador"><path d="M290.71,541.61 C322.79,548.9 364.97,563.26 392,591 C414.59,614.17 423.2158,645.3896 427.2258,669.7596 " fill="none" id="Validacion-to-Borrador" style="stroke:#181818;stroke-width:1.0;"/><polygon fill="#181818" points="428.2,675.68,430.6857,666.15,427.3882,670.7463,422.7918,667.4489,428.2,675.68" style="stroke:#181818;stroke-width:1.0;"/><path d="M426,596 L426,641 L584,641 L584,606 L574,596 L426,596 " fill="#FEFFDD" style="stroke:#181818;stroke-width:0.5;"/><path d="M574,596 L574,606 L584,606 L574,596 " fill="#FEFFDD" style="stroke:#181818;stroke-width:0.5;"/><text fill="#000000" font-family="sans-serif" font-size="13" lengthAdjust="spacing" textLength="137" x="432" y="614.897">Miembro elige guardar</text><text fill="#000000" font-family="sans-serif" font-size="13" lengthAdjust="spacing" textLength="91" x="432" y="632.603">como borrador</text></g><!--link Borrador to Validacion--><g id="link_Borrador_Validacion"><path d="M390.99,694.46 C340.3,686.52 257.3,670.15 239,646 C220.14,621.11 225.8567,589.1167 234.1167,564.5667 " fill="none" id="Borrador-to-Validacion" style="stroke:#181818;stroke-width:1.0;"/><polygon fill="#181818" points="236.03,558.88,229.3688,566.1346,234.4355,563.619,236.9512,568.6857,236.03,558.88" style="stroke:#181818;stroke-width:1.0;"/><path d="M244,596 L244,641 L379,641 L379,606 L369,596 L244,596 " fill="#FEFFDD" style="stroke:#181818;stroke-width:0.5;"/><path d="M369,596 L369,606 L379,606 L369,596 " fill="#FEFFDD" style="stroke:#181818;stroke-width:0.5;"/><text fill="#000000" font-family="sans-serif" font-size="13" lengthAdjust="spacing" textLength="114" x="250" y="614.897">Miembro completa</text><text fill="#000000" font-family="sans-serif" font-size="13" lengthAdjust="spacing" textLength="100" x="250" y="632.603">datos para env&#237;o</text></g><!--link Validacion to Pendiente--><g id="link_Validacion_Pendiente"><path d="M201.43,535.48 C159.54,538.97 98.43,551.15 65,591 C45.26,614.53 44.2215,645.6089 46.6115,669.8589 " fill="none" id="Validacion-to-Pendiente" style="stroke:#181818;stroke-width:1.0;"/><polygon fill="#181818" points="47.2,675.83,50.298,666.4811,46.7096,670.8541,42.3366,667.2657,47.2,675.83" style="stroke:#181818;stroke-width:1.0;"/><path d="M70,596 L70,641 L215,641 L215,606 L205,596 L70,596 " fill="#FEFFDD" style="stroke:#181818;stroke-width:0.5;"/><path d="M205,596 L205,606 L215,606 L205,596 " fill="#FEFFDD" style="stroke:#181818;stroke-width:0.5;"/><text fill="#000000" font-family="sans-serif" font-size="13" lengthAdjust="spacing" textLength="124" x="76" y="614.897">Miembro env&#237;a tarea</text><text fill="#000000" font-family="sans-serif" font-size="13" lengthAdjust="spacing" textLength="94" x="76" y="632.603">para asignaci&#243;n</text></g><!--link Borrador to EnEdicion--><g id="link_Borrador_EnEdicion"><path d="M471.09,699.46 C510.34,696.53 568.3,685.27 597,646 C622.15,611.58 615,391.2 598,368 C568.92,328.32 516.5855,317.4664 476.1955,314.6564 " fill="none" id="Borrador-to-EnEdicion" style="stroke:#181818;stroke-width:1.0;"/><polygon fill="#181818" points="470.21,314.24,478.9107,318.855,475.1979,314.587,479.4659,310.8743,470.21,314.24" style="stroke:#181818;stroke-width:1.0;"/><path d="M618,511 L618,556 L743,556 L743,521 L733,511 L618,511 " fill="#FEFFDD" style="stroke:#181818;stroke-width:0.5;"/><path d="M733,511 L733,521 L743,521 L733,511 " fill="#FEFFDD" style="stroke:#181818;stroke-width:0.5;"/><text fill="#000000" font-family="sans-serif" font-size="13" lengthAdjust="spacing" textLength="97" x="624" y="529.897">Miembro decide</text><text fill="#000000" font-family="sans-serif" font-size="13" lengthAdjust="spacing" textLength="104" x="624" y="547.603">continuar edici&#243;n</text></g><!--SRC=[ZP8nJiGm44Nxd69gfBq01GLYwK0hWMWGnQmzX17EE9euUnyEa8eZv69Cd8ImG63JsTz-_yzt7i-UOBEvWDkM3bX8J0HH8B2y5c3V3LErrmWix1Z1AQ7Z_bt04oIqLK7YORXM51cHOLlPUZiVvIVmZfj45KAjr90aXEUeLHjGEMRTk98vt-cVpEpmW84z_cwnP2xD1C5ZYirvbZPmttUf3N5QNL7ZbEiyqhHrJUu58VHTnMOxxkqidPgV_v9dIP03NKPLz57Nur3Wag1iKJrgLboi8kpdYwledIbiNT4VR3dqtTpP8DIe2DXmAUDxhTDFU2jFYLoQYimAYsMl0zaQXg8F_Pj1JLnivaB-Cvb7yEJOqzIB91Oh2cYuTHp_Y7lARp0b7Nl98upjvCxYGlu0]--></g></svg>