<?xml version="1.0" encoding="us-ascii" standalone="no"?><svg xmlns="http://www.w3.org/2000/svg" xmlns:xlink="http://www.w3.org/1999/xlink" contentStyleType="text/css" height="768px" preserveAspectRatio="none" style="width:792px;height:768px;background:#FFFFFF;" version="1.1" viewBox="0 0 792 768" width="792px" zoomAndPan="magnify"><defs/><g><ellipse cx="349.92" cy="16" fill="#222222" rx="10" ry="10" style="stroke:#222222;stroke-width:1.0;"/><g id="Nueva"><rect fill="#F1F1F1" height="50" rx="12.5" ry="12.5" style="stroke:#181818;stroke-width:0.5;" width="63" x="318.42" y="141"/><line style="stroke:#181818;stroke-width:0.5;" x1="318.42" x2="381.42" y1="170.0679" y2="170.0679"/><text fill="#000000" font-family="sans-serif" font-size="14" lengthAdjust="spacing" textLength="43" x="328.42" y="160.9659">Nueva</text></g><g id="EnEdicion"><rect fill="#F1F1F1" height="50" rx="12.5" ry="12.5" style="stroke:#181818;stroke-width:0.5;" width="86" x="306.92" y="306"/><line style="stroke:#181818;stroke-width:0.5;" x1="306.92" x2="392.92" y1="335.0679" y2="335.0679"/><text fill="#000000" font-family="sans-serif" font-size="14" lengthAdjust="spacing" textLength="66" x="316.92" y="325.9659">EnEdicion</text></g><g id="Validacion"><rect fill="#F1F1F1" height="50" rx="12.5" ry="12.5" style="stroke:#181818;stroke-width:0.5;" width="89" x="120.42" y="526.5"/><line style="stroke:#181818;stroke-width:0.5;" x1="120.42" x2="209.42" y1="555.5679" y2="555.5679"/><text fill="#000000" font-family="sans-serif" font-size="14" lengthAdjust="spacing" textLength="69" x="130.42" y="546.4659">Validacion</text></g><g id="Borrador"><rect fill="#F1F1F1" height="50" rx="12.5" ry="12.5" style="stroke:#181818;stroke-width:0.5;" width="80" x="407.92" y="712"/><line style="stroke:#181818;stroke-width:0.5;" x1="407.92" x2="487.92" y1="741.0679" y2="741.0679"/><text fill="#000000" font-family="sans-serif" font-size="14" lengthAdjust="spacing" textLength="60" x="417.92" y="731.9659">Borrador</text></g><g id="Pendiente"><rect fill="#F1F1F1" height="50" rx="12.5" ry="12.5" style="stroke:#181818;stroke-width:0.5;" width="88" x="34.92" y="712"/><line style="stroke:#181818;stroke-width:0.5;" x1="34.92" x2="122.92" y1="741.0679" y2="741.0679"/><text fill="#000000" font-family="sans-serif" font-size="14" lengthAdjust="spacing" textLength="68" x="44.92" y="731.9659">Pendiente</text></g><!--link *start* to Nueva--><g id="link_*start*_Nueva"><path d="M349.92,26.26 C349.92,48.85 349.92,101.39 349.92,134.76 " fill="none" id="*start*-to-Nueva" style="stroke:#181818;stroke-width:1.0;"/><polygon fill="#181818" points="349.92,140.76,353.92,131.76,349.92,135.76,345.92,131.76,349.92,140.76" style="stroke:#181818;stroke-width:1.0;"/><path d="M354.92,61 L354.92,106 L516.92,106 L516.92,71 L506.92,61 L354.92,61 " fill="#FEFFDD" style="stroke:#181818;stroke-width:0.5;"/><path d="M506.92,61 L506.92,71 L516.92,71 L506.92,61 " fill="#FEFFDD" style="stroke:#181818;stroke-width:0.5;"/><text fill="#000000" font-family="sans-serif" font-size="13" lengthAdjust="spacing" textLength="137" x="360.92" y="79.897">Miembro solicita iniciar</text><text fill="#000000" font-family="sans-serif" font-size="13" lengthAdjust="spacing" textLength="141" x="360.92" y="97.603">la creaci&#243;n de una tarea</text></g><!--link Nueva to EnEdicion--><g id="link_Nueva_EnEdicion"><path d="M349.92,191.05 C349.92,221.87 349.92,268.98 349.92,299.85 " fill="none" id="Nueva-to-EnEdicion" style="stroke:#181818;stroke-width:1.0;"/><polygon fill="#181818" points="349.92,305.85,353.92,296.85,349.92,300.85,345.92,296.85,349.92,305.85" style="stroke:#181818;stroke-width:1.0;"/><path d="M354.92,226 L354.92,271 L544.92,271 L544.92,236 L534.92,226 L354.92,226 " fill="#FEFFDD" style="stroke:#181818;stroke-width:0.5;"/><path d="M534.92,226 L534.92,236 L544.92,236 L534.92,226 " fill="#FEFFDD" style="stroke:#181818;stroke-width:0.5;"/><text fill="#000000" font-family="sans-serif" font-size="13" lengthAdjust="spacing" textLength="169" x="360.92" y="244.897">Sistema presenta formulario</text><text fill="#000000" font-family="sans-serif" font-size="13" lengthAdjust="spacing" textLength="89" x="360.92" y="262.603">de nueva tarea</text></g><!--link EnEdicion to Validacion--><g id="link_EnEdicion_Validacion"><path d="M306.8,332.87 C229.2,335.43 70.93,345.62 36.92,386 C6,422.71 10.71,453.79 36.92,494 C55.29,522.19 85.4115,534.9859 114.5515,542.1059 " fill="none" id="EnEdicion-to-Validacion" style="stroke:#181818;stroke-width:1.0;"/><polygon fill="#181818" points="120.38,543.53,112.5866,537.5081,115.5229,542.3432,110.6878,545.2795,120.38,543.53" style="stroke:#181818;stroke-width:1.0;"/><path d="M41.92,391 L41.92,489 L204.92,489 L204.92,401 L194.92,391 L41.92,391 " fill="#FEFFDD" style="stroke:#181818;stroke-width:0.5;"/><path d="M194.92,391 L194.92,401 L204.92,401 L194.92,391 " fill="#FEFFDD" style="stroke:#181818;stroke-width:0.5;"/><text fill="#000000" font-family="sans-serif" font-size="13" lengthAdjust="spacing" textLength="142" x="47.92" y="409.897">Miembro ingresa datos:</text><text fill="#000000" font-family="sans-serif" font-size="13" lengthAdjust="spacing" textLength="41" x="47.92" y="427.603">- T&#237;tulo</text><text fill="#000000" font-family="sans-serif" font-size="13" lengthAdjust="spacing" textLength="76" x="47.92" y="445.309">- Descripci&#243;n</text><text fill="#000000" font-family="sans-serif" font-size="13" lengthAdjust="spacing" textLength="78" x="47.92" y="463.0151">- Fecha l&#237;mite</text><text fill="#000000" font-family="sans-serif" font-size="13" lengthAdjust="spacing" textLength="62" x="47.92" y="480.7211">- Prioridad</text></g><!--link Validacion to EnEdicion--><g id="link_Validacion_EnEdicion"><path d="M189.66,526.25 C198.25,516.81 207.36,505.51 213.92,494 C238.97,450.04 217.37,424.74 249.92,386 C264.83,368.25 281.6281,357.8364 301.3781,349.1464 " fill="none" id="Validacion-to-EnEdicion" style="stroke:#181818;stroke-width:1.0;"/><polygon fill="#181818" points="306.87,346.73,297.0212,346.6934,302.2934,348.7437,300.2431,354.0159,306.87,346.73" style="stroke:#181818;stroke-width:1.0;"/><path d="M254.92,408.5 L254.92,471.5 L416.92,471.5 L416.92,418.5 L406.92,408.5 L254.92,408.5 " fill="#FEFFDD" style="stroke:#181818;stroke-width:0.5;"/><path d="M406.92,408.5 L406.92,418.5 L416.92,418.5 L406.92,408.5 " fill="#FEFFDD" style="stroke:#181818;stroke-width:0.5;"/><text fill="#000000" font-family="sans-serif" font-size="13" lengthAdjust="spacing" textLength="100" x="260.92" y="427.397">Sistema muestra</text><text fill="#000000" font-family="sans-serif" font-size="13" lengthAdjust="spacing" textLength="85" x="260.92" y="445.103">que hay datos</text><text fill="#000000" font-family="sans-serif" font-size="13" lengthAdjust="spacing" textLength="141" x="260.92" y="462.809">incompletos o inv&#225;lidos</text></g><!--link Validacion to Borrador--><g id="link_Validacion_Borrador"><path d="M187.82,576.77 C196.27,586.39 205.57,597.81 212.92,609 C232.78,639.24 220.99,659.01 248.92,682 C294.52,719.54 358.0291,730.6416 401.6591,734.1316 " fill="none" id="Validacion-to-Borrador" style="stroke:#181818;stroke-width:1.0;"/><polygon fill="#181818" points="407.64,734.61,398.9876,729.9051,402.6559,734.2113,398.3497,737.8796,407.64,734.61" style="stroke:#181818;stroke-width:1.0;"/><path d="M253.92,623 L253.92,668 L416.92,668 L416.92,633 L406.92,623 L253.92,623 " fill="#FEFFDD" style="stroke:#181818;stroke-width:0.5;"/><path d="M406.92,623 L406.92,633 L416.92,633 L406.92,623 " fill="#FEFFDD" style="stroke:#181818;stroke-width:0.5;"/><text fill="#000000" font-family="sans-serif" font-size="13" lengthAdjust="spacing" textLength="99" x="259.92" y="641.897">Miembro solicita</text><text fill="#000000" font-family="sans-serif" font-size="13" lengthAdjust="spacing" textLength="142" x="259.92" y="659.603">guardar como borrador</text></g><!--link EnEdicion to Borrador--><g id="link_EnEdicion_Borrador"><path d="M393.01,353 C405.78,361.44 418.36,372.42 425.92,386 C486.32,494.52 465.5555,646.4465 454.1655,706.0865 " fill="none" id="EnEdicion-to-Borrador" style="stroke:#181818;stroke-width:1.0;"/><polygon fill="#181818" points="453.04,711.98,458.6573,703.8901,453.9779,707.0688,450.7993,702.3894,453.04,711.98" style="stroke:#181818;stroke-width:1.0;"/><path d="M471.92,529 L471.92,574 L634.92,574 L634.92,539 L624.92,529 L471.92,529 " fill="#FEFFDD" style="stroke:#181818;stroke-width:0.5;"/><path d="M624.92,529 L624.92,539 L634.92,539 L624.92,529 " fill="#FEFFDD" style="stroke:#181818;stroke-width:0.5;"/><text fill="#000000" font-family="sans-serif" font-size="13" lengthAdjust="spacing" textLength="99" x="477.92" y="547.897">Miembro solicita</text><text fill="#000000" font-family="sans-serif" font-size="13" lengthAdjust="spacing" textLength="142" x="477.92" y="565.603">guardar como borrador</text></g><!--link Borrador to EnEdicion--><g id="link_Borrador_EnEdicion"><path d="M488,718.85 C557.84,686.28 690.5,610.9 647.92,524 C597.48,421.07 468.4168,368.1017 398.7168,345.8917 " fill="none" id="Borrador-to-EnEdicion" style="stroke:#181818;stroke-width:1.0;"/><polygon fill="#181818" points="393,344.07,400.3607,350.6137,397.764,345.588,402.7896,342.9913,393,344.07" style="stroke:#181818;stroke-width:1.0;"/><path d="M660.92,529 L660.92,574 L785.92,574 L785.92,539 L775.92,529 L660.92,529 " fill="#FEFFDD" style="stroke:#181818;stroke-width:0.5;"/><path d="M775.92,529 L775.92,539 L785.92,539 L775.92,529 " fill="#FEFFDD" style="stroke:#181818;stroke-width:0.5;"/><text fill="#000000" font-family="sans-serif" font-size="13" lengthAdjust="spacing" textLength="99" x="666.92" y="547.897">Miembro solicita</text><text fill="#000000" font-family="sans-serif" font-size="13" lengthAdjust="spacing" textLength="104" x="666.92" y="565.603">continuar edici&#243;n</text></g><!--link Validacion to Pendiente--><g id="link_Validacion_Pendiente"><path d="M120.09,569.7 C103.09,578.68 85.53,591.52 75.92,609 C58.28,641.08 63.3187,679.1407 70.0687,706.0207 " fill="none" id="Validacion-to-Pendiente" style="stroke:#181818;stroke-width:1.0;"/><polygon fill="#181818" points="71.53,711.84,73.2176,702.1368,70.3122,706.9906,65.4585,704.0852,71.53,711.84" style="stroke:#181818;stroke-width:1.0;"/><path d="M80.92,614 L80.92,677 L203.92,677 L203.92,624 L193.92,614 L80.92,614 " fill="#FEFFDD" style="stroke:#181818;stroke-width:0.5;"/><path d="M193.92,614 L193.92,624 L203.92,624 L193.92,614 " fill="#FEFFDD" style="stroke:#181818;stroke-width:0.5;"/><text fill="#000000" font-family="sans-serif" font-size="13" lengthAdjust="spacing" textLength="99" x="86.92" y="632.897">Miembro solicita</text><text fill="#000000" font-family="sans-serif" font-size="13" lengthAdjust="spacing" textLength="71" x="86.92" y="650.603">env&#237;ar tarea</text><text fill="#000000" font-family="sans-serif" font-size="13" lengthAdjust="spacing" textLength="94" x="86.92" y="668.309">para asignaci&#243;n</text></g><!--SRC=[hP91JWCn34NtSmglaNe15YmGPGUg1Ee6iN0JqrfadC59Ad4S3j0LHvYBuScq50eLNJ2RKRwL__pjF9mzmcHo0RU5rjX8p0HH8B0yDs3V3LExq0Wf1dQS4LZiZrgB0S4feUF-NS0J5478Q4f3uc7mQfhgMmbJcNgx6-KdvOvJfXQXKqeaHdcAsfQ0oh7MpLkgpw7xfsSbp36mnzyHko0iIuCWUCmndTVI1ExxJIuXRazNb9noLsDjfMjoAuJGRresxAZDh3irdl_Ipxw3sj1bL4KVzOIvLdLPK3qgkDX6MEmk7ulxt-w7tS-inBOEEXL0ikut1XYtD2WTAW8cNihuIewFweJNqHPAMRUibqAmmjTnZrLXiM1T83l3iETr_sO4A-wPkudzHJoCLqKN9RFO3866Uz_JV000]--></g></svg>