<?xml version="1.0" encoding="us-ascii" standalone="no"?><svg xmlns="http://www.w3.org/2000/svg" xmlns:xlink="http://www.w3.org/1999/xlink" contentStyleType="text/css" height="341px" preserveAspectRatio="none" style="width:168px;height:341px;background:#FFFFFF;" version="1.1" viewBox="0 0 168 341" width="168px" zoomAndPan="magnify"><defs/><g><!--class Usuario--><g id="elem_Usuario"><rect codeLine="2" fill="#F1F1F1" height="105.2038" id="Usuario" rx="2.5" ry="2.5" style="stroke:#181818;stroke-width:0.5;" width="84" x="38" y="7"/><ellipse cx="53" cy="23" fill="#ADD1B2" rx="11" ry="11" style="stroke:#181818;stroke-width:1.0;"/><path d="M55.9688,28.6406 Q55.3906,28.9375 54.75,29.0781 Q54.1094,29.2344 53.4063,29.2344 Q50.9063,29.2344 49.5781,27.5938 Q48.2656,25.9375 48.2656,22.8125 Q48.2656,19.6875 49.5781,18.0313 Q50.9063,16.375 53.4063,16.375 Q54.1094,16.375 54.75,16.5313 Q55.4063,16.6875 55.9688,16.9844 L55.9688,19.7031 Q55.3438,19.125 54.75,18.8594 Q54.1563,18.5781 53.5313,18.5781 Q52.1875,18.5781 51.5,19.6563 Q50.8125,20.7188 50.8125,22.8125 Q50.8125,24.9063 51.5,25.9844 Q52.1875,27.0469 53.5313,27.0469 Q54.1563,27.0469 54.75,26.7813 Q55.3438,26.5 55.9688,25.9219 L55.9688,28.6406 Z " fill="#000000"/><text fill="#000000" font-family="sans-serif" font-size="14" lengthAdjust="spacing" textLength="52" x="67" y="28.432">Usuario</text><line style="stroke:#181818;stroke-width:0.5;" x1="39" x2="121" y1="39" y2="39"/><rect fill="none" height="6" style="stroke:#C82930;stroke-width:1.0;" width="6" x="46" y="51.034"/><text fill="#000000" font-family="sans-serif" font-size="14" lengthAdjust="spacing" textLength="53" x="58" y="57.9659">nombre</text><rect fill="none" height="6" style="stroke:#C82930;stroke-width:1.0;" width="6" x="46" y="70.1019"/><text fill="#000000" font-family="sans-serif" font-size="14" lengthAdjust="spacing" textLength="37" x="58" y="77.0339">email</text><rect fill="none" height="6" style="stroke:#C82930;stroke-width:1.0;" width="6" x="46" y="89.1698"/><text fill="#000000" font-family="sans-serif" font-size="14" lengthAdjust="spacing" textLength="18" x="58" y="96.1018">rol</text><line style="stroke:#181818;stroke-width:0.5;" x1="39" x2="121" y1="104.2038" y2="104.2038"/></g><!--class Tarea--><g id="elem_Tarea"><rect codeLine="8" fill="#F1F1F1" height="143.3396" id="Tarea" rx="2.5" ry="2.5" style="stroke:#181818;stroke-width:0.5;" width="146" x="7" y="191"/><ellipse cx="56.75" cy="207" fill="#ADD1B2" rx="11" ry="11" style="stroke:#181818;stroke-width:1.0;"/><path d="M59.7188,212.6406 Q59.1406,212.9375 58.5,213.0781 Q57.8594,213.2344 57.1563,213.2344 Q54.6563,213.2344 53.3281,211.5938 Q52.0156,209.9375 52.0156,206.8125 Q52.0156,203.6875 53.3281,202.0313 Q54.6563,200.375 57.1563,200.375 Q57.8594,200.375 58.5,200.5313 Q59.1563,200.6875 59.7188,200.9844 L59.7188,203.7031 Q59.0938,203.125 58.5,202.8594 Q57.9063,202.5781 57.2813,202.5781 Q55.9375,202.5781 55.25,203.6563 Q54.5625,204.7188 54.5625,206.8125 Q54.5625,208.9063 55.25,209.9844 Q55.9375,211.0469 57.2813,211.0469 Q57.9063,211.0469 58.5,210.7813 Q59.0938,210.5 59.7188,209.9219 L59.7188,212.6406 Z " fill="#000000"/><text fill="#000000" font-family="sans-serif" font-size="14" lengthAdjust="spacing" textLength="38" x="77.25" y="212.432">Tarea</text><line style="stroke:#181818;stroke-width:0.5;" x1="8" x2="152" y1="223" y2="223"/><rect fill="none" height="6" style="stroke:#C82930;stroke-width:1.0;" width="6" x="15" y="235.034"/><text fill="#000000" font-family="sans-serif" font-size="14" lengthAdjust="spacing" textLength="35" x="27" y="241.9659">titulo</text><rect fill="none" height="6" style="stroke:#C82930;stroke-width:1.0;" width="6" x="15" y="254.1019"/><text fill="#000000" font-family="sans-serif" font-size="14" lengthAdjust="spacing" textLength="78" x="27" y="261.0339">descripcion</text><rect fill="none" height="6" style="stroke:#C82930;stroke-width:1.0;" width="6" x="15" y="273.1698"/><text fill="#000000" font-family="sans-serif" font-size="14" lengthAdjust="spacing" textLength="96" x="27" y="280.1018">fechaCreacion</text><rect fill="none" height="6" style="stroke:#C82930;stroke-width:1.0;" width="6" x="15" y="292.2377"/><text fill="#000000" font-family="sans-serif" font-size="14" lengthAdjust="spacing" textLength="120" x="27" y="299.1697">fechaVencimiento</text><rect fill="none" height="6" style="stroke:#C82930;stroke-width:1.0;" width="6" x="15" y="311.3056"/><text fill="#000000" font-family="sans-serif" font-size="14" lengthAdjust="spacing" textLength="45" x="27" y="318.2376">estado</text><line style="stroke:#181818;stroke-width:0.5;" x1="8" x2="152" y1="326.3396" y2="326.3396"/></g><!--link Usuario to Tarea--><g id="link_Usuario_Tarea"><path codeLine="16" d="M48.08,112.05 C43.5,121.68 39.5,131.91 37,142 C33.03,158.05 35.07,174.95 39.95,190.83 " fill="none" id="Usuario-Tarea" style="stroke:#181818;stroke-width:1.0;"/><polygon fill="#000000" points="41.4867,156.8266,45.3386,148.131,39.4918,147.5276,41.4867,156.8266" style="stroke:#000000;stroke-width:1.0;"/><text fill="#000000" font-family="sans-serif" font-size="13" lengthAdjust="spacing" textLength="25" x="51" y="156.897">crea</text><text fill="#000000" font-family="sans-serif" font-size="13" lengthAdjust="spacing" textLength="7" x="36.3204" y="134.1844">1</text><text fill="#000000" font-family="sans-serif" font-size="13" lengthAdjust="spacing" textLength="7" x="28.1867" y="178.9785">*</text></g><!--link Usuario to Tarea--><g id="link_Usuario_Tarea"><path codeLine="17" d="M80.73,112.24 C80.84,122.12 80.94,132.38 81,142 C81.1,157.77 81.05,174.71 80.93,190.73 " fill="none" id="Usuario-Tarea-1" style="stroke:#181818;stroke-width:1.0;"/><polygon fill="#000000" points="86.0127,156.853,88.9286,147.8004,83.0508,147.8154,86.0127,156.853" style="stroke:#000000;stroke-width:1.0;"/><text fill="#000000" font-family="sans-serif" font-size="13" lengthAdjust="spacing" textLength="65" x="95" y="156.897">asignado a</text><text fill="#000000" font-family="sans-serif" font-size="13" lengthAdjust="spacing" textLength="7" x="73.3751" y="134.0156">1</text><text fill="#000000" font-family="sans-serif" font-size="13" lengthAdjust="spacing" textLength="7" x="73.665" y="179.3681">*</text></g><!--SRC=[VOwn3i8m34JtV8ML4Ia3AmCBlm3inZLWAObHd4we_qv2seK1BtuwtVbC4StWOZCMKNWxQ1EofblXmPnGui2YqItEqJToniAu1QhKEUhWYOsAl4Wq3-7EzCHJS_z8LyuaIJZNDSbMST9UiVtZznv20B_pQzy1gA_ZFmUQF78x1Dtt0G00]--></g></svg>