<?xml version="1.0" encoding="us-ascii" standalone="no"?><svg xmlns="http://www.w3.org/2000/svg" xmlns:xlink="http://www.w3.org/1999/xlink" contentStyleType="text/css" height="664px" preserveAspectRatio="none" style="width:290px;height:664px;background:#FFFFFF;" version="1.1" viewBox="0 0 290 664" width="290px" zoomAndPan="magnify"><defs/><g><ellipse cx="251.5" cy="16" fill="#222222" rx="10" ry="10" style="stroke:#222222;stroke-width:1.0;"/><g id="Nueva"><rect fill="#F1F1F1" height="50" rx="12.5" ry="12.5" style="stroke:#181818;stroke-width:0.5;" width="63" x="220" y="86"/><line style="stroke:#181818;stroke-width:0.5;" x1="220" x2="283" y1="115.0679" y2="115.0679"/><text fill="#000000" font-family="sans-serif" font-size="14" lengthAdjust="spacing" textLength="43" x="230" y="105.9659">Nueva</text></g><g id="Asignada"><rect fill="#F1F1F1" height="50" rx="12.5" ry="12.5" style="stroke:#181818;stroke-width:0.5;" width="83" x="163" y="196"/><line style="stroke:#181818;stroke-width:0.5;" x1="163" x2="246" y1="225.0679" y2="225.0679"/><text fill="#000000" font-family="sans-serif" font-size="14" lengthAdjust="spacing" textLength="63" x="173" y="215.9659">Asignada</text></g><g id="EnProgreso"><rect fill="#F1F1F1" height="50" rx="12.5" ry="12.5" style="stroke:#181818;stroke-width:0.5;" width="97" x="44" y="306"/><line style="stroke:#181818;stroke-width:0.5;" x1="44" x2="141" y1="335.0679" y2="335.0679"/><text fill="#000000" font-family="sans-serif" font-size="14" lengthAdjust="spacing" textLength="77" x="54" y="325.9659">EnProgreso</text></g><g id="EnRevision"><rect fill="#F1F1F1" height="50" rx="12.5" ry="12.5" style="stroke:#181818;stroke-width:0.5;" width="93" x="11" y="416"/><line style="stroke:#181818;stroke-width:0.5;" x1="11" x2="104" y1="445.0679" y2="445.0679"/><text fill="#000000" font-family="sans-serif" font-size="14" lengthAdjust="spacing" textLength="73" x="21" y="435.9659">EnRevision</text></g><g id="Completada"><rect fill="#F1F1F1" height="50" rx="12.5" ry="12.5" style="stroke:#181818;stroke-width:0.5;" width="101" x="7" y="526"/><line style="stroke:#181818;stroke-width:0.5;" x1="7" x2="108" y1="555.0679" y2="555.0679"/><text fill="#000000" font-family="sans-serif" font-size="14" lengthAdjust="spacing" textLength="81" x="17" y="545.9659">Completada</text></g><g id="Cancelada"><rect fill="#F1F1F1" height="50" rx="12.5" ry="12.5" style="stroke:#181818;stroke-width:0.5;" width="90" x="143.5" y="526"/><line style="stroke:#181818;stroke-width:0.5;" x1="143.5" x2="233.5" y1="555.0679" y2="555.0679"/><text fill="#000000" font-family="sans-serif" font-size="14" lengthAdjust="spacing" textLength="70" x="153.5" y="545.9659">Cancelada</text></g><ellipse cx="122.5" cy="647" fill="none" rx="11" ry="11" style="stroke:#222222;stroke-width:1.0;"/><ellipse cx="122.5" cy="647" fill="#222222" rx="6" ry="6" style="stroke:#222222;stroke-width:1.0;"/><!--link *start* to Nueva--><g id="link_*start*_Nueva"><path d="M251.5,26.26 C251.5,40.04 251.5,60.42 251.5,79.91 " fill="none" id="*start*-to-Nueva" style="stroke:#181818;stroke-width:1.0;"/><polygon fill="#181818" points="251.5,85.91,255.5,76.91,251.5,80.91,247.5,76.91,251.5,85.91" style="stroke:#181818;stroke-width:1.0;"/></g><!--link Nueva to Asignada--><g id="link_Nueva_Asignada"><path d="M240.95,136.24 C233.21,154.02 225.1345,172.5785 217.4045,190.3385 " fill="none" id="Nueva-to-Asignada" style="stroke:#181818;stroke-width:1.0;"/><polygon fill="#181818" points="215.01,195.84,222.2694,189.1841,217.0054,191.2554,214.9341,185.9914,215.01,195.84" style="stroke:#181818;stroke-width:1.0;"/></g><!--link Asignada to EnProgreso--><g id="link_Asignada_EnProgreso"><path d="M179.37,246.24 C160.92,264.02 140.3004,283.9166 121.8704,301.6766 " fill="none" id="Asignada-to-EnProgreso" style="stroke:#181818;stroke-width:1.0;"/><polygon fill="#181818" points="117.55,305.84,126.8063,302.4752,121.1504,302.3705,121.2551,296.7146,117.55,305.84" style="stroke:#181818;stroke-width:1.0;"/></g><!--link EnProgreso to EnRevision--><g id="link_EnProgreso_EnRevision"><path d="M73.8,356.24 C65.49,374.02 58.7639,392.1751 55.5639,409.9351 " fill="none" id="EnProgreso-to-EnRevision" style="stroke:#181818;stroke-width:1.0;"/><polygon fill="#181818" points="54.5,415.84,60.0325,407.6919,55.3866,410.9192,52.1593,406.2733,54.5,415.84" style="stroke:#181818;stroke-width:1.0;"/></g><!--link EnRevision to EnProgreso--><g id="link_EnRevision_EnProgreso"><path d="M76.8,415.84 C85.26,398.08 92.0391,379.9325 95.1091,362.1525 " fill="none" id="EnRevision-to-EnProgreso" style="stroke:#181818;stroke-width:1.0;"/><polygon fill="#181818" points="96.13,356.24,90.657,364.4282,95.2793,361.1671,98.5403,365.7894,96.13,356.24" style="stroke:#181818;stroke-width:1.0;"/></g><!--link EnRevision to Completada--><g id="link_EnRevision_Completada"><path d="M57.5,466.24 C57.5,484.02 57.5,502.08 57.5,519.84 " fill="none" id="EnRevision-to-Completada" style="stroke:#181818;stroke-width:1.0;"/><polygon fill="#181818" points="57.5,525.84,61.5,516.84,57.5,520.84,53.5,516.84,57.5,525.84" style="stroke:#181818;stroke-width:1.0;"/></g><!--link Nueva to Cancelada--><g id="link_Nueva_Cancelada"><path d="M256.41,136.22 C261.21,163.07 267.3,207.65 263.5,246 C253.67,345.23 246.62,370.05 219.5,466 C213.71,486.49 207.4655,503.538 200.8355,520.138 " fill="none" id="Nueva-to-Cancelada" style="stroke:#181818;stroke-width:1.0;"/><polygon fill="#181818" points="198.61,525.71,205.6629,518.8356,200.4645,521.0667,198.2335,515.8683,198.61,525.71" style="stroke:#181818;stroke-width:1.0;"/></g><!--link Asignada to Cancelada--><g id="link_Asignada_Cancelada"><path d="M203.32,246.12 C200.36,306.78 192.9322,459.1571 189.9722,519.8571 " fill="none" id="Asignada-to-Cancelada" style="stroke:#181818;stroke-width:1.0;"/><polygon fill="#181818" points="189.68,525.85,194.1136,517.0555,189.9235,520.8559,186.1231,516.6659,189.68,525.85" style="stroke:#181818;stroke-width:1.0;"/></g><!--link EnProgreso to Cancelada--><g id="link_EnProgreso_Cancelada"><path d="M103.14,356.16 C121.59,398.07 156.9126,478.2585 175.3926,520.2385 " fill="none" id="EnProgreso-to-Cancelada" style="stroke:#181818;stroke-width:1.0;"/><polygon fill="#181818" points="177.81,525.73,177.8449,515.8812,175.7955,521.1538,170.5229,519.1044,177.81,525.73" style="stroke:#181818;stroke-width:1.0;"/></g><!--link EnRevision to Cancelada--><g id="link_EnRevision_Cancelada"><path d="M86.9,466.24 C108.47,484.02 133.0198,504.2641 154.5698,522.0241 " fill="none" id="EnRevision-to-Cancelada" style="stroke:#181818;stroke-width:1.0;"/><polygon fill="#181818" points="159.2,525.84,154.7986,517.0293,155.3415,522.6601,149.7107,523.203,159.2,525.84" style="stroke:#181818;stroke-width:1.0;"/></g><!--link Completada to *end*--><g id="link_Completada_*end*"><path d="M74.24,576.21 C88.08,596.23 103.5479,618.5847 113.0679,632.3547 " fill="none" id="Completada-to-*end*" style="stroke:#181818;stroke-width:1.0;"/><polygon fill="#181818" points="116.48,637.29,114.6521,627.6123,113.6366,633.1772,108.0716,632.1617,116.48,637.29" style="stroke:#181818;stroke-width:1.0;"/></g><!--link Cancelada to *end*--><g id="link_Cancelada_*end*"><path d="M171.5,576.21 C157.45,596.23 141.7282,618.6098 132.0582,632.3798 " fill="none" id="Cancelada-to-*end*" style="stroke:#181818;stroke-width:1.0;"/><polygon fill="#181818" points="128.61,637.29,137.0557,632.2235,131.4835,633.1982,130.5088,627.6259,128.61,637.29" style="stroke:#181818;stroke-width:1.0;"/></g><!--SRC=[YzQALT3LjLFmAqqjIrJWueBG8177uipqlCGKe22S1H9spGieoaylIYtEL-12OaEaWbBBCeipy_D0Kd0sICevFxSW9xK4R1oQ5BA1IDOx9-Obf-PWseyaZcOzYWogxGWPBYINWAIYjMAv4D8m4G00]--></g></svg>