<?xml version="1.0" encoding="us-ascii" standalone="no"?><svg xmlns="http://www.w3.org/2000/svg" xmlns:xlink="http://www.w3.org/1999/xlink" contentStyleType="text/css" height="554px" preserveAspectRatio="none" style="width:323px;height:554px;background:#FFFFFF;" version="1.1" viewBox="0 0 323 554" width="323px" zoomAndPan="magnify"><defs/><g><ellipse cx="200" cy="16" fill="#222222" rx="10" ry="10" style="stroke:#222222;stroke-width:1.0;"/><g id="Pendiente"><rect fill="#F1F1F1" height="50" rx="12.5" ry="12.5" style="stroke:#181818;stroke-width:0.5;" width="88" x="156" y="86"/><line style="stroke:#181818;stroke-width:0.5;" x1="156" x2="244" y1="115.0679" y2="115.0679"/><text fill="#000000" font-family="sans-serif" font-size="14" lengthAdjust="spacing" textLength="68" x="166" y="105.9659">Pendiente</text></g><g id="Activo"><rect fill="#F1F1F1" height="50" rx="12.5" ry="12.5" style="stroke:#181818;stroke-width:0.5;" width="60" x="27" y="196"/><line style="stroke:#181818;stroke-width:0.5;" x1="27" x2="87" y1="225.0679" y2="225.0679"/><text fill="#000000" font-family="sans-serif" font-size="14" lengthAdjust="spacing" textLength="40" x="37" y="215.9659">Activo</text></g><g id="Suspendido"><rect fill="#F1F1F1" height="50" rx="12.5" ry="12.5" style="stroke:#181818;stroke-width:0.5;" width="100" x="7" y="306"/><line style="stroke:#181818;stroke-width:0.5;" x1="7" x2="107" y1="335.0679" y2="335.0679"/><text fill="#000000" font-family="sans-serif" font-size="14" lengthAdjust="spacing" textLength="80" x="17" y="325.9659">Suspendido</text></g><g id="Inactivo"><rect fill="#F1F1F1" height="50" rx="12.5" ry="12.5" style="stroke:#181818;stroke-width:0.5;" width="73" x="123.5" y="416"/><line style="stroke:#181818;stroke-width:0.5;" x1="123.5" x2="196.5" y1="445.0679" y2="445.0679"/><text fill="#000000" font-family="sans-serif" font-size="14" lengthAdjust="spacing" textLength="53" x="133.5" y="435.9659">Inactivo</text></g><ellipse cx="160" cy="537" fill="none" rx="11" ry="11" style="stroke:#222222;stroke-width:1.0;"/><ellipse cx="160" cy="537" fill="#222222" rx="6" ry="6" style="stroke:#222222;stroke-width:1.0;"/><g id="elem_GMN16"><path d="M122.5,198.5 L122.5,217 L87.27,221 L122.5,225 L122.5,243.912 A0,0 0 0 0 122.5,243.912 L289.5,243.912 A0,0 0 0 0 289.5,243.912 L289.5,208.5 L279.5,198.5 L122.5,198.5 A0,0 0 0 0 122.5,198.5 " fill="#FEFFDD" style="stroke:#181818;stroke-width:0.5;"/><path d="M279.5,198.5 L279.5,208.5 L289.5,208.5 L279.5,198.5 " fill="#FEFFDD" style="stroke:#181818;stroke-width:0.5;"/><text fill="#000000" font-family="sans-serif" font-size="13" lengthAdjust="spacing" textLength="126" x="128.5" y="217.397">Solo usuarios Activos</text><text fill="#000000" font-family="sans-serif" font-size="13" lengthAdjust="spacing" textLength="146" x="128.5" y="235.103">pueden realizar acciones</text></g><!--link *start* to Pendiente--><g id="link_*start*_Pendiente"><path d="M200,26.26 C200,40.04 200,60.42 200,79.91 " fill="none" id="*start*-to-Pendiente" style="stroke:#181818;stroke-width:1.0;"/><polygon fill="#181818" points="200,85.91,204,76.91,200,80.91,196,76.91,200,85.91" style="stroke:#181818;stroke-width:1.0;"/></g><!--link Pendiente to Activo--><g id="link_Pendiente_Activo"><path d="M167.91,136.24 C143.7,154.52 115.5081,175.8142 91.8181,193.7042 " fill="none" id="Pendiente-to-Activo" style="stroke:#181818;stroke-width:1.0;"/><polygon fill="#181818" points="87.03,197.32,96.6227,195.0883,91.0201,194.3068,91.8016,188.7042,87.03,197.32" style="stroke:#181818;stroke-width:1.0;"/></g><!--link Activo to Suspendido--><g id="link_Activo_Suspendido"><path d="M46.16,246.24 C43.61,264.02 42.754,282.1414 45.314,299.9014 " fill="none" id="Activo-to-Suspendido" style="stroke:#181818;stroke-width:1.0;"/><polygon fill="#181818" points="46.17,305.84,48.8451,296.3614,45.4567,300.8911,40.9269,297.5027,46.17,305.84" style="stroke:#181818;stroke-width:1.0;"/></g><!--link Suspendido to Activo--><g id="link_Suspendido_Activo"><path d="M68.47,305.84 C71.17,288.08 72.0808,269.952 69.3808,252.172 " fill="none" id="Suspendido-to-Activo" style="stroke:#181818;stroke-width:1.0;"/><polygon fill="#181818" points="68.48,246.24,65.8766,255.7385,69.2307,251.1833,73.7859,254.5375,68.48,246.24" style="stroke:#181818;stroke-width:1.0;"/></g><!--link Activo to Inactivo--><g id="link_Activo_Inactivo"><path d="M80.79,246.2 C95.16,262.05 112.81,283.86 124,306 C142.14,341.9 150.9429,382.0718 155.5629,409.7718 " fill="none" id="Activo-to-Inactivo" style="stroke:#181818;stroke-width:1.0;"/><polygon fill="#181818" points="156.55,415.69,159.0149,406.1546,155.7274,410.7581,151.1239,407.4707,156.55,415.69" style="stroke:#181818;stroke-width:1.0;"/></g><!--link Suspendido to Inactivo--><g id="link_Suspendido_Inactivo"><path d="M80.12,356.24 C97.08,374.02 115.8788,393.7383 132.8188,411.4983 " fill="none" id="Suspendido-to-Inactivo" style="stroke:#181818;stroke-width:1.0;"/><polygon fill="#181818" points="136.96,415.84,133.6426,406.5667,133.509,412.2219,127.8537,412.0883,136.96,415.84" style="stroke:#181818;stroke-width:1.0;"/></g><!--link Pendiente to Inactivo--><g id="link_Pendiente_Inactivo"><path d="M244.14,133.94 C267.45,148.14 293.88,169.03 307,196 C316.72,215.98 314.08,224.94 307,246 C283.24,316.7 226.7154,377.9926 191.1954,411.8126 " fill="none" id="Pendiente-to-Inactivo" style="stroke:#181818;stroke-width:1.0;"/><polygon fill="#181818" points="186.85,415.95,196.1263,412.6408,190.4711,412.5022,190.6098,406.847,186.85,415.95" style="stroke:#181818;stroke-width:1.0;"/></g><!--link Inactivo to *end*--><g id="link_Inactivo_*end*"><path d="M160,466.21 C160,485.57 160,505.75 160,519.9 " fill="none" id="Inactivo-to-*end*" style="stroke:#181818;stroke-width:1.0;"/><polygon fill="#181818" points="160,525.9,164,516.9,160,520.9,156,516.9,160,525.9" style="stroke:#181818;stroke-width:1.0;"/></g><!--SRC=[NOqn3i8m34Ltdy9pfLw00OcH3QbZwH0bBbYgx2fE63WzaBQXCFdf-Kc_RmPisoDUI0AJ90AeM1udd_YXi9nYkcpp9maANzot-_WiRf5_QVM_QrN3HaNtpG0W-euYt-u9TLoty82TJehPiekijcgxofmfa60aD_7JHNJUimePl000]--></g></svg>