<?xml version="1.0" encoding="us-ascii" standalone="no"?><svg xmlns="http://www.w3.org/2000/svg" xmlns:xlink="http://www.w3.org/1999/xlink" contentStyleType="text/css" height="538px" preserveAspectRatio="none" style="width:923px;height:538px;background:#FFFFFF;" version="1.1" viewBox="0 0 923 538" width="923px" zoomAndPan="magnify"><defs/><g><!--cluster Configuraci?n del Contexto Tonal--><g id="cluster_Configuraci&#243;n del Contexto Tonal"><path d="M382.39,362.602 L615.39,362.602 A3.75,3.75 0 0 1 617.89,365.102 L624.89,387.6699 L914.39,387.6699 A2.5,2.5 0 0 1 916.89,390.1699 L916.89,529.102 A2.5,2.5 0 0 1 914.39,531.602 L382.39,531.602 A2.5,2.5 0 0 1 379.89,529.102 L379.89,365.102 A2.5,2.5 0 0 1 382.39,362.602 " fill="none" style="stroke:#000000;stroke-width:1.5;"/><line style="stroke:#000000;stroke-width:1.5;" x1="379.89" x2="624.89" y1="387.6699" y2="387.6699"/><text fill="#000000" font-family="sans-serif" font-size="14" font-weight="bold" lengthAdjust="spacing" textLength="232" x="383.89" y="379.5679">Configuraci&#243;n del Contexto Tonal</text></g><!--cluster Gesti?n de Progresi?n Arm?nica--><g id="cluster_Gesti&#243;n de Progresi&#243;n Arm&#243;nica"><path d="M49.39,6.602 L275.39,6.602 A3.75,3.75 0 0 1 277.89,9.102 L284.89,31.6699 L608.89,31.6699 A2.5,2.5 0 0 1 611.39,34.1699 L611.39,336.102 A2.5,2.5 0 0 1 608.89,338.602 L49.39,338.602 A2.5,2.5 0 0 1 46.89,336.102 L46.89,9.102 A2.5,2.5 0 0 1 49.39,6.602 " fill="none" style="stroke:#000000;stroke-width:1.5;"/><line style="stroke:#000000;stroke-width:1.5;" x1="46.89" x2="284.89" y1="31.6699" y2="31.6699"/><text fill="#000000" font-family="sans-serif" font-size="14" font-weight="bold" lengthAdjust="spacing" textLength="225" x="50.89" y="23.5679">Gesti&#243;n de Progresi&#243;n Arm&#243;nica</text></g><g id="elem_seleccionarTonica"><ellipse cx="812.0521" cy="420.8344" fill="#F1F1F1" rx="89.1621" ry="20.2324" style="stroke:#181818;stroke-width:0.5;"/><text fill="#000000" font-family="sans-serif" font-size="14" lengthAdjust="spacing" textLength="128" x="745.0521" y="425.5674">seleccionarT&#243;nica()</text></g><g id="elem_seleccionarModo"><ellipse cx="811.7405" cy="495.3721" fill="#F1F1F1" rx="86.8505" ry="19.7701" style="stroke:#181818;stroke-width:0.5;"/><text fill="#000000" font-family="sans-serif" font-size="14" lengthAdjust="spacing" textLength="122" x="747.7405" y="500.105">seleccionarModo()</text></g><g id="elem_generarMapaArmonico"><ellipse cx="499.6863" cy="423.7613" fill="#F1F1F1" rx="103.7963" ry="23.1593" style="stroke:#181818;stroke-width:0.5;"/><text fill="#000000" font-family="sans-serif" font-size="14" lengthAdjust="spacing" textLength="164" x="414.6863" y="428.4942">generarMapaArm&#243;nico()</text></g><g id="elem_iniciarProgresion"><ellipse cx="169.1227" cy="225.4485" fill="#F1F1F1" rx="87.2327" ry="19.8465" style="stroke:#181818;stroke-width:0.5;"/><text fill="#000000" font-family="sans-serif" font-size="14" lengthAdjust="spacing" textLength="123" x="104.6227" y="230.1815">iniciarProgresi&#243;n()</text></g><g id="elem_consultarProgresion"><ellipse cx="499.9097" cy="148.6059" fill="#F1F1F1" rx="95.5197" ry="21.5039" style="stroke:#181818;stroke-width:0.5;"/><text fill="#000000" font-family="sans-serif" font-size="14" lengthAdjust="spacing" textLength="144" x="424.9097" y="153.3389">consultarProgresi&#243;n()</text></g><g id="elem_extenderProgresion"><ellipse cx="168.698" cy="148.3636" fill="#F1F1F1" rx="94.308" ry="21.2616" style="stroke:#181818;stroke-width:0.5;"/><text fill="#000000" font-family="sans-serif" font-size="14" lengthAdjust="spacing" textLength="141" x="95.198" y="153.0966">extenderProgresi&#243;n()</text></g><g id="elem_retrocederEnProgresion"><ellipse cx="168.8033" cy="68.6846" fill="#F1F1F1" rx="105.9133" ry="23.5827" style="stroke:#181818;stroke-width:0.5;"/><text fill="#000000" font-family="sans-serif" font-size="14" lengthAdjust="spacing" textLength="169" x="81.3033" y="73.4176">retrocederEnProgresi&#243;n()</text></g><g id="elem_reiniciarProgresion"><ellipse cx="169.0959" cy="301.5432" fill="#F1F1F1" rx="92.7059" ry="20.9412" style="stroke:#181818;stroke-width:0.5;"/><text fill="#000000" font-family="sans-serif" font-size="14" lengthAdjust="spacing" textLength="137" x="97.5959" y="306.2761">reiniciarProgresi&#243;n()</text></g><!--entity musico--><g id="elem_musico"><ellipse cx="168.89" cy="366.602" fill="#F1F1F1" rx="8" ry="8" style="stroke:#181818;stroke-width:0.5;"/><path d="M168.89,374.602 L168.89,401.602 M155.89,382.602 L181.89,382.602 M168.89,401.602 L155.89,416.602 M168.89,401.602 L181.89,416.602 " fill="none" style="stroke:#181818;stroke-width:0.5;"/><text fill="#000000" font-family="sans-serif" font-size="14" lengthAdjust="spacing" textLength="48" x="144.89" y="433.0679">M&#250;sico</text></g><!--link musico to seleccionarTonica--><g id="link_musico_seleccionarTonica"><path d="M193.03,408.042 C267.16,440.002 504.81,531.152 692.89,476.602 C708.04,472.202 708.9,464.912 722.89,457.602 C736.55,450.462 746.3583,445.9318 760.3583,440.1218 " fill="none" id="musico-to-seleccionarTonica" style="stroke:#181818;stroke-width:1.0;"/><polygon fill="#181818" points="765.9,437.822,756.0542,437.5772,761.2819,439.7385,759.1206,444.9662,765.9,437.822" style="stroke:#181818;stroke-width:1.0;"/></g><!--link musico to seleccionarModo--><g id="link_musico_seleccionarModo"><path d="M193.11,415.192 C229.07,441.092 301.45,488.012 371.89,502.602 C498.59,528.842 644.325,517.9455 732.165,507.1255 " fill="none" id="musico-to-seleccionarModo" style="stroke:#181818;stroke-width:1.0;"/><polygon fill="#181818" points="738.12,506.392,728.6985,503.5223,733.1575,507.0033,729.6765,511.4623,738.12,506.392" style="stroke:#181818;stroke-width:1.0;"/></g><!--link musico to generarMapaArmonico--><g id="link_musico_generarMapaArmonico"><path d="M193.02,399.432 C235.73,402.802 323.2287,409.7189 395.6787,415.4489 " fill="none" id="musico-to-generarMapaArmonico" style="stroke:#181818;stroke-width:1.0;"/><polygon fill="#181818" points="401.66,415.922,393.0034,411.2248,396.6756,415.5278,392.3726,419.1999,401.66,415.922" style="stroke:#181818;stroke-width:1.0;"/></g><!--link musico to iniciarProgresion--><g id="link_musico_iniciarProgresion"><path d="M144.67,390.182 C117.22,380.992 71.98,363.452 38.89,338.602 C17.42,322.482 14.57,305.272 23.89,280.102 C33.64,253.742 53.7905,241.36 81.0905,234.12 " fill="none" id="musico-to-iniciarProgresion" style="stroke:#181818;stroke-width:1.0;"/><polygon fill="#181818" points="86.89,232.582,77.1654,231.0227,82.0571,233.8637,79.2161,238.7554,86.89,232.582" style="stroke:#181818;stroke-width:1.0;"/></g><!--link musico to consultarProgresion--><g id="link_musico_consultarProgresion"><path d="M193.11,386.852 C215.16,376.132 248.72,358.432 274.89,338.602 C289.91,327.212 290.93,321.282 304.89,308.602 C335.58,280.712 422.9103,209.8494 468.3003,173.2294 " fill="none" id="musico-to-consultarProgresion" style="stroke:#181818;stroke-width:1.0;"/><polygon fill="#181818" points="472.97,169.462,463.4538,172,469.0786,172.6015,468.4771,178.2263,472.97,169.462" style="stroke:#181818;stroke-width:1.0;"/></g><!--link musico to extenderProgresion--><g id="link_musico_extenderProgresion"><path d="M144.67,390.182 C117.22,380.992 71.98,363.452 38.89,338.602 C30.69,332.452 27.44,330.712 23.89,321.102 C6,272.752 6,253.452 23.89,205.102 C33.21,179.892 51.4509,167.4921 77.2909,159.6121 " fill="none" id="musico-to-extenderProgresion" style="stroke:#181818;stroke-width:1.0;"/><polygon fill="#181818" points="83.03,157.862,73.2546,156.6612,78.2474,159.3204,75.5882,164.3133,83.03,157.862" style="stroke:#181818;stroke-width:1.0;"/></g><!--link musico to retrocederEnProgresion--><g id="link_musico_retrocederEnProgresion"><path d="M144.65,394.402 C108.29,388.052 41.96,369.952 23.89,321.102 C8.93,280.672 8.93,167.532 23.89,127.102 C32.64,103.422 48.5162,91.2405 72.3862,82.7605 " fill="none" id="musico-to-retrocederEnProgresion" style="stroke:#181818;stroke-width:1.0;"/><polygon fill="#181818" points="78.04,80.752,68.2202,79.9956,73.3285,82.4258,70.8983,87.534,78.04,80.752" style="stroke:#181818;stroke-width:1.0;"/></g><!--link musico to reiniciarProgresion--><g id="link_musico_reiniciarProgresion"><path d="M168.89,357.852 C168.89,346.132 168.89,340.412 168.89,328.692 " fill="none" id="musico-to-reiniciarProgresion" style="stroke:#181818;stroke-width:1.0;"/><polygon fill="#181818" points="168.89,322.692,164.89,331.692,168.89,327.692,172.89,331.692,168.89,322.692" style="stroke:#181818;stroke-width:1.0;"/></g><!--link generarMapaArmonico to seleccionarTonica--><g id="link_generarMapaArmonico_seleccionarTonica"><path d="M604.11,422.602 C642.6,422.232 679.8903,421.8704 716.8803,421.5104 " fill="none" id="generarMapaArmonico-to-seleccionarTonica" style="stroke:#181818;stroke-width:1.0;stroke-dasharray:7.0,7.0;"/><polygon fill="#181818" points="722.88,421.452,713.8415,417.5398,717.8802,421.5006,713.9194,425.5394,722.88,421.452" style="stroke:#181818;stroke-width:1.0;"/><text fill="#000000" font-family="sans-serif" font-size="13" lengthAdjust="spacing" textLength="57" x="634.89" y="418.499">&#171;include&#187;</text></g><!--link generarMapaArmonico to seleccionarModo--><g id="link_generarMapaArmonico_seleccionarModo"><path d="M572.39,440.212 C626.22,452.712 693.3354,468.3051 744.3354,480.1451 " fill="none" id="generarMapaArmonico-to-seleccionarModo" style="stroke:#181818;stroke-width:1.0;stroke-dasharray:7.0,7.0;"/><polygon fill="#181818" points="750.18,481.502,742.3177,475.5703,745.3095,480.3713,740.5086,483.3631,750.18,481.502" style="stroke:#181818;stroke-width:1.0;"/><text fill="#000000" font-family="sans-serif" font-size="13" lengthAdjust="spacing" textLength="57" x="634.89" y="451.499">&#171;include&#187;</text></g><!--link extenderProgresion to consultarProgresion--><g id="link_extenderProgresion_consultarProgresion"><path d="M263.72,148.602 C307.79,148.602 354.2,148.602 398.35,148.602 " fill="none" id="extenderProgresion-to-consultarProgresion" style="stroke:#181818;stroke-width:1.0;stroke-dasharray:7.0,7.0;"/><polygon fill="#181818" points="404.35,148.602,395.35,144.602,399.35,148.602,395.35,152.602,404.35,148.602" style="stroke:#181818;stroke-width:1.0;"/><text fill="#000000" font-family="sans-serif" font-size="13" lengthAdjust="spacing" textLength="57" x="305.89" y="144.499">&#171;include&#187;</text></g><!--link retrocederEnProgresion to consultarProgresion--><g id="link_retrocederEnProgresion_consultarProgresion"><path d="M240.87,85.862 C298.39,99.852 372.9198,117.9745 428.6098,131.5145 " fill="none" id="retrocederEnProgresion-to-consultarProgresion" style="stroke:#181818;stroke-width:1.0;stroke-dasharray:7.0,7.0;"/><polygon fill="#181818" points="434.44,132.932,426.6398,126.919,429.5815,131.7507,424.7498,134.6925,434.44,132.932" style="stroke:#181818;stroke-width:1.0;"/><text fill="#000000" font-family="sans-serif" font-size="13" lengthAdjust="spacing" textLength="57" x="305.89" y="97.499">&#171;include&#187;</text></g><!--link iniciarProgresion to generarMapaArmonico--><g id="link_iniciarProgresion_generarMapaArmonico"><path d="M224.48,241.082 C241.15,246.792 259.21,254.002 274.89,262.602 C322.9,288.942 327.54,306.462 371.89,338.602 C402.82,361.022 434.1082,381.8438 459.9582,398.6338 " fill="none" id="iniciarProgresion-to-generarMapaArmonico" style="stroke:#181818;stroke-width:1.0;stroke-dasharray:7.0,7.0;"/><polygon fill="#181818" points="464.99,401.902,459.6212,393.6451,460.7969,399.1785,455.2635,400.3542,464.99,401.902" style="stroke:#181818;stroke-width:1.0;"/><text fill="#000000" font-family="sans-serif" font-size="13" lengthAdjust="spacing" textLength="57" x="305.89" y="278.499">&#171;include&#187;</text></g><!--link extenderProgresion to generarMapaArmonico--><g id="link_extenderProgresion_generarMapaArmonico"><path d="M225.75,165.872 C242.03,171.822 259.56,179.152 274.89,187.602 C318.47,211.642 339.7,212.092 363.89,255.602 C381.89,287.992 352.88,306.792 371.89,338.602 C389.51,368.102 416.4447,386.7962 444.0547,400.7462 " fill="none" id="extenderProgresion-to-generarMapaArmonico" style="stroke:#181818;stroke-width:1.0;stroke-dasharray:7.0,7.0;"/><polygon fill="#181818" points="449.41,403.452,443.1809,395.8232,444.9473,401.1972,439.5733,402.9635,449.41,403.452" style="stroke:#181818;stroke-width:1.0;"/><text fill="#000000" font-family="sans-serif" font-size="13" lengthAdjust="spacing" textLength="57" x="305.89" y="200.499">&#171;include&#187;</text></g><!--SRC=[ZLFBQiCm4BphAnPVcXoQ3oZ1K4hfAL1AVs2HDwwe8wMI38NIh-gjr_nOLqu2aRIcoScPqOpsCHfe6o4wyAP_Yz0PJpeQPvL27Ps7PdFu3KQx1Z30RaoVIkrHlsDFq3mukpNzw56Rmu-5ZWPWAD8d6xuwYqC3NmhuDmRI60W23QGr-wDdtcXCjiqboZuCBvRDd6xZEbUg4bPAUhBacS8ztljTkkmeo_7fkadxVT7N4uLuwWYUlUizXUdlMO1bNuP1W_vyrjdfgW9bQLcaTZQCGwoK5IveUSfaEogb9ImeFKNlDF6XHrke9Kfqa3kky9EMXti3BpHWsXU5r3TC0LF7JC5j2uig7CiPDgqxuuHTPtnLRCOAIyZuUj0PBK-pE29Ka4-a8yisAN3ver9IZbUhLdXATx1U6wk7iQEslKOtFQLSDLVK-KKe8NN9LGfoxZmJkkl4ULcfAe8zVemKAQWwYibKwZytdMdbV-4V]--></g></svg>