<?xml version="1.0" encoding="us-ascii" standalone="no"?><svg xmlns="http://www.w3.org/2000/svg" xmlns:xlink="http://www.w3.org/1999/xlink" contentStyleType="text/css" height="551px" preserveAspectRatio="none" style="width:407px;height:551px;background:#FFFFFF;" version="1.1" viewBox="0 0 407 551" width="407px" zoomAndPan="magnify"><defs/><g><!--cluster Gesti?n de progresi?n arm?nica (CRUD)--><g id="cluster_Gesti&#243;n de progresi&#243;n arm&#243;nica (CRUD)"><path d="M103.5,6.602 L380.5,6.602 A3.75,3.75 0 0 1 383,9.102 L390,31.6699 L397.5,31.6699 A2.5,2.5 0 0 1 400,34.1699 L400,542.102 A2.5,2.5 0 0 1 397.5,544.602 L103.5,544.602 A2.5,2.5 0 0 1 101,542.102 L101,9.102 A2.5,2.5 0 0 1 103.5,6.602 " fill="none" style="stroke:#000000;stroke-width:1.5;"/><line style="stroke:#000000;stroke-width:1.5;" x1="101" x2="390" y1="31.6699" y2="31.6699"/><text fill="#000000" font-family="sans-serif" font-size="14" font-weight="bold" lengthAdjust="spacing" textLength="276" x="105" y="23.5679">Gesti&#243;n de progresi&#243;n arm&#243;nica (CRUD)</text></g><g id="elem_iniciarProgresion"><ellipse cx="250.7443" cy="401.431" fill="#F1F1F1" rx="99.7443" ry="30.3291" style="stroke:#181818;stroke-width:0.5;"/><text fill="#000000" font-family="sans-serif" font-size="14" lengthAdjust="spacing" textLength="123" x="186.2443" y="396.63">iniciarProgresi&#243;n()</text><text fill="#000000" font-family="sans-serif" font-size="14" lengthAdjust="spacing" textLength="58" x="218.7443" y="415.698">&#171;Create&#187;</text></g><g id="elem_consultarProgresion"><ellipse cx="250.605" cy="190.5072" fill="#F1F1F1" rx="115.105" ry="30.4052" style="stroke:#181818;stroke-width:0.5;"/><text fill="#000000" font-family="sans-serif" font-size="14" lengthAdjust="spacing" textLength="144" x="175.605" y="185.7062">consultarProgresi&#243;n()</text><text fill="#000000" font-family="sans-serif" font-size="14" lengthAdjust="spacing" textLength="48" x="223.605" y="204.7742">&#171;Read&#187;</text></g><g id="elem_extenderProgresion"><ellipse cx="250.4106" cy="75.4976" fill="#F1F1F1" rx="112.9106" ry="30.3956" style="stroke:#181818;stroke-width:0.5;"/><text fill="#000000" font-family="sans-serif" font-size="14" lengthAdjust="spacing" textLength="141" x="176.9106" y="70.6966">extenderProgresi&#243;n()</text><text fill="#000000" font-family="sans-serif" font-size="14" lengthAdjust="spacing" textLength="63" x="215.9106" y="89.7645">&#171;Update&#187;</text></g><g id="elem_retrocederEnProgresion"><ellipse cx="250.3927" cy="305.5751" fill="#F1F1F1" rx="133.3927" ry="30.4731" style="stroke:#181818;stroke-width:0.5;"/><text fill="#000000" font-family="sans-serif" font-size="14" lengthAdjust="spacing" textLength="169" x="162.8927" y="300.7741">retrocederEnProgresi&#243;n()</text><text fill="#000000" font-family="sans-serif" font-size="14" lengthAdjust="spacing" textLength="63" x="215.8927" y="319.842">&#171;Update&#187;</text></g><g id="elem_reiniciarProgresion"><ellipse cx="250.4847" cy="497.4842" fill="#F1F1F1" rx="109.9847" ry="30.3822" style="stroke:#181818;stroke-width:0.5;"/><text fill="#000000" font-family="sans-serif" font-size="14" lengthAdjust="spacing" textLength="137" x="178.9847" y="492.6832">reiniciarProgresi&#243;n()</text><text fill="#000000" font-family="sans-serif" font-size="14" lengthAdjust="spacing" textLength="57" x="218.9847" y="511.7511">&#171;Delete&#187;</text></g><!--entity musico--><g id="elem_musico"><ellipse cx="30" cy="274.602" fill="#F1F1F1" rx="8" ry="8" style="stroke:#181818;stroke-width:0.5;"/><path d="M30,282.602 L30,309.602 M17,290.602 L43,290.602 M30,309.602 L17,324.602 M30,309.602 L43,324.602 " fill="none" style="stroke:#181818;stroke-width:0.5;"/><text fill="#000000" font-family="sans-serif" font-size="14" lengthAdjust="spacing" textLength="48" x="6" y="341.0679">M&#250;sico</text></g><!--link musico to iniciarProgresion--><g id="link_musico_iniciarProgresion"><path d="M54.06,326.692 C65.18,335.982 79.1,346.402 93,353.602 C117.1,366.092 139.23,374.2621 164.74,381.7021 " fill="none" id="musico-to-iniciarProgresion" style="stroke:#181818;stroke-width:1.0;"/><polygon fill="#181818" points="170.5,383.382,162.9799,377.0221,165.7,381.9821,160.74,384.7021,170.5,383.382" style="stroke:#181818;stroke-width:1.0;"/></g><!--link musico to consultarProgresion--><g id="link_musico_consultarProgresion"><path d="M54.13,285.422 C65.38,276.212 79.39,265.612 93,257.602 C120.9,241.192 147.9939,228.8022 176.2439,217.4322 " fill="none" id="musico-to-consultarProgresion" style="stroke:#181818;stroke-width:1.0;"/><polygon fill="#181818" points="181.81,215.192,171.9674,214.8416,177.1716,217.0588,174.9543,222.2631,181.81,215.192" style="stroke:#181818;stroke-width:1.0;"/></g><!--link musico to extenderProgresion--><g id="link_musico_extenderProgresion"><path d="M37.02,266.012 C44.43,229.752 60.29,176.682 93,142.602 C113.26,121.492 135.6562,108.8362 162.3662,98.6162 " fill="none" id="musico-to-extenderProgresion" style="stroke:#181818;stroke-width:1.0;"/><polygon fill="#181818" points="167.97,96.472,158.1349,95.9524,163.3002,98.2588,160.9938,103.4241,167.97,96.472" style="stroke:#181818;stroke-width:1.0;"/></g><!--link musico to retrocederEnProgresion--><g id="link_musico_retrocederEnProgresion"><path d="M54.38,305.602 C70.24,305.602 86.61,305.602 110.57,305.602 " fill="none" id="musico-to-retrocederEnProgresion" style="stroke:#181818;stroke-width:1.0;"/><polygon fill="#181818" points="116.57,305.602,107.57,301.602,111.57,305.602,107.57,309.602,116.57,305.602" style="stroke:#181818;stroke-width:1.0;"/></g><!--link musico to reiniciarProgresion--><g id="link_musico_reiniciarProgresion"><path d="M38.45,345.202 C46.54,377.592 62.6,422.352 93,449.602 C110.25,465.062 126.6571,473.7082 148.8071,480.8182 " fill="none" id="musico-to-reiniciarProgresion" style="stroke:#181818;stroke-width:1.0;"/><polygon fill="#181818" points="154.52,482.652,147.1732,476.0927,149.7593,481.1238,144.7281,483.7099,154.52,482.652" style="stroke:#181818;stroke-width:1.0;"/></g><!--link extenderProgresion to consultarProgresion--><g id="link_extenderProgresion_consultarProgresion"><path d="M250.5,106.262 C250.5,122.922 250.5,137.452 250.5,154.082 " fill="none" id="extenderProgresion-to-consultarProgresion" style="stroke:#181818;stroke-width:1.0;stroke-dasharray:7.0,7.0;"/><polygon fill="#181818" points="250.5,160.082,254.5,151.082,250.5,155.082,246.5,151.082,250.5,160.082" style="stroke:#181818;stroke-width:1.0;"/><text fill="#000000" font-family="sans-serif" font-size="13" lengthAdjust="spacing" textLength="57" x="209.5" y="138.499">&#171;include&#187;</text></g><!--link retrocederEnProgresion to consultarProgresion--><g id="link_retrocederEnProgresion_consultarProgresion"><path d="M250.5,275.082 C250.5,258.452 250.5,243.922 250.5,227.262 " fill="none" id="retrocederEnProgresion-to-consultarProgresion" style="stroke:#181818;stroke-width:1.0;stroke-dasharray:7.0,7.0;"/><polygon fill="#181818" points="250.5,221.262,246.5,230.262,250.5,226.262,254.5,230.262,250.5,221.262" style="stroke:#181818;stroke-width:1.0;"/><text fill="#000000" font-family="sans-serif" font-size="13" lengthAdjust="spacing" textLength="57" x="209.5" y="253.499">&#171;include&#187;</text></g><!--SRC=[ZP6nQiGm38PtFuNmb0pN1oWXortfL3WERkiYR3KrpTb1Lg1G-bJTkjwBrTShWTWkhHVRlwGFwTT8Jm8IWDtmB60Tan4Nl59e933eX_DdT2Pem0Yd-V9KQaBpWWE1lgSexlpXmH9C70Qc-Fr5FgNB6OHcUpZkMWrl2jAP8ncC12x57FB-foJu2rrdQY8qxQFlkYqJ2lMzNZ5Cy74UfQ0K-i8v4DgSGgz2tb8EoUM5SPnifHScuM0e5TpvZ5GB_Kch-rFe2sT78rqvxqfTjmIRJGzD0MfNuOg7wuJIddMyFdYUK-b2LOo_wQjBlOMkSzwCiqqJgb-i_bVj5m00]--></g></svg>