<?xml version="1.0" encoding="us-ascii" standalone="no"?><svg xmlns="http://www.w3.org/2000/svg" xmlns:xlink="http://www.w3.org/1999/xlink" contentStyleType="text/css" height="256px" preserveAspectRatio="none" style="width:1399px;height:256px;background:#FFFFFF;" version="1.1" viewBox="0 0 1399 256" width="1399px" zoomAndPan="magnify"><defs/><g><g id="Inicial"><rect fill="#F1F1F1" height="50" rx="12.5" ry="12.5" style="stroke:#181818;stroke-width:0.5;" width="136" x="87" y="180"/><line style="stroke:#181818;stroke-width:0.5;" x1="87" x2="223" y1="209.0679" y2="209.0679"/><text fill="#000000" font-family="sans-serif" font-size="14" lengthAdjust="spacing" textLength="116" x="97" y="199.9659">SISTEMA_INICIAL</text></g><g id="Mapa"><rect fill="#F1F1F1" height="50" rx="12.5" ry="12.5" style="stroke:#181818;stroke-width:0.5;" width="147" x="432" y="180"/><line style="stroke:#181818;stroke-width:0.5;" x1="432" x2="579" y1="209.0679" y2="209.0679"/><text fill="#000000" font-family="sans-serif" font-size="14" lengthAdjust="spacing" textLength="127" x="442" y="199.9659">MAPA_DISPONIBLE</text></g><g id="Construccion"><rect fill="#F1F1F1" height="50" rx="12.5" ry="12.5" style="stroke:#181818;stroke-width:0.5;" width="252" x="762" y="140"/><line style="stroke:#181818;stroke-width:0.5;" x1="762" x2="1014" y1="169.0679" y2="169.0679"/><text fill="#000000" font-family="sans-serif" font-size="14" lengthAdjust="spacing" textLength="232" x="772" y="159.9659">PROGRESION_EN_CONSTRUCCION</text></g><g id="Finalizada"><rect fill="#F1F1F1" height="50" rx="12.5" ry="12.5" style="stroke:#181818;stroke-width:0.5;" width="196" x="1196" y="180"/><line style="stroke:#181818;stroke-width:0.5;" x1="1196" x2="1392" y1="209.0679" y2="209.0679"/><text fill="#000000" font-family="sans-serif" font-size="14" lengthAdjust="spacing" textLength="176" x="1206" y="199.9659">PROGRESION_FINALIZADA</text></g><ellipse cx="16" cy="205" fill="#222222" rx="10" ry="10" style="stroke:#222222;stroke-width:1.0;"/><!--link *start* to Inicial--><g id="link_*start*_Inicial"><path d="M26.42,205 C39.17,205 57.08,205 80.79,205 " fill="none" id="*start*-to-Inicial" style="stroke:#181818;stroke-width:1.0;"/><polygon fill="#181818" points="86.79,205,77.79,201,81.79,205,77.79,209,86.79,205" style="stroke:#181818;stroke-width:1.0;"/></g><!--link Inicial to Inicial--><g id="link_Inicial_Inicial"><path d="M146.71,179.72 C144.2,162.23 146.96,145 155,145 C163.04,145 166.6523,156.2908 164.1423,173.7808 " fill="none" id="Inicial-to-Inicial" style="stroke:#181818;stroke-width:1.0;"/><polygon fill="#181818" points="163.29,179.72,168.5279,171.3795,164.0003,174.7707,160.6091,170.2431,163.29,179.72" style="stroke:#181818;stroke-width:1.0;"/><text fill="#000000" font-family="sans-serif" font-size="13" lengthAdjust="spacing" textLength="113" x="98.5" y="135.897">seleccionarT&#243;nica()</text></g><!--link Inicial to Inicial--><g id="link_Inicial_Inicial"><path d="M142.12,179.71 C131.76,147.89 136.05,110 155,110 C173.95,110 180.0975,142.1848 169.7375,174.0048 " fill="none" id="Inicial-to-Inicial-1" style="stroke:#181818;stroke-width:1.0;"/><polygon fill="#181818" points="167.88,179.71,174.4698,172.3905,169.4279,174.9556,166.8628,169.9138,167.88,179.71" style="stroke:#181818;stroke-width:1.0;"/><text fill="#000000" font-family="sans-serif" font-size="13" lengthAdjust="spacing" textLength="110" x="100" y="100.897">seleccionarModo()</text></g><!--link Inicial to Mapa--><g id="link_Inicial_Mapa"><path d="M223.19,205 C283.03,205 364.35,205 425.8,205 " fill="none" id="Inicial-to-Mapa" style="stroke:#181818;stroke-width:1.0;"/><polygon fill="#181818" points="431.8,205,422.8,201,426.8,205,422.8,209,431.8,205" style="stroke:#181818;stroke-width:1.0;"/><text fill="#000000" font-family="sans-serif" font-size="13" lengthAdjust="spacing" textLength="147" x="254" y="200.897">generarMapaArm&#243;nico()</text></g><!--link Mapa to Mapa--><g id="link_Mapa_Mapa"><path d="M491.63,179.72 C487.42,162.23 492.05,145 505.5,145 C518.95,145 524.9841,156.3966 520.7741,173.8866 " fill="none" id="Mapa-to-Mapa" style="stroke:#181818;stroke-width:1.0;"/><polygon fill="#181818" points="519.37,179.72,525.3651,171.906,520.5401,174.8588,517.5873,170.0338,519.37,179.72" style="stroke:#181818;stroke-width:1.0;"/><text fill="#000000" font-family="sans-serif" font-size="13" lengthAdjust="spacing" textLength="113" x="449" y="135.897">seleccionarT&#243;nica()</text></g><!--link Mapa to Mapa--><g id="link_Mapa_Mapa"><path d="M483.95,179.71 C466.6,147.89 473.79,110 505.5,110 C537.21,110 547.2723,142.6222 529.9223,174.4422 " fill="none" id="Mapa-to-Mapa-1" style="stroke:#181818;stroke-width:1.0;"/><polygon fill="#181818" points="527.05,179.71,534.8703,173.7231,529.4436,175.3202,527.8466,169.8934,527.05,179.71" style="stroke:#181818;stroke-width:1.0;"/><text fill="#000000" font-family="sans-serif" font-size="13" lengthAdjust="spacing" textLength="110" x="450.5" y="100.897">seleccionarModo()</text></g><!--link Mapa to Construccion--><g id="link_Mapa_Construccion"><path d="M579.11,189.71 C589.12,187.93 599.29,186.29 609,185 C658.76,178.38 707.8622,174.2223 755.7922,171.1623 " fill="none" id="Mapa-to-Construccion" style="stroke:#181818;stroke-width:1.0;"/><polygon fill="#181818" points="761.78,170.78,752.5434,167.3615,756.7902,171.0986,753.0531,175.3453,761.78,170.78" style="stroke:#181818;stroke-width:1.0;"/><text fill="#000000" font-family="sans-serif" font-size="13" lengthAdjust="spacing" textLength="109" x="616" y="168.897">iniciarProgresi&#243;n()</text></g><!--link Construccion to Mapa--><g id="link_Construccion_Mapa"><path d="M819.7,190.12 C792.83,198.9 761.35,207.65 732,212 C677.92,220.02 663.63,213.86 609,212 C599.37,211.67 595.2396,211.5237 585.2496,210.9337 " fill="none" id="Construccion-to-Mapa" style="stroke:#181818;stroke-width:1.0;"/><polygon fill="#181818" points="579.26,210.58,588.0085,215.1036,584.2513,210.8748,588.4802,207.1176,579.26,210.58" style="stroke:#181818;stroke-width:1.0;"/><text fill="#000000" font-family="sans-serif" font-size="13" lengthAdjust="spacing" textLength="121" x="610" y="207.897">reiniciarProgresi&#243;n()</text></g><!--link Construccion to Construccion--><g id="link_Construccion_Construccion"><path d="M875.82,139.72 C872.13,122.23 876.19,105 888,105 C899.81,105 905.1086,116.3592 901.4186,133.8492 " fill="none" id="Construccion-to-Construccion" style="stroke:#181818;stroke-width:1.0;"/><polygon fill="#181818" points="900.18,139.72,905.9517,131.7396,901.2122,134.8277,898.1241,130.0881,900.18,139.72" style="stroke:#181818;stroke-width:1.0;"/><text fill="#000000" font-family="sans-serif" font-size="13" lengthAdjust="spacing" textLength="128" x="824" y="95.897">extenderProgresi&#243;n()</text></g><!--link Construccion to Construccion--><g id="link_Construccion_Construccion"><path d="M869.07,139.71 C853.85,107.89 860.16,70 888,70 C915.84,70 924.739,102.4773 909.519,134.2973 " fill="none" id="Construccion-to-Construccion-1" style="stroke:#181818;stroke-width:1.0;"/><polygon fill="#181818" points="906.93,139.71,914.4219,133.3169,909.0875,135.1994,907.205,129.865,906.93,139.71" style="stroke:#181818;stroke-width:1.0;"/><text fill="#000000" font-family="sans-serif" font-size="13" lengthAdjust="spacing" textLength="152" x="812" y="60.897">retrocederEnProgresi&#243;n()</text></g><!--link Construccion to Construccion--><g id="link_Construccion_Construccion"><path d="M865.15,139.79 C835.56,94.72 843.18,35 888,35 C932.82,35 943.7329,89.7044 914.1429,134.7744 " fill="none" id="Construccion-to-Construccion-2" style="stroke:#181818;stroke-width:1.0;"/><polygon fill="#181818" points="910.85,139.79,919.1332,134.4618,913.5941,135.6103,912.4456,130.0713,910.85,139.79" style="stroke:#181818;stroke-width:1.0;"/><text fill="#000000" font-family="sans-serif" font-size="13" lengthAdjust="spacing" textLength="110" x="833" y="25.897">seleccionarModo()</text></g><!--link Construccion to Finalizada--><g id="link_Construccion_Finalizada"><path d="M1014.34,171.81 C1061.92,174.98 1116.54,179.33 1166,185 C1175.65,186.11 1179.7387,186.5731 1189.7487,187.9831 " fill="none" id="Construccion-to-Finalizada" style="stroke:#181818;stroke-width:1.0;"/><polygon fill="#181818" points="1195.69,188.82,1187.3359,183.6038,1190.7389,188.1226,1186.2201,191.5256,1195.69,188.82" style="stroke:#181818;stroke-width:1.0;"/><text fill="#000000" font-family="sans-serif" font-size="13" lengthAdjust="spacing" textLength="120" x="1045" y="169.897">finalizarProgresi&#243;n()</text></g><!--link Finalizada to Construccion--><g id="link_Finalizada_Construccion"><path d="M1195.95,210.9 C1185.84,211.35 1175.71,211.73 1166,212 C1111.8,213.49 1097.64,219.95 1044,212 C1014.65,207.65 988.8732,200.7636 962.0032,191.9836 " fill="none" id="Finalizada-to-Construccion" style="stroke:#181818;stroke-width:1.0;"/><polygon fill="#181818" points="956.3,190.12,963.6125,196.7175,961.0527,191.673,966.0973,189.1132,956.3,190.12" style="stroke:#181818;stroke-width:1.0;"/><text fill="#000000" font-family="sans-serif" font-size="13" lengthAdjust="spacing" textLength="109" x="1050.5" y="207.897">iniciarProgresi&#243;n()</text></g><!--link Finalizada to Mapa--><g id="link_Finalizada_Mapa"><path d="M1195.71,219.95 C1185.69,221.14 1175.65,222.19 1166,223 C919.31,243.66 855.28,249.07 609,224 C599.28,223.01 595.0231,222.5476 585.0031,220.9276 " fill="none" id="Finalizada-to-Mapa" style="stroke:#181818;stroke-width:1.0;"/><polygon fill="#181818" points="579.08,219.97,587.3262,225.3552,584.0159,220.768,588.603,217.4577,579.08,219.97" style="stroke:#181818;stroke-width:1.0;"/><text fill="#000000" font-family="sans-serif" font-size="13" lengthAdjust="spacing" textLength="121" x="827.5" y="230.897">reiniciarProgresi&#243;n()</text></g><!--SRC=[bP9TJeGm58NVkufcNln9PWC-c5HWJ1Ce1F15OqW3Tx09jgQjYN5RBi6DMHg6GMOSniSBtpdtzBGTR2ss2clHlbZS20sr5KeYP2otW5S5BSee8HLbDA0aNc5kC9MY5hpR8Gd9I1NI8aiPlOiZZoJyZU_-PtbwdqS5JLaLiIf8ML7c3q7WPey6IXght-kwNtiesL16Olf8GkBfZP2y4v-yuGWzNJ_ZzVfsp8CkS0Yc0JmBZGPW2kCRRA03lvNhyllBVUQNLyjeeXeru_h3EgW52Te1RYBwrJlsv9XgrXFoied-Q9uJq91a9AP5EbBuX3hJgjLWX7ESXldxKj0ldoF6y651DZ1pNb9fi5hLu7IH_9_oyCW7YlshSFns69O23ergEBkf_Lj4autdTZ-Jd5x_0m00]--></g></svg>